<svg xmlns="http://www.w3.org/2000/svg" xmlns:xlink="http://www.w3.org/1999/xlink" width="170" zoomAndPan="magnify" viewBox="0 0 127.5 100.499997" height="134" preserveAspectRatio="xMidYMid meet" version="1.0"><defs><g/><clipPath id="1a7f83fb33"><path d="M 30.558594 0.355469 L 96.234375 0.355469 L 96.234375 74.238281 L 30.558594 74.238281 Z M 30.558594 0.355469 " clip-rule="nonzero"/></clipPath><clipPath id="a680b7e60d"><path d="M 30.558594 4 L 93 4 L 93 72 L 30.558594 72 Z M 30.558594 4 " clip-rule="nonzero"/></clipPath><clipPath id="83484dd172"><path d="M 46 0.355469 L 76 0.355469 L 76 49 L 46 49 Z M 46 0.355469 " clip-rule="nonzero"/></clipPath><clipPath id="fa033265e1"><path d="M 37 13 L 96.234375 13 L 96.234375 74 L 37 74 Z M 37 13 " clip-rule="nonzero"/></clipPath></defs><g clip-path="url(#1a7f83fb33)"><path fill="#fe687a" d="M 95.859375 16.949219 C 95.371094 18.546875 94.539062 19.730469 93.308594 20.566406 C 93.15625 20.671875 92.988281 20.742188 92.8125 20.816406 C 92.726562 20.855469 92.640625 20.890625 92.554688 20.929688 C 92.519531 20.949219 92.488281 20.957031 92.457031 20.957031 C 92.386719 20.957031 92.316406 20.914062 92.234375 20.828125 L 92.171875 20.765625 C 92.171875 20.765625 92.140625 20.777344 92.09375 20.792969 C 92.105469 20.832031 92.117188 20.875 92.136719 20.921875 C 91.566406 21.117188 90.996094 21.320312 90.421875 21.507812 C 89.851562 21.6875 89.265625 21.808594 88.660156 21.832031 C 88.664062 21.785156 88.667969 21.738281 88.664062 21.695312 C 88.660156 21.695312 88.65625 21.695312 88.65625 21.695312 L 88.46875 21.703125 L 88.527344 21.875 C 88.605469 22.101562 88.601562 22.34375 88.59375 22.597656 C 88.589844 22.695312 88.585938 22.796875 88.589844 22.894531 C 88.609375 23.71875 88.5625 24.523438 88.453125 25.292969 C 88.355469 25.996094 88.207031 26.683594 88.011719 27.398438 C 87.882812 27.855469 87.726562 28.308594 87.578125 28.75 L 87.480469 29.027344 C 87.375 29.339844 87.242188 29.652344 87.113281 29.949219 C 87.015625 30.175781 86.910156 30.414062 86.824219 30.652344 C 86.71875 30.921875 86.558594 31.164062 86.417969 31.367188 C 86.347656 31.464844 86.320312 31.464844 86.300781 31.464844 C 86.238281 31.464844 86.121094 31.410156 86.015625 31.359375 L 85.90625 31.308594 L 85.886719 31.335938 C 85.902344 31.386719 85.921875 31.433594 85.953125 31.484375 C 85.765625 31.765625 85.574219 32.046875 85.382812 32.328125 C 85.332031 32.308594 85.285156 32.296875 85.238281 32.296875 L 85.210938 32.332031 L 85.273438 32.410156 C 85.464844 32.660156 85.460938 32.714844 85.265625 32.992188 C 84.867188 33.558594 84.402344 34.058594 83.882812 34.613281 C 83.828125 34.667969 83.769531 34.707031 83.699219 34.734375 L 83.707031 34.875 C 83.71875 34.871094 83.734375 34.867188 83.75 34.859375 C 84.152344 34.988281 84.550781 35.101562 84.945312 35.242188 C 85.410156 35.410156 85.851562 35.617188 86.273438 35.863281 C 86.640625 36.074219 87.015625 36.285156 87.34375 36.5625 C 87.832031 36.980469 88.339844 37.375 88.738281 37.894531 C 89.058594 38.3125 89.382812 38.726562 89.636719 39.1875 C 90.125 40.070312 90.464844 41.011719 90.617188 42.011719 C 90.726562 42.71875 90.742188 43.429688 90.710938 44.140625 C 90.703125 44.273438 90.679688 44.402344 90.664062 44.53125 C 90.609375 44.53125 90.566406 44.53125 90.523438 44.539062 L 90.511719 44.617188 L 90.609375 44.65625 C 90.851562 44.761719 90.949219 44.855469 90.839844 45.308594 C 90.609375 46.25 90.320312 47.046875 89.945312 47.742188 C 89.875 47.875 89.804688 48.011719 89.734375 48.144531 C 89.5625 48.476562 89.382812 48.820312 89.183594 49.132812 L 89.167969 49.15625 C 88.851562 49.648438 88.523438 50.160156 88.105469 50.585938 C 88.042969 50.652344 87.988281 50.726562 87.9375 50.796875 L 87.878906 50.871094 C 87.6875 51.117188 87.519531 51.273438 87.328125 51.378906 L 87.179688 51.460938 L 87.21875 51.503906 C 87.273438 51.511719 87.332031 51.511719 87.394531 51.496094 C 88.113281 52.328125 88.640625 53.265625 89.011719 54.292969 C 89.207031 54.84375 89.394531 55.402344 89.492188 55.980469 C 89.675781 57.070312 89.828125 58.167969 89.734375 59.28125 C 89.699219 59.738281 89.675781 60.191406 89.632812 60.644531 C 89.507812 61.890625 89.449219 63.140625 89.101562 64.351562 C 89.050781 64.34375 89.003906 64.339844 88.960938 64.335938 L 88.9375 64.414062 L 89.027344 64.46875 C 89.234375 64.59375 89.203125 64.734375 89.058594 65.023438 C 88.945312 65.25 88.871094 65.476562 88.800781 65.695312 C 88.75 65.859375 88.699219 66.011719 88.632812 66.164062 C 88.3125 66.933594 87.90625 67.832031 87.347656 68.65625 C 86.789062 69.476562 86.230469 70.269531 85.492188 70.949219 L 85.28125 71.140625 C 84.984375 71.417969 84.675781 71.703125 84.359375 71.964844 C 83.851562 72.394531 83.265625 72.753906 82.75 73.070312 C 82.476562 73.238281 82.164062 73.375 81.820312 73.476562 C 81.8125 73.476562 81.800781 73.480469 81.792969 73.480469 C 81.773438 73.480469 81.746094 73.460938 81.699219 73.417969 C 81.660156 73.378906 81.613281 73.339844 81.550781 73.3125 L 81.5 73.289062 L 81.480469 73.292969 C 81.484375 73.335938 81.488281 73.382812 81.496094 73.4375 C 80.734375 73.726562 79.953125 73.945312 79.152344 74.082031 C 78.246094 74.238281 77.335938 74.226562 76.417969 74.152344 C 75.765625 74.101562 75.121094 73.992188 74.492188 73.8125 C 73.238281 73.453125 72.070312 72.910156 71.015625 72.144531 C 70.316406 71.636719 69.617188 71.128906 68.964844 70.566406 C 68.464844 70.140625 68.027344 69.648438 67.675781 69.09375 C 67.566406 68.921875 67.445312 68.890625 67.265625 68.925781 C 66.570312 69.0625 65.878906 69.246094 65.171875 69.3125 C 64.613281 69.367188 64.046875 69.386719 63.480469 69.378906 C 62.609375 69.363281 61.746094 69.257812 60.882812 69.15625 C 59.921875 69.039062 59 68.800781 58.09375 68.484375 C 57.96875 68.4375 57.847656 68.382812 57.726562 68.328125 C 57.734375 68.28125 57.742188 68.234375 57.75 68.191406 C 57.722656 68.179688 57.703125 68.171875 57.703125 68.171875 L 57.640625 68.222656 C 57.480469 68.351562 57.28125 68.417969 57.074219 68.492188 L 56.988281 68.519531 C 56.023438 68.867188 55.019531 69.164062 54.054688 69.453125 L 53.472656 69.625 C 53.023438 69.761719 52.578125 69.902344 52.132812 70.039062 C 51.640625 70.195312 51.152344 70.347656 50.664062 70.492188 C 50.015625 70.6875 49.355469 70.871094 48.714844 71.046875 L 48.058594 71.230469 C 48.015625 71.242188 47.976562 71.25 47.9375 71.25 C 47.867188 71.25 47.769531 71.230469 47.683594 71.078125 L 47.636719 70.992188 L 47.542969 71.007812 C 47.546875 71.050781 47.554688 71.09375 47.5625 71.144531 C 46.480469 71.347656 45.398438 71.546875 44.308594 71.699219 C 43.140625 71.859375 41.960938 71.972656 40.78125 71.925781 C 40.042969 71.898438 39.292969 71.867188 38.601562 71.566406 C 38.214844 71.402344 37.851562 71.191406 37.507812 70.949219 C 36.785156 70.4375 36.128906 69.855469 35.542969 69.199219 C 35.027344 68.625 34.542969 68.023438 34.113281 67.382812 C 33.679688 66.738281 33.296875 66.054688 32.929688 65.363281 C 32.441406 64.457031 32.050781 63.515625 31.707031 62.554688 C 31.371094 61.613281 31.089844 60.65625 30.90625 59.671875 C 30.71875 58.679688 30.613281 57.671875 30.554688 56.664062 C 30.554688 56.640625 30.5625 56.617188 30.566406 56.59375 C 30.613281 56.609375 30.65625 56.621094 30.699219 56.628906 L 30.703125 56.613281 C 30.710938 56.410156 30.71875 56.222656 30.722656 56.039062 C 30.734375 55.542969 30.746094 55.035156 30.84375 54.546875 C 30.890625 54.320312 30.933594 54.09375 30.976562 53.867188 L 31.019531 53.625 C 30.980469 53.597656 30.9375 53.570312 30.894531 53.542969 C 31.019531 52.96875 31.269531 52.433594 31.503906 51.898438 C 31.574219 51.738281 31.671875 51.570312 31.800781 51.457031 C 32.015625 51.273438 32.101562 51.007812 32.28125 50.800781 C 32.726562 50.296875 33.214844 49.851562 33.777344 49.480469 C 34.25 49.164062 34.753906 48.902344 35.285156 48.703125 C 36.003906 48.4375 36.746094 48.253906 37.515625 48.203125 C 37.519531 48.253906 37.527344 48.296875 37.539062 48.339844 L 37.636719 48.332031 L 37.652344 48.222656 C 37.683594 48.007812 37.753906 47.941406 37.96875 47.933594 C 38.046875 47.929688 38.128906 47.925781 38.210938 47.917969 C 38.328125 47.910156 38.453125 47.902344 38.570312 47.902344 C 38.628906 47.902344 38.683594 47.902344 38.738281 47.910156 C 38.824219 47.917969 38.914062 47.921875 39 47.925781 C 39.199219 47.941406 39.390625 47.953125 39.566406 48 C 39.691406 48.035156 39.816406 48.058594 39.941406 48.082031 C 40.136719 48.121094 40.320312 48.152344 40.5 48.230469 C 40.621094 48.28125 40.75 48.308594 40.875 48.335938 C 40.996094 48.363281 41.109375 48.386719 41.210938 48.429688 C 41.707031 48.640625 42.1875 48.851562 42.65625 49.089844 L 42.699219 49.113281 C 42.941406 49.238281 43.1875 49.367188 43.417969 49.511719 C 43.644531 49.652344 43.871094 49.808594 44.085938 49.960938 C 44.242188 50.066406 44.398438 50.175781 44.554688 50.28125 C 44.945312 50.539062 45.300781 50.863281 45.644531 51.175781 C 45.859375 51.375 46.085938 51.582031 46.324219 51.773438 C 46.359375 51.804688 46.390625 51.847656 46.421875 51.890625 C 46.484375 51.976562 46.550781 52.070312 46.675781 52.125 L 46.773438 52.050781 C 46.761719 52.035156 46.746094 52.015625 46.730469 52 C 46.679688 51.625 46.617188 51.253906 46.578125 50.878906 C 46.535156 50.480469 46.515625 50.078125 46.484375 49.679688 C 46.445312 49.21875 46.488281 48.753906 46.425781 48.292969 C 46.398438 48.085938 46.460938 47.878906 46.453125 47.667969 C 46.445312 47.503906 46.367188 47.335938 46.445312 47.164062 C 46.476562 47.210938 46.511719 47.25 46.539062 47.296875 C 46.542969 47.304688 46.546875 47.308594 46.550781 47.316406 C 46.550781 47.285156 46.554688 47.25 46.570312 47.222656 L 46.59375 47.167969 L 46.429688 46.761719 L 46.320312 46.777344 C 46.15625 46.800781 45.980469 46.8125 45.8125 46.8125 C 45.308594 46.8125 44.789062 46.707031 44.222656 46.476562 C 43.59375 46.226562 42.976562 45.875 42.382812 45.429688 C 41.804688 44.996094 41.207031 44.519531 40.785156 43.859375 C 40.691406 43.707031 40.683594 43.609375 40.894531 43.417969 L 40.980469 43.339844 L 40.953125 43.300781 C 40.90625 43.300781 40.855469 43.304688 40.800781 43.316406 C 40.410156 42.667969 40.121094 41.980469 39.984375 41.234375 C 39.867188 40.582031 39.878906 39.945312 40 39.292969 C 40.140625 38.515625 40.34375 37.757812 40.648438 37.03125 C 40.855469 36.535156 41.132812 36.078125 41.398438 35.613281 C 41.664062 35.152344 41.980469 34.730469 42.320312 34.332031 C 42.625 33.984375 42.925781 33.632812 43.265625 33.308594 C 43.835938 32.765625 44.449219 32.269531 45.121094 31.875 C 45.714844 31.519531 46.335938 31.199219 47.019531 30.988281 C 47.675781 30.789062 48.332031 30.652344 49.015625 30.632812 C 49.886719 30.605469 50.722656 30.757812 51.484375 31.199219 C 51.734375 31.34375 52.003906 31.453125 52.210938 31.65625 C 52.164062 31.675781 52.113281 31.691406 52.0625 31.710938 C 52.078125 31.726562 52.097656 31.738281 52.113281 31.753906 L 52.152344 31.789062 L 52.203125 31.792969 C 52.222656 31.792969 52.242188 31.792969 52.265625 31.792969 C 52.414062 31.792969 52.546875 31.757812 52.664062 31.679688 L 52.78125 31.605469 L 52.738281 31.542969 C 52.6875 31.550781 52.640625 31.554688 52.589844 31.566406 C 52.234375 31.023438 51.828125 30.511719 51.574219 29.902344 C 51.476562 29.664062 51.339844 29.433594 51.230469 29.195312 C 51.042969 28.773438 50.953125 28.320312 50.816406 27.882812 C 50.578125 27.101562 50.457031 26.292969 50.402344 25.492188 C 50.375 25.046875 50.320312 24.597656 50.347656 24.136719 C 50.378906 23.644531 50.410156 23.140625 50.402344 22.644531 C 50.398438 22.5 50.445312 22.351562 50.46875 22.207031 C 50.597656 21.460938 50.703125 20.710938 50.917969 19.976562 C 51.074219 19.453125 51.140625 18.894531 51.34375 18.390625 C 51.5625 17.855469 51.710938 17.292969 51.9375 16.757812 C 52.257812 15.996094 52.601562 15.246094 52.972656 14.511719 C 53.0625 14.332031 52.914062 14.347656 52.835938 14.335938 C 51.964844 14.195312 51.179688 13.847656 50.464844 13.34375 C 50.011719 13.027344 49.613281 12.632812 49.265625 12.207031 C 49.0625 11.96875 48.953125 11.65625 48.792969 11.382812 C 48.371094 10.667969 48.277344 9.875 48.25 9.070312 C 48.246094 8.917969 48.289062 8.765625 48.308594 8.609375 C 48.359375 8.613281 48.40625 8.613281 48.449219 8.613281 L 48.457031 8.554688 L 48.394531 8.503906 C 48.230469 8.371094 48.148438 8.046875 48.308594 7.75 C 48.40625 7.5625 48.472656 7.367188 48.535156 7.179688 C 48.601562 6.972656 48.667969 6.777344 48.773438 6.597656 C 48.859375 6.457031 48.933594 6.308594 49.007812 6.164062 C 49.140625 5.910156 49.265625 5.667969 49.4375 5.445312 C 49.539062 5.316406 49.625 5.171875 49.707031 5.035156 C 49.78125 4.90625 49.851562 4.785156 49.9375 4.675781 C 50.621094 3.777344 51.246094 3.09375 51.914062 2.535156 C 52.308594 2.203125 52.726562 1.917969 53.234375 1.59375 C 53.75 1.265625 54.371094 0.90625 55.070312 0.714844 C 55.460938 0.609375 55.882812 0.511719 56.316406 0.511719 C 56.375 0.511719 56.429688 0.515625 56.488281 0.515625 C 56.523438 0.519531 56.535156 0.53125 56.578125 0.585938 C 56.613281 0.636719 56.660156 0.699219 56.746094 0.734375 L 56.808594 0.757812 C 56.808594 0.714844 56.804688 0.664062 56.796875 0.605469 C 56.921875 0.527344 57.042969 0.613281 57.164062 0.617188 C 58.019531 0.65625 58.6875 1.066406 59.238281 1.6875 C 59.460938 1.941406 59.710938 2.175781 59.902344 2.460938 C 60.335938 3.097656 60.539062 3.816406 60.734375 4.539062 C 60.839844 4.9375 60.925781 5.335938 60.949219 5.75 C 60.90625 5.777344 60.863281 5.800781 60.816406 5.828125 L 60.824219 5.964844 L 61.011719 5.871094 C 61.675781 5.535156 62.375 5.296875 63.214844 5.039062 C 63.972656 4.808594 64.757812 4.640625 65.542969 4.535156 C 66.027344 4.472656 66.503906 4.414062 66.972656 4.414062 L 67.257812 4.414062 C 67.871094 4.414062 68.472656 4.425781 69.058594 4.566406 C 69.167969 4.59375 69.191406 4.625 69.210938 4.679688 L 69.230469 4.746094 L 69.296875 4.769531 C 69.304688 4.773438 69.316406 4.773438 69.324219 4.777344 C 69.332031 4.734375 69.339844 4.691406 69.34375 4.640625 C 69.570312 4.722656 69.804688 4.660156 70.039062 4.679688 C 71.042969 4.773438 72.042969 4.921875 73.023438 5.132812 C 73.546875 5.246094 74.058594 5.414062 74.574219 5.554688 C 75.53125 5.808594 76.445312 6.160156 77.339844 6.558594 C 78.242188 6.96875 79.121094 7.425781 79.949219 7.992188 C 80.648438 8.476562 81.308594 9 81.960938 9.535156 C 82.046875 9.605469 82.050781 9.578125 82.105469 9.519531 C 82.429688 9.1875 82.707031 8.816406 83.054688 8.503906 C 83.441406 8.15625 83.871094 7.882812 84.320312 7.636719 C 85.46875 7.015625 86.710938 6.8125 88 6.894531 C 89.097656 6.964844 90.140625 7.273438 91.121094 7.773438 C 92.183594 8.3125 93.085938 9.050781 93.867188 9.941406 C 94.347656 10.484375 94.746094 11.078125 95.046875 11.722656 C 95.308594 12.28125 95.542969 12.859375 95.664062 13.472656 C 95.613281 13.472656 95.566406 13.480469 95.523438 13.484375 C 95.527344 13.492188 95.527344 13.496094 95.527344 13.5 L 95.550781 13.613281 C 95.550781 13.613281 95.667969 13.609375 95.667969 13.609375 C 95.800781 13.609375 95.839844 13.671875 95.910156 13.878906 C 96.019531 14.222656 96.039062 14.578125 96.058594 14.953125 C 96.097656 15.75 96.035156 16.378906 95.859375 16.949219 Z M 95.859375 16.949219 " fill-opacity="1" fill-rule="nonzero"/></g><path fill="#ff0b40" d="M 73.019531 33.335938 C 73.046875 33.363281 73.066406 33.40625 73.097656 33.414062 C 73.851562 33.554688 74.542969 33.882812 75.210938 34.230469 C 75.980469 34.628906 76.683594 35.136719 77.3125 35.742188 C 78.171875 36.570312 78.871094 37.515625 79.375 38.601562 C 79.410156 38.675781 79.453125 38.75 79.492188 38.828125 C 79.25 38.996094 79.199219 39.214844 79.332031 39.476562 C 79.378906 39.574219 79.410156 39.679688 79.441406 39.78125 C 79.765625 40.835938 79.875 41.921875 79.867188 43.019531 C 79.863281 44.015625 79.722656 44.996094 79.460938 45.960938 C 79.328125 46.453125 79.164062 46.933594 78.945312 47.394531 C 78.800781 47.699219 78.683594 48.027344 78.4375 48.277344 C 78.296875 48.417969 78.152344 48.511719 77.929688 48.511719 C 77.195312 48.507812 76.488281 48.703125 75.792969 48.914062 C 75.191406 49.09375 74.617188 49.339844 74.054688 49.617188 C 73.539062 49.871094 73.054688 50.164062 72.59375 50.492188 C 72.207031 50.765625 71.839844 51.0625 71.488281 51.382812 C 71.1875 51.660156 71.15625 51.78125 71.378906 52.113281 C 71.113281 52.410156 70.847656 52.703125 70.582031 53 C 69.90625 53.75 69.335938 54.570312 68.910156 55.488281 C 68.65625 55.441406 68.460938 55.515625 68.371094 55.730469 C 68.207031 56.152344 68.019531 56.566406 67.878906 57 C 67.828125 57.148438 67.816406 57.363281 67.675781 57.417969 C 67.347656 57.550781 67.039062 57.707031 66.71875 57.847656 C 66.363281 58.003906 66.003906 58.15625 65.652344 58.3125 C 65.253906 58.492188 64.863281 58.683594 64.460938 58.847656 C 63.785156 59.132812 63.109375 59.414062 62.460938 59.75 C 62.136719 59.914062 61.976562 60.101562 62.136719 60.386719 C 61.648438 60.632812 61.160156 60.886719 60.59375 60.902344 C 60.425781 60.90625 60.277344 60.851562 60.132812 60.753906 C 58.65625 59.765625 57.199219 58.75 55.816406 57.632812 C 54.925781 56.910156 54.042969 56.171875 53.191406 55.398438 C 52.277344 54.578125 51.410156 53.714844 50.574219 52.820312 C 49.535156 51.707031 48.574219 50.523438 47.726562 49.253906 C 47.300781 48.617188 46.914062 47.964844 46.542969 47.296875 C 46.515625 47.25 46.480469 47.207031 46.449219 47.164062 C 46.414062 47.082031 46.378906 46.996094 46.347656 46.910156 C 46.59375 46.742188 46.679688 46.574219 46.589844 46.347656 C 46.503906 46.125 46.304688 46.082031 46.089844 46.105469 C 46.042969 46.109375 45.996094 46.105469 45.949219 46.101562 C 45.867188 45.78125 45.714844 45.484375 45.609375 45.171875 C 45.347656 44.398438 45.132812 43.617188 45.039062 42.804688 C 45.246094 42.804688 45.371094 42.683594 45.398438 42.507812 C 45.425781 42.324219 45.398438 42.136719 45.175781 42.054688 C 45.082031 42.023438 44.992188 41.976562 44.898438 41.9375 C 44.917969 41.644531 44.875 41.351562 44.878906 41.058594 C 44.882812 40.46875 44.9375 39.882812 45.085938 39.316406 C 45.261719 38.632812 45.496094 37.964844 45.765625 37.3125 C 45.914062 37.320312 46.039062 37.417969 46.191406 37.417969 C 46.335938 37.414062 46.453125 37.394531 46.53125 37.257812 C 46.605469 37.121094 46.644531 36.972656 46.570312 36.839844 C 46.480469 36.679688 46.308594 36.601562 46.140625 36.535156 C 46.226562 36.414062 46.320312 36.296875 46.390625 36.171875 C 46.738281 35.558594 47.164062 35.007812 47.636719 34.488281 C 48.105469 33.972656 48.621094 33.507812 49.1875 33.109375 C 49.625 32.800781 50.085938 32.519531 50.582031 32.296875 C 51.117188 32.058594 51.660156 31.851562 52.214844 31.660156 C 52.347656 31.667969 52.476562 31.640625 52.59375 31.570312 C 53.078125 31.480469 53.5625 31.40625 54.054688 31.359375 C 54.664062 31.300781 55.269531 31.335938 55.878906 31.382812 C 56.601562 31.433594 57.316406 31.570312 58.015625 31.777344 C 58.085938 31.796875 58.167969 31.792969 58.25 31.796875 C 58.492188 31.960938 58.792969 31.988281 59.058594 32.101562 C 59.476562 32.277344 59.886719 32.460938 60.296875 32.652344 C 60.648438 32.820312 61.019531 32.960938 61.332031 33.183594 C 62.023438 33.679688 62.761719 34.109375 63.378906 34.699219 C 63.46875 34.785156 63.554688 34.78125 63.65625 34.71875 C 64 34.507812 64.375 34.351562 64.75 34.195312 C 65.367188 33.941406 65.980469 33.675781 66.636719 33.515625 C 67.394531 33.332031 68.15625 33.15625 68.941406 33.085938 C 69.941406 32.996094 70.933594 33.003906 71.925781 33.160156 C 72.289062 33.21875 72.648438 33.324219 73.019531 33.335938 Z M 66.371094 44.429688 C 66.433594 44.582031 66.46875 44.699219 66.527344 44.804688 C 66.734375 45.175781 67.078125 45.386719 67.445312 45.558594 C 67.550781 45.609375 67.601562 45.644531 67.578125 45.777344 C 67.527344 46.035156 67.527344 46.300781 67.597656 46.5625 C 67.769531 47.246094 68.121094 47.804688 68.789062 48.101562 C 69.265625 48.316406 69.769531 48.332031 70.292969 48.277344 C 70.917969 48.207031 71.480469 47.992188 72.019531 47.683594 C 72.546875 47.378906 72.996094 46.980469 73.453125 46.59375 C 73.660156 46.425781 73.859375 46.246094 74.039062 46.050781 C 74.257812 45.816406 74.179688 45.535156 73.902344 45.378906 C 73.691406 45.257812 73.582031 45.390625 73.453125 45.496094 C 72.742188 46.070312 72.105469 46.738281 71.238281 47.105469 C 70.695312 47.339844 70.132812 47.457031 69.550781 47.410156 C 69.304688 47.390625 69.054688 47.308594 68.847656 47.097656 C 68.496094 46.742188 68.425781 46.324219 68.417969 45.871094 C 68.417969 45.777344 68.4375 45.691406 68.574219 45.683594 C 68.710938 45.675781 68.855469 45.652344 68.984375 45.613281 C 69.8125 45.347656 70.515625 44.886719 71.097656 44.25 C 71.371094 43.949219 71.59375 43.613281 71.714844 43.21875 C 71.867188 42.710938 71.554688 42.199219 71.101562 42.125 C 70.726562 42.0625 70.40625 42.15625 70.09375 42.324219 C 69.765625 42.5 69.46875 42.71875 69.164062 42.933594 C 68.960938 43.078125 68.789062 43.25 68.652344 43.429688 C 68.371094 43.804688 68.058594 44.167969 67.914062 44.628906 C 67.875 44.746094 67.792969 44.796875 67.65625 44.707031 C 67.253906 44.453125 67.125 44.1875 67.210938 43.710938 C 67.269531 43.382812 67.347656 43.058594 67.421875 42.738281 C 67.460938 42.574219 67.417969 42.46875 67.265625 42.398438 C 66.972656 42.261719 66.652344 42.367188 66.523438 42.699219 C 66.347656 43.160156 66.039062 43.53125 65.746094 43.90625 C 65.296875 44.480469 64.863281 45.066406 64.4375 45.65625 C 64.175781 46.023438 63.9375 46.40625 63.640625 46.75 C 63.535156 46.871094 63.40625 47 63.265625 46.988281 C 63.113281 46.976562 63.066406 46.792969 63.019531 46.648438 C 62.949219 46.417969 62.921875 46.171875 62.941406 45.9375 C 63.003906 45.183594 63.113281 44.433594 63.335938 43.707031 C 63.402344 43.484375 63.480469 43.265625 63.535156 43.039062 C 63.574219 42.867188 63.527344 42.703125 63.375 42.585938 C 63.207031 42.457031 63.105469 42.574219 62.960938 42.652344 C 62.765625 42.757812 62.667969 42.960938 62.457031 43.054688 C 62.183594 43.171875 61.917969 43.316406 61.660156 43.46875 C 61.394531 43.632812 61.128906 43.804688 60.800781 43.890625 C 60.824219 43.707031 60.777344 43.546875 60.753906 43.386719 C 60.664062 42.75 60.046875 42.183594 59.4375 42.171875 C 58.804688 42.160156 58.277344 42.460938 57.828125 42.839844 C 57.375 43.226562 56.984375 43.6875 56.707031 44.226562 C 56.609375 44.417969 56.535156 44.628906 56.351562 44.769531 C 55.359375 45.527344 54.386719 46.324219 53.296875 46.941406 C 52.929688 47.148438 52.546875 47.320312 52.121094 47.371094 C 51.984375 47.390625 51.828125 47.394531 51.804688 47.21875 C 51.789062 47.09375 51.757812 46.96875 51.777344 46.832031 C 51.855469 46.292969 52.019531 45.785156 52.203125 45.277344 C 52.601562 44.183594 53.152344 43.167969 53.757812 42.1875 C 54.300781 41.304688 54.898438 40.457031 55.558594 39.65625 C 56.007812 39.109375 56.367188 38.472656 56.992188 38.070312 C 57.171875 37.953125 57.167969 37.660156 57.019531 37.484375 C 56.847656 37.277344 56.679688 37.265625 56.460938 37.429688 C 55.847656 37.898438 55.433594 38.539062 54.953125 39.117188 C 54.222656 39.996094 53.566406 40.929688 52.96875 41.90625 C 52.617188 42.480469 52.273438 43.0625 51.996094 43.675781 C 51.675781 44.386719 51.34375 45.089844 51.152344 45.851562 C 51.035156 46.316406 50.925781 46.773438 50.949219 47.25 C 50.972656 47.78125 51.339844 48.167969 51.867188 48.222656 C 52.355469 48.273438 52.796875 48.117188 53.214844 47.914062 C 53.707031 47.679688 54.175781 47.414062 54.617188 47.085938 C 55.074219 46.746094 55.542969 46.425781 55.976562 46.054688 C 56.035156 46.003906 56.085938 45.941406 56.179688 45.953125 C 56.171875 46.117188 56.199219 46.277344 56.222656 46.4375 C 56.375 47.570312 57.359375 48.027344 58.328125 47.644531 C 59.410156 47.214844 60.046875 46.335938 60.5 45.320312 C 60.628906 45.027344 60.734375 44.792969 61.070312 44.667969 C 61.515625 44.503906 61.933594 44.269531 62.367188 44 C 62.285156 44.488281 62.183594 44.933594 62.136719 45.386719 C 62.078125 45.96875 62.070312 46.539062 62.277344 47.109375 C 62.515625 47.757812 63.394531 48.199219 64.066406 47.484375 C 64.519531 47.003906 64.863281 46.453125 65.238281 45.917969 C 65.59375 45.417969 65.957031 44.929688 66.371094 44.429688 Z M 55.183594 33.527344 C 55.257812 33.527344 55.394531 33.542969 55.523438 33.527344 C 55.707031 33.503906 55.882812 33.441406 55.925781 33.226562 C 55.964844 33.03125 55.917969 32.851562 55.738281 32.742188 C 55.609375 32.660156 55.445312 32.660156 55.289062 32.652344 C 54.507812 32.609375 53.742188 32.765625 52.996094 32.949219 C 52.140625 33.164062 51.355469 33.574219 50.613281 34.054688 C 50.082031 34.402344 49.570312 34.769531 49.132812 35.230469 C 48.855469 35.53125 48.585938 35.835938 48.316406 36.140625 C 47.980469 36.519531 47.683594 36.933594 47.464844 37.367188 C 47.140625 38.011719 46.804688 38.660156 46.675781 39.386719 C 46.605469 39.757812 46.53125 40.128906 46.488281 40.503906 C 46.480469 40.578125 46.484375 40.652344 46.542969 40.722656 C 46.667969 40.886719 46.824219 40.921875 47.015625 40.878906 C 47.234375 40.835938 47.296875 40.675781 47.316406 40.488281 C 47.429688 39.421875 47.765625 38.433594 48.339844 37.523438 C 48.726562 36.910156 49.175781 36.359375 49.691406 35.839844 C 50.425781 35.105469 51.277344 34.550781 52.203125 34.113281 C 53.117188 33.679688 54.101562 33.480469 55.183594 33.527344 Z M 57.738281 44.136719 C 57.554688 44.421875 57.375 44.710938 57.25 45.03125 C 57.070312 45.476562 56.96875 45.925781 57.074219 46.40625 C 57.132812 46.671875 57.382812 46.917969 57.605469 46.910156 C 57.875 46.902344 58.144531 46.828125 58.363281 46.707031 C 59.007812 46.347656 59.398438 45.761719 59.71875 45.070312 C 59.269531 45.152344 58.867188 45.074219 58.53125 44.84375 C 58.164062 44.589844 57.992188 44.226562 58.097656 43.757812 C 57.9375 43.863281 57.832031 43.996094 57.738281 44.136719 Z M 70.929688 42.953125 C 69.828125 43.160156 69.277344 43.910156 68.746094 44.785156 C 69.753906 44.457031 70.519531 43.960938 70.929688 42.953125 Z M 59.824219 43.320312 C 59.738281 43.078125 59.5 43.015625 59.304688 43.171875 C 59.089844 43.34375 58.992188 43.578125 58.945312 43.851562 C 58.902344 44.0625 58.992188 44.148438 59.148438 44.195312 C 59.296875 44.234375 59.460938 44.246094 59.613281 44.242188 C 59.929688 44.230469 59.953125 44.195312 59.953125 43.863281 C 59.984375 43.675781 59.890625 43.496094 59.824219 43.320312 Z M 59.824219 43.320312 " fill-opacity="1" fill-rule="nonzero"/><g clip-path="url(#a680b7e60d)"><path fill="#ff3377" d="M 30.902344 53.546875 C 31.386719 53.832031 31.59375 54.277344 31.644531 54.8125 C 31.671875 55.066406 31.675781 55.3125 31.652344 55.570312 C 31.601562 56.046875 31.371094 56.378906 30.957031 56.601562 C 30.824219 56.675781 30.699219 56.640625 30.570312 56.597656 C 30.605469 55.90625 30.578125 55.207031 30.714844 54.523438 C 30.78125 54.199219 30.839844 53.875 30.902344 53.546875 Z M 77.777344 57.800781 C 76.710938 58.023438 75.757812 58.484375 74.9375 59.210938 C 74.242188 59.828125 73.636719 60.515625 73.203125 61.332031 C 72.785156 62.113281 72.453125 62.9375 72.21875 63.800781 C 71.9375 64.851562 71.851562 65.910156 71.988281 66.984375 C 72.121094 68.0625 72.542969 69.023438 73.273438 69.835938 C 73.910156 70.542969 74.722656 70.988281 75.636719 71.25 C 76.644531 71.539062 77.671875 71.59375 78.707031 71.441406 C 79.6875 71.296875 80.667969 71.179688 81.507812 70.558594 C 82.007812 70.191406 82.449219 69.78125 82.816406 69.292969 C 83.242188 68.726562 83.574219 68.101562 83.816406 67.425781 C 84.085938 66.683594 84.246094 65.917969 84.34375 65.136719 C 84.453125 64.261719 84.425781 63.386719 84.246094 62.523438 C 84.125 61.964844 84.078125 61.382812 83.792969 60.867188 C 83.574219 60.472656 83.375 60.070312 83.101562 59.707031 C 82.742188 59.234375 82.3125 58.828125 81.820312 58.523438 C 80.90625 57.953125 79.902344 57.621094 78.8125 57.683594 C 78.445312 57.632812 78.109375 57.734375 77.777344 57.800781 Z M 40.566406 69.265625 C 40.699219 68.957031 40.761719 68.628906 40.773438 68.292969 C 40.792969 67.851562 40.84375 67.40625 40.800781 66.96875 C 40.746094 66.34375 40.539062 65.742188 40.441406 65.117188 C 40.355469 64.539062 40.167969 63.96875 39.988281 63.40625 C 39.734375 62.605469 39.460938 61.8125 39.167969 61.023438 C 38.976562 60.511719 38.75 60.015625 38.515625 59.527344 C 38.304688 59.089844 38.0625 58.671875 37.828125 58.25 C 37.527344 57.699219 37.15625 57.199219 36.632812 56.839844 C 35.855469 56.304688 35.003906 56.03125 34.046875 56.125 C 33.367188 56.191406 32.890625 56.554688 32.515625 57.082031 C 32.191406 57.535156 32.066406 58.0625 31.988281 58.609375 C 31.890625 59.300781 31.894531 59.996094 32.011719 60.675781 C 32.152344 61.515625 32.347656 62.339844 32.652344 63.148438 C 33.015625 64.113281 33.476562 65.019531 33.976562 65.917969 C 34.402344 66.679688 34.9375 67.363281 35.5 68.019531 C 36.066406 68.679688 36.683594 69.292969 37.386719 69.816406 C 37.859375 70.167969 38.382812 70.285156 38.8125 70.308594 C 39.742188 70.3125 40.261719 69.976562 40.566406 69.265625 Z M 92.132812 13.445312 C 91.929688 12.902344 91.691406 12.375 91.328125 11.929688 C 90.882812 11.378906 90.363281 10.910156 89.714844 10.578125 C 89.113281 10.273438 88.527344 10.183594 87.886719 10.421875 C 86.667969 10.878906 85.6875 11.644531 84.847656 12.613281 C 84.722656 12.757812 84.757812 12.816406 84.871094 12.925781 C 85.378906 13.425781 85.820312 13.980469 86.203125 14.582031 C 86.953125 15.753906 87.441406 17.039062 87.820312 18.367188 C 87.863281 18.515625 87.917969 18.546875 88.054688 18.550781 C 88.734375 18.574219 89.390625 18.410156 90.046875 18.289062 C 90.6875 18.167969 91.269531 17.925781 91.710938 17.414062 C 92.265625 16.777344 92.449219 16.027344 92.46875 15.140625 C 92.421875 14.613281 92.351562 14.023438 92.132812 13.445312 Z M 51.347656 10.675781 C 51.503906 10.910156 51.671875 11.136719 51.863281 11.339844 C 52.523438 12.046875 53.398438 12.371094 54.296875 12.640625 C 54.726562 12.769531 54.882812 12.660156 55.140625 12.289062 C 55.570312 11.679688 56.03125 11.085938 56.523438 10.519531 C 57.125 9.824219 57.75 9.144531 58.453125 8.542969 C 58.652344 8.375 58.703125 8.148438 58.613281 7.910156 C 58.425781 7.402344 58.226562 6.894531 58.015625 6.390625 C 57.8125 5.898438 57.503906 5.453125 57.136719 5.078125 C 56.601562 4.535156 55.898438 4.488281 55.203125 4.683594 C 54.191406 4.96875 53.351562 5.542969 52.691406 6.359375 C 52.191406 6.980469 51.804688 7.664062 51.574219 8.4375 C 51.40625 8.992188 51.300781 9.550781 51.265625 10.128906 C 51.273438 10.316406 51.234375 10.515625 51.347656 10.675781 Z M 78.058594 56.304688 C 78.863281 56.804688 79.839844 56.75 80.574219 56.191406 C 81.40625 55.550781 81.777344 54.679688 81.699219 53.636719 C 81.632812 52.777344 81.300781 52.050781 80.550781 51.550781 C 79.851562 51.082031 79.089844 50.964844 78.355469 51.375 C 77.351562 51.9375 76.792969 52.808594 76.800781 54.175781 C 76.855469 54.953125 77.199219 55.773438 78.058594 56.304688 Z M 73.183594 58.519531 C 74.019531 58.496094 74.648438 58.148438 75.011719 57.378906 C 75.257812 56.851562 75.328125 56.320312 75.210938 55.746094 C 75.09375 55.1875 74.875 54.683594 74.5 54.253906 C 74.09375 53.785156 73.59375 53.472656 72.96875 53.378906 C 72.640625 53.332031 72.308594 53.296875 72 53.433594 C 71.214844 53.789062 70.792969 54.441406 70.582031 55.238281 C 70.535156 55.402344 70.492188 55.589844 70.539062 55.769531 C 70.632812 56.152344 70.683594 56.546875 70.847656 56.914062 C 71.214844 57.746094 72.136719 58.53125 73.089844 58.515625 C 73.121094 58.519531 73.152344 58.519531 73.183594 58.519531 Z M 85.742188 58.613281 C 86.40625 58.425781 86.910156 58.011719 87.289062 57.464844 C 87.648438 56.957031 87.800781 56.355469 87.765625 55.742188 C 87.726562 55.074219 87.390625 54.527344 86.910156 54.070312 C 86.605469 53.777344 86.195312 53.65625 85.8125 53.675781 C 85.050781 53.707031 84.367188 53.976562 83.851562 54.578125 C 83.300781 55.222656 83.011719 55.941406 83.117188 56.800781 C 83.246094 57.890625 84.171875 58.699219 85.226562 58.660156 C 85.398438 58.652344 85.570312 58.664062 85.742188 58.613281 Z M 39.664062 51.671875 C 39.050781 50.734375 38.070312 50.734375 37.402344 51.53125 C 36.660156 52.417969 36.421875 53.46875 36.554688 54.605469 C 36.613281 55.117188 36.746094 55.601562 37.082031 56.007812 C 37.359375 56.339844 37.714844 56.578125 38.15625 56.535156 C 38.828125 56.464844 39.296875 56.066406 39.617188 55.484375 C 39.992188 54.800781 40.132812 54.0625 40.117188 53.515625 C 40.105469 52.710938 39.984375 52.167969 39.664062 51.671875 Z M 34.796875 51.128906 C 34.332031 50.734375 33.851562 50.609375 33.417969 50.8125 C 32.921875 51.042969 32.71875 51.480469 32.597656 51.964844 C 32.515625 52.296875 32.527344 52.644531 32.546875 52.988281 C 32.582031 53.613281 32.761719 54.203125 33.167969 54.691406 C 33.722656 55.355469 34.542969 55.464844 35.121094 54.777344 C 35.5 54.324219 35.601562 53.8125 35.609375 53.257812 C 35.617188 52.550781 35.273438 51.53125 34.796875 51.128906 Z M 79.210938 24.011719 C 79.210938 24.011719 79.199219 24.023438 79.199219 24.023438 C 79.109375 24.363281 79.011719 24.699219 78.9375 25.039062 C 78.839844 25.457031 79.152344 25.78125 79.5625 25.699219 C 79.960938 25.621094 80.359375 25.535156 80.757812 25.453125 C 81.617188 25.273438 82.472656 25.089844 83.332031 24.910156 C 83.667969 24.839844 84.011719 24.792969 84.332031 24.664062 C 84.535156 24.585938 84.628906 24.335938 84.546875 24.144531 C 84.453125 23.933594 84.296875 23.867188 84.070312 23.933594 C 83.585938 24.074219 83.082031 24.144531 82.585938 24.25 C 81.753906 24.429688 80.910156 24.554688 80.085938 24.746094 C 79.902344 24.785156 79.871094 24.746094 79.921875 24.585938 C 80.011719 24.289062 80.078125 23.980469 80.210938 23.699219 C 80.324219 23.457031 80.296875 23.25 80.132812 23.082031 C 79.984375 22.929688 79.765625 22.976562 79.574219 23.042969 C 79.089844 23.210938 78.59375 23.359375 78.097656 23.488281 C 77.570312 23.625 77.058594 23.804688 76.539062 23.960938 C 76.316406 24.027344 76.238281 24.171875 76.292969 24.382812 C 76.351562 24.617188 76.511719 24.734375 76.734375 24.691406 C 77.152344 24.613281 77.546875 24.460938 77.957031 24.355469 C 78.371094 24.246094 78.765625 24.0625 79.203125 24.027344 Z M 59.210938 20.503906 C 58.402344 20.011719 57.589844 19.53125 56.804688 19 C 56.597656 18.855469 56.390625 18.820312 56.152344 18.894531 C 55.820312 19.003906 55.625 19.226562 55.632812 19.53125 C 55.644531 19.839844 55.671875 20.144531 55.691406 20.453125 C 55.695312 20.515625 55.730469 20.589844 55.667969 20.625 C 55.609375 20.660156 55.554688 20.597656 55.503906 20.566406 C 54.757812 20.09375 53.984375 19.667969 53.21875 19.230469 C 53.007812 19.109375 52.679688 19.210938 52.554688 19.414062 C 52.441406 19.605469 52.523438 19.804688 52.792969 19.964844 C 53.378906 20.308594 53.964844 20.65625 54.550781 20.992188 C 54.988281 21.242188 55.390625 21.542969 55.847656 21.753906 C 56.214844 21.921875 56.605469 21.6875 56.597656 21.28125 C 56.589844 20.863281 56.554688 20.441406 56.527344 20.027344 C 56.523438 19.980469 56.492188 19.925781 56.546875 19.90625 C 56.574219 19.894531 56.621094 19.917969 56.652344 19.9375 C 57.402344 20.386719 58.125 20.878906 58.882812 21.320312 C 59.050781 21.417969 59.1875 21.398438 59.320312 21.332031 C 59.457031 21.261719 59.519531 21.117188 59.53125 20.960938 C 59.511719 20.746094 59.386719 20.609375 59.210938 20.503906 Z M 66.222656 26.195312 C 66.445312 26.191406 66.488281 26.417969 66.542969 26.59375 C 66.84375 26.566406 67.144531 26.609375 67.449219 26.570312 C 68.070312 26.5 68.683594 26.402344 69.238281 26.089844 C 69.777344 25.785156 70.039062 25.246094 69.90625 24.707031 C 69.808594 24.320312 69.515625 24.089844 69.203125 23.886719 C 68.679688 23.542969 68.097656 23.34375 67.480469 23.242188 C 67.179688 23.191406 66.894531 23.082031 66.578125 23.085938 C 66.226562 23.089844 65.871094 23.0625 65.519531 23.082031 C 64.804688 23.121094 64.105469 23.226562 63.507812 23.652344 C 63.199219 23.875 62.953125 24.128906 62.957031 24.5625 C 62.960938 25.195312 63.359375 25.554688 63.824219 25.855469 C 64.382812 26.21875 65.03125 26.375 65.683594 26.492188 C 65.78125 26.253906 66.015625 26.195312 66.222656 26.195312 Z M 66.222656 26.195312 " fill-opacity="1" fill-rule="nonzero"/></g><g clip-path="url(#83484dd172)"><path fill="#fff2dc" d="M 56.804688 0.617188 C 56.855469 1.078125 56.710938 1.222656 56.234375 1.238281 C 55.425781 1.257812 54.691406 1.53125 53.996094 1.917969 C 52.878906 2.542969 51.929688 3.359375 51.089844 4.320312 C 50.378906 5.132812 49.789062 6.027344 49.328125 7 C 49.144531 7.386719 49 7.789062 48.894531 8.203125 C 48.792969 8.582031 48.714844 8.636719 48.3125 8.621094 C 48.078125 8.433594 48.007812 8.03125 48.1875 7.695312 C 48.386719 7.324219 48.441406 6.902344 48.65625 6.539062 C 48.886719 6.152344 49.050781 5.734375 49.332031 5.375 C 49.519531 5.136719 49.644531 4.847656 49.828125 4.605469 C 50.425781 3.820312 51.070312 3.078125 51.828125 2.441406 C 52.246094 2.085938 52.699219 1.785156 53.164062 1.492188 C 53.75 1.113281 54.359375 0.777344 55.039062 0.59375 C 55.511719 0.464844 55.996094 0.359375 56.5 0.390625 C 56.679688 0.402344 56.683594 0.570312 56.804688 0.617188 Z M 69.097656 4.445312 C 68.398438 4.277344 67.6875 4.289062 66.980469 4.289062 C 66.5 4.289062 66.011719 4.351562 65.53125 4.414062 C 64.730469 4.519531 63.945312 4.6875 63.179688 4.921875 C 62.425781 5.152344 61.667969 5.402344 60.957031 5.761719 C 60.746094 5.898438 60.515625 5.996094 60.300781 6.121094 C 59.921875 6.34375 59.570312 6.605469 59.199219 6.84375 C 59.066406 6.929688 59.042969 7.042969 59.050781 7.183594 C 59.058594 7.328125 59.148438 7.398438 59.269531 7.460938 C 59.460938 7.550781 59.617188 7.484375 59.769531 7.375 C 60.675781 6.738281 61.671875 6.277344 62.710938 5.90625 C 63.535156 5.613281 64.375 5.375 65.242188 5.246094 C 65.738281 5.175781 66.238281 5.140625 66.738281 5.101562 C 67.367188 5.046875 67.992188 5.066406 68.613281 5.160156 C 69.09375 5.234375 69.320312 5.09375 69.347656 4.652344 C 69.3125 4.527344 69.226562 4.476562 69.097656 4.445312 Z M 73.050781 33.277344 C 73.679688 32.761719 74.121094 32.101562 74.449219 31.371094 C 74.917969 30.316406 75.152344 29.199219 75.179688 28.046875 C 75.1875 27.773438 75.15625 27.5 75.15625 27.230469 C 75.15625 26.554688 75.019531 25.929688 74.703125 25.328125 C 74.222656 24.40625 73.519531 23.691406 72.660156 23.121094 C 71.964844 22.65625 71.21875 22.3125 70.425781 22.039062 C 69.4375 21.695312 68.421875 21.472656 67.378906 21.417969 C 66.59375 21.375 65.804688 21.339844 65.023438 21.460938 C 64.5625 21.53125 64.09375 21.558594 63.636719 21.683594 C 63.144531 21.816406 62.660156 21.964844 62.179688 22.132812 C 61.695312 22.300781 61.234375 22.507812 60.792969 22.757812 C 60.167969 23.105469 59.613281 23.542969 59.117188 24.0625 C 58.804688 24.394531 58.523438 24.75 58.324219 25.144531 C 58.097656 25.601562 57.941406 26.085938 57.800781 26.582031 C 57.601562 27.296875 57.417969 28.003906 57.394531 28.753906 C 57.375 29.382812 57.480469 29.984375 57.679688 30.578125 C 57.824219 31.003906 58.039062 31.398438 58.246094 31.796875 C 58.492188 31.964844 58.792969 31.992188 59.054688 32.101562 C 59.472656 32.28125 59.886719 32.464844 60.296875 32.65625 C 60.648438 32.820312 61.019531 32.964844 61.332031 33.1875 C 62.023438 33.679688 62.757812 34.109375 63.375 34.703125 C 63.46875 34.789062 63.554688 34.78125 63.652344 34.722656 C 64 34.511719 64.375 34.351562 64.75 34.195312 C 65.367188 33.941406 65.980469 33.675781 66.632812 33.515625 C 67.394531 33.335938 68.15625 33.160156 68.9375 33.085938 C 69.9375 32.996094 70.933594 33.007812 71.925781 33.160156 C 72.289062 33.214844 72.644531 33.324219 73.015625 33.335938 C 73.027344 33.316406 73.035156 33.289062 73.050781 33.277344 Z M 66.414062 27.859375 C 66.367188 28.308594 66.308594 28.75 66.269531 29.199219 C 66.222656 29.722656 66.492188 30.101562 66.894531 30.390625 C 67.5625 30.867188 68.324219 30.925781 69.085938 30.757812 C 69.789062 30.601562 70.363281 30.199219 70.707031 29.550781 C 70.84375 29.300781 71.082031 29.253906 71.296875 29.171875 C 71.449219 29.113281 71.519531 29.316406 71.578125 29.425781 C 71.628906 29.519531 71.625 29.648438 71.566406 29.761719 C 71.339844 30.195312 71.042969 30.570312 70.65625 30.871094 C 70.269531 31.164062 69.839844 31.371094 69.378906 31.519531 C 68.09375 31.929688 66.671875 31.652344 65.820312 30.523438 C 65.75 30.425781 65.730469 30.4375 65.65625 30.503906 C 65.085938 31.015625 64.410156 31.28125 63.648438 31.328125 C 62.59375 31.386719 61.703125 31.03125 60.992188 30.269531 C 60.65625 29.90625 60.476562 29.460938 60.429688 28.96875 C 60.398438 28.660156 60.644531 28.367188 60.945312 28.378906 C 61.082031 28.382812 61.238281 28.453125 61.269531 28.625 C 61.296875 28.777344 61.292969 28.9375 61.332031 29.085938 C 61.503906 29.761719 62.003906 30.117188 62.621094 30.339844 C 63.15625 30.535156 63.710938 30.496094 64.257812 30.394531 C 64.949219 30.261719 65.40625 29.660156 65.453125 28.914062 C 65.496094 28.230469 65.585938 27.546875 65.652344 26.867188 C 65.664062 26.742188 65.671875 26.617188 65.683594 26.496094 C 65.027344 26.375 64.378906 26.21875 63.820312 25.855469 C 63.355469 25.554688 62.960938 25.195312 62.953125 24.5625 C 62.953125 24.132812 63.195312 23.875 63.503906 23.65625 C 64.105469 23.226562 64.804688 23.121094 65.515625 23.085938 C 65.871094 23.066406 66.222656 23.09375 66.578125 23.085938 C 66.890625 23.082031 67.175781 23.191406 67.476562 23.242188 C 68.09375 23.347656 68.675781 23.542969 69.199219 23.886719 C 69.511719 24.089844 69.804688 24.320312 69.902344 24.710938 C 70.035156 25.246094 69.777344 25.785156 69.234375 26.089844 C 68.679688 26.402344 68.066406 26.5 67.445312 26.574219 C 67.140625 26.609375 66.839844 26.570312 66.539062 26.597656 C 66.5 27.019531 66.457031 27.4375 66.414062 27.859375 Z M 51.613281 6.117188 C 52.285156 5.101562 53.085938 4.226562 54.21875 3.703125 C 54.433594 3.605469 54.511719 3.355469 54.414062 3.152344 C 54.3125 2.941406 54.09375 2.863281 53.863281 2.953125 C 53.453125 3.113281 53.085938 3.34375 52.761719 3.628906 C 52.347656 3.996094 51.929688 4.355469 51.59375 4.804688 C 51.34375 5.140625 51.070312 5.457031 50.863281 5.820312 C 50.695312 6.113281 50.878906 6.394531 51.230469 6.390625 C 51.429688 6.414062 51.519531 6.261719 51.613281 6.117188 Z M 66.527344 44.804688 C 66.734375 45.175781 67.078125 45.386719 67.445312 45.558594 C 67.550781 45.609375 67.601562 45.644531 67.578125 45.777344 C 67.527344 46.035156 67.527344 46.300781 67.597656 46.5625 C 67.769531 47.246094 68.121094 47.804688 68.789062 48.101562 C 69.265625 48.316406 69.769531 48.332031 70.292969 48.277344 C 70.917969 48.207031 71.480469 47.992188 72.019531 47.683594 C 72.546875 47.378906 72.996094 46.980469 73.453125 46.59375 C 73.660156 46.425781 73.859375 46.246094 74.039062 46.050781 C 74.257812 45.816406 74.179688 45.535156 73.902344 45.378906 C 73.691406 45.257812 73.582031 45.390625 73.453125 45.496094 C 72.742188 46.070312 72.105469 46.738281 71.238281 47.105469 C 70.695312 47.339844 70.132812 47.457031 69.550781 47.410156 C 69.304688 47.390625 69.054688 47.308594 68.847656 47.097656 C 68.496094 46.742188 68.425781 46.324219 68.417969 45.871094 C 68.417969 45.777344 68.4375 45.691406 68.574219 45.683594 C 68.710938 45.675781 68.855469 45.652344 68.984375 45.613281 C 69.8125 45.347656 70.515625 44.886719 71.097656 44.25 C 71.371094 43.949219 71.59375 43.613281 71.714844 43.21875 C 71.867188 42.710938 71.554688 42.199219 71.101562 42.125 C 70.726562 42.0625 70.40625 42.15625 70.09375 42.324219 C 69.765625 42.5 69.46875 42.71875 69.164062 42.933594 C 68.960938 43.078125 68.789062 43.25 68.652344 43.429688 C 68.371094 43.804688 68.058594 44.167969 67.914062 44.628906 C 67.875 44.746094 67.792969 44.796875 67.65625 44.707031 C 67.253906 44.453125 67.125 44.1875 67.210938 43.710938 C 67.269531 43.382812 67.347656 43.058594 67.421875 42.738281 C 67.460938 42.574219 67.417969 42.46875 67.265625 42.398438 C 66.972656 42.261719 66.652344 42.367188 66.523438 42.699219 C 66.347656 43.160156 66.039062 43.53125 65.746094 43.90625 C 65.296875 44.480469 64.863281 45.066406 64.4375 45.65625 C 64.175781 46.023438 63.9375 46.40625 63.640625 46.75 C 63.535156 46.871094 63.40625 47 63.265625 46.988281 C 63.113281 46.976562 63.066406 46.792969 63.019531 46.648438 C 62.949219 46.417969 62.921875 46.171875 62.941406 45.9375 C 63.003906 45.183594 63.113281 44.433594 63.335938 43.707031 C 63.402344 43.484375 63.480469 43.265625 63.535156 43.039062 C 63.574219 42.867188 63.527344 42.703125 63.375 42.585938 C 63.207031 42.457031 63.105469 42.574219 62.960938 42.652344 C 62.765625 42.757812 62.667969 42.960938 62.457031 43.054688 C 62.183594 43.171875 61.917969 43.316406 61.660156 43.46875 C 61.394531 43.632812 61.128906 43.804688 60.800781 43.890625 C 60.824219 43.707031 60.777344 43.546875 60.753906 43.386719 C 60.664062 42.75 60.046875 42.183594 59.4375 42.171875 C 58.804688 42.160156 58.277344 42.460938 57.828125 42.839844 C 57.375 43.226562 56.984375 43.6875 56.707031 44.226562 C 56.609375 44.417969 56.535156 44.628906 56.351562 44.769531 C 55.359375 45.527344 54.386719 46.324219 53.296875 46.941406 C 52.929688 47.148438 52.546875 47.320312 52.121094 47.371094 C 51.984375 47.390625 51.828125 47.394531 51.804688 47.21875 C 51.789062 47.09375 51.757812 46.96875 51.777344 46.832031 C 51.855469 46.292969 52.019531 45.785156 52.203125 45.277344 C 52.601562 44.183594 53.152344 43.167969 53.757812 42.1875 C 54.300781 41.304688 54.898438 40.457031 55.558594 39.65625 C 56.007812 39.109375 56.367188 38.472656 56.992188 38.070312 C 57.171875 37.953125 57.167969 37.660156 57.019531 37.484375 C 56.847656 37.277344 56.679688 37.265625 56.460938 37.429688 C 55.847656 37.898438 55.433594 38.539062 54.953125 39.117188 C 54.222656 39.996094 53.566406 40.929688 52.96875 41.90625 C 52.617188 42.480469 52.273438 43.0625 51.996094 43.675781 C 51.675781 44.386719 51.34375 45.089844 51.152344 45.851562 C 51.035156 46.316406 50.925781 46.773438 50.949219 47.25 C 50.972656 47.78125 51.339844 48.167969 51.867188 48.222656 C 52.355469 48.273438 52.796875 48.117188 53.214844 47.914062 C 53.707031 47.679688 54.175781 47.414062 54.617188 47.085938 C 55.074219 46.746094 55.542969 46.425781 55.976562 46.054688 C 56.035156 46.003906 56.085938 45.941406 56.179688 45.953125 C 56.171875 46.117188 56.199219 46.277344 56.222656 46.4375 C 56.375 47.570312 57.359375 48.027344 58.328125 47.644531 C 59.410156 47.214844 60.046875 46.335938 60.5 45.320312 C 60.628906 45.027344 60.734375 44.792969 61.070312 44.667969 C 61.515625 44.503906 61.933594 44.269531 62.367188 44 C 62.285156 44.488281 62.183594 44.933594 62.136719 45.386719 C 62.078125 45.96875 62.070312 46.539062 62.277344 47.109375 C 62.515625 47.757812 63.394531 48.199219 64.066406 47.484375 C 64.519531 47.003906 64.863281 46.453125 65.238281 45.917969 C 65.589844 45.417969 65.957031 44.925781 66.367188 44.429688 C 66.433594 44.582031 66.46875 44.695312 66.527344 44.804688 Z M 58.53125 44.839844 C 58.871094 45.074219 59.269531 45.148438 59.722656 45.070312 C 59.398438 45.761719 59.007812 46.347656 58.367188 46.707031 C 58.144531 46.828125 57.875 46.902344 57.605469 46.910156 C 57.382812 46.914062 57.132812 46.671875 57.074219 46.40625 C 56.96875 45.925781 57.074219 45.476562 57.25 45.027344 C 57.378906 44.710938 57.554688 44.421875 57.742188 44.136719 C 57.835938 43.992188 57.9375 43.863281 58.101562 43.753906 C 57.996094 44.222656 58.164062 44.589844 58.53125 44.839844 Z M 70.929688 42.953125 C 70.519531 43.960938 69.753906 44.457031 68.746094 44.785156 C 69.277344 43.910156 69.828125 43.160156 70.929688 42.953125 Z M 59.613281 44.242188 C 59.457031 44.246094 59.296875 44.234375 59.148438 44.191406 C 58.992188 44.148438 58.90625 44.0625 58.945312 43.847656 C 58.992188 43.574219 59.089844 43.34375 59.304688 43.171875 C 59.5 43.015625 59.738281 43.074219 59.824219 43.316406 C 59.890625 43.496094 59.984375 43.675781 59.953125 43.859375 C 59.953125 44.195312 59.929688 44.230469 59.613281 44.242188 Z M 55.523438 33.523438 C 55.707031 33.5 55.882812 33.4375 55.925781 33.226562 C 55.964844 33.027344 55.917969 32.847656 55.738281 32.742188 C 55.609375 32.660156 55.445312 32.65625 55.289062 32.648438 C 54.507812 32.609375 53.742188 32.761719 52.996094 32.949219 C 52.140625 33.164062 51.355469 33.570312 50.613281 34.054688 C 50.082031 34.398438 49.570312 34.765625 49.132812 35.230469 C 48.855469 35.527344 48.585938 35.832031 48.316406 36.136719 C 47.980469 36.519531 47.683594 36.929688 47.464844 37.367188 C 47.140625 38.007812 46.804688 38.660156 46.675781 39.386719 C 46.605469 39.757812 46.53125 40.125 46.488281 40.503906 C 46.480469 40.574219 46.484375 40.652344 46.542969 40.722656 C 46.667969 40.882812 46.824219 40.917969 47.015625 40.878906 C 47.234375 40.832031 47.296875 40.671875 47.316406 40.488281 C 47.429688 39.421875 47.765625 38.429688 48.339844 37.519531 C 48.726562 36.90625 49.175781 36.355469 49.691406 35.839844 C 50.425781 35.101562 51.277344 34.550781 52.203125 34.109375 C 53.117188 33.675781 54.101562 33.476562 55.183594 33.527344 C 55.257812 33.527344 55.394531 33.542969 55.523438 33.523438 Z M 75.019531 19.097656 C 75.210938 18.796875 74.90625 18.375 74.589844 18.410156 C 74.316406 18.4375 74.058594 18.488281 73.804688 18.605469 C 73.261719 18.847656 72.90625 19.25 72.710938 19.796875 C 72.617188 20.054688 72.753906 20.316406 72.988281 20.371094 C 73.207031 20.425781 73.460938 20.277344 73.488281 20.039062 C 73.539062 19.589844 74.078125 19.257812 74.550781 19.28125 C 74.738281 19.300781 74.910156 19.269531 75.019531 19.097656 Z M 61.019531 16.871094 C 60.519531 17.167969 60.144531 17.542969 60.03125 18.132812 C 59.976562 18.417969 60.0625 18.621094 60.28125 18.671875 C 60.550781 18.734375 60.777344 18.585938 60.84375 18.308594 C 60.976562 17.75 61.351562 17.441406 61.90625 17.429688 C 62.164062 17.425781 62.390625 17.261719 62.390625 17.078125 C 62.398438 16.800781 62.179688 16.59375 61.816406 16.59375 C 61.578125 16.621094 61.296875 16.707031 61.019531 16.871094 Z M 61.019531 16.871094 " fill-opacity="1" fill-rule="nonzero"/></g><g clip-path="url(#fa033265e1)"><path fill="#3f1c1c" d="M 46.734375 52.003906 C 47.0625 52.386719 47.402344 52.757812 47.722656 53.144531 C 48.183594 53.707031 48.621094 54.289062 49.003906 54.90625 C 49.527344 55.757812 49.984375 56.644531 50.351562 57.570312 C 50.4375 57.785156 50.371094 57.941406 50.160156 58.054688 C 49.976562 58.152344 49.71875 58.113281 49.617188 57.941406 C 49.511719 57.761719 49.429688 57.570312 49.351562 57.375 C 48.839844 56.105469 48.109375 54.964844 47.273438 53.890625 C 46.753906 53.222656 46.183594 52.59375 45.5625 52.015625 C 44.464844 50.988281 43.246094 50.128906 41.894531 49.464844 C 41.167969 49.105469 40.398438 48.839844 39.601562 48.707031 C 39.117188 48.625 38.617188 48.5625 38.113281 48.628906 C 37.75 48.675781 37.539062 48.550781 37.519531 48.207031 C 37.558594 47.925781 37.683594 47.8125 37.964844 47.800781 C 38.226562 47.789062 38.503906 47.75 38.753906 47.777344 C 39.035156 47.804688 39.332031 47.796875 39.605469 47.871094 C 39.921875 47.957031 40.246094 47.976562 40.554688 48.109375 C 40.773438 48.203125 41.039062 48.207031 41.269531 48.308594 C 41.757812 48.515625 42.246094 48.726562 42.71875 48.972656 C 42.984375 49.109375 43.246094 49.242188 43.496094 49.398438 C 43.882812 49.644531 44.253906 49.917969 44.632812 50.167969 C 45.285156 50.601562 45.808594 51.183594 46.410156 51.671875 C 46.535156 51.769531 46.582031 51.9375 46.734375 52.003906 Z M 81.863281 73.609375 C 82.203125 73.511719 82.527344 73.375 82.824219 73.191406 C 83.386719 72.84375 83.949219 72.496094 84.453125 72.074219 C 84.84375 71.746094 85.214844 71.394531 85.589844 71.050781 C 86.332031 70.367188 86.90625 69.558594 87.464844 68.734375 C 88 67.949219 88.398438 67.09375 88.765625 66.21875 C 88.921875 65.847656 89 65.457031 89.183594 65.09375 C 89.289062 64.878906 89.453125 64.566406 89.105469 64.351562 C 88.777344 64.285156 88.582031 64.390625 88.460938 64.699219 C 88.3125 65.078125 88.15625 65.457031 88.027344 65.847656 C 87.796875 66.542969 87.46875 67.195312 87.097656 67.824219 C 86.328125 69.125 85.375 70.277344 84.191406 71.238281 C 83.464844 71.832031 82.703125 72.371094 81.859375 72.78125 C 81.5 72.957031 81.453125 73.039062 81.503906 73.4375 C 81.625 73.492188 81.6875 73.660156 81.863281 73.609375 Z M 86.53125 31.449219 C 86.695312 31.214844 86.847656 30.96875 86.953125 30.703125 C 87.160156 30.152344 87.425781 29.632812 87.613281 29.074219 C 87.796875 28.53125 87.988281 27.992188 88.144531 27.4375 C 88.335938 26.738281 88.488281 26.035156 88.589844 25.3125 C 88.707031 24.507812 88.746094 23.703125 88.726562 22.894531 C 88.71875 22.539062 88.777344 22.179688 88.660156 21.832031 C 88.691406 21.535156 88.5625 21.257812 88.539062 20.96875 C 88.523438 20.746094 88.3125 20.59375 88.136719 20.617188 C 87.933594 20.644531 87.746094 20.859375 87.742188 21.0625 C 87.738281 21.289062 87.804688 21.503906 87.832031 21.726562 C 87.917969 22.386719 87.929688 23.046875 87.910156 23.71875 C 87.886719 24.460938 87.796875 25.195312 87.675781 25.925781 C 87.5625 26.613281 87.355469 27.285156 87.148438 27.953125 C 86.84375 28.914062 86.46875 29.835938 86.007812 30.726562 C 85.875 30.976562 85.785156 31.21875 85.953125 31.484375 C 86.292969 31.644531 86.386719 31.648438 86.53125 31.449219 Z M 48.101562 71.367188 C 48.972656 71.121094 49.84375 70.886719 50.710938 70.628906 C 51.648438 70.351562 52.582031 70.042969 53.519531 69.761719 C 54.699219 69.40625 55.882812 69.066406 57.042969 68.65625 C 57.285156 68.566406 57.527344 68.496094 57.734375 68.332031 C 57.816406 67.894531 57.746094 67.757812 57.40625 67.722656 C 57.308594 67.714844 57.203125 67.734375 57.109375 67.765625 C 56.53125 67.945312 55.957031 68.144531 55.378906 68.324219 C 54.683594 68.542969 53.980469 68.742188 53.285156 68.96875 C 52.667969 69.175781 52.03125 69.324219 51.417969 69.539062 C 50.832031 69.746094 50.234375 69.917969 49.636719 70.089844 C 49.09375 70.25 48.539062 70.386719 47.996094 70.542969 C 47.574219 70.664062 47.5 70.78125 47.570312 71.148438 C 47.6875 71.363281 47.871094 71.429688 48.101562 71.367188 Z M 92.617188 21.054688 C 92.875 20.929688 93.144531 20.84375 93.386719 20.675781 C 94.722656 19.769531 95.53125 18.496094 95.992188 16.988281 C 96.191406 16.332031 96.230469 15.65625 96.199219 14.96875 C 96.179688 14.589844 96.164062 14.210938 96.042969 13.847656 C 95.984375 13.660156 95.921875 13.472656 95.664062 13.484375 C 95.183594 13.5 95.050781 13.695312 95.210938 14.144531 C 95.292969 14.371094 95.3125 14.609375 95.328125 14.84375 C 95.382812 15.652344 95.300781 16.449219 95 17.214844 C 94.492188 18.503906 93.742188 19.589844 92.460938 20.242188 C 92.042969 20.453125 92.003906 20.5625 92.132812 20.921875 C 92.269531 21.0625 92.421875 21.144531 92.617188 21.054688 Z M 87.992188 50.957031 C 88.0625 50.867188 88.128906 50.765625 88.210938 50.683594 C 88.640625 50.242188 88.972656 49.722656 89.300781 49.210938 C 89.589844 48.765625 89.816406 48.277344 90.070312 47.808594 C 90.492188 47.023438 90.769531 46.195312 90.976562 45.34375 C 91.089844 44.867188 91.007812 44.679688 90.664062 44.535156 C 90.390625 44.523438 90.296875 44.589844 90.234375 44.851562 C 90.1875 45.046875 90.164062 45.246094 90.113281 45.441406 C 89.921875 46.140625 89.640625 46.800781 89.320312 47.453125 C 88.71875 48.683594 87.945312 49.785156 87.011719 50.78125 C 86.875 50.929688 86.859375 51.089844 86.949219 51.269531 C 87.042969 51.464844 87.1875 51.539062 87.402344 51.496094 C 87.640625 51.367188 87.824219 51.171875 87.992188 50.957031 Z M 40.671875 43.9375 C 41.09375 44.597656 41.6875 45.085938 42.304688 45.546875 C 42.878906 45.980469 43.5 46.34375 44.175781 46.609375 C 44.871094 46.886719 45.589844 47.03125 46.347656 46.917969 C 46.59375 46.75 46.679688 46.578125 46.589844 46.351562 C 46.503906 46.128906 46.304688 46.089844 46.089844 46.113281 C 46.042969 46.117188 45.996094 46.109375 45.949219 46.109375 C 45.191406 46.144531 44.507812 45.90625 43.863281 45.550781 C 42.929688 45.039062 42.054688 44.441406 41.414062 43.578125 C 41.242188 43.347656 41.066406 43.265625 40.804688 43.320312 C 40.558594 43.542969 40.527344 43.710938 40.671875 43.9375 Z M 83.984375 34.703125 C 84.476562 34.183594 84.964844 33.65625 85.378906 33.070312 C 85.609375 32.746094 85.609375 32.625 85.382812 32.328125 C 85.296875 32.292969 85.21875 32.285156 85.117188 32.308594 C 84.835938 32.375 84.679688 32.585938 84.53125 32.78125 C 84.164062 33.269531 83.765625 33.734375 83.34375 34.171875 C 83.1875 34.332031 83.148438 34.496094 83.257812 34.671875 C 83.363281 34.847656 83.53125 34.9375 83.75 34.859375 C 83.839844 34.824219 83.917969 34.773438 83.984375 34.703125 Z M 72.011719 52.011719 C 72.339844 51.675781 72.726562 51.40625 73.109375 51.136719 C 73.882812 50.589844 74.722656 50.160156 75.625 49.839844 C 76.484375 49.539062 77.359375 49.324219 78.257812 49.265625 C 79.082031 49.210938 79.910156 49.214844 80.734375 49.332031 C 81.730469 49.476562 82.6875 49.726562 83.628906 50.0625 C 84.011719 50.199219 84.367188 50.390625 84.746094 50.527344 C 85.046875 50.636719 85.351562 50.414062 85.347656 50.105469 C 85.34375 49.878906 85.160156 49.773438 84.992188 49.710938 C 84.347656 49.453125 83.699219 49.195312 83.039062 48.980469 C 82.621094 48.847656 82.191406 48.730469 81.753906 48.652344 C 81.09375 48.539062 80.4375 48.417969 79.761719 48.453125 C 79.621094 48.460938 79.46875 48.472656 79.316406 48.421875 C 79.382812 48.316406 79.453125 48.238281 79.496094 48.140625 C 79.773438 47.527344 80.058594 46.921875 80.234375 46.269531 C 80.253906 46.203125 80.277344 46.15625 80.359375 46.179688 C 80.730469 46.28125 81.109375 46.3125 81.484375 46.382812 C 82.222656 46.523438 82.964844 46.609375 83.707031 46.679688 C 84.019531 46.710938 84.339844 46.679688 84.644531 46.738281 C 84.984375 46.800781 85.296875 46.734375 85.617188 46.667969 C 85.828125 46.625 85.964844 46.425781 85.925781 46.265625 C 85.847656 45.945312 85.644531 45.769531 85.398438 45.832031 C 85.011719 45.929688 84.621094 45.882812 84.234375 45.851562 C 83.558594 45.800781 82.882812 45.71875 82.207031 45.640625 C 81.667969 45.582031 81.140625 45.46875 80.617188 45.347656 C 80.5 45.320312 80.460938 45.28125 80.488281 45.144531 C 80.5625 44.78125 80.636719 44.414062 80.65625 44.050781 C 80.691406 43.339844 80.710938 42.628906 80.640625 41.914062 C 80.628906 41.792969 80.628906 41.65625 80.65625 41.546875 C 80.691406 41.402344 80.882812 41.527344 80.984375 41.449219 C 81.003906 41.433594 81.042969 41.4375 81.074219 41.433594 C 82.449219 41.265625 83.765625 40.855469 85.0625 40.394531 C 85.285156 40.316406 85.449219 40.015625 85.371094 39.839844 C 85.277344 39.617188 85.039062 39.527344 84.785156 39.625 C 84.53125 39.71875 84.273438 39.800781 84.019531 39.898438 C 83.53125 40.085938 83.023438 40.210938 82.519531 40.339844 C 82.378906 40.378906 82.238281 40.382812 82.105469 40.417969 C 81.632812 40.527344 81.15625 40.582031 80.675781 40.632812 C 80.574219 40.644531 80.492188 40.640625 80.46875 40.511719 C 80.386719 40.070312 80.285156 39.632812 80.105469 39.222656 C 79.933594 38.839844 79.953125 38.757812 79.488281 38.824219 C 79.246094 38.996094 79.195312 39.210938 79.328125 39.476562 C 79.375 39.570312 79.40625 39.675781 79.4375 39.777344 C 79.761719 40.835938 79.871094 41.917969 79.863281 43.015625 C 79.859375 44.011719 79.71875 44.992188 79.457031 45.957031 C 79.320312 46.449219 79.160156 46.929688 78.941406 47.390625 C 78.796875 47.695312 78.679688 48.023438 78.433594 48.273438 C 78.292969 48.414062 78.148438 48.507812 77.925781 48.507812 C 77.1875 48.503906 76.484375 48.699219 75.789062 48.910156 C 75.1875 49.089844 74.613281 49.335938 74.046875 49.613281 C 73.535156 49.867188 73.050781 50.164062 72.589844 50.492188 C 72.203125 50.765625 71.835938 51.0625 71.484375 51.382812 C 71.183594 51.65625 71.152344 51.777344 71.375 52.113281 C 71.617188 52.242188 71.820312 52.203125 72.011719 52.011719 Z M 62.71875 60.527344 C 62.960938 60.417969 63.207031 60.320312 63.449219 60.210938 C 64.582031 59.695312 65.710938 59.175781 66.84375 58.660156 C 67.035156 58.574219 67.234375 58.496094 67.453125 58.410156 C 67.328125 59.066406 67.207031 59.6875 67.101562 60.308594 C 67.015625 60.800781 66.917969 61.296875 66.898438 61.792969 C 66.867188 62.550781 66.75 63.304688 66.78125 64.070312 C 66.796875 64.429688 66.800781 64.796875 66.808594 65.160156 C 66.8125 65.484375 66.886719 65.800781 66.90625 66.121094 C 66.929688 66.492188 66.953125 66.855469 67.066406 67.210938 C 67.148438 67.480469 67.273438 67.558594 67.5 67.503906 C 67.726562 67.449219 67.839844 67.265625 67.816406 67.03125 C 67.742188 66.347656 67.632812 65.664062 67.605469 64.980469 C 67.566406 64.132812 67.566406 63.28125 67.648438 62.4375 C 67.742188 61.453125 67.867188 60.472656 68.058594 59.5 C 68.285156 58.371094 68.585938 57.261719 69.066406 56.210938 C 69.230469 55.847656 69.207031 55.757812 68.90625 55.492188 C 68.652344 55.445312 68.457031 55.519531 68.371094 55.734375 C 68.203125 56.15625 68.015625 56.570312 67.875 57.003906 C 67.824219 57.152344 67.816406 57.367188 67.671875 57.425781 C 67.347656 57.554688 67.035156 57.710938 66.714844 57.851562 C 66.359375 58.007812 66 58.160156 65.648438 58.316406 C 65.25 58.496094 64.863281 58.6875 64.460938 58.855469 C 63.78125 59.136719 63.105469 59.417969 62.457031 59.753906 C 62.132812 59.917969 61.972656 60.105469 62.132812 60.390625 C 62.296875 60.578125 62.484375 60.636719 62.71875 60.527344 Z M 74.289062 22.238281 C 75.53125 22.214844 76.429688 21.359375 76.460938 20.085938 C 76.488281 19.007812 75.558594 17.925781 74.433594 17.988281 C 73.191406 18.058594 72.179688 18.792969 72.171875 20.179688 C 72.179688 21.285156 73.175781 22.261719 74.289062 22.238281 Z M 73.488281 20.039062 C 73.460938 20.277344 73.207031 20.425781 72.988281 20.371094 C 72.753906 20.316406 72.617188 20.050781 72.710938 19.796875 C 72.90625 19.25 73.261719 18.847656 73.804688 18.605469 C 74.058594 18.488281 74.316406 18.4375 74.589844 18.410156 C 74.90625 18.375 75.210938 18.800781 75.019531 19.097656 C 74.910156 19.265625 74.738281 19.296875 74.550781 19.28125 C 74.078125 19.257812 73.539062 19.589844 73.488281 20.039062 Z M 62.355469 16.183594 C 61.582031 15.878906 60.851562 16.164062 60.257812 16.664062 C 59.847656 17.007812 59.601562 17.488281 59.578125 18.070312 C 59.53125 19.242188 60.453125 20.191406 61.632812 20.226562 C 62.742188 20.253906 63.746094 19.367188 63.734375 18.125 C 63.710938 17.125 63.171875 16.503906 62.355469 16.183594 Z M 62.390625 17.078125 C 62.390625 17.261719 62.167969 17.425781 61.90625 17.429688 C 61.351562 17.441406 60.976562 17.75 60.84375 18.308594 C 60.777344 18.585938 60.550781 18.734375 60.28125 18.671875 C 60.0625 18.621094 59.976562 18.417969 60.03125 18.132812 C 60.144531 17.542969 60.519531 17.167969 61.019531 16.871094 C 61.296875 16.707031 61.578125 16.621094 61.820312 16.59375 C 62.179688 16.59375 62.398438 16.800781 62.390625 17.078125 Z M 45.398438 42.511719 C 45.425781 42.332031 45.398438 42.140625 45.175781 42.058594 C 45.082031 42.027344 44.992188 41.980469 44.898438 41.945312 C 44.582031 41.867188 44.273438 41.75 43.996094 41.585938 C 43.1875 41.113281 42.425781 40.585938 41.851562 39.832031 C 41.726562 39.667969 41.457031 39.628906 41.285156 39.746094 C 41.164062 39.832031 41.050781 39.964844 41.125 40.117188 C 41.226562 40.316406 41.34375 40.519531 41.5 40.675781 C 42.136719 41.316406 42.835938 41.871094 43.636719 42.296875 C 44.082031 42.53125 44.546875 42.703125 45.039062 42.808594 C 45.246094 42.808594 45.371094 42.6875 45.398438 42.511719 Z M 46.195312 37.421875 C 46.335938 37.417969 46.457031 37.398438 46.53125 37.261719 C 46.609375 37.125 46.648438 36.976562 46.574219 36.84375 C 46.484375 36.683594 46.3125 36.609375 46.144531 36.539062 C 46.054688 36.480469 45.949219 36.457031 45.859375 36.386719 C 45.339844 36 44.902344 35.542969 44.566406 34.992188 C 44.441406 34.789062 44.195312 34.730469 43.972656 34.851562 C 43.761719 34.964844 43.707031 35.160156 43.820312 35.386719 C 43.90625 35.5625 44.035156 35.707031 44.15625 35.859375 C 44.5 36.292969 44.890625 36.675781 45.324219 37.027344 C 45.464844 37.144531 45.644531 37.183594 45.769531 37.316406 C 45.917969 37.324219 46.042969 37.421875 46.195312 37.421875 Z M 65.652344 26.863281 C 65.585938 27.546875 65.496094 28.230469 65.453125 28.914062 C 65.40625 29.65625 64.949219 30.261719 64.257812 30.390625 C 63.710938 30.496094 63.160156 30.53125 62.621094 30.339844 C 62.003906 30.117188 61.503906 29.757812 61.332031 29.082031 C 61.296875 28.933594 61.300781 28.777344 61.269531 28.625 C 61.238281 28.453125 61.082031 28.378906 60.945312 28.375 C 60.644531 28.367188 60.402344 28.660156 60.429688 28.96875 C 60.476562 29.457031 60.65625 29.90625 60.992188 30.265625 C 61.707031 31.03125 62.59375 31.386719 63.648438 31.324219 C 64.414062 31.28125 65.085938 31.015625 65.65625 30.503906 C 65.730469 30.4375 65.75 30.425781 65.824219 30.523438 C 66.671875 31.648438 68.09375 31.929688 69.378906 31.515625 C 69.84375 31.367188 70.273438 31.164062 70.65625 30.867188 C 71.042969 30.570312 71.34375 30.195312 71.570312 29.761719 C 71.628906 29.644531 71.628906 29.515625 71.582031 29.425781 C 71.519531 29.316406 71.453125 29.109375 71.296875 29.171875 C 71.085938 29.25 70.84375 29.296875 70.710938 29.546875 C 70.363281 30.199219 69.792969 30.601562 69.085938 30.757812 C 68.324219 30.925781 67.5625 30.867188 66.898438 30.390625 C 66.496094 30.097656 66.226562 29.722656 66.269531 29.195312 C 66.308594 28.75 66.367188 28.304688 66.414062 27.859375 C 66.460938 27.4375 66.5 27.015625 66.542969 26.59375 C 66.488281 26.417969 66.445312 26.191406 66.226562 26.195312 C 66.019531 26.195312 65.785156 26.25 65.6875 26.492188 C 65.675781 26.617188 65.667969 26.742188 65.652344 26.863281 Z M 65.652344 26.863281 " fill-opacity="1" fill-rule="nonzero"/></g><g fill="#000000" fill-opacity="1"><g transform="translate(50.757848, 84.54831)"><g><path d="M 2.785156 1.503906 C 5.460938 1.503906 6.660156 -0.472656 7.300781 -2.925781 C 7.382812 -3.230469 7.410156 -3.453125 7.410156 -3.707031 C 7.523438 -4.734375 7.410156 -5.765625 7.046875 -6.796875 L 6.714844 -7.578125 C 6.769531 -7.578125 6.882812 -7.605469 7.019531 -7.632812 L 9.304688 -8.21875 L 9.472656 -8.300781 C 9.5 -8.328125 9.554688 -8.46875 9.472656 -8.496094 C 9.386719 -8.523438 9.332031 -8.550781 9.304688 -8.550781 C 9.25 -8.582031 9.164062 -8.582031 9.054688 -8.582031 C 8.859375 -8.582031 8.664062 -8.523438 8.46875 -8.496094 C 8.164062 -8.414062 7.828125 -8.328125 7.492188 -8.246094 C 7.160156 -8.164062 6.824219 -8.050781 6.492188 -7.941406 L 6.40625 -8.023438 C 5.960938 -8.664062 5.375 -9.164062 4.597656 -9.359375 L 4.484375 -9.386719 C 4.289062 -9.472656 4.234375 -9.582031 4.347656 -9.722656 L 4.570312 -9.972656 C 5.933594 -11.535156 7.160156 -13.816406 7.605469 -15.851562 C 7.660156 -16.1875 7.6875 -16.492188 7.660156 -16.769531 C 7.632812 -16.992188 7.523438 -17.1875 7.355469 -17.328125 C 7.074219 -17.523438 6.824219 -17.605469 6.574219 -17.605469 C 6.351562 -17.605469 6.128906 -17.523438 5.878906 -17.382812 C 5.792969 -17.355469 5.65625 -17.246094 5.515625 -17.105469 C 5.292969 -16.855469 5.097656 -16.605469 4.902344 -16.351562 C 3.789062 -14.652344 3.175781 -13.09375 2.507812 -11.199219 L 2.339844 -10.835938 C 2.339844 -10.78125 2.3125 -10.753906 2.257812 -10.753906 C 2.199219 -10.753906 2.171875 -10.78125 2.171875 -10.835938 C 2.171875 -10.921875 2.171875 -10.976562 2.171875 -11.03125 C 2.144531 -11.085938 2.144531 -11.144531 2.144531 -11.226562 C 2.171875 -11.8125 2.144531 -12.371094 2.117188 -12.953125 C 2.089844 -13.511719 2.0625 -14.070312 2.035156 -14.625 C 2.035156 -14.765625 2.035156 -14.875 2.003906 -14.960938 C 1.976562 -15.265625 1.8125 -15.460938 1.476562 -15.515625 C 1.058594 -15.515625 1.058594 -14.988281 1.058594 -14.679688 C 1.03125 -14.488281 1.03125 -14.320312 1.03125 -14.152344 C 1.03125 -13.984375 1.03125 -13.816406 1.03125 -13.621094 C 1.003906 -12.648438 0.976562 -10.753906 0.945312 -9.527344 C 0.917969 -7.96875 0.890625 -6.378906 0.890625 -5.042969 C 0.613281 -4.792969 0.363281 -4.484375 0.167969 -4.179688 C -0.0820312 -3.871094 -0.222656 -3.539062 -0.304688 -3.175781 C -0.585938 -1.839844 -0.304688 -0.640625 0.5 0.390625 C 1.058594 1.140625 1.8125 1.503906 2.785156 1.503906 Z M 2.953125 1.113281 C 2.199219 1.113281 1.589844 0.640625 1.140625 0.113281 C 0.5 -0.753906 0.222656 -1.699219 0.335938 -2.730469 C 0.445312 -3.257812 0.613281 -3.675781 0.863281 -4.039062 L 0.863281 -3.398438 C 0.890625 -3.316406 0.890625 -3.230469 0.890625 -3.175781 C 0.890625 -3.09375 0.890625 -3.007812 0.890625 -2.925781 C 0.917969 -2.785156 1.003906 -2.730469 1.113281 -2.703125 C 1.140625 -2.703125 1.199219 -2.703125 1.253906 -2.703125 C 1.28125 -2.675781 1.335938 -2.675781 1.363281 -2.675781 C 1.726562 -2.675781 1.949219 -2.839844 2.003906 -3.175781 L 2.144531 -4.570312 L 2.144531 -5.460938 C 3.371094 -6.464844 4.875 -7.046875 5.765625 -7.355469 C 5.933594 -6.910156 6.046875 -6.464844 6.101562 -5.988281 C 6.128906 -5.738281 6.15625 -5.488281 6.183594 -5.265625 C 6.210938 -5.015625 6.210938 -4.820312 6.242188 -4.679688 C 6.269531 -4.039062 6.183594 -3.59375 6.074219 -3.148438 C 5.851562 -2.035156 5.460938 -0.976562 4.820312 0 C 4.375 0.667969 3.734375 1.003906 2.953125 1.113281 Z M 2.144531 -6.015625 C 2.144531 -6.296875 2.144531 -6.546875 2.171875 -6.796875 C 2.171875 -7.046875 2.171875 -7.214844 2.171875 -7.328125 C 2.199219 -7.855469 2.339844 -8.328125 2.480469 -8.859375 C 2.507812 -8.96875 2.589844 -9 2.703125 -8.96875 C 2.785156 -8.941406 2.898438 -8.886719 3.007812 -8.886719 C 3.066406 -8.859375 3.148438 -8.859375 3.230469 -8.859375 C 3.371094 -8.859375 3.453125 -8.886719 3.511719 -8.914062 C 3.59375 -8.941406 3.707031 -8.96875 3.816406 -9 C 3.898438 -9 4.011719 -9 4.09375 -9.027344 C 4.847656 -9.027344 5.210938 -8.441406 5.515625 -7.855469 C 5.542969 -7.773438 5.601562 -7.71875 5.628906 -7.632812 C 4.402344 -7.214844 3.175781 -6.660156 2.144531 -6.015625 Z M 2.703125 -9.386719 C 2.617188 -9.386719 2.617188 -9.445312 2.648438 -9.527344 C 2.648438 -9.554688 2.648438 -9.609375 2.675781 -9.640625 C 2.675781 -9.667969 2.675781 -9.695312 2.675781 -9.722656 C 2.703125 -9.804688 2.730469 -9.890625 2.757812 -9.972656 C 2.757812 -10.027344 2.785156 -10.085938 2.8125 -10.167969 C 3.398438 -11.894531 4.792969 -15.824219 6.296875 -16.882812 C 6.324219 -16.910156 6.378906 -16.9375 6.40625 -16.964844 C 6.433594 -16.964844 6.492188 -16.992188 6.519531 -17.023438 C 6.601562 -17.050781 6.6875 -17.023438 6.6875 -16.9375 L 6.6875 -16.800781 C 6.6875 -15.128906 4.402344 -11.394531 3.371094 -10.058594 C 3.289062 -9.945312 3.203125 -9.835938 3.121094 -9.75 C 3.035156 -9.640625 2.925781 -9.527344 2.839844 -9.417969 C 2.8125 -9.386719 2.785156 -9.386719 2.703125 -9.386719 Z M 2.703125 -9.386719 "/></g></g></g><g fill="#000000" fill-opacity="1"><g transform="translate(58.864405, 84.54831)"><g><path d="M 0.917969 -2.257812 C 1.617188 -2.257812 2.117188 -2.757812 2.535156 -3.230469 C 2.980469 -3.789062 3.398438 -4.375 3.816406 -4.957031 C 4.125 -5.433594 4.457031 -5.933594 4.765625 -6.40625 C 5.070312 -6.882812 5.375 -7.355469 5.683594 -7.828125 C 5.710938 -7.910156 5.792969 -8.023438 5.878906 -8.164062 C 5.960938 -8.300781 6.015625 -8.441406 6.015625 -8.523438 C 6.015625 -8.550781 5.988281 -8.609375 5.960938 -8.636719 C 5.90625 -8.71875 5.824219 -8.746094 5.710938 -8.746094 C 5.628906 -8.746094 5.542969 -8.71875 5.488281 -8.664062 C 5.460938 -8.636719 5.433594 -8.582031 5.433594 -8.550781 C 5.40625 -8.523438 5.375 -8.46875 5.347656 -8.441406 L 3.675781 -5.933594 C 3.34375 -5.375 1.644531 -2.980469 1.03125 -2.980469 C 0.917969 -2.980469 0.835938 -3.09375 0.808594 -3.289062 L 0.808594 -3.480469 C 0.78125 -4.152344 0.835938 -4.847656 0.945312 -5.515625 L 1.113281 -6.210938 C 1.171875 -6.40625 1.28125 -6.519531 1.449219 -6.546875 C 1.589844 -6.574219 1.699219 -6.628906 1.8125 -6.660156 C 1.921875 -6.6875 2.035156 -6.714844 2.144531 -6.769531 C 2.898438 -7.214844 3.675781 -7.882812 3.929688 -8.777344 C 4.125 -9.359375 3.957031 -9.75 3.398438 -10 C 3.148438 -10.140625 2.953125 -10.140625 2.648438 -10.140625 C 2.421875 -10.140625 2.199219 -10.058594 1.949219 -9.917969 C 1.726562 -9.75 1.558594 -9.582031 1.421875 -9.445312 C 1.085938 -9.109375 0.808594 -8.691406 0.585938 -8.273438 C -0.167969 -6.742188 -0.5 -5.152344 -0.390625 -3.511719 L -0.304688 -3.066406 C -0.167969 -2.507812 0.390625 -2.257812 0.917969 -2.257812 Z M 1.53125 -7.132812 C 1.449219 -7.160156 1.449219 -7.214844 1.476562 -7.300781 C 1.644531 -7.855469 2.480469 -9.554688 3.09375 -9.554688 C 3.203125 -9.554688 3.289062 -9.5 3.316406 -9.359375 L 3.316406 -9.304688 C 3.316406 -8.523438 2.367188 -7.410156 1.644531 -7.132812 C 1.617188 -7.105469 1.558594 -7.105469 1.53125 -7.132812 Z M 1.53125 -7.132812 "/></g></g></g><g fill="#000000" fill-opacity="1"><g transform="translate(63.488763, 84.54831)"><g><path d="M 4.429688 -2.648438 C 4.707031 -2.648438 4.957031 -2.757812 5.210938 -2.980469 C 5.433594 -3.175781 5.628906 -3.371094 5.824219 -3.59375 C 6.101562 -3.957031 6.378906 -4.375 6.6875 -4.792969 L 7.855469 -6.628906 C 7.996094 -6.824219 8.105469 -7.046875 8.246094 -7.269531 C 8.359375 -7.492188 8.46875 -7.71875 8.609375 -7.941406 C 8.691406 -8.078125 8.71875 -8.21875 8.746094 -8.300781 C 8.746094 -8.300781 8.746094 -8.328125 8.746094 -8.414062 C 8.71875 -8.550781 8.609375 -8.609375 8.414062 -8.609375 C 8.328125 -8.609375 8.273438 -8.582031 8.246094 -8.523438 C 8.136719 -8.414062 8.050781 -8.273438 7.996094 -8.136719 C 7.410156 -7.019531 5.90625 -4.652344 5.015625 -3.761719 C 4.929688 -3.675781 4.847656 -3.621094 4.765625 -3.566406 C 4.679688 -3.480469 4.597656 -3.425781 4.484375 -3.371094 C 4.457031 -3.371094 4.457031 -3.371094 4.457031 -3.371094 C 4.457031 -3.34375 4.457031 -3.34375 4.429688 -3.34375 C 4.347656 -3.34375 4.289062 -3.398438 4.234375 -3.480469 C 4.152344 -3.789062 4.234375 -4.09375 4.261719 -4.402344 C 4.457031 -5.320312 4.625 -6.183594 4.957031 -7.046875 C 5.183594 -7.578125 5.40625 -8.105469 5.601562 -8.636719 C 5.738281 -8.832031 6.183594 -10.085938 6.183594 -10.222656 C 6.210938 -10.363281 6.15625 -10.445312 6.046875 -10.503906 C 5.960938 -10.585938 5.878906 -10.613281 5.765625 -10.613281 C 5.628906 -10.613281 5.515625 -10.558594 5.433594 -10.417969 C 5.320312 -10.222656 5.210938 -10.085938 5.097656 -9.945312 L 4.261719 -8.746094 C 4.179688 -8.664062 4.125 -8.609375 4.066406 -8.582031 C 4.066406 -8.582031 4.039062 -8.582031 3.957031 -8.582031 L 3.816406 -8.886719 C 3.480469 -9.417969 3.007812 -9.667969 2.421875 -9.667969 C 2.0625 -9.667969 1.699219 -9.554688 1.363281 -9.304688 C 1.140625 -9.109375 0.945312 -8.914062 0.753906 -8.609375 C 0.640625 -8.414062 0.53125 -8.246094 0.417969 -8.078125 C 0.304688 -7.882812 0.195312 -7.6875 0.0820312 -7.492188 C -0.25 -6.851562 -0.417969 -6.15625 -0.417969 -5.40625 C -0.335938 -4.734375 0.167969 -4.375 0.808594 -4.289062 L 0.976562 -4.289062 C 1.171875 -4.289062 1.335938 -4.347656 1.449219 -4.429688 C 1.976562 -4.875 2.394531 -5.292969 2.839844 -5.824219 C 2.925781 -5.90625 2.980469 -5.960938 3.066406 -6.046875 L 3.121094 -6.046875 C 3.175781 -5.988281 3.203125 -5.960938 3.203125 -5.960938 C 3.203125 -5.933594 3.203125 -5.878906 3.203125 -5.851562 C 3.175781 -5.792969 3.175781 -5.738281 3.175781 -5.710938 C 3.148438 -5.488281 3.09375 -5.265625 3.066406 -5.042969 C 3.007812 -4.820312 2.980469 -4.597656 2.953125 -4.347656 C 2.953125 -3.480469 3.453125 -2.648438 4.429688 -2.648438 Z M 0.976562 -5.238281 C 0.890625 -5.265625 0.863281 -5.375 0.863281 -5.515625 C 1.003906 -6.519531 2.035156 -9.136719 2.925781 -9.136719 C 3.035156 -9.136719 3.121094 -9.082031 3.175781 -8.96875 C 3.257812 -8.859375 3.289062 -8.777344 3.316406 -8.71875 C 3.34375 -8.523438 3.453125 -8.386719 3.675781 -8.300781 C 3.761719 -8.273438 3.789062 -8.191406 3.761719 -8.078125 C 3.761719 -8.078125 3.734375 -8.050781 3.707031 -8.023438 C 3.066406 -7.160156 2.453125 -6.40625 1.671875 -5.65625 C 1.589844 -5.570312 1.503906 -5.515625 1.421875 -5.460938 C 1.335938 -5.40625 1.226562 -5.347656 1.140625 -5.265625 C 1.113281 -5.238281 1.058594 -5.238281 0.976562 -5.238281 Z M 0.976562 -5.238281 "/></g></g></g><g fill="#000000" fill-opacity="1"><g transform="translate(70.843168, 84.54831)"><g><path d="M 0.976562 -3.480469 C 1.171875 -3.480469 1.363281 -3.59375 1.53125 -3.816406 C 1.644531 -3.957031 1.726562 -4.125 1.8125 -4.261719 C 1.894531 -4.457031 2.003906 -4.679688 2.089844 -4.875 C 2.171875 -5.070312 2.257812 -5.265625 2.339844 -5.460938 C 2.480469 -5.765625 2.617188 -6.046875 2.757812 -6.351562 C 2.871094 -6.628906 3.007812 -6.910156 3.148438 -7.1875 C 3.480469 -7.855469 4.289062 -9.359375 5.015625 -9.445312 C 5.042969 -9.445312 5.125 -9.554688 5.125 -9.582031 C 5.097656 -9.609375 5.070312 -9.667969 5.042969 -9.695312 L 4.707031 -9.777344 C 4.679688 -9.777344 4.652344 -9.777344 4.625 -9.804688 C 4.597656 -9.804688 4.570312 -9.804688 4.539062 -9.804688 C 4.011719 -9.804688 3.59375 -9.25 3.34375 -8.832031 C 2.675781 -7.941406 2.199219 -6.882812 1.753906 -5.851562 L 1.53125 -5.433594 C 1.503906 -5.40625 1.476562 -5.375 1.449219 -5.347656 C 1.421875 -5.320312 1.394531 -5.320312 1.394531 -5.347656 C 1.363281 -5.433594 1.335938 -5.460938 1.335938 -5.488281 L 1.753906 -8.328125 C 1.78125 -8.609375 1.839844 -8.886719 1.894531 -9.195312 C 1.921875 -9.472656 1.949219 -9.804688 1.949219 -10.167969 L 1.949219 -10.53125 C 1.921875 -10.78125 1.617188 -10.835938 1.421875 -10.835938 C 1.363281 -10.78125 1.335938 -10.753906 1.335938 -10.753906 C 0.917969 -10.195312 0.167969 -5.683594 0.113281 -4.679688 C 0.113281 -4.570312 0.113281 -4.457031 0.140625 -4.347656 C 0.140625 -4.234375 0.140625 -4.125 0.140625 -4.011719 C 0.167969 -3.84375 0.25 -3.707031 0.445312 -3.621094 C 0.5 -3.59375 0.585938 -3.539062 0.695312 -3.511719 C 0.78125 -3.480469 0.863281 -3.480469 0.976562 -3.480469 Z M 0.976562 -3.480469 "/></g></g></g></svg>