<svg xmlns="http://www.w3.org/2000/svg" xmlns:xlink="http://www.w3.org/1999/xlink" width="170" zoomAndPan="magnify" viewBox="0 0 127.5 107.249998" height="143" preserveAspectRatio="xMidYMid meet" version="1.0"><defs><g/><clipPath id="08320d165f"><path d="M 58 5 L 94.816406 5 L 94.816406 36 L 58 36 Z M 58 5 " clip-rule="nonzero"/></clipPath><clipPath id="3f53714edb"><path d="M 37 6 L 94.816406 6 L 94.816406 76.96875 L 37 76.96875 Z M 37 6 " clip-rule="nonzero"/></clipPath><clipPath id="aa4484dfc9"><path d="M 39 2.488281 L 85 2.488281 L 85 63 L 39 63 Z M 39 2.488281 " clip-rule="nonzero"/></clipPath></defs><path fill="#bcf6f4" d="M 63.5 46.53125 C 64.007812 47.222656 63.855469 48.191406 63.164062 48.699219 C 62.472656 49.207031 61.5 49.054688 60.992188 48.363281 C 60.964844 48.328125 60.941406 48.289062 60.917969 48.25 C 60.828125 48.578125 60.632812 48.875 60.335938 49.089844 C 59.644531 49.597656 58.671875 49.445312 58.164062 48.753906 C 58.117188 48.691406 58.078125 48.625 58.042969 48.558594 C 57.976562 48.9375 57.769531 49.292969 57.433594 49.539062 C 56.738281 50.046875 55.765625 49.894531 55.257812 49.203125 C 55.167969 49.078125 55.097656 48.945312 55.050781 48.804688 C 54.984375 49.195312 54.777344 49.558594 54.433594 49.808594 C 53.742188 50.3125 52.769531 50.164062 52.261719 49.472656 C 51.753906 48.78125 51.90625 47.808594 52.597656 47.300781 C 53.289062 46.796875 54.261719 46.945312 54.769531 47.636719 C 54.863281 47.761719 54.929688 47.898438 54.980469 48.035156 C 55.042969 47.648438 55.253906 47.285156 55.597656 47.035156 C 56.289062 46.527344 57.261719 46.679688 57.769531 47.371094 C 57.816406 47.433594 57.855469 47.5 57.890625 47.566406 C 57.957031 47.1875 58.164062 46.832031 58.5 46.585938 C 59.195312 46.078125 60.167969 46.230469 60.671875 46.921875 C 60.699219 46.957031 60.726562 46.996094 60.746094 47.035156 C 60.835938 46.707031 61.035156 46.410156 61.328125 46.195312 C 62.019531 45.6875 62.992188 45.835938 63.5 46.53125 Z M 49.433594 47.070312 C 48.742188 47.578125 48.59375 48.550781 49.097656 49.242188 C 49.605469 49.933594 50.578125 50.085938 51.269531 49.578125 C 51.964844 49.070312 52.113281 48.101562 51.609375 47.410156 C 51.101562 46.714844 50.128906 46.566406 49.433594 47.070312 Z M 48.515625 46.796875 C 48.007812 46.105469 47.035156 45.953125 46.34375 46.460938 C 46.242188 46.535156 46.15625 46.617188 46.078125 46.707031 C 46.105469 46.355469 46.007812 45.992188 45.785156 45.683594 C 45.277344 44.992188 44.304688 44.84375 43.609375 45.347656 C 43.546875 45.394531 43.488281 45.449219 43.429688 45.503906 C 43.527344 45.082031 43.449219 44.621094 43.171875 44.246094 C 42.769531 43.695312 42.074219 43.488281 41.457031 43.679688 C 41.664062 43.191406 41.617188 42.613281 41.28125 42.15625 C 40.878906 41.605469 40.175781 41.398438 39.558594 41.59375 C 40.050781 41.058594 40.113281 40.234375 39.667969 39.628906 C 39.394531 39.257812 38.988281 39.042969 38.5625 39 C 38.601562 38.980469 38.636719 38.957031 38.667969 38.933594 C 39.363281 38.425781 39.511719 37.453125 39.003906 36.761719 C 38.789062 36.46875 38.492188 36.273438 38.167969 36.183594 C 38.480469 36.183594 38.800781 36.085938 39.070312 35.886719 C 39.765625 35.378906 39.914062 34.410156 39.410156 33.714844 C 39.316406 33.59375 39.210938 33.484375 39.09375 33.398438 C 39.574219 33.585938 40.136719 33.535156 40.582031 33.207031 C 41.210938 32.746094 41.390625 31.90625 41.042969 31.238281 C 41.570312 31.59375 42.285156 31.601562 42.828125 31.207031 C 43.199219 30.9375 43.410156 30.535156 43.457031 30.113281 C 43.460938 30.117188 43.464844 30.125 43.46875 30.128906 C 43.976562 30.824219 44.949219 30.972656 45.640625 30.464844 C 45.78125 30.363281 45.898438 30.238281 45.996094 30.105469 C 46.035156 30.183594 46.078125 30.261719 46.132812 30.335938 C 46.640625 31.027344 47.613281 31.179688 48.304688 30.671875 C 48.519531 30.515625 48.679688 30.316406 48.785156 30.09375 C 48.800781 30.386719 48.898438 30.675781 49.082031 30.929688 C 49.589844 31.621094 50.5625 31.773438 51.257812 31.265625 C 51.679688 30.957031 51.898438 30.476562 51.890625 29.988281 C 52.222656 29.425781 52.175781 28.691406 51.71875 28.175781 C 51.527344 27.957031 51.289062 27.808594 51.035156 27.726562 C 51.164062 27.664062 51.285156 27.585938 51.398438 27.488281 C 52.042969 26.921875 52.105469 25.9375 51.539062 25.296875 C 51.476562 25.226562 51.410156 25.167969 51.339844 25.109375 C 51.496094 25.046875 51.640625 24.957031 51.773438 24.84375 C 52.417969 24.277344 52.480469 23.296875 51.910156 22.652344 C 51.90625 22.644531 51.902344 22.640625 51.894531 22.636719 C 52.316406 22.683594 52.757812 22.5625 53.101562 22.261719 C 53.605469 21.816406 53.753906 21.117188 53.519531 20.523438 C 54.097656 21.007812 54.957031 21.015625 55.542969 20.5 C 55.957031 20.136719 56.128906 19.597656 56.046875 19.089844 C 56.109375 19.222656 56.191406 19.351562 56.292969 19.464844 C 56.859375 20.109375 57.839844 20.171875 58.488281 19.605469 C 58.742188 19.382812 58.902344 19.09375 58.972656 18.785156 C 58.992188 19.125 59.117188 19.457031 59.355469 19.730469 C 59.925781 20.371094 60.90625 20.4375 61.550781 19.867188 C 61.582031 19.839844 61.613281 19.8125 61.640625 19.78125 C 61.589844 20.203125 61.710938 20.648438 62.015625 20.992188 C 62.515625 21.558594 63.332031 21.675781 63.960938 21.308594 C 63.636719 21.871094 63.6875 22.597656 64.140625 23.113281 C 64.515625 23.539062 65.070312 23.707031 65.589844 23.609375 C 65.273438 24.171875 65.324219 24.894531 65.773438 25.40625 C 66.082031 25.753906 66.515625 25.933594 66.949219 25.929688 C 66.882812 25.972656 66.820312 26.019531 66.757812 26.070312 C 66.113281 26.636719 66.050781 27.617188 66.617188 28.261719 C 66.871094 28.546875 67.207031 28.71875 67.554688 28.773438 C 67.453125 28.828125 67.351562 28.894531 67.257812 28.976562 C 66.613281 29.542969 66.550781 30.523438 67.117188 31.167969 C 67.683594 31.8125 68.667969 31.875 69.3125 31.304688 C 69.957031 30.742188 70.019531 29.757812 69.453125 29.117188 C 69.199219 28.828125 68.863281 28.660156 68.515625 28.605469 C 68.621094 28.550781 68.71875 28.484375 68.8125 28.402344 C 69.457031 27.835938 69.519531 26.855469 68.953125 26.210938 C 68.644531 25.859375 68.210938 25.683594 67.777344 25.6875 C 67.84375 25.644531 67.90625 25.597656 67.96875 25.542969 C 68.613281 24.976562 68.675781 23.996094 68.109375 23.351562 C 67.734375 22.925781 67.175781 22.757812 66.65625 22.855469 C 66.976562 22.292969 66.925781 21.570312 66.472656 21.058594 C 65.976562 20.496094 65.15625 20.378906 64.527344 20.742188 C 64.851562 20.179688 64.800781 19.453125 64.347656 18.941406 C 63.78125 18.296875 62.800781 18.234375 62.15625 18.800781 C 62.125 18.828125 62.09375 18.859375 62.066406 18.890625 C 62.117188 18.464844 61.996094 18.023438 61.691406 17.679688 C 61.125 17.035156 60.140625 16.972656 59.496094 17.539062 C 59.242188 17.761719 59.082031 18.050781 59.011719 18.355469 C 58.992188 18.019531 58.867188 17.6875 58.625 17.414062 C 58.058594 16.769531 57.078125 16.707031 56.433594 17.273438 C 56.015625 17.640625 55.84375 18.175781 55.925781 18.683594 C 55.863281 18.550781 55.78125 18.425781 55.679688 18.308594 C 55.113281 17.664062 54.132812 17.601562 53.488281 18.167969 C 52.980469 18.613281 52.835938 19.3125 53.070312 19.90625 C 52.492188 19.421875 51.632812 19.414062 51.046875 19.929688 C 50.402344 20.496094 50.339844 21.476562 50.90625 22.121094 C 50.910156 22.125 50.917969 22.132812 50.921875 22.136719 C 50.5 22.089844 50.0625 22.210938 49.71875 22.511719 C 49.074219 23.078125 49.011719 24.058594 49.578125 24.703125 C 49.636719 24.773438 49.703125 24.832031 49.773438 24.890625 C 49.621094 24.953125 49.476562 25.039062 49.34375 25.15625 C 48.699219 25.722656 48.636719 26.703125 49.203125 27.347656 C 49.394531 27.5625 49.632812 27.714844 49.890625 27.796875 C 49.761719 27.855469 49.636719 27.9375 49.527344 28.035156 C 49.171875 28.347656 48.992188 28.785156 49 29.222656 C 48.976562 29.261719 48.957031 29.296875 48.9375 29.335938 C 48.925781 29.046875 48.828125 28.753906 48.640625 28.5 C 48.136719 27.808594 47.164062 27.660156 46.46875 28.164062 C 46.328125 28.269531 46.210938 28.390625 46.117188 28.527344 C 46.078125 28.449219 46.03125 28.371094 45.976562 28.296875 C 45.46875 27.605469 44.496094 27.453125 43.804688 27.960938 C 43.433594 28.230469 43.222656 28.632812 43.179688 29.054688 C 43.171875 29.050781 43.167969 29.042969 43.164062 29.035156 C 42.660156 28.34375 41.6875 28.195312 40.992188 28.699219 C 40.363281 29.160156 40.183594 30 40.535156 30.667969 C 40.003906 30.3125 39.289062 30.304688 38.746094 30.703125 C 38.054688 31.207031 37.902344 32.179688 38.410156 32.871094 C 38.5 32.996094 38.609375 33.101562 38.726562 33.191406 C 38.246094 33.003906 37.683594 33.054688 37.234375 33.382812 C 36.542969 33.886719 36.394531 34.859375 36.898438 35.550781 C 37.113281 35.84375 37.414062 36.039062 37.738281 36.128906 C 37.421875 36.132812 37.105469 36.226562 36.832031 36.425781 C 36.140625 36.933594 35.988281 37.90625 36.496094 38.597656 C 36.769531 38.96875 37.175781 39.183594 37.601562 39.222656 C 37.566406 39.246094 37.53125 39.265625 37.496094 39.292969 C 36.804688 39.796875 36.652344 40.769531 37.160156 41.460938 C 37.5625 42.015625 38.265625 42.21875 38.882812 42.023438 C 38.390625 42.558594 38.328125 43.382812 38.773438 43.992188 C 39.175781 44.539062 39.871094 44.746094 40.488281 44.554688 C 40.28125 45.042969 40.328125 45.621094 40.664062 46.078125 C 41.167969 46.769531 42.140625 46.921875 42.835938 46.414062 C 42.898438 46.367188 42.957031 46.3125 43.015625 46.257812 C 42.917969 46.683594 43 47.140625 43.273438 47.519531 C 43.78125 48.210938 44.753906 48.359375 45.445312 47.855469 C 45.546875 47.78125 45.632812 47.699219 45.710938 47.609375 C 45.6875 47.960938 45.78125 48.324219 46.007812 48.632812 C 46.515625 49.324219 47.488281 49.472656 48.179688 48.96875 C 48.871094 48.460938 49.023438 47.488281 48.515625 46.796875 Z M 66.691406 35.527344 C 66.046875 36.09375 65.984375 37.074219 66.550781 37.71875 C 66.703125 37.890625 66.882812 38.019531 67.078125 38.109375 C 66.691406 38.089844 66.292969 38.214844 65.972656 38.492188 C 65.328125 39.058594 65.265625 40.039062 65.835938 40.683594 C 65.917969 40.777344 66.007812 40.855469 66.105469 40.925781 C 65.820312 40.96875 65.546875 41.089844 65.316406 41.292969 C 64.671875 41.859375 64.605469 42.839844 65.175781 43.484375 C 65.203125 43.515625 65.230469 43.542969 65.261719 43.570312 C 65 43.625 64.75 43.738281 64.535156 43.929688 C 63.890625 44.496094 63.828125 45.476562 64.394531 46.121094 C 64.960938 46.761719 65.945312 46.824219 66.589844 46.257812 C 67.234375 45.691406 67.296875 44.710938 66.730469 44.066406 C 66.699219 44.035156 66.671875 44.007812 66.640625 43.980469 C 66.902344 43.929688 67.15625 43.8125 67.367188 43.621094 C 68.011719 43.054688 68.074219 42.074219 67.507812 41.429688 C 67.425781 41.339844 67.335938 41.257812 67.238281 41.191406 C 67.523438 41.148438 67.796875 41.027344 68.027344 40.824219 C 68.671875 40.257812 68.734375 39.277344 68.167969 38.632812 C 68.015625 38.460938 67.835938 38.332031 67.636719 38.242188 C 68.027344 38.261719 68.425781 38.136719 68.742188 37.859375 C 69.386719 37.292969 69.449219 36.3125 68.882812 35.667969 C 68.316406 35.023438 67.335938 34.960938 66.691406 35.527344 Z M 67.1875 32.125 C 66.542969 32.691406 66.480469 33.671875 67.046875 34.316406 C 67.617188 34.957031 68.597656 35.019531 69.242188 34.453125 C 69.886719 33.886719 69.949219 32.90625 69.382812 32.261719 C 68.816406 31.621094 67.832031 31.558594 67.1875 32.125 Z M 67.1875 32.125 " fill-opacity="1" fill-rule="nonzero"/><path fill="#f26666" d="M 65.214844 46.445312 L 67.414062 47.828125 C 66.359375 49.878906 64.398438 50.035156 64.398438 50.035156 L 63.769531 47.339844 C 59.601562 48.269531 46 50.660156 40.25 43.835938 C 39.976562 43.535156 39.707031 43.164062 39.4375 42.722656 C 39.34375 42.578125 39.257812 42.429688 39.171875 42.277344 C 39.171875 42.273438 39.167969 42.269531 39.167969 42.269531 C 39.167969 42.269531 39.167969 42.265625 39.164062 42.265625 C 38.980469 41.9375 38.8125 41.59375 38.660156 41.230469 C 36.59375 36.550781 38.492188 33.199219 39.976562 31.492188 C 40.355469 31.007812 40.804688 30.574219 41.339844 30.207031 C 41.339844 30.207031 41.34375 30.203125 41.34375 30.203125 C 43.207031 28.9375 46.085938 28.566406 50.53125 30.28125 C 49.5 25.636719 50.304688 22.847656 51.839844 21.199219 C 51.839844 21.199219 51.84375 21.195312 51.84375 21.195312 C 52.285156 20.722656 52.785156 20.34375 53.320312 20.042969 C 55.234375 18.832031 58.839844 17.464844 63.160156 20.210938 C 63.492188 20.417969 63.808594 20.636719 64.105469 20.867188 C 64.109375 20.867188 64.109375 20.867188 64.109375 20.867188 C 64.113281 20.871094 64.113281 20.871094 64.117188 20.875 C 64.253906 20.980469 64.386719 21.089844 64.515625 21.203125 C 64.914062 21.535156 65.242188 21.859375 65.496094 22.171875 C 71.679688 29.210938 66.507812 43.257812 65.214844 46.445312 Z M 65.214844 46.445312 " fill-opacity="1" fill-rule="nonzero"/><g clip-path="url(#08320d165f)"><path fill="#ffd7e3" d="M 77.296875 34.28125 C 77.296875 35.140625 76.601562 35.835938 75.742188 35.835938 C 74.882812 35.835938 74.1875 35.140625 74.1875 34.28125 C 74.1875 34.234375 74.191406 34.191406 74.195312 34.144531 C 73.929688 34.355469 73.59375 34.484375 73.230469 34.484375 C 72.371094 34.484375 71.675781 33.789062 71.675781 32.929688 C 71.675781 32.851562 71.683594 32.773438 71.695312 32.699219 C 71.414062 32.964844 71.035156 33.132812 70.621094 33.132812 C 69.761719 33.132812 69.066406 32.4375 69.066406 31.578125 C 69.066406 31.421875 69.089844 31.273438 69.128906 31.132812 C 68.851562 31.410156 68.464844 31.578125 68.042969 31.578125 C 67.183594 31.578125 66.488281 30.882812 66.488281 30.027344 C 66.488281 29.167969 67.183594 28.472656 68.042969 28.472656 C 68.902344 28.472656 69.597656 29.167969 69.597656 30.027344 C 69.597656 30.179688 69.574219 30.328125 69.53125 30.472656 C 69.8125 30.195312 70.195312 30.027344 70.621094 30.027344 C 71.476562 30.027344 72.175781 30.722656 72.175781 31.578125 C 72.175781 31.65625 72.167969 31.734375 72.15625 31.808594 C 72.433594 31.542969 72.8125 31.378906 73.230469 31.378906 C 74.085938 31.378906 74.785156 32.074219 74.785156 32.929688 C 74.785156 32.976562 74.78125 33.019531 74.777344 33.066406 C 75.042969 32.855469 75.375 32.730469 75.742188 32.730469 C 76.601562 32.730469 77.296875 33.421875 77.296875 34.28125 Z M 67.179688 27.976562 C 67.179688 27.117188 66.484375 26.421875 65.625 26.421875 C 64.765625 26.421875 64.070312 27.117188 64.070312 27.976562 C 64.070312 28.832031 64.765625 29.527344 65.625 29.527344 C 66.484375 29.527344 67.179688 28.832031 67.179688 27.976562 Z M 86.375 27.285156 C 85.519531 27.363281 84.890625 28.117188 84.96875 28.96875 C 84.988281 29.199219 85.058594 29.410156 85.164062 29.597656 C 84.863281 29.351562 84.464844 29.21875 84.046875 29.253906 C 83.191406 29.332031 82.558594 30.085938 82.636719 30.941406 C 82.648438 31.0625 82.675781 31.179688 82.710938 31.292969 C 82.457031 31.160156 82.164062 31.097656 81.859375 31.125 C 81.003906 31.203125 80.371094 31.957031 80.449219 32.808594 C 80.453125 32.851562 80.460938 32.894531 80.464844 32.933594 C 80.226562 32.820312 79.953125 32.765625 79.671875 32.792969 C 78.816406 32.871094 78.183594 33.625 78.261719 34.476562 C 78.339844 35.332031 79.09375 35.960938 79.949219 35.886719 C 80.804688 35.808594 81.433594 35.054688 81.359375 34.199219 C 81.355469 34.15625 81.347656 34.117188 81.339844 34.078125 C 81.582031 34.1875 81.855469 34.242188 82.136719 34.21875 C 82.992188 34.140625 83.621094 33.386719 83.546875 32.53125 C 83.535156 32.410156 83.507812 32.292969 83.46875 32.179688 C 83.726562 32.3125 84.019531 32.375 84.324219 32.347656 C 85.179688 32.269531 85.808594 31.515625 85.734375 30.664062 C 85.710938 30.433594 85.640625 30.222656 85.535156 30.035156 C 85.839844 30.28125 86.234375 30.414062 86.65625 30.378906 C 87.511719 30.300781 88.140625 29.546875 88.0625 28.691406 C 87.988281 27.835938 87.230469 27.207031 86.375 27.285156 Z M 88.792969 24.832031 C 87.9375 24.910156 87.304688 25.664062 87.382812 26.519531 C 87.460938 27.371094 88.214844 28 89.070312 27.925781 C 89.925781 27.847656 90.554688 27.09375 90.480469 26.238281 C 90.402344 25.386719 89.648438 24.753906 88.792969 24.832031 Z M 93.84375 17.039062 C 94.433594 16.773438 94.816406 16.160156 94.757812 15.484375 C 94.6875 14.734375 94.097656 14.15625 93.375 14.078125 C 93.96875 13.816406 94.355469 13.203125 94.296875 12.519531 C 94.21875 11.667969 93.460938 11.035156 92.609375 11.113281 C 92.566406 11.117188 92.523438 11.125 92.484375 11.128906 C 92.773438 10.820312 92.9375 10.390625 92.898438 9.933594 C 92.820312 9.078125 92.0625 8.449219 91.210938 8.523438 C 90.871094 8.554688 90.570312 8.691406 90.332031 8.898438 C 90.515625 8.617188 90.613281 8.273438 90.578125 7.910156 C 90.503906 7.058594 89.746094 6.429688 88.890625 6.503906 C 88.339844 6.554688 87.882812 6.886719 87.648438 7.34375 C 87.679688 7.199219 87.6875 7.050781 87.675781 6.898438 C 87.597656 6.042969 86.839844 5.414062 85.988281 5.488281 C 85.316406 5.550781 84.785156 6.027344 84.625 6.644531 C 84.441406 5.914062 83.75 5.402344 82.976562 5.46875 C 82.121094 5.546875 81.492188 6.300781 81.566406 7.15625 C 81.570312 7.164062 81.570312 7.171875 81.570312 7.179688 C 81.257812 6.890625 80.832031 6.730469 80.375 6.769531 C 79.523438 6.847656 78.890625 7.601562 78.96875 8.457031 C 78.976562 8.546875 78.992188 8.636719 79.015625 8.722656 C 78.855469 8.683594 78.6875 8.667969 78.511719 8.683594 C 77.65625 8.761719 77.027344 9.515625 77.101562 10.367188 C 77.128906 10.65625 77.234375 10.917969 77.390625 11.136719 C 77.25 11.109375 77.105469 11.101562 76.957031 11.113281 C 76.484375 11.15625 76.082031 11.40625 75.828125 11.761719 C 75.789062 11.777344 75.75 11.796875 75.714844 11.816406 C 75.875 11.574219 75.96875 11.28125 75.96875 10.96875 C 75.96875 10.113281 75.269531 9.417969 74.414062 9.417969 C 74.238281 9.417969 74.070312 9.445312 73.914062 9.5 C 73.929688 9.414062 73.9375 9.324219 73.9375 9.230469 C 73.9375 8.375 73.242188 7.679688 72.382812 7.679688 C 71.925781 7.679688 71.515625 7.878906 71.230469 8.191406 C 71.230469 8.183594 71.230469 8.175781 71.230469 8.167969 C 71.230469 7.3125 70.535156 6.617188 69.675781 6.617188 C 68.898438 6.617188 68.257812 7.1875 68.140625 7.933594 C 67.925781 7.335938 67.355469 6.90625 66.679688 6.90625 C 65.820312 6.90625 65.125 7.601562 65.125 8.460938 C 65.125 8.613281 65.148438 8.761719 65.191406 8.902344 C 64.914062 8.46875 64.429688 8.175781 63.878906 8.175781 C 63.019531 8.175781 62.324219 8.871094 62.324219 9.730469 C 62.324219 10.09375 62.449219 10.425781 62.65625 10.691406 C 62.402344 10.507812 62.089844 10.398438 61.75 10.398438 C 60.894531 10.398438 60.195312 11.09375 60.195312 11.949219 C 60.195312 12.410156 60.398438 12.824219 60.71875 13.105469 C 60.675781 13.105469 60.632812 13.101562 60.589844 13.101562 C 59.734375 13.101562 59.039062 13.796875 59.039062 14.652344 C 59.039062 15.335938 59.480469 15.914062 60.09375 16.125 C 59.382812 16.265625 58.84375 16.890625 58.84375 17.644531 C 58.84375 18.324219 59.28125 18.902344 59.894531 19.113281 C 59.4375 19.382812 59.132812 19.878906 59.132812 20.445312 C 59.132812 21.300781 59.828125 21.996094 60.6875 21.996094 C 60.769531 21.996094 60.847656 21.988281 60.925781 21.976562 C 60.597656 22.261719 60.390625 22.679688 60.390625 23.148438 C 60.390625 24.003906 61.085938 24.699219 61.945312 24.699219 C 62.066406 24.699219 62.1875 24.683594 62.304688 24.65625 C 62.074219 24.925781 61.9375 25.277344 61.9375 25.65625 C 61.9375 26.515625 62.632812 27.210938 63.492188 27.210938 C 64.351562 27.210938 65.046875 26.515625 65.046875 25.65625 C 65.046875 24.800781 64.351562 24.105469 63.492188 24.105469 C 63.367188 24.105469 63.25 24.121094 63.132812 24.148438 C 63.359375 23.878906 63.5 23.527344 63.5 23.148438 C 63.5 22.289062 62.804688 21.59375 61.945312 21.59375 C 61.863281 21.59375 61.785156 21.601562 61.707031 21.613281 C 62.035156 21.332031 62.242188 20.914062 62.242188 20.445312 C 62.242188 19.765625 61.804688 19.1875 61.195312 18.976562 C 61.648438 18.707031 61.953125 18.210938 61.953125 17.644531 C 61.953125 16.960938 61.511719 16.382812 60.894531 16.175781 C 61.609375 16.035156 62.144531 15.40625 62.144531 14.652344 C 62.144531 14.191406 61.945312 13.78125 61.625 13.496094 C 61.667969 13.5 61.710938 13.503906 61.75 13.503906 C 62.609375 13.503906 63.304688 12.808594 63.304688 11.949219 C 63.304688 11.585938 63.179688 11.253906 62.972656 10.988281 C 63.226562 11.171875 63.539062 11.28125 63.878906 11.28125 C 64.734375 11.28125 65.433594 10.585938 65.433594 9.730469 C 65.433594 9.574219 65.410156 9.425781 65.367188 9.285156 C 65.644531 9.722656 66.128906 10.011719 66.679688 10.011719 C 67.457031 10.011719 68.101562 9.441406 68.214844 8.695312 C 68.429688 9.292969 69.003906 9.722656 69.675781 9.722656 C 70.132812 9.722656 70.546875 9.523438 70.828125 9.207031 C 70.828125 9.214844 70.828125 9.222656 70.828125 9.230469 C 70.828125 10.089844 71.523438 10.785156 72.382812 10.785156 C 72.558594 10.785156 72.726562 10.753906 72.882812 10.699219 C 72.867188 10.789062 72.859375 10.875 72.859375 10.96875 C 72.859375 11.824219 73.554688 12.519531 74.414062 12.519531 C 74.675781 12.519531 74.925781 12.457031 75.140625 12.339844 C 74.980469 12.582031 74.886719 12.875 74.886719 13.1875 C 74.886719 14.046875 75.582031 14.742188 76.441406 14.742188 C 76.964844 14.742188 77.425781 14.480469 77.710938 14.085938 C 78.3125 13.828125 78.707031 13.207031 78.644531 12.519531 C 78.617188 12.230469 78.515625 11.96875 78.355469 11.753906 C 78.496094 11.777344 78.640625 11.789062 78.789062 11.773438 C 79.644531 11.699219 80.277344 10.945312 80.199219 10.089844 C 80.191406 10 80.171875 9.910156 80.148438 9.824219 C 80.3125 9.863281 80.480469 9.878906 80.65625 9.863281 C 81.511719 9.785156 82.140625 9.03125 82.0625 8.175781 C 82.0625 8.167969 82.0625 8.160156 82.0625 8.152344 C 82.371094 8.441406 82.800781 8.605469 83.253906 8.5625 C 83.925781 8.503906 84.457031 8.023438 84.617188 7.40625 C 84.800781 8.140625 85.492188 8.652344 86.265625 8.582031 C 86.816406 8.53125 87.273438 8.199219 87.507812 7.742188 C 87.480469 7.886719 87.46875 8.035156 87.484375 8.191406 C 87.5625 9.042969 88.316406 9.671875 89.171875 9.597656 C 89.507812 9.566406 89.808594 9.429688 90.046875 9.222656 C 89.863281 9.503906 89.769531 9.847656 89.800781 10.210938 C 89.878906 11.066406 90.632812 11.695312 91.488281 11.617188 C 91.53125 11.613281 91.570312 11.605469 91.613281 11.601562 C 91.320312 11.910156 91.15625 12.339844 91.199219 12.796875 C 91.265625 13.550781 91.859375 14.125 92.582031 14.203125 C 91.988281 14.464844 91.597656 15.082031 91.660156 15.761719 C 91.710938 16.328125 92.058594 16.792969 92.535156 17.019531 C 91.949219 17.285156 91.5625 17.898438 91.621094 18.574219 C 91.664062 19.042969 91.910156 19.4375 92.261719 19.691406 C 92.183594 19.6875 92.105469 19.6875 92.023438 19.695312 C 91.167969 19.773438 90.539062 20.527344 90.613281 21.378906 C 90.648438 21.761719 90.816406 22.09375 91.070312 22.34375 C 90.953125 22.328125 90.832031 22.320312 90.710938 22.332031 C 89.855469 22.410156 89.222656 23.164062 89.300781 24.019531 C 89.378906 24.871094 90.132812 25.503906 90.988281 25.425781 C 91.84375 25.347656 92.472656 24.59375 92.398438 23.738281 C 92.363281 23.359375 92.191406 23.023438 91.941406 22.777344 C 92.058594 22.792969 92.179688 22.796875 92.304688 22.789062 C 93.15625 22.710938 93.789062 21.957031 93.710938 21.101562 C 93.667969 20.636719 93.425781 20.238281 93.074219 19.984375 C 93.152344 19.988281 93.230469 19.988281 93.3125 19.984375 C 94.164062 19.90625 94.796875 19.152344 94.71875 18.296875 C 94.667969 17.734375 94.320312 17.269531 93.84375 17.039062 Z M 93.84375 17.039062 " fill-opacity="1" fill-rule="nonzero"/></g><path fill="#ff9cb6" d="M 78.726562 35.222656 L 79.6875 37.640625 C 77.625 38.667969 75.949219 37.640625 75.949219 37.640625 L 77.03125 35.09375 C 73.121094 33.386719 60.730469 27.292969 60.125 18.390625 C 60.085938 17.988281 60.085938 17.527344 60.128906 17.011719 C 60.140625 16.84375 60.15625 16.671875 60.179688 16.5 C 60.179688 16.496094 60.179688 16.492188 60.179688 16.488281 C 60.179688 16.488281 60.179688 16.488281 60.179688 16.484375 C 60.226562 16.113281 60.296875 15.734375 60.382812 15.351562 C 61.484375 10.359375 65 8.769531 67.207031 8.269531 C 67.796875 8.105469 68.417969 8.015625 69.0625 8.039062 C 69.066406 8.039062 69.074219 8.039062 69.074219 8.039062 C 71.324219 8.113281 73.867188 9.511719 76.4375 13.515625 C 78.355469 9.164062 80.652344 7.386719 82.863281 6.960938 C 82.863281 6.960938 82.871094 6.960938 82.875 6.960938 C 83.507812 6.839844 84.132812 6.832031 84.746094 6.902344 C 87.003906 7.054688 90.722656 8.078125 92.585938 12.84375 C 92.730469 13.207031 92.859375 13.570312 92.960938 13.929688 C 92.960938 13.929688 92.960938 13.933594 92.960938 13.933594 C 92.964844 13.9375 92.964844 13.941406 92.964844 13.945312 C 93.011719 14.109375 93.054688 14.277344 93.09375 14.441406 C 93.21875 14.945312 93.289062 15.398438 93.3125 15.804688 C 94.136719 25.128906 81.65625 33.414062 78.726562 35.222656 Z M 78.726562 35.222656 " fill-opacity="1" fill-rule="nonzero"/><g clip-path="url(#3f53714edb)"><path fill="#3b647f" d="M 76.882812 34.917969 C 77.535156 35.023438 78.191406 35.054688 78.855469 35.0625 C 78.851562 35.105469 78.851562 35.144531 78.863281 35.1875 C 78.894531 35.3125 78.917969 35.40625 78.925781 35.503906 C 78.871094 35.53125 78.820312 35.570312 78.78125 35.617188 C 78.78125 35.617188 78.777344 35.617188 78.777344 35.617188 C 78.402344 35.636719 77.921875 35.78125 77.566406 35.640625 C 77.496094 35.648438 77.425781 35.652344 77.351562 35.652344 C 77.261719 35.628906 77.171875 35.601562 77.09375 35.5625 C 77.015625 35.53125 76.945312 35.523438 76.875 35.535156 C 76.675781 35.382812 76.707031 35.066406 76.882812 34.917969 Z M 65.085938 46.121094 C 65.085938 46.117188 65.082031 46.109375 65.078125 46.105469 C 65.011719 46.101562 64.941406 46.113281 64.867188 46.160156 C 64.597656 46.316406 64.320312 46.449219 64.070312 46.628906 C 63.941406 46.71875 63.824219 46.816406 63.726562 46.9375 C 63.710938 46.957031 63.703125 46.972656 63.691406 46.984375 C 63.679688 46.988281 63.660156 47 63.621094 47.03125 C 63.53125 47.097656 63.449219 47.171875 63.371094 47.25 C 63.332031 47.285156 63.308594 47.324219 63.289062 47.363281 C 63.335938 47.414062 63.375 47.472656 63.402344 47.539062 C 63.402344 47.542969 63.40625 47.542969 63.40625 47.546875 C 63.5625 47.632812 63.710938 47.734375 63.847656 47.847656 C 63.871094 47.835938 63.894531 47.816406 63.917969 47.792969 C 64.015625 47.695312 64.144531 47.632812 64.238281 47.535156 C 64.339844 47.4375 64.40625 47.335938 64.523438 47.25 C 64.753906 47.089844 65.011719 46.96875 65.257812 46.824219 C 65.359375 46.765625 65.414062 46.683594 65.433594 46.59375 C 65.402344 46.578125 65.371094 46.554688 65.347656 46.53125 C 65.222656 46.402344 65.160156 46.277344 65.085938 46.121094 Z M 67.992188 7.816406 C 67.984375 7.65625 68.128906 7.527344 68.28125 7.527344 C 68.421875 7.527344 68.53125 7.625 68.5625 7.75 C 68.613281 7.804688 68.644531 7.871094 68.636719 7.945312 C 68.625 8.058594 68.589844 8.148438 68.488281 8.214844 C 68.410156 8.265625 68.265625 8.28125 68.183594 8.21875 C 68.046875 8.113281 68 7.984375 67.992188 7.816406 Z M 68.058594 7.945312 C 68.058594 7.921875 68.0625 7.902344 68.070312 7.878906 C 68.066406 7.882812 68.066406 7.886719 68.0625 7.886719 C 68.0625 7.90625 68.058594 7.925781 68.058594 7.945312 Z M 71.375 8.683594 C 71.527344 8.683594 71.621094 8.582031 71.65625 8.449219 C 71.65625 8.449219 71.65625 8.445312 71.65625 8.445312 C 71.667969 8.429688 71.671875 8.414062 71.679688 8.394531 C 71.710938 8.324219 71.722656 8.277344 71.730469 8.203125 C 71.746094 8.042969 71.585938 7.910156 71.441406 7.910156 C 71.289062 7.910156 71.195312 8.015625 71.160156 8.144531 C 71.160156 8.148438 71.160156 8.148438 71.15625 8.152344 C 71.148438 8.167969 71.140625 8.183594 71.136719 8.199219 C 71.105469 8.269531 71.09375 8.320312 71.085938 8.394531 C 71.066406 8.550781 71.230469 8.683594 71.375 8.683594 Z M 73.898438 10.144531 C 73.957031 10.085938 74.007812 10.023438 74.050781 9.957031 C 74.0625 9.9375 74.074219 9.914062 74.089844 9.894531 C 74.089844 9.890625 74.089844 9.890625 74.09375 9.886719 C 74.203125 9.769531 74.207031 9.589844 74.09375 9.476562 C 73.984375 9.367188 73.792969 9.363281 73.683594 9.476562 C 73.644531 9.519531 73.609375 9.566406 73.578125 9.617188 C 73.570312 9.632812 73.558594 9.652344 73.546875 9.667969 C 73.554688 9.65625 73.5 9.726562 73.488281 9.734375 C 73.378906 9.847656 73.375 10.03125 73.488281 10.144531 C 73.601562 10.253906 73.789062 10.257812 73.898438 10.144531 Z M 75.480469 12.3125 C 75.609375 12.386719 75.808594 12.351562 75.878906 12.207031 C 75.941406 12.078125 76.007812 11.949219 76.070312 11.824219 C 76.140625 11.679688 76.109375 11.511719 75.96875 11.425781 C 75.839844 11.351562 75.640625 11.390625 75.570312 11.53125 C 75.507812 11.660156 75.441406 11.789062 75.378906 11.917969 C 75.308594 12.058594 75.339844 12.230469 75.480469 12.3125 Z M 65.425781 8.609375 C 65.28125 8.421875 64.898438 8.476562 64.898438 8.78125 C 64.902344 8.996094 65.039062 9.132812 65.253906 9.132812 C 65.558594 9.136719 65.613281 8.753906 65.425781 8.609375 Z M 62.324219 10.582031 C 62.324219 10.605469 62.324219 10.625 62.324219 10.648438 C 62.324219 11.019531 62.902344 11.019531 62.902344 10.648438 C 62.902344 10.625 62.902344 10.605469 62.902344 10.582031 C 62.902344 10.207031 62.324219 10.207031 62.324219 10.582031 Z M 60.734375 12.824219 C 60.660156 12.894531 60.636719 13 60.65625 13.09375 C 60.65625 13.238281 60.75 13.382812 60.9375 13.382812 C 61.0625 13.382812 61.164062 13.339844 61.234375 13.230469 C 61.332031 13.085938 61.25 12.929688 61.140625 12.824219 C 61.03125 12.710938 60.84375 12.710938 60.734375 12.824219 Z M 60.035156 15.828125 C 59.847656 15.824219 59.753906 15.96875 59.753906 16.113281 C 59.734375 16.210938 59.757812 16.3125 59.832031 16.386719 C 59.941406 16.496094 60.128906 16.496094 60.242188 16.386719 C 60.332031 16.292969 60.402344 16.183594 60.363281 16.046875 C 60.320312 15.898438 60.183594 15.828125 60.035156 15.828125 Z M 59.90625 18.917969 C 59.53125 18.917969 59.53125 19.496094 59.90625 19.496094 C 60.28125 19.496094 60.28125 18.917969 59.90625 18.917969 Z M 60.761719 22.328125 C 60.773438 22.328125 60.78125 22.328125 60.789062 22.328125 C 60.796875 22.328125 60.804688 22.328125 60.808594 22.328125 C 61.183594 22.328125 61.183594 21.746094 60.808594 21.746094 C 60.804688 21.746094 60.796875 21.746094 60.789062 21.746094 C 60.78125 21.746094 60.773438 21.746094 60.761719 21.746094 C 60.757812 21.746094 60.75 21.746094 60.742188 21.746094 C 60.371094 21.746094 60.371094 22.328125 60.742188 22.328125 C 60.75 22.328125 60.757812 22.328125 60.761719 22.328125 Z M 62.226562 24.320312 C 62.203125 24.320312 62.183594 24.320312 62.160156 24.320312 C 61.789062 24.320312 61.789062 24.902344 62.160156 24.902344 C 62.183594 24.902344 62.203125 24.902344 62.226562 24.902344 C 62.601562 24.902344 62.601562 24.320312 62.226562 24.320312 Z M 64.492188 27.195312 C 64.597656 27.089844 64.601562 26.917969 64.507812 26.804688 C 64.449219 26.492188 63.929688 26.511719 63.933594 26.863281 C 63.933594 27.003906 63.988281 27.101562 64.082031 27.195312 C 64.195312 27.308594 64.382812 27.308594 64.492188 27.195312 Z M 66.898438 29.179688 C 66.898438 29.160156 66.898438 29.136719 66.898438 29.117188 C 66.898438 28.742188 66.316406 28.742188 66.316406 29.117188 C 66.316406 29.136719 66.316406 29.160156 66.316406 29.179688 C 66.316406 29.554688 66.898438 29.554688 66.898438 29.179688 Z M 68.785156 31.507812 C 68.894531 31.617188 69.089844 31.628906 69.195312 31.507812 C 69.234375 31.46875 69.265625 31.425781 69.292969 31.378906 C 69.300781 31.367188 69.34375 31.292969 69.324219 31.316406 C 69.429688 31.199219 69.441406 31.023438 69.324219 30.90625 C 69.21875 30.800781 69.019531 30.789062 68.914062 30.90625 C 68.878906 30.949219 68.84375 30.988281 68.816406 31.039062 C 68.8125 31.046875 68.765625 31.121094 68.785156 31.101562 C 68.683594 31.21875 68.667969 31.390625 68.785156 31.507812 Z M 71.792969 32.847656 C 71.777344 33.003906 71.675781 33.136719 71.503906 33.136719 C 71.359375 33.136719 71.195312 33.003906 71.214844 32.847656 C 71.21875 32.824219 71.21875 32.800781 71.222656 32.773438 C 71.214844 32.730469 71.214844 32.683594 71.226562 32.644531 C 71.269531 32.476562 71.425781 32.417969 71.582031 32.441406 C 71.726562 32.464844 71.808594 32.597656 71.820312 32.730469 C 71.824219 32.765625 71.820312 32.804688 71.808594 32.835938 C 71.804688 32.851562 71.785156 32.917969 71.792969 32.847656 Z M 71.242188 32.699219 C 71.242188 32.683594 71.242188 32.679688 71.242188 32.699219 Z M 73.941406 33.800781 C 73.855469 33.886719 73.839844 34 73.878906 34.105469 C 73.839844 34.207031 73.855469 34.320312 73.941406 34.40625 C 74.046875 34.511719 74.246094 34.523438 74.351562 34.40625 C 74.519531 34.210938 74.519531 33.996094 74.351562 33.800781 C 74.246094 33.683594 74.046875 33.695312 73.941406 33.800781 Z M 80.984375 34.023438 C 81.015625 34.082031 81.054688 34.136719 81.113281 34.171875 C 81.242188 34.242188 81.445312 34.214844 81.511719 34.066406 C 81.550781 33.972656 81.554688 33.910156 81.539062 33.808594 C 81.535156 33.792969 81.53125 33.773438 81.527344 33.757812 C 81.523438 33.75 81.523438 33.738281 81.519531 33.730469 C 81.503906 33.582031 81.390625 33.460938 81.234375 33.460938 C 81.082031 33.460938 80.933594 33.59375 80.945312 33.75 C 80.945312 33.773438 80.949219 33.796875 80.953125 33.816406 C 80.941406 33.886719 80.949219 33.957031 80.984375 34.023438 Z M 83.359375 32.429688 C 83.484375 32.429688 83.585938 32.390625 83.660156 32.277344 C 83.753906 32.132812 83.671875 31.976562 83.566406 31.871094 C 83.453125 31.757812 83.265625 31.761719 83.15625 31.871094 C 83.082031 31.945312 83.058594 32.046875 83.078125 32.140625 C 83.078125 32.289062 83.171875 32.429688 83.359375 32.429688 Z M 85.613281 29.984375 C 85.484375 29.992188 85.378906 30.046875 85.28125 30.132812 C 85.164062 30.238281 85.175781 30.4375 85.28125 30.542969 C 85.394531 30.65625 85.558594 30.648438 85.675781 30.554688 C 85.804688 30.523438 85.90625 30.417969 85.90625 30.273438 C 85.90625 30.121094 85.773438 29.976562 85.613281 29.984375 Z M 87.933594 27.667969 C 87.558594 27.667969 87.558594 28.246094 87.933594 28.246094 C 88.308594 28.246094 88.308594 27.667969 87.933594 27.667969 Z M 89.964844 25.320312 C 89.964844 25.339844 89.964844 25.363281 89.964844 25.382812 C 89.964844 25.757812 90.542969 25.757812 90.542969 25.382812 C 90.542969 25.363281 90.542969 25.339844 90.542969 25.320312 C 90.542969 24.945312 89.964844 24.945312 89.964844 25.320312 Z M 92.285156 22.550781 C 92.253906 22.796875 92.109375 22.941406 91.863281 22.96875 C 91.707031 22.988281 91.574219 22.824219 91.574219 22.679688 C 91.574219 22.558594 91.644531 22.472656 91.738281 22.425781 C 91.785156 22.332031 91.871094 22.261719 91.992188 22.261719 C 92.136719 22.261719 92.300781 22.394531 92.285156 22.550781 Z M 91.714844 22.488281 C 91.714844 22.488281 91.71875 22.484375 91.71875 22.484375 C 91.71875 22.484375 91.71875 22.488281 91.714844 22.488281 Z M 91.804688 22.402344 C 91.800781 22.40625 91.796875 22.40625 91.796875 22.40625 C 91.796875 22.40625 91.800781 22.402344 91.804688 22.402344 Z M 92.960938 19.558594 C 92.9375 19.558594 92.917969 19.558594 92.894531 19.558594 C 92.523438 19.558594 92.523438 20.136719 92.894531 20.136719 C 92.917969 20.136719 92.9375 20.136719 92.960938 20.136719 C 93.332031 20.140625 93.332031 19.558594 92.960938 19.558594 Z M 93.734375 16.726562 C 93.539062 16.726562 93.359375 16.746094 93.207031 16.878906 C 93.085938 16.980469 93.101562 17.183594 93.207031 17.285156 C 93.3125 17.394531 93.460938 17.390625 93.578125 17.316406 C 93.585938 17.3125 93.589844 17.3125 93.59375 17.3125 C 93.640625 17.308594 93.6875 17.308594 93.734375 17.308594 C 94.105469 17.308594 94.105469 16.726562 93.734375 16.726562 Z M 93.265625 14.347656 C 93.292969 14.347656 93.320312 14.347656 93.347656 14.347656 C 93.71875 14.347656 93.71875 13.765625 93.347656 13.769531 C 93.167969 13.769531 93.019531 13.792969 92.882812 13.917969 C 92.765625 14.023438 92.777344 14.21875 92.882812 14.328125 C 92.992188 14.433594 93.148438 14.433594 93.265625 14.347656 Z M 92.390625 11.148438 C 92.527344 11.316406 92.527344 11.519531 92.34375 11.648438 C 92.304688 11.675781 92.257812 11.691406 92.207031 11.699219 C 92.144531 11.746094 92.078125 11.765625 91.992188 11.773438 C 91.835938 11.785156 91.703125 11.628906 91.703125 11.484375 C 91.703125 11.359375 91.773438 11.269531 91.875 11.222656 C 91.878906 11.21875 91.882812 11.214844 91.890625 11.210938 C 91.9375 11.171875 91.984375 11.132812 92.039062 11.105469 C 92.148438 11.046875 92.308594 11.046875 92.390625 11.148438 Z M 91.910156 11.210938 C 91.914062 11.210938 91.921875 11.207031 91.925781 11.207031 C 91.921875 11.207031 91.914062 11.210938 91.910156 11.210938 Z M 90.179688 8.769531 C 90.136719 8.8125 90.09375 8.855469 90.046875 8.898438 C 89.9375 9.007812 89.9375 9.195312 90.046875 9.308594 C 90.160156 9.417969 90.347656 9.417969 90.457031 9.308594 C 90.5 9.265625 90.542969 9.222656 90.585938 9.179688 C 90.699219 9.066406 90.699219 8.878906 90.585938 8.769531 C 90.476562 8.65625 90.289062 8.65625 90.179688 8.769531 Z M 87.585938 7.15625 C 87.546875 7.164062 87.558594 7.167969 87.585938 7.15625 Z M 87.675781 7.71875 C 87.519531 7.738281 87.386719 7.574219 87.386719 7.429688 C 87.386719 7.285156 87.480469 7.191406 87.605469 7.15625 C 87.605469 7.152344 87.609375 7.152344 87.609375 7.148438 C 87.601562 7.152344 87.59375 7.152344 87.585938 7.15625 C 87.59375 7.148438 87.605469 7.144531 87.617188 7.136719 C 87.617188 7.136719 87.621094 7.132812 87.621094 7.132812 C 87.628906 7.128906 87.636719 7.121094 87.644531 7.117188 C 87.703125 7.066406 87.761719 7.03125 87.847656 7.03125 C 88.113281 7.035156 88.214844 7.335938 88.054688 7.523438 C 88.050781 7.527344 88.050781 7.527344 88.046875 7.53125 C 88.050781 7.527344 88.050781 7.527344 88.046875 7.53125 C 88.035156 7.542969 88.023438 7.558594 88.011719 7.570312 C 87.984375 7.597656 87.949219 7.617188 87.914062 7.632812 C 87.914062 7.632812 87.910156 7.636719 87.910156 7.636719 C 87.835938 7.6875 87.761719 7.707031 87.675781 7.71875 Z M 87.65625 7.144531 C 87.664062 7.140625 87.667969 7.140625 87.675781 7.140625 C 87.667969 7.140625 87.664062 7.140625 87.65625 7.140625 C 87.65625 7.144531 87.65625 7.144531 87.65625 7.144531 Z M 84.414062 6.828125 C 84.558594 7.015625 84.941406 6.960938 84.9375 6.65625 C 84.9375 6.441406 84.796875 6.304688 84.582031 6.300781 C 84.28125 6.300781 84.222656 6.683594 84.414062 6.828125 Z M 81.84375 7.171875 C 81.84375 7.148438 81.84375 7.128906 81.84375 7.105469 C 81.84375 6.734375 81.265625 6.734375 81.265625 7.105469 C 81.265625 7.128906 81.265625 7.148438 81.265625 7.171875 C 81.265625 7.546875 81.84375 7.546875 81.84375 7.171875 Z M 79.40625 8.949219 C 79.597656 8.804688 79.539062 8.425781 79.234375 8.425781 C 79.023438 8.425781 78.882812 8.566406 78.882812 8.78125 C 78.878906 9.082031 79.261719 9.140625 79.40625 8.949219 Z M 77.496094 11.449219 C 77.511719 11.449219 77.527344 11.449219 77.542969 11.449219 C 77.917969 11.449219 77.917969 10.871094 77.542969 10.871094 C 77.527344 10.871094 77.511719 10.871094 77.496094 10.871094 C 77.121094 10.871094 77.121094 11.449219 77.496094 11.449219 Z M 66.234375 44.003906 C 66.355469 44.058594 66.476562 44.050781 66.578125 43.957031 C 66.582031 43.957031 66.582031 43.957031 66.582031 43.957031 C 66.703125 43.847656 66.683594 43.660156 66.582031 43.546875 C 66.574219 43.535156 66.5625 43.527344 66.554688 43.519531 C 66.492188 43.453125 66.402344 43.429688 66.316406 43.4375 C 66.304688 43.4375 66.296875 43.4375 66.285156 43.433594 C 66.128906 43.417969 65.996094 43.578125 65.996094 43.722656 C 65.996094 43.875 66.101562 43.972656 66.234375 44.003906 Z M 66.851562 41.136719 C 66.988281 41.023438 67.140625 40.988281 67.316406 40.988281 C 67.691406 40.988281 67.691406 41.566406 67.316406 41.570312 C 67.300781 41.570312 67.21875 41.578125 67.246094 41.570312 C 67.234375 41.574219 67.226562 41.574219 67.226562 41.574219 C 67.109375 41.652344 66.960938 41.65625 66.851562 41.546875 C 66.75 41.441406 66.734375 41.242188 66.851562 41.136719 Z M 67.265625 41.546875 C 67.253906 41.554688 67.246094 41.5625 67.234375 41.570312 C 67.242188 41.566406 67.25 41.558594 67.265625 41.546875 Z M 67.476562 38.253906 C 67.476562 37.902344 67.984375 37.882812 68.050781 38.1875 C 68.109375 38.261719 68.136719 38.375 68.109375 38.460938 C 68.066406 38.625 67.910156 38.683594 67.753906 38.660156 C 67.554688 38.636719 67.476562 38.429688 67.476562 38.253906 Z M 67.910156 38.105469 C 67.921875 38.105469 67.933594 38.109375 67.945312 38.113281 C 67.933594 38.109375 67.921875 38.105469 67.910156 38.105469 Z M 68.21875 35.390625 C 68.238281 35.390625 68.261719 35.390625 68.28125 35.390625 C 68.65625 35.390625 68.65625 34.8125 68.28125 34.8125 C 68.261719 34.8125 68.238281 34.8125 68.21875 34.8125 C 67.84375 34.8125 67.84375 35.390625 68.21875 35.390625 Z M 61.15625 48.230469 C 61.089844 48.535156 60.582031 48.515625 60.582031 48.164062 C 60.585938 47.988281 60.660156 47.785156 60.859375 47.757812 C 61.015625 47.734375 61.171875 47.792969 61.21875 47.957031 C 61.242188 48.042969 61.214844 48.15625 61.15625 48.230469 Z M 61.015625 48.316406 C 61.027344 48.3125 61.039062 48.308594 61.050781 48.304688 C 61.039062 48.308594 61.027344 48.3125 61.015625 48.316406 Z M 57.683594 48.421875 C 57.683594 48.464844 57.683594 48.507812 57.683594 48.550781 C 57.683594 48.925781 58.261719 48.925781 58.261719 48.550781 C 58.261719 48.507812 58.261719 48.464844 58.261719 48.421875 C 58.261719 48.046875 57.683594 48.046875 57.683594 48.421875 Z M 54.65625 48.742188 C 54.65625 48.785156 54.65625 48.828125 54.65625 48.871094 C 54.65625 49.246094 55.234375 49.246094 55.234375 48.871094 C 55.234375 48.828125 55.234375 48.785156 55.234375 48.742188 C 55.234375 48.371094 54.65625 48.371094 54.65625 48.742188 Z M 51.628906 48.679688 C 51.628906 48.699219 51.628906 48.722656 51.628906 48.742188 C 51.628906 49.117188 52.207031 49.117188 52.207031 48.742188 C 52.207031 48.722656 52.207031 48.699219 52.207031 48.679688 C 52.207031 48.304688 51.628906 48.304688 51.628906 48.679688 Z M 48.632812 48.132812 C 48.609375 48.132812 48.589844 48.132812 48.566406 48.132812 C 48.191406 48.132812 48.191406 48.710938 48.566406 48.710938 C 48.589844 48.710938 48.609375 48.710938 48.632812 48.710938 C 49.003906 48.710938 49.003906 48.132812 48.632812 48.132812 Z M 45.460938 47.378906 C 45.390625 47.453125 45.363281 47.554688 45.386719 47.648438 C 45.367188 47.742188 45.390625 47.847656 45.460938 47.917969 C 45.574219 48.03125 45.761719 48.03125 45.871094 47.917969 C 46.039062 47.75 46.039062 47.550781 45.871094 47.378906 C 45.761719 47.269531 45.574219 47.269531 45.460938 47.378906 Z M 42.960938 46.136719 C 42.585938 46.136719 42.585938 46.714844 42.960938 46.714844 C 43.335938 46.714844 43.335938 46.136719 42.960938 46.136719 Z M 40.660156 44.691406 C 40.660156 44.691406 40.660156 44.695312 40.660156 44.695312 C 40.621094 44.820312 40.53125 44.914062 40.382812 44.914062 C 40.238281 44.914062 40.074219 44.78125 40.09375 44.625 C 40.109375 44.492188 40.152344 44.386719 40.242188 44.292969 C 40.351562 44.175781 40.542969 44.179688 40.652344 44.292969 C 40.761719 44.402344 40.761719 44.578125 40.660156 44.691406 Z M 40.652344 44.703125 C 40.640625 44.714844 40.640625 44.722656 40.652344 44.703125 Z M 40.660156 44.691406 Z M 38.851562 41.902344 C 38.695312 41.878906 38.539062 41.933594 38.492188 42.101562 C 38.480469 42.148438 38.484375 42.195312 38.492188 42.246094 C 38.472656 42.335938 38.492188 42.4375 38.566406 42.511719 C 38.675781 42.617188 38.875 42.632812 38.976562 42.511719 C 39.074219 42.402344 39.128906 42.289062 39.101562 42.144531 C 39.078125 42.023438 38.96875 41.917969 38.851562 41.902344 Z M 37.613281 38.992188 C 37.335938 38.992188 37.265625 39.308594 37.398438 39.476562 C 37.414062 39.550781 37.457031 39.617188 37.53125 39.660156 C 37.660156 39.738281 37.859375 39.699219 37.929688 39.558594 C 37.996094 39.421875 38.042969 39.304688 37.96875 39.15625 C 37.902344 39.019531 37.75 38.992188 37.613281 38.992188 Z M 37.675781 36.484375 C 37.980469 36.488281 38.039062 36.105469 37.847656 35.960938 C 37.703125 35.769531 37.320312 35.828125 37.324219 36.128906 C 37.324219 36.34375 37.464844 36.484375 37.675781 36.484375 Z M 38.804688 33.171875 C 38.804688 32.957031 38.664062 32.816406 38.449219 32.816406 C 38.148438 32.816406 38.089844 33.195312 38.28125 33.339844 C 38.425781 33.53125 38.808594 33.472656 38.804688 33.171875 Z M 40.222656 30.660156 C 40.222656 30.675781 40.222656 30.691406 40.222656 30.707031 C 40.222656 31.082031 40.800781 31.082031 40.800781 30.707031 C 40.800781 30.691406 40.800781 30.675781 40.800781 30.660156 C 40.800781 30.289062 40.222656 30.289062 40.222656 30.660156 Z M 43.40625 28.90625 C 43.199219 28.597656 42.695312 28.886719 42.902344 29.199219 C 42.921875 29.222656 42.9375 29.246094 42.953125 29.269531 C 43.160156 29.578125 43.660156 29.289062 43.453125 28.976562 C 43.4375 28.953125 43.421875 28.929688 43.40625 28.90625 Z M 46.472656 28.546875 C 46.464844 28.535156 46.460938 28.519531 46.453125 28.507812 C 46.449219 28.503906 46.449219 28.503906 46.449219 28.503906 C 46.40625 28.394531 46.316406 28.3125 46.183594 28.3125 C 46.035156 28.3125 45.878906 28.445312 45.894531 28.601562 C 45.898438 28.664062 45.914062 28.714844 45.9375 28.765625 C 45.9375 28.769531 45.933594 28.773438 45.933594 28.777344 C 45.761719 29.054688 46.167969 29.378906 46.386719 29.128906 C 46.40625 29.109375 46.417969 29.089844 46.433594 29.070312 C 46.433594 29.066406 46.4375 29.0625 46.4375 29.0625 C 46.503906 28.964844 46.535156 28.859375 46.535156 28.730469 C 46.539062 28.652344 46.511719 28.59375 46.472656 28.546875 Z M 48.726562 29.246094 C 48.726562 29.265625 48.726562 29.289062 48.726562 29.308594 C 48.726562 29.34375 48.726562 29.375 48.726562 29.40625 C 48.726562 29.78125 49.308594 29.78125 49.308594 29.40625 C 49.308594 29.375 49.308594 29.34375 49.308594 29.308594 C 49.308594 29.289062 49.308594 29.265625 49.308594 29.246094 C 49.308594 28.871094 48.726562 28.871094 48.726562 29.246094 Z M 50.210938 27.894531 C 50.207031 28.070312 50.132812 28.273438 49.933594 28.300781 C 49.777344 28.324219 49.621094 28.265625 49.574219 28.097656 C 49.550781 28.011719 49.578125 27.902344 49.636719 27.828125 C 49.703125 27.523438 50.210938 27.542969 50.210938 27.894531 Z M 49.777344 27.742188 C 49.765625 27.746094 49.753906 27.75 49.742188 27.753906 C 49.753906 27.75 49.765625 27.746094 49.777344 27.742188 Z M 49.917969 25.351562 C 50.292969 25.351562 50.292969 24.773438 49.917969 24.773438 C 49.546875 24.773438 49.546875 25.351562 49.917969 25.351562 Z M 50.949219 21.8125 C 50.761719 21.8125 50.671875 21.957031 50.671875 22.101562 C 50.648438 22.195312 50.671875 22.296875 50.746094 22.371094 C 50.855469 22.480469 51.042969 22.484375 51.15625 22.371094 C 51.246094 22.277344 51.316406 22.167969 51.277344 22.03125 C 51.238281 21.882812 51.097656 21.8125 50.949219 21.8125 Z M 52.785156 19.976562 C 52.785156 20 52.785156 20.019531 52.785156 20.042969 C 52.785156 20.414062 53.367188 20.414062 53.367188 20.042969 C 53.367188 20.019531 53.367188 20 53.367188 19.976562 C 53.367188 19.605469 52.785156 19.605469 52.785156 19.976562 Z M 55.910156 18.464844 C 55.890625 18.464844 55.867188 18.464844 55.847656 18.464844 C 55.472656 18.464844 55.472656 19.042969 55.847656 19.042969 C 55.867188 19.042969 55.890625 19.042969 55.910156 19.042969 C 56.285156 19.042969 56.285156 18.464844 55.910156 18.464844 Z M 84.816406 74.714844 C 84.636719 74.882812 84.4375 75.023438 84.214844 75.117188 C 83.246094 75.765625 81.722656 75.507812 80.8125 74.964844 C 79.742188 74.324219 79.039062 73.164062 78.535156 72.058594 C 77.914062 70.699219 77.757812 69.222656 77.574219 67.757812 C 77.371094 66.089844 77.179688 64.421875 76.808594 62.78125 C 76.46875 61.277344 75.953125 59.796875 75.117188 58.496094 C 74.398438 57.382812 73.429688 56.449219 72.441406 55.578125 C 72.011719 55.199219 71.570312 54.828125 71.132812 54.460938 C 71.800781 52.058594 73.097656 49.871094 74.457031 47.707031 C 76.277344 44.808594 77.957031 41.523438 78.015625 38.03125 C 77.800781 38.050781 77.582031 38.058594 77.363281 38.058594 C 77.289062 41.617188 75.464844 44.90625 73.597656 47.84375 C 72.34375 49.816406 71.238281 51.820312 70.59375 54.003906 C 70.144531 53.617188 69.703125 53.226562 69.273438 52.816406 C 68.636719 52.199219 68.085938 51.507812 67.542969 50.804688 C 67.105469 50.238281 66.785156 49.597656 66.382812 49.015625 C 66.226562 49.179688 66.066406 49.324219 65.855469 49.394531 C 66.242188 49.964844 66.5625 50.582031 66.980469 51.132812 C 67.496094 51.820312 68.039062 52.496094 68.644531 53.109375 C 69.199219 53.671875 69.796875 54.195312 70.402344 54.707031 C 70.203125 55.527344 70.070312 56.375 70.023438 57.253906 C 69.824219 60.8125 71.136719 64.191406 71.867188 67.613281 C 72.519531 70.664062 72.300781 73.9375 69.933594 76.15625 C 69.933594 76.15625 69.929688 76.15625 69.929688 76.152344 C 69.804688 76.332031 69.664062 76.488281 69.507812 76.636719 C 69.515625 76.644531 69.523438 76.65625 69.53125 76.667969 C 69.585938 76.722656 69.640625 76.777344 69.695312 76.828125 C 69.828125 76.964844 70.023438 76.945312 70.160156 76.828125 C 72.5 74.824219 73.085938 71.894531 72.746094 68.941406 C 72.324219 65.273438 70.773438 61.859375 70.664062 58.128906 C 70.636719 57.101562 70.746094 56.121094 70.953125 55.171875 C 71.355469 55.507812 71.757812 55.84375 72.152344 56.191406 C 73.351562 57.246094 74.414062 58.417969 75.140625 59.851562 C 76.023438 61.589844 76.367188 63.617188 76.640625 65.523438 C 77.070312 68.511719 77.097656 71.59375 78.980469 74.113281 C 79.671875 75.042969 80.609375 75.769531 81.746094 76.050781 C 82.757812 76.304688 84.300781 76.097656 85.03125 75.277344 C 85.238281 75.050781 85.042969 74.742188 84.816406 74.714844 Z M 84.816406 74.714844 " fill-opacity="1" fill-rule="nonzero"/></g><path fill="#3b647f" d="M 53.386719 36.710938 C 53.546875 36.066406 53.402344 35.386719 52.761719 34.710938 C 51.332031 33.207031 49.320312 35.226562 48.507812 36.394531 C 48.332031 36.648438 48.429688 36.972656 48.609375 37.1875 C 50.074219 38.898438 51.535156 40.613281 52.996094 42.324219 C 53.296875 42.679688 53.710938 42.554688 53.933594 42.265625 C 54 42.238281 54.066406 42.199219 54.132812 42.144531 C 55.472656 40.972656 56.835938 38.832031 55.324219 37.253906 C 54.808594 36.71875 54.101562 36.601562 53.386719 36.710938 Z M 51.835938 35.636719 C 52.695312 36.351562 51.664062 37.277344 50.902344 37.832031 C 50.894531 37.835938 50.890625 37.839844 50.886719 37.84375 C 50.558594 37.460938 50.230469 37.078125 49.90625 36.695312 C 50.398438 36.078125 51.277344 35.167969 51.835938 35.636719 Z M 53.515625 40.925781 C 52.917969 40.230469 52.324219 39.53125 51.730469 38.835938 C 51.734375 38.832031 51.734375 38.828125 51.738281 38.828125 C 51.757812 38.816406 51.773438 38.804688 51.789062 38.792969 C 52.414062 38.355469 53.5 37.722656 54.265625 38.089844 C 55.417969 38.640625 54.242188 40.179688 53.515625 40.925781 Z M 61.390625 36.175781 C 60.46875 36.957031 59.546875 37.742188 58.628906 38.527344 C 58.375 38.742188 57.949219 38.8125 57.703125 38.527344 C 56.195312 36.757812 54.6875 34.988281 53.179688 33.222656 C 52.960938 32.96875 52.890625 32.542969 53.179688 32.300781 C 54.097656 31.515625 55.019531 30.730469 55.941406 29.949219 C 56.578125 29.40625 57.507812 30.324219 56.863281 30.871094 C 56.097656 31.527344 55.328125 32.179688 54.558594 32.835938 C 55.015625 33.367188 55.472656 33.902344 55.925781 34.4375 C 56.40625 34.027344 56.886719 33.621094 57.363281 33.210938 C 58.003906 32.667969 58.933594 33.589844 58.289062 34.136719 C 57.785156 34.566406 57.277344 34.996094 56.773438 35.425781 C 57.261719 36 57.75 36.574219 58.238281 37.144531 C 58.980469 36.515625 59.722656 35.882812 60.464844 35.25 C 61.101562 34.707031 62.03125 35.628906 61.390625 36.175781 Z M 73.300781 17.664062 C 73.253906 19.914062 73.210938 22.167969 73.164062 24.417969 C 73.148438 25.257812 71.839844 25.261719 71.855469 24.417969 C 71.890625 22.789062 71.921875 21.160156 71.953125 19.53125 C 71.429688 20.171875 70.90625 20.808594 70.382812 21.449219 C 70.171875 21.703125 69.664062 21.707031 69.457031 21.449219 C 68.953125 20.820312 68.445312 20.191406 67.941406 19.5625 C 67.910156 21.144531 67.878906 22.726562 67.847656 24.3125 C 67.828125 25.152344 66.519531 25.152344 66.539062 24.3125 C 66.582031 22.125 66.625 19.941406 66.671875 17.753906 C 66.679688 17.234375 67.410156 16.824219 67.785156 17.292969 C 68.5 18.179688 69.210938 19.070312 69.925781 19.957031 C 70.679688 19.039062 71.429688 18.121094 72.183594 17.203125 C 72.554688 16.75 73.3125 17.128906 73.300781 17.664062 Z M 76.179688 17.722656 C 76.132812 19.972656 76.089844 22.222656 76.042969 24.476562 C 76.027344 25.316406 74.71875 25.316406 74.738281 24.476562 C 74.78125 22.222656 74.828125 19.972656 74.871094 17.722656 C 74.890625 16.882812 76.195312 16.878906 76.179688 17.722656 Z M 82.417969 17.847656 C 82.371094 20.097656 82.328125 22.347656 82.28125 24.601562 C 82.269531 25.21875 81.371094 25.53125 81.0625 24.929688 C 80.292969 23.417969 79.523438 21.90625 78.753906 20.394531 C 78.726562 21.773438 78.699219 23.152344 78.671875 24.527344 C 78.65625 25.371094 77.347656 25.371094 77.363281 24.527344 C 77.410156 22.277344 77.453125 20.027344 77.5 17.773438 C 77.511719 17.15625 78.410156 16.84375 78.71875 17.445312 C 79.488281 18.957031 80.257812 20.46875 81.027344 21.980469 C 81.054688 20.601562 81.082031 19.226562 81.109375 17.847656 C 81.128906 17.007812 82.433594 17.003906 82.417969 17.847656 Z M 87.382812 25.390625 C 86.207031 25.367188 85.03125 25.34375 83.855469 25.320312 C 83.507812 25.3125 83.195312 25.027344 83.203125 24.664062 C 83.25 22.410156 83.292969 20.152344 83.339844 17.898438 C 83.347656 17.546875 83.632812 17.238281 83.992188 17.246094 C 85.167969 17.269531 86.34375 17.292969 87.515625 17.316406 C 88.359375 17.332031 88.359375 18.636719 87.515625 18.621094 C 86.554688 18.601562 85.59375 18.582031 84.632812 18.5625 C 84.621094 19.230469 84.605469 19.898438 84.59375 20.566406 C 85.210938 20.578125 85.828125 20.589844 86.445312 20.605469 C 87.285156 20.621094 87.289062 21.925781 86.445312 21.910156 C 85.820312 21.898438 85.191406 21.886719 84.566406 21.871094 C 84.550781 22.589844 84.539062 23.308594 84.523438 24.027344 C 85.476562 24.046875 86.429688 24.0625 87.378906 24.082031 C 88.222656 24.101562 88.226562 25.40625 87.382812 25.390625 Z M 87.382812 25.390625 " fill-opacity="1" fill-rule="nonzero"/><g clip-path="url(#aa4484dfc9)"><path fill="#f26666" d="M 84.984375 49.460938 C 84.976562 49.558594 84.96875 49.65625 84.953125 49.746094 C 84.953125 49.746094 84.953125 49.746094 84.953125 49.75 C 84.945312 49.792969 84.9375 49.835938 84.929688 49.875 C 84.902344 50.003906 84.871094 50.113281 84.835938 50.207031 C 83.972656 52.574219 79.734375 53.03125 79.347656 53.066406 L 79.339844 53.082031 C 79.339844 53.082031 79.335938 53.078125 79.332031 53.070312 C 79.320312 53.070312 79.3125 53.070312 79.3125 53.070312 L 79.320312 53.058594 C 79.050781 52.773438 76.164062 49.644531 77.074219 47.296875 C 77.109375 47.199219 77.15625 47.097656 77.222656 46.984375 C 77.242188 46.945312 77.261719 46.910156 77.285156 46.875 C 77.285156 46.875 77.289062 46.871094 77.289062 46.871094 C 77.339844 46.792969 77.394531 46.714844 77.453125 46.636719 C 78.230469 45.625 79.191406 45.636719 79.742188 45.757812 C 79.890625 45.78125 80.039062 45.828125 80.183594 45.902344 C 80.183594 45.902344 80.1875 45.902344 80.1875 45.902344 C 80.6875 46.15625 81.113281 46.738281 81.269531 47.914062 C 82.160156 47.132812 82.867188 46.972656 83.410156 47.113281 C 83.410156 47.113281 83.414062 47.113281 83.414062 47.113281 C 83.570312 47.152344 83.710938 47.214844 83.84375 47.296875 C 84.335938 47.570312 85.066406 48.191406 84.984375 49.460938 Z M 58.753906 56.527344 C 58.691406 56.464844 58.609375 56.40625 58.515625 56.347656 C 58.484375 56.328125 58.453125 56.308594 58.417969 56.292969 C 58.417969 56.292969 58.417969 56.289062 58.417969 56.289062 C 58.347656 56.25 58.273438 56.214844 58.195312 56.179688 C 57.1875 55.726562 56.460938 56.132812 56.089844 56.449219 C 55.984375 56.53125 55.890625 56.625 55.8125 56.742188 C 55.8125 56.742188 55.808594 56.742188 55.808594 56.742188 C 55.535156 57.140625 55.449219 57.761719 55.8125 58.71875 C 54.8125 58.492188 54.210938 58.660156 53.851562 58.988281 C 53.746094 59.085938 53.664062 59.191406 53.597656 59.304688 C 53.335938 59.714844 53.035156 60.492188 53.621094 61.425781 C 53.664062 61.496094 53.710938 61.566406 53.761719 61.628906 C 53.761719 61.628906 53.761719 61.632812 53.761719 61.632812 C 53.785156 61.660156 53.808594 61.691406 53.832031 61.71875 C 53.90625 61.804688 53.972656 61.875 54.042969 61.929688 C 55.671875 63.378906 59.089844 61.988281 59.402344 61.855469 L 59.410156 61.863281 C 59.410156 61.863281 59.410156 61.859375 59.414062 61.851562 C 59.421875 61.847656 59.425781 61.84375 59.425781 61.84375 L 59.417969 61.839844 C 59.503906 61.511719 60.414062 57.941406 58.753906 56.527344 Z M 47.609375 51.515625 C 47.558594 51.484375 47.5 51.453125 47.429688 51.425781 C 47.40625 51.414062 47.382812 51.40625 47.355469 51.398438 C 47.300781 51.378906 47.246094 51.363281 47.191406 51.347656 C 46.457031 51.164062 46.011719 51.527344 45.800781 51.785156 C 45.742188 51.851562 45.6875 51.929688 45.648438 52.015625 C 45.507812 52.320312 45.527344 52.746094 45.886719 53.351562 C 45.183594 53.320312 44.796875 53.503906 44.59375 53.769531 C 44.535156 53.847656 44.492188 53.929688 44.464844 54.015625 C 44.335938 54.324219 44.226562 54.882812 44.734375 55.445312 C 44.773438 55.488281 44.8125 55.527344 44.851562 55.566406 C 44.851562 55.566406 44.855469 55.566406 44.855469 55.566406 C 44.875 55.585938 44.894531 55.601562 44.914062 55.617188 C 44.972656 55.667969 45.027344 55.707031 45.078125 55.734375 C 46.355469 56.519531 48.496094 55.167969 48.691406 55.039062 L 48.699219 55.042969 C 48.699219 55.042969 48.699219 55.042969 48.699219 55.035156 C 48.703125 55.03125 48.707031 55.03125 48.707031 55.03125 L 48.699219 55.027344 C 48.71875 54.796875 48.902344 52.273438 47.609375 51.515625 Z M 45.9375 22.800781 L 45.945312 22.8125 C 45.945312 22.8125 45.949219 22.804688 45.953125 22.796875 C 45.964844 22.796875 45.972656 22.796875 45.972656 22.796875 L 45.964844 22.785156 C 46.195312 22.4375 48.671875 18.636719 47.296875 16.332031 C 47.246094 16.238281 47.175781 16.136719 47.089844 16.03125 C 47.058594 15.996094 47.03125 15.960938 47 15.925781 C 46.929688 15.851562 46.859375 15.777344 46.78125 15.707031 C 45.789062 14.785156 44.78125 14.964844 44.222656 15.191406 C 44.070312 15.242188 43.921875 15.316406 43.785156 15.417969 C 43.78125 15.417969 43.78125 15.421875 43.78125 15.421875 C 43.300781 15.777344 42.957031 16.464844 43 17.726562 C 41.925781 17.066406 41.15625 17.023438 40.609375 17.261719 C 40.609375 17.261719 40.609375 17.265625 40.605469 17.265625 C 40.449219 17.335938 40.3125 17.425781 40.191406 17.535156 C 39.71875 17.90625 39.0625 18.691406 39.375 20.011719 C 39.398438 20.113281 39.425781 20.210938 39.457031 20.304688 C 39.457031 20.304688 39.457031 20.304688 39.457031 20.308594 C 39.472656 20.351562 39.488281 20.394531 39.507812 20.4375 C 39.554688 20.566406 39.609375 20.675781 39.664062 20.769531 C 40.992188 23.101562 45.523438 22.828125 45.9375 22.800781 Z M 78.039062 4.433594 C 78.046875 4.367188 78.046875 4.292969 78.039062 4.207031 C 78.039062 4.179688 78.035156 4.152344 78.035156 4.125 C 78.027344 4.0625 78.015625 4 78.003906 3.9375 C 77.839844 3.121094 77.273438 2.855469 76.914062 2.765625 C 76.820312 2.738281 76.71875 2.722656 76.613281 2.722656 C 76.246094 2.730469 75.828125 2.949219 75.398438 3.59375 C 75.097656 2.878906 74.730469 2.585938 74.371094 2.507812 C 74.269531 2.488281 74.167969 2.484375 74.066406 2.492188 C 73.699219 2.511719 73.089844 2.667969 72.773438 3.4375 C 72.75 3.496094 72.726562 3.554688 72.710938 3.613281 C 72.710938 3.613281 72.710938 3.613281 72.710938 3.617188 C 72.699219 3.640625 72.695312 3.667969 72.6875 3.695312 C 72.664062 3.777344 72.652344 3.851562 72.648438 3.917969 C 72.472656 5.550781 74.828125 7.035156 75.046875 7.167969 L 75.042969 7.179688 C 75.042969 7.179688 75.046875 7.175781 75.054688 7.175781 C 75.058594 7.175781 75.0625 7.179688 75.0625 7.179688 L 75.0625 7.171875 C 75.300781 7.082031 77.898438 6.074219 78.039062 4.433594 Z M 78.039062 4.433594 " fill-opacity="1" fill-rule="nonzero"/></g><path fill="#bcf6f4" d="M 67.761719 10.390625 C 66.941406 10.460938 65.84375 10.933594 65.105469 11.476562 C 62.964844 13.050781 62.386719 15.726562 62.449219 18.25 C 62.460938 18.671875 61.804688 18.671875 61.796875 18.25 C 61.730469 15.589844 62.367188 12.757812 64.582031 11.058594 C 65.480469 10.371094 66.617188 9.835938 67.761719 9.738281 C 68.179688 9.703125 68.175781 10.355469 67.761719 10.390625 Z M 42.679688 31.5 C 41.683594 32.0625 40.875 33.042969 40.34375 34.039062 C 39.039062 36.5 39.675781 39.351562 40.835938 41.730469 C 41.019531 42.109375 41.582031 41.777344 41.398438 41.402344 C 40.285156 39.113281 39.738281 36.457031 41.039062 34.132812 C 41.492188 33.324219 42.191406 32.523438 43.011719 32.066406 C 43.378906 31.859375 43.046875 31.292969 42.679688 31.5 Z M 42.679688 31.5 " fill-opacity="1" fill-rule="nonzero"/><g fill="#000000" fill-opacity="1"><g transform="translate(40.298612, 91.578539)"><g><path d="M 2.78125 1.5 C 5.449219 1.5 6.644531 -0.472656 7.285156 -2.917969 C 7.367188 -3.226562 7.394531 -3.449219 7.394531 -3.699219 C 7.507812 -4.726562 7.394531 -5.753906 7.035156 -6.785156 L 6.699219 -7.5625 C 6.757812 -7.5625 6.867188 -7.589844 7.007812 -7.617188 L 9.285156 -8.203125 L 9.453125 -8.285156 C 9.480469 -8.3125 9.535156 -8.453125 9.453125 -8.480469 C 9.371094 -8.507812 9.3125 -8.535156 9.285156 -8.535156 C 9.230469 -8.5625 9.148438 -8.5625 9.035156 -8.5625 C 8.839844 -8.5625 8.648438 -8.507812 8.453125 -8.480469 C 8.144531 -8.398438 7.8125 -8.3125 7.480469 -8.230469 C 7.144531 -8.144531 6.8125 -8.035156 6.476562 -7.925781 L 6.394531 -8.007812 C 5.949219 -8.648438 5.367188 -9.148438 4.585938 -9.34375 L 4.476562 -9.371094 C 4.28125 -9.453125 4.226562 -9.5625 4.335938 -9.703125 L 4.558594 -9.953125 C 5.921875 -11.511719 7.144531 -13.789062 7.589844 -15.820312 C 7.644531 -16.152344 7.671875 -16.460938 7.644531 -16.738281 C 7.617188 -16.960938 7.507812 -17.15625 7.339844 -17.292969 C 7.0625 -17.488281 6.8125 -17.570312 6.5625 -17.570312 C 6.339844 -17.570312 6.117188 -17.488281 5.867188 -17.347656 C 5.78125 -17.320312 5.644531 -17.210938 5.503906 -17.070312 C 5.28125 -16.820312 5.089844 -16.570312 4.894531 -16.320312 C 3.78125 -14.625 3.167969 -13.066406 2.503906 -11.175781 L 2.335938 -10.816406 C 2.335938 -10.761719 2.308594 -10.730469 2.253906 -10.730469 C 2.195312 -10.730469 2.167969 -10.761719 2.167969 -10.816406 C 2.167969 -10.898438 2.167969 -10.953125 2.167969 -11.011719 C 2.140625 -11.066406 2.140625 -11.121094 2.140625 -11.203125 C 2.167969 -11.789062 2.140625 -12.34375 2.113281 -12.929688 C 2.085938 -13.484375 2.058594 -14.039062 2.03125 -14.597656 C 2.03125 -14.734375 2.03125 -14.847656 2 -14.929688 C 1.972656 -15.234375 1.808594 -15.429688 1.472656 -15.484375 C 1.054688 -15.484375 1.054688 -14.957031 1.054688 -14.652344 C 1.027344 -14.457031 1.027344 -14.289062 1.027344 -14.125 C 1.027344 -13.957031 1.027344 -13.789062 1.027344 -13.597656 C 1 -12.621094 0.972656 -10.730469 0.945312 -9.507812 C 0.917969 -7.953125 0.890625 -6.367188 0.890625 -5.03125 C 0.613281 -4.78125 0.363281 -4.476562 0.167969 -4.171875 C -0.0820312 -3.863281 -0.222656 -3.53125 -0.304688 -3.167969 C -0.582031 -1.835938 -0.304688 -0.640625 0.5 0.390625 C 1.054688 1.140625 1.808594 1.5 2.78125 1.5 Z M 2.945312 1.113281 C 2.195312 1.113281 1.585938 0.640625 1.140625 0.109375 C 0.5 -0.75 0.222656 -1.695312 0.332031 -2.726562 C 0.445312 -3.253906 0.613281 -3.671875 0.863281 -4.03125 L 0.863281 -3.390625 C 0.890625 -3.308594 0.890625 -3.226562 0.890625 -3.167969 C 0.890625 -3.085938 0.890625 -3.003906 0.890625 -2.917969 C 0.917969 -2.78125 1 -2.726562 1.113281 -2.695312 C 1.140625 -2.695312 1.195312 -2.695312 1.25 -2.695312 C 1.277344 -2.667969 1.335938 -2.667969 1.363281 -2.667969 C 1.722656 -2.667969 1.945312 -2.835938 2 -3.167969 L 2.140625 -4.558594 L 2.140625 -5.449219 C 3.363281 -6.449219 4.867188 -7.035156 5.753906 -7.339844 C 5.921875 -6.894531 6.035156 -6.449219 6.089844 -5.976562 C 6.117188 -5.726562 6.144531 -5.476562 6.171875 -5.253906 C 6.199219 -5.003906 6.199219 -4.808594 6.226562 -4.671875 C 6.253906 -4.03125 6.171875 -3.585938 6.0625 -3.140625 C 5.839844 -2.03125 5.449219 -0.972656 4.808594 0 C 4.363281 0.667969 3.726562 1 2.945312 1.113281 Z M 2.140625 -6.003906 C 2.140625 -6.285156 2.140625 -6.535156 2.167969 -6.785156 C 2.167969 -7.035156 2.167969 -7.199219 2.167969 -7.3125 C 2.195312 -7.839844 2.335938 -8.3125 2.472656 -8.839844 C 2.503906 -8.953125 2.585938 -8.980469 2.695312 -8.953125 C 2.78125 -8.925781 2.890625 -8.871094 3.003906 -8.871094 C 3.058594 -8.839844 3.140625 -8.839844 3.226562 -8.839844 C 3.363281 -8.839844 3.449219 -8.871094 3.503906 -8.898438 C 3.585938 -8.925781 3.699219 -8.953125 3.808594 -8.980469 C 3.890625 -8.980469 4.003906 -8.980469 4.085938 -9.007812 C 4.835938 -9.007812 5.199219 -8.425781 5.503906 -7.839844 C 5.53125 -7.757812 5.589844 -7.703125 5.617188 -7.617188 C 4.394531 -7.199219 3.167969 -6.644531 2.140625 -6.003906 Z M 2.695312 -9.371094 C 2.613281 -9.371094 2.613281 -9.425781 2.640625 -9.507812 C 2.640625 -9.535156 2.640625 -9.59375 2.667969 -9.621094 C 2.667969 -9.648438 2.667969 -9.675781 2.667969 -9.703125 C 2.695312 -9.785156 2.726562 -9.871094 2.753906 -9.953125 C 2.753906 -10.007812 2.78125 -10.066406 2.808594 -10.148438 C 3.390625 -11.871094 4.78125 -15.792969 6.285156 -16.847656 C 6.3125 -16.875 6.367188 -16.902344 6.394531 -16.933594 C 6.421875 -16.933594 6.476562 -16.960938 6.507812 -16.988281 C 6.589844 -17.015625 6.671875 -16.988281 6.671875 -16.902344 L 6.671875 -16.765625 C 6.671875 -15.097656 4.394531 -11.371094 3.363281 -10.035156 C 3.28125 -9.925781 3.199219 -9.816406 3.113281 -9.730469 C 3.03125 -9.621094 2.917969 -9.507812 2.835938 -9.398438 C 2.808594 -9.371094 2.78125 -9.371094 2.695312 -9.371094 Z M 2.695312 -9.371094 "/></g></g></g><g fill="#000000" fill-opacity="1"><g transform="translate(48.388925, 91.578539)"><g><path d="M 0.917969 -2.253906 C 1.613281 -2.253906 2.113281 -2.753906 2.53125 -3.226562 C 2.976562 -3.78125 3.390625 -4.363281 3.808594 -4.949219 C 4.113281 -5.421875 4.449219 -5.921875 4.753906 -6.394531 C 5.058594 -6.867188 5.367188 -7.339844 5.671875 -7.8125 C 5.699219 -7.894531 5.78125 -8.007812 5.867188 -8.144531 C 5.949219 -8.285156 6.003906 -8.425781 6.003906 -8.507812 C 6.003906 -8.535156 5.976562 -8.589844 5.949219 -8.617188 C 5.894531 -8.703125 5.8125 -8.730469 5.699219 -8.730469 C 5.617188 -8.730469 5.53125 -8.703125 5.476562 -8.648438 C 5.449219 -8.617188 5.421875 -8.5625 5.421875 -8.535156 C 5.394531 -8.507812 5.367188 -8.453125 5.339844 -8.425781 L 3.671875 -5.921875 C 3.335938 -5.367188 1.640625 -2.976562 1.027344 -2.976562 C 0.917969 -2.976562 0.835938 -3.085938 0.804688 -3.28125 L 0.804688 -3.476562 C 0.777344 -4.144531 0.835938 -4.835938 0.945312 -5.503906 L 1.113281 -6.199219 C 1.167969 -6.394531 1.277344 -6.507812 1.445312 -6.535156 C 1.585938 -6.5625 1.695312 -6.617188 1.808594 -6.644531 C 1.917969 -6.671875 2.03125 -6.699219 2.140625 -6.757812 C 2.890625 -7.199219 3.671875 -7.867188 3.921875 -8.757812 C 4.113281 -9.34375 3.949219 -9.730469 3.390625 -9.980469 C 3.140625 -10.121094 2.945312 -10.121094 2.640625 -10.121094 C 2.417969 -10.121094 2.195312 -10.035156 1.945312 -9.898438 C 1.722656 -9.730469 1.558594 -9.5625 1.417969 -9.425781 C 1.085938 -9.089844 0.804688 -8.675781 0.582031 -8.257812 C -0.167969 -6.726562 -0.5 -5.144531 -0.390625 -3.503906 L -0.304688 -3.058594 C -0.167969 -2.503906 0.390625 -2.253906 0.917969 -2.253906 Z M 1.527344 -7.117188 C 1.445312 -7.144531 1.445312 -7.199219 1.472656 -7.285156 C 1.640625 -7.839844 2.472656 -9.535156 3.085938 -9.535156 C 3.199219 -9.535156 3.28125 -9.480469 3.308594 -9.34375 L 3.308594 -9.285156 C 3.308594 -8.507812 2.363281 -7.394531 1.640625 -7.117188 C 1.613281 -7.089844 1.558594 -7.089844 1.527344 -7.117188 Z M 1.527344 -7.117188 "/></g></g></g><g fill="#000000" fill-opacity="1"><g transform="translate(53.004017, 91.578539)"><g/></g></g><g fill="#000000" fill-opacity="1"><g transform="translate(60.232471, 91.578539)"><g><path d="M 8.871094 -0.140625 C 9.675781 -0.140625 10.34375 -1.277344 10.675781 -1.972656 C 10.761719 -2.222656 10.871094 -2.445312 10.980469 -2.667969 C 11.09375 -2.890625 11.203125 -3.113281 11.289062 -3.335938 L 11.34375 -3.476562 C 11.371094 -3.585938 11.261719 -3.671875 11.148438 -3.671875 C 11.011719 -3.671875 10.925781 -3.640625 10.898438 -3.585938 C 10.871094 -3.53125 10.816406 -3.476562 10.789062 -3.417969 C 10.730469 -3.335938 10.675781 -3.28125 10.648438 -3.199219 C 10.566406 -3.058594 10.480469 -2.890625 10.398438 -2.726562 C 10.316406 -2.558594 10.230469 -2.390625 10.148438 -2.222656 C 9.925781 -1.75 9.59375 -1.363281 9.230469 -0.945312 C 9.148438 -0.835938 9.007812 -0.75 8.871094 -0.667969 C 8.839844 -0.640625 8.785156 -0.640625 8.757812 -0.640625 C 8.617188 -0.640625 8.535156 -0.695312 8.507812 -0.804688 C 8.3125 -1.167969 8.285156 -1.472656 8.257812 -1.890625 C 8.257812 -4.699219 8.925781 -7.480469 9.785156 -10.148438 C 10.148438 -11.289062 10.480469 -12.398438 10.816406 -13.539062 C 11.039062 -14.320312 11.261719 -15.097656 11.371094 -15.957031 C 11.371094 -16.042969 11.371094 -16.152344 11.398438 -16.265625 C 11.398438 -16.347656 11.398438 -16.460938 11.398438 -16.542969 C 11.371094 -16.875 11.039062 -17.460938 10.621094 -17.460938 C 10.507812 -17.460938 10.398438 -17.40625 10.316406 -17.320312 C 9.675781 -16.792969 9.285156 -16.015625 8.871094 -15.320312 C 8.089844 -14.011719 7.507812 -12.621094 6.921875 -11.261719 C 6.589844 -10.507812 6.285156 -9.785156 5.976562 -9.035156 C 5.671875 -8.398438 5.421875 -7.839844 5.117188 -7.257812 L 4.921875 -7.007812 C 4.921875 -7.007812 4.921875 -7.007812 4.894531 -6.980469 L 4.867188 -6.980469 C 4.835938 -6.980469 4.835938 -6.980469 4.808594 -7.007812 C 4.808594 -7.035156 4.808594 -7.089844 4.808594 -7.117188 C 4.78125 -7.144531 4.78125 -7.171875 4.808594 -7.199219 C 4.949219 -7.867188 5.089844 -8.535156 5.199219 -9.203125 L 5.617188 -11.453125 C 5.671875 -11.761719 5.644531 -12.039062 5.5625 -12.289062 C 5.449219 -12.59375 5.253906 -12.761719 4.949219 -12.84375 C 4.921875 -12.871094 4.835938 -12.871094 4.753906 -12.871094 C 4.558594 -12.871094 4.421875 -12.816406 4.308594 -12.679688 C 4.226562 -12.59375 4.144531 -12.484375 4.085938 -12.398438 C 4.003906 -12.289062 3.949219 -12.179688 3.863281 -12.09375 C 2.753906 -10.316406 1.722656 -7.644531 1.195312 -5.644531 L 1.113281 -5.421875 C 1.085938 -5.394531 1.054688 -5.394531 1 -5.394531 L 0.972656 -5.421875 C 0.945312 -5.589844 0.945312 -5.753906 1 -5.921875 C 1.027344 -6.089844 1.054688 -6.253906 1.085938 -6.394531 C 1.195312 -7.367188 1.335938 -8.257812 1.585938 -9.175781 C 2.03125 -11.039062 2.417969 -12.84375 2.78125 -14.734375 L 2.863281 -15.042969 C 2.890625 -15.347656 2.613281 -15.597656 2.308594 -15.570312 C 2.195312 -15.570312 2.113281 -15.515625 2.085938 -15.402344 C 1.863281 -14.984375 1.75 -14.652344 1.640625 -14.234375 C 1.445312 -13.539062 1.277344 -12.84375 1.113281 -12.179688 C 0.945312 -11.484375 0.777344 -10.816406 0.582031 -10.121094 C 0.0273438 -7.894531 -0.417969 -5.089844 -0.417969 -2.753906 C -0.417969 -2.558594 -0.390625 -2.445312 -0.363281 -2.363281 C -0.167969 -1.808594 0.109375 -1.78125 0.582031 -1.78125 C 0.667969 -1.78125 0.75 -1.835938 0.777344 -1.917969 C 0.863281 -2.085938 0.917969 -2.253906 0.945312 -2.417969 C 1.113281 -3.03125 1.277344 -3.640625 1.472656 -4.28125 C 1.640625 -4.894531 1.808594 -5.503906 1.972656 -6.144531 C 2.335938 -7.480469 3.585938 -10.871094 4.53125 -11.816406 L 4.585938 -11.816406 C 4.617188 -11.816406 4.617188 -11.789062 4.617188 -11.761719 C 4.644531 -11.675781 4.644531 -11.59375 4.617188 -11.511719 C 4.585938 -11.316406 4.53125 -11.121094 4.476562 -10.953125 C 4.421875 -10.761719 4.363281 -10.566406 4.335938 -10.371094 C 4.085938 -9.398438 3.890625 -8.480469 3.699219 -7.507812 C 3.585938 -7.007812 3.558594 -6.507812 3.613281 -6.003906 C 3.671875 -5.589844 3.921875 -5.308594 4.335938 -5.171875 C 4.363281 -5.171875 4.394531 -5.171875 4.421875 -5.171875 C 4.449219 -5.144531 4.449219 -5.144531 4.476562 -5.144531 C 4.671875 -5.144531 4.808594 -5.226562 4.921875 -5.394531 L 5.144531 -5.78125 C 5.671875 -6.867188 6.144531 -7.867188 6.589844 -8.953125 C 7.171875 -10.371094 7.785156 -11.761719 8.425781 -13.125 C 8.953125 -14.207031 9.453125 -15.265625 10.203125 -16.179688 C 10.230469 -16.210938 10.289062 -16.265625 10.398438 -16.347656 L 10.453125 -16.347656 C 10.480469 -16.320312 10.480469 -16.320312 10.480469 -16.292969 C 10.507812 -16.042969 10.425781 -15.820312 10.34375 -15.597656 C 10.035156 -14.625 9.757812 -13.707031 9.425781 -12.789062 C 8.480469 -10.175781 7.144531 -5.867188 7.144531 -3.085938 L 7.144531 -2.363281 C 7.144531 -1.835938 7.285156 -1.390625 7.507812 -0.917969 C 7.8125 -0.277344 8.3125 -0.140625 8.871094 -0.140625 Z M 8.871094 -0.140625 "/></g></g></g><g fill="#000000" fill-opacity="1"><g transform="translate(71.130765, 91.578539)"><g><path d="M 0.722656 -3.140625 C 1.085938 -3.140625 1.417969 -3.390625 1.667969 -3.613281 C 2.195312 -4.171875 2.667969 -4.753906 3.085938 -5.394531 C 3.335938 -5.8125 3.585938 -6.226562 3.835938 -6.644531 C 4.085938 -7.035156 4.335938 -7.421875 4.585938 -7.839844 L 4.808594 -8.257812 C 4.894531 -8.367188 4.753906 -8.535156 4.617188 -8.5625 C 4.585938 -8.589844 4.53125 -8.589844 4.449219 -8.589844 C 4.335938 -8.589844 4.226562 -8.535156 4.113281 -8.398438 C 4.03125 -8.285156 3.976562 -8.175781 3.921875 -8.089844 C 3.863281 -7.980469 3.808594 -7.867188 3.726562 -7.785156 L 2.695312 -6.035156 L 2.058594 -5.117188 C 1.835938 -4.808594 1.558594 -4.558594 1.25 -4.253906 C 1.222656 -4.226562 1.195312 -4.226562 1.167969 -4.199219 C 1.140625 -4.171875 1.113281 -4.171875 1.085938 -4.144531 C 1.054688 -4.113281 1.027344 -4.113281 0.972656 -4.113281 C 0.890625 -4.144531 0.863281 -4.171875 0.863281 -4.253906 C 0.890625 -4.503906 0.917969 -4.726562 0.945312 -4.949219 C 0.972656 -5.171875 1 -5.394531 1.027344 -5.617188 C 1.167969 -6.367188 1.335938 -7.035156 1.527344 -7.785156 L 1.695312 -8.480469 C 1.722656 -8.648438 1.695312 -8.757812 1.558594 -8.8125 C 1.417969 -8.898438 1.335938 -8.925781 1.335938 -8.925781 L 1.25 -8.925781 C 1.027344 -8.925781 0.917969 -8.757812 0.835938 -8.5625 C 0.140625 -7.230469 -0.195312 -5.839844 -0.195312 -4.421875 C -0.195312 -4.308594 -0.195312 -4.199219 -0.195312 -4.085938 C -0.195312 -3.976562 -0.167969 -3.863281 -0.140625 -3.78125 C -0.0546875 -3.363281 0.304688 -3.140625 0.722656 -3.140625 Z M 1.972656 -10.425781 C 2.058594 -10.425781 2.140625 -10.425781 2.167969 -10.425781 C 2.195312 -10.425781 2.253906 -10.453125 2.335938 -10.480469 C 2.53125 -10.621094 2.613281 -10.980469 2.472656 -11.175781 C 2.390625 -11.261719 2.308594 -11.371094 2.222656 -11.511719 C 2.113281 -11.648438 1.972656 -11.707031 1.835938 -11.707031 C 1.695312 -11.707031 1.585938 -11.648438 1.527344 -11.539062 C 1.445312 -11.371094 1.417969 -11.175781 1.417969 -10.953125 C 1.417969 -10.761719 1.5 -10.59375 1.695312 -10.507812 C 1.75 -10.480469 1.808594 -10.453125 1.863281 -10.453125 C 1.890625 -10.453125 1.945312 -10.453125 1.972656 -10.425781 Z M 1.972656 -10.425781 "/></g></g></g><g fill="#000000" fill-opacity="1"><g transform="translate(74.578188, 91.578539)"><g><path d="M 3.890625 -1.5 C 4.085938 -1.5 4.28125 -1.558594 4.449219 -1.640625 C 4.644531 -1.78125 4.835938 -1.945312 4.976562 -2.140625 L 5.476562 -2.890625 C 5.839844 -3.53125 6.226562 -4.171875 6.589844 -4.808594 C 6.949219 -5.421875 7.3125 -6.0625 7.671875 -6.699219 C 7.8125 -6.949219 7.953125 -7.199219 8.0625 -7.453125 C 8.175781 -7.703125 8.285156 -7.980469 8.425781 -8.230469 C 8.507812 -8.367188 8.425781 -8.480469 8.230469 -8.507812 C 8.203125 -8.535156 8.144531 -8.535156 8.089844 -8.535156 C 7.980469 -8.535156 7.894531 -8.480469 7.839844 -8.398438 L 7.5625 -7.867188 C 6.699219 -6.199219 5.753906 -4.617188 4.671875 -3.058594 C 4.558594 -2.917969 4.449219 -2.78125 4.308594 -2.667969 C 4.308594 -2.640625 4.28125 -2.640625 4.199219 -2.640625 C 4.199219 -2.667969 4.199219 -2.667969 4.171875 -2.695312 C 4.085938 -2.917969 4.171875 -3.140625 4.199219 -3.363281 C 4.421875 -4.476562 4.671875 -5.5625 4.976562 -6.671875 L 5.644531 -9.257812 C 5.699219 -9.535156 5.726562 -9.816406 5.726562 -10.09375 C 5.699219 -10.34375 5.589844 -10.507812 5.421875 -10.59375 L 5.253906 -10.675781 C 5.199219 -10.703125 5.117188 -10.730469 5.003906 -10.730469 C 4.644531 -10.730469 4.085938 -9.898438 3.921875 -9.5625 L 2.585938 -7.089844 C 2.222656 -6.449219 1.808594 -5.839844 1.390625 -5.199219 C 1.363281 -5.171875 1.335938 -5.144531 1.25 -5.117188 C 1.167969 -5.089844 1.140625 -5.144531 1.140625 -5.308594 C 1.140625 -5.449219 1.140625 -5.5625 1.167969 -5.644531 C 1.25 -6.003906 1.308594 -6.394531 1.390625 -6.785156 C 1.445312 -7.171875 1.527344 -7.5625 1.613281 -7.953125 C 1.640625 -8.144531 1.695312 -8.339844 1.75 -8.535156 C 1.78125 -8.703125 1.835938 -8.898438 1.863281 -9.089844 C 1.890625 -9.257812 1.808594 -9.371094 1.667969 -9.453125 L 1.5 -9.535156 L 1.445312 -9.535156 C 1.25 -9.535156 1.140625 -9.398438 1.054688 -9.203125 L 0.804688 -8.535156 C 0.390625 -7.285156 0.167969 -6.003906 0.0546875 -4.699219 C 0 -4.28125 0.167969 -4.003906 0.527344 -3.835938 L 0.640625 -3.808594 C 0.777344 -3.753906 0.917969 -3.726562 1 -3.726562 C 1.222656 -3.726562 1.390625 -3.808594 1.527344 -4.003906 C 1.667969 -4.144531 1.78125 -4.28125 1.863281 -4.476562 C 2.308594 -5.226562 2.753906 -6.003906 3.167969 -6.757812 L 4.308594 -8.8125 C 4.335938 -8.898438 4.394531 -8.953125 4.421875 -8.980469 L 4.53125 -8.980469 C 4.53125 -8.980469 4.53125 -8.953125 4.558594 -8.925781 L 4.394531 -8.3125 C 4.03125 -7.171875 3.671875 -6.0625 3.363281 -4.867188 C 3.113281 -3.890625 3.003906 -3.140625 3.003906 -2.167969 C 3.03125 -1.972656 3.113281 -1.863281 3.253906 -1.78125 C 3.449219 -1.613281 3.640625 -1.527344 3.890625 -1.5 Z M 3.890625 -1.5 "/></g></g></g><g fill="#000000" fill-opacity="1"><g transform="translate(81.639832, 91.578539)"><g><path d="M 0.917969 -2.253906 C 1.613281 -2.253906 2.113281 -2.753906 2.53125 -3.226562 C 2.976562 -3.78125 3.390625 -4.363281 3.808594 -4.949219 C 4.113281 -5.421875 4.449219 -5.921875 4.753906 -6.394531 C 5.058594 -6.867188 5.367188 -7.339844 5.671875 -7.8125 C 5.699219 -7.894531 5.78125 -8.007812 5.867188 -8.144531 C 5.949219 -8.285156 6.003906 -8.425781 6.003906 -8.507812 C 6.003906 -8.535156 5.976562 -8.589844 5.949219 -8.617188 C 5.894531 -8.703125 5.8125 -8.730469 5.699219 -8.730469 C 5.617188 -8.730469 5.53125 -8.703125 5.476562 -8.648438 C 5.449219 -8.617188 5.421875 -8.5625 5.421875 -8.535156 C 5.394531 -8.507812 5.367188 -8.453125 5.339844 -8.425781 L 3.671875 -5.921875 C 3.335938 -5.367188 1.640625 -2.976562 1.027344 -2.976562 C 0.917969 -2.976562 0.835938 -3.085938 0.804688 -3.28125 L 0.804688 -3.476562 C 0.777344 -4.144531 0.835938 -4.835938 0.945312 -5.503906 L 1.113281 -6.199219 C 1.167969 -6.394531 1.277344 -6.507812 1.445312 -6.535156 C 1.585938 -6.5625 1.695312 -6.617188 1.808594 -6.644531 C 1.917969 -6.671875 2.03125 -6.699219 2.140625 -6.757812 C 2.890625 -7.199219 3.671875 -7.867188 3.921875 -8.757812 C 4.113281 -9.34375 3.949219 -9.730469 3.390625 -9.980469 C 3.140625 -10.121094 2.945312 -10.121094 2.640625 -10.121094 C 2.417969 -10.121094 2.195312 -10.035156 1.945312 -9.898438 C 1.722656 -9.730469 1.558594 -9.5625 1.417969 -9.425781 C 1.085938 -9.089844 0.804688 -8.675781 0.582031 -8.257812 C -0.167969 -6.726562 -0.5 -5.144531 -0.390625 -3.503906 L -0.304688 -3.058594 C -0.167969 -2.503906 0.390625 -2.253906 0.917969 -2.253906 Z M 1.527344 -7.117188 C 1.445312 -7.144531 1.445312 -7.199219 1.472656 -7.285156 C 1.640625 -7.839844 2.472656 -9.535156 3.085938 -9.535156 C 3.199219 -9.535156 3.28125 -9.480469 3.308594 -9.34375 L 3.308594 -9.285156 C 3.308594 -8.507812 2.363281 -7.394531 1.640625 -7.117188 C 1.613281 -7.089844 1.558594 -7.089844 1.527344 -7.117188 Z M 1.527344 -7.117188 "/></g></g></g></svg>