<svg xmlns="http://www.w3.org/2000/svg" xmlns:xlink="http://www.w3.org/1999/xlink" width="170" zoomAndPan="magnify" viewBox="0 0 127.5 105.749997" height="141" preserveAspectRatio="xMidYMid meet" version="1.0"><defs><g/><clipPath id="15760de9f1"><path d="M 26.722656 14 L 71 14 L 71 57 L 26.722656 57 Z M 26.722656 14 " clip-rule="nonzero"/></clipPath><clipPath id="a7b78c9188"><path d="M 51 60 L 55 60 L 55 72.804688 L 51 72.804688 Z M 51 60 " clip-rule="nonzero"/></clipPath><clipPath id="d9cbd82c36"><path d="M 71 0.335938 L 75 0.335938 L 75 12 L 71 12 Z M 71 0.335938 " clip-rule="nonzero"/></clipPath></defs><g clip-path="url(#15760de9f1)"><path fill="#c4203f" d="M 40.421875 56.382812 C 46.1875 55.507812 54.234375 53.207031 58.425781 50.539062 C 62.511719 47.933594 68.566406 33.902344 70.453125 29.429688 C 72.339844 24.957031 68.238281 24.910156 64.839844 21.445312 C 62.765625 19.332031 61.089844 23.132812 58.152344 23.449219 C 55.210938 23.761719 51.941406 26.292969 50.355469 28.804688 C 49.929688 25.804688 48.914062 22.875 47.054688 20.566406 C 45.199219 18.261719 42.449219 16.632812 39.507812 16.554688 C 37.214844 16.492188 33.582031 12.984375 31.695312 14.375 C 27.867188 17.203125 27.082031 26.460938 26.902344 31.269531 C 26.726562 36.078125 28.320312 40.765625 30.738281 44.808594 C 33.15625 48.851562 37.109375 53.089844 40.421875 56.382812 Z M 40.421875 56.382812 " fill-opacity="1" fill-rule="nonzero"/></g><path fill="#e84347" d="M 42.117188 47.800781 C 47.886719 46.921875 55.929688 44.621094 60.121094 41.953125 C 64.207031 39.347656 67.910156 35.839844 69.796875 31.367188 C 71.683594 26.894531 71.3125 21.21875 67.917969 17.757812 C 66.855469 16.695312 65.621094 15.90625 64.207031 15.402344 C 62.792969 14.894531 61.339844 14.714844 59.847656 14.863281 C 56.90625 15.175781 53.636719 17.707031 52.054688 20.21875 C 51.625 17.21875 50.609375 14.289062 48.753906 11.980469 C 46.894531 9.675781 44.148438 8.054688 41.207031 7.976562 C 38.914062 7.914062 36.625 8.78125 34.738281 10.175781 C 30.910156 13 28.777344 17.886719 28.59375 22.683594 C 28.410156 27.480469 30.011719 32.179688 32.441406 36.222656 C 34.867188 40.269531 38.804688 44.503906 42.117188 47.800781 Z M 42.117188 47.800781 " fill-opacity="1" fill-rule="nonzero"/><path fill="#ed71a8" d="M 83.996094 68.078125 C 87.945312 63.777344 92.789062 56.9375 94.390625 52.226562 C 95.953125 47.628906 96.1875 35.460938 94.867188 30.785156 C 93.550781 26.113281 90.1875 29.035156 85.375 28.460938 C 83.882812 28.296875 82.425781 28.460938 81.007812 28.953125 C 79.589844 29.445312 78.34375 30.214844 77.273438 31.269531 C 75.175781 33.355469 74.203125 37.382812 74.527344 40.328125 C 72.335938 38.261719 69.703125 36.609375 66.816406 35.976562 C 63.925781 35.339844 60.773438 35.800781 58.429688 37.582031 C 56.601562 38.972656 54.089844 34.917969 53.488281 37.183594 C 52.265625 41.792969 54.917969 53.109375 57.761719 56.96875 C 60.609375 60.828125 64.800781 63.480469 69.203125 65.113281 C 73.609375 66.746094 79.355469 67.585938 83.996094 68.078125 Z M 83.996094 68.078125 " fill-opacity="1" fill-rule="nonzero"/><path fill="#f29ebd" d="M 83.117188 59.660156 C 87.070312 55.359375 91.914062 48.519531 93.515625 43.808594 C 95.078125 39.210938 95.777344 34.152344 94.460938 29.480469 C 93.140625 24.804688 89.308594 20.617188 84.5 20.054688 C 83.007812 19.890625 81.550781 20.050781 80.132812 20.542969 C 78.714844 21.03125 77.46875 21.804688 76.394531 22.855469 C 74.300781 24.945312 73.328125 28.972656 73.652344 31.917969 C 71.457031 29.847656 68.828125 28.199219 65.941406 27.5625 C 63.050781 26.925781 59.894531 27.390625 57.550781 29.171875 C 55.726562 30.5625 54.484375 32.675781 53.878906 34.945312 C 52.65625 39.550781 54.039062 44.699219 56.890625 48.558594 C 59.746094 52.417969 63.921875 55.078125 68.332031 56.710938 C 72.746094 58.347656 78.476562 59.167969 83.117188 59.660156 Z M 83.117188 59.660156 " fill-opacity="1" fill-rule="nonzero"/><g clip-path="url(#a7b78c9188)"><path fill="#154a87" d="M 53.179688 61.082031 C 52.160156 64.710938 51.5 68.402344 51.199219 72.160156 C 51.199219 72.339844 51.261719 72.488281 51.390625 72.613281 C 51.515625 72.742188 51.664062 72.804688 51.84375 72.804688 C 52.019531 72.804688 52.171875 72.742188 52.296875 72.613281 C 52.421875 72.488281 52.484375 72.339844 52.484375 72.160156 C 52.773438 68.519531 53.414062 64.941406 54.40625 61.425781 C 54.632812 60.628906 53.394531 60.289062 53.171875 61.082031 Z M 53.179688 61.082031 " fill-opacity="1" fill-rule="nonzero"/></g><path fill="#154a87" d="M 59.664062 66.164062 C 60.5 67.421875 61.128906 68.777344 61.550781 70.234375 C 61.597656 70.402344 61.699219 70.535156 61.855469 70.621094 C 62.007812 70.707031 62.171875 70.730469 62.339844 70.683594 C 62.511719 70.632812 62.640625 70.535156 62.726562 70.378906 C 62.816406 70.222656 62.835938 70.0625 62.789062 69.890625 C 62.335938 68.332031 61.660156 66.875 60.769531 65.519531 C 60.679688 65.367188 60.546875 65.269531 60.378906 65.226562 C 60.207031 65.179688 60.046875 65.203125 59.890625 65.285156 C 59.738281 65.375 59.640625 65.507812 59.59375 65.679688 C 59.550781 65.851562 59.574219 66.015625 59.664062 66.167969 Z M 59.664062 66.164062 " fill-opacity="1" fill-rule="nonzero"/><path fill="#154a87" d="M 45.703125 61.820312 L 41.746094 65.542969 C 41.621094 65.667969 41.558594 65.820312 41.558594 65.996094 C 41.558594 66.171875 41.621094 66.324219 41.746094 66.449219 C 41.871094 66.570312 42.023438 66.632812 42.199219 66.632812 C 42.375 66.632812 42.523438 66.570312 42.652344 66.449219 L 46.617188 62.722656 C 46.746094 62.597656 46.808594 62.445312 46.808594 62.269531 C 46.808594 62.089844 46.746094 61.9375 46.617188 61.8125 C 46.492188 61.691406 46.339844 61.632812 46.164062 61.632812 C 45.992188 61.632812 45.839844 61.691406 45.710938 61.8125 Z M 45.703125 61.820312 " fill-opacity="1" fill-rule="nonzero"/><path fill="#154a87" d="M 60.949219 5.28125 C 61.738281 6.917969 62.210938 8.644531 62.367188 10.457031 C 62.371094 10.632812 62.4375 10.78125 62.558594 10.90625 C 62.683594 11.03125 62.832031 11.09375 63.007812 11.097656 C 63.1875 11.097656 63.335938 11.035156 63.460938 10.910156 C 63.585938 10.785156 63.648438 10.632812 63.648438 10.457031 C 63.476562 8.417969 62.945312 6.476562 62.054688 4.632812 C 61.960938 4.492188 61.832031 4.402344 61.667969 4.367188 C 61.503906 4.328125 61.347656 4.351562 61.203125 4.4375 C 61.054688 4.519531 60.957031 4.644531 60.910156 4.804688 C 60.859375 4.964844 60.871094 5.125 60.945312 5.273438 Z M 60.949219 5.28125 " fill-opacity="1" fill-rule="nonzero"/><g clip-path="url(#d9cbd82c36)"><path fill="#154a87" d="M 72.335938 11.503906 L 74.707031 1.480469 C 74.898438 0.675781 73.660156 0.332031 73.46875 1.140625 L 71.097656 11.164062 C 70.90625 11.96875 72.140625 12.308594 72.335938 11.503906 Z M 72.335938 11.503906 " fill-opacity="1" fill-rule="nonzero"/></g><path fill="#154a87" d="M 78.0625 14.789062 C 80.488281 13.40625 82.316406 11.457031 83.550781 8.949219 C 83.636719 8.792969 83.65625 8.632812 83.613281 8.460938 C 83.566406 8.292969 83.46875 8.160156 83.320312 8.066406 C 83.167969 7.980469 83.007812 7.957031 82.835938 8.003906 C 82.664062 8.046875 82.535156 8.148438 82.445312 8.300781 C 81.320312 10.609375 79.644531 12.40625 77.417969 13.679688 C 76.699219 14.089844 77.34375 15.203125 78.058594 14.789062 Z M 78.0625 14.789062 " fill-opacity="1" fill-rule="nonzero"/><path fill="#ffffff" d="M 38.960938 20.34375 C 38.675781 22.085938 38.269531 23.800781 37.738281 25.484375 C 37.613281 25.878906 38.234375 26.046875 38.355469 25.65625 C 38.886719 23.96875 39.296875 22.257812 39.578125 20.511719 C 39.644531 20.109375 39.027344 19.933594 38.960938 20.34375 Z M 38.960938 20.34375 " fill-opacity="1" fill-rule="nonzero"/><path fill="#ffffff" d="M 39.234375 20.9375 C 39.785156 20.722656 40.214844 21.351562 40.25 21.839844 C 40.285156 22.328125 39.921875 23.144531 39.324219 22.976562 C 39.15625 22.949219 39.039062 23.011719 38.972656 23.171875 C 38.90625 23.328125 38.945312 23.457031 39.082031 23.558594 C 39.691406 23.90625 39.832031 24.855469 39.617188 25.46875 C 39.371094 26.171875 38.550781 26.402344 38.058594 25.808594 C 37.796875 25.488281 37.347656 25.945312 37.605469 26.261719 C 38.34375 27.160156 39.695312 26.851562 40.152344 25.835938 C 40.570312 24.914062 40.332031 23.519531 39.40625 22.992188 L 39.160156 23.582031 C 40.171875 23.863281 40.949219 22.738281 40.894531 21.824219 C 40.84375 20.96875 40.027344 19.914062 39.070312 20.300781 C 38.691406 20.453125 38.855469 21.074219 39.238281 20.921875 Z M 39.234375 20.9375 " fill-opacity="1" fill-rule="nonzero"/><path fill="#ffffff" d="M 42.382812 22.070312 L 41.148438 26.265625 C 40.980469 26.851562 40.753906 27.492188 41.171875 28.027344 C 41.589844 28.566406 42.214844 28.503906 42.796875 28.34375 C 42.875 28.3125 42.933594 28.261719 42.972656 28.1875 C 43.007812 28.113281 43.015625 28.035156 42.996094 27.953125 C 42.972656 27.871094 42.925781 27.808594 42.855469 27.765625 C 42.785156 27.722656 42.707031 27.707031 42.625 27.722656 C 42.386719 27.789062 42.089844 27.894531 41.855469 27.78125 C 41.652344 27.679688 41.558594 27.519531 41.5625 27.292969 C 41.589844 27.015625 41.652344 26.75 41.753906 26.488281 L 42.007812 25.632812 L 43 22.246094 C 43.121094 21.847656 42.5 21.675781 42.382812 22.074219 Z M 42.382812 22.070312 " fill-opacity="1" fill-rule="nonzero"/><path fill="#ffffff" d="M 42.054688 25.027344 C 42.144531 25.027344 42.21875 24.996094 42.28125 24.933594 C 42.34375 24.871094 42.375 24.792969 42.375 24.707031 C 42.375 24.617188 42.34375 24.542969 42.28125 24.476562 C 42.21875 24.414062 42.144531 24.382812 42.054688 24.382812 C 41.964844 24.382812 41.890625 24.414062 41.828125 24.476562 C 41.765625 24.542969 41.734375 24.617188 41.734375 24.707031 C 41.734375 24.792969 41.765625 24.871094 41.828125 24.933594 C 41.890625 24.996094 41.964844 25.027344 42.054688 25.027344 Z M 42.054688 25.027344 " fill-opacity="1" fill-rule="nonzero"/><path fill="#ffffff" d="M 42.054688 25.027344 C 42.15625 25.015625 42.257812 25.015625 42.359375 25.027344 L 42.273438 25.027344 C 42.34375 25.035156 42.417969 25.050781 42.488281 25.070312 L 42.589844 25.105469 L 42.644531 25.125 C 42.554688 25.09375 42.613281 25.113281 42.644531 25.125 C 42.710938 25.160156 42.777344 25.195312 42.839844 25.238281 L 42.925781 25.296875 C 42.949219 25.316406 42.863281 25.25 42.925781 25.296875 L 42.976562 25.34375 C 43.042969 25.402344 43.117188 25.429688 43.203125 25.429688 C 43.289062 25.425781 43.363281 25.394531 43.421875 25.332031 C 43.484375 25.273438 43.515625 25.199219 43.515625 25.113281 C 43.519531 25.027344 43.488281 24.949219 43.429688 24.886719 C 43.046875 24.53125 42.59375 24.367188 42.070312 24.394531 C 41.980469 24.394531 41.90625 24.425781 41.84375 24.488281 C 41.78125 24.550781 41.75 24.625 41.75 24.714844 C 41.75 24.804688 41.78125 24.878906 41.84375 24.941406 C 41.90625 25.003906 41.980469 25.035156 42.070312 25.035156 Z M 42.054688 25.027344 " fill-opacity="1" fill-rule="nonzero"/><path fill="#ffffff" d="M 42.691406 22.488281 L 44.238281 23.023438 C 44.320312 23.042969 44.402344 23.035156 44.480469 22.992188 C 44.558594 22.945312 44.605469 22.882812 44.632812 22.796875 C 44.652344 22.714844 44.644531 22.632812 44.601562 22.558594 C 44.5625 22.480469 44.5 22.429688 44.417969 22.402344 L 42.875 21.867188 C 42.789062 21.839844 42.703125 21.847656 42.625 21.890625 C 42.546875 21.9375 42.496094 22 42.46875 22.089844 C 42.445312 22.175781 42.457031 22.257812 42.503906 22.335938 C 42.546875 22.414062 42.613281 22.464844 42.703125 22.488281 Z M 42.691406 22.488281 " fill-opacity="1" fill-rule="nonzero"/><path fill="#ffffff" d="M 47.734375 28.933594 C 48.195312 27.582031 48.75 26.269531 49.398438 24.996094 L 48.816406 24.917969 L 49.34375 26.722656 C 49.359375 26.777344 49.386719 26.824219 49.429688 26.863281 C 49.46875 26.902344 49.515625 26.929688 49.570312 26.945312 C 49.625 26.960938 49.679688 26.960938 49.734375 26.945312 C 49.789062 26.929688 49.835938 26.902344 49.878906 26.863281 L 51.542969 25.464844 L 50.996094 25.238281 L 50.742188 30.839844 C 50.726562 31.253906 51.367188 31.25 51.386719 30.839844 L 51.636719 25.234375 C 51.632812 25.09375 51.566406 24.996094 51.4375 24.941406 C 51.308594 24.886719 51.191406 24.910156 51.089844 25.003906 L 49.425781 26.402344 L 49.960938 26.546875 L 49.433594 24.742188 C 49.390625 24.609375 49.300781 24.535156 49.164062 24.515625 C 49.027344 24.496094 48.921875 24.546875 48.847656 24.664062 C 48.175781 25.988281 47.597656 27.351562 47.117188 28.757812 C 46.980469 29.148438 47.597656 29.316406 47.734375 28.925781 Z M 47.734375 28.933594 " fill-opacity="1" fill-rule="nonzero"/><path fill="#ffffff" d="M 52.890625 26.214844 L 54.128906 28.886719 C 54.171875 28.957031 54.234375 29.003906 54.320312 29.027344 C 54.402344 29.050781 54.480469 29.039062 54.554688 29 C 54.625 28.953125 54.671875 28.890625 54.695312 28.808594 C 54.71875 28.726562 54.710938 28.648438 54.671875 28.570312 L 53.433594 25.902344 C 53.390625 25.832031 53.324219 25.78125 53.242188 25.761719 C 53.160156 25.738281 53.082031 25.746094 53.007812 25.789062 C 52.933594 25.832031 52.886719 25.898438 52.867188 25.980469 C 52.84375 26.0625 52.851562 26.140625 52.890625 26.214844 Z M 52.890625 26.214844 " fill-opacity="1" fill-rule="nonzero"/><path fill="#ffffff" d="M 56.4375 26.742188 C 54.578125 27.703125 53.621094 29.902344 53.492188 31.910156 C 53.46875 32.324219 54.109375 32.324219 54.132812 31.910156 C 54.246094 30.121094 55.105469 28.15625 56.761719 27.296875 C 57.128906 27.105469 56.804688 26.550781 56.4375 26.742188 Z M 56.4375 26.742188 " fill-opacity="1" fill-rule="nonzero"/><path fill="#ffffff" d="M 59.980469 42.71875 L 62.402344 45.734375 C 62.585938 45.964844 62.945312 45.765625 62.949219 45.507812 C 62.96875 44.214844 62.835938 42.933594 62.554688 41.671875 C 62.460938 41.269531 61.84375 41.441406 61.933594 41.84375 C 62.203125 43.050781 62.328125 44.269531 62.308594 45.507812 L 62.855469 45.28125 L 60.445312 42.265625 C 60.382812 42.203125 60.308594 42.171875 60.21875 42.171875 C 60.128906 42.171875 60.054688 42.203125 59.992188 42.265625 C 59.929688 42.328125 59.902344 42.402344 59.902344 42.492188 C 59.902344 42.578125 59.929688 42.65625 59.992188 42.71875 Z M 59.980469 42.71875 " fill-opacity="1" fill-rule="nonzero"/><path fill="#ffffff" d="M 65.039062 44.988281 L 65 41.070312 L 64.453125 41.296875 C 65.433594 42.402344 66.277344 43.601562 66.988281 44.894531 C 67.1875 45.257812 67.742188 44.933594 67.542969 44.570312 C 66.804688 43.230469 65.925781 41.988281 64.90625 40.84375 C 64.804688 40.746094 64.6875 40.726562 64.558594 40.78125 C 64.429688 40.835938 64.363281 40.929688 64.359375 41.070312 L 64.398438 44.988281 C 64.398438 45.078125 64.429688 45.152344 64.492188 45.214844 C 64.554688 45.277344 64.628906 45.308594 64.71875 45.308594 C 64.804688 45.308594 64.882812 45.277344 64.945312 45.214844 C 65.007812 45.152344 65.039062 45.078125 65.039062 44.988281 Z M 65.039062 44.988281 " fill-opacity="1" fill-rule="nonzero"/><path fill="#ffffff" d="M 64.828125 44.15625 L 66.484375 43.839844 C 66.566406 43.8125 66.628906 43.761719 66.671875 43.683594 C 66.710938 43.609375 66.722656 43.527344 66.699219 43.445312 C 66.671875 43.363281 66.617188 43.300781 66.542969 43.257812 C 66.464844 43.21875 66.386719 43.207031 66.304688 43.230469 L 64.644531 43.546875 C 64.558594 43.570312 64.496094 43.621094 64.453125 43.699219 C 64.410156 43.773438 64.398438 43.855469 64.421875 43.941406 C 64.449219 44.023438 64.5 44.085938 64.578125 44.125 C 64.652344 44.167969 64.734375 44.175781 64.816406 44.15625 Z M 64.828125 44.15625 " fill-opacity="1" fill-rule="nonzero"/><path fill="#ffffff" d="M 67.429688 40.878906 C 68.066406 41.925781 68.484375 43.054688 68.6875 44.261719 C 68.714844 44.347656 68.765625 44.410156 68.839844 44.449219 C 68.917969 44.492188 69 44.5 69.082031 44.476562 L 70.960938 43.894531 C 71.351562 43.773438 71.175781 43.152344 70.789062 43.273438 L 68.910156 43.859375 L 69.308594 44.082031 C 69.089844 42.820312 68.648438 41.640625 67.980469 40.546875 C 67.769531 40.191406 67.214844 40.515625 67.429688 40.871094 Z M 67.429688 40.878906 " fill-opacity="1" fill-rule="nonzero"/><path fill="#ffffff" d="M 71.171875 40.050781 L 71.519531 41.421875 L 71.691406 42.101562 C 71.738281 42.316406 71.800781 42.527344 71.875 42.734375 C 71.957031 42.925781 72.085938 43.078125 72.261719 43.1875 C 72.441406 43.296875 72.632812 43.347656 72.839844 43.332031 C 73.292969 43.304688 73.644531 43.039062 73.980469 42.761719 C 74.039062 42.699219 74.070312 42.621094 74.066406 42.535156 C 74.066406 42.449219 74.035156 42.375 73.972656 42.316406 C 73.914062 42.253906 73.839844 42.222656 73.753906 42.222656 C 73.667969 42.21875 73.589844 42.246094 73.527344 42.308594 C 73.316406 42.480469 73.066406 42.695312 72.777344 42.691406 C 72.484375 42.683594 72.4375 42.429688 72.375 42.1875 C 72.179688 41.421875 71.984375 40.652344 71.789062 39.878906 C 71.6875 39.480469 71.070312 39.648438 71.171875 40.050781 Z M 71.171875 40.050781 " fill-opacity="1" fill-rule="nonzero"/><path fill="#ffffff" d="M 71.675781 39.96875 C 71.78125 39.902344 71.890625 39.847656 72 39.796875 C 72.074219 39.765625 71.9375 39.820312 72.011719 39.796875 L 72.105469 39.765625 C 72.160156 39.746094 72.214844 39.726562 72.269531 39.710938 C 72.378906 39.683594 72.488281 39.65625 72.601562 39.640625 L 72.589844 39.640625 L 72.90625 39.640625 C 72.996094 39.640625 73.070312 39.609375 73.132812 39.546875 C 73.195312 39.484375 73.226562 39.40625 73.226562 39.320312 C 73.226562 39.230469 73.195312 39.15625 73.132812 39.09375 C 73.070312 39.03125 72.996094 39 72.90625 38.996094 C 72.347656 39 71.832031 39.148438 71.351562 39.4375 C 71.28125 39.484375 71.234375 39.550781 71.214844 39.632812 C 71.191406 39.71875 71.203125 39.796875 71.246094 39.871094 C 71.292969 39.945312 71.355469 39.996094 71.4375 40.019531 C 71.519531 40.042969 71.601562 40.035156 71.675781 39.992188 Z M 71.675781 39.96875 " fill-opacity="1" fill-rule="nonzero"/><path fill="#ffffff" d="M 72.085938 41.402344 L 72.832031 41.160156 C 72.914062 41.132812 72.976562 41.085938 73.023438 41.011719 C 73.066406 40.933594 73.078125 40.851562 73.054688 40.765625 C 73.03125 40.679688 72.984375 40.617188 72.90625 40.570312 C 72.828125 40.527344 72.746094 40.515625 72.660156 40.539062 L 71.917969 40.78125 C 71.835938 40.804688 71.769531 40.855469 71.726562 40.929688 C 71.652344 41.054688 71.660156 41.171875 71.75 41.285156 C 71.835938 41.398438 71.949219 41.4375 72.085938 41.402344 Z M 72.085938 41.402344 " fill-opacity="1" fill-rule="nonzero"/><path fill="#ffffff" d="M 75.828125 42.085938 C 75.636719 40.988281 75.351562 39.917969 74.972656 38.871094 L 74.503906 39.234375 L 76.65625 40.214844 C 76.734375 40.257812 76.8125 40.269531 76.898438 40.246094 C 76.980469 40.222656 77.046875 40.175781 77.09375 40.101562 C 77.136719 40.027344 77.148438 39.945312 77.125 39.859375 C 77.101562 39.773438 77.054688 39.707031 76.976562 39.660156 L 74.824219 38.679688 C 74.703125 38.609375 74.582031 38.617188 74.46875 38.703125 C 74.355469 38.789062 74.316406 38.902344 74.355469 39.039062 C 74.734375 40.089844 75.019531 41.164062 75.210938 42.265625 C 75.234375 42.347656 75.285156 42.410156 75.363281 42.453125 C 75.4375 42.492188 75.519531 42.5 75.601562 42.476562 C 75.6875 42.453125 75.75 42.402344 75.792969 42.324219 C 75.839844 42.25 75.847656 42.167969 75.828125 42.082031 Z M 75.828125 42.085938 " fill-opacity="1" fill-rule="nonzero"/><path fill="#ffffff" d="M 76.492188 38.269531 L 77.519531 42.082031 C 77.546875 42.164062 77.597656 42.226562 77.671875 42.269531 C 77.75 42.3125 77.828125 42.320312 77.914062 42.296875 C 77.996094 42.273438 78.058594 42.226562 78.105469 42.148438 C 78.148438 42.074219 78.160156 41.996094 78.136719 41.910156 L 77.109375 38.097656 C 77.078125 38.019531 77.027344 37.960938 76.953125 37.921875 C 76.878906 37.882812 76.800781 37.875 76.722656 37.898438 C 76.640625 37.921875 76.578125 37.96875 76.535156 38.039062 C 76.488281 38.109375 76.472656 38.1875 76.488281 38.269531 Z M 76.492188 38.269531 " fill-opacity="1" fill-rule="nonzero"/><path fill="#ffffff" d="M 79.007812 38.109375 C 79.9375 37.6875 80.902344 37.363281 81.894531 37.136719 C 82.296875 37.046875 82.128906 36.425781 81.726562 36.515625 C 80.675781 36.757812 79.664062 37.105469 78.683594 37.554688 C 78.609375 37.597656 78.5625 37.664062 78.542969 37.746094 C 78.519531 37.828125 78.53125 37.90625 78.570312 37.980469 C 78.617188 38.058594 78.679688 38.105469 78.765625 38.128906 C 78.851562 38.148438 78.929688 38.140625 79.007812 38.097656 Z M 79.007812 38.109375 " fill-opacity="1" fill-rule="nonzero"/><path fill="#ffffff" d="M 79.984375 37.695312 C 80.199219 38.8125 80.542969 39.890625 81.003906 40.933594 C 81.050781 41.007812 81.117188 41.058594 81.203125 41.078125 C 81.285156 41.101562 81.367188 41.089844 81.445312 41.046875 C 81.519531 41 81.566406 40.933594 81.589844 40.847656 C 81.609375 40.765625 81.601562 40.683594 81.558594 40.605469 C 81.121094 39.617188 80.800781 38.589844 80.601562 37.523438 C 80.582031 37.4375 80.53125 37.367188 80.453125 37.324219 C 80.375 37.277344 80.292969 37.265625 80.207031 37.289062 C 80.117188 37.316406 80.054688 37.367188 80.007812 37.445312 C 79.964844 37.527344 79.957031 37.609375 79.984375 37.695312 Z M 79.984375 37.695312 " fill-opacity="1" fill-rule="nonzero"/><path fill="#ffffff" d="M 83.007812 36.660156 L 84.121094 39.835938 C 84.144531 39.921875 84.195312 39.984375 84.273438 40.027344 C 84.347656 40.074219 84.429688 40.082031 84.515625 40.0625 C 84.601562 40.039062 84.664062 39.988281 84.707031 39.910156 C 84.753906 39.832031 84.761719 39.75 84.738281 39.664062 L 83.625 36.480469 C 83.597656 36.398438 83.546875 36.335938 83.472656 36.296875 C 83.394531 36.253906 83.316406 36.246094 83.230469 36.265625 C 83.148438 36.289062 83.082031 36.339844 83.039062 36.417969 C 82.996094 36.492188 82.984375 36.574219 83.007812 36.660156 Z M 83.007812 36.660156 " fill-opacity="1" fill-rule="nonzero"/><path fill="#ffffff" d="M 86.667969 39.523438 C 86.351562 38.394531 85.910156 37.3125 85.34375 36.285156 L 84.90625 36.726562 C 85.511719 37.183594 86.1875 37.46875 86.9375 37.582031 C 87.019531 37.601562 87.101562 37.589844 87.175781 37.546875 C 87.253906 37.503906 87.304688 37.441406 87.328125 37.355469 C 87.351562 37.273438 87.34375 37.191406 87.300781 37.117188 C 87.261719 37.039062 87.199219 36.988281 87.117188 36.960938 C 86.421875 36.863281 85.796875 36.601562 85.238281 36.179688 C 85.097656 36.097656 84.96875 36.113281 84.851562 36.230469 C 84.742188 36.347656 84.722656 36.476562 84.800781 36.621094 C 85.339844 37.597656 85.761719 38.625 86.058594 39.703125 C 86.085938 39.78125 86.140625 39.839844 86.214844 39.878906 C 86.289062 39.917969 86.367188 39.925781 86.445312 39.902344 C 86.527344 39.878906 86.589844 39.835938 86.632812 39.761719 C 86.679688 39.691406 86.691406 39.617188 86.675781 39.53125 Z M 86.667969 39.523438 " fill-opacity="1" fill-rule="nonzero"/><path fill="#ffffff" d="M 86.570312 35.566406 C 86.816406 36.808594 87.285156 37.964844 87.96875 39.03125 C 88.183594 39.378906 88.746094 39.058594 88.519531 38.707031 C 87.867188 37.6875 87.421875 36.585938 87.1875 35.394531 C 87.164062 35.308594 87.113281 35.242188 87.035156 35.199219 C 86.960938 35.15625 86.878906 35.144531 86.792969 35.167969 C 86.707031 35.191406 86.644531 35.242188 86.597656 35.320312 C 86.554688 35.398438 86.546875 35.480469 86.570312 35.566406 Z M 86.570312 35.566406 " fill-opacity="1" fill-rule="nonzero"/><path fill="#ffffff" d="M 88.0625 35.445312 L 89.300781 38.277344 C 89.382812 38.417969 89.5 38.46875 89.660156 38.421875 L 90.769531 37.957031 C 90.855469 37.933594 90.917969 37.882812 90.960938 37.804688 C 91.003906 37.726562 91.015625 37.648438 90.996094 37.5625 C 90.96875 37.480469 90.917969 37.417969 90.839844 37.375 C 90.765625 37.332031 90.683594 37.324219 90.601562 37.347656 L 89.5 37.800781 L 89.859375 37.949219 L 88.621094 35.125 C 88.574219 35.050781 88.507812 35 88.421875 34.976562 C 88.335938 34.953125 88.257812 34.964844 88.179688 35.007812 C 88.105469 35.054688 88.058594 35.121094 88.035156 35.207031 C 88.011719 35.292969 88.023438 35.371094 88.0625 35.449219 Z M 88.0625 35.445312 " fill-opacity="1" fill-rule="nonzero"/><path fill="#ffffff" d="M 88.429688 35.589844 L 89.632812 35.378906 C 89.714844 35.351562 89.777344 35.300781 89.820312 35.222656 C 89.859375 35.148438 89.871094 35.066406 89.847656 34.984375 C 89.820312 34.898438 89.769531 34.835938 89.691406 34.792969 C 89.617188 34.75 89.535156 34.738281 89.449219 34.757812 L 88.25 34.972656 C 88.164062 34.996094 88.101562 35.046875 88.058594 35.125 C 88.011719 35.203125 88.003906 35.28125 88.027344 35.367188 C 88.050781 35.453125 88.101562 35.515625 88.179688 35.558594 C 88.253906 35.601562 88.335938 35.613281 88.421875 35.59375 Z M 88.429688 35.589844 " fill-opacity="1" fill-rule="nonzero"/><path fill="#ffffff" d="M 89.246094 36.839844 L 89.992188 36.597656 C 90.074219 36.570312 90.136719 36.519531 90.179688 36.449219 C 90.226562 36.371094 90.238281 36.289062 90.214844 36.199219 C 90.191406 36.117188 90.140625 36.050781 90.066406 36.007812 C 89.988281 35.960938 89.90625 35.953125 89.820312 35.976562 L 89.074219 36.222656 C 88.988281 36.25 88.925781 36.296875 88.878906 36.371094 C 88.835938 36.453125 88.828125 36.535156 88.859375 36.625 C 88.882812 36.707031 88.929688 36.773438 89.007812 36.816406 C 89.082031 36.859375 89.164062 36.871094 89.253906 36.847656 Z M 89.246094 36.839844 " fill-opacity="1" fill-rule="nonzero"/><g fill="#000000" fill-opacity="1"><g transform="translate(16.217633, 90.289863)"><g><path d="M 2.789062 1.507812 C 5.464844 1.507812 6.664062 -0.472656 7.308594 -2.929688 C 7.390625 -3.234375 7.417969 -3.457031 7.417969 -3.710938 C 7.53125 -4.742188 7.417969 -5.773438 7.054688 -6.804688 L 6.722656 -7.585938 C 6.777344 -7.585938 6.886719 -7.613281 7.027344 -7.640625 L 9.316406 -8.226562 L 9.480469 -8.3125 C 9.511719 -8.339844 9.566406 -8.476562 9.480469 -8.507812 C 9.398438 -8.535156 9.34375 -8.5625 9.316406 -8.5625 C 9.257812 -8.589844 9.175781 -8.589844 9.0625 -8.589844 C 8.867188 -8.589844 8.671875 -8.535156 8.476562 -8.507812 C 8.171875 -8.421875 7.835938 -8.339844 7.5 -8.253906 C 7.167969 -8.171875 6.832031 -8.058594 6.496094 -7.949219 L 6.414062 -8.03125 C 5.96875 -8.671875 5.382812 -9.175781 4.601562 -9.371094 L 4.488281 -9.398438 C 4.292969 -9.480469 4.238281 -9.59375 4.351562 -9.734375 L 4.574219 -9.984375 C 5.941406 -11.546875 7.167969 -13.832031 7.613281 -15.867188 C 7.667969 -16.203125 7.695312 -16.511719 7.667969 -16.789062 C 7.640625 -17.011719 7.53125 -17.207031 7.363281 -17.347656 C 7.082031 -17.542969 6.832031 -17.625 6.582031 -17.625 C 6.359375 -17.625 6.136719 -17.542969 5.882812 -17.402344 C 5.800781 -17.375 5.660156 -17.261719 5.523438 -17.125 C 5.296875 -16.871094 5.105469 -16.621094 4.910156 -16.371094 C 3.792969 -14.667969 3.179688 -13.109375 2.511719 -11.210938 L 2.34375 -10.847656 C 2.34375 -10.792969 2.316406 -10.765625 2.257812 -10.765625 C 2.203125 -10.765625 2.175781 -10.792969 2.175781 -10.847656 C 2.175781 -10.933594 2.175781 -10.988281 2.175781 -11.042969 C 2.148438 -11.097656 2.148438 -11.15625 2.148438 -11.238281 C 2.175781 -11.824219 2.148438 -12.382812 2.121094 -12.96875 C 2.089844 -13.527344 2.0625 -14.082031 2.035156 -14.640625 C 2.035156 -14.78125 2.035156 -14.890625 2.007812 -14.976562 C 1.980469 -15.28125 1.8125 -15.476562 1.476562 -15.535156 C 1.058594 -15.535156 1.058594 -15.003906 1.058594 -14.695312 C 1.03125 -14.5 1.03125 -14.335938 1.03125 -14.167969 C 1.03125 -14 1.03125 -13.832031 1.03125 -13.636719 C 1.003906 -12.660156 0.976562 -10.765625 0.949219 -9.539062 C 0.921875 -7.976562 0.890625 -6.386719 0.890625 -5.046875 C 0.613281 -4.796875 0.363281 -4.488281 0.167969 -4.183594 C -0.0820312 -3.875 -0.222656 -3.542969 -0.308594 -3.179688 C -0.585938 -1.839844 -0.308594 -0.640625 0.503906 0.390625 C 1.058594 1.144531 1.8125 1.507812 2.789062 1.507812 Z M 2.957031 1.117188 C 2.203125 1.117188 1.589844 0.640625 1.144531 0.113281 C 0.503906 -0.753906 0.222656 -1.703125 0.335938 -2.734375 C 0.445312 -3.261719 0.613281 -3.679688 0.863281 -4.042969 L 0.863281 -3.402344 C 0.890625 -3.320312 0.890625 -3.234375 0.890625 -3.179688 C 0.890625 -3.09375 0.890625 -3.011719 0.890625 -2.929688 C 0.921875 -2.789062 1.003906 -2.734375 1.117188 -2.707031 C 1.144531 -2.707031 1.199219 -2.707031 1.253906 -2.707031 C 1.28125 -2.675781 1.339844 -2.675781 1.367188 -2.675781 C 1.730469 -2.675781 1.953125 -2.84375 2.007812 -3.179688 L 2.148438 -4.574219 L 2.148438 -5.464844 C 3.375 -6.46875 4.878906 -7.054688 5.773438 -7.363281 C 5.941406 -6.917969 6.050781 -6.46875 6.109375 -5.996094 C 6.136719 -5.746094 6.164062 -5.492188 6.191406 -5.269531 C 6.21875 -5.019531 6.21875 -4.824219 6.246094 -4.683594 C 6.273438 -4.042969 6.191406 -3.597656 6.078125 -3.152344 C 5.855469 -2.035156 5.464844 -0.976562 4.824219 0 C 4.378906 0.667969 3.738281 1.003906 2.957031 1.117188 Z M 2.148438 -6.023438 C 2.148438 -6.300781 2.148438 -6.554688 2.175781 -6.804688 C 2.175781 -7.054688 2.175781 -7.222656 2.175781 -7.335938 C 2.203125 -7.863281 2.34375 -8.339844 2.480469 -8.867188 C 2.511719 -8.980469 2.59375 -9.007812 2.707031 -8.980469 C 2.789062 -8.953125 2.898438 -8.894531 3.011719 -8.894531 C 3.066406 -8.867188 3.152344 -8.867188 3.234375 -8.867188 C 3.375 -8.867188 3.457031 -8.894531 3.515625 -8.925781 C 3.597656 -8.953125 3.710938 -8.980469 3.820312 -9.007812 C 3.90625 -9.007812 4.015625 -9.007812 4.097656 -9.035156 C 4.851562 -9.035156 5.214844 -8.449219 5.523438 -7.863281 C 5.550781 -7.78125 5.605469 -7.726562 5.632812 -7.640625 C 4.40625 -7.222656 3.179688 -6.664062 2.148438 -6.023438 Z M 2.707031 -9.398438 C 2.621094 -9.398438 2.621094 -9.453125 2.648438 -9.539062 C 2.648438 -9.566406 2.648438 -9.621094 2.675781 -9.648438 C 2.675781 -9.675781 2.675781 -9.703125 2.675781 -9.734375 C 2.707031 -9.816406 2.734375 -9.898438 2.761719 -9.984375 C 2.761719 -10.039062 2.789062 -10.09375 2.816406 -10.179688 C 3.402344 -11.910156 4.796875 -15.839844 6.300781 -16.898438 C 6.332031 -16.929688 6.386719 -16.957031 6.414062 -16.984375 C 6.441406 -16.984375 6.496094 -17.011719 6.527344 -17.039062 C 6.609375 -17.066406 6.691406 -17.039062 6.691406 -16.957031 L 6.691406 -16.816406 C 6.691406 -15.144531 4.40625 -11.40625 3.375 -10.066406 C 3.289062 -9.957031 3.207031 -9.84375 3.125 -9.761719 C 3.039062 -9.648438 2.929688 -9.539062 2.84375 -9.425781 C 2.816406 -9.398438 2.789062 -9.398438 2.707031 -9.398438 Z M 2.707031 -9.398438 "/></g></g></g><g fill="#000000" fill-opacity="1"><g transform="translate(24.332698, 90.289863)"><g><path d="M 0.921875 -2.257812 C 1.617188 -2.257812 2.121094 -2.761719 2.539062 -3.234375 C 2.984375 -3.792969 3.402344 -4.378906 3.820312 -4.964844 C 4.128906 -5.4375 4.460938 -5.941406 4.769531 -6.414062 C 5.074219 -6.886719 5.382812 -7.363281 5.6875 -7.835938 C 5.71875 -7.921875 5.800781 -8.03125 5.882812 -8.171875 C 5.96875 -8.3125 6.023438 -8.449219 6.023438 -8.535156 C 6.023438 -8.5625 5.996094 -8.617188 5.96875 -8.644531 C 5.914062 -8.730469 5.828125 -8.757812 5.71875 -8.757812 C 5.632812 -8.757812 5.550781 -8.730469 5.492188 -8.671875 C 5.464844 -8.644531 5.4375 -8.589844 5.4375 -8.5625 C 5.410156 -8.535156 5.382812 -8.476562 5.355469 -8.449219 L 3.679688 -5.941406 C 3.347656 -5.382812 1.644531 -2.984375 1.03125 -2.984375 C 0.921875 -2.984375 0.835938 -3.09375 0.808594 -3.289062 L 0.808594 -3.484375 C 0.78125 -4.15625 0.835938 -4.851562 0.949219 -5.523438 L 1.117188 -6.21875 C 1.171875 -6.414062 1.28125 -6.527344 1.449219 -6.554688 C 1.589844 -6.582031 1.703125 -6.636719 1.8125 -6.664062 C 1.925781 -6.691406 2.035156 -6.722656 2.148438 -6.777344 C 2.898438 -7.222656 3.679688 -7.890625 3.933594 -8.785156 C 4.128906 -9.371094 3.960938 -9.761719 3.402344 -10.011719 C 3.152344 -10.152344 2.957031 -10.152344 2.648438 -10.152344 C 2.425781 -10.152344 2.203125 -10.066406 1.953125 -9.929688 C 1.730469 -9.761719 1.5625 -9.59375 1.421875 -9.453125 C 1.085938 -9.121094 0.808594 -8.699219 0.585938 -8.28125 C -0.167969 -6.75 -0.503906 -5.160156 -0.390625 -3.515625 L -0.308594 -3.066406 C -0.167969 -2.511719 0.390625 -2.257812 0.921875 -2.257812 Z M 1.535156 -7.140625 C 1.449219 -7.167969 1.449219 -7.222656 1.476562 -7.308594 C 1.644531 -7.863281 2.480469 -9.566406 3.09375 -9.566406 C 3.207031 -9.566406 3.289062 -9.511719 3.320312 -9.371094 L 3.320312 -9.316406 C 3.320312 -8.535156 2.371094 -7.417969 1.644531 -7.140625 C 1.617188 -7.113281 1.5625 -7.113281 1.535156 -7.140625 Z M 1.535156 -7.140625 "/></g></g></g><g fill="#000000" fill-opacity="1"><g transform="translate(28.961909, 90.289863)"><g/></g></g><g fill="#000000" fill-opacity="1"><g transform="translate(36.212479, 90.289863)"><g><path d="M 6.554688 -1.671875 C 6.75 -1.671875 6.886719 -1.730469 7 -1.867188 C 7.195312 -2.0625 7.335938 -2.285156 7.472656 -2.511719 C 7.890625 -3.152344 8.226562 -3.820312 8.589844 -4.519531 C 8.894531 -5.074219 9.175781 -5.632812 9.453125 -6.21875 C 9.734375 -6.777344 10.011719 -7.335938 10.289062 -7.890625 C 10.320312 -7.949219 10.375 -8.003906 10.402344 -8.085938 C 10.429688 -8.144531 10.457031 -8.199219 10.484375 -8.253906 L 10.515625 -8.367188 C 10.570312 -8.476562 10.542969 -8.5625 10.402344 -8.644531 C 10.347656 -8.671875 10.261719 -8.699219 10.179688 -8.699219 C 10.066406 -8.699219 9.957031 -8.644531 9.871094 -8.535156 L 9.59375 -8.03125 C 9.230469 -7.335938 8.867188 -6.664062 8.507812 -5.914062 C 8.03125 -4.992188 7.558594 -4.070312 6.972656 -3.179688 C 6.886719 -3.066406 6.832031 -2.957031 6.75 -2.871094 C 6.691406 -2.816406 6.636719 -2.789062 6.582031 -2.816406 C 6.527344 -2.816406 6.496094 -2.84375 6.496094 -2.898438 C 6.496094 -3.011719 6.496094 -3.125 6.496094 -3.234375 C 6.496094 -3.320312 6.496094 -3.429688 6.527344 -3.515625 C 6.582031 -3.765625 6.636719 -4.042969 6.691406 -4.324219 C 6.722656 -4.574219 6.777344 -4.851562 6.859375 -5.105469 C 7 -5.71875 7.167969 -6.332031 7.363281 -6.945312 C 7.53125 -7.558594 7.695312 -8.171875 7.863281 -8.785156 C 7.890625 -8.953125 7.949219 -9.121094 8.003906 -9.316406 C 8.058594 -9.480469 8.117188 -9.648438 8.144531 -9.84375 C 8.226562 -10.125 8.253906 -10.429688 8.253906 -10.765625 C 8.226562 -11.097656 7.835938 -11.351562 7.53125 -11.351562 C 7.195312 -11.351562 6.75 -10.902344 6.554688 -10.652344 C 5.914062 -9.984375 5.382812 -9.230469 4.910156 -8.476562 L 4.433594 -7.753906 C 4.351562 -7.667969 4.292969 -7.585938 4.265625 -7.558594 C 4.265625 -7.53125 4.238281 -7.53125 4.15625 -7.53125 L 4.128906 -7.585938 L 4.128906 -8.589844 C 4.097656 -8.925781 3.738281 -9.148438 3.429688 -9.148438 C 3.289062 -9.148438 3.152344 -9.0625 3.039062 -8.925781 L 2.621094 -8.421875 L 1.617188 -6.886719 L 1.5625 -6.886719 C 1.535156 -6.886719 1.535156 -6.886719 1.507812 -6.917969 C 1.421875 -7.140625 1.476562 -7.308594 1.5625 -7.5 C 1.703125 -8.144531 1.839844 -8.730469 1.953125 -9.371094 C 2.007812 -9.59375 2.035156 -9.816406 2.035156 -10.066406 C 2.0625 -10.261719 1.953125 -10.375 1.757812 -10.457031 C 1.730469 -10.484375 1.671875 -10.484375 1.589844 -10.484375 C 1.449219 -10.484375 1.367188 -10.429688 1.339844 -10.289062 C 1.253906 -10.125 1.199219 -9.957031 1.144531 -9.789062 C 1.085938 -9.59375 1.03125 -9.425781 0.949219 -9.257812 C 0.640625 -8.28125 0.472656 -7.363281 0.277344 -6.386719 C 0.277344 -6.300781 0.277344 -6.21875 0.277344 -6.136719 C 0.25 -6.050781 0.25 -5.941406 0.277344 -5.855469 C 0.308594 -5.550781 0.445312 -5.355469 0.695312 -5.242188 C 0.726562 -5.214844 0.78125 -5.214844 0.808594 -5.214844 C 0.835938 -5.214844 0.863281 -5.214844 0.890625 -5.1875 C 0.949219 -5.160156 1.03125 -5.160156 1.117188 -5.160156 C 1.253906 -5.160156 1.367188 -5.214844 1.476562 -5.355469 C 1.5625 -5.4375 1.617188 -5.550781 1.671875 -5.660156 C 1.730469 -5.746094 1.785156 -5.855469 1.867188 -5.96875 C 1.980469 -6.164062 2.089844 -6.386719 2.203125 -6.582031 C 2.285156 -6.777344 2.398438 -6.972656 2.511719 -7.167969 C 2.566406 -7.25 2.621094 -7.363281 2.707031 -7.445312 C 2.761719 -7.53125 2.816406 -7.613281 2.871094 -7.695312 C 2.898438 -7.726562 2.898438 -7.726562 2.929688 -7.726562 C 2.984375 -7.695312 3.011719 -7.667969 3.011719 -7.640625 C 3.011719 -7.445312 2.984375 -7.308594 2.957031 -7.113281 L 2.871094 -6.46875 C 2.84375 -6.109375 2.984375 -5.882812 3.320312 -5.746094 C 3.347656 -5.71875 3.402344 -5.71875 3.457031 -5.6875 C 3.515625 -5.660156 3.570312 -5.660156 3.625 -5.632812 L 3.738281 -5.632812 C 4.097656 -5.632812 4.292969 -5.996094 4.488281 -6.300781 L 5.214844 -7.558594 C 5.4375 -8.03125 6.414062 -9.703125 6.859375 -9.984375 C 6.972656 -10.011719 7 -9.984375 6.945312 -9.898438 C 6.917969 -9.816406 6.886719 -9.734375 6.886719 -9.648438 C 6.859375 -9.566406 6.832031 -9.480469 6.804688 -9.398438 C 6.050781 -7.5 5.492188 -5.523438 5.296875 -3.515625 C 5.242188 -3.179688 5.269531 -2.84375 5.355469 -2.480469 C 5.410156 -2.175781 5.605469 -1.925781 5.914062 -1.785156 C 6.109375 -1.671875 6.332031 -1.671875 6.554688 -1.671875 Z M 6.554688 -1.671875 "/></g></g></g><g fill="#000000" fill-opacity="1"><g transform="translate(45.359359, 90.289863)"><g><path d="M 0.78125 2.316406 C 1.757812 2.203125 2.34375 1.617188 2.707031 0.753906 C 3.484375 -0.921875 3.988281 -2.59375 4.292969 -4.40625 C 4.324219 -4.628906 4.40625 -4.796875 4.546875 -4.9375 C 5.019531 -5.464844 5.492188 -5.96875 5.96875 -6.496094 C 6.441406 -7.027344 6.917969 -7.53125 7.417969 -8.003906 L 7.667969 -8.28125 C 7.753906 -8.367188 7.667969 -8.535156 7.585938 -8.5625 C 7.5 -8.617188 7.417969 -8.644531 7.277344 -8.644531 C 7.140625 -8.644531 7 -8.589844 6.917969 -8.476562 C 6.359375 -7.835938 5.800781 -7.25 5.214844 -6.664062 C 5.074219 -6.527344 4.9375 -6.386719 4.796875 -6.273438 C 4.769531 -6.246094 4.714844 -6.246094 4.65625 -6.273438 C 4.65625 -6.273438 4.65625 -6.300781 4.628906 -6.332031 L 4.628906 -6.636719 C 4.742188 -7.558594 4.878906 -8.476562 5.019531 -9.371094 L 5.019531 -9.84375 L 4.9375 -10.011719 C 4.824219 -10.152344 4.683594 -10.234375 4.488281 -10.234375 C 4.351562 -10.234375 4.238281 -10.179688 4.15625 -10.066406 L 3.402344 -9.0625 C 3.066406 -8.589844 2.734375 -8.144531 2.398438 -7.753906 C 2.316406 -7.667969 2.230469 -7.558594 2.148438 -7.472656 C 2.0625 -7.390625 1.953125 -7.277344 1.867188 -7.195312 C 1.785156 -7.167969 1.730469 -7.140625 1.671875 -7.140625 C 1.644531 -7.140625 1.589844 -7.277344 1.617188 -7.363281 C 1.617188 -7.445312 1.644531 -7.558594 1.671875 -7.695312 L 1.925781 -8.5625 C 1.953125 -8.671875 1.980469 -8.785156 2.007812 -8.894531 C 2.035156 -9.007812 2.035156 -9.121094 2.0625 -9.203125 C 2.0625 -9.285156 2.035156 -9.371094 2.007812 -9.453125 C 1.8125 -9.648438 1.671875 -9.675781 1.421875 -9.675781 C 1.339844 -9.648438 1.28125 -9.59375 1.253906 -9.566406 C 0.976562 -9.425781 0.417969 -7.558594 0.417969 -7.195312 C 0.308594 -6.496094 0.640625 -6.246094 1.058594 -6.050781 C 1.144531 -6.023438 1.253906 -5.96875 1.367188 -5.941406 C 1.507812 -5.941406 1.617188 -5.96875 1.757812 -5.996094 C 1.953125 -6.078125 2.121094 -6.21875 2.230469 -6.359375 L 3.039062 -7.308594 C 3.125 -7.417969 3.234375 -7.53125 3.320312 -7.667969 C 3.402344 -7.78125 3.484375 -7.890625 3.570312 -8.03125 C 3.652344 -8.117188 3.710938 -8.117188 3.738281 -8.085938 C 3.765625 -8.058594 3.765625 -8.058594 3.765625 -8.03125 C 3.765625 -8.003906 3.765625 -7.949219 3.792969 -7.921875 C 3.792969 -7.890625 3.792969 -7.863281 3.765625 -7.863281 C 3.570312 -6.777344 3.402344 -5.71875 3.179688 -4.628906 C 3.152344 -4.488281 3.09375 -4.378906 3.011719 -4.292969 C 2.929688 -4.15625 2.816406 -4.042969 2.707031 -3.933594 C 2.34375 -3.515625 2.007812 -3.125 1.644531 -2.707031 C 1.28125 -2.285156 0.949219 -1.867188 0.585938 -1.449219 C 0.167969 -1.003906 -0.335938 -0.195312 -0.53125 0.390625 C -0.667969 0.921875 -0.585938 1.339844 -0.363281 1.785156 C -0.0546875 2.203125 0.25 2.316406 0.78125 2.316406 Z M 0.53125 1.839844 C 0.308594 1.757812 0.25 1.507812 0.167969 1.3125 C 0.140625 1.226562 0.140625 1.171875 0.140625 1.117188 C 0.140625 1.058594 0.140625 1.03125 0.140625 1.003906 C 0.140625 0.0820312 1.925781 -2.371094 2.707031 -2.761719 C 2.789062 -2.761719 2.789062 -2.675781 2.761719 -2.539062 C 2.761719 -2.511719 2.761719 -2.511719 2.734375 -2.480469 C 2.371094 -1.28125 1.757812 0.835938 1.058594 1.535156 C 0.863281 1.730469 0.78125 1.839844 0.53125 1.839844 Z M 0.53125 1.839844 "/></g></g></g><g fill="#000000" fill-opacity="1"><g transform="translate(51.661784, 90.289863)"><g/></g></g><g fill="#000000" fill-opacity="1"><g transform="translate(58.912353, 90.289863)"><g><path d="M 3.289062 -0.0820312 C 3.320312 -0.0820312 3.375 -0.0820312 3.429688 -0.113281 C 3.457031 -0.113281 3.515625 -0.113281 3.570312 -0.113281 C 3.875 -0.167969 4.097656 -0.308594 4.238281 -0.503906 C 4.265625 -0.585938 4.324219 -0.640625 4.378906 -0.726562 C 4.40625 -0.808594 4.460938 -0.863281 4.488281 -0.949219 C 5.355469 -2.734375 5.941406 -4.210938 6.582031 -6.109375 C 6.917969 -7.195312 7.277344 -8.253906 7.640625 -9.285156 C 8.003906 -10.320312 8.394531 -11.378906 8.757812 -12.4375 C 9.34375 -14.167969 10.375 -16.480469 11.742188 -17.765625 C 11.796875 -17.792969 11.851562 -17.847656 11.910156 -17.902344 C 11.9375 -17.960938 11.992188 -18.015625 12.019531 -18.042969 C 12.101562 -18.128906 12.046875 -18.238281 11.964844 -18.265625 C 11.851562 -18.324219 11.742188 -18.351562 11.628906 -18.351562 C 11.488281 -18.351562 11.378906 -18.324219 11.292969 -18.238281 C 10.988281 -18.042969 10.710938 -17.792969 10.515625 -17.515625 C 10.289062 -17.207031 10.066406 -16.898438 9.84375 -16.566406 C 9.203125 -15.503906 8.671875 -14.363281 8.253906 -13.109375 C 7.472656 -10.902344 6.691406 -8.785156 5.996094 -6.554688 C 5.71875 -5.550781 4.238281 -1.367188 3.484375 -0.890625 C 3.457031 -0.863281 3.457031 -0.863281 3.429688 -0.863281 C 3.402344 -0.863281 3.375 -0.863281 3.375 -0.890625 C 3.289062 -0.976562 3.234375 -1.058594 3.207031 -1.171875 C 2.566406 -2.984375 2.511719 -5.074219 2.511719 -7 C 2.480469 -7.695312 2.453125 -8.367188 2.453125 -9.121094 C 2.453125 -9.761719 2.453125 -10.375 2.453125 -11.015625 C 2.453125 -11.65625 2.453125 -12.269531 2.480469 -12.914062 C 2.511719 -13.332031 2.511719 -13.722656 2.539062 -14.140625 C 2.539062 -14.53125 2.566406 -14.921875 2.648438 -15.339844 C 2.675781 -15.476562 2.707031 -15.644531 2.734375 -15.8125 C 2.761719 -15.980469 2.761719 -16.148438 2.789062 -16.316406 C 2.816406 -16.425781 2.707031 -16.566406 2.59375 -16.59375 C 2.480469 -16.621094 2.398438 -16.648438 2.371094 -16.648438 C 1.671875 -16.648438 1.3125 -14.113281 1.3125 -13.46875 C 1.28125 -12.71875 1.226562 -11.964844 1.199219 -11.210938 C 1.144531 -10.457031 1.117188 -9.703125 1.144531 -8.953125 C 1.171875 -8.253906 1.171875 -7.558594 1.199219 -6.886719 C 1.199219 -6.191406 1.226562 -5.523438 1.253906 -4.824219 C 1.339844 -3.820312 1.476562 -2.816406 1.703125 -1.839844 C 1.785156 -0.976562 2.316406 -0.0820312 3.289062 -0.0820312 Z M 3.289062 -0.0820312 "/></g></g></g><g fill="#000000" fill-opacity="1"><g transform="translate(67.640933, 90.289863)"><g><path d="M 4.433594 -2.648438 C 4.714844 -2.648438 4.964844 -2.761719 5.214844 -2.984375 C 5.4375 -3.179688 5.632812 -3.375 5.828125 -3.597656 C 6.109375 -3.960938 6.386719 -4.378906 6.691406 -4.796875 L 7.863281 -6.636719 C 8.003906 -6.832031 8.117188 -7.054688 8.253906 -7.277344 C 8.367188 -7.5 8.476562 -7.726562 8.617188 -7.949219 C 8.699219 -8.085938 8.730469 -8.226562 8.757812 -8.3125 C 8.757812 -8.3125 8.757812 -8.339844 8.757812 -8.421875 C 8.730469 -8.5625 8.617188 -8.617188 8.421875 -8.617188 C 8.339844 -8.617188 8.28125 -8.589844 8.253906 -8.535156 C 8.144531 -8.421875 8.058594 -8.28125 8.003906 -8.144531 C 7.417969 -7.027344 5.914062 -4.65625 5.019531 -3.765625 C 4.9375 -3.679688 4.851562 -3.625 4.769531 -3.570312 C 4.683594 -3.484375 4.601562 -3.429688 4.488281 -3.375 C 4.460938 -3.375 4.460938 -3.375 4.460938 -3.375 C 4.460938 -3.347656 4.460938 -3.347656 4.433594 -3.347656 C 4.351562 -3.347656 4.292969 -3.402344 4.238281 -3.484375 C 4.15625 -3.792969 4.238281 -4.097656 4.265625 -4.40625 C 4.460938 -5.328125 4.628906 -6.191406 4.964844 -7.054688 C 5.1875 -7.585938 5.410156 -8.117188 5.605469 -8.644531 C 5.746094 -8.839844 6.191406 -10.09375 6.191406 -10.234375 C 6.21875 -10.375 6.164062 -10.457031 6.050781 -10.515625 C 5.96875 -10.597656 5.882812 -10.625 5.773438 -10.625 C 5.632812 -10.625 5.523438 -10.570312 5.4375 -10.429688 C 5.328125 -10.234375 5.214844 -10.09375 5.105469 -9.957031 L 4.265625 -8.757812 C 4.183594 -8.671875 4.128906 -8.617188 4.070312 -8.589844 C 4.070312 -8.589844 4.042969 -8.589844 3.960938 -8.589844 L 3.820312 -8.894531 C 3.484375 -9.425781 3.011719 -9.675781 2.425781 -9.675781 C 2.0625 -9.675781 1.703125 -9.566406 1.367188 -9.316406 C 1.144531 -9.121094 0.949219 -8.925781 0.753906 -8.617188 C 0.640625 -8.421875 0.53125 -8.253906 0.417969 -8.085938 C 0.308594 -7.890625 0.195312 -7.695312 0.0820312 -7.5 C -0.25 -6.859375 -0.417969 -6.164062 -0.417969 -5.410156 C -0.335938 -4.742188 0.167969 -4.378906 0.808594 -4.292969 L 0.976562 -4.292969 C 1.171875 -4.292969 1.339844 -4.351562 1.449219 -4.433594 C 1.980469 -4.878906 2.398438 -5.296875 2.84375 -5.828125 C 2.929688 -5.914062 2.984375 -5.96875 3.066406 -6.050781 L 3.125 -6.050781 C 3.179688 -5.996094 3.207031 -5.96875 3.207031 -5.96875 C 3.207031 -5.941406 3.207031 -5.882812 3.207031 -5.855469 C 3.179688 -5.800781 3.179688 -5.746094 3.179688 -5.71875 C 3.152344 -5.492188 3.09375 -5.269531 3.066406 -5.046875 C 3.011719 -4.824219 2.984375 -4.601562 2.957031 -4.351562 C 2.957031 -3.484375 3.457031 -2.648438 4.433594 -2.648438 Z M 0.976562 -5.242188 C 0.890625 -5.269531 0.863281 -5.382812 0.863281 -5.523438 C 1.003906 -6.527344 2.035156 -9.148438 2.929688 -9.148438 C 3.039062 -9.148438 3.125 -9.089844 3.179688 -8.980469 C 3.261719 -8.867188 3.289062 -8.785156 3.320312 -8.730469 C 3.347656 -8.535156 3.457031 -8.394531 3.679688 -8.3125 C 3.765625 -8.28125 3.792969 -8.199219 3.765625 -8.085938 C 3.765625 -8.085938 3.738281 -8.058594 3.710938 -8.03125 C 3.066406 -7.167969 2.453125 -6.414062 1.671875 -5.660156 C 1.589844 -5.578125 1.507812 -5.523438 1.421875 -5.464844 C 1.339844 -5.410156 1.226562 -5.355469 1.144531 -5.269531 C 1.117188 -5.242188 1.058594 -5.242188 0.976562 -5.242188 Z M 0.976562 -5.242188 "/></g></g></g><g fill="#000000" fill-opacity="1"><g transform="translate(75.003056, 90.289863)"><g><path d="M 1.421875 -0.890625 C 2.285156 -0.890625 3.039062 -2.121094 3.347656 -2.898438 C 3.875 -3.933594 4.378906 -5.019531 4.796875 -6.136719 C 4.910156 -6.441406 5.019531 -6.722656 5.160156 -7.027344 C 5.296875 -7.335938 5.410156 -7.640625 5.550781 -7.949219 C 5.578125 -8.03125 5.632812 -8.117188 5.660156 -8.199219 C 5.6875 -8.253906 5.71875 -8.339844 5.746094 -8.421875 C 5.773438 -8.507812 5.71875 -8.5625 5.632812 -8.644531 C 5.578125 -8.671875 5.492188 -8.699219 5.410156 -8.699219 C 4.992188 -8.699219 4.742188 -8.03125 4.628906 -7.726562 C 4.546875 -7.53125 4.460938 -7.308594 4.378906 -7.113281 C 4.292969 -6.917969 4.238281 -6.691406 4.15625 -6.496094 C 3.597656 -5.019531 2.789062 -3.039062 1.8125 -1.8125 C 1.730469 -1.730469 1.671875 -1.671875 1.617188 -1.644531 C 1.5625 -1.644531 1.535156 -1.644531 1.507812 -1.671875 C 1.476562 -1.703125 1.449219 -1.730469 1.449219 -1.757812 C 1.449219 -1.785156 1.449219 -1.8125 1.421875 -1.839844 C 1.3125 -2.148438 1.3125 -2.398438 1.3125 -2.707031 C 1.199219 -4.714844 1.421875 -6.636719 1.839844 -8.5625 C 1.867188 -8.757812 1.980469 -8.894531 2.089844 -9.089844 C 3.234375 -10.515625 5.464844 -13.496094 5.882812 -15.3125 C 5.941406 -15.617188 5.96875 -15.925781 5.941406 -16.175781 C 5.855469 -16.675781 5.523438 -16.957031 4.992188 -17.011719 C 4.128906 -17.011719 3.765625 -16.539062 3.320312 -15.894531 C 1.339844 -13.023438 0.0820312 -7.25 0.0820312 -3.652344 C 0.0546875 -3.234375 0.113281 -2.675781 0.195312 -2.089844 C 0.195312 -1.449219 0.503906 -1.03125 1.144531 -0.921875 C 1.199219 -0.890625 1.28125 -0.890625 1.421875 -0.890625 Z M 2.511719 -10.988281 L 2.480469 -11.015625 C 2.480469 -11.042969 2.480469 -11.097656 2.480469 -11.128906 C 2.453125 -11.15625 2.453125 -11.183594 2.480469 -11.210938 C 2.957031 -12.996094 3.570312 -14.585938 4.65625 -16.0625 C 4.742188 -16.148438 4.964844 -16.34375 5.046875 -16.34375 C 5.105469 -16.34375 5.160156 -16.316406 5.1875 -16.230469 L 5.1875 -15.980469 C 5.132812 -14.753906 3.515625 -12.132812 2.761719 -11.183594 C 2.707031 -11.097656 2.648438 -11.042969 2.566406 -10.988281 Z M 2.511719 -10.988281 "/></g></g></g><g fill="#000000" fill-opacity="1"><g transform="translate(79.130307, 90.289863)"><g><path d="M 0.921875 -2.257812 C 1.617188 -2.257812 2.121094 -2.761719 2.539062 -3.234375 C 2.984375 -3.792969 3.402344 -4.378906 3.820312 -4.964844 C 4.128906 -5.4375 4.460938 -5.941406 4.769531 -6.414062 C 5.074219 -6.886719 5.382812 -7.363281 5.6875 -7.835938 C 5.71875 -7.921875 5.800781 -8.03125 5.882812 -8.171875 C 5.96875 -8.3125 6.023438 -8.449219 6.023438 -8.535156 C 6.023438 -8.5625 5.996094 -8.617188 5.96875 -8.644531 C 5.914062 -8.730469 5.828125 -8.757812 5.71875 -8.757812 C 5.632812 -8.757812 5.550781 -8.730469 5.492188 -8.671875 C 5.464844 -8.644531 5.4375 -8.589844 5.4375 -8.5625 C 5.410156 -8.535156 5.382812 -8.476562 5.355469 -8.449219 L 3.679688 -5.941406 C 3.347656 -5.382812 1.644531 -2.984375 1.03125 -2.984375 C 0.921875 -2.984375 0.835938 -3.09375 0.808594 -3.289062 L 0.808594 -3.484375 C 0.78125 -4.15625 0.835938 -4.851562 0.949219 -5.523438 L 1.117188 -6.21875 C 1.171875 -6.414062 1.28125 -6.527344 1.449219 -6.554688 C 1.589844 -6.582031 1.703125 -6.636719 1.8125 -6.664062 C 1.925781 -6.691406 2.035156 -6.722656 2.148438 -6.777344 C 2.898438 -7.222656 3.679688 -7.890625 3.933594 -8.785156 C 4.128906 -9.371094 3.960938 -9.761719 3.402344 -10.011719 C 3.152344 -10.152344 2.957031 -10.152344 2.648438 -10.152344 C 2.425781 -10.152344 2.203125 -10.066406 1.953125 -9.929688 C 1.730469 -9.761719 1.5625 -9.59375 1.421875 -9.453125 C 1.085938 -9.121094 0.808594 -8.699219 0.585938 -8.28125 C -0.167969 -6.75 -0.503906 -5.160156 -0.390625 -3.515625 L -0.308594 -3.066406 C -0.167969 -2.511719 0.390625 -2.257812 0.921875 -2.257812 Z M 1.535156 -7.140625 C 1.449219 -7.167969 1.449219 -7.222656 1.476562 -7.308594 C 1.644531 -7.863281 2.480469 -9.566406 3.09375 -9.566406 C 3.207031 -9.566406 3.289062 -9.511719 3.320312 -9.371094 L 3.320312 -9.316406 C 3.320312 -8.535156 2.371094 -7.417969 1.644531 -7.140625 C 1.617188 -7.113281 1.5625 -7.113281 1.535156 -7.140625 Z M 1.535156 -7.140625 "/></g></g></g><g fill="#000000" fill-opacity="1"><g transform="translate(83.759519, 90.289863)"><g><path d="M 3.90625 -1.507812 C 4.097656 -1.507812 4.292969 -1.5625 4.460938 -1.644531 C 4.65625 -1.785156 4.851562 -1.953125 4.992188 -2.148438 L 5.492188 -2.898438 C 5.855469 -3.542969 6.246094 -4.183594 6.609375 -4.824219 C 6.972656 -5.4375 7.335938 -6.078125 7.695312 -6.722656 C 7.835938 -6.972656 7.976562 -7.222656 8.085938 -7.472656 C 8.199219 -7.726562 8.3125 -8.003906 8.449219 -8.253906 C 8.535156 -8.394531 8.449219 -8.507812 8.253906 -8.535156 C 8.226562 -8.5625 8.171875 -8.5625 8.117188 -8.5625 C 8.003906 -8.5625 7.921875 -8.507812 7.863281 -8.421875 L 7.585938 -7.890625 C 6.722656 -6.21875 5.773438 -4.628906 4.683594 -3.066406 C 4.574219 -2.929688 4.460938 -2.789062 4.324219 -2.675781 C 4.324219 -2.648438 4.292969 -2.648438 4.210938 -2.648438 C 4.210938 -2.675781 4.210938 -2.675781 4.183594 -2.707031 C 4.097656 -2.929688 4.183594 -3.152344 4.210938 -3.375 C 4.433594 -4.488281 4.683594 -5.578125 4.992188 -6.691406 L 5.660156 -9.285156 C 5.71875 -9.566406 5.746094 -9.84375 5.746094 -10.125 C 5.71875 -10.375 5.605469 -10.542969 5.4375 -10.625 L 5.269531 -10.710938 C 5.214844 -10.738281 5.132812 -10.765625 5.019531 -10.765625 C 4.65625 -10.765625 4.097656 -9.929688 3.933594 -9.59375 L 2.59375 -7.113281 C 2.230469 -6.46875 1.8125 -5.855469 1.394531 -5.214844 C 1.367188 -5.1875 1.339844 -5.160156 1.253906 -5.132812 C 1.171875 -5.105469 1.144531 -5.160156 1.144531 -5.328125 C 1.144531 -5.464844 1.144531 -5.578125 1.171875 -5.660156 C 1.253906 -6.023438 1.3125 -6.414062 1.394531 -6.804688 C 1.449219 -7.195312 1.535156 -7.585938 1.617188 -7.976562 C 1.644531 -8.171875 1.703125 -8.367188 1.757812 -8.5625 C 1.785156 -8.730469 1.839844 -8.925781 1.867188 -9.121094 C 1.894531 -9.285156 1.8125 -9.398438 1.671875 -9.480469 L 1.507812 -9.566406 L 1.449219 -9.566406 C 1.253906 -9.566406 1.144531 -9.425781 1.058594 -9.230469 L 0.808594 -8.5625 C 0.390625 -7.308594 0.167969 -6.023438 0.0546875 -4.714844 C 0 -4.292969 0.167969 -4.015625 0.53125 -3.847656 L 0.640625 -3.820312 C 0.78125 -3.765625 0.921875 -3.738281 1.003906 -3.738281 C 1.226562 -3.738281 1.394531 -3.820312 1.535156 -4.015625 C 1.671875 -4.15625 1.785156 -4.292969 1.867188 -4.488281 C 2.316406 -5.242188 2.761719 -6.023438 3.179688 -6.777344 L 4.324219 -8.839844 C 4.351562 -8.925781 4.40625 -8.980469 4.433594 -9.007812 L 4.546875 -9.007812 C 4.546875 -9.007812 4.546875 -8.980469 4.574219 -8.953125 L 4.40625 -8.339844 C 4.042969 -7.195312 3.679688 -6.078125 3.375 -4.878906 C 3.125 -3.90625 3.011719 -3.152344 3.011719 -2.175781 C 3.039062 -1.980469 3.125 -1.867188 3.261719 -1.785156 C 3.457031 -1.617188 3.652344 -1.535156 3.90625 -1.507812 Z M 3.90625 -1.507812 "/></g></g></g><g fill="#000000" fill-opacity="1"><g transform="translate(90.842768, 90.289863)"><g><path d="M 0.0546875 0.949219 C 0.53125 0.949219 0.835938 0.890625 1.144531 0.472656 L 1.3125 0.277344 C 1.839844 -0.472656 2.34375 -1.199219 2.761719 -1.980469 C 2.898438 -2.285156 3.039062 -2.539062 3.234375 -2.84375 L 4.15625 -4.433594 C 4.460938 -5.019531 4.796875 -5.578125 5.105469 -6.164062 C 5.410156 -6.722656 5.746094 -7.308594 6.050781 -7.890625 C 6.109375 -7.976562 6.164062 -8.085938 6.246094 -8.226562 C 6.273438 -8.367188 6.246094 -8.449219 6.136719 -8.507812 C 6.050781 -8.5625 5.996094 -8.589844 5.914062 -8.589844 C 5.855469 -8.589844 5.800781 -8.5625 5.773438 -8.535156 L 5.578125 -8.28125 L 4.65625 -6.609375 C 4.433594 -6.246094 4.238281 -5.882812 4.015625 -5.464844 C 3.597656 -4.769531 3.207031 -4.042969 2.816406 -3.347656 C 2.398438 -2.621094 1.980469 -1.894531 1.5625 -1.199219 C 1.339844 -0.835938 1.058594 -0.472656 0.808594 -0.140625 C 0.78125 -0.0820312 0.726562 -0.0273438 0.695312 0.0546875 C 0.667969 0.113281 0.613281 0.140625 0.53125 0.113281 C 0.445312 0.0820312 0.390625 0.0273438 0.390625 -0.0546875 C 0.363281 -0.140625 0.363281 -0.195312 0.335938 -0.277344 C 0.335938 -2.929688 1.03125 -5.492188 1.785156 -7.976562 C 1.867188 -8.144531 2.816406 -11.238281 2.957031 -11.378906 C 3.011719 -11.460938 3.066406 -11.519531 3.152344 -11.574219 C 3.679688 -11.851562 6.496094 -12.269531 7.195312 -12.355469 C 7.863281 -12.4375 8.589844 -12.523438 9.230469 -12.746094 C 9.285156 -12.773438 9.34375 -12.828125 9.371094 -12.914062 C 9.425781 -13.050781 9.398438 -13.21875 9.257812 -13.386719 C 9.203125 -13.441406 9.148438 -13.46875 9.0625 -13.46875 L 7.585938 -13.191406 C 7.222656 -13.136719 6.886719 -13.078125 6.527344 -13.023438 C 6.164062 -12.96875 5.828125 -12.914062 5.464844 -12.828125 C 5.160156 -12.800781 4.878906 -12.746094 4.601562 -12.6875 C 4.292969 -12.605469 4.015625 -12.550781 3.738281 -12.523438 C 3.679688 -12.492188 3.625 -12.492188 3.542969 -12.492188 C 3.484375 -12.550781 3.457031 -12.578125 3.457031 -12.605469 C 3.457031 -12.660156 3.484375 -12.773438 3.515625 -12.914062 C 3.625 -13.21875 3.738281 -13.554688 3.847656 -13.859375 C 3.933594 -14.167969 4.042969 -14.472656 4.15625 -14.78125 C 4.183594 -14.921875 4.210938 -15.058594 4.210938 -15.171875 C 4.238281 -15.226562 4.210938 -15.28125 4.15625 -15.339844 C 4.070312 -15.476562 3.933594 -15.5625 3.792969 -15.5625 C 3.429688 -15.5625 3.179688 -14.753906 2.984375 -14.472656 C 2.675781 -13.886719 2.425781 -13.332031 2.175781 -12.6875 C 1.8125 -11.992188 1.980469 -12.160156 1.226562 -11.9375 C 1.199219 -11.910156 1.171875 -11.910156 1.117188 -11.910156 C 0.753906 -11.824219 0.417969 -11.714844 0.0820312 -11.628906 C -0.25 -11.546875 -0.585938 -11.433594 -0.921875 -11.351562 C -0.976562 -11.324219 -1.03125 -11.324219 -1.085938 -11.292969 C -1.144531 -11.265625 -1.199219 -11.210938 -1.28125 -11.183594 C -1.3125 -11.15625 -1.3125 -11.128906 -1.3125 -11.070312 C -1.28125 -10.933594 -1.144531 -10.765625 -1.03125 -10.765625 C -0.949219 -10.738281 -0.890625 -10.738281 -0.835938 -10.738281 C -0.753906 -10.738281 -0.695312 -10.738281 -0.640625 -10.738281 C -0.445312 -10.765625 -0.277344 -10.820312 -0.113281 -10.847656 C 0.0546875 -10.875 0.222656 -10.933594 0.390625 -10.960938 C 0.53125 -10.988281 0.667969 -11.042969 0.808594 -11.070312 C 0.949219 -11.097656 1.085938 -11.128906 1.226562 -11.15625 L 1.28125 -11.15625 C 1.476562 -11.15625 1.5625 -11.070312 1.476562 -10.902344 C 1.449219 -10.765625 1.394531 -10.625 1.339844 -10.484375 C 1.28125 -10.347656 1.226562 -10.234375 1.199219 -10.09375 C 0.167969 -7.082031 -0.53125 -4.128906 -0.835938 -0.976562 C -0.835938 -0.613281 -0.808594 -0.277344 -0.726562 0.0820312 C -0.613281 0.503906 -0.417969 0.863281 0.0546875 0.949219 Z M 0.0546875 0.949219 "/></g></g></g><g fill="#000000" fill-opacity="1"><g transform="translate(95.6393, 90.289863)"><g><path d="M 0.726562 -3.152344 C 1.085938 -3.152344 1.421875 -3.402344 1.671875 -3.625 C 2.203125 -4.183594 2.675781 -4.769531 3.09375 -5.410156 C 3.347656 -5.828125 3.597656 -6.246094 3.847656 -6.664062 C 4.097656 -7.054688 4.351562 -7.445312 4.601562 -7.863281 L 4.824219 -8.28125 C 4.910156 -8.394531 4.769531 -8.5625 4.628906 -8.589844 C 4.601562 -8.617188 4.546875 -8.617188 4.460938 -8.617188 C 4.351562 -8.617188 4.238281 -8.5625 4.128906 -8.421875 C 4.042969 -8.3125 3.988281 -8.199219 3.933594 -8.117188 C 3.875 -8.003906 3.820312 -7.890625 3.738281 -7.808594 L 2.707031 -6.050781 L 2.0625 -5.132812 C 1.839844 -4.824219 1.5625 -4.574219 1.253906 -4.265625 C 1.226562 -4.238281 1.199219 -4.238281 1.171875 -4.210938 C 1.144531 -4.183594 1.117188 -4.183594 1.085938 -4.15625 C 1.058594 -4.128906 1.03125 -4.128906 0.976562 -4.128906 C 0.890625 -4.15625 0.863281 -4.183594 0.863281 -4.265625 C 0.890625 -4.519531 0.921875 -4.742188 0.949219 -4.964844 C 0.976562 -5.1875 1.003906 -5.410156 1.03125 -5.632812 C 1.171875 -6.386719 1.339844 -7.054688 1.535156 -7.808594 L 1.703125 -8.507812 C 1.730469 -8.671875 1.703125 -8.785156 1.5625 -8.839844 C 1.421875 -8.925781 1.339844 -8.953125 1.339844 -8.953125 L 1.253906 -8.953125 C 1.03125 -8.953125 0.921875 -8.785156 0.835938 -8.589844 C 0.140625 -7.25 -0.195312 -5.855469 -0.195312 -4.433594 C -0.195312 -4.324219 -0.195312 -4.210938 -0.195312 -4.097656 C -0.195312 -3.988281 -0.167969 -3.875 -0.140625 -3.792969 C -0.0546875 -3.375 0.308594 -3.152344 0.726562 -3.152344 Z M 1.980469 -10.457031 C 2.0625 -10.457031 2.148438 -10.457031 2.175781 -10.457031 C 2.203125 -10.457031 2.257812 -10.484375 2.34375 -10.515625 C 2.539062 -10.652344 2.621094 -11.015625 2.480469 -11.210938 C 2.398438 -11.292969 2.316406 -11.40625 2.230469 -11.546875 C 2.121094 -11.683594 1.980469 -11.742188 1.839844 -11.742188 C 1.703125 -11.742188 1.589844 -11.683594 1.535156 -11.574219 C 1.449219 -11.40625 1.421875 -11.210938 1.421875 -10.988281 C 1.421875 -10.792969 1.507812 -10.625 1.703125 -10.542969 C 1.757812 -10.515625 1.8125 -10.484375 1.867188 -10.484375 C 1.894531 -10.484375 1.953125 -10.484375 1.980469 -10.457031 Z M 1.980469 -10.457031 "/></g></g></g><g fill="#000000" fill-opacity="1"><g transform="translate(99.09727, 90.289863)"><g><path d="M 3.90625 -1.507812 C 4.097656 -1.507812 4.292969 -1.5625 4.460938 -1.644531 C 4.65625 -1.785156 4.851562 -1.953125 4.992188 -2.148438 L 5.492188 -2.898438 C 5.855469 -3.542969 6.246094 -4.183594 6.609375 -4.824219 C 6.972656 -5.4375 7.335938 -6.078125 7.695312 -6.722656 C 7.835938 -6.972656 7.976562 -7.222656 8.085938 -7.472656 C 8.199219 -7.726562 8.3125 -8.003906 8.449219 -8.253906 C 8.535156 -8.394531 8.449219 -8.507812 8.253906 -8.535156 C 8.226562 -8.5625 8.171875 -8.5625 8.117188 -8.5625 C 8.003906 -8.5625 7.921875 -8.507812 7.863281 -8.421875 L 7.585938 -7.890625 C 6.722656 -6.21875 5.773438 -4.628906 4.683594 -3.066406 C 4.574219 -2.929688 4.460938 -2.789062 4.324219 -2.675781 C 4.324219 -2.648438 4.292969 -2.648438 4.210938 -2.648438 C 4.210938 -2.675781 4.210938 -2.675781 4.183594 -2.707031 C 4.097656 -2.929688 4.183594 -3.152344 4.210938 -3.375 C 4.433594 -4.488281 4.683594 -5.578125 4.992188 -6.691406 L 5.660156 -9.285156 C 5.71875 -9.566406 5.746094 -9.84375 5.746094 -10.125 C 5.71875 -10.375 5.605469 -10.542969 5.4375 -10.625 L 5.269531 -10.710938 C 5.214844 -10.738281 5.132812 -10.765625 5.019531 -10.765625 C 4.65625 -10.765625 4.097656 -9.929688 3.933594 -9.59375 L 2.59375 -7.113281 C 2.230469 -6.46875 1.8125 -5.855469 1.394531 -5.214844 C 1.367188 -5.1875 1.339844 -5.160156 1.253906 -5.132812 C 1.171875 -5.105469 1.144531 -5.160156 1.144531 -5.328125 C 1.144531 -5.464844 1.144531 -5.578125 1.171875 -5.660156 C 1.253906 -6.023438 1.3125 -6.414062 1.394531 -6.804688 C 1.449219 -7.195312 1.535156 -7.585938 1.617188 -7.976562 C 1.644531 -8.171875 1.703125 -8.367188 1.757812 -8.5625 C 1.785156 -8.730469 1.839844 -8.925781 1.867188 -9.121094 C 1.894531 -9.285156 1.8125 -9.398438 1.671875 -9.480469 L 1.507812 -9.566406 L 1.449219 -9.566406 C 1.253906 -9.566406 1.144531 -9.425781 1.058594 -9.230469 L 0.808594 -8.5625 C 0.390625 -7.308594 0.167969 -6.023438 0.0546875 -4.714844 C 0 -4.292969 0.167969 -4.015625 0.53125 -3.847656 L 0.640625 -3.820312 C 0.78125 -3.765625 0.921875 -3.738281 1.003906 -3.738281 C 1.226562 -3.738281 1.394531 -3.820312 1.535156 -4.015625 C 1.671875 -4.15625 1.785156 -4.292969 1.867188 -4.488281 C 2.316406 -5.242188 2.761719 -6.023438 3.179688 -6.777344 L 4.324219 -8.839844 C 4.351562 -8.925781 4.40625 -8.980469 4.433594 -9.007812 L 4.546875 -9.007812 C 4.546875 -9.007812 4.546875 -8.980469 4.574219 -8.953125 L 4.40625 -8.339844 C 4.042969 -7.195312 3.679688 -6.078125 3.375 -4.878906 C 3.125 -3.90625 3.011719 -3.152344 3.011719 -2.175781 C 3.039062 -1.980469 3.125 -1.867188 3.261719 -1.785156 C 3.457031 -1.617188 3.652344 -1.535156 3.90625 -1.507812 Z M 3.90625 -1.507812 "/></g></g></g><g fill="#000000" fill-opacity="1"><g transform="translate(106.180519, 90.289863)"><g><path d="M 0.921875 -2.257812 C 1.617188 -2.257812 2.121094 -2.761719 2.539062 -3.234375 C 2.984375 -3.792969 3.402344 -4.378906 3.820312 -4.964844 C 4.128906 -5.4375 4.460938 -5.941406 4.769531 -6.414062 C 5.074219 -6.886719 5.382812 -7.363281 5.6875 -7.835938 C 5.71875 -7.921875 5.800781 -8.03125 5.882812 -8.171875 C 5.96875 -8.3125 6.023438 -8.449219 6.023438 -8.535156 C 6.023438 -8.5625 5.996094 -8.617188 5.96875 -8.644531 C 5.914062 -8.730469 5.828125 -8.757812 5.71875 -8.757812 C 5.632812 -8.757812 5.550781 -8.730469 5.492188 -8.671875 C 5.464844 -8.644531 5.4375 -8.589844 5.4375 -8.5625 C 5.410156 -8.535156 5.382812 -8.476562 5.355469 -8.449219 L 3.679688 -5.941406 C 3.347656 -5.382812 1.644531 -2.984375 1.03125 -2.984375 C 0.921875 -2.984375 0.835938 -3.09375 0.808594 -3.289062 L 0.808594 -3.484375 C 0.78125 -4.15625 0.835938 -4.851562 0.949219 -5.523438 L 1.117188 -6.21875 C 1.171875 -6.414062 1.28125 -6.527344 1.449219 -6.554688 C 1.589844 -6.582031 1.703125 -6.636719 1.8125 -6.664062 C 1.925781 -6.691406 2.035156 -6.722656 2.148438 -6.777344 C 2.898438 -7.222656 3.679688 -7.890625 3.933594 -8.785156 C 4.128906 -9.371094 3.960938 -9.761719 3.402344 -10.011719 C 3.152344 -10.152344 2.957031 -10.152344 2.648438 -10.152344 C 2.425781 -10.152344 2.203125 -10.066406 1.953125 -9.929688 C 1.730469 -9.761719 1.5625 -9.59375 1.421875 -9.453125 C 1.085938 -9.121094 0.808594 -8.699219 0.585938 -8.28125 C -0.167969 -6.75 -0.503906 -5.160156 -0.390625 -3.515625 L -0.308594 -3.066406 C -0.167969 -2.511719 0.390625 -2.257812 0.921875 -2.257812 Z M 1.535156 -7.140625 C 1.449219 -7.167969 1.449219 -7.222656 1.476562 -7.308594 C 1.644531 -7.863281 2.480469 -9.566406 3.09375 -9.566406 C 3.207031 -9.566406 3.289062 -9.511719 3.320312 -9.371094 L 3.320312 -9.316406 C 3.320312 -8.535156 2.371094 -7.417969 1.644531 -7.140625 C 1.617188 -7.113281 1.5625 -7.113281 1.535156 -7.140625 Z M 1.535156 -7.140625 "/></g></g></g></svg>