<svg xmlns="http://www.w3.org/2000/svg" xmlns:xlink="http://www.w3.org/1999/xlink" width="170" zoomAndPan="magnify" viewBox="0 0 127.5 107.249998" height="143" preserveAspectRatio="xMidYMid meet" version="1.0"><defs><g/><clipPath id="b555d095d6"><path d="M 56 5.070312 L 71 5.070312 L 71 18 L 56 18 Z M 56 5.070312 " clip-rule="nonzero"/></clipPath><clipPath id="7758ca0090"><path d="M 39 17 L 88 17 L 88 76.570312 L 39 76.570312 Z M 39 17 " clip-rule="nonzero"/></clipPath></defs><g clip-path="url(#b555d095d6)"><path fill="#ce8763" d="M 57.667969 17.488281 C 57.667969 17.488281 56.191406 7.777344 56.945312 7.085938 C 59.148438 5.070312 69.070312 5.78125 70.328125 7.242188 C 71.605469 8.722656 69.109375 16.609375 69.109375 16.609375 Z M 57.667969 17.488281 " fill-opacity="1" fill-rule="nonzero"/></g><g clip-path="url(#7758ca0090)"><path fill="#d3e6f0" d="M 86.257812 40.398438 C 82.804688 36.019531 71.703125 33.046875 71.074219 30.074219 C 70.449219 27.101562 70.761719 17.714844 70.761719 17.714844 L 55.777344 17.714844 C 55.777344 17.714844 56.089844 27.101562 55.460938 30.074219 C 54.835938 33.046875 43.734375 36.019531 40.28125 40.398438 C 36.828125 44.78125 44.046875 69.734375 49.695312 75.484375 C 50.761719 76.570312 75.773438 76.570312 76.839844 75.484375 C 82.492188 69.734375 89.707031 44.78125 86.257812 40.398438 Z M 86.257812 40.398438 " fill-opacity="1" fill-rule="nonzero"/></g><path fill="#ebf8ff" d="M 63.269531 75.273438 C 56.015625 75.273438 51.273438 74.964844 50.328125 74.664062 C 44.757812 68.785156 38.136719 44.777344 41.089844 41.03125 C 42.671875 39.023438 46.234375 37.222656 49.375 35.632812 C 53.105469 33.742188 56.050781 32.253906 56.46875 30.285156 C 56.992188 27.800781 56.894531 21.308594 56.832031 18.738281 L 69.707031 18.738281 C 69.644531 21.308594 69.546875 27.800781 70.070312 30.285156 C 70.488281 32.253906 73.433594 33.742188 77.160156 35.632812 C 80.304688 37.222656 83.867188 39.023438 85.449219 41.03125 C 88.402344 44.777344 81.777344 68.785156 76.210938 74.664062 C 75.265625 74.964844 70.523438 75.273438 63.269531 75.273438 Z M 63.269531 75.273438 " fill-opacity="1" fill-rule="nonzero"/><path fill="#b1d3e6" d="M 55.917969 13.492188 L 71.46875 13.492188 C 71.800781 13.492188 72.121094 13.554688 72.429688 13.683594 C 72.734375 13.808594 73.007812 13.988281 73.242188 14.222656 C 73.476562 14.457031 73.660156 14.730469 73.785156 15.035156 C 73.914062 15.34375 73.976562 15.660156 73.976562 15.992188 L 73.976562 18.984375 C 73.976562 19.316406 73.914062 19.636719 73.785156 19.941406 C 73.660156 20.25 73.476562 20.519531 73.242188 20.753906 C 73.007812 20.988281 72.734375 21.171875 72.429688 21.296875 C 72.121094 21.425781 71.800781 21.488281 71.46875 21.488281 L 55.917969 21.488281 C 55.585938 21.488281 55.265625 21.425781 54.957031 21.296875 C 54.652344 21.171875 54.378906 20.988281 54.144531 20.753906 C 53.910156 20.519531 53.726562 20.25 53.601562 19.941406 C 53.472656 19.636719 53.410156 19.316406 53.410156 18.984375 L 53.410156 15.992188 C 53.410156 15.660156 53.472656 15.34375 53.601562 15.035156 C 53.726562 14.730469 53.910156 14.457031 54.144531 14.222656 C 54.378906 13.988281 54.652344 13.808594 54.957031 13.683594 C 55.265625 13.554688 55.585938 13.492188 55.917969 13.492188 Z M 55.917969 13.492188 " fill-opacity="1" fill-rule="nonzero"/><path fill="#bd7c5b" d="M 69.210938 9.054688 C 69.210938 9.195312 69.140625 9.261719 69.003906 9.261719 C 68.863281 9.261719 68.792969 9.195312 68.792969 9.054688 C 68.792969 8.914062 68.863281 8.84375 69.003906 8.84375 C 69.140625 8.84375 69.210938 8.914062 69.210938 9.054688 Z M 69.210938 9.054688 " fill-opacity="1" fill-rule="nonzero"/><path fill="#bd7c5b" d="M 67.996094 13.152344 C 67.996094 13.292969 67.925781 13.363281 67.785156 13.363281 C 67.644531 13.363281 67.574219 13.292969 67.574219 13.152344 C 67.574219 13.011719 67.644531 12.941406 67.785156 12.941406 C 67.925781 12.941406 67.996094 13.011719 67.996094 13.152344 Z M 67.996094 13.152344 " fill-opacity="1" fill-rule="nonzero"/><path fill="#bd7c5b" d="M 65.472656 8.636719 C 65.472656 8.773438 65.402344 8.84375 65.265625 8.84375 C 65.125 8.84375 65.054688 8.773438 65.054688 8.636719 C 65.054688 8.496094 65.125 8.425781 65.265625 8.425781 C 65.402344 8.425781 65.472656 8.496094 65.472656 8.636719 Z M 65.472656 8.636719 " fill-opacity="1" fill-rule="nonzero"/><path fill="#bd7c5b" d="M 67.023438 7.171875 C 67.023438 7.3125 66.953125 7.382812 66.8125 7.382812 C 66.671875 7.382812 66.605469 7.3125 66.605469 7.171875 C 66.605469 7.03125 66.671875 6.960938 66.8125 6.960938 C 66.953125 6.960938 67.023438 7.03125 67.023438 7.171875 Z M 67.023438 7.171875 " fill-opacity="1" fill-rule="nonzero"/><path fill="#bd7c5b" d="M 61.902344 7.824219 C 61.902344 7.964844 61.835938 8.03125 61.695312 8.03125 C 61.554688 8.03125 61.484375 7.964844 61.484375 7.824219 C 61.484375 7.683594 61.554688 7.613281 61.695312 7.613281 C 61.835938 7.613281 61.902344 7.683594 61.902344 7.824219 Z M 61.902344 7.824219 " fill-opacity="1" fill-rule="nonzero"/><path fill="#bd7c5b" d="M 59.105469 10.304688 C 59.105469 10.445312 59.035156 10.515625 58.894531 10.515625 C 58.753906 10.515625 58.683594 10.445312 58.683594 10.304688 C 58.683594 10.164062 58.753906 10.09375 58.894531 10.09375 C 59.035156 10.09375 59.105469 10.164062 59.105469 10.304688 Z M 59.105469 10.304688 " fill-opacity="1" fill-rule="nonzero"/><path fill="#bd7c5b" d="M 63.339844 10.09375 C 63.339844 10.234375 63.273438 10.304688 63.132812 10.304688 C 62.992188 10.304688 62.921875 10.234375 62.921875 10.09375 C 62.921875 9.957031 62.992188 9.886719 63.132812 9.886719 C 63.273438 9.886719 63.339844 9.957031 63.339844 10.09375 Z M 63.339844 10.09375 " fill-opacity="1" fill-rule="nonzero"/><path fill="#bd7c5b" d="M 61.558594 11.617188 C 61.558594 11.753906 61.488281 11.824219 61.347656 11.824219 C 61.210938 11.824219 61.140625 11.753906 61.140625 11.617188 C 61.140625 11.476562 61.210938 11.40625 61.347656 11.40625 C 61.488281 11.40625 61.558594 11.476562 61.558594 11.617188 Z M 61.558594 11.617188 " fill-opacity="1" fill-rule="nonzero"/><path fill="#bd7c5b" d="M 65.265625 12.941406 C 65.265625 13.082031 65.195312 13.152344 65.054688 13.152344 C 64.914062 13.152344 64.84375 13.082031 64.84375 12.941406 C 64.84375 12.804688 64.914062 12.734375 65.054688 12.734375 C 65.195312 12.734375 65.265625 12.804688 65.265625 12.941406 Z M 65.265625 12.941406 " fill-opacity="1" fill-rule="nonzero"/><path fill="#bd7c5b" d="M 66.546875 11.617188 C 66.546875 11.753906 66.476562 11.824219 66.335938 11.824219 C 66.195312 11.824219 66.125 11.753906 66.125 11.617188 C 66.125 11.476562 66.195312 11.40625 66.335938 11.40625 C 66.476562 11.40625 66.546875 11.476562 66.546875 11.617188 Z M 66.546875 11.617188 " fill-opacity="1" fill-rule="nonzero"/><path fill="#bd7c5b" d="M 66.648438 9.679688 C 66.648438 9.765625 66.617188 9.839844 66.554688 9.902344 C 66.496094 9.960938 66.421875 9.992188 66.335938 9.992188 C 66.25 9.992188 66.175781 9.960938 66.113281 9.902344 C 66.050781 9.839844 66.019531 9.765625 66.019531 9.679688 C 66.019531 9.59375 66.050781 9.519531 66.113281 9.457031 C 66.175781 9.398438 66.25 9.367188 66.335938 9.367188 C 66.421875 9.367188 66.496094 9.398438 66.554688 9.457031 C 66.617188 9.519531 66.648438 9.59375 66.648438 9.679688 Z M 66.648438 9.679688 " fill-opacity="1" fill-rule="nonzero"/><path fill="#bd7c5b" d="M 60.757812 9.886719 C 60.757812 9.972656 60.726562 10.046875 60.664062 10.105469 C 60.601562 10.167969 60.527344 10.199219 60.441406 10.199219 C 60.355469 10.199219 60.28125 10.167969 60.222656 10.105469 C 60.160156 10.046875 60.128906 9.972656 60.128906 9.886719 C 60.128906 9.800781 60.160156 9.726562 60.222656 9.664062 C 60.28125 9.605469 60.355469 9.574219 60.441406 9.574219 C 60.527344 9.574219 60.601562 9.605469 60.664062 9.664062 C 60.726562 9.726562 60.757812 9.800781 60.757812 9.886719 Z M 60.757812 9.886719 " fill-opacity="1" fill-rule="nonzero"/><path fill="#bd7c5b" d="M 59.597656 12.117188 C 59.597656 12.203125 59.566406 12.277344 59.507812 12.339844 C 59.445312 12.398438 59.371094 12.429688 59.285156 12.429688 C 59.199219 12.429688 59.125 12.398438 59.0625 12.339844 C 59 12.277344 58.972656 12.203125 58.972656 12.117188 C 58.972656 12.03125 59 11.957031 59.0625 11.898438 C 59.125 11.835938 59.199219 11.804688 59.285156 11.804688 C 59.371094 11.804688 59.445312 11.835938 59.507812 11.898438 C 59.566406 11.957031 59.597656 12.03125 59.597656 12.117188 Z M 59.597656 12.117188 " fill-opacity="1" fill-rule="nonzero"/><path fill="#bd7c5b" d="M 62.53125 12.839844 C 62.53125 12.925781 62.5 13 62.4375 13.0625 C 62.378906 13.121094 62.304688 13.152344 62.21875 13.152344 C 62.132812 13.152344 62.058594 13.121094 61.996094 13.0625 C 61.933594 13 61.902344 12.925781 61.902344 12.839844 C 61.902344 12.753906 61.933594 12.679688 61.996094 12.617188 C 62.058594 12.558594 62.132812 12.527344 62.21875 12.527344 C 62.304688 12.527344 62.378906 12.558594 62.4375 12.617188 C 62.5 12.679688 62.53125 12.753906 62.53125 12.839844 Z M 62.53125 12.839844 " fill-opacity="1" fill-rule="nonzero"/><path fill="#bd7c5b" d="M 63.875 8.320312 C 63.875 8.410156 63.84375 8.480469 63.785156 8.542969 C 63.722656 8.605469 63.648438 8.632812 63.5625 8.632812 C 63.476562 8.632812 63.402344 8.605469 63.339844 8.542969 C 63.277344 8.480469 63.25 8.410156 63.25 8.320312 C 63.25 8.234375 63.277344 8.164062 63.339844 8.101562 C 63.402344 8.039062 63.476562 8.007812 63.5625 8.007812 C 63.648438 8.007812 63.722656 8.039062 63.785156 8.101562 C 63.84375 8.164062 63.875 8.234375 63.875 8.320312 Z M 63.875 8.320312 " fill-opacity="1" fill-rule="nonzero"/><path fill="#bd7c5b" d="M 59.910156 7.824219 C 59.910156 7.910156 59.878906 7.984375 59.820312 8.042969 C 59.757812 8.105469 59.683594 8.136719 59.597656 8.136719 C 59.511719 8.136719 59.4375 8.105469 59.375 8.042969 C 59.316406 7.984375 59.285156 7.910156 59.285156 7.824219 C 59.285156 7.738281 59.316406 7.664062 59.375 7.601562 C 59.4375 7.542969 59.511719 7.511719 59.597656 7.511719 C 59.683594 7.511719 59.757812 7.542969 59.820312 7.601562 C 59.878906 7.664062 59.910156 7.738281 59.910156 7.824219 Z M 59.910156 7.824219 " fill-opacity="1" fill-rule="nonzero"/><path fill="#bd7c5b" d="M 64.503906 11.492188 C 64.503906 11.578125 64.472656 11.652344 64.410156 11.714844 C 64.347656 11.773438 64.277344 11.804688 64.1875 11.804688 C 64.101562 11.804688 64.027344 11.773438 63.96875 11.714844 C 63.90625 11.652344 63.875 11.578125 63.875 11.492188 C 63.875 11.40625 63.90625 11.332031 63.96875 11.269531 C 64.027344 11.210938 64.101562 11.179688 64.1875 11.179688 C 64.277344 11.179688 64.347656 11.210938 64.410156 11.269531 C 64.472656 11.332031 64.503906 11.40625 64.503906 11.492188 Z M 64.503906 11.492188 " fill-opacity="1" fill-rule="nonzero"/><path fill="#bd7c5b" d="M 68.625 11.179688 C 68.625 11.265625 68.59375 11.339844 68.53125 11.402344 C 68.46875 11.460938 68.398438 11.492188 68.308594 11.492188 C 68.222656 11.492188 68.148438 11.460938 68.089844 11.402344 C 68.027344 11.339844 67.996094 11.265625 67.996094 11.179688 C 67.996094 11.09375 68.027344 11.019531 68.089844 10.957031 C 68.148438 10.898438 68.222656 10.867188 68.308594 10.867188 C 68.398438 10.867188 68.46875 10.898438 68.53125 10.957031 C 68.59375 11.019531 68.625 11.09375 68.625 11.179688 Z M 68.625 11.179688 " fill-opacity="1" fill-rule="nonzero"/><path fill="#99253b" d="M 66.464844 29.59375 C 62.628906 29.59375 58.898438 28.699219 55.324219 26.917969 C 55.175781 26.84375 55.117188 26.664062 55.191406 26.515625 C 55.261719 26.371094 55.445312 26.3125 55.589844 26.382812 C 60.53125 28.847656 65.769531 29.574219 71.171875 28.546875 C 71.328125 28.515625 71.488281 28.625 71.519531 28.785156 C 71.550781 28.945312 71.445312 29.101562 71.28125 29.132812 C 69.660156 29.441406 68.054688 29.59375 66.464844 29.59375 Z M 66.464844 29.59375 " fill-opacity="1" fill-rule="nonzero"/><path fill="#99253b" d="M 64.785156 30.46875 C 61.699219 30.46875 58.503906 29.972656 55.222656 28.976562 C 55.066406 28.929688 54.976562 28.765625 55.023438 28.609375 C 55.070312 28.449219 55.234375 28.359375 55.394531 28.410156 C 61.085938 30.132812 66.515625 30.335938 71.53125 29.015625 C 71.691406 28.96875 71.855469 29.066406 71.894531 29.226562 C 71.9375 29.382812 71.84375 29.546875 71.683594 29.589844 C 69.457031 30.175781 67.15625 30.46875 64.785156 30.46875 Z M 64.785156 30.46875 " fill-opacity="1" fill-rule="nonzero"/><path fill="#c9314e" d="M 73.304688 46.609375 C 73.261719 46.609375 73.21875 46.601562 73.179688 46.582031 C 67.9375 44.125 67.140625 41.039062 66.136719 37.128906 C 65.558594 34.882812 64.902344 32.335938 63.304688 29.367188 C 63.292969 29.347656 63.285156 29.328125 63.277344 29.304688 C 63.269531 29.273438 63.265625 29.242188 63.265625 29.214844 C 63.265625 29.167969 63.277344 29.125 63.300781 29.085938 C 63.316406 29.050781 63.34375 29.019531 63.375 28.992188 C 63.402344 28.96875 63.4375 28.949219 63.476562 28.9375 C 63.496094 28.929688 63.515625 28.925781 63.539062 28.925781 C 66.59375 28.59375 69.160156 26.65625 71.421875 24.945312 C 73.566406 23.324219 75.410156 21.921875 77.285156 22.109375 C 78.699219 22.246094 79.765625 23.605469 80.289062 25.9375 C 80.941406 28.820312 80.613281 32.96875 79.234375 33.792969 C 75.726562 35.886719 68.566406 34.289062 64.734375 30.929688 C 65.734375 33.183594 66.25 35.179688 66.714844 36.980469 C 67.71875 40.886719 68.445312 43.707031 73.429688 46.042969 C 73.582031 46.113281 73.644531 46.289062 73.574219 46.441406 C 73.523438 46.546875 73.417969 46.609375 73.304688 46.609375 Z M 64.113281 29.445312 C 67.289062 33.28125 75.335938 35.429688 78.925781 33.285156 C 79.851562 32.730469 80.398438 29.132812 79.707031 26.066406 C 79.4375 24.875 78.757812 22.847656 77.226562 22.699219 C 75.585938 22.542969 73.824219 23.875 71.785156 25.417969 C 69.582031 27.082031 67.105469 28.957031 64.113281 29.445312 Z M 64.113281 29.445312 " fill-opacity="1" fill-rule="nonzero"/><path fill="#c9314e" d="M 50.15625 46.609375 C 50.109375 46.609375 50.066406 46.601562 50.023438 46.578125 C 49.875 46.507812 49.816406 46.328125 49.886719 46.179688 C 51.21875 43.515625 53.636719 42.039062 55.976562 40.613281 C 59.449219 38.492188 63.039062 36.300781 63.484375 30.097656 C 60.691406 33.082031 53.820312 36.277344 50.203125 35.546875 C 49.003906 35.304688 48.246094 34.632812 48.015625 33.601562 C 47.570312 31.625 46.953125 24.550781 48.773438 22.609375 C 49.15625 22.199219 49.640625 22.027344 50.175781 22.109375 C 51.824219 22.363281 53.46875 23.535156 55.367188 24.890625 C 57.785156 26.613281 60.523438 28.566406 63.851562 28.925781 C 63.859375 28.925781 63.867188 28.925781 63.875 28.929688 C 63.9375 28.9375 63.992188 28.96875 64.035156 29.011719 C 64.042969 29.019531 64.050781 29.03125 64.058594 29.039062 L 64.0625 29.039062 C 64.101562 29.09375 64.125 29.160156 64.121094 29.230469 C 63.957031 36.4375 60.058594 38.816406 56.285156 41.121094 C 53.914062 42.566406 51.675781 43.933594 50.421875 46.445312 C 50.371094 46.550781 50.265625 46.609375 50.15625 46.609375 Z M 49.914062 22.683594 C 49.648438 22.683594 49.417969 22.792969 49.210938 23.015625 C 47.722656 24.601562 48.054688 31.058594 48.597656 33.472656 C 48.777344 34.277344 49.34375 34.765625 50.320312 34.964844 C 53.566406 35.617188 60.648438 32.546875 63.269531 29.449219 C 60.023438 28.941406 57.371094 27.050781 55.023438 25.375 C 53.183594 24.0625 51.59375 22.929688 50.085938 22.699219 C 50.027344 22.6875 49.96875 22.683594 49.914062 22.683594 Z M 49.914062 22.683594 " fill-opacity="1" fill-rule="nonzero"/><path fill="#ec586c" d="M 65.476562 52.84375 C 65.476562 52.84375 68.503906 49.1875 71.789062 51.570312 C 77.398438 55.636719 65.859375 63.96875 62.839844 63.503906 C 61.519531 62.582031 55.210938 49.582031 60.664062 48.929688 C 64.371094 48.484375 65.476562 52.84375 65.476562 52.84375 Z M 65.476562 52.84375 " fill-opacity="1" fill-rule="nonzero"/><path fill="#ffffff" d="M 59.527344 54.609375 C 59.457031 54.59375 59.398438 54.539062 59.378906 54.46875 C 58.988281 53.042969 59.097656 51.75 59.722656 50.402344 C 59.769531 50.304688 59.890625 50.265625 59.988281 50.304688 C 60.089844 50.351562 60.132812 50.472656 60.085938 50.574219 C 59.503906 51.828125 59.402344 53.03125 59.769531 54.359375 C 59.796875 54.46875 59.734375 54.578125 59.625 54.609375 C 59.59375 54.617188 59.558594 54.617188 59.527344 54.609375 Z M 59.527344 54.609375 " fill-opacity="0.5" fill-rule="nonzero"/><path fill="#a32940" d="M 71.433594 57.636719 C 71.433594 57.636719 74.644531 53.886719 78.019531 56.421875 C 83.777344 60.742188 71.640625 69.203125 68.511719 68.671875 C 67.152344 67.691406 60.820312 54.070312 66.5 53.484375 C 70.359375 53.085938 71.433594 57.636719 71.433594 57.636719 Z M 71.433594 57.636719 " fill-opacity="1" fill-rule="nonzero"/><path fill="#ffffff" d="M 65.21875 59.367188 C 65.148438 59.351562 65.089844 59.296875 65.066406 59.21875 C 64.6875 57.730469 64.820312 56.390625 65.492188 55 C 65.546875 54.898438 65.671875 54.859375 65.773438 54.902344 C 65.878906 54.953125 65.921875 55.078125 65.871094 55.183594 C 65.246094 56.476562 65.117188 57.726562 65.476562 59.113281 C 65.503906 59.226562 65.433594 59.339844 65.324219 59.371094 C 65.289062 59.378906 65.253906 59.378906 65.21875 59.367188 Z M 65.21875 59.367188 " fill-opacity="0.5" fill-rule="nonzero"/><path fill="#a32940" d="M 53.496094 61.761719 C 53.496094 61.761719 54.472656 56.929688 58.65625 57.507812 C 65.796875 58.488281 59.324219 71.769531 56.328125 72.820312 C 54.664062 72.625 42.484375 63.796875 47.160156 60.527344 C 50.335938 58.308594 53.496094 61.761719 53.496094 61.761719 Z M 53.496094 61.761719 " fill-opacity="1" fill-rule="nonzero"/><path fill="#ffffff" d="M 48.910156 66.292969 C 48.839844 66.308594 48.761719 66.289062 48.707031 66.234375 C 47.644531 65.117188 47.109375 63.882812 47.019531 62.34375 C 47.015625 62.226562 47.105469 62.132812 47.21875 62.121094 C 47.332031 62.113281 47.433594 62.203125 47.4375 62.316406 C 47.523438 63.753906 48.023438 64.90625 49.011719 65.945312 C 49.089844 66.03125 49.085938 66.164062 49.003906 66.242188 C 48.976562 66.265625 48.945312 66.28125 48.910156 66.292969 Z M 48.910156 66.292969 " fill-opacity="0.5" fill-rule="nonzero"/><path fill="#ec586c" d="M 72.039062 67.394531 C 72.039062 67.394531 75.613281 65.617188 77.320312 68.5625 C 80.230469 73.589844 68.527344 76.058594 66.371094 74.675781 C 65.671875 73.519531 65.277344 61.398438 69.6875 62.75 C 72.683594 63.671875 72.039062 67.394531 72.039062 67.394531 Z M 72.039062 67.394531 " fill-opacity="1" fill-rule="nonzero"/><path fill="#ffffff" d="M 66.867188 66.722656 C 66.820312 66.6875 66.792969 66.628906 66.804688 66.5625 C 66.992188 65.335938 67.515625 64.382812 68.457031 63.5625 C 68.527344 63.5 68.632812 63.511719 68.695312 63.578125 C 68.757812 63.648438 68.75 63.753906 68.679688 63.816406 C 67.804688 64.582031 67.3125 65.472656 67.140625 66.617188 C 67.125 66.707031 67.039062 66.769531 66.945312 66.757812 C 66.917969 66.753906 66.890625 66.742188 66.867188 66.722656 Z M 66.867188 66.722656 " fill-opacity="0.5" fill-rule="nonzero"/><path fill="#ff91a0" d="M 59.539062 63.828125 C 59.539062 63.828125 62.746094 60.078125 66.121094 62.613281 C 71.878906 66.933594 59.742188 75.398438 56.613281 74.863281 C 55.257812 73.882812 48.921875 60.261719 54.601562 59.675781 C 58.460938 59.277344 59.539062 63.828125 59.539062 63.828125 Z M 59.539062 63.828125 " fill-opacity="1" fill-rule="nonzero"/><path fill="#ffffff" d="M 53.320312 65.5625 C 53.25 65.542969 53.191406 65.488281 53.167969 65.410156 C 52.789062 63.921875 52.921875 62.582031 53.597656 61.191406 C 53.648438 61.089844 53.773438 61.050781 53.875 61.097656 C 53.980469 61.144531 54.023438 61.269531 53.972656 61.375 C 53.347656 62.671875 53.21875 63.917969 53.578125 65.308594 C 53.605469 65.417969 53.539062 65.53125 53.425781 65.5625 C 53.390625 65.570312 53.355469 65.570312 53.320312 65.5625 Z M 53.320312 65.5625 " fill-opacity="0.5" fill-rule="nonzero"/><path fill="#ff91a0" d="M 49.8125 53.125 C 49.8125 53.125 51.21875 49.816406 54.121094 50.835938 C 59.078125 52.578125 52.507812 61.121094 50.214844 61.4375 C 49.054688 61.054688 41.648438 52.972656 45.464844 51.320312 C 48.0625 50.195312 49.8125 53.125 49.8125 53.125 Z M 49.8125 53.125 " fill-opacity="1" fill-rule="nonzero"/><path fill="#ffffff" d="M 45.875 55.691406 C 45.820312 55.695312 45.765625 55.671875 45.734375 55.621094 C 45.140625 54.671875 44.941406 53.710938 45.101562 52.597656 C 45.113281 52.511719 45.195312 52.457031 45.273438 52.46875 C 45.359375 52.480469 45.417969 52.554688 45.40625 52.640625 C 45.253906 53.679688 45.441406 54.574219 45.996094 55.460938 C 46.039062 55.53125 46.019531 55.625 45.945312 55.671875 C 45.925781 55.683594 45.898438 55.691406 45.875 55.691406 Z M 45.875 55.691406 " fill-opacity="0.5" fill-rule="nonzero"/><g fill="#000000" fill-opacity="1"><g transform="translate(47.246122, 91.655228)"><g><path d="M 2.78125 1.5 C 5.449219 1.5 6.644531 -0.472656 7.285156 -2.917969 C 7.367188 -3.226562 7.394531 -3.449219 7.394531 -3.699219 C 7.507812 -4.726562 7.394531 -5.753906 7.035156 -6.785156 L 6.699219 -7.5625 C 6.757812 -7.5625 6.867188 -7.589844 7.007812 -7.617188 L 9.285156 -8.203125 L 9.453125 -8.285156 C 9.480469 -8.3125 9.535156 -8.453125 9.453125 -8.480469 C 9.371094 -8.507812 9.3125 -8.535156 9.285156 -8.535156 C 9.230469 -8.5625 9.148438 -8.5625 9.035156 -8.5625 C 8.839844 -8.5625 8.648438 -8.507812 8.453125 -8.480469 C 8.144531 -8.398438 7.8125 -8.3125 7.480469 -8.230469 C 7.144531 -8.144531 6.8125 -8.035156 6.476562 -7.925781 L 6.394531 -8.007812 C 5.949219 -8.648438 5.367188 -9.148438 4.585938 -9.34375 L 4.476562 -9.371094 C 4.28125 -9.453125 4.226562 -9.5625 4.335938 -9.703125 L 4.558594 -9.953125 C 5.921875 -11.511719 7.144531 -13.789062 7.589844 -15.820312 C 7.644531 -16.152344 7.671875 -16.460938 7.644531 -16.738281 C 7.617188 -16.960938 7.507812 -17.15625 7.339844 -17.292969 C 7.0625 -17.488281 6.8125 -17.570312 6.5625 -17.570312 C 6.339844 -17.570312 6.117188 -17.488281 5.867188 -17.347656 C 5.78125 -17.320312 5.644531 -17.210938 5.503906 -17.070312 C 5.28125 -16.820312 5.089844 -16.570312 4.894531 -16.320312 C 3.78125 -14.625 3.167969 -13.066406 2.503906 -11.175781 L 2.335938 -10.816406 C 2.335938 -10.761719 2.308594 -10.730469 2.253906 -10.730469 C 2.195312 -10.730469 2.167969 -10.761719 2.167969 -10.816406 C 2.167969 -10.898438 2.167969 -10.953125 2.167969 -11.011719 C 2.140625 -11.066406 2.140625 -11.121094 2.140625 -11.203125 C 2.167969 -11.789062 2.140625 -12.34375 2.113281 -12.929688 C 2.085938 -13.484375 2.058594 -14.039062 2.03125 -14.597656 C 2.03125 -14.734375 2.03125 -14.847656 2 -14.929688 C 1.972656 -15.234375 1.808594 -15.429688 1.472656 -15.484375 C 1.054688 -15.484375 1.054688 -14.957031 1.054688 -14.652344 C 1.027344 -14.457031 1.027344 -14.289062 1.027344 -14.125 C 1.027344 -13.957031 1.027344 -13.789062 1.027344 -13.597656 C 1 -12.621094 0.972656 -10.730469 0.945312 -9.507812 C 0.917969 -7.953125 0.890625 -6.367188 0.890625 -5.03125 C 0.613281 -4.78125 0.363281 -4.476562 0.167969 -4.171875 C -0.0820312 -3.863281 -0.222656 -3.53125 -0.304688 -3.167969 C -0.582031 -1.835938 -0.304688 -0.640625 0.5 0.390625 C 1.054688 1.140625 1.808594 1.5 2.78125 1.5 Z M 2.945312 1.113281 C 2.195312 1.113281 1.585938 0.640625 1.140625 0.109375 C 0.5 -0.75 0.222656 -1.695312 0.332031 -2.726562 C 0.445312 -3.253906 0.613281 -3.671875 0.863281 -4.03125 L 0.863281 -3.390625 C 0.890625 -3.308594 0.890625 -3.226562 0.890625 -3.167969 C 0.890625 -3.085938 0.890625 -3.003906 0.890625 -2.917969 C 0.917969 -2.78125 1 -2.726562 1.113281 -2.695312 C 1.140625 -2.695312 1.195312 -2.695312 1.25 -2.695312 C 1.277344 -2.667969 1.335938 -2.667969 1.363281 -2.667969 C 1.722656 -2.667969 1.945312 -2.835938 2 -3.167969 L 2.140625 -4.558594 L 2.140625 -5.449219 C 3.363281 -6.449219 4.867188 -7.035156 5.753906 -7.339844 C 5.921875 -6.894531 6.035156 -6.449219 6.089844 -5.976562 C 6.117188 -5.726562 6.144531 -5.476562 6.171875 -5.253906 C 6.199219 -5.003906 6.199219 -4.808594 6.226562 -4.671875 C 6.253906 -4.03125 6.171875 -3.585938 6.0625 -3.140625 C 5.839844 -2.03125 5.449219 -0.972656 4.808594 0 C 4.363281 0.667969 3.726562 1 2.945312 1.113281 Z M 2.140625 -6.003906 C 2.140625 -6.285156 2.140625 -6.535156 2.167969 -6.785156 C 2.167969 -7.035156 2.167969 -7.199219 2.167969 -7.3125 C 2.195312 -7.839844 2.335938 -8.3125 2.472656 -8.839844 C 2.503906 -8.953125 2.585938 -8.980469 2.695312 -8.953125 C 2.78125 -8.925781 2.890625 -8.871094 3.003906 -8.871094 C 3.058594 -8.839844 3.140625 -8.839844 3.226562 -8.839844 C 3.363281 -8.839844 3.449219 -8.871094 3.503906 -8.898438 C 3.585938 -8.925781 3.699219 -8.953125 3.808594 -8.980469 C 3.890625 -8.980469 4.003906 -8.980469 4.085938 -9.007812 C 4.835938 -9.007812 5.199219 -8.425781 5.503906 -7.839844 C 5.53125 -7.757812 5.589844 -7.703125 5.617188 -7.617188 C 4.394531 -7.199219 3.167969 -6.644531 2.140625 -6.003906 Z M 2.695312 -9.371094 C 2.613281 -9.371094 2.613281 -9.425781 2.640625 -9.507812 C 2.640625 -9.535156 2.640625 -9.59375 2.667969 -9.621094 C 2.667969 -9.648438 2.667969 -9.675781 2.667969 -9.703125 C 2.695312 -9.785156 2.726562 -9.871094 2.753906 -9.953125 C 2.753906 -10.007812 2.78125 -10.066406 2.808594 -10.148438 C 3.390625 -11.871094 4.78125 -15.792969 6.285156 -16.847656 C 6.3125 -16.875 6.367188 -16.902344 6.394531 -16.933594 C 6.421875 -16.933594 6.476562 -16.960938 6.507812 -16.988281 C 6.589844 -17.015625 6.671875 -16.988281 6.671875 -16.902344 L 6.671875 -16.765625 C 6.671875 -15.097656 4.394531 -11.371094 3.363281 -10.035156 C 3.28125 -9.925781 3.199219 -9.816406 3.113281 -9.730469 C 3.03125 -9.621094 2.917969 -9.507812 2.835938 -9.398438 C 2.808594 -9.371094 2.78125 -9.371094 2.695312 -9.371094 Z M 2.695312 -9.371094 "/></g></g></g><g fill="#000000" fill-opacity="1"><g transform="translate(55.336434, 91.655228)"><g><path d="M 2.417969 -2.753906 C 3.003906 -2.753906 3.390625 -2.78125 3.726562 -3.308594 C 3.808594 -3.390625 3.835938 -3.449219 3.863281 -3.53125 C 4.199219 -4.171875 4.335938 -4.894531 4.308594 -5.671875 C 4.253906 -6.3125 4.058594 -6.867188 3.726562 -7.394531 C 3.585938 -7.589844 3.476562 -7.757812 3.363281 -7.953125 C 3.308594 -8.0625 3.335938 -8.144531 3.449219 -8.203125 C 3.808594 -8.230469 4.171875 -8.257812 4.644531 -8.257812 C 4.949219 -8.257812 5.28125 -8.257812 5.671875 -8.257812 C 6.035156 -8.230469 6.476562 -8.230469 6.980469 -8.230469 C 7.117188 -8.257812 7.144531 -8.339844 7.0625 -8.480469 C 6.980469 -8.589844 6.8125 -8.675781 6.617188 -8.730469 C 6.0625 -8.757812 5.449219 -8.785156 4.894531 -8.785156 C 4.308594 -8.785156 3.78125 -8.757812 3.335938 -8.730469 C 2.863281 -8.675781 2.613281 -8.589844 2.585938 -8.507812 C 2.445312 -8.480469 2.390625 -8.3125 2.472656 -8.203125 C 2.613281 -7.953125 2.78125 -7.703125 2.917969 -7.480469 C 3.503906 -6.5625 3.585938 -5.617188 3.28125 -4.585938 C 3.253906 -4.449219 3.199219 -4.335938 3.140625 -4.226562 C 3.058594 -4.113281 3.003906 -4.003906 2.945312 -3.890625 C 2.808594 -3.671875 2.667969 -3.503906 2.503906 -3.417969 C 2.417969 -3.363281 2.363281 -3.335938 2.28125 -3.335938 C 2.195312 -3.335938 2.113281 -3.363281 2.03125 -3.449219 C 1.863281 -3.585938 1.722656 -3.753906 1.585938 -4.003906 C 1.335938 -4.449219 1.25 -4.949219 1.277344 -5.503906 C 1.363281 -7.257812 1.890625 -9.007812 3.226562 -10.203125 C 3.308594 -10.289062 3.28125 -10.398438 3.199219 -10.425781 C 3.199219 -10.453125 3.167969 -10.453125 3.140625 -10.453125 C 3.003906 -10.507812 2.863281 -10.539062 2.695312 -10.539062 C 2.445312 -10.539062 2.222656 -10.453125 2.03125 -10.289062 C 0.804688 -9.34375 0.109375 -7.230469 0.0273438 -5.699219 L 0.0273438 -5.421875 C 0.0273438 -5.394531 0.0273438 -5.339844 0.0546875 -5.308594 C 0.0546875 -5.253906 0.0546875 -5.199219 0.0546875 -5.171875 C 0.195312 -4.03125 0.804688 -3.28125 1.835938 -2.890625 C 1.917969 -2.863281 2.03125 -2.835938 2.140625 -2.808594 C 2.222656 -2.78125 2.335938 -2.78125 2.417969 -2.753906 Z M 2.417969 -2.753906 "/></g></g></g><g fill="#000000" fill-opacity="1"><g transform="translate(61.03579, 91.655228)"><g><path d="M 0.0546875 0.945312 C 0.527344 0.945312 0.835938 0.890625 1.140625 0.472656 L 1.308594 0.277344 C 1.835938 -0.472656 2.335938 -1.195312 2.753906 -1.972656 C 2.890625 -2.28125 3.03125 -2.53125 3.226562 -2.835938 L 4.144531 -4.421875 C 4.449219 -5.003906 4.78125 -5.5625 5.089844 -6.144531 C 5.394531 -6.699219 5.726562 -7.285156 6.035156 -7.867188 C 6.089844 -7.953125 6.144531 -8.0625 6.226562 -8.203125 C 6.253906 -8.339844 6.226562 -8.425781 6.117188 -8.480469 C 6.035156 -8.535156 5.976562 -8.5625 5.894531 -8.5625 C 5.839844 -8.5625 5.78125 -8.535156 5.753906 -8.507812 L 5.5625 -8.257812 L 4.644531 -6.589844 C 4.421875 -6.226562 4.226562 -5.867188 4.003906 -5.449219 C 3.585938 -4.753906 3.199219 -4.03125 2.808594 -3.335938 C 2.390625 -2.613281 1.972656 -1.890625 1.558594 -1.195312 C 1.335938 -0.835938 1.054688 -0.472656 0.804688 -0.140625 C 0.777344 -0.0820312 0.722656 -0.0273438 0.695312 0.0546875 C 0.667969 0.109375 0.613281 0.140625 0.527344 0.109375 C 0.445312 0.0820312 0.390625 0.0273438 0.390625 -0.0546875 C 0.363281 -0.140625 0.363281 -0.195312 0.332031 -0.277344 C 0.332031 -2.917969 1.027344 -5.476562 1.78125 -7.953125 C 1.863281 -8.117188 2.808594 -11.203125 2.945312 -11.34375 C 3.003906 -11.425781 3.058594 -11.484375 3.140625 -11.539062 C 3.671875 -11.816406 6.476562 -12.234375 7.171875 -12.316406 C 7.839844 -12.398438 8.5625 -12.484375 9.203125 -12.707031 C 9.257812 -12.734375 9.3125 -12.789062 9.34375 -12.871094 C 9.398438 -13.011719 9.371094 -13.179688 9.230469 -13.34375 C 9.175781 -13.402344 9.121094 -13.429688 9.035156 -13.429688 L 7.5625 -13.152344 C 7.199219 -13.09375 6.867188 -13.039062 6.507812 -12.984375 C 6.144531 -12.929688 5.8125 -12.871094 5.449219 -12.789062 C 5.144531 -12.761719 4.867188 -12.707031 4.585938 -12.652344 C 4.28125 -12.566406 4.003906 -12.511719 3.726562 -12.484375 C 3.671875 -12.457031 3.613281 -12.457031 3.53125 -12.457031 C 3.476562 -12.511719 3.449219 -12.539062 3.449219 -12.566406 C 3.449219 -12.621094 3.476562 -12.734375 3.503906 -12.871094 C 3.613281 -13.179688 3.726562 -13.511719 3.835938 -13.816406 C 3.921875 -14.125 4.03125 -14.429688 4.144531 -14.734375 C 4.171875 -14.875 4.199219 -15.011719 4.199219 -15.125 C 4.226562 -15.179688 4.199219 -15.234375 4.144531 -15.292969 C 4.058594 -15.429688 3.921875 -15.515625 3.78125 -15.515625 C 3.417969 -15.515625 3.167969 -14.707031 2.976562 -14.429688 C 2.667969 -13.847656 2.417969 -13.289062 2.167969 -12.652344 C 1.808594 -11.957031 1.972656 -12.121094 1.222656 -11.898438 C 1.195312 -11.871094 1.167969 -11.871094 1.113281 -11.871094 C 0.75 -11.789062 0.417969 -11.675781 0.0820312 -11.59375 C -0.25 -11.511719 -0.582031 -11.398438 -0.917969 -11.316406 C -0.972656 -11.289062 -1.027344 -11.289062 -1.085938 -11.261719 C -1.140625 -11.234375 -1.195312 -11.175781 -1.277344 -11.148438 C -1.308594 -11.121094 -1.308594 -11.09375 -1.308594 -11.039062 C -1.277344 -10.898438 -1.140625 -10.730469 -1.027344 -10.730469 C -0.945312 -10.703125 -0.890625 -10.703125 -0.835938 -10.703125 C -0.75 -10.703125 -0.695312 -10.703125 -0.640625 -10.703125 C -0.445312 -10.730469 -0.277344 -10.789062 -0.109375 -10.816406 C 0.0546875 -10.84375 0.222656 -10.898438 0.390625 -10.925781 C 0.527344 -10.953125 0.667969 -11.011719 0.804688 -11.039062 C 0.945312 -11.066406 1.085938 -11.09375 1.222656 -11.121094 L 1.277344 -11.121094 C 1.472656 -11.121094 1.558594 -11.039062 1.472656 -10.871094 C 1.445312 -10.730469 1.390625 -10.59375 1.335938 -10.453125 C 1.277344 -10.316406 1.222656 -10.203125 1.195312 -10.066406 C 0.167969 -7.0625 -0.527344 -4.113281 -0.835938 -0.972656 C -0.835938 -0.613281 -0.804688 -0.277344 -0.722656 0.0820312 C -0.613281 0.5 -0.417969 0.863281 0.0546875 0.945312 Z M 0.0546875 0.945312 "/></g></g></g><g fill="#000000" fill-opacity="1"><g transform="translate(65.817692, 91.655228)"><g><path d="M 0.0546875 0.945312 C 0.527344 0.945312 0.835938 0.890625 1.140625 0.472656 L 1.308594 0.277344 C 1.835938 -0.472656 2.335938 -1.195312 2.753906 -1.972656 C 2.890625 -2.28125 3.03125 -2.53125 3.226562 -2.835938 L 4.144531 -4.421875 C 4.449219 -5.003906 4.78125 -5.5625 5.089844 -6.144531 C 5.394531 -6.699219 5.726562 -7.285156 6.035156 -7.867188 C 6.089844 -7.953125 6.144531 -8.0625 6.226562 -8.203125 C 6.253906 -8.339844 6.226562 -8.425781 6.117188 -8.480469 C 6.035156 -8.535156 5.976562 -8.5625 5.894531 -8.5625 C 5.839844 -8.5625 5.78125 -8.535156 5.753906 -8.507812 L 5.5625 -8.257812 L 4.644531 -6.589844 C 4.421875 -6.226562 4.226562 -5.867188 4.003906 -5.449219 C 3.585938 -4.753906 3.199219 -4.03125 2.808594 -3.335938 C 2.390625 -2.613281 1.972656 -1.890625 1.558594 -1.195312 C 1.335938 -0.835938 1.054688 -0.472656 0.804688 -0.140625 C 0.777344 -0.0820312 0.722656 -0.0273438 0.695312 0.0546875 C 0.667969 0.109375 0.613281 0.140625 0.527344 0.109375 C 0.445312 0.0820312 0.390625 0.0273438 0.390625 -0.0546875 C 0.363281 -0.140625 0.363281 -0.195312 0.332031 -0.277344 C 0.332031 -2.917969 1.027344 -5.476562 1.78125 -7.953125 C 1.863281 -8.117188 2.808594 -11.203125 2.945312 -11.34375 C 3.003906 -11.425781 3.058594 -11.484375 3.140625 -11.539062 C 3.671875 -11.816406 6.476562 -12.234375 7.171875 -12.316406 C 7.839844 -12.398438 8.5625 -12.484375 9.203125 -12.707031 C 9.257812 -12.734375 9.3125 -12.789062 9.34375 -12.871094 C 9.398438 -13.011719 9.371094 -13.179688 9.230469 -13.34375 C 9.175781 -13.402344 9.121094 -13.429688 9.035156 -13.429688 L 7.5625 -13.152344 C 7.199219 -13.09375 6.867188 -13.039062 6.507812 -12.984375 C 6.144531 -12.929688 5.8125 -12.871094 5.449219 -12.789062 C 5.144531 -12.761719 4.867188 -12.707031 4.585938 -12.652344 C 4.28125 -12.566406 4.003906 -12.511719 3.726562 -12.484375 C 3.671875 -12.457031 3.613281 -12.457031 3.53125 -12.457031 C 3.476562 -12.511719 3.449219 -12.539062 3.449219 -12.566406 C 3.449219 -12.621094 3.476562 -12.734375 3.503906 -12.871094 C 3.613281 -13.179688 3.726562 -13.511719 3.835938 -13.816406 C 3.921875 -14.125 4.03125 -14.429688 4.144531 -14.734375 C 4.171875 -14.875 4.199219 -15.011719 4.199219 -15.125 C 4.226562 -15.179688 4.199219 -15.234375 4.144531 -15.292969 C 4.058594 -15.429688 3.921875 -15.515625 3.78125 -15.515625 C 3.417969 -15.515625 3.167969 -14.707031 2.976562 -14.429688 C 2.667969 -13.847656 2.417969 -13.289062 2.167969 -12.652344 C 1.808594 -11.957031 1.972656 -12.121094 1.222656 -11.898438 C 1.195312 -11.871094 1.167969 -11.871094 1.113281 -11.871094 C 0.75 -11.789062 0.417969 -11.675781 0.0820312 -11.59375 C -0.25 -11.511719 -0.582031 -11.398438 -0.917969 -11.316406 C -0.972656 -11.289062 -1.027344 -11.289062 -1.085938 -11.261719 C -1.140625 -11.234375 -1.195312 -11.175781 -1.277344 -11.148438 C -1.308594 -11.121094 -1.308594 -11.09375 -1.308594 -11.039062 C -1.277344 -10.898438 -1.140625 -10.730469 -1.027344 -10.730469 C -0.945312 -10.703125 -0.890625 -10.703125 -0.835938 -10.703125 C -0.75 -10.703125 -0.695312 -10.703125 -0.640625 -10.703125 C -0.445312 -10.730469 -0.277344 -10.789062 -0.109375 -10.816406 C 0.0546875 -10.84375 0.222656 -10.898438 0.390625 -10.925781 C 0.527344 -10.953125 0.667969 -11.011719 0.804688 -11.039062 C 0.945312 -11.066406 1.085938 -11.09375 1.222656 -11.121094 L 1.277344 -11.121094 C 1.472656 -11.121094 1.558594 -11.039062 1.472656 -10.871094 C 1.445312 -10.730469 1.390625 -10.59375 1.335938 -10.453125 C 1.277344 -10.316406 1.222656 -10.203125 1.195312 -10.066406 C 0.167969 -7.0625 -0.527344 -4.113281 -0.835938 -0.972656 C -0.835938 -0.613281 -0.804688 -0.277344 -0.722656 0.0820312 C -0.613281 0.5 -0.417969 0.863281 0.0546875 0.945312 Z M 0.0546875 0.945312 "/></g></g></g><g fill="#000000" fill-opacity="1"><g transform="translate(70.599594, 91.655228)"><g><path d="M 1.417969 -0.890625 C 2.28125 -0.890625 3.03125 -2.113281 3.335938 -2.890625 C 3.863281 -3.921875 4.363281 -5.003906 4.78125 -6.117188 C 4.894531 -6.421875 5.003906 -6.699219 5.144531 -7.007812 C 5.28125 -7.3125 5.394531 -7.617188 5.53125 -7.925781 C 5.5625 -8.007812 5.617188 -8.089844 5.644531 -8.175781 C 5.671875 -8.230469 5.699219 -8.3125 5.726562 -8.398438 C 5.753906 -8.480469 5.699219 -8.535156 5.617188 -8.617188 C 5.5625 -8.648438 5.476562 -8.675781 5.394531 -8.675781 C 4.976562 -8.675781 4.726562 -8.007812 4.617188 -7.703125 C 4.53125 -7.507812 4.449219 -7.285156 4.363281 -7.089844 C 4.28125 -6.894531 4.226562 -6.671875 4.144531 -6.476562 C 3.585938 -5.003906 2.78125 -3.03125 1.808594 -1.808594 C 1.722656 -1.722656 1.667969 -1.667969 1.613281 -1.640625 C 1.558594 -1.640625 1.527344 -1.640625 1.5 -1.667969 C 1.472656 -1.695312 1.445312 -1.722656 1.445312 -1.75 C 1.445312 -1.78125 1.445312 -1.808594 1.417969 -1.835938 C 1.308594 -2.140625 1.308594 -2.390625 1.308594 -2.695312 C 1.195312 -4.699219 1.417969 -6.617188 1.835938 -8.535156 C 1.863281 -8.730469 1.972656 -8.871094 2.085938 -9.0625 C 3.226562 -10.480469 5.449219 -13.457031 5.867188 -15.265625 C 5.921875 -15.570312 5.949219 -15.875 5.921875 -16.125 C 5.839844 -16.625 5.503906 -16.902344 4.976562 -16.960938 C 4.113281 -16.960938 3.753906 -16.488281 3.308594 -15.847656 C 1.335938 -12.984375 0.0820312 -7.230469 0.0820312 -3.640625 C 0.0546875 -3.226562 0.109375 -2.667969 0.195312 -2.085938 C 0.195312 -1.445312 0.5 -1.027344 1.140625 -0.917969 C 1.195312 -0.890625 1.277344 -0.890625 1.417969 -0.890625 Z M 2.503906 -10.953125 L 2.472656 -10.980469 C 2.472656 -11.011719 2.472656 -11.066406 2.472656 -11.09375 C 2.445312 -11.121094 2.445312 -11.148438 2.472656 -11.175781 C 2.945312 -12.957031 3.558594 -14.539062 4.644531 -16.015625 C 4.726562 -16.097656 4.949219 -16.292969 5.03125 -16.292969 C 5.089844 -16.292969 5.144531 -16.265625 5.171875 -16.179688 L 5.171875 -15.929688 C 5.117188 -14.707031 3.503906 -12.09375 2.753906 -11.148438 C 2.695312 -11.066406 2.640625 -11.011719 2.558594 -10.953125 Z M 2.503906 -10.953125 "/></g></g></g><g fill="#000000" fill-opacity="1"><g transform="translate(74.714256, 91.655228)"><g><path d="M 0.917969 -2.253906 C 1.613281 -2.253906 2.113281 -2.753906 2.53125 -3.226562 C 2.976562 -3.78125 3.390625 -4.363281 3.808594 -4.949219 C 4.113281 -5.421875 4.449219 -5.921875 4.753906 -6.394531 C 5.058594 -6.867188 5.367188 -7.339844 5.671875 -7.8125 C 5.699219 -7.894531 5.78125 -8.007812 5.867188 -8.144531 C 5.949219 -8.285156 6.003906 -8.425781 6.003906 -8.507812 C 6.003906 -8.535156 5.976562 -8.589844 5.949219 -8.617188 C 5.894531 -8.703125 5.8125 -8.730469 5.699219 -8.730469 C 5.617188 -8.730469 5.53125 -8.703125 5.476562 -8.648438 C 5.449219 -8.617188 5.421875 -8.5625 5.421875 -8.535156 C 5.394531 -8.507812 5.367188 -8.453125 5.339844 -8.425781 L 3.671875 -5.921875 C 3.335938 -5.367188 1.640625 -2.976562 1.027344 -2.976562 C 0.917969 -2.976562 0.835938 -3.085938 0.804688 -3.28125 L 0.804688 -3.476562 C 0.777344 -4.144531 0.835938 -4.835938 0.945312 -5.503906 L 1.113281 -6.199219 C 1.167969 -6.394531 1.277344 -6.507812 1.445312 -6.535156 C 1.585938 -6.5625 1.695312 -6.617188 1.808594 -6.644531 C 1.917969 -6.671875 2.03125 -6.699219 2.140625 -6.757812 C 2.890625 -7.199219 3.671875 -7.867188 3.921875 -8.757812 C 4.113281 -9.34375 3.949219 -9.730469 3.390625 -9.980469 C 3.140625 -10.121094 2.945312 -10.121094 2.640625 -10.121094 C 2.417969 -10.121094 2.195312 -10.035156 1.945312 -9.898438 C 1.722656 -9.730469 1.558594 -9.5625 1.417969 -9.425781 C 1.085938 -9.089844 0.804688 -8.675781 0.582031 -8.257812 C -0.167969 -6.726562 -0.5 -5.144531 -0.390625 -3.503906 L -0.304688 -3.058594 C -0.167969 -2.503906 0.390625 -2.253906 0.917969 -2.253906 Z M 1.527344 -7.117188 C 1.445312 -7.144531 1.445312 -7.199219 1.472656 -7.285156 C 1.640625 -7.839844 2.472656 -9.535156 3.085938 -9.535156 C 3.199219 -9.535156 3.28125 -9.480469 3.308594 -9.34375 L 3.308594 -9.285156 C 3.308594 -8.507812 2.363281 -7.394531 1.640625 -7.117188 C 1.613281 -7.089844 1.558594 -7.089844 1.527344 -7.117188 Z M 1.527344 -7.117188 "/></g></g></g></svg>