<svg xmlns="http://www.w3.org/2000/svg" xmlns:xlink="http://www.w3.org/1999/xlink" width="168" zoomAndPan="magnify" viewBox="0 0 126 114.749999" height="153" preserveAspectRatio="xMidYMid meet" version="1.0"><defs><g/><clipPath id="bdebd261e1"><path d="M 10.441406 47.597656 L 25.988281 47.597656 L 25.988281 80.984375 L 10.441406 80.984375 Z M 10.441406 47.597656 " clip-rule="nonzero"/></clipPath><clipPath id="11cb482479"><path d="M 10.703125 12.140625 L 118.109375 12.140625 L 118.109375 80.707031 L 10.703125 80.707031 Z M 10.703125 12.140625 " clip-rule="nonzero"/></clipPath></defs><g clip-path="url(#bdebd261e1)"><path fill="#f25668" d="M 25.085938 72.75 C 26.042969 69.714844 25.953125 66.703125 24.84375 63.714844 C 23.703125 60.644531 21.6875 58.019531 19.488281 55.644531 C 17.019531 52.980469 14.382812 50.460938 11.816406 47.894531 C 11.488281 47.5625 11.015625 47.808594 10.925781 48.148438 C 10.734375 48.199219 10.578125 48.347656 10.5625 48.601562 C 10.371094 52.117188 10.304688 55.804688 11.183594 59.277344 C 11.621094 61.019531 12.28125 62.882812 13.332031 64.355469 C 14.328125 65.753906 15.714844 66.867188 16.828125 68.167969 C 17.425781 68.867188 17.976562 69.644531 18.175781 70.542969 C 18.410156 71.601562 18.132812 72.695312 18.003906 73.773438 C 17.671875 76.519531 19.589844 77.96875 21.300781 79.773438 C 21.765625 80.265625 22.34375 80.667969 23.011719 80.945312 C 23.277344 81.058594 23.507812 80.910156 23.617188 80.691406 C 23.652344 80.664062 23.691406 80.632812 23.722656 80.589844 C 23.988281 80.257812 24.128906 79.910156 24.195312 79.542969 C 24.527344 79.449219 24.679688 78.933594 24.410156 78.695312 C 24.347656 78.640625 24.289062 78.585938 24.226562 78.527344 C 24.207031 78.242188 24.175781 77.949219 24.148438 77.65625 C 23.992188 75.925781 24.578125 74.367188 25.085938 72.75 " fill-opacity="1" fill-rule="nonzero"/></g><g clip-path="url(#11cb482479)"><path fill="#f797a5" d="M 117.691406 39.390625 C 117.671875 39.332031 117.644531 39.273438 117.601562 39.21875 C 115.785156 36.832031 116.027344 33.484375 114.101562 31.144531 C 113.253906 30.117188 112.078125 29.46875 111.089844 28.597656 C 110.585938 28.152344 110.097656 27.628906 109.898438 26.96875 C 109.652344 26.152344 109.910156 25.261719 109.976562 24.433594 C 110.378906 19.496094 107.539062 14.71875 103.207031 12.507812 C 103.054688 12.15625 102.472656 11.964844 102.144531 12.371094 L 93.382812 23.257812 C 91.894531 25.101562 90.414062 26.945312 88.925781 28.792969 C 88.0625 29.863281 87.121094 30.929688 86.394531 32.113281 C 83.769531 27.960938 79.890625 24.542969 75.582031 22.304688 C 72.507812 20.710938 69.167969 20.070312 65.820312 20.195312 C 56.464844 20.554688 47.027344 26.90625 43.089844 35.21875 C 41.035156 39.554688 40.636719 46.097656 41.941406 51.546875 C 32.457031 48.296875 22.386719 46.957031 12.378906 47.65625 C 12.128906 47.671875 11.945312 47.808594 11.839844 47.984375 C 11.464844 47.644531 10.730469 47.753906 10.761719 48.386719 C 10.902344 51.433594 12.257812 54.28125 14.671875 56.160156 C 16.886719 57.882812 20.910156 58.792969 21.671875 61.871094 C 22.078125 63.519531 21.492188 65.242188 21.296875 66.875 C 21.113281 68.398438 21.320312 69.773438 21.957031 71.167969 C 22.757812 72.914062 23.785156 74.332031 23.183594 76.332031 C 22.773438 77.683594 22.191406 78.890625 22.886719 80.253906 C 23.195312 80.855469 24.003906 80.574219 24.101562 80.046875 C 24.101562 80.046875 24.105469 80.042969 24.109375 80.042969 C 29.210938 76.5625 33.695312 72.078125 37.90625 67.574219 C 40.789062 64.492188 42.972656 61.046875 44.183594 57.132812 C 44.304688 57.324219 44.429688 57.511719 44.558594 57.691406 C 46.773438 60.816406 50.097656 63 53.625 64.46875 C 61.378906 67.699219 70.613281 67.574219 77.933594 63.441406 C 85.253906 59.304688 90.277344 51.019531 89.84375 42.582031 C 89.789062 41.511719 89.644531 40.457031 89.425781 39.425781 C 89.910156 39.535156 90.398438 39.628906 90.859375 39.722656 C 94.917969 40.546875 99.035156 41.054688 103.171875 41.234375 C 108.011719 41.441406 112.867188 41.183594 117.664062 40.507812 C 118.300781 40.417969 118.199219 39.5625 117.691406 39.390625 " fill-opacity="1" fill-rule="nonzero"/></g><path fill="#f25668" d="M 82.207031 48.765625 C 82.089844 48.40625 82.652344 48.253906 82.769531 48.609375 C 83.0625 49.5 82.777344 50.503906 82.042969 51.089844 C 81.753906 51.320312 81.339844 50.90625 81.632812 50.671875 C 82.214844 50.207031 82.445312 49.480469 82.207031 48.765625 Z M 79.679688 51.777344 C 79.964844 50.6875 80.25 49.597656 80.53125 48.503906 C 80.628906 48.140625 81.191406 48.296875 81.09375 48.660156 C 80.8125 49.753906 80.527344 50.84375 80.246094 51.933594 C 80.148438 52.300781 79.585938 52.144531 79.679688 51.777344 Z M 78.070312 53.503906 C 78.074219 53.476562 78.082031 53.453125 78.085938 53.425781 C 78.085938 53.425781 78.082031 53.425781 78.082031 53.425781 C 78.085938 53.417969 78.085938 53.410156 78.089844 53.402344 C 78.113281 53.253906 78.144531 53.121094 78.191406 52.996094 C 78.605469 51.335938 78.789062 49.65625 78.75 47.9375 C 78.742188 47.5625 79.324219 47.5625 79.332031 47.9375 C 79.371094 49.519531 79.21875 51.066406 78.882812 52.597656 C 78.953125 52.679688 78.976562 52.792969 78.894531 52.914062 C 78.824219 53.089844 78.75 53.265625 78.679688 53.445312 C 78.667969 53.492188 78.65625 53.535156 78.644531 53.582031 C 78.558594 53.894531 78.03125 53.839844 78.070312 53.503906 Z M 45.117188 34.253906 C 44.910156 33.9375 45.417969 33.644531 45.621094 33.957031 C 46.285156 34.976562 46.71875 36.101562 46.910156 37.304688 C 46.964844 37.675781 46.40625 37.832031 46.347656 37.460938 C 46.164062 36.300781 45.757812 35.238281 45.117188 34.253906 Z M 44.90625 35.902344 C 44.835938 35.53125 45.398438 35.375 45.46875 35.742188 C 45.648438 36.652344 46.019531 37.484375 46.601562 38.203125 C 46.835938 38.496094 46.425781 38.914062 46.191406 38.621094 C 45.542969 37.820312 45.105469 36.914062 44.90625 35.902344 Z M 43.960938 37.472656 C 43.679688 37.222656 44.09375 36.808594 44.371094 37.058594 C 44.996094 37.621094 45.5 38.296875 45.855469 39.058594 C 46.011719 39.398438 45.507812 39.695312 45.351562 39.355469 C 45.015625 38.632812 44.550781 38.003906 43.960938 37.472656 Z M 41.453125 57.988281 C 40.898438 58.625 40.328125 59.25 39.699219 59.816406 C 39.332031 60.152344 37.496094 61.925781 37.578125 60.703125 C 37.617188 60.109375 38.71875 59.199219 39.101562 58.785156 C 39.75 58.089844 40.441406 57.429688 41.171875 56.816406 C 41.296875 56.710938 41.425781 56.605469 41.554688 56.503906 C 41.679688 56.808594 41.804688 57.113281 41.933594 57.414062 C 41.773438 57.605469 41.613281 57.796875 41.453125 57.988281 Z M 39.492188 53.886719 C 37.777344 54.066406 35.828125 54.386719 34.066406 54.101562 C 35.613281 53.40625 37.957031 53.445312 39.40625 53.425781 C 39.746094 53.421875 40.085938 53.425781 40.425781 53.4375 C 40.460938 53.546875 40.5 53.65625 40.535156 53.765625 C 40.1875 53.808594 39.839844 53.851562 39.492188 53.886719 Z M 49.597656 59.238281 C 47.597656 58.578125 45.960938 57.320312 44.40625 55.949219 C 44.359375 55.84375 44.316406 55.738281 44.273438 55.632812 C 45.539062 56.410156 46.902344 57 48.367188 57.378906 C 48.734375 57.472656 48.886719 56.90625 48.523438 56.8125 C 46.84375 56.378906 45.300781 55.671875 43.898438 54.691406 C 43.550781 53.796875 43.230469 52.894531 42.941406 51.980469 C 43.953125 51.179688 44.59375 50.113281 44.8125 48.796875 C 44.875 48.425781 44.3125 48.265625 44.25 48.640625 C 44.066406 49.753906 43.566406 50.671875 42.753906 51.375 C 42.726562 51.28125 42.699219 51.1875 42.671875 51.09375 C 42.71875 49.347656 42.972656 47.632812 43.449219 45.941406 C 43.550781 45.578125 42.988281 45.421875 42.886719 45.785156 C 42.519531 47.09375 42.28125 48.410156 42.164062 49.75 C 41.308594 48.707031 39.230469 49.367188 39.660156 50.925781 C 39.816406 51.484375 39.980469 52.039062 40.152344 52.589844 C 39.582031 52.578125 39.011719 52.585938 38.441406 52.613281 C 36.617188 52.714844 34.152344 52.71875 32.695312 53.972656 C 32.457031 54.183594 32.5625 54.59375 32.855469 54.6875 C 34.703125 55.273438 36.714844 54.984375 38.609375 54.8125 C 39.347656 54.75 40.085938 54.667969 40.820312 54.574219 C 40.953125 54.949219 41.09375 55.324219 41.234375 55.695312 C 40.523438 56.25 39.839844 56.84375 39.195312 57.480469 C 38.464844 58.207031 35.664062 60.691406 36.617188 62.023438 C 37.519531 63.285156 40.097656 60.828125 42.308594 58.269531 C 42.484375 58.65625 42.660156 59.039062 42.84375 59.421875 C 43.644531 61.082031 46.164062 59.742188 45.363281 58.078125 C 45.21875 57.777344 45.078125 57.472656 44.9375 57.167969 C 46.296875 58.277344 47.742188 59.242188 49.441406 59.804688 C 49.796875 59.921875 49.953125 59.355469 49.597656 59.238281 Z M 112.445312 39.578125 C 111.277344 38.84375 110.109375 38.109375 108.9375 37.375 C 108.621094 37.175781 108.914062 36.667969 109.234375 36.867188 C 110.402344 37.601562 111.570312 38.335938 112.738281 39.070312 C 113.058594 39.269531 112.765625 39.777344 112.445312 39.578125 Z M 111.207031 39.683594 C 111.496094 39.929688 111.078125 40.339844 110.796875 40.097656 C 109.636719 39.109375 108.371094 38.289062 107 37.625 C 106.664062 37.460938 106.957031 36.957031 107.296875 37.121094 C 108.707031 37.804688 110.011719 38.664062 111.207031 39.683594 Z M 107.644531 39.328125 C 106.949219 38.902344 106.257812 38.472656 105.5625 38.042969 C 105.242188 37.84375 105.535156 37.335938 105.855469 37.535156 C 106.550781 37.964844 107.246094 38.394531 107.9375 38.824219 C 108.257812 39.019531 107.964844 39.527344 107.644531 39.328125 Z M 105.707031 39.1875 C 104.964844 38.8125 104.226562 38.433594 103.484375 38.058594 C 103.148438 37.886719 103.441406 37.382812 103.777344 37.550781 C 104.519531 37.925781 105.261719 38.304688 106 38.679688 C 106.335938 38.851562 106.042969 39.359375 105.707031 39.1875 Z M 103.738281 25.648438 C 103.789062 23.535156 103.660156 21.4375 103.347656 19.34375 C 103.289062 18.972656 103.851562 18.816406 103.910156 19.1875 C 104.230469 21.332031 104.371094 23.480469 104.320312 25.648438 C 104.3125 26.027344 103.730469 26.027344 103.738281 25.648438 Z M 102.191406 20.371094 C 102.636719 22.28125 102.921875 24.210938 103.054688 26.171875 C 103.078125 26.546875 102.496094 26.546875 102.46875 26.171875 C 102.34375 24.265625 102.0625 22.386719 101.628906 20.527344 C 101.546875 20.160156 102.105469 20.003906 102.191406 20.371094 Z M 101.054688 21.667969 C 101.339844 23.199219 101.523438 24.742188 101.613281 26.300781 C 101.632812 26.679688 101.050781 26.675781 101.027344 26.300781 C 100.945312 24.796875 100.769531 23.304688 100.492188 21.820312 C 100.425781 21.453125 100.988281 21.296875 101.054688 21.667969 Z M 100.078125 26.085938 C 100.148438 26.457031 99.585938 26.613281 99.515625 26.242188 C 99.359375 25.421875 99.203125 24.601562 99.046875 23.78125 C 98.976562 23.410156 99.539062 23.253906 99.609375 23.625 C 99.765625 24.445312 99.921875 25.265625 100.078125 26.085938 Z M 97.628906 25.089844 C 97.492188 24.738281 98.054688 24.585938 98.191406 24.933594 C 98.40625 25.484375 98.570312 26.046875 98.691406 26.625 C 98.765625 26.996094 98.203125 27.152344 98.128906 26.78125 C 98.011719 26.203125 97.84375 25.640625 97.628906 25.089844 Z M 30.703125 66.429688 C 30.847656 66.773438 30.347656 67.070312 30.199219 66.726562 C 29.980469 66.203125 29.761719 65.683594 29.542969 65.164062 C 29.398438 64.820312 29.902344 64.519531 30.046875 64.867188 C 30.265625 65.386719 30.484375 65.90625 30.703125 66.429688 Z M 29.375 67.257812 C 29.496094 67.617188 28.933594 67.769531 28.8125 67.414062 C 28.621094 66.839844 28.335938 66.3125 27.972656 65.832031 C 27.742188 65.53125 28.25 65.238281 28.476562 65.535156 C 28.871094 66.058594 29.167969 66.636719 29.375 67.257812 Z M 27.851562 67.863281 C 28.015625 68.203125 27.511719 68.496094 27.347656 68.160156 C 27.035156 67.511719 26.71875 66.867188 26.40625 66.222656 C 26.242188 65.882812 26.742188 65.585938 26.910156 65.925781 C 27.222656 66.570312 27.539062 67.21875 27.851562 67.863281 Z M 28.980469 55.144531 C 28.164062 54.703125 27.34375 54.265625 26.527344 53.828125 C 26.195312 53.648438 26.488281 53.144531 26.820312 53.320312 C 27.640625 53.757812 28.457031 54.199219 29.277344 54.636719 C 29.609375 54.8125 29.3125 55.320312 28.980469 55.144531 Z M 23.578125 53.324219 C 24.925781 54.019531 26.210938 54.808594 27.441406 55.695312 C 27.742188 55.914062 27.453125 56.421875 27.148438 56.203125 C 25.917969 55.316406 24.632812 54.527344 23.285156 53.832031 C 22.953125 53.660156 23.246094 53.152344 23.578125 53.324219 Z M 26.054688 57.140625 C 24.546875 56.101562 22.980469 55.171875 21.34375 54.351562 C 21.007812 54.183594 21.300781 53.679688 21.636719 53.847656 C 23.273438 54.664062 24.84375 55.59375 26.351562 56.632812 C 26.65625 56.847656 26.367188 57.355469 26.054688 57.140625 Z M 20.234375 54.324219 C 21.875 55.238281 23.511719 56.152344 25.152344 57.070312 C 25.480469 57.253906 25.1875 57.757812 24.859375 57.574219 C 23.21875 56.660156 21.578125 55.746094 19.9375 54.832031 C 19.609375 54.648438 19.90625 54.140625 20.234375 54.324219 Z M 115.828125 40.9375 C 113.933594 39.113281 112.941406 36.898438 112.527344 34.320312 C 112.265625 32.726562 111.65625 31.777344 110.300781 30.929688 C 109.5 30.425781 108.632812 29.992188 107.964844 29.308594 C 107.21875 28.542969 106.964844 27.621094 106.867188 26.570312 C 106.71875 24.957031 106.621094 23.367188 106.222656 21.789062 C 105.4375 18.664062 103.773438 15.804688 101.042969 14.03125 C 100.625 13.757812 101.015625 13.082031 101.4375 13.355469 C 103.636719 14.785156 105.242188 16.871094 106.230469 19.300781 C 106.796875 20.699219 107.160156 22.167969 107.375 23.660156 C 107.59375 25.175781 107.335938 27.152344 108.25 28.433594 C 109.496094 30.183594 112.039062 30.410156 112.90625 32.558594 C 113.410156 33.804688 113.363281 35.214844 113.8125 36.492188 C 114.339844 37.988281 115.242188 39.289062 116.378906 40.382812 C 116.738281 40.734375 116.191406 41.285156 115.828125 40.9375 Z M 25.980469 78.875 C 26.28125 79.273438 25.605469 79.664062 25.308594 79.269531 C 24.367188 78.019531 24.578125 76.546875 24.878906 75.109375 C 25.136719 73.867188 25.292969 72.726562 24.871094 71.5 C 24.5625 70.609375 23.910156 69.953125 23.570312 69.089844 C 22.351562 66.003906 25.125 62.269531 22.964844 59.351562 C 21.960938 57.988281 20.1875 57.1875 18.828125 56.226562 C 17.652344 55.394531 16.414062 54.632812 15.457031 53.535156 C 14.101562 51.984375 13.703125 49.746094 13.183594 47.820312 C 13.050781 47.332031 13.800781 47.125 13.933594 47.609375 C 14.515625 49.765625 14.9375 52.023438 16.609375 53.605469 C 17.910156 54.835938 19.546875 55.828125 21.058594 56.789062 C 22.128906 57.472656 23.25 58.195312 23.890625 59.335938 C 24.527344 60.460938 24.570312 61.878906 24.53125 63.136719 C 24.476562 64.871094 23.710938 66.742188 24.171875 68.441406 C 24.414062 69.332031 25.085938 70 25.445312 70.832031 C 25.753906 71.554688 25.925781 72.347656 25.933594 73.136719 C 25.945312 75.054688 24.675781 77.148438 25.980469 78.875 Z M 89.453125 45.667969 C 90.914062 47.03125 89.820312 50.085938 88.355469 48.714844 C 75.191406 36.40625 73.488281 35.0625 61.179688 21.914062 C 59.828125 20.472656 62.949219 19.265625 64.316406 20.726562 C 65.109375 21.574219 65.851562 22.363281 66.546875 23.105469 C 67.039062 22.671875 67.550781 22.261719 68.085938 21.878906 C 68.394531 21.660156 68.683594 22.167969 68.378906 22.386719 C 67.882812 22.742188 67.40625 23.128906 66.945312 23.53125 C 67.078125 23.671875 67.207031 23.8125 67.339844 23.949219 C 68.144531 23.191406 69.03125 22.53125 70 21.988281 C 70.328125 21.800781 70.621094 22.308594 70.292969 22.492188 C 69.363281 23.015625 68.515625 23.648438 67.738281 24.375 C 76.695312 33.898438 77.644531 34.625 89.453125 45.667969 Z M 80.671875 61.140625 C 78.628906 59.316406 76.792969 57.636719 75.097656 56.054688 C 74.894531 56.214844 74.519531 56.0625 74.632812 55.765625 C 74.648438 55.730469 74.660156 55.691406 74.671875 55.65625 C 64.910156 46.492188 59.976562 40.578125 48.648438 29.332031 C 47.230469 27.929688 49.308594 25.578125 50.734375 26.992188 C 61.550781 37.726562 66.539062 43.605469 75.464844 52.089844 C 75.5625 51.253906 75.621094 50.414062 75.683594 49.570312 C 75.710938 49.195312 76.296875 49.191406 76.265625 49.570312 C 76.191406 50.578125 76.121094 51.589844 75.988281 52.589844 C 76.246094 52.832031 76.503906 53.074219 76.769531 53.324219 C 77.035156 51.71875 77.179688 50.097656 77.191406 48.460938 C 77.195312 48.082031 77.777344 48.085938 77.773438 48.460938 C 77.757812 50.261719 77.589844 52.035156 77.277344 53.796875 C 78.945312 55.355469 80.75 57.007812 82.757812 58.800781 C 84.253906 60.132812 82.167969 62.476562 80.671875 61.140625 Z M 69.023438 65.675781 C 70.417969 67.089844 66.535156 67.589844 65.128906 66.164062 C 55.125 56 52.304688 52.71875 41.792969 43.074219 C 40.316406 41.722656 40.867188 38.136719 42.347656 39.492188 C 52.863281 49.136719 59.019531 55.511719 69.023438 65.675781 Z M 91 38.082031 C 90.945312 38.078125 90.890625 38.074219 90.835938 38.070312 C 90.6875 37.6875 90.558594 37.296875 90.433594 36.90625 C 90.730469 36.894531 91.023438 36.882812 91.324219 36.878906 C 92.503906 36.859375 93.6875 36.902344 94.867188 37.003906 C 95.472656 37.054688 97.8125 37.058594 97.949219 37.589844 C 98.160156 38.402344 91.832031 38.152344 91 38.082031 Z M 94.113281 27.269531 C 93.621094 28.078125 92.054688 29.574219 91.789062 29.816406 C 91.050781 30.5 90.265625 31.128906 89.46875 31.738281 C 89.199219 31.945312 88.925781 32.148438 88.65625 32.355469 C 88.628906 32.304688 88.605469 32.253906 88.578125 32.203125 C 90.207031 30.324219 91.992188 28.605469 94.113281 27.269531 Z M 96.886719 31.675781 C 96.097656 32.140625 94.914062 32.601562 94.570312 32.773438 C 93.527344 33.289062 92.476562 33.78125 91.410156 34.242188 C 90.871094 34.472656 90.332031 34.695312 89.785156 34.914062 C 89.78125 34.902344 89.777344 34.886719 89.773438 34.875 C 89.675781 34.617188 89.574219 34.363281 89.46875 34.109375 C 91.855469 33.0625 94.328125 32.246094 96.886719 31.675781 Z M 97.921875 36.550781 C 96.425781 36.292969 94.910156 36.128906 93.390625 36.0625 C 92.320312 36.019531 91.246094 36.027344 90.175781 36.082031 C 90.136719 35.957031 90.097656 35.832031 90.058594 35.710938 C 90.972656 35.34375 91.882812 34.960938 92.78125 34.554688 C 94.164062 33.925781 95.527344 33.253906 96.867188 32.53125 C 97.539062 32.171875 98.417969 31.886719 98.464844 31.023438 C 98.476562 30.742188 98.21875 30.539062 97.953125 30.589844 C 94.902344 31.171875 91.949219 32.09375 89.128906 33.332031 C 89.097656 33.261719 89.066406 33.195312 89.035156 33.125 C 89.945312 32.441406 90.855469 31.75 91.722656 31.007812 C 92.554688 30.289062 95.996094 27.535156 94.847656 26.230469 C 94.730469 26.097656 94.5 26.054688 94.34375 26.144531 C 91.945312 27.527344 89.949219 29.375 88.152344 31.421875 C 88.058594 31.257812 87.96875 31.089844 87.867188 30.929688 C 87.019531 29.503906 84.863281 30.457031 85.167969 31.828125 C 84.183594 30.796875 82.996094 29.96875 81.652344 29.398438 C 81.3125 29.253906 81.015625 29.757812 81.359375 29.90625 C 83.316406 30.738281 84.917969 32.105469 86.03125 33.890625 C 84.695312 32.875 83.203125 32.105469 81.574219 31.605469 C 81.214844 31.492188 81.0625 32.058594 81.417969 32.171875 C 83.527344 32.820312 85.382812 33.921875 86.964844 35.464844 C 87.078125 35.746094 87.1875 36.03125 87.285156 36.316406 C 87.320312 36.425781 87.355469 36.53125 87.390625 36.636719 C 87.128906 36.722656 86.875 36.894531 86.671875 37.03125 C 85.984375 37.484375 85.355469 38.019531 84.78125 38.609375 C 84.519531 38.878906 84.933594 39.292969 85.195312 39.023438 C 85.40625 38.804688 86.964844 37.296875 87.59375 37.277344 C 87.660156 37.484375 87.722656 37.695312 87.789062 37.902344 C 87.695312 38.207031 87.527344 38.546875 87.457031 38.707031 C 87.265625 39.136719 87.015625 39.53125 86.726562 39.90625 C 86.496094 40.203125 87.003906 40.496094 87.230469 40.203125 C 87.574219 39.757812 87.855469 39.269531 88.066406 38.75 C 88.253906 39.285156 88.460938 39.8125 88.726562 40.324219 C 89.570312 41.960938 92.09375 40.625 91.246094 38.984375 C 91.242188 38.980469 91.242188 38.976562 91.242188 38.976562 C 92.035156 39.027344 92.832031 39.066406 93.625 39.078125 C 95.070312 39.105469 96.53125 39.023438 97.941406 38.671875 C 98.507812 38.527344 99.503906 38.359375 99.496094 37.582031 C 99.492188 36.789062 98.507812 36.652344 97.921875 36.550781 " fill-opacity="1" fill-rule="nonzero"/><g fill="#000000" fill-opacity="1"><g transform="translate(44.723875, 99.633981)"><g><path d="M 2.597656 0.671875 C 3.378906 0.671875 3.910156 0.558594 4.582031 0.140625 C 5.054688 -0.167969 5.476562 -0.585938 5.894531 -1.0625 C 6.84375 -2.09375 8.910156 -5.53125 9.554688 -6.761719 C 9.636719 -6.957031 9.75 -7.179688 9.832031 -7.402344 C 9.917969 -7.597656 10.027344 -7.820312 10.113281 -8.019531 C 10.140625 -8.074219 10.140625 -8.128906 10.167969 -8.183594 C 10.195312 -8.214844 10.195312 -8.269531 10.226562 -8.324219 C 10.226562 -8.382812 10.226562 -8.410156 10.195312 -8.4375 C 10.167969 -8.546875 10.027344 -8.605469 9.917969 -8.605469 C 9.722656 -8.605469 9.636719 -8.410156 9.554688 -8.269531 C 9.46875 -8.074219 9.386719 -7.90625 9.332031 -7.738281 C 9.246094 -7.542969 9.164062 -7.375 9.078125 -7.207031 C 8.910156 -6.703125 7.851562 -5 7.179688 -3.996094 C 6.480469 -2.933594 5.363281 -1.285156 4.917969 -0.894531 C 4.386719 -0.417969 3.714844 0.167969 2.960938 0.25 C 2.515625 0.25 2.152344 0.25 1.84375 -0.167969 C 1.703125 -0.308594 1.59375 -0.445312 1.507812 -0.640625 C 1.398438 -0.894531 1.3125 -1.144531 1.230469 -1.398438 C 0.921875 -2.402344 0.78125 -3.519531 0.867188 -4.777344 C 0.894531 -4.917969 0.921875 -5.140625 0.921875 -5.417969 C 1.144531 -9.023438 2.542969 -14.554688 5.894531 -16.230469 C 6.257812 -16.398438 6.648438 -16.484375 7.066406 -16.484375 C 7.125 -16.484375 7.179688 -16.484375 7.261719 -16.484375 C 7.320312 -16.453125 7.375 -16.453125 7.429688 -16.453125 C 7.683594 -16.425781 7.90625 -16.285156 8.046875 -16.035156 C 8.242188 -15.671875 8.324219 -15.28125 8.296875 -14.890625 C 8.101562 -13.324219 7.347656 -12.179688 6.144531 -11.257812 C 6.0625 -11.230469 6.007812 -11.175781 5.976562 -11.148438 C 5.671875 -11.007812 5.449219 -10.894531 5.140625 -10.894531 C 5.054688 -10.894531 4.972656 -10.894531 4.917969 -10.921875 L 4.777344 -10.921875 C 4.722656 -10.867188 4.691406 -10.839844 4.691406 -10.839844 C 4.691406 -10.8125 4.722656 -10.753906 4.75 -10.726562 C 5.027344 -10.589844 5.308594 -10.53125 5.617188 -10.53125 C 7.375 -10.53125 8.746094 -12.796875 9.078125 -14.414062 C 9.273438 -15.28125 8.882812 -16.285156 7.90625 -16.734375 C 7.820312 -16.761719 7.738281 -16.816406 7.65625 -16.847656 C 7.570312 -16.875 7.488281 -16.902344 7.402344 -16.929688 C 7.039062 -17.011719 6.703125 -17.070312 6.398438 -17.070312 C 5.027344 -17.070312 3.882812 -16.34375 2.988281 -15.226562 C 2.515625 -14.667969 2.125 -14.050781 1.761719 -13.355469 C 1.0625 -11.957031 0.53125 -10.421875 0.195312 -9.050781 C 0.0273438 -8.351562 -0.0820312 -7.738281 -0.167969 -7.207031 C -0.222656 -6.871094 -0.25 -6.539062 -0.28125 -6.203125 C -0.308594 -5.867188 -0.335938 -5.53125 -0.363281 -5.195312 C -0.445312 -4.636719 -0.445312 -4.078125 -0.417969 -3.546875 C -0.335938 -2.683594 -0.222656 -1.84375 0.0820312 -1.035156 C 0.613281 0.167969 1.144531 0.671875 2.597656 0.671875 Z M 2.597656 0.671875 "/></g></g></g><g fill="#000000" fill-opacity="1"><g transform="translate(53.55144, 99.633981)"><g><path d="M 4.441406 -2.652344 C 4.722656 -2.652344 4.972656 -2.765625 5.222656 -2.988281 C 5.449219 -3.183594 5.644531 -3.378906 5.839844 -3.605469 C 6.117188 -3.96875 6.398438 -4.386719 6.703125 -4.804688 L 7.878906 -6.648438 C 8.019531 -6.84375 8.128906 -7.066406 8.269531 -7.292969 C 8.382812 -7.515625 8.492188 -7.738281 8.632812 -7.960938 C 8.714844 -8.101562 8.746094 -8.242188 8.773438 -8.324219 C 8.773438 -8.324219 8.773438 -8.351562 8.773438 -8.4375 C 8.746094 -8.578125 8.632812 -8.632812 8.4375 -8.632812 C 8.351562 -8.632812 8.296875 -8.605469 8.269531 -8.546875 C 8.15625 -8.4375 8.074219 -8.296875 8.019531 -8.15625 C 7.429688 -7.039062 5.921875 -4.664062 5.027344 -3.769531 C 4.945312 -3.6875 4.859375 -3.632812 4.777344 -3.574219 C 4.691406 -3.492188 4.609375 -3.4375 4.496094 -3.378906 C 4.46875 -3.378906 4.46875 -3.378906 4.46875 -3.378906 C 4.46875 -3.351562 4.46875 -3.351562 4.441406 -3.351562 C 4.359375 -3.351562 4.300781 -3.410156 4.246094 -3.492188 C 4.164062 -3.800781 4.246094 -4.105469 4.273438 -4.414062 C 4.46875 -5.335938 4.636719 -6.203125 4.972656 -7.066406 C 5.195312 -7.597656 5.417969 -8.128906 5.617188 -8.660156 C 5.753906 -8.855469 6.203125 -10.113281 6.203125 -10.253906 C 6.230469 -10.390625 6.175781 -10.476562 6.0625 -10.53125 C 5.976562 -10.617188 5.894531 -10.644531 5.78125 -10.644531 C 5.644531 -10.644531 5.53125 -10.589844 5.449219 -10.449219 C 5.335938 -10.253906 5.222656 -10.113281 5.113281 -9.972656 L 4.273438 -8.773438 C 4.191406 -8.6875 4.132812 -8.632812 4.078125 -8.605469 C 4.078125 -8.605469 4.050781 -8.605469 3.96875 -8.605469 L 3.828125 -8.910156 C 3.492188 -9.441406 3.015625 -9.695312 2.429688 -9.695312 C 2.066406 -9.695312 1.703125 -9.582031 1.367188 -9.332031 C 1.144531 -9.136719 0.949219 -8.941406 0.753906 -8.632812 C 0.640625 -8.4375 0.53125 -8.269531 0.417969 -8.101562 C 0.308594 -7.90625 0.195312 -7.710938 0.0820312 -7.515625 C -0.25 -6.871094 -0.417969 -6.175781 -0.417969 -5.417969 C -0.335938 -4.75 0.167969 -4.386719 0.808594 -4.300781 L 0.976562 -4.300781 C 1.171875 -4.300781 1.339844 -4.359375 1.453125 -4.441406 C 1.984375 -4.890625 2.402344 -5.308594 2.847656 -5.839844 C 2.933594 -5.921875 2.988281 -5.976562 3.074219 -6.0625 L 3.128906 -6.0625 C 3.183594 -6.007812 3.210938 -5.976562 3.210938 -5.976562 C 3.210938 -5.949219 3.210938 -5.894531 3.210938 -5.867188 C 3.183594 -5.8125 3.183594 -5.753906 3.183594 -5.726562 C 3.15625 -5.503906 3.101562 -5.28125 3.074219 -5.054688 C 3.015625 -4.832031 2.988281 -4.609375 2.960938 -4.359375 C 2.960938 -3.492188 3.464844 -2.652344 4.441406 -2.652344 Z M 0.976562 -5.253906 C 0.894531 -5.28125 0.867188 -5.390625 0.867188 -5.53125 C 1.003906 -6.539062 2.039062 -9.164062 2.933594 -9.164062 C 3.046875 -9.164062 3.128906 -9.105469 3.183594 -8.996094 C 3.269531 -8.882812 3.296875 -8.800781 3.324219 -8.746094 C 3.351562 -8.546875 3.464844 -8.410156 3.6875 -8.324219 C 3.769531 -8.296875 3.800781 -8.214844 3.769531 -8.101562 C 3.769531 -8.101562 3.742188 -8.074219 3.714844 -8.046875 C 3.074219 -7.179688 2.457031 -6.425781 1.675781 -5.671875 C 1.59375 -5.585938 1.507812 -5.53125 1.425781 -5.476562 C 1.339844 -5.417969 1.230469 -5.363281 1.144531 -5.28125 C 1.117188 -5.253906 1.0625 -5.253906 0.976562 -5.253906 Z M 0.976562 -5.253906 "/></g></g></g><g fill="#000000" fill-opacity="1"><g transform="translate(60.926368, 99.633981)"><g><path d="M 3.910156 -1.507812 C 4.105469 -1.507812 4.300781 -1.5625 4.46875 -1.648438 C 4.664062 -1.789062 4.859375 -1.957031 5 -2.152344 L 5.503906 -2.90625 C 5.867188 -3.546875 6.257812 -4.191406 6.621094 -4.832031 C 6.984375 -5.449219 7.347656 -6.089844 7.710938 -6.734375 C 7.851562 -6.984375 7.988281 -7.234375 8.101562 -7.488281 C 8.214844 -7.738281 8.324219 -8.019531 8.464844 -8.269531 C 8.546875 -8.410156 8.464844 -8.519531 8.269531 -8.546875 C 8.242188 -8.578125 8.183594 -8.578125 8.128906 -8.578125 C 8.019531 -8.578125 7.933594 -8.519531 7.878906 -8.4375 L 7.597656 -7.90625 C 6.734375 -6.230469 5.78125 -4.636719 4.691406 -3.074219 C 4.582031 -2.933594 4.46875 -2.792969 4.332031 -2.683594 C 4.332031 -2.652344 4.300781 -2.652344 4.21875 -2.652344 C 4.21875 -2.683594 4.21875 -2.683594 4.191406 -2.710938 C 4.105469 -2.933594 4.191406 -3.15625 4.21875 -3.378906 C 4.441406 -4.496094 4.691406 -5.585938 5 -6.703125 L 5.671875 -9.304688 C 5.726562 -9.582031 5.753906 -9.863281 5.753906 -10.140625 C 5.726562 -10.390625 5.617188 -10.558594 5.449219 -10.644531 L 5.28125 -10.726562 C 5.222656 -10.753906 5.140625 -10.785156 5.027344 -10.785156 C 4.664062 -10.785156 4.105469 -9.945312 3.9375 -9.609375 L 2.597656 -7.125 C 2.234375 -6.480469 1.816406 -5.867188 1.398438 -5.222656 C 1.367188 -5.195312 1.339844 -5.167969 1.257812 -5.140625 C 1.171875 -5.113281 1.144531 -5.167969 1.144531 -5.335938 C 1.144531 -5.476562 1.144531 -5.585938 1.171875 -5.671875 C 1.257812 -6.035156 1.3125 -6.425781 1.398438 -6.816406 C 1.453125 -7.207031 1.535156 -7.597656 1.621094 -7.988281 C 1.648438 -8.183594 1.703125 -8.382812 1.761719 -8.578125 C 1.789062 -8.746094 1.84375 -8.941406 1.871094 -9.136719 C 1.898438 -9.304688 1.816406 -9.414062 1.675781 -9.5 L 1.507812 -9.582031 L 1.453125 -9.582031 C 1.257812 -9.582031 1.144531 -9.441406 1.0625 -9.246094 L 0.808594 -8.578125 C 0.390625 -7.320312 0.167969 -6.035156 0.0546875 -4.722656 C 0 -4.300781 0.167969 -4.023438 0.53125 -3.855469 L 0.640625 -3.828125 C 0.78125 -3.769531 0.921875 -3.742188 1.003906 -3.742188 C 1.230469 -3.742188 1.398438 -3.828125 1.535156 -4.023438 C 1.675781 -4.164062 1.789062 -4.300781 1.871094 -4.496094 C 2.320312 -5.253906 2.765625 -6.035156 3.183594 -6.789062 L 4.332031 -8.855469 C 4.359375 -8.941406 4.414062 -8.996094 4.441406 -9.023438 L 4.554688 -9.023438 C 4.554688 -9.023438 4.554688 -8.996094 4.582031 -8.96875 L 4.414062 -8.351562 C 4.050781 -7.207031 3.6875 -6.089844 3.378906 -4.890625 C 3.128906 -3.910156 3.015625 -3.15625 3.015625 -2.179688 C 3.046875 -1.984375 3.128906 -1.871094 3.269531 -1.789062 C 3.464844 -1.621094 3.660156 -1.535156 3.910156 -1.507812 Z M 3.910156 -1.507812 "/></g></g></g><g fill="#000000" fill-opacity="1"><g transform="translate(68.021935, 99.633981)"><g><path d="M 4.050781 -1.425781 C 4.414062 -1.425781 4.691406 -1.453125 5 -1.761719 C 5.085938 -1.84375 5.195312 -1.957031 5.28125 -2.039062 C 5.363281 -2.125 5.449219 -2.234375 5.53125 -2.347656 C 5.894531 -2.847656 6.203125 -3.378906 6.453125 -3.9375 C 6.761719 -4.609375 7.039062 -5.28125 7.320312 -5.949219 C 7.597656 -6.621094 7.878906 -7.292969 8.183594 -7.960938 C 8.269531 -8.101562 8.296875 -8.214844 8.324219 -8.351562 C 8.324219 -8.382812 8.324219 -8.4375 8.351562 -8.464844 C 8.351562 -8.492188 8.351562 -8.519531 8.324219 -8.546875 C 8.324219 -8.578125 8.296875 -8.632812 8.242188 -8.6875 C 8.15625 -8.714844 8.101562 -8.746094 8.074219 -8.746094 C 7.933594 -8.746094 7.851562 -8.6875 7.765625 -8.578125 L 7.597656 -8.214844 C 6.957031 -6.675781 6.339844 -5.222656 5.644531 -3.769531 C 5.449219 -3.351562 5.222656 -3.015625 4.917969 -2.597656 C 4.890625 -2.515625 4.832031 -2.457031 4.777344 -2.402344 C 4.691406 -2.347656 4.636719 -2.289062 4.582031 -2.207031 C 4.527344 -2.152344 4.46875 -2.125 4.414062 -2.125 C 4.191406 -2.125 4.132812 -2.652344 4.132812 -2.847656 C 4.105469 -3.324219 4.078125 -3.828125 4.078125 -4.300781 C 4.078125 -4.777344 4.105469 -5.253906 4.164062 -5.726562 C 4.332031 -6.929688 4.664062 -9.441406 5.335938 -10.113281 C 6.789062 -11.648438 8.828125 -14.109375 9.359375 -16.203125 C 9.5 -16.902344 9.386719 -17.320312 8.492188 -17.628906 C 8.382812 -17.65625 8.296875 -17.683594 8.214844 -17.683594 C 7.261719 -17.683594 6.257812 -15.894531 5.585938 -14.386719 C 4.945312 -12.992188 4.078125 -10.53125 3.828125 -9.636719 C 3.800781 -9.554688 3.769531 -9.5 3.769531 -9.441406 C 3.742188 -9.386719 3.714844 -9.332031 3.6875 -9.273438 C 3.660156 -9.191406 3.605469 -9.164062 3.546875 -9.164062 C 3.519531 -9.164062 3.492188 -9.164062 3.464844 -9.191406 C 3.378906 -9.21875 3.324219 -9.273438 3.242188 -9.332031 C 3.15625 -9.359375 3.101562 -9.414062 3.015625 -9.441406 C 2.738281 -9.527344 2.488281 -9.582031 2.261719 -9.582031 C 0.671875 -9.582031 -0.25 -7.515625 -0.417969 -6.035156 C -0.445312 -5.753906 -0.417969 -5.476562 -0.335938 -5.195312 C -0.222656 -4.75 0.0546875 -4.46875 0.503906 -4.359375 C 0.671875 -4.300781 0.839844 -4.273438 1.003906 -4.273438 C 1.480469 -4.273438 1.871094 -4.582031 2.179688 -4.945312 C 2.261719 -5.027344 2.347656 -5.140625 2.429688 -5.222656 C 2.488281 -5.308594 2.570312 -5.417969 2.652344 -5.503906 C 2.683594 -5.53125 2.738281 -5.585938 2.765625 -5.671875 C 2.792969 -5.753906 2.847656 -5.753906 2.90625 -5.726562 C 2.988281 -5.699219 3.046875 -5.644531 3.015625 -5.558594 C 2.988281 -5.476562 2.988281 -5.417969 2.988281 -5.335938 C 2.988281 -5.195312 2.988281 -5.054688 2.988281 -4.917969 C 2.988281 -4.777344 2.988281 -4.636719 2.960938 -4.496094 C 2.960938 -3.632812 2.988281 -3.074219 3.101562 -2.515625 L 3.269531 -1.957031 C 3.4375 -1.621094 3.6875 -1.453125 4.050781 -1.425781 Z M 1.089844 -5.085938 C 1.035156 -5.085938 1.003906 -5.085938 0.976562 -5.113281 C 0.894531 -5.167969 0.867188 -5.28125 0.867188 -5.476562 C 0.949219 -6.453125 1.621094 -9.105469 2.710938 -9.105469 C 2.792969 -9.078125 2.847656 -9.023438 2.878906 -8.996094 C 2.933594 -8.96875 2.960938 -8.941406 2.960938 -8.910156 C 3.015625 -8.6875 3.15625 -8.546875 3.351562 -8.492188 C 3.464844 -8.464844 3.492188 -8.382812 3.464844 -8.296875 C 3.4375 -8.269531 3.4375 -8.242188 3.4375 -8.214844 C 2.90625 -7.125 2.320312 -6.144531 1.425781 -5.335938 C 1.367188 -5.28125 1.339844 -5.253906 1.339844 -5.253906 C 1.257812 -5.167969 1.171875 -5.085938 1.089844 -5.085938 Z M 5.558594 -11.285156 C 5.53125 -11.3125 5.503906 -11.34375 5.503906 -11.371094 C 5.726562 -12.628906 7.039062 -15.589844 7.933594 -16.648438 C 8.074219 -16.847656 8.242188 -17.011719 8.4375 -17.152344 C 8.464844 -17.179688 8.519531 -17.179688 8.578125 -17.179688 C 8.6875 -17.179688 8.773438 -17.125 8.800781 -16.984375 C 8.800781 -16.929688 8.800781 -16.875 8.828125 -16.789062 C 8.746094 -16.230469 8.605469 -15.699219 8.296875 -15.167969 C 7.65625 -13.828125 6.789062 -12.597656 5.8125 -11.480469 C 5.753906 -11.398438 5.699219 -11.34375 5.617188 -11.285156 Z M 5.558594 -11.285156 "/></g></g></g><g fill="#000000" fill-opacity="1"><g transform="translate(74.92196, 99.633981)"><g><path d="M 0.78125 2.320312 C 1.761719 2.207031 2.347656 1.621094 2.710938 0.753906 C 3.492188 -0.921875 3.996094 -2.597656 4.300781 -4.414062 C 4.332031 -4.636719 4.414062 -4.804688 4.554688 -4.945312 C 5.027344 -5.476562 5.503906 -5.976562 5.976562 -6.507812 C 6.453125 -7.039062 6.929688 -7.542969 7.429688 -8.019531 L 7.683594 -8.296875 C 7.765625 -8.382812 7.683594 -8.546875 7.597656 -8.578125 C 7.515625 -8.632812 7.429688 -8.660156 7.292969 -8.660156 C 7.152344 -8.660156 7.011719 -8.605469 6.929688 -8.492188 C 6.371094 -7.851562 5.8125 -7.261719 5.222656 -6.675781 C 5.085938 -6.539062 4.945312 -6.398438 4.804688 -6.285156 C 4.777344 -6.257812 4.722656 -6.257812 4.664062 -6.285156 C 4.664062 -6.285156 4.664062 -6.3125 4.636719 -6.339844 L 4.636719 -6.648438 C 4.75 -7.570312 4.890625 -8.492188 5.027344 -9.386719 L 5.027344 -9.863281 L 4.945312 -10.027344 C 4.832031 -10.167969 4.691406 -10.253906 4.496094 -10.253906 C 4.359375 -10.253906 4.246094 -10.195312 4.164062 -10.085938 L 3.410156 -9.078125 C 3.074219 -8.605469 2.738281 -8.15625 2.402344 -7.765625 C 2.320312 -7.683594 2.234375 -7.570312 2.152344 -7.488281 C 2.066406 -7.402344 1.957031 -7.292969 1.871094 -7.207031 C 1.789062 -7.179688 1.730469 -7.152344 1.675781 -7.152344 C 1.648438 -7.152344 1.59375 -7.292969 1.621094 -7.375 C 1.621094 -7.460938 1.648438 -7.570312 1.675781 -7.710938 L 1.925781 -8.578125 C 1.957031 -8.6875 1.984375 -8.800781 2.011719 -8.910156 C 2.039062 -9.023438 2.039062 -9.136719 2.066406 -9.21875 C 2.066406 -9.304688 2.039062 -9.386719 2.011719 -9.46875 C 1.816406 -9.667969 1.675781 -9.695312 1.425781 -9.695312 C 1.339844 -9.667969 1.285156 -9.609375 1.257812 -9.582031 C 0.976562 -9.441406 0.417969 -7.570312 0.417969 -7.207031 C 0.308594 -6.507812 0.640625 -6.257812 1.0625 -6.0625 C 1.144531 -6.035156 1.257812 -5.976562 1.367188 -5.949219 C 1.507812 -5.949219 1.621094 -5.976562 1.761719 -6.007812 C 1.957031 -6.089844 2.125 -6.230469 2.234375 -6.371094 L 3.046875 -7.320312 C 3.128906 -7.429688 3.242188 -7.542969 3.324219 -7.683594 C 3.410156 -7.792969 3.492188 -7.90625 3.574219 -8.046875 C 3.660156 -8.128906 3.714844 -8.128906 3.742188 -8.101562 C 3.769531 -8.074219 3.769531 -8.074219 3.769531 -8.046875 C 3.769531 -8.019531 3.769531 -7.960938 3.800781 -7.933594 C 3.800781 -7.90625 3.800781 -7.878906 3.769531 -7.878906 C 3.574219 -6.789062 3.410156 -5.726562 3.183594 -4.636719 C 3.15625 -4.496094 3.101562 -4.386719 3.015625 -4.300781 C 2.933594 -4.164062 2.820312 -4.050781 2.710938 -3.9375 C 2.347656 -3.519531 2.011719 -3.128906 1.648438 -2.710938 C 1.285156 -2.289062 0.949219 -1.871094 0.585938 -1.453125 C 0.167969 -1.003906 -0.335938 -0.195312 -0.53125 0.390625 C -0.671875 0.921875 -0.585938 1.339844 -0.363281 1.789062 C -0.0546875 2.207031 0.25 2.320312 0.78125 2.320312 Z M 0.53125 1.84375 C 0.308594 1.761719 0.25 1.507812 0.167969 1.3125 C 0.140625 1.230469 0.140625 1.171875 0.140625 1.117188 C 0.140625 1.0625 0.140625 1.035156 0.140625 1.003906 C 0.140625 0.0820312 1.925781 -2.375 2.710938 -2.765625 C 2.792969 -2.765625 2.792969 -2.683594 2.765625 -2.542969 C 2.765625 -2.515625 2.765625 -2.515625 2.738281 -2.488281 C 2.375 -1.285156 1.761719 0.839844 1.0625 1.535156 C 0.867188 1.730469 0.78125 1.84375 0.53125 1.84375 Z M 0.53125 1.84375 "/></g></g></g></svg>