<svg xmlns="http://www.w3.org/2000/svg" xmlns:xlink="http://www.w3.org/1999/xlink" width="164" zoomAndPan="magnify" viewBox="0 0 123 111.749996" height="149" preserveAspectRatio="xMidYMid meet" version="1.0"><defs><g/><clipPath id="8a96552ea8"><path d="M 27.039062 5.90625 L 99.625 5.90625 L 99.625 75.9375 L 27.039062 75.9375 Z M 27.039062 5.90625 " clip-rule="nonzero"/></clipPath></defs><path fill="#f57c8c" d="M 86.164062 22.230469 C 84.6875 18.722656 79.804688 21.5625 79.804688 21.5625 C 79.804688 21.5625 79.480469 15.871094 76.402344 16.929688 C 70.351562 19.011719 73.683594 26.050781 75.199219 28.695312 C 75.566406 29.335938 76.261719 29.707031 76.996094 29.652344 C 80.195312 29.40625 88.675781 28.1875 86.164062 22.230469 Z M 84.453125 49.367188 C 83.464844 48.910156 82.4375 49.410156 81.449219 49.628906 C 79.941406 49.964844 78.054688 49.859375 76.660156 49.234375 C 75.417969 48.675781 73.796875 46.480469 72.113281 46.058594 C 71.636719 45.734375 71.015625 45.558594 70.378906 45.609375 C 68.589844 45.746094 67.042969 46.929688 65.230469 47.007812 C 63.265625 47.089844 61.382812 46.101562 59.472656 45.804688 C 57.636719 45.515625 55.714844 44.855469 53.84375 44.867188 C 53.773438 44.867188 53.710938 44.878906 53.648438 44.894531 C 52.050781 44.878906 50.976562 47.089844 50.042969 48.058594 C 49.183594 48.949219 47.925781 49.867188 46.675781 50.316406 C 45.253906 50.824219 43.921875 51.058594 42.398438 50.96875 C 41.796875 50.933594 41.472656 51.550781 41.695312 51.957031 C 41.65625 51.949219 41.617188 51.945312 41.578125 51.941406 C 42.5625 58.546875 44.074219 73.804688 46.195312 75.554688 C 52.464844 80.730469 77.195312 79.175781 79.765625 76.765625 C 81.71875 74.941406 83.351562 57.085938 84.835938 49.960938 C 84.792969 49.96875 84.742188 49.5 84.453125 49.367188 Z M 45.933594 30.339844 C 42.949219 24.949219 36.230469 13.46875 36.230469 13.46875 C 35.625 12.480469 36.683594 12.410156 39.183594 10.976562 C 41.054688 9.90625 41.101562 10.953125 42.914062 14.054688 C 44.101562 16.09375 48.3125 23.675781 50.703125 27.1875 C 50.144531 28.601562 49.871094 29.9375 49.230469 30.339844 C 48.609375 30.730469 47.316406 30.414062 45.933594 30.339844 " fill-opacity="1" fill-rule="nonzero"/><path fill="#cc1e25" d="M 67.808594 58.503906 C 67.53125 58.371094 67.253906 58.304688 66.984375 58.304688 C 65.445312 58.304688 64.128906 60.511719 63.75 61.363281 C 63.5 61.925781 62.699219 61.929688 62.449219 61.363281 C 62.070312 60.511719 60.753906 58.304688 59.214844 58.304688 C 58.941406 58.304688 58.675781 58.371094 58.394531 58.503906 C 57.582031 58.886719 57.09375 59.648438 57.015625 60.644531 C 56.941406 61.613281 57.175781 65.046875 63.132812 69.207031 C 67.167969 66.796875 69.507812 63.816406 69.402344 61.171875 C 69.355469 59.949219 68.757812 58.953125 67.808594 58.503906 Z M 91.257812 40.628906 C 90.839844 38.339844 88.941406 37.054688 87.058594 35.972656 C 86.0625 35.402344 83.554688 34.488281 83.96875 32.9375 C 84.371094 31.4375 84.089844 29.679688 83.550781 28.164062 C 81.367188 29.179688 78.554688 29.53125 76.996094 29.652344 C 76.261719 29.707031 75.566406 29.335938 75.199219 28.695312 C 74.011719 26.625 71.710938 21.851562 73.679688 18.882812 C 72.652344 18.230469 71.464844 17.886719 69.925781 18.171875 C 66.613281 18.78125 65.324219 23.371094 61.917969 22.125 C 58.246094 20.78125 53.628906 19.394531 50.75 23.082031 C 49.355469 24.863281 49.296875 28.96875 46.742188 29.269531 C 45.320312 29.4375 43.875 28.867188 42.429688 29.097656 C 40.15625 29.457031 39 31.15625 38.542969 33.332031 C 38.164062 35.164062 38.5 36.519531 39.417969 38.085938 C 40.253906 39.511719 40.636719 40.226562 39.675781 41.875 C 38.957031 43.105469 37.476562 43.78125 36.855469 45.050781 C 36.117188 46.5625 36.9375 48.398438 37.753906 49.734375 C 39.667969 52.863281 45.203125 53.550781 48.480469 53.179688 C 52.117188 52.773438 54.90625 49.90625 56.234375 46.628906 C 59.089844 48.238281 62.308594 49.558594 65.648438 49.355469 C 66.660156 49.296875 67.667969 49.09375 68.613281 48.71875 C 69.117188 48.519531 69.773438 47.925781 70.273438 47.851562 C 71.640625 47.648438 72.1875 49.375 73.066406 50.484375 C 74.925781 52.839844 77.558594 51.566406 80.160156 51.292969 C 85.40625 50.734375 92.441406 47.128906 91.257812 40.628906 Z M 38.726562 13.117188 C 38.21875 13.363281 37.355469 13.640625 36.589844 13.640625 C 36.636719 12.957031 37.472656 12.597656 37.992188 12.300781 C 38.753906 11.867188 39.792969 11.242188 40.664062 11.125 C 40.691406 11.121094 40.71875 11.121094 40.742188 11.125 C 40.425781 11.820312 39.757812 12.472656 39.144531 12.875 C 39.140625 12.878906 39.136719 12.882812 39.128906 12.886719 C 39.085938 12.914062 39.042969 12.941406 39 12.96875 C 38.996094 12.96875 38.992188 12.972656 38.992188 12.972656 C 38.953125 12.996094 38.914062 13.015625 38.875 13.039062 C 38.867188 13.042969 38.855469 13.050781 38.847656 13.054688 C 38.804688 13.078125 38.765625 13.097656 38.726562 13.117188 " fill-opacity="1" fill-rule="nonzero"/><path fill="#8f191f" d="M 42.894531 42.679688 C 42.171875 43.199219 42.164062 43.953125 42.050781 44.683594 C 41.519531 44.457031 40.929688 44.273438 40.355469 44.328125 C 39.597656 44.402344 39.285156 45.039062 39.484375 45.621094 C 39.699219 46.25 40.445312 46.585938 41.105469 46.808594 C 41.8125 47.050781 42.699219 47.34375 43.472656 47.351562 C 43.480469 47.351562 43.484375 47.347656 43.492188 47.347656 C 43.601562 47.394531 43.746094 47.382812 43.8125 47.269531 C 44.339844 46.355469 44.410156 45.222656 44.515625 44.222656 C 44.566406 43.757812 44.742188 42.980469 44.34375 42.585938 C 43.933594 42.179688 43.304688 42.382812 42.894531 42.679688 Z M 54.53125 42.757812 C 53.640625 42.796875 53.222656 43.421875 52.726562 43.96875 C 52.40625 43.492188 52.015625 43.015625 51.503906 42.746094 C 50.828125 42.394531 50.21875 42.757812 50.066406 43.355469 C 49.90625 43.996094 50.34375 44.6875 50.773438 45.234375 C 51.234375 45.824219 51.816406 46.554688 52.457031 46.984375 C 52.464844 46.988281 52.46875 46.988281 52.476562 46.992188 C 52.542969 47.089844 52.671875 47.160156 52.789062 47.101562 C 53.730469 46.628906 54.40625 45.714844 55.042969 44.9375 C 55.339844 44.574219 55.914062 44.023438 55.792969 43.472656 C 55.671875 42.910156 55.035156 42.734375 54.53125 42.757812 Z M 74.886719 42.089844 C 73.996094 42.128906 73.578125 42.757812 73.082031 43.300781 C 72.761719 42.824219 72.371094 42.347656 71.859375 42.078125 C 71.183594 41.726562 70.574219 42.089844 70.421875 42.6875 C 70.261719 43.328125 70.699219 44.019531 71.128906 44.566406 C 71.589844 45.15625 72.171875 45.886719 72.8125 46.316406 C 72.820312 46.320312 72.824219 46.320312 72.832031 46.324219 C 72.898438 46.425781 73.027344 46.492188 73.144531 46.433594 C 74.085938 45.960938 74.761719 45.046875 75.398438 44.269531 C 75.695312 43.910156 76.265625 43.355469 76.148438 42.808594 C 76.027344 42.242188 75.390625 42.066406 74.886719 42.089844 Z M 63.722656 38.859375 C 62.832031 38.898438 62.414062 39.527344 61.917969 40.074219 C 61.601562 39.597656 61.207031 39.117188 60.695312 38.851562 C 60.019531 38.5 59.410156 38.859375 59.257812 39.457031 C 59.097656 40.097656 59.535156 40.789062 59.96875 41.339844 C 60.429688 41.925781 61.007812 42.65625 61.652344 43.085938 C 61.65625 43.089844 61.664062 43.09375 61.667969 43.097656 C 61.734375 43.195312 61.863281 43.261719 61.980469 43.203125 C 62.921875 42.734375 63.597656 41.820312 64.234375 41.042969 C 64.53125 40.679688 65.105469 40.128906 64.988281 39.578125 C 64.867188 39.015625 64.226562 38.839844 63.722656 38.859375 Z M 87.886719 44.152344 C 87.042969 43.878906 86.429688 44.320312 85.777344 44.65625 C 85.640625 44.097656 85.441406 43.511719 85.058594 43.082031 C 84.546875 42.515625 83.847656 42.640625 83.5 43.148438 C 83.125 43.691406 83.292969 44.492188 83.503906 45.15625 C 83.730469 45.867188 84.019531 46.757812 84.46875 47.386719 C 84.472656 47.390625 84.480469 47.394531 84.484375 47.398438 C 84.511719 47.515625 84.605469 47.625 84.738281 47.609375 C 85.785156 47.496094 86.738281 46.882812 87.605469 46.375 C 88.011719 46.140625 88.742188 45.824219 88.820312 45.269531 C 88.90625 44.695312 88.371094 44.308594 87.886719 44.152344 Z M 81.75 34.167969 C 80.859375 34.207031 80.441406 34.835938 79.945312 35.382812 C 79.625 34.902344 79.234375 34.425781 78.722656 34.15625 C 78.046875 33.804688 77.4375 34.167969 77.285156 34.765625 C 77.125 35.40625 77.5625 36.097656 77.992188 36.644531 C 78.457031 37.234375 79.035156 37.964844 79.679688 38.394531 C 79.683594 38.398438 79.691406 38.398438 79.695312 38.402344 C 79.761719 38.503906 79.890625 38.570312 80.007812 38.511719 C 80.949219 38.039062 81.625 37.128906 82.261719 36.347656 C 82.558594 35.988281 83.132812 35.433594 83.015625 34.886719 C 82.894531 34.320312 82.253906 34.144531 81.75 34.167969 Z M 71.359375 32.628906 C 71.238281 32.0625 70.601562 31.886719 70.09375 31.910156 C 69.203125 31.949219 68.789062 32.578125 68.292969 33.125 C 67.972656 32.648438 67.578125 32.167969 67.066406 31.898438 C 66.394531 31.546875 65.78125 31.910156 65.632812 32.507812 C 65.46875 33.148438 65.90625 33.839844 66.339844 34.386719 C 66.800781 34.976562 67.378906 35.707031 68.023438 36.136719 C 68.027344 36.140625 68.035156 36.140625 68.039062 36.144531 C 68.105469 36.246094 68.234375 36.3125 68.351562 36.253906 C 69.292969 35.78125 69.972656 34.871094 70.609375 34.089844 C 70.90625 33.730469 71.476562 33.175781 71.359375 32.628906 Z M 63.988281 24.378906 C 63.101562 24.417969 62.683594 25.042969 62.1875 25.59375 C 61.867188 25.113281 61.472656 24.636719 60.960938 24.367188 C 60.289062 24.015625 59.675781 24.378906 59.527344 24.976562 C 59.363281 25.617188 59.804688 26.304688 60.234375 26.855469 C 60.695312 27.445312 61.273438 28.175781 61.917969 28.605469 C 61.921875 28.609375 61.929688 28.609375 61.9375 28.613281 C 62 28.714844 62.128906 28.78125 62.246094 28.722656 C 63.1875 28.25 63.867188 27.335938 64.503906 26.558594 C 64.800781 26.195312 65.371094 25.644531 65.253906 25.09375 C 65.132812 24.53125 64.496094 24.355469 63.988281 24.378906 Z M 51.332031 35.90625 C 52.035156 36.160156 52.914062 36.476562 53.683594 36.5 C 53.691406 36.5 53.699219 36.496094 53.703125 36.496094 C 53.8125 36.546875 53.957031 36.535156 54.027344 36.421875 C 54.574219 35.523438 54.667969 34.390625 54.796875 33.394531 C 54.855469 32.929688 55.050781 32.15625 54.660156 31.753906 C 54.257812 31.339844 53.625 31.527344 53.207031 31.816406 C 52.472656 32.320312 52.453125 33.074219 52.320312 33.800781 C 51.796875 33.566406 51.210938 33.367188 50.632812 33.410156 C 49.875 33.46875 49.546875 34.101562 49.738281 34.6875 C 49.9375 35.316406 50.675781 35.671875 51.332031 35.90625 Z M 46.613281 33.046875 C 46.941406 33.449219 46.777344 34.222656 46.726562 34.6875 C 46.617188 35.683594 46.539062 36.816406 46.074219 37.71875 C 46.015625 37.828125 45.890625 37.839844 45.800781 37.789062 C 45.792969 37.789062 45.789062 37.792969 45.785156 37.792969 C 45.128906 37.769531 44.382812 37.457031 43.785156 37.199219 C 43.226562 36.964844 42.601562 36.609375 42.429688 35.980469 C 42.269531 35.394531 42.546875 34.761719 43.191406 34.703125 C 43.679688 34.660156 44.179688 34.859375 44.625 35.09375 C 44.734375 34.367188 44.753906 33.613281 45.378906 33.109375 C 45.734375 32.820312 46.269531 32.632812 46.613281 33.046875 " fill-opacity="1" fill-rule="nonzero"/><path fill="#f7d2d3" d="M 81.636719 27.980469 C 81.304688 27.953125 76.722656 28.421875 76.703125 28.535156 C 76.566406 29.203125 79.539062 28.707031 79.871094 28.667969 C 80.152344 28.636719 82.296875 28.027344 81.636719 27.980469 Z M 78.328125 21.046875 C 78.371094 21.214844 78.433594 21.402344 78.574219 21.515625 C 78.742188 21.648438 78.980469 21.527344 78.933594 21.304688 C 78.90625 21.164062 78.835938 21.03125 78.792969 20.894531 C 78.75 20.757812 78.730469 20.597656 78.648438 20.480469 C 78.550781 20.34375 78.347656 20.359375 78.292969 20.527344 C 78.238281 20.6875 78.285156 20.886719 78.328125 21.046875 Z M 74.289062 21.707031 C 74.433594 20.78125 74.808594 19.796875 75.351562 19.03125 C 75.660156 18.597656 76.0625 18.179688 76.640625 18.292969 C 77.324219 18.425781 77.628906 19.148438 78.011719 19.644531 C 78.085938 19.734375 78.25 19.679688 78.273438 19.574219 C 78.414062 18.9375 77.746094 18.265625 77.238281 17.980469 C 76.6875 17.671875 76.085938 17.730469 75.570312 18.074219 C 74.492188 18.792969 74.023438 20.441406 74.085938 21.679688 C 74.09375 21.789062 74.273438 21.828125 74.289062 21.707031 Z M 80.351562 49.796875 C 79.472656 49.765625 78.636719 50.023438 77.773438 50.140625 C 76.683594 50.285156 75.679688 50.214844 74.652344 49.8125 C 74.460938 49.738281 74.335938 50.046875 74.511719 50.140625 C 76.28125 51.089844 78.578125 50.839844 80.394531 50.113281 C 80.554688 50.046875 80.542969 49.804688 80.351562 49.796875 Z M 87.898438 38.246094 C 87.726562 38.1875 87.648438 38.429688 87.78125 38.523438 C 88.640625 39.128906 89.078125 40.09375 89.292969 41.085938 C 89.492188 42.019531 89.238281 42.9375 89.433594 43.855469 C 89.476562 44.0625 89.796875 44.105469 89.890625 43.917969 C 90.824219 42.0625 90.015625 38.957031 87.898438 38.246094 Z M 48.613281 51.628906 C 46.8125 51.644531 45.125 51.808594 43.34375 51.351562 C 41.6875 50.929688 39.769531 49.992188 39.03125 48.355469 C 38.949219 48.175781 38.652344 48.304688 38.710938 48.488281 C 39.257812 50.226562 41.066406 51.363281 42.726562 51.875 C 44.5 52.421875 46.953125 52.734375 48.703125 51.953125 C 48.867188 51.882812 48.777344 51.625 48.613281 51.628906 Z M 52.320312 25.996094 C 52.621094 25.0625 52.960938 24.125 53.699219 23.441406 C 54.535156 22.664062 55.617188 22.539062 56.699219 22.414062 C 56.933594 22.386719 56.941406 22.066406 56.699219 22.046875 C 55.007812 21.902344 53.457031 22.535156 52.472656 23.941406 C 51.960938 24.667969 51.683594 25.46875 51.410156 26.304688 C 51.011719 27.511719 50.507812 28.296875 49.667969 29.234375 C 49.539062 29.378906 49.664062 29.695312 49.882812 29.601562 C 51.375 28.984375 51.863281 27.410156 52.320312 25.996094 Z M 41.761719 32.164062 C 41.917969 32.050781 41.785156 31.824219 41.609375 31.902344 C 40.3125 32.492188 39.90625 33.652344 39.96875 35.027344 C 40.027344 36.265625 40.308594 38 41.085938 39.007812 C 41.195312 39.148438 41.417969 39.109375 41.425781 38.917969 C 41.476562 37.925781 40.945312 36.871094 40.765625 35.90625 C 40.519531 34.578125 40.542969 33.023438 41.761719 32.164062 Z M 66.339844 66.859375 C 66.671875 66.558594 66.976562 66.25 67.257812 65.941406 C 67.261719 65.9375 67.265625 65.933594 67.269531 65.929688 C 67.359375 65.828125 67.449219 65.726562 67.535156 65.625 C 68.796875 64.140625 69.457031 62.605469 69.402344 61.171875 C 69.355469 60.007812 68.8125 59.046875 67.933594 58.570312 C 67.894531 58.546875 67.851562 58.523438 67.808594 58.503906 C 67.53125 58.371094 67.253906 58.304688 66.984375 58.304688 C 66.945312 58.304688 66.90625 58.308594 66.867188 58.3125 C 66.832031 58.316406 66.792969 58.320312 66.757812 58.324219 C 65.316406 58.523438 64.109375 60.554688 63.75 61.363281 C 63.5 61.925781 62.699219 61.929688 62.449219 61.363281 C 62.175781 60.75 61.414062 59.429688 60.429688 58.742188 C 60.386719 58.710938 60.339844 58.679688 60.292969 58.652344 C 60.285156 58.644531 60.277344 58.640625 60.265625 58.636719 C 60.230469 58.613281 60.191406 58.589844 60.15625 58.570312 C 60.140625 58.5625 60.128906 58.554688 60.117188 58.546875 C 60.082031 58.53125 60.046875 58.515625 60.015625 58.5 C 59.996094 58.492188 59.984375 58.484375 59.964844 58.476562 C 59.933594 58.460938 59.902344 58.449219 59.871094 58.4375 C 59.851562 58.429688 59.835938 58.421875 59.816406 58.417969 C 59.785156 58.40625 59.753906 58.394531 59.722656 58.386719 C 59.707031 58.378906 59.6875 58.375 59.667969 58.371094 C 59.636719 58.363281 59.605469 58.355469 59.574219 58.347656 C 59.554688 58.34375 59.535156 58.339844 59.519531 58.335938 C 59.484375 58.328125 59.449219 58.324219 59.414062 58.320312 C 59.398438 58.316406 59.382812 58.316406 59.367188 58.3125 C 59.316406 58.308594 59.265625 58.304688 59.214844 58.304688 C 59.140625 58.304688 59.066406 58.3125 58.992188 58.324219 C 58.988281 58.324219 58.984375 58.324219 58.984375 58.324219 C 58.910156 58.335938 58.835938 58.347656 58.761719 58.367188 C 58.640625 58.402344 58.519531 58.445312 58.394531 58.503906 C 57.582031 58.886719 57.09375 59.648438 57.015625 60.644531 C 56.964844 61.3125 57.058594 63.152344 59.070312 65.589844 C 59.121094 65.652344 59.175781 65.710938 59.226562 65.773438 C 59.238281 65.785156 59.246094 65.796875 59.257812 65.808594 C 59.304688 65.863281 59.347656 65.914062 59.394531 65.96875 C 59.40625 65.980469 59.417969 65.992188 59.429688 66.003906 C 59.476562 66.058594 59.527344 66.113281 59.578125 66.167969 C 59.585938 66.179688 59.59375 66.1875 59.601562 66.199219 C 59.910156 66.53125 60.253906 66.875 60.640625 67.226562 C 61.332031 67.863281 62.15625 68.523438 63.132812 69.207031 C 64.367188 68.46875 65.445312 67.679688 66.339844 66.859375 Z M 67.371094 68.003906 C 67.265625 69.445312 67.15625 70.761719 67.039062 72.035156 C 66.988281 72.601562 66.976562 73.210938 66.964844 73.855469 C 66.921875 76.28125 66.792969 77.976562 65.582031 78.382812 C 65.84375 75.277344 66.042969 72.179688 66.226562 68.964844 C 65.320312 69.667969 64.28125 70.367188 63.082031 71.054688 C 62.199219 70.453125 61.398438 69.855469 60.675781 69.253906 C 60.6875 70.039062 60.699219 70.804688 60.710938 71.542969 C 60.761719 74.570312 60.800781 77.054688 60.859375 78.40625 C 60.4375 78.367188 60.175781 78.292969 60.074219 78.1875 C 59.960938 78.070312 59.945312 77.71875 59.929688 77.269531 C 59.917969 76.96875 59.90625 76.628906 59.863281 76.226562 C 59.726562 74.980469 59.605469 73.640625 59.46875 71.886719 C 59.371094 70.636719 59.285156 69.34375 59.199219 67.933594 C 54.019531 62.875 54.410156 58.269531 57.273438 56.917969 C 57.773438 56.679688 58.253906 56.59375 58.703125 56.613281 C 58.609375 53.589844 58.535156 50.605469 58.46875 47.773438 C 58.886719 47.96875 59.316406 48.148438 59.746094 48.3125 C 59.9375 49.6875 60.140625 51.960938 60.3125 55.703125 C 60.332031 56.195312 60.355469 56.695312 60.375 57.203125 C 61.289062 57.8125 62.011719 58.777344 62.476562 59.53125 C 62.757812 59.980469 63.410156 59.980469 63.6875 59.53125 C 64.320312 58.511719 65.414062 57.109375 66.828125 56.714844 C 66.878906 55.503906 66.925781 54.308594 66.96875 53.132812 C 66.984375 52.710938 66.96875 52.191406 66.953125 51.640625 C 66.925781 50.816406 66.898438 49.914062 66.972656 49.191406 C 67.4375 49.101562 67.898438 48.976562 68.34375 48.820312 C 68.242188 51.511719 68.140625 54.101562 68.023438 56.644531 C 68.304688 56.6875 68.59375 56.777344 68.894531 56.917969 C 71.742188 58.261719 72.75 63.121094 67.371094 68.003906 Z M 75.769531 77.484375 C 76.875 77.046875 77.019531 76.066406 77.179688 74.335938 C 77.21875 73.890625 77.261719 73.429688 77.335938 72.941406 C 77.6875 70.53125 77.996094 67.929688 78.34375 64.507812 C 78.679688 61.1875 78.957031 57.808594 79.222656 54.539062 C 79.304688 53.488281 79.394531 52.4375 79.480469 51.382812 C 79.046875 51.453125 78.609375 51.539062 78.183594 51.621094 C 77.738281 60.027344 76.929688 68.710938 75.769531 77.484375 Z M 71 78.066406 C 72.179688 77.523438 72.402344 75.746094 72.5625 73.382812 C 72.601562 72.800781 72.636719 72.257812 72.703125 71.742188 C 73.039062 69.074219 73.335938 66.214844 73.667969 62.476562 C 73.964844 59.148438 74.207031 55.875 74.386719 53.390625 C 74.425781 52.886719 74.480469 52.40625 74.53125 51.945312 C 74.542969 51.839844 74.554688 51.734375 74.566406 51.632812 C 74.136719 51.464844 73.726562 51.199219 73.347656 50.808594 C 72.824219 60.359375 72.035156 69.507812 71 78.066406 Z M 50.773438 52.566406 C 50.796875 52.722656 50.816406 52.863281 50.835938 52.984375 C 50.917969 53.542969 50.976562 53.949219 50.992188 54.15625 C 51.164062 56.535156 51.402344 59.671875 51.691406 62.863281 C 51.976562 66.035156 52.238281 68.59375 52.519531 70.914062 C 52.585938 71.449219 52.621094 72.019531 52.660156 72.625 C 52.820312 75.152344 53.046875 77.058594 54.28125 77.710938 C 53.273438 69.226562 52.519531 60.570312 52.027344 51.890625 C 51.628906 52.148438 51.210938 52.375 50.773438 52.566406 Z M 45.296875 53.210938 C 45.300781 53.277344 45.308594 53.347656 45.316406 53.421875 C 45.351562 53.742188 45.386719 54.105469 45.421875 54.523438 C 45.617188 56.929688 45.828125 59.496094 46.070312 62.070312 C 46.144531 62.851562 46.175781 63.824219 46.214844 64.949219 C 46.351562 68.785156 46.542969 74.382812 48.722656 76.230469 C 47.730469 68.289062 47.007812 60.585938 46.566406 53.269531 C 46.15625 53.265625 45.730469 53.246094 45.296875 53.210938 Z M 45.773438 25.546875 C 45.242188 26.019531 44.660156 26.433594 44.042969 26.785156 C 44.015625 26.800781 43.984375 26.8125 43.957031 26.828125 C 44.175781 27.214844 44.390625 27.589844 44.597656 27.953125 C 46.261719 27.148438 47.589844 25.511719 48.617188 23.894531 C 48.421875 23.574219 48.226562 23.242188 48.027344 22.910156 C 47.371094 23.867188 46.644531 24.769531 45.773438 25.546875 Z M 41.910156 23.21875 C 41.902344 23.21875 41.898438 23.222656 41.894531 23.226562 C 42.132812 23.644531 42.375 24.058594 42.609375 24.472656 C 43.453125 23.933594 44.207031 23.117188 44.769531 22.503906 C 45.40625 21.816406 45.980469 21.066406 46.476562 20.273438 C 46.246094 19.875 46.015625 19.480469 45.792969 19.089844 C 45.183594 19.941406 44.542969 20.765625 43.800781 21.535156 C 43.214844 22.148438 42.601562 22.722656 41.910156 23.21875 Z M 40.042969 19.410156 C 39.960938 19.472656 39.875 19.53125 39.789062 19.585938 C 39.992188 19.933594 40.195312 20.285156 40.402344 20.644531 C 41.1875 20.132812 41.90625 19.359375 42.375 18.847656 C 43.050781 18.109375 43.757812 17.339844 44.304688 16.484375 C 44.074219 16.082031 43.863281 15.710938 43.667969 15.371094 C 43.074219 16.273438 42.363281 17.097656 41.625 17.886719 C 41.128906 18.417969 40.613281 18.957031 40.042969 19.410156 Z M 38.367188 17.140625 C 38.113281 16.695312 37.871094 16.28125 37.648438 15.902344 C 38.265625 15.398438 38.9375 14.9375 39.5 14.398438 C 40.316406 13.609375 40.992188 12.679688 41.601562 11.71875 C 41.78125 12.023438 41.976562 12.386719 42.210938 12.808594 C 41.386719 14.539062 40.050781 16.28125 38.367188 17.140625 " fill-opacity="1" fill-rule="nonzero"/><g clip-path="url(#8a96552ea8)"><path fill="#f489a8" d="M 41.382812 70.761719 C 40.179688 71.113281 39.054688 71.976562 38.039062 72.6875 C 36.972656 73.4375 35.964844 74.242188 35.082031 75.210938 C 34.71875 75.609375 35.28125 76.175781 35.675781 75.804688 C 36.636719 74.886719 37.707031 74.097656 38.804688 73.355469 C 39.75 72.710938 40.910156 72.125 41.664062 71.246094 C 41.84375 71.039062 41.675781 70.675781 41.382812 70.761719 Z M 38.5 61.269531 C 38.742188 61.210938 38.785156 60.8125 38.515625 60.753906 C 37.417969 60.519531 36.257812 60.6875 35.152344 60.808594 C 33.863281 60.949219 32.578125 61.148438 31.292969 61.296875 C 30.925781 61.339844 30.992188 61.957031 31.359375 61.941406 C 32.597656 61.894531 33.828125 61.777344 35.0625 61.65625 C 36.191406 61.542969 37.394531 61.546875 38.5 61.269531 Z M 33.605469 48.257812 C 31.867188 47.871094 29.480469 48.1875 27.910156 49.023438 C 27.488281 49.25 27.8125 49.992188 28.261719 49.800781 C 29.980469 49.058594 31.910156 49.484375 33.628906 48.882812 C 33.921875 48.78125 33.929688 48.328125 33.605469 48.257812 Z M 34.566406 37.644531 C 34.800781 37.65625 34.972656 37.308594 34.773438 37.152344 C 33.878906 36.449219 32.59375 36.292969 31.507812 36.074219 C 30.160156 35.800781 28.796875 35.515625 27.539062 34.9375 C 27.15625 34.761719 26.832031 35.285156 27.207031 35.511719 C 28.324219 36.203125 29.527344 36.566406 30.804688 36.851562 C 32.011719 37.121094 33.335938 37.59375 34.566406 37.644531 Z M 30.957031 22.980469 C 31.59375 23.128906 32.019531 23.542969 32.496094 23.964844 C 32.976562 24.386719 33.496094 24.746094 34.035156 25.097656 C 35.273438 25.902344 36.679688 26.765625 38.152344 27.027344 C 38.410156 27.074219 38.5625 26.753906 38.335938 26.601562 C 36.8125 25.59375 35.101562 24.902344 33.605469 23.839844 C 32.910156 23.339844 31.867188 22.023438 30.898438 22.535156 C 30.714844 22.628906 30.753906 22.933594 30.957031 22.980469 Z M 51.140625 13.046875 C 50.335938 11.671875 49.378906 10.390625 48.605469 9 C 48.445312 8.714844 47.9375 8.910156 48.066406 9.226562 C 48.683594 10.738281 49.613281 12.058594 50.386719 13.488281 C 51.035156 14.6875 51.5 16.3125 52.652344 17.132812 C 52.867188 17.285156 53.207031 17.027344 53.113281 16.777344 C 52.640625 15.515625 51.820312 14.210938 51.140625 13.046875 Z M 91.925781 74.914062 C 90.136719 74.003906 88.070312 73.722656 86.601562 72.222656 C 86.242188 71.855469 85.699219 72.40625 86.039062 72.785156 C 87.363281 74.253906 89.804688 75.394531 91.792969 75.40625 C 92.046875 75.410156 92.167969 75.035156 91.925781 74.914062 Z M 93.5625 62.929688 C 92.746094 62.277344 91.625 61.957031 90.660156 61.589844 C 89.574219 61.179688 88.488281 60.769531 87.390625 60.394531 C 86.898438 60.226562 86.613281 60.917969 87.082031 61.140625 C 88.128906 61.644531 89.203125 62.074219 90.285156 62.496094 C 91.25 62.875 92.292969 63.402344 93.328125 63.503906 C 93.640625 63.535156 93.8125 63.128906 93.5625 62.929688 Z M 99.53125 46.609375 C 98.6875 46.027344 97.769531 45.457031 96.828125 45.054688 C 95.914062 44.664062 94.925781 44.484375 94.035156 44.042969 C 93.617188 43.835938 93.261719 44.425781 93.667969 44.671875 C 94.585938 45.226562 95.613281 45.472656 96.59375 45.894531 C 97.53125 46.292969 98.402344 46.867188 99.425781 47.003906 C 99.652344 47.035156 99.683594 46.714844 99.53125 46.609375 Z M 88.367188 30.984375 C 89.597656 30.78125 90.839844 30.667969 92.074219 30.507812 C 92.957031 30.394531 93.925781 30.300781 94.625 29.710938 C 94.796875 29.566406 94.644531 29.320312 94.460938 29.304688 C 93.410156 29.214844 92.246094 29.597656 91.207031 29.734375 C 90.179688 29.867188 89.171875 30 88.1875 30.332031 C 87.769531 30.472656 87.941406 31.054688 88.367188 30.984375 Z M 86.539062 17.859375 C 87.761719 16.835938 89.1875 15.550781 89.84375 14.0625 C 89.976562 13.761719 89.652344 13.503906 89.394531 13.714844 C 88.132812 14.738281 87.105469 16.125 85.960938 17.28125 C 85.582031 17.660156 86.140625 18.195312 86.539062 17.859375 Z M 77.417969 6.222656 C 76.742188 7.292969 76.246094 8.472656 75.753906 9.636719 C 75.292969 10.730469 74.597656 12.003906 74.550781 13.207031 C 74.539062 13.492188 74.957031 13.695312 75.148438 13.457031 C 75.867188 12.566406 76.164062 11.269531 76.566406 10.214844 C 77.046875 8.964844 77.59375 7.746094 78.09375 6.507812 C 78.257812 6.105469 77.632812 5.882812 77.417969 6.222656 Z M 63.789062 11.566406 C 63.828125 13.195312 63.984375 15.050781 63.566406 16.640625 C 63.480469 16.957031 63.011719 16.957031 62.929688 16.640625 C 62.511719 15.050781 62.667969 13.195312 62.703125 11.566406 C 62.742188 9.777344 62.769531 7.988281 62.9375 6.207031 C 62.972656 5.804688 63.519531 5.804688 63.558594 6.207031 C 63.722656 7.988281 63.75 9.777344 63.789062 11.566406 " fill-opacity="1" fill-rule="nonzero"/></g><g fill="#000000" fill-opacity="1"><g transform="translate(35.705053, 96.49633)"><g><path d="M 2.597656 0.671875 C 3.378906 0.671875 3.910156 0.558594 4.582031 0.140625 C 5.054688 -0.167969 5.476562 -0.585938 5.894531 -1.0625 C 6.84375 -2.09375 8.910156 -5.53125 9.554688 -6.761719 C 9.636719 -6.957031 9.75 -7.179688 9.832031 -7.402344 C 9.917969 -7.597656 10.027344 -7.820312 10.113281 -8.015625 C 10.140625 -8.074219 10.140625 -8.128906 10.167969 -8.183594 C 10.195312 -8.214844 10.195312 -8.269531 10.222656 -8.324219 C 10.222656 -8.378906 10.222656 -8.410156 10.195312 -8.4375 C 10.167969 -8.546875 10.027344 -8.605469 9.917969 -8.605469 C 9.722656 -8.605469 9.636719 -8.410156 9.554688 -8.269531 C 9.46875 -8.074219 9.386719 -7.90625 9.332031 -7.738281 C 9.246094 -7.542969 9.164062 -7.375 9.078125 -7.207031 C 8.910156 -6.703125 7.851562 -5 7.179688 -3.996094 C 6.480469 -2.933594 5.363281 -1.285156 4.917969 -0.894531 C 4.386719 -0.417969 3.714844 0.167969 2.960938 0.25 C 2.515625 0.25 2.152344 0.25 1.84375 -0.167969 C 1.703125 -0.308594 1.59375 -0.445312 1.507812 -0.640625 C 1.398438 -0.894531 1.3125 -1.144531 1.230469 -1.398438 C 0.921875 -2.402344 0.78125 -3.519531 0.867188 -4.777344 C 0.894531 -4.917969 0.921875 -5.140625 0.921875 -5.417969 C 1.144531 -9.023438 2.542969 -14.554688 5.894531 -16.230469 C 6.257812 -16.398438 6.648438 -16.480469 7.066406 -16.480469 C 7.125 -16.480469 7.179688 -16.480469 7.261719 -16.480469 C 7.320312 -16.453125 7.375 -16.453125 7.429688 -16.453125 C 7.683594 -16.425781 7.90625 -16.285156 8.046875 -16.035156 C 8.242188 -15.671875 8.324219 -15.28125 8.296875 -14.890625 C 8.101562 -13.324219 7.347656 -12.179688 6.144531 -11.257812 C 6.0625 -11.230469 6.007812 -11.175781 5.976562 -11.144531 C 5.671875 -11.007812 5.449219 -10.894531 5.140625 -10.894531 C 5.054688 -10.894531 4.972656 -10.894531 4.917969 -10.921875 L 4.777344 -10.921875 C 4.722656 -10.867188 4.691406 -10.839844 4.691406 -10.839844 C 4.691406 -10.8125 4.722656 -10.753906 4.75 -10.726562 C 5.027344 -10.585938 5.308594 -10.53125 5.613281 -10.53125 C 7.375 -10.53125 8.742188 -12.792969 9.078125 -14.414062 C 9.273438 -15.28125 8.882812 -16.285156 7.90625 -16.734375 C 7.820312 -16.761719 7.738281 -16.816406 7.652344 -16.84375 C 7.570312 -16.871094 7.488281 -16.902344 7.402344 -16.929688 C 7.039062 -17.011719 6.703125 -17.066406 6.398438 -17.066406 C 5.027344 -17.066406 3.882812 -16.34375 2.988281 -15.222656 C 2.515625 -14.664062 2.125 -14.050781 1.761719 -13.351562 C 1.0625 -11.957031 0.53125 -10.417969 0.195312 -9.050781 C 0.0273438 -8.351562 -0.0820312 -7.738281 -0.167969 -7.207031 C -0.222656 -6.871094 -0.25 -6.535156 -0.28125 -6.203125 C -0.308594 -5.867188 -0.335938 -5.53125 -0.363281 -5.195312 C -0.445312 -4.636719 -0.445312 -4.078125 -0.417969 -3.546875 C -0.335938 -2.683594 -0.222656 -1.84375 0.0820312 -1.035156 C 0.613281 0.167969 1.144531 0.671875 2.597656 0.671875 Z M 2.597656 0.671875 "/></g></g></g><g fill="#000000" fill-opacity="1"><g transform="translate(44.532103, 96.49633)"><g><path d="M 4.050781 -3.210938 C 4.359375 -3.210938 4.609375 -3.351562 4.75 -3.605469 C 4.859375 -3.742188 4.945312 -3.855469 4.972656 -3.9375 C 5.671875 -5.25 6.371094 -6.453125 7.125 -7.765625 L 7.347656 -8.242188 C 7.429688 -8.4375 7.347656 -8.546875 7.152344 -8.574219 C 6.957031 -8.574219 6.84375 -8.519531 6.761719 -8.378906 C 6.0625 -7.125 5.363281 -5.894531 4.609375 -4.691406 L 4.414062 -4.441406 C 4.386719 -4.441406 4.386719 -4.441406 4.359375 -4.414062 C 4.273438 -4.441406 4.246094 -4.46875 4.246094 -4.496094 L 4.246094 -4.886719 L 4.414062 -6.257812 C 4.496094 -6.84375 4.554688 -7.429688 4.636719 -7.960938 C 4.636719 -8.074219 4.636719 -8.183594 4.636719 -8.269531 C 4.636719 -8.351562 4.636719 -8.464844 4.609375 -8.546875 C 4.609375 -8.660156 4.554688 -8.742188 4.414062 -8.800781 C 4.273438 -8.882812 4.164062 -8.910156 4.078125 -8.910156 C 3.910156 -8.910156 3.769531 -8.828125 3.632812 -8.632812 C 3.546875 -8.492188 3.4375 -8.351562 3.351562 -8.183594 L 2.683594 -6.984375 C 2.457031 -6.535156 1.703125 -5.027344 1.285156 -4.777344 C 1.285156 -4.777344 1.257812 -4.777344 1.230469 -4.777344 L 1.203125 -4.804688 C 1.171875 -4.945312 1.144531 -5.027344 1.171875 -5.085938 C 1.203125 -5.335938 1.257812 -5.558594 1.285156 -5.808594 C 1.3125 -6.0625 1.367188 -6.3125 1.398438 -6.566406 C 1.453125 -6.871094 1.507812 -7.207031 1.59375 -7.542969 C 1.675781 -7.851562 1.730469 -8.183594 1.789062 -8.492188 C 1.816406 -8.574219 1.84375 -8.6875 1.84375 -8.800781 C 1.84375 -8.882812 1.84375 -8.996094 1.871094 -9.078125 C 1.871094 -9.21875 1.789062 -9.332031 1.648438 -9.386719 L 1.480469 -9.46875 C 1.285156 -9.46875 1.117188 -9.496094 1.003906 -9.300781 L 0.753906 -8.773438 C 0.28125 -7.457031 0.0273438 -6.230469 -0.167969 -4.859375 C -0.195312 -4.496094 -0.195312 -4.21875 -0.113281 -3.964844 C -0.0273438 -3.742188 0.113281 -3.605469 0.25 -3.519531 C 0.417969 -3.40625 0.613281 -3.351562 0.808594 -3.351562 C 1.035156 -3.351562 1.203125 -3.4375 1.339844 -3.574219 L 1.648438 -3.996094 L 2.484375 -5.335938 C 2.570312 -5.476562 2.652344 -5.644531 2.765625 -5.78125 C 2.792969 -5.839844 2.847656 -5.894531 2.878906 -5.976562 C 2.90625 -6.035156 2.933594 -6.0625 3.015625 -6.035156 C 3.042969 -6.007812 3.074219 -5.976562 3.074219 -5.921875 C 3.074219 -5.839844 3.074219 -5.78125 3.042969 -5.726562 L 3.015625 -5.53125 C 2.988281 -5.335938 2.960938 -5.167969 2.960938 -5 C 2.960938 -4.804688 2.960938 -4.609375 2.960938 -4.414062 C 2.960938 -4.21875 3.015625 -4.023438 3.101562 -3.769531 C 3.296875 -3.40625 3.632812 -3.210938 4.050781 -3.210938 Z M 4.050781 -3.210938 "/></g></g></g><g fill="#000000" fill-opacity="1"><g transform="translate(50.509918, 96.49633)"><g><path d="M -0.476562 0.949219 C 0.0546875 0.921875 0.167969 0.78125 0.25 0.363281 C 0.28125 0.308594 0.28125 0.222656 0.28125 0.0820312 C 0.308594 -0.113281 0.363281 -0.28125 0.390625 -0.476562 C 0.417969 -0.671875 0.476562 -0.867188 0.503906 -1.0625 C 0.839844 -2.765625 1.285156 -4.496094 2.066406 -6.0625 C 2.09375 -6.144531 2.125 -6.171875 2.125 -6.171875 C 2.152344 -6.257812 2.179688 -6.285156 2.234375 -6.285156 C 2.320312 -6.285156 2.347656 -6.257812 2.375 -6.171875 C 2.515625 -5.921875 2.765625 -5.78125 3.128906 -5.753906 C 3.769531 -5.753906 4.078125 -5.976562 4.414062 -6.507812 C 4.886719 -7.09375 5.195312 -7.765625 5.363281 -8.519531 C 5.449219 -8.855469 5.503906 -9.191406 5.417969 -9.554688 C 5.308594 -10.085938 4.832031 -10.390625 4.300781 -10.390625 C 3.605469 -10.390625 3.042969 -9.664062 2.738281 -9.132812 C 2.542969 -8.773438 2.375 -8.378906 2.179688 -8.015625 C 2.125 -7.933594 2.09375 -7.820312 2.066406 -7.710938 C 2.039062 -7.597656 1.957031 -7.515625 1.84375 -7.457031 C 1.761719 -7.429688 1.789062 -7.652344 1.898438 -8.128906 C 1.898438 -8.15625 1.898438 -8.183594 1.925781 -8.214844 C 1.925781 -8.214844 1.925781 -8.242188 1.925781 -8.269531 C 2.375 -9.972656 2.738281 -11.675781 3.101562 -13.4375 C 3.183594 -13.6875 3.210938 -13.910156 3.183594 -14.164062 C 3.183594 -14.359375 2.933594 -14.46875 2.792969 -14.46875 C 2.652344 -14.46875 2.515625 -14.414062 2.429688 -14.273438 L 2.261719 -13.96875 C 2.207031 -13.828125 2.152344 -13.660156 2.09375 -13.519531 C 2.011719 -13.382812 1.957031 -13.214844 1.898438 -13.046875 L 1.3125 -10.921875 C 0.558594 -8.101562 -0.140625 -5.222656 -0.558594 -2.320312 C -0.699219 -1.535156 -0.808594 -0.78125 -0.894531 0.0273438 L -0.894531 0.53125 C -0.894531 0.808594 -0.753906 0.949219 -0.476562 0.949219 Z M 2.542969 -6.789062 C 2.515625 -6.789062 2.484375 -6.816406 2.457031 -6.871094 L 2.484375 -6.984375 C 2.738281 -7.570312 3.015625 -8.183594 3.378906 -8.800781 C 3.519531 -9.105469 3.714844 -9.386719 3.964844 -9.582031 L 4.21875 -9.777344 C 4.246094 -9.777344 4.246094 -9.777344 4.246094 -9.804688 C 4.246094 -9.804688 4.246094 -9.804688 4.273438 -9.804688 C 4.414062 -9.804688 4.46875 -9.75 4.46875 -9.636719 C 4.496094 -9.582031 4.496094 -9.496094 4.496094 -9.386719 L 4.359375 -8.742188 C 4.273438 -8.351562 3.6875 -6.84375 3.242188 -6.84375 L 3.183594 -6.84375 C 3.15625 -6.871094 3.101562 -6.871094 3.042969 -6.871094 L 2.960938 -6.871094 C 2.878906 -6.871094 2.820312 -6.871094 2.765625 -6.84375 C 2.683594 -6.816406 2.625 -6.816406 2.542969 -6.789062 Z M 2.542969 -6.789062 "/></g></g></g><g fill="#000000" fill-opacity="1"><g transform="translate(56.431861, 96.49633)"><g/></g></g><g fill="#000000" fill-opacity="1"><g transform="translate(63.694616, 96.49633)"><g><path d="M 1.035156 -2.683594 C 1.5625 -2.683594 1.925781 -3.015625 2.261719 -3.351562 C 2.710938 -3.769531 3.074219 -4.21875 3.492188 -4.75 L 5.78125 -7.792969 C 5.839844 -7.878906 5.894531 -7.933594 5.949219 -8.015625 C 6.007812 -8.101562 6.0625 -8.183594 6.117188 -8.269531 L 6.203125 -8.4375 C 6.230469 -8.519531 6.171875 -8.632812 6.089844 -8.660156 C 6.0625 -8.6875 5.976562 -8.6875 5.894531 -8.6875 C 5.808594 -8.6875 5.726562 -8.660156 5.671875 -8.605469 L 5 -7.792969 C 4.300781 -6.816406 3.605469 -5.894531 2.847656 -4.972656 C 2.484375 -4.46875 2.039062 -3.996094 1.507812 -3.519531 C 1.398438 -3.4375 1.285156 -3.378906 1.144531 -3.296875 C 1.117188 -3.269531 1.089844 -3.269531 1.0625 -3.269531 C 1.003906 -3.269531 0.949219 -3.296875 0.921875 -3.378906 C 0.839844 -3.742188 0.78125 -4.105469 0.808594 -4.46875 C 1.0625 -7.125 1.59375 -9.105469 3.242188 -11.230469 C 3.269531 -11.257812 3.324219 -11.3125 3.378906 -11.339844 C 3.40625 -11.371094 3.464844 -11.398438 3.492188 -11.425781 C 3.519531 -11.453125 3.519531 -11.453125 3.546875 -11.453125 C 3.632812 -11.453125 3.6875 -11.425781 3.6875 -11.339844 C 3.714844 -11.285156 3.714844 -11.230469 3.714844 -11.144531 C 3.742188 -10.617188 3.660156 -10.113281 3.492188 -9.582031 L 3.324219 -9.078125 C 3.296875 -8.996094 3.324219 -8.910156 3.464844 -8.882812 C 3.492188 -8.882812 3.519531 -8.882812 3.546875 -8.882812 C 3.574219 -8.855469 3.574219 -8.855469 3.605469 -8.855469 C 3.742188 -8.855469 3.882812 -8.9375 3.964844 -9.078125 C 4.328125 -9.722656 4.496094 -10.449219 4.441406 -11.230469 C 4.441406 -11.453125 4.359375 -11.621094 4.191406 -11.734375 C 3.882812 -11.984375 3.546875 -12.125 3.210938 -12.125 C 2.960938 -12.125 2.683594 -12.011719 2.429688 -11.816406 C 0.671875 -10.28125 -0.28125 -7.292969 -0.417969 -5 C -0.417969 -4.359375 -0.417969 -3.910156 -0.222656 -3.4375 C -0.167969 -3.242188 -0.0546875 -3.101562 0.113281 -2.960938 C 0.417969 -2.765625 0.699219 -2.710938 1.035156 -2.683594 Z M 1.035156 -2.683594 "/></g></g></g><g fill="#000000" fill-opacity="1"><g transform="translate(68.499209, 96.49633)"><g><path d="M 4.441406 -2.652344 C 4.722656 -2.652344 4.972656 -2.765625 5.222656 -2.988281 C 5.449219 -3.183594 5.644531 -3.378906 5.839844 -3.605469 C 6.117188 -3.964844 6.398438 -4.386719 6.703125 -4.804688 L 7.878906 -6.648438 C 8.015625 -6.84375 8.128906 -7.066406 8.269531 -7.292969 C 8.378906 -7.515625 8.492188 -7.738281 8.632812 -7.960938 C 8.714844 -8.101562 8.742188 -8.242188 8.773438 -8.324219 C 8.773438 -8.324219 8.773438 -8.351562 8.773438 -8.4375 C 8.742188 -8.574219 8.632812 -8.632812 8.4375 -8.632812 C 8.351562 -8.632812 8.296875 -8.605469 8.269531 -8.546875 C 8.15625 -8.4375 8.074219 -8.296875 8.015625 -8.15625 C 7.429688 -7.039062 5.921875 -4.664062 5.027344 -3.769531 C 4.945312 -3.6875 4.859375 -3.632812 4.777344 -3.574219 C 4.691406 -3.492188 4.609375 -3.4375 4.496094 -3.378906 C 4.46875 -3.378906 4.46875 -3.378906 4.46875 -3.378906 C 4.46875 -3.351562 4.46875 -3.351562 4.441406 -3.351562 C 4.359375 -3.351562 4.300781 -3.40625 4.246094 -3.492188 C 4.164062 -3.800781 4.246094 -4.105469 4.273438 -4.414062 C 4.46875 -5.335938 4.636719 -6.203125 4.972656 -7.066406 C 5.195312 -7.597656 5.417969 -8.128906 5.613281 -8.660156 C 5.753906 -8.855469 6.203125 -10.113281 6.203125 -10.253906 C 6.230469 -10.390625 6.171875 -10.476562 6.0625 -10.53125 C 5.976562 -10.617188 5.894531 -10.644531 5.78125 -10.644531 C 5.644531 -10.644531 5.53125 -10.585938 5.449219 -10.449219 C 5.335938 -10.253906 5.222656 -10.113281 5.113281 -9.972656 L 4.273438 -8.773438 C 4.191406 -8.6875 4.132812 -8.632812 4.078125 -8.605469 C 4.078125 -8.605469 4.050781 -8.605469 3.964844 -8.605469 L 3.828125 -8.910156 C 3.492188 -9.441406 3.015625 -9.695312 2.429688 -9.695312 C 2.066406 -9.695312 1.703125 -9.582031 1.367188 -9.332031 C 1.144531 -9.132812 0.949219 -8.9375 0.753906 -8.632812 C 0.640625 -8.4375 0.53125 -8.269531 0.417969 -8.101562 C 0.308594 -7.90625 0.195312 -7.710938 0.0820312 -7.515625 C -0.25 -6.871094 -0.417969 -6.171875 -0.417969 -5.417969 C -0.335938 -4.75 0.167969 -4.386719 0.808594 -4.300781 L 0.976562 -4.300781 C 1.171875 -4.300781 1.339844 -4.359375 1.453125 -4.441406 C 1.984375 -4.886719 2.402344 -5.308594 2.847656 -5.839844 C 2.933594 -5.921875 2.988281 -5.976562 3.074219 -6.0625 L 3.128906 -6.0625 C 3.183594 -6.007812 3.210938 -5.976562 3.210938 -5.976562 C 3.210938 -5.949219 3.210938 -5.894531 3.210938 -5.867188 C 3.183594 -5.808594 3.183594 -5.753906 3.183594 -5.726562 C 3.15625 -5.503906 3.101562 -5.28125 3.074219 -5.054688 C 3.015625 -4.832031 2.988281 -4.609375 2.960938 -4.359375 C 2.960938 -3.492188 3.464844 -2.652344 4.441406 -2.652344 Z M 0.976562 -5.25 C 0.894531 -5.28125 0.867188 -5.390625 0.867188 -5.53125 C 1.003906 -6.535156 2.039062 -9.164062 2.933594 -9.164062 C 3.042969 -9.164062 3.128906 -9.105469 3.183594 -8.996094 C 3.269531 -8.882812 3.296875 -8.800781 3.324219 -8.742188 C 3.351562 -8.546875 3.464844 -8.410156 3.6875 -8.324219 C 3.769531 -8.296875 3.800781 -8.214844 3.769531 -8.101562 C 3.769531 -8.101562 3.742188 -8.074219 3.714844 -8.046875 C 3.074219 -7.179688 2.457031 -6.425781 1.675781 -5.671875 C 1.59375 -5.585938 1.507812 -5.53125 1.425781 -5.476562 C 1.339844 -5.417969 1.230469 -5.363281 1.144531 -5.28125 C 1.117188 -5.25 1.0625 -5.25 0.976562 -5.25 Z M 0.976562 -5.25 "/></g></g></g><g fill="#000000" fill-opacity="1"><g transform="translate(75.873706, 96.49633)"><g><path d="M 2.960938 0.113281 C 3.183594 0.113281 3.40625 0.0273438 3.632812 -0.167969 C 3.855469 -0.335938 4.023438 -0.53125 4.132812 -0.78125 C 4.386719 -1.203125 4.582031 -1.5625 4.777344 -1.925781 C 5.78125 -3.9375 6.761719 -5.976562 7.683594 -8.015625 L 7.851562 -8.378906 C 7.878906 -8.519531 7.851562 -8.605469 7.710938 -8.660156 C 7.652344 -8.6875 7.570312 -8.714844 7.457031 -8.714844 C 7.320312 -8.714844 7.207031 -8.660156 7.152344 -8.546875 L 6.984375 -8.242188 C 6.007812 -6.203125 5.085938 -4.191406 3.996094 -2.179688 L 3.40625 -1.230469 C 3.378906 -1.144531 3.324219 -1.0625 3.269531 -1.003906 C 3.210938 -0.949219 3.15625 -0.894531 3.101562 -0.808594 C 3.074219 -0.753906 3.042969 -0.726562 2.960938 -0.726562 C 2.933594 -0.726562 2.878906 -0.753906 2.847656 -0.839844 C 2.820312 -0.921875 2.765625 -1.035156 2.738281 -1.230469 L 2.570312 -2.652344 C 2.542969 -2.847656 2.515625 -3.074219 2.515625 -3.296875 C 2.484375 -3.519531 2.457031 -3.742188 2.429688 -3.964844 C 2.347656 -4.328125 2.261719 -4.722656 2.039062 -5.054688 C 1.957031 -5.195312 1.957031 -5.308594 2.09375 -5.390625 C 3.074219 -5.949219 4.691406 -7.375 5.027344 -8.464844 C 5.167969 -8.882812 5 -9.246094 4.582031 -9.386719 C 4.414062 -9.441406 4.246094 -9.46875 4.050781 -9.46875 C 3.828125 -9.46875 3.605469 -9.414062 3.378906 -9.300781 C 3.296875 -9.246094 3.210938 -9.191406 3.128906 -9.132812 C 3.042969 -9.078125 2.988281 -9.023438 2.90625 -8.96875 C 2.765625 -8.828125 2.625 -8.714844 2.515625 -8.574219 C 2.375 -8.4375 2.234375 -8.324219 2.09375 -8.183594 L 1.84375 -7.90625 C 1.84375 -7.90625 1.816406 -7.90625 1.730469 -7.90625 C 1.703125 -7.90625 1.703125 -7.933594 1.703125 -7.960938 C 1.703125 -8.046875 2.457031 -10.390625 2.484375 -10.449219 C 2.570312 -10.726562 2.710938 -10.949219 2.933594 -11.144531 C 4.105469 -12.179688 6.398438 -14.273438 6.398438 -15.867188 C 6.398438 -16.398438 5.671875 -16.648438 5.25 -16.648438 C 4.832031 -16.648438 4.441406 -16.480469 4.132812 -16.175781 C 3.828125 -15.867188 3.574219 -15.558594 3.324219 -15.222656 C 2.125 -13.324219 1.398438 -11.117188 0.753906 -8.96875 C 0.308594 -7.542969 -0.140625 -6.171875 -0.476562 -4.75 C -0.613281 -4.105469 -0.699219 -3.546875 -0.78125 -2.960938 L -0.78125 -2.738281 C -0.78125 -2.515625 -0.671875 -2.375 -0.476562 -2.289062 C -0.335938 -2.261719 -0.222656 -2.234375 -0.0820312 -2.234375 C 0 -2.261719 0.0820312 -2.320312 0.113281 -2.375 C 0.140625 -2.402344 0.195312 -2.484375 0.222656 -2.597656 L 0.476562 -3.769531 C 0.558594 -4.191406 0.699219 -4.582031 0.894531 -4.945312 C 0.949219 -5 1.003906 -5.027344 1.035156 -5.054688 C 1.117188 -5.085938 1.203125 -5.054688 1.230469 -4.917969 C 1.257812 -4.859375 1.3125 -4.75 1.339844 -4.609375 C 1.425781 -4.191406 1.453125 -3.855469 1.480469 -3.4375 C 1.507812 -3.128906 1.507812 -2.847656 1.535156 -2.570312 C 1.535156 -2.261719 1.5625 -1.984375 1.59375 -1.675781 C 1.621094 -1.367188 1.675781 -1.003906 1.816406 -0.640625 C 1.898438 -0.28125 2.125 -0.0546875 2.542969 0.0273438 C 2.652344 0.113281 2.847656 0.113281 2.960938 0.113281 Z M 1.59375 -5.949219 C 1.5625 -5.976562 1.5625 -6.007812 1.535156 -6.035156 C 1.507812 -6.035156 1.507812 -6.035156 1.507812 -6.0625 L 1.59375 -6.257812 C 1.730469 -6.453125 1.871094 -6.675781 2.011719 -6.898438 C 2.152344 -7.09375 2.289062 -7.320312 2.429688 -7.515625 C 2.878906 -8.15625 3.378906 -8.519531 4.023438 -8.9375 C 4.132812 -8.9375 4.191406 -8.882812 4.191406 -8.800781 C 4.191406 -8.742188 4.164062 -8.6875 4.132812 -8.605469 C 4.050781 -8.464844 3.996094 -8.296875 3.882812 -8.15625 C 3.351562 -7.347656 2.625 -6.621094 1.761719 -6.035156 C 1.730469 -6.007812 1.703125 -5.976562 1.675781 -5.976562 C 1.648438 -5.976562 1.621094 -5.976562 1.59375 -5.949219 Z M 3.351562 -12.542969 C 3.269531 -12.542969 3.269531 -12.597656 3.296875 -12.710938 C 3.660156 -13.6875 4.105469 -14.527344 4.691406 -15.390625 C 4.777344 -15.476562 4.886719 -15.585938 4.972656 -15.671875 C 5.054688 -15.753906 5.140625 -15.867188 5.222656 -15.949219 C 5.28125 -15.980469 5.363281 -16.035156 5.476562 -16.0625 C 5.503906 -16.089844 5.613281 -16.0625 5.613281 -15.980469 C 5.644531 -15.949219 5.644531 -15.921875 5.644531 -15.839844 C 5.644531 -14.890625 4.105469 -13.242188 3.464844 -12.597656 C 3.4375 -12.570312 3.4375 -12.570312 3.40625 -12.570312 C 3.378906 -12.570312 3.378906 -12.570312 3.351562 -12.542969 Z M 3.351562 -12.542969 "/></g></g></g><g fill="#000000" fill-opacity="1"><g transform="translate(82.326383, 96.49633)"><g><path d="M 0.921875 -2.261719 C 1.621094 -2.261719 2.125 -2.765625 2.542969 -3.242188 C 2.988281 -3.800781 3.40625 -4.386719 3.828125 -4.972656 C 4.132812 -5.449219 4.46875 -5.949219 4.777344 -6.425781 C 5.085938 -6.898438 5.390625 -7.375 5.699219 -7.851562 C 5.726562 -7.933594 5.808594 -8.046875 5.894531 -8.183594 C 5.976562 -8.324219 6.035156 -8.464844 6.035156 -8.546875 C 6.035156 -8.574219 6.007812 -8.632812 5.976562 -8.660156 C 5.921875 -8.742188 5.839844 -8.773438 5.726562 -8.773438 C 5.644531 -8.773438 5.558594 -8.742188 5.503906 -8.6875 C 5.476562 -8.660156 5.449219 -8.605469 5.449219 -8.574219 C 5.417969 -8.546875 5.390625 -8.492188 5.363281 -8.464844 L 3.6875 -5.949219 C 3.351562 -5.390625 1.648438 -2.988281 1.035156 -2.988281 C 0.921875 -2.988281 0.839844 -3.101562 0.808594 -3.296875 L 0.808594 -3.492188 C 0.78125 -4.164062 0.839844 -4.859375 0.949219 -5.53125 L 1.117188 -6.230469 C 1.171875 -6.425781 1.285156 -6.535156 1.453125 -6.566406 C 1.59375 -6.59375 1.703125 -6.648438 1.816406 -6.675781 C 1.925781 -6.703125 2.039062 -6.730469 2.152344 -6.789062 C 2.90625 -7.234375 3.6875 -7.90625 3.9375 -8.800781 C 4.132812 -9.386719 3.964844 -9.777344 3.40625 -10.027344 C 3.15625 -10.167969 2.960938 -10.167969 2.652344 -10.167969 C 2.429688 -10.167969 2.207031 -10.085938 1.957031 -9.945312 C 1.730469 -9.777344 1.5625 -9.609375 1.425781 -9.46875 C 1.089844 -9.132812 0.808594 -8.714844 0.585938 -8.296875 C -0.167969 -6.761719 -0.503906 -5.167969 -0.390625 -3.519531 L -0.308594 -3.074219 C -0.167969 -2.515625 0.390625 -2.261719 0.921875 -2.261719 Z M 1.535156 -7.152344 C 1.453125 -7.179688 1.453125 -7.234375 1.480469 -7.320312 C 1.648438 -7.878906 2.484375 -9.582031 3.101562 -9.582031 C 3.210938 -9.582031 3.296875 -9.527344 3.324219 -9.386719 L 3.324219 -9.332031 C 3.324219 -8.546875 2.375 -7.429688 1.648438 -7.152344 C 1.621094 -7.125 1.5625 -7.125 1.535156 -7.152344 Z M 1.535156 -7.152344 "/></g></g></g></svg>