<svg xmlns="http://www.w3.org/2000/svg" xmlns:xlink="http://www.w3.org/1999/xlink" width="168" zoomAndPan="magnify" viewBox="0 0 126 110.999996" height="148" preserveAspectRatio="xMidYMid meet" version="1.0"><defs><g/><clipPath id="01bafb83c6"><path d="M 31.320312 19 L 95.070312 19 L 95.070312 78.078125 L 31.320312 78.078125 Z M 31.320312 19 " clip-rule="nonzero"/></clipPath><clipPath id="543c5bd9ff"><path d="M 33 8.328125 L 50 8.328125 L 50 21 L 33 21 Z M 33 8.328125 " clip-rule="nonzero"/></clipPath><clipPath id="6082e7b74e"><path d="M 56 8.328125 L 68 8.328125 L 68 18 L 56 18 Z M 56 8.328125 " clip-rule="nonzero"/></clipPath></defs><g clip-path="url(#01bafb83c6)"><path fill="#000000" d="M 95.019531 51.109375 C 95.019531 51.03125 95.019531 50.925781 95.019531 50.820312 C 95.019531 50.144531 95.019531 49.027344 94.414062 48.699219 C 94.269531 48.429688 93.664062 47.425781 92.984375 47.300781 C 92.761719 47.261719 92.558594 47.320312 92.378906 47.464844 C 92.050781 47.734375 92.023438 48.207031 91.992188 48.59375 C 91.992188 48.640625 91.984375 48.691406 91.984375 48.726562 C 91.945312 49.105469 91.90625 49.527344 91.917969 49.953125 C 90.945312 49.507812 90.15625 49.605469 89.78125 50.230469 C 89.492188 50.714844 89.484375 51.40625 89.464844 51.957031 C 89.464844 52.042969 89.464844 52.121094 89.457031 52.199219 C 89.457031 52.265625 89.445312 52.332031 89.445312 52.410156 C 89.4375 52.738281 89.417969 53.113281 89.445312 53.46875 C 89.109375 53.296875 88.761719 53.171875 88.476562 53.085938 C 87.976562 52.929688 87.300781 52.707031 86.957031 53.429688 C 86.609375 54.144531 86.484375 55 86.40625 55.667969 C 86.320312 56.464844 86.234375 57.316406 86.371094 58.09375 C 86.371094 58.09375 86.371094 58.105469 86.371094 58.105469 C 86.148438 58.316406 85.9375 58.511719 85.714844 58.691406 L 85.707031 58.539062 C 85.667969 58.09375 85.628906 57.640625 85.582031 57.191406 C 85.535156 56.773438 85.4375 56.253906 85.082031 55.871094 C 84.726562 55.484375 84.199219 55.4375 83.734375 55.386719 C 83.6875 55.378906 83.628906 55.378906 83.582031 55.367188 C 83.417969 55.347656 83.246094 55.328125 83.074219 55.300781 C 82.699219 55.253906 82.3125 55.195312 81.9375 55.203125 C 81.9375 55.195312 81.9375 55.195312 81.949219 55.183594 C 81.96875 55.128906 81.976562 55.058594 81.996094 55 C 82.042969 54.820312 82.101562 54.644531 82.148438 54.472656 C 82.226562 54.230469 82.292969 53.972656 82.359375 53.71875 C 82.523438 53.101562 82.785156 52.167969 82.476562 51.417969 C 82.226562 50.78125 81.574219 50.605469 81.007812 50.460938 C 80.929688 50.445312 80.84375 50.425781 80.765625 50.394531 C 80.632812 50.355469 80.496094 50.316406 80.351562 50.269531 C 79.890625 50.125 79.410156 49.992188 78.929688 49.902344 L 79.832031 47.917969 C 79.882812 47.8125 79.929688 47.714844 79.988281 47.601562 C 80.246094 47.070312 80.542969 46.472656 80.324219 45.875 C 80.101562 45.257812 79.496094 44.894531 78.96875 44.574219 L 78.851562 44.496094 C 78.785156 44.457031 78.707031 44.410156 78.640625 44.363281 C 78.332031 44.167969 77.988281 43.949219 77.632812 43.792969 C 77.679688 43.746094 77.726562 43.699219 77.777344 43.640625 C 77.832031 43.582031 77.882812 43.535156 77.929688 43.476562 C 78.199219 43.207031 78.476562 42.90625 78.8125 42.542969 L 78.902344 42.445312 C 79.429688 41.867188 79.976562 41.269531 80.082031 40.460938 C 80.1875 39.71875 79.84375 39.035156 79.121094 38.550781 C 78.429688 38.089844 77.796875 37.761719 77.238281 37.570312 C 77.332031 37.453125 77.421875 37.335938 77.515625 37.222656 C 77.921875 36.71875 78.34375 36.191406 78.738281 35.667969 C 79.277344 34.964844 79.449219 34.339844 79.277344 33.753906 C 79.082031 33.097656 78.476562 32.789062 77.921875 32.558594 C 77.640625 32.441406 77.371094 32.324219 77.09375 32.210938 C 76.960938 32.152344 76.835938 32.105469 76.699219 32.046875 C 76.613281 32.007812 76.535156 31.980469 76.449219 31.941406 C 76.230469 31.84375 75.996094 31.746094 75.765625 31.671875 C 75.84375 31.535156 75.910156 31.371094 75.96875 31.226562 C 76.007812 31.140625 76.035156 31.0625 76.066406 30.996094 C 76.246094 30.601562 76.46875 30.148438 76.632812 29.675781 C 76.929688 28.855469 77.179688 27.921875 76.796875 27.152344 C 76.363281 26.292969 75.316406 26.140625 74.515625 26.167969 C 74.027344 26.1875 73.546875 26.253906 73.09375 26.332031 C 72.914062 26.359375 72.71875 26.378906 72.539062 26.410156 C 72.269531 26.4375 72 26.476562 71.738281 26.523438 C 71.671875 26.476562 71.605469 26.4375 71.539062 26.390625 L 71.546875 26.207031 C 71.574219 25.398438 71.613281 24.566406 71.527344 23.757812 C 71.46875 23.199219 71.238281 22.207031 70.382812 21.90625 C 69.722656 21.675781 68.960938 21.964844 68.347656 22.1875 C 68.277344 22.214844 68.210938 22.234375 68.136719 22.265625 C 67.328125 22.5625 66.40625 22.890625 65.722656 23.460938 C 65.269531 23.21875 64.800781 22.957031 64.355469 22.707031 C 61.089844 20.894531 57.714844 19.015625 53.957031 19.121094 C 50.042969 19.230469 46.035156 21.367188 43.746094 24.546875 C 41.171875 28.125 40.183594 32.625 41.144531 36.304688 C 41.554688 37.859375 42.316406 39.304688 43.410156 40.59375 C 43.046875 41.316406 42.691406 42.019531 42.355469 42.695312 L 41.902344 42.347656 C 41.171875 41.789062 40.421875 41.210938 39.683594 40.652344 C 39.421875 40.460938 39.09375 40.566406 38.914062 40.777344 C 38.613281 41.144531 38.277344 41.511719 37.933594 41.855469 C 37.816406 41.566406 37.710938 41.269531 37.613281 40.980469 C 37.519531 40.699219 37.414062 40.410156 37.308594 40.132812 C 37.125 39.648438 36.710938 39.648438 36.296875 39.726562 C 35.847656 39.8125 35.386719 39.9375 34.960938 40.101562 C 34.425781 40.304688 34.078125 40.816406 33.800781 41.222656 C 32.15625 43.621094 31.386719 46.230469 31.492188 48.980469 C 31.605469 51.707031 32.5 54.347656 34.105469 56.621094 C 35.652344 58.828125 38.019531 60.746094 41.132812 62.324219 C 42.757812 63.15625 44.476562 63.78125 46.101562 64.359375 C 46.496094 64.496094 46.949219 64.660156 47.410156 64.839844 C 47.171875 65.21875 46.996094 65.6875 46.902344 66.296875 C 46.476562 66.132812 45.976562 66.160156 45.566406 66.382812 C 44.960938 66.710938 44.585938 67.367188 44.527344 68.175781 C 44.429688 69.601562 45.027344 71.066406 45.554688 72.367188 C 45.621094 72.53125 45.691406 72.695312 45.757812 72.859375 C 46.632812 75.039062 47.84375 76.511719 49.457031 77.371094 C 50.332031 77.832031 51.273438 78.0625 52.207031 78.0625 C 52.839844 78.0625 53.464844 77.957031 54.050781 77.734375 C 55.320312 77.261719 56.246094 76.347656 57.023438 74.765625 C 57.5625 75.144531 58.148438 75.492188 58.761719 75.78125 C 61.089844 76.886719 63.820312 77.4375 67.625 77.5625 C 70.152344 77.640625 73.921875 77.648438 77.554688 76.847656 C 78.527344 77.589844 79.652344 77.949219 80.890625 77.929688 C 81.949219 77.910156 83.035156 77.5625 83.9375 76.964844 C 85.9375 75.644531 87.128906 73.371094 87.300781 70.535156 C 91.378906 66.25 93.953125 61.042969 94.761719 55.484375 C 94.992188 54.039062 95.070312 52.5625 95.019531 51.109375 Z M 95.019531 51.109375 " fill-opacity="1" fill-rule="nonzero"/></g><g clip-path="url(#543c5bd9ff)"><path fill="#000000" d="M 37.507812 17.820312 C 38.347656 18.179688 39.21875 18.417969 40.058594 18.765625 C 40.875 19.105469 41.644531 19.527344 42.390625 20 C 42.75 20.230469 43.027344 20.425781 43.402344 20.125 C 43.691406 19.894531 43.902344 19.558594 44.171875 19.285156 C 44.535156 18.929688 44.902344 18.574219 45.277344 18.21875 C 46.09375 17.425781 46.910156 16.628906 47.613281 15.730469 C 48.9375 14.035156 49.707031 11.925781 48.382812 9.988281 C 47.542969 8.761719 46.046875 8.433594 44.699219 9.003906 C 43.316406 9.59375 42.5 10.875 41.824219 12.164062 C 40.335938 10.015625 36.632812 9.339844 34.78125 11.316406 C 33.835938 12.320312 33.722656 13.746094 34.269531 14.980469 C 34.886719 16.375 36.171875 17.242188 37.507812 17.820312 Z M 37.507812 17.820312 " fill-opacity="1" fill-rule="nonzero"/></g><g clip-path="url(#6082e7b74e)"><path fill="#000000" d="M 59.667969 17.609375 C 59.761719 17.785156 59.925781 17.832031 60.109375 17.765625 C 61.359375 17.320312 62.617188 16.945312 63.90625 16.644531 C 64.945312 16.40625 66.066406 16.085938 66.671875 15.125 C 67.210938 14.277344 67.136719 13.128906 66.585938 12.308594 C 65.386719 10.460938 62.984375 10.75 61.394531 11.894531 C 61.164062 10.75 60.78125 9.59375 59.714844 8.984375 C 58.570312 8.339844 57.332031 8.820312 56.742188 9.957031 C 56.136719 11.152344 56.273438 12.609375 56.867188 13.773438 C 57.597656 15.199219 58.878906 16.222656 59.667969 17.609375 Z M 59.667969 17.609375 " fill-opacity="1" fill-rule="nonzero"/></g><path fill="#ff639d" d="M 44.941406 37.972656 C 45.007812 37.847656 45.199219 37.761719 45.335938 37.789062 C 46.21875 37.972656 47.054688 38.273438 47.851562 38.65625 C 50.910156 35.988281 55.359375 36.199219 58.648438 38.347656 C 58.6875 38.367188 58.703125 38.398438 58.722656 38.425781 C 58.9375 38.359375 59.15625 38.308594 59.378906 38.253906 C 59.617188 37.085938 59.917969 35.949219 60.003906 34.765625 C 60.078125 33.675781 60.03125 32.585938 59.867188 31.515625 C 59.734375 31.574219 59.597656 31.621094 59.464844 31.679688 C 59.464844 32.199219 59.308594 32.722656 59.117188 33.191406 C 58.953125 33.609375 58.742188 34.148438 58.347656 34.378906 C 57.972656 34.601562 57.628906 34.445312 57.367188 34.148438 C 56.992188 33.714844 56.6875 33.183594 56.40625 32.683594 C 56.386719 32.644531 56.367188 32.59375 56.367188 32.558594 C 56.339844 32.558594 56.320312 32.566406 56.292969 32.566406 C 56.101562 33.453125 55.570312 34.851562 54.589844 35.015625 C 53.582031 35.179688 53.015625 33.722656 52.929688 32.886719 C 52.878906 32.886719 52.832031 32.886719 52.785156 32.886719 C 52.695312 33.425781 52.417969 33.953125 52.074219 34.378906 C 51.785156 34.734375 51.359375 35.234375 50.871094 35.207031 C 49.804688 35.140625 49.378906 33.320312 49.285156 32.488281 C 49.207031 32.46875 49.132812 32.449219 49.042969 32.433594 C 48.699219 32.960938 48.277344 33.394531 47.746094 33.734375 C 47.371094 33.972656 46.921875 34.261719 46.476562 34.011719 C 45.554688 33.480469 45.59375 31.980469 45.59375 31.074219 C 45.59375 31.042969 45.59375 31.023438 45.601562 31.003906 C 45.59375 31.003906 45.59375 30.996094 45.582031 30.996094 C 45.113281 31.566406 43.96875 32.527344 43.421875 31.691406 C 43.125 31.226562 43.066406 30.484375 43.027344 29.957031 C 42.980469 29.367188 42.988281 28.75 43.140625 28.171875 C 43.066406 27.980469 43 27.777344 42.949219 27.585938 C 41.394531 30.996094 40.980469 35.054688 42.855469 38.425781 C 43.160156 38.976562 43.507812 39.484375 43.902344 39.96875 C 44.238281 39.304688 44.585938 38.636719 44.941406 37.972656 Z M 44.941406 37.972656 " fill-opacity="1" fill-rule="nonzero"/><path fill="#aee675" d="M 76.132812 27.515625 C 75.730469 26.851562 74.652344 26.996094 74.007812 27.074219 C 73.574219 27.121094 73.085938 27.265625 72.613281 27.316406 C 73.71875 28.308594 74.527344 29.539062 75.132812 30.9375 C 75.160156 30.996094 75.179688 31.054688 75.210938 31.113281 C 75.21875 31.09375 75.230469 31.082031 75.230469 31.074219 C 75.304688 30.929688 75.371094 30.785156 75.441406 30.628906 C 75.613281 30.273438 75.777344 29.917969 75.910156 29.539062 C 76.132812 28.992188 76.476562 28.09375 76.132812 27.515625 Z M 76.132812 27.515625 " fill-opacity="1" fill-rule="nonzero"/><path fill="#aee675" d="M 77.757812 42.53125 C 78.238281 42.019531 78.851562 41.472656 79.140625 40.816406 C 79.792969 39.324219 77.652344 38.832031 76.679688 38.195312 C 76.804688 39.890625 76.835938 41.605469 76.949219 43.300781 C 77.210938 43.03125 77.515625 42.78125 77.757812 42.53125 Z M 77.757812 42.53125 " fill-opacity="1" fill-rule="nonzero"/><path fill="#aee675" d="M 69.738281 22.699219 C 68.566406 22.890625 67.519531 23.554688 66.394531 23.933594 C 67.855469 24.675781 69.402344 25.273438 70.835938 26.070312 C 70.941406 24.886719 71.125 22.476562 69.738281 22.699219 Z M 69.738281 22.699219 " fill-opacity="1" fill-rule="nonzero"/><path fill="#aee675" d="M 79.257812 47.15625 C 79.371094 46.878906 79.59375 46.53125 79.507812 46.222656 C 79.371094 45.730469 78.457031 45.328125 78.054688 45.085938 C 77.746094 44.902344 77.371094 44.757812 77.054688 44.554688 C 77.21875 46.308594 77.527344 48.042969 78.140625 49.691406 C 78.382812 49.140625 78.621094 48.601562 78.863281 48.054688 C 78.988281 47.765625 79.121094 47.457031 79.257812 47.15625 Z M 79.257812 47.15625 " fill-opacity="1" fill-rule="nonzero"/><path fill="#aee675" d="M 90.550781 50.5 C 90.347656 50.65625 90.359375 51.050781 90.339844 51.28125 C 90.300781 51.746094 90.273438 52.207031 90.273438 52.667969 C 90.261719 52.976562 90.292969 53.304688 90.292969 53.625 C 90.722656 53.054688 91.136719 52.476562 91.550781 51.898438 C 91.761719 51.601562 91.953125 51.28125 92.136719 50.972656 C 91.808594 50.789062 91.492188 50.589844 91.128906 50.492188 C 90.964844 50.445312 90.703125 50.386719 90.550781 50.5 Z M 90.550781 50.5 " fill-opacity="1" fill-rule="nonzero"/><path fill="#aee675" d="M 80.027344 51.148438 C 79.5625 51.023438 79.0625 50.933594 78.59375 50.78125 C 79.277344 52.234375 80.199219 53.554688 81.121094 54.867188 C 81.21875 54.558594 81.34375 54.25 81.417969 53.980469 C 81.601562 53.335938 81.851562 52.601562 81.707031 51.917969 C 81.59375 51.386719 80.488281 51.273438 80.027344 51.148438 Z M 80.027344 51.148438 " fill-opacity="1" fill-rule="nonzero"/><path fill="#aee675" d="M 93.203125 48.34375 C 93.136719 48.265625 92.953125 48.042969 92.808594 48.121094 C 92.761719 48.148438 92.753906 48.527344 92.742188 48.601562 C 92.683594 49.09375 92.683594 49.605469 92.636719 50.097656 C 92.683594 50.027344 92.722656 49.953125 92.773438 49.882812 C 92.953125 49.59375 93.242188 49.113281 93.597656 48.871094 C 93.492188 48.691406 93.359375 48.507812 93.203125 48.34375 Z M 93.203125 48.34375 " fill-opacity="1" fill-rule="nonzero"/><path fill="#aee675" d="M 84.753906 57.640625 C 84.726562 57.296875 84.726562 56.824219 84.503906 56.535156 C 84.226562 56.167969 83.4375 56.234375 83.015625 56.1875 C 82.660156 56.148438 82.292969 56.128906 81.9375 56.0625 C 82.765625 57.265625 83.542969 58.492188 84.1875 59.792969 C 84.4375 59.675781 84.679688 59.539062 84.910156 59.40625 C 84.898438 59.378906 84.890625 59.347656 84.890625 59.308594 C 84.859375 58.75 84.8125 58.203125 84.753906 57.640625 Z M 84.753906 57.640625 " fill-opacity="1" fill-rule="nonzero"/><path fill="#aee675" d="M 88.367188 53.902344 C 88.136719 53.816406 87.832031 53.652344 87.65625 53.84375 C 87.511719 54.019531 87.476562 54.386719 87.417969 54.605469 C 87.175781 55.550781 87.226562 56.523438 87.109375 57.488281 C 87.417969 57.152344 87.726562 56.792969 88.023438 56.449219 C 88.550781 55.820312 89.070312 55.195312 89.570312 54.550781 C 89.445312 54.472656 89.332031 54.386719 89.207031 54.308594 C 88.9375 54.152344 88.65625 54.019531 88.367188 53.902344 Z M 88.367188 53.902344 " fill-opacity="1" fill-rule="nonzero"/><path fill="#aee675" d="M 78.601562 34.058594 C 78.476562 33.433594 77.496094 33.222656 76.996094 33.019531 C 76.59375 32.855469 76.132812 32.710938 75.71875 32.507812 C 76.199219 34.03125 76.449219 35.59375 76.59375 37.171875 C 76.96875 36.710938 77.34375 36.257812 77.71875 35.796875 C 78.09375 35.34375 78.738281 34.726562 78.601562 34.058594 Z M 78.601562 34.058594 " fill-opacity="1" fill-rule="nonzero"/><path fill="#ff9cb0" d="M 48.351562 38.90625 C 49.996094 39.792969 51.4375 41.066406 52.628906 42.511719 C 54.042969 40.75 55.945312 39.378906 58.082031 38.628906 C 56.476562 37.789062 54.765625 37.171875 52.929688 37.210938 C 51.199219 37.261719 49.765625 37.992188 48.351562 38.90625 Z M 48.351562 38.90625 " fill-opacity="1" fill-rule="nonzero"/><path fill="#fe4141" d="M 60.109375 17.0625 C 58.953125 15.21875 56.773438 13.667969 57.0625 11.277344 C 57.195312 10.179688 58.003906 8.957031 59.242188 9.542969 C 60.378906 10.074219 60.628906 11.453125 60.839844 12.558594 C 60.886719 12.792969 61.195312 12.9375 61.378906 12.753906 C 62.589844 11.585938 64.820312 10.96875 65.992188 12.570312 C 66.460938 13.214844 66.53125 14.1875 66.03125 14.84375 C 65.691406 15.289062 65.183594 15.5 64.675781 15.671875 C 63.953125 15.921875 63.25 16.136719 62.511719 16.328125 C 62.300781 16.386719 60.136719 17.109375 60.109375 17.0625 Z M 38.519531 17.464844 C 39.34375 17.753906 40.183594 18.003906 40.980469 18.371094 C 41.652344 18.6875 42.296875 19.046875 42.929688 19.441406 C 43.191406 19.113281 43.585938 18.796875 43.757812 18.621094 C 44.535156 17.8125 45.441406 17.0625 46.179688 16.25 C 46.652344 15.742188 47.113281 15.199219 47.496094 14.613281 C 48.277344 13.425781 48.613281 12.039062 47.9375 10.710938 C 47.34375 9.515625 46.054688 9.160156 44.851562 9.71875 C 43.507812 10.34375 42.796875 11.75 42.160156 13.023438 C 42.035156 13.28125 41.652344 13.351562 41.507812 13.050781 C 40.789062 11.480469 38.625 10.574219 36.972656 10.835938 C 35.296875 11.105469 34.078125 12.648438 34.644531 14.351562 C 35.210938 16.066406 36.921875 16.917969 38.519531 17.464844 Z M 53.351562 64.878906 C 54.023438 64.550781 54.707031 64.253906 55.398438 63.964844 C 59.117188 62.414062 63.28125 61.304688 66.308594 58.519531 C 66.40625 58.433594 67.164062 57.730469 67.472656 57.390625 C 66.164062 56.320312 65.316406 54.761719 66.144531 53.027344 C 66.671875 51.910156 67.710938 51.273438 68.921875 51.128906 C 69.585938 51.050781 70.257812 51.097656 70.921875 51.128906 C 70.988281 51.128906 71.046875 51.128906 71.113281 51.128906 C 71.671875 49.132812 71.71875 46.992188 71 45.027344 C 70.171875 42.753906 68.402344 40.882812 66.261719 39.792969 C 61.609375 37.433594 55.957031 39.265625 52.976562 43.398438 C 52.820312 43.601562 52.496094 43.640625 52.332031 43.429688 C 50.609375 41.230469 48.277344 39.339844 45.527344 38.695312 C 44.660156 40.355469 43.824219 42.019531 43.007812 43.699219 C 42.890625 43.9375 42.585938 44.09375 42.335938 43.910156 C 41.375 43.1875 40.421875 42.464844 39.46875 41.730469 C 39.039062 42.234375 38.566406 42.703125 38.078125 43.136719 C 37.863281 43.332031 37.507812 43.246094 37.394531 42.992188 C 37.203125 42.578125 37.019531 42.164062 36.867188 41.742188 C 36.835938 41.65625 36.566406 41.039062 36.480469 40.710938 C 36.433594 40.71875 36.386719 40.71875 36.335938 40.730469 C 36.105469 40.777344 35.886719 40.835938 35.664062 40.902344 C 35.105469 41.066406 34.855469 41.433594 34.539062 41.90625 C 34.125 42.511719 33.742188 43.128906 33.441406 43.792969 C 31.320312 48.515625 32.800781 54.261719 36.355469 57.855469 C 38.394531 59.917969 40.96875 61.390625 43.632812 62.5 C 46.257812 63.589844 49.101562 64.253906 51.457031 65.902344 C 51.523438 65.980469 53.140625 64.976562 53.351562 64.878906 Z M 53.351562 64.878906 " fill-opacity="1" fill-rule="nonzero"/><path fill="#b5e683" d="M 82.957031 69.757812 C 83.417969 70.875 83.449219 72.417969 82.871094 73.503906 C 82.359375 74.460938 81.1875 75.144531 80.113281 74.738281 C 78.765625 74.238281 78.640625 72.722656 78.6875 71.511719 C 78.738281 70.390625 79.015625 69.003906 80.207031 68.582031 C 81.332031 68.183594 82.496094 68.648438 82.957031 69.757812 Z M 51.234375 68.628906 C 50.113281 68.792969 49.324219 69.601562 49.257812 70.75 C 49.179688 71.886719 49.679688 73.1875 50.496094 73.988281 C 51.199219 74.679688 52.429688 75 53.214844 74.257812 C 53.878906 73.621094 54.089844 72.445312 53.910156 71.328125 C 53.660156 69.8125 52.714844 68.417969 51.234375 68.628906 Z M 51.234375 68.628906 " fill-opacity="1" fill-rule="nonzero"/><path fill="#ffffff" d="M 46.507812 33.433594 C 46.007812 32.980469 46.035156 31.96875 46.054688 31.292969 C 46.851562 31.757812 47.726562 32.085938 48.621094 32.324219 C 48.167969 32.816406 47.046875 33.925781 46.507812 33.433594 Z M 44.335938 31.363281 C 44.632812 31.179688 44.890625 30.9375 45.101562 30.660156 C 44.546875 30.214844 44.007812 29.664062 43.605469 29.050781 C 43.566406 29.597656 43.546875 30.148438 43.613281 30.707031 C 43.632812 30.890625 43.632812 31.207031 43.738281 31.363281 C 43.921875 31.632812 44.160156 31.46875 44.335938 31.363281 Z M 50.71875 34.53125 C 51.101562 34.714844 51.554688 34.003906 51.726562 33.753906 C 51.917969 33.472656 52.042969 33.175781 52.1875 32.875 C 51.429688 32.835938 50.660156 32.757812 49.898438 32.625 C 49.890625 32.625 49.890625 32.625 49.878906 32.625 C 49.96875 32.921875 50.035156 33.230469 50.140625 33.53125 C 50.246094 33.808594 50.398438 34.378906 50.71875 34.53125 Z M 54.753906 34.332031 C 55.246094 34.003906 55.503906 33.261719 55.726562 32.671875 C 54.984375 32.789062 54.246094 32.855469 53.496094 32.875 C 53.695312 33.539062 54.023438 34.8125 54.753906 34.332031 Z M 58.070312 33.839844 C 58.207031 33.789062 58.320312 33.480469 58.378906 33.375 C 58.617188 32.894531 58.734375 32.394531 58.878906 31.890625 C 58.242188 32.113281 57.609375 32.296875 56.957031 32.441406 C 57.136719 32.777344 57.332031 33.105469 57.550781 33.425781 C 57.648438 33.539062 57.859375 33.914062 58.070312 33.839844 Z M 61.578125 69.070312 C 63.597656 69.71875 65.789062 69.792969 67.847656 69.292969 C 69.382812 68.917969 70.902344 68.167969 71.84375 66.882812 C 73.46875 64.667969 73.566406 61.671875 72.875 59.050781 C 72.429688 59.089844 71.980469 59.058594 71.59375 59.019531 C 70.828125 58.953125 70.046875 58.769531 69.328125 58.480469 C 68.914062 58.316406 68.5 58.105469 68.105469 57.84375 C 67.625 58.347656 67.117188 58.875 66.546875 59.261719 C 65.722656 59.828125 64.945312 60.417969 64.078125 60.9375 C 63.203125 61.46875 62.289062 61.929688 61.359375 62.34375 C 59.992188 62.960938 58.589844 63.492188 57.195312 64.042969 C 57.320312 65.0625 57.609375 66.035156 58.222656 66.875 C 59.023438 67.972656 60.28125 68.65625 61.578125 69.070312 Z M 61.578125 69.070312 " fill-opacity="1" fill-rule="nonzero"/><path fill="#69bd59" d="M 55.53125 66.539062 C 55.3125 66.046875 55.03125 65.535156 54.6875 65.09375 C 53.621094 65.5625 52.570312 66.09375 51.574219 66.710938 C 51.464844 66.777344 51.292969 66.75 51.1875 66.683594 C 50.273438 66.015625 49.273438 65.515625 48.246094 65.082031 C 47.726562 65.640625 47.660156 66.539062 47.613281 67.25 C 47.582031 67.597656 47.09375 67.675781 46.949219 67.367188 C 46.738281 66.914062 46.179688 66.921875 45.816406 67.191406 C 45.554688 67.386719 45.410156 67.683594 45.351562 68.003906 C 45.21875 68.667969 45.371094 69.378906 45.535156 70.015625 C 46.277344 72.832031 47.660156 76.058594 50.640625 77.042969 C 50.84375 77.109375 51.054688 77.15625 51.253906 77.207031 C 52.898438 77.515625 54.589844 76.886719 55.636719 75.585938 C 56.945312 73.957031 56.90625 71.644531 56.492188 69.699219 C 56.28125 68.617188 55.984375 67.539062 55.53125 66.539062 Z M 53.207031 74.257812 C 52.417969 75.007812 51.1875 74.679688 50.484375 73.988281 C 49.679688 73.1875 49.179688 71.886719 49.246094 70.75 C 49.324219 69.601562 50.101562 68.792969 51.226562 68.628906 C 52.707031 68.417969 53.648438 69.8125 53.890625 71.316406 C 54.082031 72.445312 53.871094 73.621094 53.207031 74.257812 Z M 53.207031 74.257812 " fill-opacity="1" fill-rule="nonzero"/><path fill="#69bd59" d="M 85.839844 66.179688 C 85.285156 65.457031 84.320312 65.488281 83.792969 66.210938 C 83.628906 66.429688 83.214844 66.375 83.1875 66.074219 C 83.042969 64.898438 82.253906 63.867188 80.957031 64.023438 C 79.96875 64.136719 79.5625 65.003906 79.226562 65.832031 C 79.113281 66.125 78.757812 66.105469 78.601562 65.863281 C 78.121094 65.109375 76.96875 65.332031 76.421875 65.863281 C 75.738281 66.519531 75.546875 67.589844 75.441406 68.492188 C 75.132812 71.046875 75.671875 74.160156 77.671875 75.953125 C 78.71875 76.886719 80.113281 77.273438 81.488281 77.070312 C 83.207031 76.820312 84.804688 75.78125 85.609375 74.226562 C 85.609375 74.21875 85.621094 74.207031 85.621094 74.199219 C 86.464844 72.570312 86.695312 70.613281 86.523438 68.800781 C 86.4375 67.964844 86.371094 66.875 85.839844 66.179688 Z M 82.871094 73.503906 C 82.359375 74.460938 81.1875 75.144531 80.113281 74.738281 C 78.765625 74.238281 78.640625 72.722656 78.6875 71.511719 C 78.738281 70.390625 79.015625 69.003906 80.207031 68.582031 C 81.332031 68.183594 82.496094 68.648438 82.957031 69.757812 C 83.417969 70.882812 83.449219 72.425781 82.871094 73.503906 Z M 82.871094 73.503906 " fill-opacity="1" fill-rule="nonzero"/><path fill="#69bd59" d="M 94.058594 49.394531 C 94.050781 49.394531 94.019531 49.402344 93.992188 49.441406 C 93.894531 49.539062 93.800781 49.625 93.714844 49.730469 C 93.261719 50.289062 92.925781 50.945312 92.570312 51.5625 C 91.933594 52.640625 91.117188 53.632812 90.347656 54.617188 C 89.425781 55.800781 88.476562 56.96875 87.457031 58.066406 C 86.601562 58.992188 85.640625 59.828125 84.496094 60.359375 C 84.726562 60.859375 84.929688 61.371094 85.101562 61.902344 C 85.464844 62.992188 85.726562 64.117188 85.878906 65.265625 C 86.628906 65.765625 86.898438 66.703125 87.050781 67.570312 C 87.167969 68.214844 87.234375 68.878906 87.253906 69.554688 C 89.128906 67.539062 90.675781 65.207031 91.828125 62.710938 C 92.972656 60.226562 93.761719 57.574219 94.097656 54.855469 C 94.269531 53.460938 94.320312 52.054688 94.25 50.644531 C 94.214844 50.414062 94.269531 49.605469 94.058594 49.394531 Z M 94.058594 49.394531 " fill-opacity="1" fill-rule="nonzero"/><path fill="#69bd59" d="M 85.101562 64.667969 C 84.707031 62.480469 83.890625 60.425781 82.746094 58.527344 C 81.660156 56.707031 80.351562 55.019531 79.207031 53.238281 C 78.082031 51.484375 77.285156 49.613281 76.84375 47.582031 C 76.421875 45.625 76.304688 43.621094 76.210938 41.636719 C 76.015625 37.472656 75.910156 33 73.546875 29.394531 C 72.519531 27.835938 71 26.863281 69.347656 26.082031 C 67.453125 25.183594 65.597656 24.277344 63.761719 23.277344 C 60.15625 21.3125 56.3125 19.285156 52.082031 20.144531 C 48.246094 20.925781 45.046875 23.460938 43.257812 26.910156 C 43.277344 26.929688 43.296875 26.957031 43.316406 26.996094 C 43.816406 28.433594 44.546875 29.617188 45.804688 30.515625 C 47.152344 31.46875 48.765625 31.921875 50.378906 32.144531 C 53.628906 32.585938 56.992188 32.066406 59.984375 30.726562 C 60.183594 30.640625 60.414062 30.753906 60.453125 30.96875 C 60.886719 33.230469 60.925781 35.929688 60.011719 38.109375 C 65.144531 37.242188 70.539062 40.390625 71.960938 45.5 C 72.46875 47.339844 72.414062 49.257812 71.941406 51.089844 C 72.335938 51.058594 72.71875 51.011719 73.125 50.972656 C 73.429688 50.945312 73.546875 51.332031 73.285156 51.484375 C 72.671875 51.851562 71.882812 51.839844 71.183594 51.832031 C 70.414062 51.820312 69.632812 51.746094 68.875 51.832031 C 67.441406 52.003906 66.308594 53.101562 66.347656 54.605469 C 66.386719 56.214844 67.980469 57.246094 69.316406 57.757812 C 70.007812 58.027344 70.75 58.191406 71.488281 58.25 C 72.257812 58.308594 73.039062 58.085938 73.796875 58.191406 C 74.09375 58.230469 74.132812 58.597656 73.894531 58.75 C 73.59375 58.933594 73.238281 59.011719 72.863281 59.050781 C 73.554688 61.679688 73.460938 64.667969 71.835938 66.882812 C 70.894531 68.167969 69.382812 68.90625 67.835938 69.292969 C 65.78125 69.792969 63.589844 69.71875 61.570312 69.070312 C 60.273438 68.65625 59.011719 67.972656 58.207031 66.875 C 57.589844 66.046875 57.300781 65.074219 57.175781 64.042969 C 56.65625 64.242188 56.148438 64.457031 55.636719 64.667969 C 55.53125 64.707031 55.4375 64.753906 55.332031 64.804688 C 55.378906 64.871094 55.425781 64.929688 55.464844 64.996094 C 56.246094 66.132812 56.65625 67.5 56.992188 68.832031 C 57.226562 69.738281 57.367188 70.710938 57.398438 71.664062 C 57.417969 72.398438 57.4375 73.292969 57.226562 74.035156 C 58.117188 74.691406 59.117188 75.203125 60.167969 75.585938 C 62.886719 76.589844 65.847656 76.820312 68.730469 76.847656 C 71.488281 76.878906 74.257812 76.742188 76.960938 76.214844 C 75.730469 74.941406 74.988281 73.109375 74.738281 71.308594 C 74.515625 69.660156 74.546875 67.695312 75.335938 66.199219 C 75.730469 65.457031 76.363281 64.871094 77.207031 64.726562 C 77.796875 64.628906 78.363281 64.753906 78.796875 65.109375 C 79.265625 64.167969 79.910156 63.394531 81.09375 63.355469 C 82.417969 63.308594 83.339844 64.195312 83.707031 65.351562 C 84.121094 65.042969 84.640625 64.898438 85.148438 64.996094 C 85.140625 64.878906 85.121094 64.773438 85.101562 64.667969 Z M 48.015625 24.5 C 47.71875 24.5 47.46875 24.257812 47.46875 23.953125 C 47.46875 23.652344 47.707031 23.402344 48.015625 23.402344 C 48.3125 23.402344 48.5625 23.644531 48.5625 23.953125 C 48.5625 24.257812 48.3125 24.5 48.015625 24.5 Z M 55.167969 24.65625 C 54.859375 24.65625 54.621094 24.402344 54.621094 24.105469 C 54.621094 23.796875 54.871094 23.554688 55.167969 23.554688 C 55.476562 23.554688 55.714844 23.808594 55.714844 24.105469 C 55.726562 24.414062 55.476562 24.65625 55.167969 24.65625 Z M 65.175781 30.464844 C 65.097656 30.917969 64.386719 30.851562 64.460938 30.398438 C 64.558594 29.847656 64.242188 29.203125 63.644531 29.105469 C 63.03125 29.011719 62.675781 29.464844 62.359375 29.90625 C 62.203125 30.128906 61.878906 29.984375 61.886719 29.734375 C 61.90625 28.816406 63.03125 28.257812 63.847656 28.421875 C 64.75 28.617188 65.328125 29.570312 65.175781 30.464844 Z M 65.175781 30.464844 " fill-opacity="1" fill-rule="nonzero"/><path fill="#ffc7ce" d="M 67.921875 34.4375 C 67.921875 34.714844 67.855469 34.984375 67.71875 35.242188 C 67.582031 35.503906 67.386719 35.730469 67.136719 35.929688 C 66.882812 36.125 66.589844 36.277344 66.261719 36.386719 C 65.933594 36.492188 65.589844 36.546875 65.230469 36.546875 C 64.875 36.546875 64.53125 36.492188 64.203125 36.386719 C 63.871094 36.277344 63.582031 36.125 63.328125 35.929688 C 63.078125 35.730469 62.882812 35.503906 62.746094 35.242188 C 62.609375 34.984375 62.539062 34.714844 62.539062 34.4375 C 62.539062 34.15625 62.609375 33.886719 62.746094 33.628906 C 62.882812 33.371094 63.078125 33.140625 63.328125 32.945312 C 63.582031 32.746094 63.871094 32.59375 64.203125 32.488281 C 64.53125 32.378906 64.875 32.324219 65.230469 32.324219 C 65.589844 32.324219 65.933594 32.378906 66.261719 32.488281 C 66.589844 32.59375 66.882812 32.746094 67.136719 32.945312 C 67.386719 33.140625 67.582031 33.371094 67.71875 33.628906 C 67.855469 33.886719 67.921875 34.15625 67.921875 34.4375 Z M 67.921875 34.4375 " fill-opacity="1" fill-rule="nonzero"/><g fill="#000000" fill-opacity="1"><g transform="translate(49.479426, 95.808376)"><g><path d="M 2.773438 0.503906 C 6.691406 0.503906 8.929688 -4.453125 9.660156 -8.0625 L 9.660156 -8.121094 C 10.246094 -8.148438 10.75 -8.175781 11.144531 -8.203125 C 11.535156 -8.230469 11.785156 -8.257812 11.898438 -8.289062 L 12.066406 -8.371094 C 12.09375 -8.398438 12.152344 -8.539062 12.066406 -8.566406 C 11.984375 -8.59375 11.925781 -8.625 11.898438 -8.625 C 11.84375 -8.652344 11.757812 -8.652344 11.648438 -8.652344 C 11.449219 -8.652344 11.253906 -8.59375 11.058594 -8.566406 C 10.976562 -8.539062 10.835938 -8.539062 10.609375 -8.539062 C 10.359375 -8.511719 10.078125 -8.484375 9.742188 -8.457031 C 9.882812 -9.351562 10.023438 -10.273438 10.136719 -11.199219 L 10.304688 -13.550781 C 10.332031 -14.082031 10.246094 -14.613281 10.164062 -15.148438 C 10.105469 -15.425781 9.996094 -15.734375 9.855469 -16.070312 C 9.601562 -16.519531 9.238281 -16.828125 8.792969 -16.996094 C 8.707031 -17.023438 8.59375 -17.050781 8.457031 -17.050781 C 8.316406 -17.050781 8.175781 -17.023438 8.035156 -16.9375 C 7.894531 -16.882812 7.8125 -16.796875 7.726562 -16.6875 C 7.195312 -16.238281 6.691406 -15.398438 6.382812 -14.753906 C 5.152344 -12.375 4.367188 -9.828125 3.582031 -7.25 L 2.800781 -6.914062 C 2.941406 -7.839844 3.109375 -8.761719 3.246094 -9.6875 C 3.386719 -10.582031 3.527344 -11.507812 3.695312 -12.429688 C 3.75 -12.710938 3.808594 -12.992188 3.835938 -13.269531 C 3.863281 -13.550781 3.890625 -13.832031 3.917969 -14.109375 C 4.003906 -14.445312 3.917969 -14.78125 3.835938 -15.089844 C 3.78125 -15.230469 3.667969 -15.34375 3.5 -15.398438 C 3.359375 -15.425781 3.277344 -15.398438 3.246094 -15.257812 L 3.164062 -14.894531 C 3.050781 -14.222656 2.910156 -13.550781 2.714844 -12.90625 C 2.605469 -12.457031 2.519531 -12.039062 2.4375 -11.617188 C 2.269531 -10.667969 1.765625 -7.53125 1.566406 -6.214844 C 0.644531 -5.570312 -0.0273438 -4.757812 -0.335938 -3.667969 C -0.589844 -2.660156 -0.28125 -1.625 0.195312 -0.925781 C 0.785156 0.0273438 1.652344 0.503906 2.773438 0.503906 Z M 2.660156 0.0546875 C 2.210938 0.0546875 1.792969 -0.140625 1.371094 -0.503906 C 0.617188 -1.261719 0.0859375 -2.4375 0.390625 -3.582031 C 0.589844 -4.285156 0.925781 -4.871094 1.457031 -5.402344 C 1.429688 -5.066406 1.371094 -4.730469 1.34375 -4.480469 C 1.316406 -4.226562 1.316406 -4.003906 1.316406 -3.78125 C 1.316406 -3.527344 1.34375 -3.277344 1.371094 -3.023438 C 1.371094 -2.714844 1.484375 -2.351562 1.847656 -2.269531 C 1.933594 -2.238281 2.015625 -2.238281 2.15625 -2.238281 L 2.296875 -2.238281 C 2.714844 -2.238281 2.910156 -2.910156 3.023438 -3.246094 C 3.109375 -3.554688 3.21875 -3.890625 3.304688 -4.199219 C 3.386719 -4.507812 3.5 -4.816406 3.582031 -5.125 C 3.695312 -5.542969 3.808594 -5.90625 3.949219 -6.328125 L 4.171875 -7.027344 C 5.515625 -7.503906 7 -7.785156 8.316406 -7.980469 C 7.785156 -5.292969 6.019531 -0.925781 3.304688 -0.0546875 C 3.109375 0.0273438 2.882812 0.0546875 2.660156 0.0546875 Z M 2.574219 -4.507812 L 2.546875 -4.535156 C 2.546875 -4.5625 2.546875 -4.589844 2.546875 -4.621094 C 2.519531 -4.621094 2.519531 -4.648438 2.519531 -4.675781 L 2.519531 -4.984375 C 2.546875 -5.125 2.574219 -5.320312 2.605469 -5.542969 C 2.632812 -5.738281 2.660156 -5.964844 2.6875 -6.160156 C 2.6875 -6.1875 2.6875 -6.242188 2.714844 -6.269531 C 2.714844 -6.300781 2.714844 -6.328125 2.714844 -6.355469 C 2.828125 -6.410156 2.941406 -6.46875 3.050781 -6.550781 C 3.164062 -6.605469 3.277344 -6.664062 3.414062 -6.71875 L 3.078125 -5.628906 C 2.96875 -5.261719 2.882812 -4.898438 2.6875 -4.535156 C 2.6875 -4.507812 2.660156 -4.507812 2.574219 -4.507812 Z M 4.3125 -7.503906 C 4.898438 -9.632812 6.1875 -13.71875 7.585938 -15.484375 C 7.785156 -15.789062 8.035156 -16.070312 8.34375 -16.292969 C 8.371094 -16.324219 8.425781 -16.351562 8.457031 -16.378906 C 8.484375 -16.378906 8.539062 -16.40625 8.566406 -16.433594 C 8.59375 -16.460938 8.625 -16.460938 8.679688 -16.460938 C 8.761719 -16.460938 8.820312 -16.433594 8.847656 -16.378906 C 8.929688 -16.238281 8.960938 -16.125 8.988281 -16.070312 C 9.015625 -15.875 9.070312 -15.707031 9.097656 -15.539062 C 9.128906 -15.34375 9.15625 -15.148438 9.15625 -14.949219 L 9.15625 -14.308594 C 9.183594 -13.886719 9.15625 -13.46875 9.128906 -13.101562 C 9.070312 -12.710938 9.015625 -12.320312 8.988281 -11.925781 C 8.847656 -10.722656 8.707031 -9.519531 8.398438 -8.316406 C 7.167969 -8.175781 5.738281 -7.921875 4.3125 -7.503906 Z M 4.3125 -7.503906 "/></g></g></g><g fill="#000000" fill-opacity="1"><g transform="translate(60.173963, 95.808376)"><g><path d="M 0.726562 -3.164062 C 1.09375 -3.164062 1.429688 -3.414062 1.679688 -3.640625 C 2.210938 -4.199219 2.6875 -4.789062 3.109375 -5.429688 C 3.359375 -5.851562 3.613281 -6.269531 3.863281 -6.691406 C 4.117188 -7.082031 4.367188 -7.476562 4.621094 -7.894531 L 4.84375 -8.316406 C 4.925781 -8.425781 4.789062 -8.59375 4.648438 -8.625 C 4.621094 -8.652344 4.5625 -8.652344 4.480469 -8.652344 C 4.367188 -8.652344 4.253906 -8.59375 4.144531 -8.457031 C 4.058594 -8.34375 4.003906 -8.230469 3.949219 -8.148438 C 3.890625 -8.035156 3.835938 -7.921875 3.75 -7.839844 L 2.714844 -6.074219 L 2.070312 -5.152344 C 1.847656 -4.84375 1.566406 -4.589844 1.261719 -4.285156 C 1.230469 -4.253906 1.203125 -4.253906 1.175781 -4.226562 C 1.148438 -4.199219 1.121094 -4.199219 1.09375 -4.171875 C 1.0625 -4.144531 1.035156 -4.144531 0.980469 -4.144531 C 0.894531 -4.171875 0.867188 -4.199219 0.867188 -4.285156 C 0.894531 -4.535156 0.925781 -4.757812 0.953125 -4.984375 C 0.980469 -5.207031 1.007812 -5.429688 1.035156 -5.65625 C 1.175781 -6.410156 1.34375 -7.082031 1.539062 -7.839844 L 1.707031 -8.539062 C 1.734375 -8.707031 1.707031 -8.820312 1.566406 -8.875 C 1.429688 -8.960938 1.34375 -8.988281 1.34375 -8.988281 L 1.261719 -8.988281 C 1.035156 -8.988281 0.925781 -8.820312 0.839844 -8.625 C 0.140625 -7.28125 -0.195312 -5.878906 -0.195312 -4.453125 C -0.195312 -4.339844 -0.195312 -4.226562 -0.195312 -4.117188 C -0.195312 -4.003906 -0.167969 -3.890625 -0.140625 -3.808594 C -0.0546875 -3.386719 0.308594 -3.164062 0.726562 -3.164062 Z M 1.988281 -10.5 C 2.070312 -10.5 2.15625 -10.5 2.183594 -10.5 C 2.210938 -10.5 2.269531 -10.527344 2.351562 -10.554688 C 2.546875 -10.695312 2.632812 -11.058594 2.492188 -11.253906 C 2.40625 -11.339844 2.324219 -11.449219 2.238281 -11.589844 C 2.128906 -11.730469 1.988281 -11.785156 1.847656 -11.785156 C 1.707031 -11.785156 1.597656 -11.730469 1.539062 -11.617188 C 1.457031 -11.449219 1.429688 -11.253906 1.429688 -11.03125 C 1.429688 -10.835938 1.511719 -10.667969 1.707031 -10.582031 C 1.765625 -10.554688 1.820312 -10.527344 1.875 -10.527344 C 1.902344 -10.527344 1.960938 -10.527344 1.988281 -10.5 Z M 1.988281 -10.5 "/></g></g></g><g fill="#000000" fill-opacity="1"><g transform="translate(63.645494, 95.808376)"><g><path d="M 3.917969 -1.511719 C 4.117188 -1.511719 4.3125 -1.566406 4.480469 -1.652344 C 4.675781 -1.792969 4.871094 -1.960938 5.011719 -2.15625 L 5.515625 -2.910156 C 5.878906 -3.554688 6.269531 -4.199219 6.636719 -4.84375 C 7 -5.460938 7.363281 -6.101562 7.726562 -6.746094 C 7.867188 -7 8.007812 -7.25 8.121094 -7.503906 C 8.230469 -7.753906 8.34375 -8.035156 8.484375 -8.289062 C 8.566406 -8.425781 8.484375 -8.539062 8.289062 -8.566406 C 8.257812 -8.59375 8.203125 -8.59375 8.148438 -8.59375 C 8.035156 -8.59375 7.953125 -8.539062 7.894531 -8.457031 L 7.617188 -7.921875 C 6.746094 -6.242188 5.796875 -4.648438 4.703125 -3.078125 C 4.589844 -2.941406 4.480469 -2.800781 4.339844 -2.6875 C 4.339844 -2.660156 4.3125 -2.660156 4.226562 -2.660156 C 4.226562 -2.6875 4.226562 -2.6875 4.199219 -2.714844 C 4.117188 -2.941406 4.199219 -3.164062 4.226562 -3.386719 C 4.453125 -4.507812 4.703125 -5.597656 5.011719 -6.71875 L 5.683594 -9.324219 C 5.738281 -9.601562 5.765625 -9.882812 5.765625 -10.164062 C 5.738281 -10.414062 5.628906 -10.582031 5.460938 -10.667969 L 5.292969 -10.75 C 5.234375 -10.777344 5.152344 -10.808594 5.039062 -10.808594 C 4.675781 -10.808594 4.117188 -9.96875 3.949219 -9.632812 L 2.605469 -7.140625 C 2.238281 -6.496094 1.820312 -5.878906 1.398438 -5.234375 C 1.371094 -5.207031 1.34375 -5.179688 1.261719 -5.152344 C 1.175781 -5.125 1.148438 -5.179688 1.148438 -5.347656 C 1.148438 -5.488281 1.148438 -5.597656 1.175781 -5.683594 C 1.261719 -6.046875 1.316406 -6.4375 1.398438 -6.832031 C 1.457031 -7.222656 1.539062 -7.617188 1.625 -8.007812 C 1.652344 -8.203125 1.707031 -8.398438 1.765625 -8.59375 C 1.792969 -8.761719 1.847656 -8.960938 1.875 -9.15625 C 1.902344 -9.324219 1.820312 -9.433594 1.679688 -9.519531 L 1.511719 -9.601562 L 1.457031 -9.601562 C 1.261719 -9.601562 1.148438 -9.464844 1.0625 -9.265625 L 0.8125 -8.59375 C 0.390625 -7.335938 0.167969 -6.046875 0.0546875 -4.730469 C 0 -4.3125 0.167969 -4.03125 0.53125 -3.863281 L 0.644531 -3.835938 C 0.785156 -3.78125 0.925781 -3.75 1.007812 -3.75 C 1.230469 -3.75 1.398438 -3.835938 1.539062 -4.03125 C 1.679688 -4.171875 1.792969 -4.3125 1.875 -4.507812 C 2.324219 -5.261719 2.773438 -6.046875 3.191406 -6.804688 L 4.339844 -8.875 C 4.367188 -8.960938 4.421875 -9.015625 4.453125 -9.042969 L 4.5625 -9.042969 C 4.5625 -9.042969 4.5625 -9.015625 4.589844 -8.988281 L 4.421875 -8.371094 C 4.058594 -7.222656 3.695312 -6.101562 3.386719 -4.898438 C 3.136719 -3.917969 3.023438 -3.164062 3.023438 -2.183594 C 3.050781 -1.988281 3.136719 -1.875 3.277344 -1.792969 C 3.472656 -1.625 3.667969 -1.539062 3.917969 -1.511719 Z M 3.917969 -1.511719 "/></g></g></g><g fill="#000000" fill-opacity="1"><g transform="translate(70.75652, 95.808376)"><g><path d="M 2.4375 -2.773438 C 3.023438 -2.773438 3.414062 -2.800781 3.75 -3.332031 C 3.835938 -3.414062 3.863281 -3.472656 3.890625 -3.554688 C 4.226562 -4.199219 4.367188 -4.925781 4.339844 -5.710938 C 4.285156 -6.355469 4.085938 -6.914062 3.75 -7.449219 C 3.613281 -7.644531 3.5 -7.8125 3.386719 -8.007812 C 3.332031 -8.121094 3.359375 -8.203125 3.472656 -8.257812 C 3.835938 -8.289062 4.199219 -8.316406 4.675781 -8.316406 C 4.984375 -8.316406 5.320312 -8.316406 5.710938 -8.316406 C 6.074219 -8.289062 6.523438 -8.289062 7.027344 -8.289062 C 7.167969 -8.316406 7.195312 -8.398438 7.113281 -8.539062 C 7.027344 -8.652344 6.859375 -8.734375 6.664062 -8.792969 C 6.101562 -8.820312 5.488281 -8.847656 4.925781 -8.847656 C 4.339844 -8.847656 3.808594 -8.820312 3.359375 -8.792969 C 2.882812 -8.734375 2.632812 -8.652344 2.605469 -8.566406 C 2.464844 -8.539062 2.40625 -8.371094 2.492188 -8.257812 C 2.632812 -8.007812 2.800781 -7.753906 2.941406 -7.53125 C 3.527344 -6.605469 3.613281 -5.65625 3.304688 -4.621094 C 3.277344 -4.480469 3.21875 -4.367188 3.164062 -4.253906 C 3.078125 -4.144531 3.023438 -4.03125 2.96875 -3.917969 C 2.828125 -3.695312 2.6875 -3.527344 2.519531 -3.445312 C 2.4375 -3.386719 2.378906 -3.359375 2.296875 -3.359375 C 2.210938 -3.359375 2.128906 -3.386719 2.042969 -3.472656 C 1.875 -3.613281 1.734375 -3.78125 1.597656 -4.03125 C 1.34375 -4.480469 1.261719 -4.984375 1.289062 -5.542969 C 1.371094 -7.308594 1.902344 -9.070312 3.246094 -10.273438 C 3.332031 -10.359375 3.304688 -10.472656 3.21875 -10.5 C 3.21875 -10.527344 3.191406 -10.527344 3.164062 -10.527344 C 3.023438 -10.582031 2.882812 -10.609375 2.714844 -10.609375 C 2.464844 -10.609375 2.238281 -10.527344 2.042969 -10.359375 C 0.8125 -9.40625 0.113281 -7.28125 0.0273438 -5.738281 L 0.0273438 -5.460938 C 0.0273438 -5.429688 0.0273438 -5.375 0.0546875 -5.347656 C 0.0546875 -5.292969 0.0546875 -5.234375 0.0546875 -5.207031 C 0.195312 -4.058594 0.8125 -3.304688 1.847656 -2.910156 C 1.933594 -2.882812 2.042969 -2.855469 2.15625 -2.828125 C 2.238281 -2.800781 2.351562 -2.800781 2.4375 -2.773438 Z M 2.4375 -2.773438 "/></g></g></g></svg>