<svg xmlns="http://www.w3.org/2000/svg" xmlns:xlink="http://www.w3.org/1999/xlink" width="175" zoomAndPan="magnify" viewBox="0 0 131.25 110.249996" height="147" preserveAspectRatio="xMidYMid meet" version="1.0"><defs><g/><clipPath id="d8939c5a8a"><path d="M 25 11 L 107 11 L 107 74.746094 L 25 74.746094 Z M 25 11 " clip-rule="nonzero"/></clipPath><clipPath id="b445b66fe1"><path d="M 24.925781 5.800781 L 106.808594 5.800781 L 106.808594 74.734375 L 24.925781 74.734375 Z M 24.925781 5.800781 " clip-rule="nonzero"/></clipPath><clipPath id="a5906c55d6"><path d="M 24.925781 5.800781 L 106.808594 5.800781 L 106.808594 74.734375 L 24.925781 74.734375 Z M 24.925781 5.800781 " clip-rule="nonzero"/></clipPath><clipPath id="c200fdd9bc"><path d="M 24.578125 6 L 44 6 L 44 29 L 24.578125 29 Z M 24.578125 6 " clip-rule="nonzero"/></clipPath><clipPath id="2c292d1f75"><path d="M 24.578125 25 L 46 25 L 46 48 L 24.578125 48 Z M 24.578125 25 " clip-rule="nonzero"/></clipPath><clipPath id="99e642492e"><path d="M 24.578125 17 L 44 17 L 44 40 L 24.578125 40 Z M 24.578125 17 " clip-rule="nonzero"/></clipPath><clipPath id="fb7d4d4be5"><path d="M 91 17 L 107.265625 17 L 107.265625 40 L 91 40 Z M 91 17 " clip-rule="nonzero"/></clipPath><clipPath id="77818ea455"><path d="M 38 5.46875 L 62 5.46875 L 62 20 L 38 20 Z M 38 5.46875 " clip-rule="nonzero"/></clipPath><clipPath id="64a79d0949"><path d="M 81 5.46875 L 105 5.46875 L 105 25 L 81 25 Z M 81 5.46875 " clip-rule="nonzero"/></clipPath><clipPath id="fffd35d985"><path d="M 86 23 L 107.265625 23 L 107.265625 48 L 86 48 Z M 86 23 " clip-rule="nonzero"/></clipPath><clipPath id="1aef61ef5b"><path d="M 73 5.46875 L 97 5.46875 L 97 23 L 73 23 Z M 73 5.46875 " clip-rule="nonzero"/></clipPath><clipPath id="159cfe125f"><path d="M 42 5.46875 L 64 5.46875 L 64 27 L 42 27 Z M 42 5.46875 " clip-rule="nonzero"/></clipPath><clipPath id="86244f315f"><path d="M 87 7 L 107.265625 7 L 107.265625 29 L 87 29 Z M 87 7 " clip-rule="nonzero"/></clipPath><clipPath id="29a6aa23de"><path d="M 58 5.46875 L 81 5.46875 L 81 28 L 58 28 Z M 58 5.46875 " clip-rule="nonzero"/></clipPath><clipPath id="8c00716445"><path d="M 63 5.46875 L 87 5.46875 L 87 23 L 63 23 Z M 63 5.46875 " clip-rule="nonzero"/></clipPath><clipPath id="2b4c703592"><path d="M 29 5.46875 L 53 5.46875 L 53 23 L 29 23 Z M 29 5.46875 " clip-rule="nonzero"/></clipPath></defs><g clip-path="url(#d8939c5a8a)"><path fill="#fc385c" d="M 81.894531 34.800781 C 80.734375 36.792969 78.867188 38.773438 76.179688 40.851562 C 74.101562 42.457031 71.75 43.960938 68.992188 45.441406 C 68.375 45.773438 67.789062 46.078125 67.222656 46.363281 C 66.417969 46.765625 65.476562 46.765625 64.667969 46.367188 C 64.105469 46.085938 63.515625 45.78125 62.898438 45.449219 C 60.136719 43.976562 57.78125 42.480469 55.699219 40.878906 C 53.007812 38.804688 51.132812 36.832031 49.96875 34.84375 C 49.128906 33.410156 48.289062 31.210938 49.066406 28.847656 C 49.886719 26.34375 52.28125 23.769531 55.773438 23.65625 C 55.828125 23.652344 55.839844 23.652344 55.890625 23.648438 C 55.917969 23.648438 56.003906 23.644531 56.132812 23.644531 C 57.089844 23.644531 60.4375 23.800781 63.289062 25.851562 C 64.039062 26.390625 64.972656 26.683594 65.921875 26.683594 C 66.871094 26.683594 67.804688 26.382812 68.550781 25.84375 C 71.398438 23.785156 74.742188 23.621094 75.703125 23.621094 C 75.832031 23.621094 75.917969 23.621094 75.945312 23.625 C 75.992188 23.628906 76.007812 23.625 76.058594 23.628906 C 79.554688 23.734375 81.953125 26.300781 82.78125 28.804688 C 83.5625 31.164062 82.730469 33.367188 81.894531 34.800781 Z M 106.234375 26.074219 C 105.246094 17.339844 95.507812 11.378906 86.117188 11.074219 C 86.117188 11.074219 75.839844 10.34375 67.105469 17.175781 C 66.410156 17.722656 65.410156 17.722656 64.710938 17.179688 C 55.960938 10.367188 45.683594 11.128906 45.683594 11.128906 C 36.292969 11.457031 26.582031 17.058594 25.527344 25.78125 C 24.699219 32.644531 25.722656 39.277344 28.726562 44.824219 C 31.839844 50.566406 36.558594 55.421875 41.617188 59.632812 C 46.300781 63.535156 51.414062 66.957031 56.722656 70.027344 C 58.890625 71.28125 61.097656 72.488281 63.34375 73.609375 C 63.476562 73.671875 63.785156 73.820312 64.148438 73.996094 C 65.304688 74.546875 66.664062 74.546875 67.816406 73.992188 C 68.035156 73.890625 68.207031 73.804688 68.289062 73.765625 C 70.648438 72.59375 72.960938 71.324219 75.230469 70.003906 C 80.53125 66.917969 85.632812 63.480469 90.308594 59.570312 C 95.359375 55.34375 100.066406 50.480469 103.160156 44.730469 C 106.152344 39.171875 106.964844 32.539062 106.234375 26.074219 " fill-opacity="1" fill-rule="nonzero"/></g><g clip-path="url(#b445b66fe1)"><path stroke-linecap="butt" transform="matrix(0.00812334, 0, 0, -0.00815073, 24.926595, 74.735661)" fill="none" stroke-linejoin="miter" d="M 7012.869381 4899.546624 C 6870.051775 4655.128323 6640.197176 4412.147777 6309.360432 4157.185942 C 6053.538995 3960.213547 5764.056844 3775.701693 5424.564487 3594.065348 C 5348.587443 3553.328965 5276.457339 3515.947342 5206.731572 3480.961978 C 5107.672895 3431.599066 4991.783861 3431.599066 4892.244317 3480.482726 C 4822.999417 3514.988839 4750.388446 3552.370462 4674.411403 3593.106845 C 4334.438178 3773.784687 4044.475159 3957.338038 3788.172856 4153.831181 C 3456.855244 4408.313765 3226.03891 4650.335808 3082.740436 4894.274856 C 2979.353954 5070.160182 2875.967471 5339.978816 2971.660076 5629.926016 C 3072.642222 5937.126272 3367.413914 6252.953056 3797.309335 6266.851352 C 3804.041479 6267.330603 3805.484081 6267.330603 3811.735356 6267.809855 C 3815.101428 6267.809855 3825.68051 6268.289106 3841.549133 6268.289106 C 3959.361636 6268.289106 4371.464965 6249.119043 4722.498139 5997.511969 C 4814.824672 5931.375253 4929.751972 5895.431385 5046.60274 5895.431385 C 5163.453509 5895.431385 5278.380809 5932.333756 5370.226475 5998.470473 C 5720.778781 6251.03605 6132.401243 6271.164616 6250.694614 6271.164616 C 6266.563236 6271.164616 6277.142318 6271.164616 6280.50839 6270.685364 C 6286.278798 6270.206113 6288.202268 6270.685364 6294.453543 6270.206113 C 6724.829832 6257.26632 7020.082392 5942.398039 7122.026272 5635.197783 C 7218.199745 5345.729835 7115.774997 5075.43195 7012.869381 4899.546624 Z M 10009.153911 5970.19463 C 9887.494468 7041.801139 8688.692136 7773.139035 7532.686999 7810.520657 C 7532.686999 7810.520657 6267.524971 7900.1407 5192.305551 7061.929705 C 5106.711161 6994.834486 4983.609116 6994.834486 4897.533858 7061.450454 C 3820.390969 7897.265191 2555.228941 7803.811135 2555.228941 7803.811135 C 1399.223804 7763.554003 203.787543 7076.307252 73.953356 6006.138498 C -27.990525 5164.09349 97.996724 4350.324325 467.783725 3669.787096 C 851.035012 2965.287289 1431.922785 2369.577588 2054.646018 1852.944396 C 2631.205984 1374.172078 3260.66136 954.347703 3914.160104 577.65597 C 4181.04149 423.816216 4452.731549 275.727481 4729.230282 138.18228 C 4745.579772 130.514255 4783.568294 112.302696 4828.288958 90.736375 C 4970.625697 23.161904 5137.967539 23.161904 5279.823411 91.215627 C 5306.751983 103.676167 5327.910147 114.219702 5338.008361 119.012218 C 5628.452248 262.787688 5913.125726 418.544449 6192.509663 580.531479 C 6845.046672 959.140219 7473.059446 1380.8816 8048.657678 1860.612421 C 8670.419176 2379.162619 9249.864347 2975.830824 9630.711297 3681.289134 C 9999.055696 4363.264117 10099.076107 5177.033282 10009.153911 5970.19463 Z M 10009.153911 5970.19463 " stroke="#2e1d4a" stroke-width="80" stroke-opacity="1" stroke-miterlimit="10"/></g><path fill="#fc385c" d="M 82.78125 28.804688 C 81.953125 26.300781 79.554688 23.734375 76.058594 23.628906 C 76.007812 23.625 75.992188 23.628906 75.945312 23.625 C 75.917969 23.621094 75.832031 23.621094 75.703125 23.621094 C 74.742188 23.621094 71.398438 23.785156 68.550781 25.84375 C 67.804688 26.382812 66.871094 26.683594 65.921875 26.683594 C 64.972656 26.683594 64.039062 26.390625 63.289062 25.851562 C 60.4375 23.800781 57.089844 23.644531 56.132812 23.644531 C 56.003906 23.644531 55.917969 23.648438 55.890625 23.648438 C 55.839844 23.652344 55.828125 23.652344 55.773438 23.65625 C 52.28125 23.769531 49.886719 26.34375 49.066406 28.847656 C 48.289062 31.210938 49.128906 33.410156 49.96875 34.84375 C 51.070312 36.722656 52.808594 38.59375 55.273438 40.542969 C 53.664062 39.179688 52.488281 37.859375 51.710938 36.535156 C 51.03125 35.375 50.355469 33.589844 50.980469 31.679688 C 51.644531 29.652344 53.582031 27.566406 56.410156 27.476562 C 56.453125 27.476562 56.464844 27.476562 56.503906 27.472656 C 56.527344 27.472656 56.597656 27.46875 56.703125 27.46875 C 57.476562 27.46875 60.1875 27.59375 62.496094 29.253906 C 63.101562 29.6875 63.855469 29.929688 64.625 29.929688 C 65.394531 29.925781 66.148438 29.6875 66.753906 29.246094 C 69.058594 27.582031 71.769531 27.449219 72.542969 27.449219 C 72.648438 27.449219 72.714844 27.449219 72.742188 27.449219 C 72.78125 27.453125 72.789062 27.453125 72.832031 27.453125 C 75.664062 27.539062 78.871094 30.25 79.144531 32.515625 C 79.386719 34.511719 79.101562 36.210938 78.425781 37.371094 C 77.488281 38.984375 75.972656 40.582031 73.796875 42.265625 C 72.117188 43.566406 70.214844 44.78125 67.980469 45.984375 C 67.480469 46.253906 67.007812 46.5 66.550781 46.726562 C 65.996094 47.003906 64.492188 46.175781 63.914062 45.980469 C 64.167969 46.113281 64.421875 46.242188 64.667969 46.367188 C 65.476562 46.765625 66.417969 46.765625 67.222656 46.363281 C 67.789062 46.078125 68.375 45.773438 68.992188 45.441406 C 71.75 43.960938 74.101562 42.457031 76.179688 40.851562 C 78.867188 38.773438 80.734375 36.792969 81.894531 34.800781 C 82.730469 33.367188 83.5625 31.164062 82.78125 28.804688 " fill-opacity="1" fill-rule="nonzero"/><path stroke-linecap="butt" transform="matrix(0.00812334, 0, 0, -0.00815073, 24.926595, 74.735661)" fill="none" stroke-linejoin="miter" d="M 7122.027108 5635.197783 C 7020.083216 5942.398039 6724.830621 6257.26632 6294.454282 6270.206113 C 6288.203006 6270.685364 6286.279536 6270.206113 6280.509127 6270.685364 C 6277.143055 6271.164616 6266.563972 6271.164616 6250.695347 6271.164616 C 6132.401962 6271.164616 5720.779453 6251.03605 5370.227105 5998.470473 C 5278.381428 5932.333756 5163.454115 5895.431385 5046.603333 5895.431385 C 4929.75255 5895.431385 4814.825237 5931.375253 4722.498693 5997.511969 C 4371.465478 6249.119043 3959.362101 6268.289106 3841.549584 6268.289106 C 3825.680959 6268.289106 3815.101876 6267.809855 3811.735804 6267.809855 C 3805.484527 6267.330603 3804.041925 6267.330603 3797.309781 6266.851352 C 3367.41431 6252.953056 3072.642582 5937.126272 2971.660425 5629.926016 C 2875.967809 5339.978816 2979.354303 5070.160182 3082.740798 4894.274856 C 3218.34541 4663.754851 3432.331411 4434.19335 3735.758752 4195.046816 C 3537.641376 4362.305614 3392.900283 4524.292645 3297.207667 4686.758927 C 3213.536736 4829.096643 3130.346673 5048.11461 3207.285459 5282.468628 C 3289.03292 5531.200192 3527.54316 5787.12053 3875.69117 5798.143317 C 3880.980712 5798.143317 3882.423314 5798.143317 3887.231988 5798.622568 C 3890.117193 5798.622568 3898.772806 5799.10182 3911.756227 5799.10182 C 4006.967975 5799.10182 4340.689963 5783.765769 4624.882607 5580.083852 C 4699.417057 5526.886928 4792.224469 5497.173331 4886.95535 5497.173331 C 4981.686231 5497.652582 5074.493643 5526.886928 5149.028093 5581.042356 C 5432.739869 5785.203524 5766.461857 5801.498078 5861.673606 5801.498078 C 5874.657026 5801.498078 5882.831773 5801.498078 5886.197844 5801.498078 C 5891.006519 5801.018826 5891.968253 5801.018826 5897.257795 5801.018826 C 6245.886673 5790.475291 6640.678823 5457.874702 6674.339542 5179.908792 C 6704.153322 4935.01124 6669.050001 4726.536807 6585.859937 4584.199091 C 6470.451757 4386.268193 6283.875199 4190.254301 6016.032047 3983.696874 C 5809.259058 3824.106102 5575.076625 3675.058864 5300.020462 3527.44938 C 5238.469433 3494.381022 5180.284475 3464.188173 5124.022987 3436.391582 C 5055.739814 3402.36472 4870.605858 3503.966053 4799.43748 3527.928632 C 4830.693862 3511.634078 4861.950244 3495.818777 4892.244892 3480.482726 C 4991.784447 3431.599066 5107.673495 3431.599066 5206.732183 3480.961978 C 5276.457959 3515.947342 5348.588071 3553.328965 5424.565123 3594.065348 C 5764.05752 3775.701693 6053.539706 3960.213547 6309.361172 4157.185942 C 6640.197956 4412.147777 6870.052581 4655.128323 7012.870205 4899.546624 C 7115.775832 5075.43195 7218.200592 5345.729835 7122.027108 5635.197783 Z M 7122.027108 5635.197783 " stroke="#2e1d4a" stroke-width="80" stroke-opacity="1" stroke-miterlimit="10"/><path fill="#ffbdd1" d="M 81.894531 34.800781 C 80.734375 36.792969 78.867188 38.773438 76.179688 40.851562 C 74.101562 42.457031 71.75 43.960938 68.992188 45.441406 C 68.375 45.773438 67.789062 46.078125 67.222656 46.363281 C 66.417969 46.765625 65.476562 46.765625 64.667969 46.367188 C 64.105469 46.085938 63.515625 45.78125 62.898438 45.449219 C 60.136719 43.976562 57.78125 42.480469 55.699219 40.878906 C 53.007812 38.804688 51.132812 36.832031 49.96875 34.84375 C 49.128906 33.410156 48.289062 31.210938 49.066406 28.847656 C 49.398438 27.832031 49.996094 26.808594 50.8125 25.9375 L 50.8125 26.257812 C 50.816406 26.898438 51.335938 27.417969 51.972656 27.417969 C 52.609375 27.417969 53.128906 26.894531 53.128906 26.253906 L 53.128906 24.273438 C 53.917969 23.914062 54.800781 23.6875 55.773438 23.65625 C 55.828125 23.652344 55.839844 23.652344 55.890625 23.648438 C 55.917969 23.648438 56.003906 23.644531 56.132812 23.644531 C 56.253906 23.644531 56.410156 23.648438 56.601562 23.65625 L 56.601562 24.3125 C 56.601562 24.953125 57.125 25.472656 57.761719 25.472656 C 58.398438 25.472656 58.917969 24.949219 58.917969 24.308594 L 58.917969 23.960938 C 60.25 24.25 61.832031 24.804688 63.289062 25.851562 C 64.039062 26.390625 64.972656 26.683594 65.921875 26.683594 C 66.871094 26.683594 67.804688 26.382812 68.550781 25.84375 C 70.515625 24.425781 72.714844 23.90625 74.207031 23.71875 L 74.207031 23.746094 C 74.207031 24.6875 74.972656 25.453125 75.90625 25.449219 C 76.804688 25.449219 77.539062 24.738281 77.59375 23.847656 C 78.148438 23.992188 78.667969 24.195312 79.148438 24.453125 L 79.152344 28.671875 C 79.15625 29.308594 79.675781 29.832031 80.3125 29.832031 C 80.949219 29.832031 81.472656 29.304688 81.46875 28.667969 L 81.46875 26.402344 C 82.0625 27.152344 82.507812 27.980469 82.78125 28.804688 C 83.5625 31.164062 82.730469 33.367188 81.894531 34.800781 Z M 105.40625 20.664062 C 102.835938 12.90625 95.503906 6.429688 86.113281 6.148438 C 86.113281 6.148438 75.832031 5.472656 67.101562 11.789062 C 66.386719 12.304688 65.417969 12.308594 64.703125 11.792969 C 55.953125 5.496094 45.679688 6.199219 45.679688 6.199219 C 36.289062 6.503906 28.96875 13 26.421875 20.765625 C 24.578125 26.390625 25.710938 32.222656 28.71875 37.351562 C 28.792969 37.476562 28.871094 37.601562 28.949219 37.730469 C 28.984375 37.785156 29.003906 37.851562 29 37.917969 L 28.949219 41.628906 C 28.941406 42.40625 29.460938 43.113281 30.21875 43.261719 C 30.898438 43.394531 31.523438 43.082031 31.859375 42.5625 C 31.988281 42.359375 32.265625 42.328125 32.421875 42.511719 C 33.511719 43.792969 34.6875 45.023438 35.925781 46.199219 C 35.992188 46.265625 36.03125 46.359375 36.03125 46.457031 L 35.976562 50.296875 C 35.964844 51.417969 36.746094 52.433594 37.851562 52.59375 C 39.191406 52.792969 40.363281 51.753906 40.382812 50.4375 L 40.386719 50.078125 C 40.792969 50.402344 41.199219 50.722656 41.605469 51.035156 C 43.183594 52.25 44.8125 53.410156 46.476562 54.527344 C 46.574219 54.59375 46.632812 54.703125 46.632812 54.820312 L 46.566406 59.652344 C 46.546875 60.921875 47.421875 62.0625 48.664062 62.277344 C 50.234375 62.542969 51.617188 61.335938 51.640625 59.800781 L 51.660156 58.394531 C 51.664062 58.128906 51.949219 57.964844 52.179688 58.101562 C 53.234375 58.71875 54.296875 59.320312 55.371094 59.910156 C 55.480469 59.972656 55.550781 60.089844 55.550781 60.21875 L 55.480469 65.292969 C 55.46875 65.980469 55.960938 66.605469 56.640625 66.683594 C 57.421875 66.773438 58.097656 66.160156 58.109375 65.390625 L 58.15625 61.96875 C 58.160156 61.710938 58.433594 61.546875 58.660156 61.664062 C 60.199219 62.457031 61.753906 63.222656 63.332031 63.949219 C 63.464844 64.011719 63.773438 64.148438 64.136719 64.308594 C 65.292969 64.820312 66.652344 64.820312 67.804688 64.304688 C 68.023438 64.210938 68.195312 64.132812 68.277344 64.09375 C 68.363281 64.054688 68.449219 64.011719 68.539062 63.972656 L 68.484375 67.894531 C 68.46875 68.785156 69.105469 69.59375 69.988281 69.695312 C 71 69.8125 71.875 69.019531 71.886719 68.023438 L 71.964844 62.523438 C 71.964844 62.394531 72.039062 62.277344 72.152344 62.21875 C 73.183594 61.695312 74.207031 61.160156 75.21875 60.617188 C 76.242188 60.066406 77.257812 59.5 78.265625 58.921875 C 78.457031 58.8125 78.695312 58.90625 78.765625 59.113281 C 79.355469 60.890625 81.105469 62.15625 83.113281 61.964844 C 85.246094 61.761719 86.84375 59.898438 86.875 57.75 L 86.929688 53.625 C 86.929688 53.515625 86.984375 53.410156 87.078125 53.347656 C 88.171875 52.578125 89.246094 51.785156 90.296875 50.972656 C 90.445312 50.859375 90.589844 50.742188 90.738281 50.628906 L 90.722656 51.8125 C 90.703125 53.027344 91.683594 54.019531 92.894531 54.019531 C 94.105469 54.019531 95.109375 53.023438 95.128906 51.804688 L 95.195312 46.996094 C 95.195312 46.902344 95.234375 46.8125 95.304688 46.746094 C 96.128906 45.984375 96.925781 45.199219 97.691406 44.390625 L 97.6875 44.730469 C 97.679688 45.417969 98.167969 46.042969 98.847656 46.121094 C 99.632812 46.210938 100.308594 45.597656 100.316406 44.828125 L 100.363281 41.433594 C 100.363281 41.355469 100.390625 41.285156 100.4375 41.222656 C 101.433594 39.953125 102.347656 38.632812 103.152344 37.253906 C 106.144531 32.117188 107.265625 26.28125 105.40625 20.664062 " fill-opacity="1" fill-rule="nonzero"/><g clip-path="url(#a5906c55d6)"><path stroke-linecap="butt" transform="matrix(0.00812334, 0, 0, -0.00815073, 24.926595, 74.735661)" fill="none" stroke-linejoin="miter" d="M 7012.869381 4899.546624 C 6870.051775 4655.128323 6640.197176 4412.147777 6309.360432 4157.185942 C 6053.538995 3960.213547 5764.056844 3775.701693 5424.564487 3594.065348 C 5348.587443 3553.328965 5276.457339 3515.947342 5206.731572 3480.961978 C 5107.672895 3431.599066 4991.783861 3431.599066 4892.244317 3480.482726 C 4822.999417 3514.988839 4750.388446 3552.370462 4674.411403 3593.106845 C 4334.438178 3773.784687 4044.475159 3957.338038 3788.172856 4153.831181 C 3456.855244 4408.313765 3226.03891 4650.335808 3082.740436 4894.274856 C 2979.353954 5070.160182 2875.967471 5339.978816 2971.660076 5629.926016 C 3012.533802 5754.531424 3086.106508 5880.095335 3186.607786 5986.968435 L 3186.607786 5947.669806 C 3187.088654 5869.072549 3251.044013 5805.33209 3329.425393 5805.33209 C 3407.806773 5805.33209 3471.762132 5869.5518 3471.762132 5948.149058 L 3471.762132 6191.129604 C 3568.897339 6235.220748 3677.573362 6263.017339 3797.309335 6266.851352 C 3804.041479 6267.330603 3805.484081 6267.330603 3811.735356 6267.809855 C 3815.101428 6267.809855 3825.68051 6268.289106 3841.549133 6268.289106 C 3856.456021 6268.289106 3875.690715 6267.809855 3899.253216 6266.851352 L 3899.253216 6186.337088 C 3899.253216 6107.73983 3963.689443 6043.999372 4042.070822 6043.999372 C 4120.452202 6043.999372 4184.407561 6108.219082 4184.407561 6186.816339 L 4184.407561 6229.469729 C 4348.383332 6194.005113 4543.134613 6125.95139 4722.498139 5997.511969 C 4814.824672 5931.375253 4929.751972 5895.431385 5046.60274 5895.431385 C 5163.453509 5895.431385 5278.380809 5932.333756 5370.226475 5998.470473 C 5612.102758 6172.438792 5882.831082 6236.179251 6066.522414 6259.183326 L 6066.522414 6255.828565 C 6066.522414 6140.328937 6160.772417 6046.39563 6275.699716 6046.874881 C 6386.299209 6046.874881 6476.702273 6134.098667 6483.434416 6243.368025 C 6551.717582 6225.635717 6615.672941 6200.714635 6674.819626 6169.084031 L 6675.300494 5651.492336 C 6675.781361 5573.37433 6739.73672 5509.15462 6818.1181 5509.15462 C 6896.49948 5509.15462 6960.935706 5573.853582 6960.454839 5651.971588 L 6960.454839 5929.937498 C 7033.546678 5837.921197 7088.365557 5736.319864 7122.026272 5635.197783 C 7218.199745 5345.729835 7115.774997 5075.43195 7012.869381 4899.546624 Z M 9907.21003 6633.958054 C 9590.799306 7585.751671 8688.211269 8380.350773 7532.206132 8414.856886 C 7532.206132 8414.856886 6266.563236 8497.767408 5191.824684 7722.81762 C 5103.825956 7659.556413 4984.570851 7659.077161 4896.572124 7722.338368 C 3819.429234 8494.891898 2554.748073 8408.626616 2554.748073 8408.626616 C 1398.742937 8371.244993 497.597501 7574.249633 184.071982 6621.497513 C -42.897413 5931.375253 96.554122 5215.85266 466.82199 4586.595349 C 475.95847 4571.259299 485.575817 4555.923248 495.193164 4540.107947 C 499.520971 4533.398425 501.925308 4525.251148 501.44444 4517.103871 L 495.193164 4061.81488 C 494.23143 3966.443818 558.186789 3879.699284 651.475057 3861.487724 C 735.145978 3845.193171 812.084756 3883.533296 853.439349 3947.273755 C 869.307972 3972.194837 903.449554 3976.028849 922.684249 3953.504025 C 1056.846243 3796.309511 1201.587318 3645.345266 1354.022272 3501.090544 C 1362.197017 3492.943267 1367.005691 3481.441229 1367.005691 3469.45994 L 1360.273548 2998.355647 C 1358.830946 2860.810447 1455.004418 2736.205039 1591.089881 2716.555724 C 1756.027386 2692.113894 1900.287595 2819.594812 1902.691931 2981.102591 L 1903.172799 3025.193735 C 1953.183004 2985.415855 2003.19321 2946.117226 2053.203416 2907.777101 C 2247.47383 2758.729863 2447.995519 2616.392146 2652.845015 2479.326198 C 2664.866699 2471.178921 2672.07971 2457.759877 2672.07971 2443.38233 L 2663.904965 1850.548138 C 2661.500628 1694.791378 2769.214917 1554.84992 2922.130738 1528.491084 C 3115.439417 1495.901977 3285.666463 1643.990712 3288.551667 1832.336579 L 3290.956004 2004.867144 C 3291.436871 2037.45625 3326.540189 2057.584816 3354.911363 2040.811011 C 3484.745551 1965.089263 3615.541473 1891.284522 3747.779997 1818.917535 C 3761.244283 1811.24951 3769.899896 1796.871963 3769.899896 1781.056661 L 3761.244283 1158.508872 C 3759.801681 1074.160596 3820.390969 997.480345 3904.06189 987.895313 C 4000.235362 976.872527 4083.425416 1052.115023 4084.868018 1146.527583 L 4090.638426 1566.351958 C 4091.119293 1597.982561 4124.780009 1618.111127 4152.670316 1603.73358 C 4342.132056 1506.445511 4533.517266 1412.512204 4727.78768 1323.371412 C 4744.13717 1315.703387 4782.125692 1298.929582 4826.846356 1279.280267 C 4969.183095 1216.498312 5136.524937 1216.498312 5278.380809 1279.759519 C 5305.309381 1291.261557 5326.467545 1300.846588 5336.565759 1305.639104 C 5347.144841 1310.431619 5357.723923 1315.703387 5368.783873 1320.495902 L 5362.05173 839.327327 C 5360.12826 730.057969 5438.50964 630.852894 5547.185664 618.392353 C 5671.73031 604.014806 5779.444599 701.302875 5780.887201 823.512025 L 5790.504549 1498.298235 C 5790.504549 1514.113536 5799.641028 1528.491084 5813.586182 1535.679857 C 5940.535165 1599.899567 6066.522414 1665.557032 6191.067061 1732.173001 C 6317.054309 1799.747472 6442.079823 1869.23895 6566.143603 1940.168182 C 6589.706103 1953.587226 6619.039012 1942.085188 6627.694625 1916.684855 C 6700.305596 1698.625391 6915.734174 1543.347882 7162.899998 1566.831209 C 7425.453578 1591.752291 7622.128328 1820.355289 7625.975267 2083.943653 L 7632.70741 2590.03331 C 7632.70741 2603.452354 7639.439553 2616.392146 7650.98037 2624.060172 C 7785.623231 2718.472731 7917.861756 2815.760799 8047.215076 2915.445126 C 8065.488036 2929.343421 8083.280128 2943.720968 8101.553088 2957.619264 L 8099.629618 2812.406038 C 8097.225281 2663.3588 8217.922989 2541.628902 8366.991871 2541.628902 C 8516.060753 2541.628902 8639.643665 2663.838052 8642.048002 2813.364541 L 8650.222747 3403.323224 C 8650.222747 3414.825261 8655.031421 3425.848047 8663.687033 3433.995324 C 8765.150046 3527.44938 8863.246988 3623.778946 8957.496991 3722.98402 L 8957.016124 3681.289134 C 8956.054389 3596.940858 9016.162809 3520.260607 9099.83373 3510.675575 C 9196.48807 3499.652789 9279.678123 3574.895285 9280.639858 3669.307845 L 9286.410266 4085.777459 C 9286.410266 4095.36249 9289.776338 4103.989018 9295.546746 4111.657043 C 9418.167923 4267.413803 9530.690886 4429.400834 9629.749562 4598.576638 C 9998.093961 5228.792452 10136.102894 5944.794297 9907.21003 6633.958054 Z M 9907.21003 6633.958054 " stroke="#2e1d4a" stroke-width="80" stroke-opacity="1" stroke-miterlimit="10"/></g><path fill="#f0f2f0" d="M 34.292969 18.765625 C 33.96875 19.089844 33.441406 19.089844 33.117188 18.765625 L 31.339844 16.988281 C 31.015625 16.664062 31.015625 16.132812 31.339844 15.808594 C 31.664062 15.484375 32.191406 15.484375 32.515625 15.808594 L 34.292969 17.585938 C 34.617188 17.910156 34.617188 18.441406 34.292969 18.765625 " fill-opacity="1" fill-rule="nonzero"/><g clip-path="url(#c200fdd9bc)"><path stroke-linecap="butt" transform="matrix(0.00812334, 0, 0, -0.00815073, 24.926595, 74.735661)" fill="none" stroke-linejoin="miter" d="M 1153.01985 6866.874317 C 1113.107855 6827.096436 1048.190753 6827.096436 1008.278757 6866.874317 L 789.484082 7084.933781 C 749.572087 7124.711661 749.572087 7189.889874 789.484082 7229.667755 C 829.396078 7269.445635 894.313179 7269.445635 934.225175 7229.667755 L 1153.01985 7011.608291 C 1192.931846 6971.83041 1192.931846 6906.652197 1153.01985 6866.874317 Z M 1153.01985 6866.874317 " stroke="#2e1d4a" stroke-width="80" stroke-opacity="1" stroke-miterlimit="10"/></g><path fill="#f0f2f0" d="M 78.378906 46.523438 C 78.058594 46.851562 77.527344 46.851562 77.203125 46.527344 L 75.429688 44.75 C 75.105469 44.425781 75.105469 43.894531 75.425781 43.570312 C 75.75 43.242188 76.28125 43.242188 76.605469 43.566406 L 78.378906 45.34375 C 78.703125 45.667969 78.703125 46.199219 78.378906 46.523438 " fill-opacity="1" fill-rule="nonzero"/><path stroke-linecap="butt" transform="matrix(0.00812334, 0, 0, -0.00815073, 24.926595, 74.735661)" fill="none" stroke-linejoin="miter" d="M 6580.089528 3461.312663 C 6540.6584 3421.055532 6475.260431 3421.055532 6435.348436 3460.833412 L 6217.034628 3678.892876 C 6177.122632 3718.670756 6177.122632 3783.84897 6216.553761 3823.62685 C 6256.465756 3863.883982 6321.863725 3863.883982 6361.775721 3824.106102 L 6580.089528 3606.046637 C 6620.001524 3566.268757 6620.001524 3501.090544 6580.089528 3461.312663 Z M 6580.089528 3461.312663 " stroke="#2e1d4a" stroke-width="80" stroke-opacity="1" stroke-miterlimit="10"/><path fill="#f0f2f0" d="M 44.46875 33.609375 C 44.496094 34.148438 44.078125 34.609375 43.539062 34.636719 L 40.597656 34.78125 C 40.0625 34.808594 39.601562 34.390625 39.574219 33.851562 C 39.546875 33.3125 39.964844 32.851562 40.503906 32.824219 L 43.445312 32.679688 C 43.980469 32.652344 44.441406 33.070312 44.46875 33.609375 " fill-opacity="1" fill-rule="nonzero"/><path stroke-linecap="butt" transform="matrix(0.00812334, 0, 0, -0.00815073, 24.926595, 74.735661)" fill="none" stroke-linejoin="miter" d="M 2405.679474 5045.718352 C 2409.045546 4979.581636 2357.592732 4923.029951 2291.233028 4919.67519 L 1929.139863 4901.942882 C 1863.261026 4898.588121 1806.518671 4949.868038 1803.152599 5016.004755 C 1799.786527 5082.141472 1851.239341 5138.693157 1917.599045 5142.047918 L 2279.69221 5159.780226 C 2345.571047 5163.134987 2402.313402 5111.855069 2405.679474 5045.718352 Z M 2405.679474 5045.718352 " stroke="#2e1d4a" stroke-width="80" stroke-opacity="1" stroke-miterlimit="10"/><path fill="#f0f2f0" d="M 36.039062 38.148438 C 35.773438 38.617188 35.171875 38.777344 34.707031 38.511719 L 32.152344 37.035156 C 31.6875 36.765625 31.527344 36.164062 31.792969 35.695312 C 32.0625 35.230469 32.664062 35.066406 33.128906 35.335938 L 35.679688 36.8125 C 36.144531 37.078125 36.308594 37.683594 36.039062 38.148438 " fill-opacity="1" fill-rule="nonzero"/><g clip-path="url(#2c292d1f75)"><path stroke-linecap="butt" transform="matrix(0.00812334, 0, 0, -0.00815073, 24.926595, 74.735661)" fill="none" stroke-linejoin="miter" d="M 1367.967586 4488.828029 C 1335.268602 4431.31784 1261.215019 4411.668526 1203.991797 4444.257633 L 889.504505 4625.414726 C 832.281283 4658.483084 812.565718 4732.287826 845.264703 4789.798014 C 878.444555 4846.828951 952.498137 4866.957517 1009.72136 4833.889159 L 1323.727784 4652.732065 C 1380.951006 4620.142959 1401.147438 4545.858965 1367.967586 4488.828029 Z M 1367.967586 4488.828029 " stroke="#2e1d4a" stroke-width="80" stroke-opacity="1" stroke-miterlimit="10"/></g><path fill="#f0f2f0" d="M 42.648438 23.191406 C 42.257812 22.800781 42.257812 22.164062 42.648438 21.773438 L 44.773438 19.632812 C 45.160156 19.242188 45.796875 19.242188 46.1875 19.632812 C 46.578125 20.019531 46.578125 20.660156 46.1875 21.050781 L 44.0625 23.1875 C 43.671875 23.578125 43.039062 23.582031 42.648438 23.191406 " fill-opacity="1" fill-rule="nonzero"/><path stroke-linecap="butt" transform="matrix(0.00812334, 0, 0, -0.00815073, 24.926595, 74.735661)" fill="none" stroke-linejoin="miter" d="M 2181.595257 6323.882288 C 2133.508515 6371.807445 2133.508515 6449.925451 2181.595257 6497.850608 L 2443.187132 6760.480468 C 2490.793007 6808.405625 2569.174396 6808.405625 2617.261138 6760.480468 C 2665.347879 6713.034563 2665.347879 6634.437305 2617.261138 6586.512148 L 2355.669262 6324.36154 C 2307.582521 6276.436383 2229.681999 6275.957131 2181.595257 6323.882288 Z M 2181.595257 6323.882288 " stroke="#2e1d4a" stroke-width="80" stroke-opacity="1" stroke-miterlimit="10"/><path fill="#f0f2f0" d="M 81.863281 54.078125 C 81.425781 53.742188 81.34375 53.109375 81.675781 52.671875 L 83.511719 50.273438 C 83.84375 49.839844 84.476562 49.753906 84.910156 50.089844 C 85.347656 50.425781 85.429688 51.058594 85.097656 51.496094 L 83.261719 53.894531 C 82.929688 54.332031 82.296875 54.414062 81.863281 54.078125 " fill-opacity="1" fill-rule="nonzero"/><path stroke-linecap="butt" transform="matrix(0.00812334, 0, 0, -0.00815073, 24.926595, 74.735661)" fill="none" stroke-linejoin="miter" d="M 7009.023265 2534.440128 C 6955.166114 2575.655763 6945.067899 2653.294517 6985.941629 2706.970693 L 7211.949316 3001.231157 C 7252.823046 3054.428081 7330.723568 3064.971615 7384.099851 3023.755981 C 7437.957002 2982.540346 7448.055218 2904.901591 7407.181487 2851.225415 L 7181.173801 2556.964952 C 7140.30007 2503.288776 7062.399549 2493.224493 7009.023265 2534.440128 Z M 7009.023265 2534.440128 " stroke="#2e1d4a" stroke-width="80" stroke-opacity="1" stroke-miterlimit="10"/><path fill="#f0f2f0" d="M 51.417969 49.179688 C 51.03125 48.789062 51.03125 48.152344 51.417969 47.761719 L 53.546875 45.621094 C 53.933594 45.230469 54.570312 45.230469 54.957031 45.617188 C 55.347656 46.007812 55.347656 46.644531 54.960938 47.035156 L 52.832031 49.175781 C 52.445312 49.566406 51.808594 49.566406 51.417969 49.179688 " fill-opacity="1" fill-rule="nonzero"/><path stroke-linecap="butt" transform="matrix(0.00812334, 0, 0, -0.00815073, 24.926595, 74.735661)" fill="none" stroke-linejoin="miter" d="M 3261.14261 3135.421596 C 3213.536736 3183.346753 3213.536736 3261.464759 3261.14261 3309.389916 L 3523.215353 3572.019776 C 3570.821227 3619.944933 3649.202616 3619.944933 3696.808491 3572.499028 C 3744.895233 3524.573871 3744.895233 3446.455865 3697.289358 3398.530708 L 3435.216616 3135.900848 C 3387.610741 3087.975691 3309.229352 3087.975691 3261.14261 3135.421596 Z M 3261.14261 3135.421596 " stroke="#2e1d4a" stroke-width="80" stroke-opacity="1" stroke-miterlimit="10"/><path fill="#f26d91" d="M 30.519531 30.257812 C 30.117188 29.855469 30.117188 29.195312 30.515625 28.796875 L 32.707031 26.589844 C 33.109375 26.1875 33.761719 26.1875 34.164062 26.589844 C 34.566406 26.988281 34.566406 27.648438 34.164062 28.050781 L 31.972656 30.253906 C 31.574219 30.65625 30.917969 30.65625 30.519531 30.257812 " fill-opacity="1" fill-rule="nonzero"/><g clip-path="url(#99e642492e)"><path stroke-linecap="butt" transform="matrix(0.00812334, 0, 0, -0.00815073, 24.926595, 74.735661)" fill="none" stroke-linejoin="miter" d="M 688.501925 5456.916199 C 638.972581 5506.279111 638.972581 5587.272626 688.021057 5636.156286 L 957.787679 5906.933423 C 1007.317023 5956.296334 1087.621881 5956.296334 1137.151225 5906.933423 C 1186.680569 5858.049763 1186.680569 5777.056247 1137.151225 5727.693336 L 867.384604 5457.395451 C 818.336127 5408.032539 737.550401 5408.032539 688.501925 5456.916199 Z M 688.501925 5456.916199 " stroke="#2e1d4a" stroke-width="80" stroke-opacity="1" stroke-miterlimit="10"/></g><path fill="#f0f2f0" d="M 80.394531 18.152344 C 80.46875 18.605469 80.160156 19.039062 79.710938 19.113281 L 77.234375 19.523438 C 76.785156 19.597656 76.351562 19.289062 76.277344 18.835938 C 76.203125 18.382812 76.511719 17.949219 76.964844 17.875 L 79.4375 17.464844 C 79.890625 17.390625 80.320312 17.699219 80.394531 18.152344 " fill-opacity="1" fill-rule="nonzero"/><path stroke-linecap="butt" transform="matrix(0.00812334, 0, 0, -0.00815073, 24.926595, 74.735661)" fill="none" stroke-linejoin="miter" d="M 6828.217116 6942.116813 C 6837.353597 6886.523631 6799.365071 6833.326707 6744.065318 6824.220927 L 6439.195375 6773.899512 C 6383.895622 6764.793732 6330.519339 6802.654606 6321.382858 6858.247788 C 6312.246377 6913.84097 6350.234903 6967.037895 6406.015523 6976.143674 L 6710.404599 7026.465089 C 6766.185219 7035.570869 6819.080635 6997.709995 6828.217116 6942.116813 Z M 6828.217116 6942.116813 " stroke="#2e1d4a" stroke-width="80" stroke-opacity="1" stroke-miterlimit="10"/><path fill="#f0f2f0" d="M 102.898438 26.421875 C 103.335938 26.554688 103.582031 27.023438 103.449219 27.464844 L 102.714844 29.871094 C 102.582031 30.308594 102.113281 30.558594 101.675781 30.421875 C 101.238281 30.289062 100.992188 29.820312 101.125 29.382812 L 101.859375 26.976562 C 101.992188 26.535156 102.460938 26.285156 102.898438 26.421875 " fill-opacity="1" fill-rule="nonzero"/><g clip-path="url(#fb7d4d4be5)"><path stroke-linecap="butt" transform="matrix(0.00812334, 0, 0, -0.00815073, 24.926595, 74.735661)" fill="none" stroke-linejoin="miter" d="M 9598.494311 5927.54124 C 9652.351461 5911.246687 9682.646109 5853.736499 9666.296616 5799.581071 L 9575.893542 5504.362104 C 9559.54405 5450.685929 9501.83996 5420.013828 9447.982809 5436.787633 C 9394.125658 5453.082186 9363.831011 5510.592375 9380.180503 5564.268551 L 9470.583577 5859.487517 C 9486.93307 5913.642945 9544.63716 5944.315045 9598.494311 5927.54124 Z M 9598.494311 5927.54124 " stroke="#2e1d4a" stroke-width="80" stroke-opacity="1" stroke-miterlimit="10"/></g><path fill="#f0f2f0" d="M 51.832031 8.945312 C 51.90625 9.398438 51.597656 9.832031 51.144531 9.90625 L 48.671875 10.316406 C 48.21875 10.390625 47.789062 10.078125 47.714844 9.625 C 47.640625 9.171875 47.949219 8.742188 48.398438 8.667969 L 50.875 8.257812 C 51.324219 8.183594 51.753906 8.492188 51.832031 8.945312 " fill-opacity="1" fill-rule="nonzero"/><g clip-path="url(#77818ea455)"><path stroke-linecap="butt" transform="matrix(0.00812334, 0, 0, -0.00815073, 24.926595, 74.735661)" fill="none" stroke-linejoin="miter" d="M 3312.114557 8071.712762 C 3321.251037 8016.11958 3283.262511 7962.922656 3227.481891 7953.816876 L 2923.092815 7903.495461 C 2867.312195 7894.389682 2814.416779 7932.729807 2805.280298 7988.322989 C 2796.143817 8043.916171 2834.132343 8096.633844 2889.432096 8105.739624 L 3194.302039 8156.061039 C 3249.601792 8165.166818 3302.497208 8127.305944 3312.114557 8071.712762 Z M 3312.114557 8071.712762 " stroke="#2e1d4a" stroke-width="80" stroke-opacity="1" stroke-miterlimit="10"/></g><path fill="#f26d91" d="M 49.273438 39.964844 C 49.347656 40.417969 49.039062 40.847656 48.585938 40.925781 L 46.113281 41.332031 C 45.660156 41.410156 45.230469 41.097656 45.15625 40.644531 C 45.082031 40.191406 45.390625 39.761719 45.84375 39.6875 L 48.316406 39.277344 C 48.769531 39.203125 49.199219 39.511719 49.273438 39.964844 " fill-opacity="1" fill-rule="nonzero"/><path stroke-linecap="butt" transform="matrix(0.00812334, 0, 0, -0.00815073, 24.926595, 74.735661)" fill="none" stroke-linejoin="miter" d="M 2997.146398 4265.976049 C 3006.282879 4210.382867 2968.294353 4157.665194 2912.513732 4148.080163 L 2608.124657 4098.237999 C 2552.344036 4088.652968 2499.44862 4126.993094 2490.312139 4182.586276 C 2481.175658 4238.179458 2519.164184 4290.89713 2574.944805 4300.00291 L 2879.33388 4350.324325 C 2935.114501 4359.430105 2988.009917 4321.569231 2997.146398 4265.976049 Z M 2997.146398 4265.976049 " stroke="#2e1d4a" stroke-width="80" stroke-opacity="1" stroke-miterlimit="10"/><path fill="#f0f2f0" d="M 90.785156 11.925781 C 91.078125 11.472656 91.6875 11.34375 92.136719 11.636719 L 94.609375 13.242188 C 95.0625 13.535156 95.191406 14.144531 94.902344 14.597656 C 94.609375 15.050781 94 15.179688 93.550781 14.886719 L 91.078125 13.28125 C 90.625 12.988281 90.496094 12.378906 90.785156 11.925781 " fill-opacity="1" fill-rule="nonzero"/><g clip-path="url(#64a79d0949)"><path stroke-linecap="butt" transform="matrix(0.00812334, 0, 0, -0.00815073, 24.926595, 74.735661)" fill="none" stroke-linejoin="miter" d="M 8107.324448 7706.043815 C 8143.389504 7761.636997 8218.404821 7777.452299 8273.704574 7741.508431 L 8578.09365 7544.536036 C 8633.87427 7508.592168 8649.742895 7433.828923 8614.158706 7378.235741 C 8578.09365 7322.642559 8503.078333 7306.827257 8447.77858 7342.771125 L 8143.389504 7539.74352 C 8087.608884 7575.687388 8071.740259 7650.450633 8107.324448 7706.043815 Z M 8107.324448 7706.043815 " stroke="#2e1d4a" stroke-width="80" stroke-opacity="1" stroke-miterlimit="10"/></g><path fill="#f0f2f0" d="M 96.753906 33.222656 C 97.277344 33.09375 97.808594 33.414062 97.941406 33.9375 L 98.652344 36.804688 C 98.78125 37.328125 98.460938 37.863281 97.9375 37.992188 C 97.417969 38.125 96.882812 37.800781 96.753906 37.277344 L 96.042969 34.410156 C 95.914062 33.886719 96.234375 33.351562 96.753906 33.222656 " fill-opacity="1" fill-rule="nonzero"/><g clip-path="url(#fffd35d985)"><path stroke-linecap="butt" transform="matrix(0.00812334, 0, 0, -0.00815073, 24.926595, 74.735661)" fill="none" stroke-linejoin="miter" d="M 8842.089862 5093.164258 C 8906.526096 5108.97956 8971.924065 5069.680931 8988.273557 5005.461221 L 9075.791427 4653.690568 C 9091.660052 4589.470858 9052.228924 4523.813393 8987.79269 4507.998091 C 8923.837323 4491.703538 8857.958487 4531.481418 8842.089862 4595.701129 L 8754.571992 4947.471781 C 8738.703367 5011.691491 8778.134496 5077.348956 8842.089862 5093.164258 Z M 8842.089862 5093.164258 " stroke="#2e1d4a" stroke-width="80" stroke-opacity="1" stroke-miterlimit="10"/></g><path fill="#f0f2f0" d="M 92.101562 28.921875 C 92.324219 29.414062 92.105469 29.996094 91.613281 30.21875 L 88.929688 31.4375 C 88.441406 31.660156 87.859375 31.441406 87.636719 30.949219 C 87.417969 30.457031 87.636719 29.875 88.125 29.652344 L 90.808594 28.433594 C 91.296875 28.210938 91.878906 28.429688 92.101562 28.921875 " fill-opacity="1" fill-rule="nonzero"/><path stroke-linecap="butt" transform="matrix(0.00812334, 0, 0, -0.00815073, 24.926595, 74.735661)" fill="none" stroke-linejoin="miter" d="M 8269.376767 5620.820236 C 8296.78621 5560.434538 8269.857635 5489.026054 8209.26834 5461.708715 L 7878.912424 5312.182225 C 7818.803997 5284.864886 7747.154752 5311.702973 7719.745309 5372.088671 C 7692.816733 5432.474369 7719.745309 5503.882853 7779.853736 5531.200192 L 8110.209652 5680.726682 C 8170.318079 5708.044021 8241.967325 5681.205934 8269.376767 5620.820236 Z M 8269.376767 5620.820236 " stroke="#2e1d4a" stroke-width="80" stroke-opacity="1" stroke-miterlimit="10"/><path fill="#f0f2f0" d="M 83.152344 13.183594 C 82.78125 12.78125 82.804688 12.144531 83.207031 11.769531 L 85.421875 9.71875 C 85.824219 9.34375 86.460938 9.371094 86.832031 9.773438 C 87.207031 10.179688 87.179688 10.816406 86.777344 11.191406 L 84.5625 13.242188 C 84.160156 13.617188 83.523438 13.589844 83.152344 13.183594 " fill-opacity="1" fill-rule="nonzero"/><g clip-path="url(#1aef61ef5b)"><path stroke-linecap="butt" transform="matrix(0.00812334, 0, 0, -0.00815073, 24.926595, 74.735661)" fill="none" stroke-linejoin="miter" d="M 7167.709513 7551.724809 C 7122.027108 7601.087721 7124.912313 7679.205727 7174.441657 7725.213878 L 7447.093483 7976.820952 C 7496.622827 8022.829102 7575.004216 8019.474341 7620.686621 7970.11143 C 7666.849893 7920.269266 7663.483821 7842.151261 7613.954477 7796.14311 L 7341.302651 7544.536036 C 7291.773307 7498.527885 7213.391918 7501.882646 7167.709513 7551.724809 Z M 7167.709513 7551.724809 " stroke="#2e1d4a" stroke-width="80" stroke-opacity="1" stroke-miterlimit="10"/></g><path fill="#f0f2f0" d="M 97.046875 26.988281 C 96.546875 27.214844 95.953125 26.992188 95.726562 26.488281 L 94.484375 23.734375 C 94.257812 23.234375 94.480469 22.636719 94.980469 22.410156 C 95.480469 22.179688 96.078125 22.40625 96.304688 22.910156 L 97.546875 25.660156 C 97.773438 26.164062 97.546875 26.761719 97.046875 26.988281 " fill-opacity="1" fill-rule="nonzero"/><path stroke-linecap="butt" transform="matrix(0.00812334, 0, 0, -0.00815073, 24.926595, 74.735661)" fill="none" stroke-linejoin="miter" d="M 8878.154919 5858.049763 C 8816.603889 5830.253172 8743.512042 5857.570511 8715.621731 5919.393964 L 8562.705892 6257.26632 C 8534.815582 6318.610521 8562.225025 6391.936011 8623.776054 6419.732602 C 8685.327084 6448.008445 8758.899799 6420.211854 8786.790109 6358.388401 L 8939.705948 6020.995296 C 8967.596258 5959.171844 8939.705948 5885.846354 8878.154919 5858.049763 Z M 8878.154919 5858.049763 " stroke="#2e1d4a" stroke-width="80" stroke-opacity="1" stroke-miterlimit="10"/><path fill="#c41d3c" d="M 45.484375 49.101562 C 44.984375 49.328125 44.386719 49.105469 44.160156 48.601562 L 42.917969 45.847656 C 42.691406 45.347656 42.917969 44.75 43.417969 44.523438 C 43.917969 44.292969 44.511719 44.519531 44.738281 45.023438 L 45.980469 47.777344 C 46.210938 48.277344 45.984375 48.875 45.484375 49.101562 " fill-opacity="1" fill-rule="nonzero"/><path stroke-linecap="butt" transform="matrix(0.00812334, 0, 0, -0.00815073, 24.926595, 74.735661)" fill="none" stroke-linejoin="miter" d="M 2530.705002 3145.006628 C 2469.153973 3117.210037 2395.581258 3144.527376 2367.690948 3206.350829 L 2214.775109 3544.223185 C 2186.884799 3605.567386 2214.775109 3678.892876 2276.326138 3706.689467 C 2337.877168 3734.96531 2410.969015 3707.168719 2438.859326 3645.345266 L 2591.775165 3307.47291 C 2620.146342 3246.128709 2592.256032 3172.803219 2530.705002 3145.006628 Z M 2530.705002 3145.006628 " stroke="#2e1d4a" stroke-width="80" stroke-opacity="1" stroke-miterlimit="10"/><path fill="#c41d3c" d="M 62.878906 16.96875 C 63.195312 17.433594 63.117188 18.042969 62.710938 18.324219 L 60.472656 19.859375 C 60.0625 20.136719 59.46875 19.988281 59.152344 19.523438 C 58.835938 19.058594 58.914062 18.449219 59.320312 18.167969 L 61.558594 16.632812 C 61.96875 16.355469 62.5625 16.503906 62.878906 16.96875 " fill-opacity="1" fill-rule="nonzero"/><path stroke-linecap="butt" transform="matrix(0.00812334, 0, 0, -0.00815073, 24.926595, 74.735661)" fill="none" stroke-linejoin="miter" d="M 4672.007614 7087.330039 C 4710.957875 7030.299102 4701.340527 6955.535857 4651.330315 6921.029744 L 4375.793285 6732.683877 C 4325.302206 6698.657016 4252.210358 6716.868575 4213.260098 6773.899512 C 4174.309837 6830.930449 4183.927185 6905.693694 4233.937397 6940.199807 L 4509.474427 7128.545674 C 4559.965506 7162.572535 4633.057353 7144.360975 4672.007614 7087.330039 Z M 4672.007614 7087.330039 " stroke="#2e1d4a" stroke-width="80" stroke-opacity="1" stroke-miterlimit="10"/><path fill="#f26d91" d="M 86.695312 23.214844 C 86.136719 23.304688 85.605469 22.921875 85.511719 22.363281 L 85.007812 19.289062 C 84.914062 18.730469 85.296875 18.195312 85.855469 18.101562 C 86.414062 18.007812 86.945312 18.394531 87.039062 18.953125 L 87.542969 22.027344 C 87.636719 22.585938 87.253906 23.121094 86.695312 23.214844 " fill-opacity="1" fill-rule="nonzero"/><path stroke-linecap="butt" transform="matrix(0.00812334, 0, 0, -0.00815073, 24.926595, 74.735661)" fill="none" stroke-linejoin="miter" d="M 7603.856261 6321.006779 C 7535.09222 6309.983993 7469.694252 6356.950647 7458.153434 6425.483621 L 7396.121537 6802.654606 C 7384.580719 6871.187581 7431.705726 6936.845046 7500.469766 6948.347083 C 7569.233807 6959.849121 7634.631776 6912.403216 7646.172594 6843.870241 L 7708.204491 6466.699256 C 7719.745309 6398.166282 7672.620302 6332.508817 7603.856261 6321.006779 Z M 7603.856261 6321.006779 " stroke="#2e1d4a" stroke-width="80" stroke-opacity="1" stroke-miterlimit="10"/><path fill="#f26d91" d="M 81.289062 42.222656 C 81.199219 41.664062 81.582031 41.128906 82.140625 41.035156 L 85.203125 40.527344 C 85.761719 40.4375 86.292969 40.820312 86.386719 41.378906 C 86.476562 41.941406 86.09375 42.476562 85.535156 42.566406 L 82.472656 43.074219 C 81.914062 43.167969 81.382812 42.785156 81.289062 42.222656 " fill-opacity="1" fill-rule="nonzero"/><path stroke-linecap="butt" transform="matrix(0.00812334, 0, 0, -0.00815073, 24.926595, 74.735661)" fill="none" stroke-linejoin="miter" d="M 6938.335755 3988.968642 C 6927.275804 4057.501616 6974.400811 4123.159081 7043.164852 4134.661119 L 7420.164907 4196.963823 C 7488.928948 4207.986609 7554.326917 4161.019955 7565.867735 4092.486981 C 7576.927686 4023.474755 7529.802679 3957.81729 7461.038638 3946.794503 L 7084.038582 3884.491799 C 7015.274542 3872.989762 6949.876573 3919.956416 6938.335755 3988.968642 Z M 6938.335755 3988.968642 " stroke="#2e1d4a" stroke-width="80" stroke-opacity="1" stroke-miterlimit="10"/><path fill="#f26d91" d="M 53.117188 17.496094 C 52.628906 17.578125 52.167969 17.242188 52.085938 16.753906 L 51.644531 14.078125 C 51.566406 13.589844 51.898438 13.125 52.386719 13.042969 C 52.871094 12.960938 53.335938 13.296875 53.417969 13.785156 L 53.855469 16.460938 C 53.9375 16.949219 53.605469 17.417969 53.117188 17.496094 " fill-opacity="1" fill-rule="nonzero"/><g clip-path="url(#159cfe125f)"><path stroke-linecap="butt" transform="matrix(0.00812334, 0, 0, -0.00815073, 24.926595, 74.735661)" fill="none" stroke-linejoin="miter" d="M 3470.319937 7022.631077 C 3410.21151 7012.566794 3353.469154 7053.782429 3343.370939 7113.688875 L 3289.03292 7441.9762 C 3279.415572 7501.882646 3320.289303 7558.913583 3380.39773 7568.977866 C 3440.02529 7579.042149 3497.248512 7537.826514 3507.346728 7477.920068 L 3561.203879 7149.632743 C 3571.302095 7089.726296 3530.428364 7032.216108 3470.319937 7022.631077 Z M 3470.319937 7022.631077 " stroke="#2e1d4a" stroke-width="80" stroke-opacity="1" stroke-miterlimit="10"/></g><path fill="#c41d3c" d="M 96.539062 19.121094 C 96.277344 18.703125 96.402344 18.144531 96.816406 17.878906 L 99.101562 16.425781 C 99.519531 16.160156 100.074219 16.285156 100.339844 16.703125 C 100.605469 17.125 100.480469 17.683594 100.0625 17.949219 L 97.777344 19.402344 C 97.363281 19.667969 96.804688 19.542969 96.539062 19.121094 " fill-opacity="1" fill-rule="nonzero"/><g clip-path="url(#86244f315f)"><path stroke-linecap="butt" transform="matrix(0.00812334, 0, 0, -0.00815073, 24.926595, 74.735661)" fill="none" stroke-linejoin="miter" d="M 8815.642154 6823.262424 C 8783.424037 6874.542342 8798.811795 6943.075316 8849.783741 6975.664423 L 9131.09118 7153.946007 C 9182.543994 7186.535113 9250.827167 7171.199063 9283.526152 7119.919145 C 9316.225136 7068.159976 9300.837379 6999.627001 9249.384565 6967.037895 L 8968.077126 6788.756311 C 8917.105179 6756.167204 8848.341139 6771.503254 8815.642154 6823.262424 Z M 8815.642154 6823.262424 " stroke="#2e1d4a" stroke-width="80" stroke-opacity="1" stroke-miterlimit="10"/></g><path fill="#f0f2f0" d="M 56.738281 56.234375 C 56.414062 56.558594 55.886719 56.558594 55.5625 56.234375 L 53.785156 54.457031 C 53.460938 54.132812 53.460938 53.601562 53.785156 53.277344 C 54.109375 52.953125 54.636719 52.949219 54.960938 53.273438 L 56.738281 55.050781 C 57.0625 55.375 57.0625 55.90625 56.738281 56.234375 " fill-opacity="1" fill-rule="nonzero"/><path stroke-linecap="butt" transform="matrix(0.00812334, 0, 0, -0.00815073, 24.926595, 74.735661)" fill="none" stroke-linejoin="miter" d="M 3916.084033 2269.893262 C 3876.172038 2230.115381 3811.254936 2230.115381 3771.342941 2269.893262 L 3552.548265 2487.952726 C 3512.63627 2527.730606 3512.63627 2592.90882 3552.548265 2632.6867 C 3592.460261 2672.46458 3657.377363 2672.943832 3697.289358 2633.165951 L 3916.084033 2415.106487 C 3955.996029 2375.328607 3955.996029 2310.150393 3916.084033 2269.893262 Z M 3916.084033 2269.893262 " stroke="#2e1d4a" stroke-width="80" stroke-opacity="1" stroke-miterlimit="10"/><path fill="#f0f2f0" d="M 65.09375 60.660156 C 64.703125 60.269531 64.703125 59.632812 65.089844 59.238281 L 67.21875 57.101562 C 67.605469 56.710938 68.242188 56.710938 68.632812 57.097656 C 69.019531 57.488281 69.023438 58.125 68.632812 58.515625 L 66.507812 60.65625 C 66.117188 61.046875 65.480469 61.046875 65.09375 60.660156 " fill-opacity="1" fill-rule="nonzero"/><path stroke-linecap="butt" transform="matrix(0.00812334, 0, 0, -0.00815073, 24.926595, 74.735661)" fill="none" stroke-linejoin="miter" d="M 4944.65944 1726.901233 C 4896.572698 1774.82639 4896.572698 1852.944396 4944.178573 1901.348805 L 5206.251316 2163.499413 C 5253.85719 2211.42457 5332.238579 2211.42457 5380.325321 2163.978665 C 5427.931195 2116.053508 5428.412063 2037.935502 5380.325321 1990.010345 L 5118.733446 1727.380485 C 5070.646704 1679.455328 4992.265315 1679.455328 4944.65944 1726.901233 Z M 4944.65944 1726.901233 " stroke="#2e1d4a" stroke-width="80" stroke-opacity="1" stroke-miterlimit="10"/><path fill="#f0f2f0" d="M 68.023438 13.585938 C 68.460938 13.257812 69.09375 13.347656 69.421875 13.789062 L 71.222656 16.210938 C 71.550781 16.652344 71.460938 17.285156 71.019531 17.617188 C 70.582031 17.945312 69.949219 17.855469 69.621094 17.410156 L 67.820312 14.992188 C 67.492188 14.546875 67.582031 13.917969 68.023438 13.585938 " fill-opacity="1" fill-rule="nonzero"/><g clip-path="url(#29a6aa23de)"><path stroke-linecap="butt" transform="matrix(0.00812334, 0, 0, -0.00815073, 24.926595, 74.735661)" fill="none" stroke-linejoin="miter" d="M 5305.310004 7502.361898 C 5359.167154 7542.61903 5437.067676 7531.596244 5477.460539 7477.440816 L 5699.140419 7180.304843 C 5739.533282 7126.149416 5728.473331 7048.510661 5674.135313 7007.774278 C 5620.278162 6967.517146 5542.377641 6978.539932 5501.984778 7033.174611 L 5280.304898 7329.831333 C 5239.912035 7384.466012 5250.971985 7461.625514 5305.310004 7502.361898 Z M 5305.310004 7502.361898 " stroke="#2e1d4a" stroke-width="80" stroke-opacity="1" stroke-miterlimit="10"/></g><path fill="#f26d91" d="M 75.5625 54.964844 C 75.074219 55.042969 74.609375 54.710938 74.53125 54.222656 L 74.089844 51.546875 C 74.011719 51.058594 74.34375 50.589844 74.832031 50.511719 C 75.316406 50.429688 75.78125 50.765625 75.863281 51.253906 L 76.300781 53.929688 C 76.382812 54.417969 76.050781 54.882812 75.5625 54.964844 " fill-opacity="1" fill-rule="nonzero"/><path stroke-linecap="butt" transform="matrix(0.00812334, 0, 0, -0.00815073, 24.926595, 74.735661)" fill="none" stroke-linejoin="miter" d="M 6233.38412 2425.650022 C 6173.275693 2416.06499 6116.05247 2456.801374 6106.435122 2516.70782 L 6052.097104 2844.995145 C 6042.479755 2904.901591 6083.353486 2962.41178 6143.461913 2971.996811 C 6203.089473 2982.061094 6260.312696 2940.845459 6270.410911 2880.939013 L 6324.268062 2552.651688 C 6334.366278 2492.745241 6293.492547 2435.714305 6233.38412 2425.650022 Z M 6233.38412 2425.650022 " stroke="#2e1d4a" stroke-width="80" stroke-opacity="1" stroke-miterlimit="10"/><path fill="#c41d3c" d="M 93.078125 37.777344 C 92.945312 38.210938 92.480469 38.460938 92.046875 38.328125 L 89.664062 37.597656 C 89.230469 37.464844 88.984375 36.996094 89.117188 36.5625 C 89.25 36.125 89.714844 35.878906 90.148438 36.011719 L 92.527344 36.742188 C 92.964844 36.875 93.210938 37.339844 93.078125 37.777344 " fill-opacity="1" fill-rule="nonzero"/><path stroke-linecap="butt" transform="matrix(0.00812334, 0, 0, -0.00815073, 24.926595, 74.735661)" fill="none" stroke-linejoin="miter" d="M 8389.593622 4534.356928 C 8373.24413 4481.160003 8316.020907 4450.487903 8262.644624 4466.782456 L 7969.315499 4556.4025 C 7915.939215 4572.697053 7885.644568 4630.207242 7901.99406 4683.404166 C 7918.343552 4737.080342 7975.566775 4767.27319 8028.943059 4750.978637 L 8321.791316 4661.358594 C 8375.648467 4645.06404 8405.943114 4588.033103 8389.593622 4534.356928 Z M 8389.593622 4534.356928 " stroke="#2e1d4a" stroke-width="80" stroke-opacity="1" stroke-miterlimit="10"/><path fill="#c41d3c" d="M 77.125 13.03125 C 76.992188 13.46875 76.527344 13.714844 76.09375 13.582031 L 73.710938 12.851562 C 73.277344 12.71875 73.03125 12.253906 73.164062 11.816406 C 73.296875 11.382812 73.761719 11.132812 74.195312 11.265625 L 76.574219 11.996094 C 77.011719 12.128906 77.257812 12.597656 77.125 13.03125 " fill-opacity="1" fill-rule="nonzero"/><g clip-path="url(#8c00716445)"><path stroke-linecap="butt" transform="matrix(0.00812334, 0, 0, -0.00815073, 24.926595, 74.735661)" fill="none" stroke-linejoin="miter" d="M 6425.731087 7570.415621 C 6409.381595 7516.739445 6352.158372 7486.546596 6298.782089 7502.841149 L 6005.452964 7592.461193 C 5952.076681 7608.755746 5921.782033 7665.786683 5938.131526 7719.462859 C 5954.481018 7772.659783 6011.704241 7803.331883 6065.080524 7787.03733 L 6357.928781 7697.417287 C 6411.785932 7681.122733 6442.08058 7623.612545 6425.731087 7570.415621 Z M 6425.731087 7570.415621 " stroke="#2e1d4a" stroke-width="80" stroke-opacity="1" stroke-miterlimit="10"/></g><path fill="#c41d3c" d="M 68.835938 52.714844 C 68.703125 53.148438 68.238281 53.398438 67.804688 53.265625 L 65.421875 52.535156 C 64.988281 52.398438 64.742188 51.933594 64.875 51.5 C 65.007812 51.0625 65.46875 50.816406 65.90625 50.949219 L 68.285156 51.679688 C 68.71875 51.8125 68.96875 52.277344 68.835938 52.714844 " fill-opacity="1" fill-rule="nonzero"/><path stroke-linecap="butt" transform="matrix(0.00812334, 0, 0, -0.00815073, 24.926595, 74.735661)" fill="none" stroke-linejoin="miter" d="M 5405.330427 2701.698926 C 5388.980934 2648.502002 5331.757712 2617.829901 5278.381428 2634.124454 L 4985.052303 2723.744498 C 4931.67602 2740.518303 4901.381373 2797.54924 4917.730865 2850.746164 C 4934.080357 2904.42234 4990.822712 2934.615189 5044.679863 2918.320635 L 5337.528121 2828.700592 C 5390.904404 2812.406038 5421.679919 2755.375102 5405.330427 2701.698926 Z M 5405.330427 2701.698926 " stroke="#2e1d4a" stroke-width="80" stroke-opacity="1" stroke-miterlimit="10"/><path fill="#c41d3c" d="M 42.957031 13.078125 C 42.824219 13.511719 42.359375 13.761719 41.925781 13.625 L 39.542969 12.894531 C 39.109375 12.761719 38.863281 12.296875 38.996094 11.863281 C 39.128906 11.425781 39.59375 11.175781 40.027344 11.3125 L 42.410156 12.042969 C 42.84375 12.175781 43.089844 12.640625 42.957031 13.078125 " fill-opacity="1" fill-rule="nonzero"/><g clip-path="url(#2b4c703592)"><path stroke-linecap="butt" transform="matrix(0.00812334, 0, 0, -0.00815073, 24.926595, 74.735661)" fill="none" stroke-linejoin="miter" d="M 2219.583783 7564.664602 C 2203.234291 7511.467678 2146.011068 7480.795577 2092.634785 7497.569382 L 1799.30566 7587.189426 C 1745.929376 7603.483979 1715.634729 7660.514916 1731.984221 7713.71184 C 1748.333714 7767.388016 1805.556936 7798.060116 1858.93322 7781.286311 L 2152.262345 7691.666268 C 2205.638628 7675.371714 2235.933275 7618.340778 2219.583783 7564.664602 Z M 2219.583783 7564.664602 " stroke="#2e1d4a" stroke-width="80" stroke-opacity="1" stroke-miterlimit="10"/></g><path fill="#c41d3c" d="M 39.9375 25.929688 C 40.355469 26.109375 40.550781 26.601562 40.375 27.019531 L 39.398438 29.316406 C 39.21875 29.738281 38.730469 29.933594 38.3125 29.753906 C 37.894531 29.574219 37.699219 29.085938 37.878906 28.667969 L 38.855469 26.367188 C 39.03125 25.949219 39.519531 25.753906 39.9375 25.929688 " fill-opacity="1" fill-rule="nonzero"/><path stroke-linecap="butt" transform="matrix(0.00812334, 0, 0, -0.00815073, 24.926595, 74.735661)" fill="none" stroke-linejoin="miter" d="M 1847.873269 5987.926938 C 1899.326083 5965.881366 1923.369454 5905.495668 1901.73042 5854.21575 L 1781.513565 5572.415827 C 1759.393664 5520.656658 1699.285237 5496.694079 1647.832423 5518.739651 C 1596.37961 5540.785224 1572.336239 5600.69167 1594.45614 5651.971588 L 1714.672994 5934.250762 C 1736.312028 5985.53068 1796.420455 6009.493259 1847.873269 5987.926938 Z M 1847.873269 5987.926938 " stroke="#2e1d4a" stroke-width="80" stroke-opacity="1" stroke-miterlimit="10"/><path fill="#c41d3c" d="M 90.285156 47.105469 C 89.828125 47.109375 89.457031 46.734375 89.457031 46.28125 L 89.453125 43.78125 C 89.453125 43.324219 89.824219 42.953125 90.277344 42.953125 C 90.734375 42.949219 91.105469 43.324219 91.105469 43.78125 L 91.109375 46.277344 C 91.109375 46.734375 90.738281 47.105469 90.285156 47.105469 " fill-opacity="1" fill-rule="nonzero"/><path stroke-linecap="butt" transform="matrix(0.00812334, 0, 0, -0.00815073, 24.926595, 74.735661)" fill="none" stroke-linejoin="miter" d="M 8045.773418 3389.90418 C 7989.51193 3389.424928 7943.829526 3435.433079 7943.829526 3491.026261 L 7943.348658 3797.747265 C 7943.348658 3853.819699 7989.031063 3899.348598 8044.811683 3899.348598 C 8101.073171 3899.82785 8146.755576 3853.819699 8146.755576 3797.747265 L 8147.236443 3491.505512 C 8147.236443 3435.433079 8101.554039 3389.90418 8045.773418 3389.90418 Z M 8045.773418 3389.90418 " stroke="#2e1d4a" stroke-width="80" stroke-opacity="1" stroke-miterlimit="10"/><g fill="#000000" fill-opacity="1"><g transform="translate(47.87451, 94.575575)"><g><path d="M 2.753906 0.5 C 6.644531 0.5 8.871094 -4.421875 9.59375 -8.007812 L 9.59375 -8.0625 C 10.179688 -8.09375 10.679688 -8.121094 11.066406 -8.148438 C 11.457031 -8.175781 11.707031 -8.203125 11.820312 -8.230469 L 11.984375 -8.316406 C 12.011719 -8.34375 12.070312 -8.480469 11.984375 -8.507812 C 11.902344 -8.539062 11.847656 -8.566406 11.820312 -8.566406 C 11.761719 -8.59375 11.679688 -8.59375 11.566406 -8.59375 C 11.375 -8.59375 11.179688 -8.539062 10.984375 -8.507812 C 10.902344 -8.480469 10.761719 -8.480469 10.539062 -8.480469 C 10.289062 -8.453125 10.011719 -8.425781 9.675781 -8.398438 C 9.816406 -9.289062 9.957031 -10.207031 10.066406 -11.125 L 10.234375 -13.460938 C 10.261719 -13.988281 10.179688 -14.515625 10.09375 -15.042969 C 10.039062 -15.324219 9.925781 -15.628906 9.789062 -15.960938 C 9.539062 -16.40625 9.175781 -16.710938 8.730469 -16.878906 C 8.648438 -16.90625 8.539062 -16.933594 8.398438 -16.933594 C 8.257812 -16.933594 8.121094 -16.90625 7.980469 -16.824219 C 7.84375 -16.769531 7.757812 -16.683594 7.675781 -16.574219 C 7.148438 -16.128906 6.644531 -15.292969 6.339844 -14.65625 C 5.117188 -12.292969 4.339844 -9.761719 3.558594 -7.203125 L 2.78125 -6.867188 C 2.917969 -7.785156 3.085938 -8.703125 3.226562 -9.621094 C 3.363281 -10.511719 3.503906 -11.429688 3.671875 -12.347656 C 3.726562 -12.625 3.78125 -12.902344 3.808594 -13.179688 C 3.835938 -13.460938 3.867188 -13.738281 3.894531 -14.015625 C 3.976562 -14.347656 3.894531 -14.683594 3.808594 -14.988281 C 3.753906 -15.128906 3.644531 -15.238281 3.476562 -15.292969 C 3.335938 -15.324219 3.253906 -15.292969 3.226562 -15.15625 L 3.140625 -14.792969 C 3.03125 -14.125 2.890625 -13.460938 2.699219 -12.820312 C 2.585938 -12.375 2.503906 -11.957031 2.417969 -11.539062 C 2.253906 -10.59375 1.75 -7.480469 1.558594 -6.171875 C 0.640625 -5.535156 -0.0273438 -4.726562 -0.332031 -3.644531 C -0.582031 -2.640625 -0.277344 -1.613281 0.195312 -0.917969 C 0.777344 0.0273438 1.640625 0.5 2.753906 0.5 Z M 2.640625 0.0546875 C 2.195312 0.0546875 1.78125 -0.140625 1.363281 -0.5 C 0.613281 -1.25 0.0820312 -2.417969 0.390625 -3.558594 C 0.582031 -4.253906 0.917969 -4.839844 1.445312 -5.367188 C 1.417969 -5.035156 1.363281 -4.699219 1.335938 -4.449219 C 1.308594 -4.199219 1.308594 -3.976562 1.308594 -3.753906 C 1.308594 -3.503906 1.335938 -3.253906 1.363281 -3.003906 C 1.363281 -2.699219 1.472656 -2.335938 1.835938 -2.253906 C 1.917969 -2.226562 2.003906 -2.226562 2.140625 -2.226562 L 2.28125 -2.226562 C 2.699219 -2.226562 2.890625 -2.890625 3.003906 -3.226562 C 3.085938 -3.53125 3.199219 -3.867188 3.28125 -4.171875 C 3.363281 -4.476562 3.476562 -4.78125 3.558594 -5.089844 C 3.671875 -5.507812 3.78125 -5.867188 3.921875 -6.285156 L 4.144531 -6.980469 C 5.476562 -7.453125 6.953125 -7.730469 8.257812 -7.925781 C 7.730469 -5.253906 5.980469 -0.917969 3.28125 -0.0546875 C 3.085938 0.0273438 2.863281 0.0546875 2.640625 0.0546875 Z M 2.558594 -4.476562 L 2.53125 -4.503906 C 2.53125 -4.53125 2.53125 -4.5625 2.53125 -4.589844 C 2.503906 -4.589844 2.503906 -4.617188 2.503906 -4.644531 L 2.503906 -4.949219 C 2.53125 -5.089844 2.558594 -5.285156 2.585938 -5.507812 C 2.613281 -5.699219 2.640625 -5.921875 2.667969 -6.117188 C 2.667969 -6.144531 2.667969 -6.203125 2.699219 -6.230469 C 2.699219 -6.257812 2.699219 -6.285156 2.699219 -6.3125 C 2.808594 -6.367188 2.917969 -6.421875 3.03125 -6.507812 C 3.140625 -6.5625 3.253906 -6.617188 3.394531 -6.675781 L 3.058594 -5.589844 C 2.949219 -5.226562 2.863281 -4.867188 2.667969 -4.503906 C 2.667969 -4.476562 2.640625 -4.476562 2.558594 -4.476562 Z M 4.28125 -7.453125 C 4.867188 -9.566406 6.144531 -13.625 7.535156 -15.378906 C 7.730469 -15.683594 7.980469 -15.960938 8.285156 -16.183594 C 8.316406 -16.210938 8.371094 -16.238281 8.398438 -16.269531 C 8.425781 -16.269531 8.480469 -16.296875 8.507812 -16.324219 C 8.539062 -16.351562 8.566406 -16.351562 8.621094 -16.351562 C 8.703125 -16.351562 8.757812 -16.324219 8.789062 -16.269531 C 8.871094 -16.128906 8.898438 -16.019531 8.925781 -15.960938 C 8.953125 -15.765625 9.011719 -15.601562 9.039062 -15.433594 C 9.066406 -15.238281 9.09375 -15.042969 9.09375 -14.851562 L 9.09375 -14.210938 C 9.121094 -13.792969 9.09375 -13.375 9.066406 -13.015625 C 9.011719 -12.625 8.953125 -12.234375 8.925781 -11.847656 C 8.789062 -10.652344 8.648438 -9.453125 8.34375 -8.257812 C 7.117188 -8.121094 5.699219 -7.871094 4.28125 -7.453125 Z M 4.28125 -7.453125 "/></g></g></g><g fill="#000000" fill-opacity="1"><g transform="translate(58.496787, 94.575575)"><g><path d="M 2.417969 -2.753906 C 3.003906 -2.753906 3.394531 -2.78125 3.726562 -3.308594 C 3.808594 -3.394531 3.835938 -3.449219 3.867188 -3.53125 C 4.199219 -4.171875 4.339844 -4.894531 4.308594 -5.671875 C 4.253906 -6.3125 4.058594 -6.867188 3.726562 -7.398438 C 3.585938 -7.589844 3.476562 -7.757812 3.363281 -7.953125 C 3.308594 -8.0625 3.335938 -8.148438 3.449219 -8.203125 C 3.808594 -8.230469 4.171875 -8.257812 4.644531 -8.257812 C 4.949219 -8.257812 5.285156 -8.257812 5.671875 -8.257812 C 6.035156 -8.230469 6.480469 -8.230469 6.980469 -8.230469 C 7.117188 -8.257812 7.148438 -8.34375 7.0625 -8.480469 C 6.980469 -8.59375 6.8125 -8.675781 6.617188 -8.730469 C 6.0625 -8.757812 5.449219 -8.789062 4.894531 -8.789062 C 4.308594 -8.789062 3.78125 -8.757812 3.335938 -8.730469 C 2.863281 -8.675781 2.613281 -8.59375 2.585938 -8.507812 C 2.445312 -8.480469 2.390625 -8.316406 2.476562 -8.203125 C 2.613281 -7.953125 2.78125 -7.703125 2.917969 -7.480469 C 3.503906 -6.5625 3.585938 -5.617188 3.28125 -4.589844 C 3.253906 -4.449219 3.199219 -4.339844 3.140625 -4.226562 C 3.058594 -4.117188 3.003906 -4.003906 2.949219 -3.894531 C 2.808594 -3.671875 2.667969 -3.503906 2.503906 -3.421875 C 2.417969 -3.363281 2.363281 -3.335938 2.28125 -3.335938 C 2.195312 -3.335938 2.113281 -3.363281 2.03125 -3.449219 C 1.863281 -3.585938 1.722656 -3.753906 1.585938 -4.003906 C 1.335938 -4.449219 1.25 -4.949219 1.277344 -5.507812 C 1.363281 -7.257812 1.890625 -9.011719 3.226562 -10.207031 C 3.308594 -10.289062 3.28125 -10.398438 3.199219 -10.429688 C 3.199219 -10.457031 3.171875 -10.457031 3.140625 -10.457031 C 3.003906 -10.511719 2.863281 -10.539062 2.699219 -10.539062 C 2.445312 -10.539062 2.226562 -10.457031 2.03125 -10.289062 C 0.804688 -9.34375 0.109375 -7.230469 0.0273438 -5.699219 L 0.0273438 -5.421875 C 0.0273438 -5.394531 0.0273438 -5.339844 0.0546875 -5.3125 C 0.0546875 -5.253906 0.0546875 -5.199219 0.0546875 -5.171875 C 0.195312 -4.03125 0.804688 -3.28125 1.835938 -2.890625 C 1.917969 -2.863281 2.03125 -2.835938 2.140625 -2.808594 C 2.226562 -2.78125 2.335938 -2.78125 2.417969 -2.753906 Z M 2.417969 -2.753906 "/></g></g></g><g fill="#000000" fill-opacity="1"><g transform="translate(64.19722, 94.575575)"><g><path d="M 3.894531 -1.5 C 4.085938 -1.5 4.28125 -1.558594 4.449219 -1.640625 C 4.644531 -1.78125 4.839844 -1.945312 4.976562 -2.140625 L 5.476562 -2.890625 C 5.839844 -3.53125 6.230469 -4.171875 6.589844 -4.8125 C 6.953125 -5.421875 7.3125 -6.0625 7.675781 -6.703125 C 7.8125 -6.953125 7.953125 -7.203125 8.0625 -7.453125 C 8.175781 -7.703125 8.285156 -7.980469 8.425781 -8.230469 C 8.507812 -8.371094 8.425781 -8.480469 8.230469 -8.507812 C 8.203125 -8.539062 8.148438 -8.539062 8.09375 -8.539062 C 7.980469 -8.539062 7.898438 -8.480469 7.84375 -8.398438 L 7.5625 -7.871094 C 6.703125 -6.203125 5.757812 -4.617188 4.671875 -3.058594 C 4.5625 -2.917969 4.449219 -2.78125 4.308594 -2.667969 C 4.308594 -2.640625 4.28125 -2.640625 4.199219 -2.640625 C 4.199219 -2.667969 4.199219 -2.667969 4.171875 -2.699219 C 4.085938 -2.917969 4.171875 -3.140625 4.199219 -3.363281 C 4.421875 -4.476562 4.671875 -5.5625 4.976562 -6.675781 L 5.644531 -9.261719 C 5.699219 -9.539062 5.730469 -9.816406 5.730469 -10.09375 C 5.699219 -10.34375 5.589844 -10.511719 5.421875 -10.59375 L 5.253906 -10.679688 C 5.199219 -10.707031 5.117188 -10.734375 5.003906 -10.734375 C 4.644531 -10.734375 4.085938 -9.898438 3.921875 -9.566406 L 2.585938 -7.089844 C 2.226562 -6.453125 1.808594 -5.839844 1.390625 -5.199219 C 1.363281 -5.171875 1.335938 -5.144531 1.25 -5.117188 C 1.167969 -5.089844 1.140625 -5.144531 1.140625 -5.3125 C 1.140625 -5.449219 1.140625 -5.5625 1.167969 -5.644531 C 1.25 -6.007812 1.308594 -6.394531 1.390625 -6.785156 C 1.445312 -7.175781 1.53125 -7.5625 1.613281 -7.953125 C 1.640625 -8.148438 1.695312 -8.34375 1.75 -8.539062 C 1.78125 -8.703125 1.835938 -8.898438 1.863281 -9.09375 C 1.890625 -9.261719 1.808594 -9.371094 1.667969 -9.453125 L 1.5 -9.539062 L 1.445312 -9.539062 C 1.25 -9.539062 1.140625 -9.398438 1.058594 -9.203125 L 0.804688 -8.539062 C 0.390625 -7.285156 0.167969 -6.007812 0.0546875 -4.699219 C 0 -4.28125 0.167969 -4.003906 0.527344 -3.835938 L 0.640625 -3.808594 C 0.777344 -3.753906 0.917969 -3.726562 1 -3.726562 C 1.222656 -3.726562 1.390625 -3.808594 1.53125 -4.003906 C 1.667969 -4.144531 1.78125 -4.28125 1.863281 -4.476562 C 2.308594 -5.226562 2.753906 -6.007812 3.171875 -6.757812 L 4.308594 -8.816406 C 4.339844 -8.898438 4.394531 -8.953125 4.421875 -8.980469 L 4.53125 -8.980469 C 4.53125 -8.980469 4.53125 -8.953125 4.5625 -8.925781 L 4.394531 -8.316406 C 4.03125 -7.175781 3.671875 -6.0625 3.363281 -4.867188 C 3.113281 -3.894531 3.003906 -3.140625 3.003906 -2.167969 C 3.03125 -1.972656 3.113281 -1.863281 3.253906 -1.78125 C 3.449219 -1.613281 3.644531 -1.53125 3.894531 -1.5 Z M 3.894531 -1.5 "/></g></g></g><g fill="#000000" fill-opacity="1"><g transform="translate(71.260199, 94.575575)"><g><path d="M 4.03125 -3.199219 C 4.339844 -3.199219 4.589844 -3.335938 4.726562 -3.585938 C 4.839844 -3.726562 4.921875 -3.835938 4.949219 -3.921875 C 5.644531 -5.226562 6.339844 -6.421875 7.089844 -7.730469 L 7.3125 -8.203125 C 7.398438 -8.398438 7.3125 -8.507812 7.117188 -8.539062 C 6.925781 -8.539062 6.8125 -8.480469 6.730469 -8.34375 C 6.035156 -7.089844 5.339844 -5.867188 4.589844 -4.671875 L 4.394531 -4.421875 C 4.367188 -4.421875 4.367188 -4.421875 4.339844 -4.394531 C 4.253906 -4.421875 4.226562 -4.449219 4.226562 -4.476562 L 4.226562 -4.867188 L 4.394531 -6.230469 C 4.476562 -6.8125 4.53125 -7.398438 4.617188 -7.925781 C 4.617188 -8.035156 4.617188 -8.148438 4.617188 -8.230469 C 4.617188 -8.316406 4.617188 -8.425781 4.589844 -8.507812 C 4.589844 -8.621094 4.53125 -8.703125 4.394531 -8.757812 C 4.253906 -8.84375 4.144531 -8.871094 4.058594 -8.871094 C 3.894531 -8.871094 3.753906 -8.789062 3.613281 -8.59375 C 3.53125 -8.453125 3.421875 -8.316406 3.335938 -8.148438 L 2.667969 -6.953125 C 2.445312 -6.507812 1.695312 -5.003906 1.277344 -4.753906 C 1.277344 -4.753906 1.25 -4.753906 1.222656 -4.753906 L 1.195312 -4.78125 C 1.167969 -4.921875 1.140625 -5.003906 1.167969 -5.0625 C 1.195312 -5.3125 1.25 -5.535156 1.277344 -5.785156 C 1.308594 -6.035156 1.363281 -6.285156 1.390625 -6.535156 C 1.445312 -6.839844 1.5 -7.175781 1.585938 -7.507812 C 1.667969 -7.8125 1.722656 -8.148438 1.78125 -8.453125 C 1.808594 -8.539062 1.835938 -8.648438 1.835938 -8.757812 C 1.835938 -8.84375 1.835938 -8.953125 1.863281 -9.039062 C 1.863281 -9.175781 1.78125 -9.289062 1.640625 -9.34375 L 1.472656 -9.425781 C 1.277344 -9.425781 1.113281 -9.453125 1 -9.261719 L 0.75 -8.730469 C 0.277344 -7.425781 0.0273438 -6.203125 -0.167969 -4.839844 C -0.195312 -4.476562 -0.195312 -4.199219 -0.109375 -3.949219 C -0.0273438 -3.726562 0.109375 -3.585938 0.25 -3.503906 C 0.417969 -3.394531 0.613281 -3.335938 0.804688 -3.335938 C 1.027344 -3.335938 1.195312 -3.421875 1.335938 -3.558594 L 1.640625 -3.976562 L 2.476562 -5.3125 C 2.558594 -5.449219 2.640625 -5.617188 2.753906 -5.757812 C 2.78125 -5.8125 2.835938 -5.867188 2.863281 -5.949219 C 2.890625 -6.007812 2.917969 -6.035156 3.003906 -6.007812 C 3.03125 -5.980469 3.058594 -5.949219 3.058594 -5.894531 C 3.058594 -5.8125 3.058594 -5.757812 3.03125 -5.699219 L 3.003906 -5.507812 C 2.976562 -5.3125 2.949219 -5.144531 2.949219 -4.976562 C 2.949219 -4.78125 2.949219 -4.589844 2.949219 -4.394531 C 2.949219 -4.199219 3.003906 -4.003906 3.085938 -3.753906 C 3.28125 -3.394531 3.613281 -3.199219 4.03125 -3.199219 Z M 4.03125 -3.199219 "/></g></g></g><g fill="#000000" fill-opacity="1"><g transform="translate(77.210906, 94.575575)"><g><path d="M 0.0546875 0.945312 C 0.527344 0.945312 0.835938 0.890625 1.140625 0.472656 L 1.308594 0.277344 C 1.835938 -0.472656 2.335938 -1.195312 2.753906 -1.972656 C 2.890625 -2.28125 3.03125 -2.53125 3.226562 -2.835938 L 4.144531 -4.421875 C 4.449219 -5.003906 4.78125 -5.5625 5.089844 -6.144531 C 5.394531 -6.703125 5.730469 -7.285156 6.035156 -7.871094 C 6.089844 -7.953125 6.144531 -8.0625 6.230469 -8.203125 C 6.257812 -8.34375 6.230469 -8.425781 6.117188 -8.480469 C 6.035156 -8.539062 5.980469 -8.566406 5.894531 -8.566406 C 5.839844 -8.566406 5.785156 -8.539062 5.757812 -8.507812 L 5.5625 -8.257812 L 4.644531 -6.589844 C 4.421875 -6.230469 4.226562 -5.867188 4.003906 -5.449219 C 3.585938 -4.753906 3.199219 -4.03125 2.808594 -3.335938 C 2.390625 -2.613281 1.972656 -1.890625 1.558594 -1.195312 C 1.335938 -0.835938 1.058594 -0.472656 0.804688 -0.140625 C 0.777344 -0.0820312 0.722656 -0.0273438 0.695312 0.0546875 C 0.667969 0.109375 0.613281 0.140625 0.527344 0.109375 C 0.445312 0.0820312 0.390625 0.0273438 0.390625 -0.0546875 C 0.363281 -0.140625 0.363281 -0.195312 0.332031 -0.277344 C 0.332031 -2.917969 1.027344 -5.476562 1.78125 -7.953125 C 1.863281 -8.121094 2.808594 -11.207031 2.949219 -11.347656 C 3.003906 -11.429688 3.058594 -11.484375 3.140625 -11.539062 C 3.671875 -11.820312 6.480469 -12.234375 7.175781 -12.320312 C 7.84375 -12.402344 8.566406 -12.484375 9.203125 -12.707031 C 9.261719 -12.734375 9.316406 -12.792969 9.34375 -12.875 C 9.398438 -13.015625 9.371094 -13.179688 9.230469 -13.347656 C 9.175781 -13.402344 9.121094 -13.429688 9.039062 -13.429688 L 7.5625 -13.152344 C 7.203125 -13.097656 6.867188 -13.042969 6.507812 -12.988281 C 6.144531 -12.929688 5.8125 -12.875 5.449219 -12.792969 C 5.144531 -12.765625 4.867188 -12.707031 4.589844 -12.652344 C 4.28125 -12.570312 4.003906 -12.515625 3.726562 -12.484375 C 3.671875 -12.457031 3.613281 -12.457031 3.53125 -12.457031 C 3.476562 -12.515625 3.449219 -12.542969 3.449219 -12.570312 C 3.449219 -12.625 3.476562 -12.734375 3.503906 -12.875 C 3.613281 -13.179688 3.726562 -13.515625 3.835938 -13.820312 C 3.921875 -14.125 4.03125 -14.433594 4.144531 -14.738281 C 4.171875 -14.878906 4.199219 -15.015625 4.199219 -15.128906 C 4.226562 -15.183594 4.199219 -15.238281 4.144531 -15.292969 C 4.058594 -15.433594 3.921875 -15.515625 3.78125 -15.515625 C 3.421875 -15.515625 3.171875 -14.710938 2.976562 -14.433594 C 2.667969 -13.847656 2.417969 -13.292969 2.167969 -12.652344 C 1.808594 -11.957031 1.972656 -12.125 1.222656 -11.902344 C 1.195312 -11.875 1.167969 -11.875 1.113281 -11.875 C 0.75 -11.789062 0.417969 -11.679688 0.0820312 -11.597656 C -0.25 -11.511719 -0.582031 -11.402344 -0.917969 -11.316406 C -0.972656 -11.289062 -1.027344 -11.289062 -1.085938 -11.261719 C -1.140625 -11.234375 -1.195312 -11.179688 -1.277344 -11.152344 C -1.308594 -11.125 -1.308594 -11.09375 -1.308594 -11.039062 C -1.277344 -10.902344 -1.140625 -10.734375 -1.027344 -10.734375 C -0.945312 -10.707031 -0.890625 -10.707031 -0.835938 -10.707031 C -0.75 -10.707031 -0.695312 -10.707031 -0.640625 -10.707031 C -0.445312 -10.734375 -0.277344 -10.789062 -0.109375 -10.816406 C 0.0546875 -10.84375 0.222656 -10.902344 0.390625 -10.929688 C 0.527344 -10.957031 0.667969 -11.011719 0.804688 -11.039062 C 0.945312 -11.066406 1.085938 -11.09375 1.222656 -11.125 L 1.277344 -11.125 C 1.472656 -11.125 1.558594 -11.039062 1.472656 -10.875 C 1.445312 -10.734375 1.390625 -10.59375 1.335938 -10.457031 C 1.277344 -10.316406 1.222656 -10.207031 1.195312 -10.066406 C 0.167969 -7.0625 -0.527344 -4.117188 -0.835938 -0.972656 C -0.835938 -0.613281 -0.804688 -0.277344 -0.722656 0.0820312 C -0.613281 0.5 -0.417969 0.863281 0.0546875 0.945312 Z M 0.0546875 0.945312 "/></g></g></g></svg>