<svg xmlns="http://www.w3.org/2000/svg" xmlns:xlink="http://www.w3.org/1999/xlink" width="170" zoomAndPan="magnify" viewBox="0 0 127.5 115.499997" height="154" preserveAspectRatio="xMidYMid meet" version="1.0"><defs><g/><clipPath id="8181744674"><path d="M 23.519531 11.445312 L 103.425781 11.445312 L 103.425781 83.882812 L 23.519531 83.882812 Z M 23.519531 11.445312 " clip-rule="nonzero"/></clipPath></defs><g clip-path="url(#8181744674)"><path fill="#ffffff" d="M 73.128906 83.847656 C 72.015625 83.785156 70.859375 83.757812 69.742188 83.742188 C 68.023438 83.707031 66.242188 83.671875 64.453125 83.496094 L 63.117188 83.382812 C 58.773438 83.019531 54.667969 82.660156 50.523438 81.878906 C 49.65625 81.703125 48.820312 81.546875 47.988281 81.390625 C 46.214844 81.058594 44.390625 80.710938 42.574219 80.234375 C 42.011719 80.085938 41.421875 79.960938 40.84375 79.839844 C 39.6875 79.597656 38.492188 79.34375 37.289062 78.890625 C 36.042969 78.472656 34.894531 77.984375 33.78125 77.515625 C 33.78125 77.515625 33.042969 77.203125 33.015625 77.195312 C 32.65625 77.027344 32.296875 76.855469 31.945312 76.679688 C 31.15625 76.296875 30.410156 75.929688 29.664062 75.6875 C 29.332031 75.574219 29.03125 75.390625 28.796875 75.15625 C 26.890625 74.417969 25.460938 73.703125 24.679688 73.058594 C 23.519531 72.109375 23.808594 70.882812 24.242188 69.84375 C 24.25 69.714844 24.257812 69.585938 24.285156 69.453125 C 24.308594 69.324219 24.34375 69.191406 24.398438 69.070312 C 24.582031 68.609375 24.8125 68.21875 25.011719 67.878906 C 25.101562 67.730469 25.1875 67.574219 25.265625 67.425781 C 25.292969 67.382812 25.3125 67.335938 25.335938 67.292969 C 25.566406 66.910156 25.785156 66.519531 26.003906 66.117188 C 28.015625 61.894531 29.734375 57.726562 31.261719 53.371094 C 32.570312 48.886719 33.488281 44.117188 34.316406 39.894531 C 34.613281 38.285156 35.035156 36.707031 35.445312 35.175781 C 35.71875 34.164062 35.980469 33.207031 36.203125 32.222656 L 36.226562 32.101562 C 36.9375 28.695312 37.667969 25.179688 38.007812 21.828125 C 38.035156 21.375 38.195312 20.9375 38.464844 20.582031 C 38.589844 19.371094 38.695312 18.292969 38.773438 17.257812 C 38.816406 16.714844 39.0625 16.210938 39.457031 15.847656 C 39.570312 15.347656 39.710938 14.886719 39.835938 14.445312 C 39.894531 14.253906 39.949219 14.050781 40 13.871094 C 40.292969 12.773438 41.28125 12.007812 42.433594 12.007812 C 43.265625 12.007812 44.046875 12.398438 44.53125 13.058594 C 44.660156 13.242188 44.765625 13.425781 44.835938 13.625 C 44.847656 13.609375 44.863281 13.597656 44.871094 13.582031 C 45.679688 12.449219 46.882812 11.78125 48.109375 11.78125 C 49.171875 11.78125 50.101562 12.265625 50.726562 13.085938 C 51.191406 12.492188 51.867188 11.894531 52.839844 11.597656 C 52.910156 11.570312 52.988281 11.554688 53.070312 11.535156 C 53.324219 11.484375 53.585938 11.457031 53.839844 11.457031 C 55.296875 11.457031 56.519531 12.292969 57.148438 13.589844 C 57.535156 12.964844 58.078125 12.355469 58.859375 11.929688 C 59.371094 11.648438 59.933594 11.511719 60.503906 11.511719 C 61.785156 11.511719 62.984375 12.207031 63.625 13.328125 C 63.644531 13.355469 63.660156 13.382812 63.671875 13.417969 C 63.800781 13.679688 63.914062 13.9375 63.996094 14.199219 C 64.785156 13.425781 65.769531 12.988281 66.777344 12.988281 C 67.609375 12.988281 68.402344 13.285156 69.066406 13.84375 C 69.496094 14.183594 69.804688 14.566406 70.023438 14.964844 C 70.207031 14.695312 70.402344 14.453125 70.621094 14.226562 C 71.429688 13.390625 72.417969 12.957031 73.492188 12.957031 C 74.246094 12.957031 74.992188 13.171875 75.703125 13.609375 C 75.789062 13.660156 75.878906 13.722656 75.964844 13.792969 C 76.4375 14.175781 76.773438 14.609375 77.007812 15.070312 C 77.648438 14.496094 78.476562 14.175781 79.371094 14.175781 C 80.511719 14.175781 81.617188 14.707031 82.335938 15.566406 C 83.136719 14.695312 84.292969 14.164062 85.496094 14.164062 C 86.445312 14.164062 87.347656 14.503906 88.03125 15.125 C 88.058594 15.140625 88.074219 15.167969 88.101562 15.183594 C 88.199219 15.28125 88.296875 15.382812 88.382812 15.488281 C 88.855469 15.289062 89.367188 15.175781 89.917969 15.175781 C 90.164062 15.175781 90.410156 15.203125 90.65625 15.246094 C 92.035156 15.550781 92.992188 16.558594 93.339844 18.039062 C 93.464844 18.511719 93.527344 18.996094 93.535156 19.503906 C 93.621094 19.519531 93.71875 19.539062 93.804688 19.574219 C 94.050781 19.574219 94.296875 19.605469 94.535156 19.6875 C 95.761719 20.035156 96.570312 21.3125 96.316406 22.59375 C 96.289062 22.714844 96.253906 22.847656 96.210938 22.960938 C 96.0625 23.351562 95.867188 23.726562 95.640625 24.082031 C 95.710938 24.464844 95.78125 24.882812 95.859375 25.308594 C 96.054688 25.816406 96.148438 26.292969 96.230469 26.703125 C 96.265625 26.886719 96.296875 27.078125 96.351562 27.25 C 96.359375 27.285156 96.367188 27.320312 96.378906 27.355469 C 96.789062 29.019531 97.148438 30.699219 97.5 32.328125 C 97.835938 33.886719 98.1875 35.496094 98.570312 37.054688 C 98.582031 37.082031 98.582031 37.109375 98.589844 37.125 C 100.046875 44.082031 100.714844 50.480469 101.425781 57.253906 C 101.625 59.164062 101.828125 61.09375 102.046875 63.070312 C 102.238281 65.25 102.425781 66.808594 102.835938 68.941406 C 102.84375 68.992188 102.855469 69.054688 102.863281 69.105469 C 102.925781 69.601562 102.996094 70.046875 103.066406 70.480469 C 103.242188 71.585938 103.425781 72.734375 103.335938 74.257812 C 103.328125 74.496094 103.292969 75.164062 102.90625 75.828125 C 102.84375 75.929688 102.777344 76.035156 102.707031 76.132812 C 102.308594 77.140625 101.460938 77.566406 101.082031 77.761719 L 100.984375 77.8125 C 100.914062 77.863281 100.90625 77.863281 100.828125 77.90625 C 99.617188 78.570312 98.394531 79.1875 97.203125 79.746094 C 94.640625 80.957031 91.523438 81.921875 88.796875 82.730469 C 88.460938 82.871094 88.101562 82.941406 87.75 82.941406 C 87.136719 82.941406 86.558594 82.730469 86.101562 82.375 C 85.882812 82.539062 85.644531 82.679688 85.382812 82.765625 C 85.347656 82.785156 85.300781 82.792969 85.265625 82.800781 C 84.863281 82.914062 84.523438 82.921875 84.292969 82.933594 L 84.195312 82.933594 C 84.144531 82.941406 84.152344 82.941406 84.101562 82.949219 C 83.75 82.984375 83.277344 83.0625 82.757812 83.140625 C 82.152344 83.238281 81.503906 83.339844 80.941406 83.402344 L 80.292969 83.460938 C 78.195312 83.65625 76.019531 83.855469 73.832031 83.855469 C 73.628906 83.855469 73.15625 83.855469 73.128906 83.847656 Z M 73.128906 83.847656 " fill-opacity="1" fill-rule="nonzero"/></g><path fill="#ffe6e6" d="M 93.191406 21.652344 C 89.890625 34.070312 87.75 47.339844 84.453125 59.753906 C 82.574219 66.832031 79.710938 80.539062 82.6875 80.234375 C 96.308594 78.847656 100.300781 73.886719 100.597656 73.441406 C 101.054688 72.753906 100.722656 71.875 100.632812 71.0625 C 99.175781 57.734375 97.492188 45.5625 94.9375 32.136719 C 94.097656 27.695312 92.886719 21.539062 93.191406 21.652344 Z M 93.191406 21.652344 " fill-opacity="1" fill-rule="nonzero"/><path fill="#fff5f5" d="M 93.191406 21.652344 C 88.066406 21.652344 83.082031 21.339844 77.976562 20.964844 C 72.71875 20.574219 67.46875 20.191406 62.214844 19.796875 C 55.113281 19.277344 47.988281 18.746094 40.992188 17.449219 C 38.238281 51.71875 25.476562 70.898438 26.09375 71.402344 C 30.4375 74.957031 66.003906 83.871094 83.53125 80.066406 C 84.371094 79.882812 88.714844 73.511719 93.191406 21.652344 Z M 93.191406 21.652344 " fill-opacity="1" fill-rule="nonzero"/><path fill="#441d66" d="M 93.929688 21.765625 C 93.691406 21.695312 93.5 21.886719 93.421875 22.089844 C 93.234375 22.394531 93.070312 22.699219 92.816406 22.949219 C 91.953125 23.855469 91.164062 24.257812 90.164062 24.246094 C 89.855469 24.230469 89.621094 24.132812 89.402344 23.976562 C 89.789062 23.671875 90.128906 23.300781 90.375 22.847656 C 91.128906 21.574219 91.621094 20.007812 91.242188 18.535156 C 91.121094 18.023438 90.839844 17.5 90.277344 17.378906 C 88.777344 17.089844 87.671875 18.832031 87.410156 20.09375 C 87.066406 21.425781 87.320312 22.847656 88.003906 23.828125 C 87.796875 23.910156 87.566406 23.96875 87.320312 24.011719 C 86.566406 24.230469 85.398438 24.101562 84.625 23.515625 C 85.511719 22.882812 86.214844 22.019531 86.574219 20.949219 C 86.890625 20.136719 87.09375 19.269531 87.128906 18.398438 C 87.15625 17.8125 87.050781 17.152344 86.617188 16.714844 C 85.792969 15.976562 84.425781 16.359375 83.847656 17.222656 C 82.792969 18.546875 82.625 20.390625 82.855469 22.011719 C 82.925781 22.496094 83.089844 22.941406 83.335938 23.332031 C 81.730469 24.074219 79.878906 24.117188 78.824219 22.785156 C 79.738281 22.070312 80.433594 21.078125 80.765625 19.921875 C 80.921875 19.40625 80.957031 18.953125 81.019531 18.433594 C 81.039062 18.003906 81.097656 17.542969 80.871094 17.160156 C 80.363281 16.246094 78.914062 15.976562 78.316406 16.953125 C 77.316406 18.625 77.105469 20.792969 77.71875 22.644531 C 76.527344 23.273438 75.421875 23.300781 74.070312 23.152344 C 73.4375 23.152344 72.886719 22.890625 72.464844 22.464844 C 73.550781 21.863281 74.429688 20.964844 74.878906 19.71875 C 75.296875 18.449219 75.867188 16.445312 74.65625 15.453125 C 71.542969 13.582031 70.128906 20.015625 71.183594 21.992188 C 71.253906 22.125 71.324219 22.246094 71.402344 22.367188 C 70.636719 22.679688 69.804688 22.847656 68.980469 22.828125 C 67.679688 22.800781 66.375 22.566406 65.636719 21.75 C 66.75 21.148438 67.628906 20.136719 68.03125 18.929688 C 68.332031 17.832031 68.785156 16.332031 67.742188 15.496094 C 66.847656 14.75 65.835938 15.339844 65.257812 16.160156 C 64.503906 17.132812 64.328125 18.414062 64.292969 19.605469 C 64.3125 20.320312 64.441406 20.957031 64.707031 21.488281 C 64.125 21.644531 63.554688 21.714844 63.089844 21.757812 C 61.667969 21.84375 60.476562 21.609375 59.695312 20.625 C 60.28125 20.136719 60.78125 19.546875 61.203125 18.929688 C 62.054688 17.640625 62.53125 15.828125 61.792969 14.390625 C 61.441406 13.78125 60.632812 13.46875 59.992188 13.816406 C 59.035156 14.339844 58.667969 15.507812 58.429688 16.5 C 58.089844 17.789062 58.078125 19.257812 58.695312 20.453125 C 58.535156 20.554688 58.378906 20.660156 58.210938 20.746094 C 57.265625 21.277344 55.832031 21.242188 54.804688 20.886719 C 54.445312 20.746094 53.945312 20.46875 53.550781 20.09375 C 53.972656 19.6875 54.332031 19.214844 54.597656 18.675781 C 55.042969 17.710938 55.464844 16.683594 55.492188 15.601562 C 55.472656 14.503906 54.816406 13.40625 53.558594 13.660156 C 52.734375 13.914062 52.269531 14.6875 51.953125 15.4375 C 51.585938 16.238281 51.367188 17.132812 51.523438 18.023438 C 51.613281 18.824219 51.902344 19.511719 52.324219 20.078125 C 51.636719 20.609375 50.917969 20.9375 50.042969 20.914062 C 49.296875 20.84375 48.539062 20.617188 47.933594 20.183594 C 48.550781 19.519531 48.996094 18.703125 49.261719 17.855469 C 49.402344 16.96875 49.585938 16.027344 49.382812 15.140625 C 49.003906 13.511719 47.515625 13.679688 46.6875 14.898438 C 46.03125 15.65625 45.871094 16.691406 45.828125 17.65625 C 45.835938 18.484375 46.074219 19.328125 46.546875 20.015625 C 46.617188 20.113281 46.699219 20.199219 46.777344 20.285156 C 46.371094 20.582031 45.933594 20.792969 45.476562 20.835938 C 44.382812 20.949219 43.230469 20.269531 42.679688 19.25 C 42.398438 18.703125 42.308594 18.179688 42.300781 17.710938 C 42.300781 16.699219 42.589844 15.714844 42.855469 14.609375 C 42.996094 14.183594 42.285156 13.992188 42.1875 14.425781 C 41.757812 15.976562 41.054688 17.710938 41.785156 19.277344 C 42.492188 20.921875 44.539062 22.027344 46.277344 21.324219 C 46.652344 21.191406 46.996094 21 47.304688 20.765625 C 47.628906 21 47.988281 21.183594 48.363281 21.332031 C 49.382812 21.707031 50.550781 21.808594 51.578125 21.425781 C 52.042969 21.226562 52.472656 20.984375 52.875 20.695312 C 54.070312 21.765625 55.878906 22.175781 57.5625 21.808594 C 58.113281 21.660156 58.625 21.410156 59.097656 21.097656 C 59.167969 21.183594 59.222656 21.269531 59.300781 21.347656 C 60.476562 22.578125 62.34375 22.636719 63.914062 22.316406 C 64.300781 22.269531 64.679688 22.167969 65.039062 22.035156 C 65.425781 22.523438 65.976562 22.898438 66.734375 23.132812 C 68.3125 23.535156 70.148438 23.445312 71.707031 22.828125 C 71.953125 23.140625 72.246094 23.421875 72.640625 23.613281 C 73.542969 24.023438 74.605469 23.996094 75.585938 23.988281 C 76.472656 23.953125 77.308594 23.714844 78.054688 23.316406 C 78.808594 24.316406 80.140625 24.8125 81.378906 24.746094 C 82.25 24.65625 83.117188 24.40625 83.890625 24.003906 C 84.601562 24.683594 85.601562 25.050781 86.664062 24.960938 C 87.347656 24.9375 88.015625 24.777344 88.621094 24.492188 C 89.488281 25.230469 90.726562 25.421875 92.164062 24.5625 C 93.070312 24.003906 93.839844 23.160156 94.226562 22.175781 C 94.238281 21.992188 94.105469 21.820312 93.929688 21.765625 Z M 47.164062 15.757812 C 47.515625 15.21875 48.25 14.261719 48.574219 15.183594 C 48.664062 15.472656 48.707031 15.550781 48.707031 15.757812 C 48.679688 16.988281 48.609375 17.933594 48.023438 18.875 C 47.847656 19.171875 47.636719 19.460938 47.390625 19.71875 C 47.320312 19.632812 47.25 19.546875 47.1875 19.449219 C 46.628906 18.386719 46.601562 16.953125 47.164062 15.757812 Z M 52.847656 19.234375 C 52.824219 19.164062 52.78125 19.085938 52.761719 19.050781 C 52.402344 18.160156 52.199219 17.203125 52.726562 15.992188 C 52.613281 16.203125 52.839844 15.765625 52.867188 15.679688 C 53.078125 15.289062 53.21875 14.914062 53.585938 14.695312 C 54.5 14.105469 54.875 15.203125 54.746094 15.941406 C 54.597656 16.890625 54.085938 18.128906 53.410156 19.085938 C 53.28125 19.222656 53.140625 19.355469 53.007812 19.484375 C 52.945312 19.398438 52.894531 19.320312 52.847656 19.234375 Z M 59.175781 19.832031 C 58.976562 19.285156 58.808594 18.230469 59 17.40625 C 59.152344 16.480469 59.992188 13.136719 61.203125 14.878906 C 61.84375 16.785156 60.78125 18.746094 59.265625 20.023438 C 59.246094 19.964844 59.203125 19.902344 59.175781 19.832031 Z M 65.222656 17.796875 C 65.441406 17.144531 65.617188 16.671875 66.1875 16.117188 C 66.398438 15.925781 66.679688 15.714844 66.96875 15.828125 C 67.339844 15.925781 67.644531 16.21875 67.734375 16.585938 C 67.898438 17.371094 67.65625 18.433594 67.269531 19.371094 C 66.828125 20.183594 66.117188 20.871094 65.292969 21.296875 C 64.828125 20.226562 64.90625 18.929688 65.222656 17.796875 Z M 71.761719 21.324219 C 71.332031 20.042969 71.824219 16.195312 73.683594 15.828125 C 75.0625 15.878906 74.746094 17.71875 74.5625 18.632812 C 74.324219 20.136719 73.359375 21.3125 72.09375 22.035156 C 71.953125 21.820312 71.839844 21.582031 71.761719 21.324219 Z M 78.675781 18.457031 C 79.027344 17.535156 79.265625 17.039062 79.871094 17.386719 C 80.335938 17.628906 80.167969 18.242188 80.167969 18.667969 C 80.105469 19.796875 79.570312 21.15625 78.492188 22.105469 C 78.210938 21 78.253906 19.765625 78.675781 18.457031 Z M 83.941406 22.578125 C 83.46875 21.210938 83.652344 19.492188 84.144531 18.40625 C 84.488281 17.796875 85.101562 16.734375 86.066406 17.246094 C 86.617188 17.925781 86.304688 18.859375 86.214844 19.492188 C 85.996094 20.632812 85.300781 22.078125 84.441406 22.699219 C 84.328125 22.785156 84.214844 22.863281 84.089844 22.933594 C 84.03125 22.820312 83.976562 22.707031 83.941406 22.578125 Z M 88.332031 20.058594 C 88.796875 18.320312 90.839844 16.769531 90.683594 19.773438 C 90.460938 21.191406 89.953125 22.59375 88.839844 23.402344 C 88.066406 22.246094 88.09375 21.140625 88.332031 20.058594 Z M 88.332031 20.058594 " fill-opacity="1" fill-rule="nonzero"/><path fill="#441d66" d="M 40.230469 21.992188 C 39.871094 25.535156 39.117188 29.132812 38.371094 32.726562 C 37.78125 35.269531 36.964844 37.753906 36.492188 40.320312 C 35.421875 45.839844 34.339844 51.386719 32.542969 56.734375 C 31.832031 58.769531 31.261719 59.980469 30.488281 61.828125 C 29.609375 63.933594 28.539062 66.285156 27.242188 68.425781 C 26.988281 68.921875 26.664062 69.394531 26.453125 69.898438 C 26.40625 70.132812 26.699219 70.324219 26.898438 70.195312 C 27.171875 69.921875 27.3125 69.539062 27.523438 69.226562 C 29.109375 66.726562 30.453125 63.996094 31.488281 61.453125 C 32.21875 59.640625 32.929688 58.214844 33.585938 56.027344 C 35.332031 50.769531 36.324219 45.308594 37.402344 39.886719 C 37.816406 37.613281 38.527344 35.410156 39.019531 33.15625 C 39.605469 30.664062 39.976562 28.042969 40.230469 25.71875 C 40.386719 24.472656 40.589844 23.195312 40.589844 21.914062 C 40.535156 21.742188 40.230469 21.785156 40.230469 21.992188 Z M 40.230469 21.992188 " fill-opacity="1" fill-rule="nonzero"/><path fill="#441d66" d="M 84.792969 80.109375 C 84.382812 79.859375 83.8125 80.085938 83.355469 80.09375 C 82.054688 80.242188 81.203125 80.425781 79.992188 80.511719 C 77.070312 80.765625 74.140625 80.765625 71.207031 80.605469 C 68.574219 80.570312 65.933594 80.511719 63.308594 80.277344 C 58.582031 79.875 54.0625 79.667969 49.566406 78.761719 C 47.382812 78.464844 45.355469 78.082031 43.109375 77.585938 C 41.554688 77.210938 39.949219 77.003906 38.429688 76.488281 C 36.65625 75.871094 34.875 75.269531 33.121094 74.617188 C 32.207031 74.242188 31.3125 73.832031 30.375 73.554688 C 30.332031 73.554688 30.320312 73.632812 30.367188 73.640625 C 31.621094 74.050781 32.769531 74.6875 33.964844 75.234375 C 35.28125 75.785156 36.625 76.375 38.054688 76.855469 C 39.703125 77.472656 41.457031 77.699219 43.160156 78.132812 C 45.730469 78.8125 48.355469 79.214844 50.960938 79.746094 C 55.421875 80.589844 59.976562 80.929688 64.679688 81.328125 C 67.53125 81.597656 70.410156 81.511719 73.269531 81.667969 C 75.753906 81.710938 78.238281 81.460938 80.714844 81.234375 C 81.757812 81.113281 83.117188 80.859375 83.890625 80.773438 C 84.152344 80.71875 84.441406 80.765625 84.695312 80.695312 C 84.917969 80.625 84.976562 80.285156 84.792969 80.109375 Z M 84.792969 80.109375 " fill-opacity="1" fill-rule="nonzero"/><path fill="#441d66" d="M 93.09375 26.023438 C 93 25.917969 92.796875 25.996094 92.804688 26.144531 C 92.640625 29.8125 92.140625 33.042969 91.734375 36.621094 C 91.4375 40.277344 91.324219 44.65625 90.847656 47.859375 C 90.394531 51.179688 89.867188 54.859375 88.988281 59.101562 C 88.488281 61.738281 88.382812 63.628906 88.050781 65.890625 C 88.003906 66.320312 87.917969 66.832031 87.910156 67.15625 C 87.933594 67.441406 88.382812 67.484375 88.453125 67.191406 C 89.960938 60.136719 91.09375 52.894531 91.9375 46.695312 C 92.296875 43.238281 92.164062 39.753906 92.480469 36.296875 C 92.640625 33.058594 93.105469 29.847656 93.128906 26.597656 C 93.09375 26.414062 93.199219 26.191406 93.09375 26.023438 Z M 93.09375 26.023438 " fill-opacity="1" fill-rule="nonzero"/><path fill="#441d66" d="M 87.636719 70.601562 C 87.496094 70.351562 87.085938 70.402344 87.015625 70.679688 C 86.59375 72.527344 86.285156 74.390625 85.890625 76.234375 C 85.820312 76.734375 85.425781 77.464844 85.546875 77.90625 C 85.757812 78.238281 86.199219 78.011719 86.199219 77.664062 C 86.707031 75.941406 86.953125 74.15625 87.339844 72.40625 C 87.410156 71.820312 87.734375 71.1875 87.636719 70.601562 Z M 87.636719 70.601562 " fill-opacity="1" fill-rule="nonzero"/><path fill="#441d66" d="M 100.714844 69.359375 C 100.292969 67.207031 100.097656 65.605469 99.898438 63.316406 C 98.886719 54.390625 98.308594 46.378906 96.464844 37.570312 C 95.675781 34.355469 95.0625 31.089844 94.273438 27.871094 C 94.070312 27.207031 94.0625 26.441406 93.734375 25.839844 C 93.578125 25.753906 93.367188 25.902344 93.421875 26.078125 C 94.027344 29.089844 94.492188 32.128906 95.148438 35.121094 C 95.914062 38.363281 96.71875 41.523438 97.089844 44.675781 C 97.808594 51.117188 98.246094 58.351562 99.027344 65.066406 C 99.265625 67.980469 100.160156 70.996094 100.300781 73.554688 C 100.328125 73.796875 100.335938 74.199219 100.300781 74.25 C 100.265625 74.304688 100.222656 74.417969 100.222656 74.511719 C 100.082031 74.484375 99.941406 74.496094 99.808594 74.574219 C 95.589844 77.003906 92.289062 78.316406 87.609375 79.875 C 86.945312 80.136719 87.425781 80.988281 88.039062 80.660156 C 90.953125 79.796875 93.902344 78.875 96.289062 77.75 C 97.476562 77.203125 98.640625 76.609375 99.78125 75.984375 C 100.097656 75.757812 100.582031 75.660156 100.695312 75.261719 C 100.730469 75.140625 100.722656 75.027344 100.6875 74.921875 C 100.820312 74.914062 100.949219 74.851562 101.019531 74.722656 C 101.132812 74.539062 101.152344 74.320312 101.167969 74.113281 C 101.285156 72.285156 100.914062 71.097656 100.714844 69.359375 Z M 100.714844 69.359375 " fill-opacity="1" fill-rule="nonzero"/><path fill="#f5384e" d="M 59.421875 35.480469 C 59.257812 35 58.941406 34.589844 58.582031 34.234375 C 58.0625 33.5625 56.816406 33.164062 56.105469 33.101562 C 54.761719 32.945312 53.972656 34.234375 53.269531 35.15625 C 53.253906 35.191406 53.246094 35.210938 53.234375 35.234375 C 52.832031 35.785156 52.445312 36.21875 52.070312 36.679688 C 51.464844 37.308594 50.972656 37.847656 50.875 37.996094 C 50.234375 38.875 48.996094 39.980469 49.707031 41.140625 C 50.136719 41.816406 50.972656 42.304688 51.699219 41.738281 C 52.753906 40.957031 53.457031 40.257812 54.269531 39.667969 C 53.816406 41.488281 52.4375 46.433594 52.191406 49.878906 C 52.191406 50.742188 52.988281 51.28125 53.78125 51.414062 C 53.769531 51.414062 53.761719 51.414062 53.753906 51.414062 C 54.121094 51.519531 54.5 51.605469 54.886719 51.613281 C 55.28125 51.613281 55.710938 51.5 55.921875 51.152344 C 56.15625 50.8125 56.308594 50.429688 56.472656 50.054688 C 56.5625 49.878906 56.570312 49.828125 56.535156 49.835938 C 56.746094 49.550781 56.808594 49.140625 56.964844 48.820312 C 57.035156 48.582031 57.160156 48.289062 57.148438 48.269531 C 57.308594 47.949219 57.34375 47.554688 57.464844 47.214844 C 57.683594 46.347656 57.914062 45.476562 58.089844 44.585938 C 58.589844 42.191406 59.195312 39.816406 59.582031 37.402344 C 59.660156 36.757812 59.675781 36.089844 59.421875 35.480469 Z M 59.421875 35.480469 " fill-opacity="1" fill-rule="nonzero"/><path fill="#f5384e" d="M 74.472656 41.652344 C 74.078125 41.558594 73.675781 41.46875 73.269531 41.390625 C 73.550781 40.425781 73.804688 39.449219 74.175781 38.519531 C 74.492188 37.535156 74.980469 36.339844 74.773438 35.3125 C 74.5 34.523438 73.65625 33.6875 72.789062 33.78125 C 72.535156 33.6875 72.523438 33.789062 72.269531 33.800781 C 72.015625 33.851562 71.761719 33.949219 71.585938 34.15625 C 71.445312 34.3125 71.347656 34.503906 71.261719 34.695312 C 71.171875 34.808594 71.101562 34.929688 71.058594 35.085938 C 70.578125 37.019531 70.066406 38.953125 69.59375 40.894531 C 68.785156 40.824219 67.96875 40.765625 67.152344 40.722656 C 67.390625 39.589844 67.863281 38.535156 68.207031 37.4375 C 68.242188 37.300781 68.285156 37.152344 68.332031 37.011719 C 68.59375 36.453125 69.023438 35.210938 68.960938 34.390625 C 69.03125 33.949219 68.785156 33.574219 68.347656 33.441406 C 67.769531 33.242188 67.355469 33.292969 66.910156 33.382812 C 66.539062 33.476562 66.164062 33.652344 65.933594 33.964844 C 65.792969 34.171875 65.644531 34.382812 65.523438 34.609375 C 65.300781 34.863281 65.292969 34.886719 65.058594 35.226562 C 64.996094 35.289062 64.941406 35.347656 64.925781 35.410156 C 64.082031 37.144531 63.425781 38.507812 62.835938 40.835938 C 62.503906 42.289062 62.398438 43.421875 63.925781 44.195312 C 64.996094 44.726562 66.199219 44.867188 67.363281 45.039062 C 66.980469 46.773438 66.46875 48.480469 66.101562 50.210938 C 65.917969 51.101562 65.566406 52.074219 65.917969 52.964844 C 65.933594 53.007812 65.960938 53.03125 65.988281 53.074219 C 66.082031 53.378906 66.277344 53.554688 66.460938 53.667969 C 66.714844 53.878906 67.015625 53.980469 67.304688 54.015625 C 67.769531 54.121094 68.3125 54.15625 68.515625 54.09375 C 69.042969 54.058594 69.585938 53.878906 69.855469 53.398438 C 69.960938 53.1875 69.988281 52.964844 70.023438 52.738281 C 70.480469 51.832031 70.671875 50.796875 70.972656 49.828125 C 71.472656 48.015625 71.917969 46.1875 72.402344 44.371094 C 72.640625 44.394531 72.867188 44.421875 73.09375 44.457031 C 73.839844 44.542969 74.738281 44.449219 75.210938 43.804688 C 75.84375 43.039062 75.386719 41.886719 74.472656 41.652344 Z M 74.472656 41.652344 " fill-opacity="1" fill-rule="nonzero"/><path fill="#f5384e" d="M 53.421875 55.84375 C 51.367188 55.515625 49.285156 55.355469 47.214844 55.390625 C 46.664062 55.402344 46.074219 55.4375 45.617188 55.75 C 45.292969 55.964844 45.074219 56.304688 44.871094 56.636719 C 43.125 59.484375 41.828125 62.59375 41.027344 65.832031 C 40.78125 66.832031 40.605469 67.980469 41.238281 68.808594 C 41.808594 69.566406 43.011719 69.75 43.792969 69.210938 C 44.328125 68.835938 44.625 68.207031 44.898438 67.617188 C 45.136719 67.085938 45.382812 66.5625 45.617188 66.03125 C 45.6875 65.882812 45.757812 65.734375 45.890625 65.640625 C 46.058594 65.519531 46.285156 65.535156 46.496094 65.554688 C 47.996094 65.683594 49.550781 65.8125 50.988281 65.351562 C 51.464844 65.203125 51.980469 64.917969 52.058594 64.421875 C 52.15625 63.8125 51.542969 63.351562 50.980469 63.089844 C 50.078125 62.671875 49.101562 62.390625 48.101562 62.277344 C 47.855469 62.253906 47.59375 62.226562 47.382812 62.085938 C 47.171875 61.949219 47.046875 61.644531 47.199219 61.441406 C 47.339844 61.25 47.621094 61.242188 47.855469 61.269531 C 48.925781 61.375 49.980469 61.679688 51.058594 61.660156 C 52.105469 61.644531 53.15625 61.3125 53.9375 60.625 C 54.71875 59.9375 55.175781 58.867188 55.015625 57.847656 C 54.832031 56.820312 53.992188 55.933594 53.421875 55.84375 Z M 53.421875 55.84375 " fill-opacity="1" fill-rule="nonzero"/><path fill="#f5384e" d="M 60.097656 57.578125 C 59.492188 57.523438 58.859375 57.492188 58.300781 57.707031 C 57.4375 58.039062 56.902344 58.875 56.464844 59.675781 C 54.816406 62.714844 53.664062 66.015625 53.078125 69.417969 C 52.988281 69.941406 52.910156 70.5 53.128906 70.984375 C 53.402344 71.613281 54.078125 71.96875 54.71875 72.222656 C 57.078125 73.144531 59.710938 73.355469 62.1875 72.824219 C 62.914062 72.667969 63.660156 72.429688 64.214844 71.945312 C 64.777344 71.449219 65.109375 70.644531 64.855469 69.949219 C 64.707031 69.539062 64.390625 69.226562 64.039062 68.964844 C 62.484375 67.789062 60.421875 67.609375 58.535156 67.121094 C 58.203125 67.03125 57.78125 66.738281 57.976562 66.449219 C 58.089844 66.285156 58.335938 66.285156 58.535156 66.308594 C 59.484375 66.414062 60.433594 66.519531 61.378906 66.625 C 62.125 66.710938 65.195312 66.789062 64.871094 64.96875 C 64.671875 63.828125 61.378906 63.636719 60.371094 63.566406 C 58.84375 63.453125 58.800781 62.390625 60.195312 62.488281 C 61.582031 62.582031 65.074219 63.097656 66.144531 62.453125 C 67.480469 61.644531 67.117188 59.597656 66.382812 58.867188 C 65.1875 57.683594 61.871094 57.71875 60.097656 57.578125 Z M 60.097656 57.578125 " fill-opacity="1" fill-rule="nonzero"/><path fill="#f5384e" d="M 78.175781 63.453125 C 78.625 62.007812 77.921875 60.441406 76.675781 59.589844 C 74.945312 58.386719 71.832031 57.507812 69.734375 59.589844 C 67.523438 63.636719 67.285156 71.996094 67.445312 72.351562 C 68.109375 73.867188 71.824219 73.839844 74.492188 72.839844 C 76.851562 71.960938 78.117188 69.828125 78.117188 68.398438 C 78.117188 66.117188 75.859375 65.605469 76 65.136719 C 76.105469 64.832031 77.710938 64.925781 78.175781 63.453125 Z M 74.410156 68.417969 C 74.113281 68.671875 73.457031 68.644531 73.148438 68.425781 C 72.902344 68.253906 72.804688 67.914062 72.804688 67.609375 C 72.804688 66.535156 73.726562 66.1875 74.4375 66.902344 C 74.808594 67.269531 74.808594 68.078125 74.410156 68.417969 Z M 74.113281 62.382812 C 73.851562 62.480469 73.5625 62.539062 73.316406 62.410156 C 72.886719 62.183594 72.824219 61.171875 73.429688 60.914062 C 73.710938 60.789062 74.0625 60.867188 74.351562 60.972656 C 74.648438 61.085938 74.894531 61.355469 74.867188 61.667969 C 74.832031 62.035156 74.457031 62.261719 74.113281 62.382812 Z M 74.113281 62.382812 " fill-opacity="1" fill-rule="nonzero"/><g fill="#000000" fill-opacity="1"><g transform="translate(42.488377, 100.03931)"><g><path d="M 1.421875 1.589844 C 1.867188 1.589844 2.285156 1.421875 2.675781 1.085938 C 2.761719 1.03125 2.84375 0.949219 2.953125 0.835938 C 4.179688 -0.613281 5.101562 -2.3125 5.574219 -4.179688 C 5.714844 -4.792969 5.882812 -5.40625 6.050781 -6.019531 C 6.214844 -6.632812 6.355469 -7.246094 6.496094 -7.859375 C 6.550781 -8.222656 6.746094 -8.417969 7.082031 -8.503906 L 9.199219 -9.171875 C 9.28125 -9.199219 9.367188 -9.253906 9.394531 -9.339844 C 9.421875 -9.421875 9.367188 -9.507812 9.226562 -9.589844 C 9.117188 -9.644531 9.003906 -9.671875 8.894531 -9.671875 C 8.808594 -9.671875 8.753906 -9.671875 8.726562 -9.644531 C 8.363281 -9.5625 7.304688 -9.085938 6.96875 -9.085938 C 6.886719 -9.058594 6.859375 -9.117188 6.859375 -9.199219 C 6.886719 -9.28125 6.886719 -9.339844 6.886719 -9.421875 C 6.886719 -9.476562 6.886719 -9.535156 6.914062 -9.589844 L 7.332031 -11.234375 C 7.527344 -11.929688 7.722656 -12.601562 7.945312 -13.242188 C 8.113281 -13.769531 8.335938 -14.273438 8.613281 -14.746094 C 8.699219 -14.886719 8.808594 -14.941406 8.921875 -14.941406 C 10.285156 -15.082031 13.4375 -15.695312 14.414062 -16.671875 C 14.71875 -16.976562 14.71875 -17.367188 14.46875 -17.675781 C 13.910156 -18.230469 13.296875 -18.371094 12.542969 -18.371094 C 10.871094 -18.371094 8.835938 -17.285156 7.972656 -15.835938 C 7.832031 -15.640625 7.609375 -15.527344 7.359375 -15.5 C 7.191406 -15.5 7.023438 -15.5 6.859375 -15.5 C 6.664062 -15.472656 6.496094 -15.472656 6.328125 -15.472656 C 6.1875 -15.472656 6.019531 -15.472656 5.882812 -15.472656 C 5.742188 -15.472656 5.546875 -15.472656 5.351562 -15.5 L 4.933594 -15.5 C 3.375 -15.5 1.644531 -15.359375 0.390625 -14.382812 C 0.167969 -14.1875 0 -13.9375 -0.113281 -13.6875 C -0.335938 -13.128906 0.140625 -12.542969 0.78125 -12.574219 C 0.808594 -12.574219 0.808594 -12.574219 0.808594 -12.601562 C 0.808594 -12.601562 0.808594 -12.601562 0.808594 -12.628906 C 0.808594 -12.683594 0.808594 -12.710938 0.78125 -12.738281 C 0.667969 -12.824219 0.53125 -12.878906 0.53125 -13.074219 C 0.53125 -13.214844 0.585938 -13.382812 0.667969 -13.519531 C 1.503906 -14.496094 3.316406 -14.914062 4.570312 -14.914062 C 4.960938 -14.914062 6.914062 -14.941406 7.109375 -14.800781 C 7.191406 -14.800781 7.21875 -14.691406 7.191406 -14.664062 C 7.164062 -14.523438 7.109375 -14.414062 7.082031 -14.355469 C 6.828125 -13.742188 6.605469 -13.128906 6.410156 -12.515625 C 6.214844 -11.929688 6.050781 -11.316406 5.910156 -10.734375 C 5.769531 -10.148438 5.601562 -9.535156 5.464844 -8.949219 C 5.351562 -8.417969 5.378906 -8.445312 4.851562 -8.195312 C 2.480469 -7.109375 0.417969 -4.628906 -0.222656 -2.089844 C -0.417969 -1.28125 -0.5 -0.472656 -0.308594 0.390625 C -0.113281 1.199219 0.613281 1.589844 1.421875 1.589844 Z M 1.171875 1.113281 C 1.085938 1.113281 1.003906 1.085938 0.949219 1.03125 C 0.695312 0.835938 0.53125 0.585938 0.472656 0.277344 C 0.390625 -0.0546875 0.308594 -0.417969 0.308594 -0.640625 C 0.445312 -3.34375 2.257812 -6.078125 4.628906 -7.441406 C 4.738281 -7.472656 4.851562 -7.527344 4.933594 -7.554688 C 5.019531 -7.554688 5.074219 -7.527344 5.074219 -7.441406 C 5.074219 -7.332031 5.074219 -7.246094 5.046875 -7.191406 C 4.960938 -6.773438 4.851562 -6.355469 4.765625 -5.9375 C 4.683594 -5.519531 4.570312 -5.101562 4.488281 -4.683594 C 4.042969 -2.898438 3.179688 -0.726562 1.867188 0.667969 C 1.699219 0.863281 1.535156 1.003906 1.367188 1.085938 C 1.339844 1.113281 1.253906 1.113281 1.171875 1.113281 Z M 9.507812 -15.722656 C 9.476562 -15.75 9.476562 -15.75 9.449219 -15.75 C 9.421875 -15.75 9.421875 -15.75 9.394531 -15.777344 C 9.367188 -15.804688 9.367188 -15.863281 9.394531 -15.890625 C 9.535156 -16.195312 9.730469 -16.335938 9.953125 -16.53125 C 10.566406 -17.144531 12.292969 -17.730469 13.101562 -17.730469 C 13.296875 -17.730469 13.519531 -17.703125 13.714844 -17.675781 L 13.769531 -17.675781 C 13.882812 -17.644531 13.964844 -17.480469 13.882812 -17.394531 C 13.6875 -17.089844 13.410156 -16.921875 13.101562 -16.808594 C 12.015625 -16.28125 10.816406 -15.917969 9.5625 -15.722656 Z M 9.507812 -15.722656 "/></g></g></g><g fill="#000000" fill-opacity="1"><g transform="translate(51.492166, 100.03931)"><g><path d="M 0.921875 -2.257812 C 1.617188 -2.257812 2.117188 -2.761719 2.535156 -3.234375 C 2.984375 -3.792969 3.402344 -4.375 3.820312 -4.960938 C 4.125 -5.4375 4.460938 -5.9375 4.765625 -6.410156 C 5.074219 -6.886719 5.378906 -7.359375 5.6875 -7.832031 C 5.714844 -7.917969 5.796875 -8.027344 5.882812 -8.167969 C 5.964844 -8.308594 6.019531 -8.445312 6.019531 -8.53125 C 6.019531 -8.558594 5.992188 -8.613281 5.964844 -8.640625 C 5.910156 -8.726562 5.828125 -8.753906 5.714844 -8.753906 C 5.632812 -8.753906 5.546875 -8.726562 5.492188 -8.667969 C 5.464844 -8.640625 5.4375 -8.585938 5.4375 -8.558594 C 5.40625 -8.53125 5.378906 -8.472656 5.351562 -8.445312 L 3.679688 -5.9375 C 3.34375 -5.378906 1.644531 -2.984375 1.03125 -2.984375 C 0.921875 -2.984375 0.835938 -3.09375 0.808594 -3.289062 L 0.808594 -3.484375 C 0.78125 -4.152344 0.835938 -4.851562 0.949219 -5.519531 L 1.113281 -6.214844 C 1.171875 -6.410156 1.28125 -6.523438 1.449219 -6.550781 C 1.589844 -6.578125 1.699219 -6.632812 1.8125 -6.664062 C 1.921875 -6.691406 2.035156 -6.71875 2.148438 -6.773438 C 2.898438 -7.21875 3.679688 -7.890625 3.929688 -8.78125 C 4.125 -9.367188 3.957031 -9.757812 3.402344 -10.007812 C 3.148438 -10.148438 2.953125 -10.148438 2.648438 -10.148438 C 2.425781 -10.148438 2.203125 -10.0625 1.953125 -9.925781 C 1.726562 -9.757812 1.5625 -9.589844 1.421875 -9.449219 C 1.085938 -9.117188 0.808594 -8.699219 0.585938 -8.28125 C -0.167969 -6.746094 -0.5 -5.15625 -0.390625 -3.511719 L -0.308594 -3.066406 C -0.167969 -2.507812 0.390625 -2.257812 0.921875 -2.257812 Z M 1.535156 -7.136719 C 1.449219 -7.164062 1.449219 -7.21875 1.476562 -7.304688 C 1.644531 -7.859375 2.480469 -9.5625 3.09375 -9.5625 C 3.207031 -9.5625 3.289062 -9.507812 3.316406 -9.367188 L 3.316406 -9.3125 C 3.316406 -8.53125 2.371094 -7.414062 1.644531 -7.136719 C 1.617188 -7.109375 1.5625 -7.109375 1.535156 -7.136719 Z M 1.535156 -7.136719 "/></g></g></g><g fill="#000000" fill-opacity="1"><g transform="translate(56.119499, 100.03931)"><g><path d="M 2.648438 -2.898438 C 3.34375 -2.898438 3.875 -3.597656 4.125 -4.152344 C 4.570312 -5.019531 4.878906 -5.910156 5.183594 -6.828125 C 5.378906 -7.5 5.4375 -8.167969 5.40625 -8.835938 C 5.378906 -8.949219 5.378906 -9.058594 5.351562 -9.171875 C 5.324219 -9.28125 5.296875 -9.394531 5.242188 -9.476562 C 5.046875 -9.894531 4.65625 -10.007812 4.238281 -10.007812 C 3.566406 -10.007812 3.121094 -9.535156 2.703125 -9.058594 C 2.59375 -8.921875 2.480469 -8.808594 2.398438 -8.667969 C 2.3125 -8.53125 2.203125 -8.417969 2.089844 -8.28125 C 2.0625 -8.25 2.007812 -8.195312 1.921875 -8.167969 C 1.894531 -8.167969 1.839844 -8.308594 1.867188 -8.390625 L 2.035156 -9.171875 C 2.0625 -9.28125 2.117188 -9.394531 2.148438 -9.476562 C 2.175781 -9.5625 2.203125 -9.671875 2.285156 -9.757812 C 3.316406 -11.152344 5.546875 -14.636719 5.6875 -16.363281 C 5.714844 -16.503906 5.714844 -16.613281 5.6875 -16.753906 C 5.6875 -17.171875 5.074219 -17.394531 4.738281 -17.394531 C 3.484375 -17.394531 2.480469 -15.082031 2.0625 -13.9375 C 1.03125 -11.261719 0.308594 -8.335938 0.308594 -5.4375 L 0.308594 -4.515625 C 0.308594 -4.433594 0.308594 -4.375 0.308594 -4.292969 C 0.308594 -4.210938 0.308594 -4.152344 0.335938 -4.070312 C 0.363281 -3.820312 0.472656 -3.707031 0.695312 -3.679688 C 0.890625 -3.679688 1.003906 -3.679688 1.085938 -3.707031 C 1.226562 -3.707031 1.339844 -3.792969 1.367188 -3.957031 L 1.449219 -4.40625 C 1.449219 -4.515625 1.449219 -4.628906 1.476562 -4.765625 C 1.476562 -4.878906 1.476562 -4.988281 1.476562 -5.128906 C 1.5625 -6.300781 2.453125 -7.695312 3.148438 -8.613281 C 3.402344 -8.921875 3.652344 -9.171875 3.957031 -9.394531 C 3.988281 -9.421875 4.042969 -9.449219 4.070312 -9.476562 C 4.097656 -9.476562 4.152344 -9.476562 4.179688 -9.507812 C 4.265625 -9.507812 4.347656 -9.507812 4.347656 -9.421875 C 4.375 -9.3125 4.40625 -9.226562 4.40625 -9.171875 C 4.433594 -8.699219 4.40625 -8.25 4.320312 -7.804688 C 4.070312 -6.496094 3.566406 -5.324219 2.984375 -4.125 C 2.953125 -4.042969 2.925781 -3.988281 2.84375 -3.902344 C 2.816406 -3.875 2.761719 -3.847656 2.730469 -3.847656 C 2.675781 -3.847656 2.648438 -3.875 2.648438 -3.929688 C 2.535156 -4.292969 2.59375 -4.628906 2.703125 -4.960938 C 2.789062 -5.324219 2.898438 -5.6875 3.09375 -6.019531 C 3.148438 -6.105469 3.207031 -6.214844 3.234375 -6.300781 C 3.316406 -6.382812 3.234375 -6.496094 3.148438 -6.523438 L 2.953125 -6.550781 C 2.871094 -6.550781 2.789062 -6.523438 2.703125 -6.441406 C 2.257812 -5.855469 2.007812 -5.324219 1.8125 -4.570312 C 1.726562 -4.152344 1.785156 -3.820312 1.894531 -3.402344 C 1.980469 -3.148438 2.148438 -2.984375 2.453125 -2.925781 C 2.480469 -2.925781 2.535156 -2.925781 2.566406 -2.925781 C 2.59375 -2.898438 2.621094 -2.898438 2.648438 -2.898438 Z M 2.789062 -11.734375 C 2.703125 -11.707031 2.703125 -11.734375 2.730469 -11.875 C 2.730469 -11.902344 2.730469 -11.902344 2.761719 -11.929688 C 2.761719 -11.929688 2.761719 -11.929688 2.761719 -11.960938 C 2.898438 -12.433594 3.066406 -12.933594 3.207031 -13.410156 C 3.34375 -13.882812 3.511719 -14.382812 3.707031 -14.859375 C 3.902344 -15.332031 4.070312 -15.777344 4.375 -16.195312 L 4.710938 -16.613281 C 4.792969 -16.726562 4.960938 -16.808594 4.988281 -16.726562 C 5.019531 -16.640625 5.046875 -16.585938 5.046875 -16.558594 C 5.046875 -15.777344 4.433594 -14.382812 4.042969 -13.6875 C 3.679688 -13.046875 3.316406 -12.433594 2.898438 -11.792969 C 2.871094 -11.765625 2.816406 -11.734375 2.789062 -11.734375 Z M 2.789062 -11.734375 "/></g></g></g><g fill="#000000" fill-opacity="1"><g transform="translate(62.391484, 100.03931)"><g/></g></g><g fill="#000000" fill-opacity="1"><g transform="translate(69.639112, 100.03931)"><g><path d="M 2.148438 -2.0625 L 3.457031 -2.0625 C 3.652344 -2.0625 3.902344 -2.117188 4.152344 -2.257812 C 4.210938 -2.3125 4.238281 -2.371094 4.238281 -2.425781 C 4.179688 -2.480469 4.125 -2.507812 4.097656 -2.535156 C 4.070312 -2.566406 4.042969 -2.566406 3.957031 -2.566406 L 3.652344 -2.566406 L 3.207031 -2.480469 C 3.066406 -2.480469 3.039062 -2.535156 3.066406 -2.675781 C 3.261719 -3.09375 3.402344 -3.511719 3.484375 -3.988281 C 3.566406 -4.347656 3.652344 -4.738281 3.734375 -5.128906 C 3.792969 -5.519531 3.847656 -5.910156 3.929688 -6.300781 C 4.125 -7.386719 4.347656 -8.472656 4.601562 -9.5625 C 4.765625 -10.257812 4.933594 -10.957031 5.074219 -11.652344 C 5.214844 -12.320312 5.351562 -13.019531 5.492188 -13.714844 C 5.519531 -13.800781 5.519531 -13.910156 5.519531 -14.050781 C 5.519531 -14.246094 5.4375 -14.382812 5.269531 -14.46875 C 5.15625 -14.496094 5.074219 -14.523438 5.019531 -14.523438 C 4.90625 -14.523438 4.792969 -14.46875 4.710938 -14.382812 C 4.238281 -13.742188 3.625 -13.242188 3.066406 -12.710938 C 2.925781 -12.574219 2.816406 -12.433594 2.675781 -12.320312 C 2.535156 -12.183594 2.425781 -12.042969 2.285156 -11.902344 C 2.203125 -11.792969 2.148438 -11.707031 2.117188 -11.625 C 2.035156 -11.539062 2.148438 -11.402344 2.257812 -11.375 C 2.398438 -11.375 2.507812 -11.402344 2.566406 -11.457031 L 4.179688 -12.878906 C 4.210938 -12.90625 4.265625 -12.90625 4.292969 -12.878906 C 4.320312 -12.851562 4.347656 -12.796875 4.347656 -12.769531 C 4.320312 -12.738281 4.320312 -12.683594 4.320312 -12.65625 C 4.320312 -12.601562 4.320312 -12.542969 4.292969 -12.515625 C 4.179688 -12.070312 4.042969 -11.625 3.902344 -11.179688 C 3.375 -9.535156 2.953125 -7.859375 2.648438 -6.105469 C 2.507812 -5.242188 2.339844 -4.40625 2.148438 -3.539062 C 2.035156 -3.121094 1.894531 -2.761719 1.476562 -2.535156 C 1.339844 -2.453125 1.339844 -2.3125 1.535156 -2.230469 C 1.726562 -2.148438 1.921875 -2.0625 2.148438 -2.0625 Z M 2.148438 -2.0625 "/></g></g></g><g fill="#000000" fill-opacity="1"><g transform="translate(76.552235, 100.03931)"><g><path d="M 4.710938 -1.980469 C 4.851562 -1.980469 4.960938 -2.0625 5.046875 -2.230469 C 5.074219 -2.480469 5.101562 -2.703125 5.183594 -2.953125 L 5.4375 -4.292969 C 5.464844 -4.433594 5.519531 -4.515625 5.601562 -4.570312 C 5.632812 -4.601562 5.660156 -4.601562 5.6875 -4.628906 C 5.6875 -4.65625 5.714844 -4.65625 5.742188 -4.683594 C 5.882812 -4.824219 5.882812 -4.960938 5.769531 -5.101562 C 5.660156 -5.242188 5.632812 -5.40625 5.660156 -5.601562 C 5.882812 -6.800781 6.050781 -7.972656 6.132812 -9.171875 C 6.160156 -9.421875 6.019531 -9.5625 5.742188 -9.589844 C 5.546875 -9.589844 5.464844 -9.589844 5.378906 -9.394531 C 5.351562 -9.3125 5.324219 -9.253906 5.296875 -9.199219 C 5.269531 -9.117188 5.242188 -9.058594 5.214844 -8.976562 C 5.15625 -8.726562 5.101562 -8.445312 5.046875 -8.195312 C 4.960938 -7.917969 4.90625 -7.636719 4.851562 -7.386719 C 4.765625 -7.023438 4.683594 -6.691406 4.628906 -6.355469 C 4.570312 -5.992188 4.515625 -5.660156 4.433594 -5.324219 C 4.347656 -5.074219 4.320312 -5.046875 4.070312 -5.046875 C 3.875 -5.074219 3.679688 -5.101562 3.484375 -5.128906 C 3.289062 -5.128906 3.09375 -5.128906 2.898438 -5.15625 C 2.871094 -5.183594 2.84375 -5.183594 2.816406 -5.183594 C 2.789062 -5.183594 2.730469 -5.183594 2.703125 -5.214844 C 2.59375 -5.242188 2.535156 -5.324219 2.535156 -5.40625 C 2.507812 -5.632812 2.535156 -5.882812 2.621094 -6.105469 C 2.816406 -6.800781 3.011719 -7.5 3.261719 -8.167969 C 3.625 -9.085938 3.957031 -10.007812 4.265625 -10.871094 C 4.710938 -11.988281 5.019531 -13.269531 5.019531 -14.496094 C 5.019531 -14.800781 4.878906 -14.996094 4.601562 -15.082031 C 4.570312 -15.109375 4.542969 -15.109375 4.488281 -15.109375 C 4.347656 -15.109375 4.265625 -15.054688 4.210938 -14.914062 C 3.875 -13.605469 3.511719 -12.292969 3.039062 -11.039062 L 2.117188 -8.585938 C 1.867188 -7.890625 1.617188 -7.21875 1.476562 -6.46875 L 1.394531 -5.742188 C 1.367188 -5.378906 1.535156 -5.101562 1.894531 -4.90625 C 2.175781 -4.765625 2.453125 -4.710938 2.703125 -4.683594 C 2.925781 -4.65625 3.148438 -4.628906 3.375 -4.601562 C 3.597656 -4.570312 3.820312 -4.570312 4.015625 -4.542969 C 4.210938 -4.515625 4.292969 -4.433594 4.292969 -4.265625 L 4.292969 -3.34375 C 4.265625 -3.207031 4.265625 -3.066406 4.265625 -2.953125 C 4.265625 -2.816406 4.265625 -2.675781 4.265625 -2.535156 C 4.265625 -2.398438 4.265625 -2.3125 4.292969 -2.230469 C 4.292969 -2.035156 4.515625 -1.980469 4.710938 -1.980469 Z M 4.710938 -1.980469 "/></g></g></g></svg>