<svg xmlns="http://www.w3.org/2000/svg" xmlns:xlink="http://www.w3.org/1999/xlink" width="170" zoomAndPan="magnify" viewBox="0 0 127.5 111.749997" height="149" preserveAspectRatio="xMidYMid meet" version="1.0"><defs><g/><clipPath id="968c3aeb1a"><path d="M 55 48 L 70 48 L 70 84.285156 L 55 84.285156 Z M 55 48 " clip-rule="nonzero"/></clipPath><clipPath id="d028dd56e1"><path d="M 36.386719 50 L 89 50 L 89 78 L 36.386719 78 Z M 36.386719 50 " clip-rule="nonzero"/></clipPath><clipPath id="73d03bfbab"><path d="M 36.542969 11.074219 L 90.164062 11.074219 L 90.164062 84.242188 L 36.542969 84.242188 Z M 36.542969 11.074219 " clip-rule="nonzero"/></clipPath></defs><g clip-path="url(#968c3aeb1a)"><path fill="#fef3c7" d="M 69.230469 48.132812 C 69.132812 49.148438 69.015625 50.152344 68.96875 51.175781 C 68.941406 51.863281 68.804688 52.550781 68.671875 53.222656 C 68.535156 53.925781 68.484375 54.65625 68.304688 55.347656 C 67.949219 56.710938 67.472656 58.019531 66.996094 59.34375 C 66.75 60.019531 66.480469 60.671875 66.308594 61.371094 C 66.128906 62.132812 66.019531 62.914062 65.785156 63.664062 C 65.386719 64.945312 64.878906 66.203125 64.445312 67.472656 C 64.011719 68.742188 63.523438 70 63.089844 71.269531 C 62.695312 72.4375 62.246094 73.578125 61.808594 74.738281 C 61.238281 76.261719 60.382812 77.660156 59.742188 79.152344 C 59.328125 80.113281 58.929688 81.140625 58.652344 82.175781 C 58.707031 82.332031 58.746094 82.484375 58.734375 82.699219 C 58.726562 82.953125 58.671875 83.195312 58.574219 83.429688 C 58.359375 83.945312 57.910156 84.28125 57.347656 84.238281 C 56.269531 84.15625 55.074219 83.449219 55.445312 82.195312 C 55.460938 82.148438 55.484375 82.109375 55.515625 82.085938 C 55.582031 81.902344 55.644531 81.722656 55.695312 81.554688 C 55.882812 80.921875 56.097656 80.289062 56.339844 79.679688 C 56.820312 78.464844 57.292969 77.199219 57.933594 76.0625 C 58.492188 75.066406 59.203125 74.160156 59.75 73.148438 C 60.308594 72.113281 60.90625 71.101562 61.476562 70.078125 C 61.765625 69.554688 61.917969 68.945312 62.21875 68.441406 C 62.519531 67.941406 62.777344 67.449219 63.035156 66.917969 C 63.65625 65.640625 64.394531 64.414062 64.984375 63.125 C 65.980469 60.945312 66.679688 58.476562 67.058594 56.113281 C 67.253906 54.878906 67.527344 53.660156 67.691406 52.421875 C 67.859375 51.152344 67.894531 49.878906 67.894531 48.59375 C 68.347656 48.507812 68.796875 48.34375 69.230469 48.132812 " fill-opacity="1" fill-rule="nonzero"/></g><path fill="#fbcce3" d="M 56.160156 19 C 56.121094 19.179688 56.09375 19.363281 56.082031 19.546875 C 56.09375 19.363281 56.121094 19.179688 56.160156 19 Z M 56.078125 19.585938 C 56.074219 19.675781 56.070312 19.761719 56.074219 19.847656 C 56.070312 19.761719 56.074219 19.675781 56.078125 19.585938 Z M 56.171875 18.933594 C 56.1875 18.867188 56.207031 18.800781 56.226562 18.734375 C 56.207031 18.800781 56.1875 18.867188 56.171875 18.933594 Z M 56.246094 18.660156 C 56.273438 18.578125 56.300781 18.492188 56.328125 18.410156 C 56.300781 18.492188 56.273438 18.578125 56.246094 18.660156 Z M 64.019531 16.039062 C 64.054688 16.027344 64.09375 16.019531 64.128906 16.003906 C 64.09375 16.019531 64.054688 16.027344 64.019531 16.039062 Z M 64.171875 15.988281 C 64.21875 15.972656 64.261719 15.953125 64.304688 15.925781 C 64.261719 15.953125 64.21875 15.972656 64.171875 15.988281 Z M 56.636719 21.453125 C 56.648438 21.464844 56.660156 21.476562 56.671875 21.488281 C 56.660156 21.476562 56.648438 21.464844 56.636719 21.453125 Z M 56.496094 21.277344 C 56.507812 21.292969 56.519531 21.308594 56.53125 21.324219 C 56.519531 21.308594 56.507812 21.292969 56.496094 21.277344 Z M 56.382812 21.101562 C 56.398438 21.125 56.414062 21.148438 56.429688 21.175781 C 56.414062 21.148438 56.398438 21.125 56.382812 21.101562 Z M 56.269531 20.867188 C 56.292969 20.921875 56.320312 20.972656 56.34375 21.027344 C 56.316406 20.972656 56.292969 20.921875 56.269531 20.867188 Z M 56.140625 20.441406 C 56.160156 20.53125 56.183594 20.621094 56.210938 20.710938 C 56.222656 20.746094 56.238281 20.785156 56.253906 20.824219 C 56.207031 20.699219 56.167969 20.574219 56.140625 20.441406 Z M 56.074219 19.867188 C 56.078125 20.058594 56.097656 20.246094 56.136719 20.429688 C 56.097656 20.246094 56.078125 20.058594 56.074219 19.867188 Z M 85.855469 30.960938 C 85.167969 30.226562 84.339844 29.371094 83.40625 28.589844 C 82.914062 28.171875 82.453125 27.90625 81.867188 27.699219 C 81.792969 27.671875 81.710938 27.636719 81.613281 27.59375 C 81.292969 27.460938 80.894531 27.292969 80.503906 27.292969 C 80.476562 27.292969 80.449219 27.292969 80.425781 27.292969 L 80.285156 27.242188 L 80.210938 27.214844 C 80.347656 26.96875 80.476562 26.722656 80.609375 26.464844 C 80.820312 26.050781 81.089844 25.652344 81.371094 25.234375 C 82.011719 24.28125 82.671875 23.296875 82.742188 22.011719 L 82.835938 21.84375 L 82.75 21.554688 C 82.652344 21.222656 82.554688 20.878906 82.351562 20.558594 C 82.105469 20.171875 81.742188 19.90625 81.417969 19.671875 C 81.324219 19.605469 81.234375 19.539062 81.148438 19.472656 C 80.332031 18.828125 79.457031 18.378906 78.222656 17.976562 C 77.667969 17.792969 77.066406 17.445312 76.574219 17.019531 C 76.417969 16.886719 76.28125 16.714844 76.136719 16.535156 C 75.964844 16.324219 75.789062 16.105469 75.5625 15.90625 C 75.265625 15.648438 74.960938 15.445312 74.667969 15.246094 C 74.527344 15.152344 74.371094 15.046875 74.222656 14.941406 C 74.085938 14.839844 73.945312 14.730469 73.808594 14.625 C 73.242188 14.179688 72.65625 13.722656 71.796875 13.601562 C 71.574219 13.570312 71.332031 13.554688 71.085938 13.554688 C 70.472656 13.554688 69.78125 13.648438 68.960938 13.839844 C 67.980469 14.070312 67.171875 14.824219 66.496094 15.527344 C 66.539062 15.359375 66.578125 15.183594 66.609375 15.003906 C 66.613281 14.984375 66.617188 14.953125 66.628906 14.914062 C 66.730469 14.410156 66.789062 13.996094 66.539062 13.683594 C 66.4375 13.5625 66.3125 13.492188 66.1875 13.449219 C 66.039062 13.402344 65.890625 13.394531 65.765625 13.394531 C 65.695312 13.394531 65.617188 13.398438 65.539062 13.398438 C 65.503906 13.402344 65.476562 13.402344 65.445312 13.402344 C 64.851562 13.335938 64.203125 13.304688 63.40625 13.304688 C 62.976562 13.304688 62.542969 13.3125 62.121094 13.320312 C 61.929688 13.324219 61.738281 13.328125 61.542969 13.332031 C 60.527344 13.347656 59.648438 13.699219 58.789062 14.042969 C 58.441406 14.179688 58.078125 14.324219 57.722656 14.4375 C 56.433594 14.84375 55.347656 16.011719 54.476562 16.949219 L 54.460938 16.96875 C 54.324219 17.117188 54.144531 17.25 53.957031 17.394531 C 53.734375 17.566406 53.503906 17.738281 53.296875 17.96875 C 53.070312 18.214844 52.859375 18.472656 52.65625 18.722656 C 52.496094 18.917969 52.332031 19.117188 52.167969 19.304688 C 51.863281 19.652344 51.5625 20.007812 51.269531 20.359375 C 50.804688 20.90625 50.328125 21.472656 49.835938 22 C 49.65625 22.191406 49.460938 22.375 49.253906 22.570312 C 48.507812 23.273438 47.660156 24.066406 47.566406 25.316406 C 47.511719 26.070312 47.902344 26.59375 48.214844 27.011719 C 48.308594 27.136719 48.398438 27.257812 48.472656 27.375 C 48.574219 27.535156 48.675781 27.6875 48.777344 27.84375 C 48.828125 27.917969 48.878906 27.992188 48.929688 28.066406 C 49.011719 28.199219 49.097656 28.328125 49.171875 28.460938 L 49.195312 28.5 C 49 28.492188 48.792969 28.488281 48.582031 28.488281 C 46.484375 28.488281 45.269531 28.898438 44.863281 29.734375 L 44.777344 29.910156 L 44.8125 30.105469 C 44.921875 30.691406 45.351562 31.132812 45.695312 31.484375 C 45.746094 31.539062 45.800781 31.59375 45.847656 31.644531 L 45.933594 31.738281 C 46.367188 32.199219 46.773438 32.636719 47.273438 33.054688 C 47.628906 33.347656 47.996094 33.625 48.351562 33.890625 C 48.421875 33.941406 48.488281 33.992188 48.554688 34.042969 L 48.476562 34.054688 C 48.046875 34.105469 47.613281 34.207031 47.1875 34.347656 C 46.28125 34.65625 45.402344 35.167969 44.632812 35.851562 C 44.421875 36.035156 44.191406 36.214844 43.96875 36.386719 C 43.605469 36.671875 43.230469 36.96875 42.886719 37.324219 C 42.804688 37.40625 42.726562 37.484375 42.644531 37.5625 C 42.4375 37.765625 42.222656 37.972656 42.035156 38.242188 L 41.988281 38.3125 L 41.960938 38.382812 C 41.917969 38.507812 41.851562 38.675781 41.832031 38.878906 C 41.71875 39.859375 42.574219 40.292969 42.894531 40.453125 C 43.589844 40.800781 44.433594 41.085938 45.269531 41.257812 C 46.625 41.53125 48.175781 41.914062 49.402344 42.671875 C 49.957031 43.011719 50.527344 43.476562 51.011719 43.972656 C 51.277344 44.246094 51.5 44.5625 51.734375 44.898438 C 51.949219 45.199219 52.171875 45.515625 52.4375 45.8125 C 52.585938 45.980469 52.722656 46.160156 52.863281 46.351562 C 53.128906 46.714844 53.40625 47.085938 53.796875 47.398438 C 54.199219 47.71875 54.628906 47.941406 55.054688 48.15625 C 55.238281 48.25 55.410156 48.339844 55.578125 48.4375 L 55.628906 48.464844 L 55.683594 48.480469 C 56.019531 48.597656 56.363281 48.675781 56.703125 48.75 C 56.828125 48.777344 56.953125 48.808594 57.078125 48.835938 C 57.445312 48.925781 57.820312 48.972656 58.191406 48.972656 C 58.984375 48.972656 59.753906 48.757812 60.414062 48.355469 C 60.628906 48.222656 60.867188 48.113281 61.121094 47.996094 C 61.402344 47.867188 61.691406 47.730469 61.976562 47.550781 C 62.097656 47.476562 62.214844 47.402344 62.332031 47.324219 C 62.609375 47.140625 62.871094 46.96875 63.148438 46.851562 C 63.308594 46.785156 63.492188 46.71875 63.695312 46.65625 L 64.277344 46.476562 L 64.722656 46.335938 C 64.835938 46.359375 64.941406 46.378906 65.046875 46.390625 C 65.097656 46.398438 65.152344 46.410156 65.222656 46.421875 L 65.265625 46.425781 L 65.285156 46.425781 C 65.289062 46.429688 65.320312 46.4375 65.320312 46.4375 L 65.339844 46.441406 C 65.511719 46.472656 65.6875 46.511719 65.863281 46.550781 C 66.371094 46.664062 66.894531 46.777344 67.4375 46.777344 C 67.589844 46.777344 67.742188 46.769531 67.886719 46.75 C 68.742188 46.632812 69.542969 46.167969 70.226562 45.742188 L 70.410156 45.628906 C 70.910156 45.320312 71.425781 45 71.871094 44.613281 C 72.222656 44.308594 72.542969 43.976562 72.855469 43.648438 C 73.140625 43.347656 73.414062 43.0625 73.707031 42.808594 L 73.691406 42.878906 L 74.835938 42.234375 L 74.851562 42.226562 C 75.238281 42.011719 75.628906 41.824219 76.050781 41.621094 C 76.304688 41.5 76.558594 41.378906 76.816406 41.246094 C 77.980469 40.660156 78.625 39.890625 79.347656 38.949219 C 79.753906 38.425781 80.402344 38.007812 81.035156 37.601562 C 81.179688 37.511719 81.320312 37.417969 81.457031 37.328125 C 82.09375 36.902344 82.851562 36.59375 83.585938 36.292969 C 83.730469 36.234375 83.871094 36.175781 84.015625 36.117188 C 84.484375 35.921875 84.929688 35.769531 85.417969 35.640625 C 85.960938 35.496094 87.09375 35.199219 87.394531 34.269531 C 87.742188 33.175781 86.8125 31.984375 85.855469 30.960938 " fill-opacity="1" fill-rule="nonzero"/><g clip-path="url(#d028dd56e1)"><path fill="#cae778" d="M 88.230469 53.222656 L 88.03125 52.371094 C 87.613281 52.417969 87.179688 52.453125 86.761719 52.484375 L 86.484375 52.507812 C 86.433594 52.511719 86.382812 52.515625 86.328125 52.519531 L 86.296875 51.925781 C 86.046875 51.910156 85.835938 51.894531 85.617188 51.894531 C 85.304688 51.894531 85.019531 51.921875 84.746094 51.976562 C 84.660156 51.996094 84.585938 52.015625 84.511719 52.03125 C 84.382812 52.0625 84.28125 52.085938 84.199219 52.085938 C 84.152344 52.085938 84.089844 52.082031 83.996094 52.027344 C 83.902344 51.976562 83.8125 51.921875 83.730469 51.871094 C 83.402344 51.667969 83.0625 51.460938 82.519531 51.460938 L 82.496094 51.460938 C 82.023438 51.464844 81.675781 51.640625 81.367188 51.796875 C 81.253906 51.855469 81.144531 51.910156 81.03125 51.953125 C 81.0625 51.703125 81.042969 51.324219 80.460938 51.230469 C 80.40625 51.222656 80.347656 51.214844 80.289062 51.214844 C 80.113281 51.214844 79.945312 51.257812 79.808594 51.289062 L 79.757812 51.300781 C 79.558594 51.347656 79.390625 51.429688 79.242188 51.5 C 79.238281 51.5 79.238281 51.5 79.238281 51.5 C 79.246094 51.472656 79.253906 51.441406 79.261719 51.410156 L 80.050781 50.886719 L 78.988281 50.710938 C 78.929688 50.691406 78.871094 50.679688 78.804688 50.679688 C 78.667969 50.679688 78.523438 50.730469 78.347656 50.796875 C 78.320312 50.808594 78.292969 50.816406 78.273438 50.824219 C 77.863281 50.945312 77.394531 51.113281 77.03125 51.546875 C 76.917969 51.679688 76.835938 51.820312 76.769531 51.953125 C 76.777344 51.640625 76.726562 51.3125 76.410156 51.171875 C 76.34375 51.140625 76.269531 51.125 76.191406 51.125 C 75.914062 51.125 75.636719 51.320312 75.28125 51.632812 L 75.253906 51.65625 C 74.84375 52.007812 74.558594 52.417969 74.347656 52.855469 C 74.359375 52.667969 74.355469 52.5 74.3125 52.351562 C 74.324219 52.242188 74.308594 52.101562 74.210938 51.976562 L 74.066406 51.808594 L 73.859375 51.808594 C 73.605469 51.808594 73.457031 52.007812 73.363281 52.140625 C 73.328125 52.183594 73.292969 52.214844 73.261719 52.242188 L 73.238281 52.257812 L 73.144531 52.355469 C 73.03125 52.464844 72.917969 52.578125 72.804688 52.722656 C 72.097656 53.617188 71.578125 54.332031 71.289062 55.378906 C 71 56.425781 70.863281 57.539062 70.765625 58.488281 C 70.746094 58.679688 70.742188 58.871094 70.738281 59.054688 C 70.738281 59.140625 70.734375 59.226562 70.730469 59.3125 L 70.699219 59.988281 L 69.804688 60.453125 L 70.871094 60.753906 C 70.964844 60.78125 71.058594 60.808594 71.148438 60.835938 C 71.496094 60.9375 71.851562 61.046875 72.242188 61.085938 C 72.527344 61.113281 72.808594 61.15625 73.109375 61.207031 C 73.402344 61.253906 73.707031 61.304688 74.015625 61.335938 C 74.3125 61.363281 74.628906 61.378906 74.960938 61.378906 C 75.484375 61.378906 76.050781 61.339844 76.640625 61.269531 C 76.832031 61.242188 77.027344 61.238281 77.230469 61.230469 C 77.386719 61.222656 77.550781 61.21875 77.714844 61.203125 L 77.753906 61.203125 C 78.210938 61.167969 78.570312 61.121094 78.710938 60.8125 C 78.8125 60.589844 78.753906 60.367188 78.539062 60.160156 C 78.539062 60.160156 78.539062 60.15625 78.539062 60.15625 C 78.558594 60.15625 78.578125 60.15625 78.597656 60.15625 C 78.761719 60.15625 78.925781 60.175781 79.101562 60.195312 C 79.296875 60.214844 79.496094 60.238281 79.707031 60.238281 L 79.753906 60.238281 C 80.167969 60.230469 80.566406 60.15625 80.953125 60.082031 L 80.980469 60.078125 C 81.007812 60.070312 81.039062 60.066406 81.070312 60.0625 C 81.1875 60.042969 81.328125 60.023438 81.460938 59.964844 C 81.546875 59.929688 81.574219 59.921875 81.574219 59.921875 C 81.566406 59.925781 81.558594 59.925781 81.554688 59.925781 L 81.535156 59.058594 C 81.652344 59.074219 81.757812 59.140625 81.820312 59.238281 C 81.894531 59.355469 81.882812 59.464844 81.875 59.496094 C 81.910156 59.382812 81.914062 59.289062 81.917969 59.21875 C 81.917969 59.199219 81.917969 59.179688 81.917969 59.171875 C 81.992188 59.050781 82.191406 59.003906 82.488281 58.953125 C 82.589844 58.933594 82.6875 58.917969 82.777344 58.894531 C 82.957031 58.851562 83.140625 58.796875 83.332031 58.722656 C 83.367188 58.710938 83.394531 58.699219 83.421875 58.691406 C 83.554688 58.648438 83.753906 58.585938 83.851562 58.367188 C 83.910156 58.234375 83.90625 58.085938 83.839844 57.949219 C 83.730469 57.707031 83.476562 57.628906 83.230469 57.558594 C 83.441406 57.464844 83.699219 57.425781 83.96875 57.382812 C 84.09375 57.363281 84.21875 57.34375 84.339844 57.320312 C 84.371094 57.3125 84.425781 57.308594 84.492188 57.300781 C 85.046875 57.234375 85.421875 57.167969 85.582031 56.867188 C 85.726562 56.609375 85.785156 56.222656 85.253906 55.859375 C 85.5625 55.53125 86.285156 55.277344 86.722656 55.121094 L 86.742188 55.113281 L 86.636719 54.261719 L 86.117188 54.210938 C 86.53125 53.8125 87.226562 53.570312 87.84375 53.355469 C 87.976562 53.3125 88.105469 53.265625 88.230469 53.222656 Z M 59.148438 57.90625 L 58.210938 57.886719 C 58.179688 58.050781 58.148438 58.238281 58.117188 58.425781 C 58.089844 58.585938 58.058594 58.785156 58.027344 58.957031 C 57.871094 58.058594 57.652344 57.371094 57.347656 56.828125 C 57.210938 56.589844 57.066406 56.355469 56.925781 56.132812 L 56.28125 55.105469 L 56.011719 56.183594 C 55.960938 56.378906 55.886719 56.429688 55.828125 56.453125 C 55.753906 56.339844 55.695312 56.207031 55.628906 56.054688 C 55.550781 55.867188 55.457031 55.65625 55.316406 55.453125 C 55.113281 55.15625 54.875 54.921875 54.644531 54.695312 C 54.578125 54.632812 54.515625 54.566406 54.453125 54.503906 L 53.742188 53.78125 L 53.640625 54.789062 C 53.636719 54.8125 53.632812 54.835938 53.628906 54.855469 C 53.472656 54.796875 53.289062 54.59375 53.191406 54.492188 C 52.980469 54.253906 52.746094 54.003906 52.484375 53.761719 C 52.449219 53.726562 52.113281 53.441406 51.898438 53.257812 L 51.160156 53.816406 C 51.242188 54.003906 51.269531 54.09375 51.25 54.148438 C 51.21875 54.144531 51.171875 54.132812 51.121094 54.101562 C 50.941406 54.007812 50.765625 53.832031 50.585938 53.644531 C 50.4375 53.496094 50.285156 53.339844 50.109375 53.203125 C 50.046875 53.160156 49.816406 52.953125 49.628906 52.785156 L 49.449219 52.628906 L 49.039062 52.25 L 48.742188 52.722656 C 48.738281 52.722656 48.683594 52.769531 48.453125 52.777344 L 48.425781 52.777344 C 47.800781 52.777344 46.808594 52.332031 46.457031 51.894531 L 46.421875 51.847656 L 45.550781 51.175781 L 45.550781 52.144531 C 45.550781 52.15625 45.550781 52.167969 45.550781 52.167969 C 45.546875 52.191406 45.535156 52.234375 45.441406 52.253906 C 45.429688 52.253906 45.414062 52.257812 45.402344 52.257812 C 45.261719 52.257812 45.066406 52.164062 44.886719 52.082031 C 44.839844 52.058594 44.753906 52.003906 44.671875 51.953125 C 44.5625 51.882812 44.433594 51.800781 44.304688 51.734375 L 43.371094 51.269531 L 43.632812 52.28125 C 43.660156 52.390625 43.703125 52.496094 43.742188 52.601562 C 43.785156 52.707031 43.863281 52.898438 43.847656 52.960938 C 43.808594 53.019531 43.722656 53.050781 43.589844 53.050781 C 43.515625 53.050781 43.433594 53.042969 43.359375 53.023438 C 43.222656 52.988281 43.078125 52.90625 42.921875 52.820312 C 42.855469 52.78125 42.792969 52.746094 42.722656 52.710938 C 42.648438 52.671875 42.582031 52.644531 42.523438 52.625 C 42.503906 52.617188 42.488281 52.609375 42.472656 52.601562 L 41.847656 52.328125 L 41.8125 53.011719 C 41.789062 53.054688 41.613281 53.140625 41.417969 53.140625 C 41.082031 53.140625 40.734375 53.039062 40.367188 52.933594 C 39.945312 52.808594 39.507812 52.683594 39.027344 52.683594 C 38.996094 52.683594 38.960938 52.683594 38.925781 52.683594 C 38.75 52.691406 38.585938 52.714844 38.429688 52.738281 C 38.277344 52.757812 38.132812 52.777344 37.996094 52.78125 L 36.398438 52.820312 L 37.757812 53.664062 C 37.875 53.734375 38.011719 53.851562 38.136719 53.953125 C 38.230469 54.03125 38.320312 54.105469 38.40625 54.167969 C 38.75 54.40625 39.136719 54.675781 39.546875 54.914062 C 39.65625 54.976562 39.761719 55.035156 39.871094 55.09375 C 40.179688 55.261719 40.457031 55.410156 40.667969 55.625 C 40.628906 55.625 40.589844 55.621094 40.550781 55.621094 C 40.484375 55.617188 40.417969 55.613281 40.347656 55.613281 L 40.324219 55.613281 C 40.308594 55.613281 40.289062 55.613281 40.265625 55.609375 C 40.21875 55.609375 40.167969 55.605469 40.117188 55.605469 C 39.957031 55.605469 39.828125 55.636719 39.71875 55.707031 L 39.378906 55.910156 L 39.472656 56.261719 L 39.570312 56.609375 L 39.878906 56.609375 C 40.148438 56.800781 40.449219 56.914062 40.738281 57.023438 C 40.992188 57.121094 41.238281 57.214844 41.414062 57.347656 L 40.945312 57.882812 L 41.714844 58.066406 C 41.773438 58.078125 41.835938 58.09375 41.898438 58.105469 C 42.359375 58.210938 42.6875 58.296875 42.714844 58.472656 C 42.71875 58.496094 42.726562 58.554688 42.5625 58.707031 C 42.535156 58.726562 42.445312 58.78125 42.386719 58.820312 C 42.335938 58.851562 42.28125 58.882812 42.226562 58.917969 L 41.0625 59.671875 L 42.472656 59.796875 C 43.136719 59.851562 43.652344 59.921875 43.742188 60.25 C 43.777344 60.371094 43.722656 60.527344 43.574219 60.710938 C 43.492188 60.8125 43.414062 60.898438 43.355469 60.949219 L 42.414062 61.785156 L 43.691406 61.785156 C 43.929688 61.804688 44.171875 61.824219 44.414062 61.84375 C 44.773438 61.871094 45.128906 61.898438 45.488281 61.933594 L 45.539062 61.9375 C 45.730469 61.953125 45.949219 61.972656 46.039062 62.054688 C 46.085938 62.097656 46.101562 62.125 46.105469 62.128906 C 46.089844 62.210938 45.910156 62.40625 45.808594 62.515625 L 45.003906 63.390625 L 46.191406 63.3125 C 46.242188 63.308594 46.292969 63.304688 46.34375 63.300781 C 46.417969 63.292969 46.488281 63.289062 46.542969 63.289062 C 46.660156 63.289062 46.773438 63.289062 46.890625 63.289062 C 47.007812 63.289062 47.128906 63.289062 47.246094 63.289062 C 47.367188 63.289062 47.488281 63.289062 47.609375 63.289062 C 47.699219 63.285156 47.792969 63.277344 47.890625 63.269531 C 47.992188 63.257812 48.089844 63.25 48.175781 63.25 C 48.269531 63.25 48.335938 63.261719 48.378906 63.277344 C 48.386719 63.28125 48.394531 63.289062 48.402344 63.292969 C 48.304688 63.441406 48.035156 63.679688 47.910156 63.789062 L 47.175781 64.449219 L 48.070312 64.65625 C 48.199219 64.6875 48.34375 64.703125 48.503906 64.703125 C 48.980469 64.703125 49.515625 64.566406 49.867188 64.480469 C 49.941406 64.460938 50.007812 64.445312 50.058594 64.433594 C 50.148438 64.410156 50.238281 64.390625 50.328125 64.371094 C 50.691406 64.285156 51.007812 64.210938 51.332031 64.210938 C 51.367188 64.210938 51.402344 64.210938 51.433594 64.214844 C 51.355469 64.308594 51.242188 64.40625 51.125 64.496094 L 51.070312 64.542969 C 51.019531 64.582031 50.957031 64.632812 50.921875 64.648438 L 51.191406 65.550781 C 51.992188 65.445312 52.882812 65.390625 53.996094 65.378906 L 54.175781 65.378906 C 54.390625 65.378906 54.609375 65.378906 54.824219 65.382812 C 55.046875 65.386719 55.269531 65.386719 55.492188 65.386719 C 55.933594 65.386719 56.507812 65.378906 57.085938 65.308594 L 57.28125 65.285156 L 58.277344 65.160156 C 58.308594 65.171875 58.335938 65.179688 58.367188 65.1875 C 58.472656 65.207031 58.558594 65.164062 58.609375 65.097656 L 58.667969 65.132812 L 59.347656 65.054688 L 59.40625 64.703125 C 59.558594 63.828125 59.554688 62.941406 59.554688 62.082031 C 59.554688 61.820312 59.554688 61.5625 59.558594 61.300781 C 59.574219 60.429688 59.429688 59.59375 59.289062 58.785156 C 59.242188 58.496094 59.1875 58.199219 59.148438 57.90625 Z M 57.75 70.3125 L 58.738281 70.410156 L 57.960938 71.078125 C 57.757812 71.25 57.554688 71.441406 57.34375 71.667969 C 57.171875 71.847656 57.011719 72.082031 56.855469 72.308594 C 56.78125 72.414062 56.710938 72.519531 56.636719 72.621094 C 56.589844 72.683594 56.5 72.886719 56.429688 73.050781 C 56.363281 73.195312 56.296875 73.34375 56.226562 73.488281 L 55.816406 74.308594 L 55.476562 73.546875 C 55.347656 73.65625 55.226562 73.78125 55.097656 73.914062 C 54.976562 74.039062 54.847656 74.171875 54.707031 74.296875 L 53.761719 75.148438 L 53.992188 73.894531 C 54.007812 73.796875 54.011719 73.703125 54.007812 73.605469 C 53.417969 73.910156 52.816406 74.386719 52.308594 74.957031 C 51.957031 75.351562 51.492188 75.671875 51.082031 75.933594 L 50.097656 76.5625 L 50.390625 75.585938 C 50.285156 75.625 50.175781 75.722656 50.019531 75.863281 C 49.894531 75.980469 49.75 76.109375 49.574219 76.21875 L 49.449219 76.296875 C 48.867188 76.65625 48.144531 77.105469 47.359375 77.121094 L 46.664062 77.136719 C 46.664062 77.136719 46.996094 76.417969 47.003906 76.398438 C 46.96875 76.40625 46.925781 76.417969 46.875 76.433594 L 45.554688 76.804688 L 46.417969 75.738281 C 46.523438 75.605469 46.601562 75.488281 46.640625 75.390625 C 46.414062 75.367188 46.1875 75.367188 45.945312 75.363281 C 45.6875 75.363281 45.417969 75.363281 45.144531 75.332031 C 44.980469 75.3125 44.804688 75.304688 44.589844 75.304688 C 44.402344 75.304688 44.21875 75.3125 44.03125 75.316406 C 43.839844 75.324219 43.648438 75.332031 43.460938 75.332031 C 43.242188 75.332031 43.039062 75.34375 42.824219 75.371094 L 42.578125 74.746094 C 42.320312 74.953125 42.125 75.171875 41.996094 75.378906 L 41.894531 75.550781 L 41.699219 75.582031 C 41.578125 75.605469 41.484375 75.613281 41.394531 75.617188 L 40.585938 75.660156 L 40.996094 74.960938 C 41.328125 74.398438 41.675781 73.957031 42.128906 73.523438 C 42.1875 73.46875 42.246094 73.414062 42.304688 73.355469 C 42.648438 73.035156 43.035156 72.671875 43.214844 72.296875 L 42.9375 71.976562 L 43.390625 71.714844 C 43.578125 71.609375 43.789062 71.507812 43.929688 71.445312 C 43.972656 71.421875 44.007812 71.40625 44.03125 71.394531 C 44.117188 71.351562 44.199219 71.316406 44.28125 71.28125 C 44.441406 71.214844 44.570312 71.160156 44.65625 71.070312 L 44.703125 70.925781 L 44.847656 70.84375 C 45.308594 70.566406 45.800781 70.34375 46.3125 70.1875 C 46.507812 70.125 46.703125 70.117188 46.878906 70.109375 C 47.050781 70.101562 47.171875 70.097656 47.246094 70.058594 L 46.960938 69.429688 L 47.742188 69.519531 C 47.800781 69.523438 47.855469 69.53125 47.90625 69.535156 C 48.226562 69.546875 48.539062 69.578125 48.84375 69.609375 C 48.960938 69.617188 49.082031 69.632812 49.199219 69.640625 C 49.300781 69.648438 49.402344 69.660156 49.503906 69.667969 C 49.863281 69.703125 50.230469 69.734375 50.585938 69.734375 C 50.796875 69.734375 50.984375 69.722656 51.152344 69.699219 C 51.152344 69.691406 51.152344 69.679688 51.152344 69.671875 C 51.152344 69.414062 51.152344 69.097656 51.449219 68.964844 C 51.515625 68.933594 51.597656 68.914062 51.683594 68.914062 C 51.855469 68.914062 52.039062 68.980469 52.246094 69.0625 C 52.28125 69.074219 52.3125 69.089844 52.332031 69.09375 C 52.5 69.140625 52.636719 69.160156 52.777344 69.160156 C 52.796875 69.160156 52.820312 69.160156 52.84375 69.160156 C 52.792969 69.089844 52.738281 69.019531 52.683594 68.949219 C 52.636719 68.886719 52.589844 68.828125 52.546875 68.765625 L 52.015625 68.035156 L 52.914062 68.070312 C 53.441406 68.089844 54.304688 68.335938 54.402344 68.363281 C 55.226562 68.601562 55.960938 69.105469 56.640625 69.597656 C 56.761719 69.6875 56.875 69.777344 56.984375 69.867188 C 57.039062 69.914062 57.09375 69.960938 57.152344 70.003906 L 57.53125 70.304688 L 57.589844 70.28125 L 57.722656 70.308594 C 57.730469 70.308594 57.742188 70.3125 57.75 70.3125 " fill-opacity="1" fill-rule="nonzero"/></g><g clip-path="url(#73d03bfbab)"><path fill="#ef2f7f" d="M 85.808594 53.304688 C 85.605469 53.558594 85.742188 53.894531 86.066406 53.925781 C 86.320312 53.949219 86.570312 53.972656 86.824219 53.996094 C 86.234375 54.203125 85.351562 54.515625 84.957031 55.003906 C 84.832031 55.160156 84.796875 55.382812 84.957031 55.535156 C 85.113281 55.691406 85.484375 55.800781 85.3125 56.117188 C 85.214844 56.289062 84.464844 56.332031 84.285156 56.367188 C 83.769531 56.46875 83.199219 56.484375 82.753906 56.78125 C 82.507812 56.945312 82.511719 57.273438 82.753906 57.4375 C 82.890625 57.53125 83.355469 57.597656 83.410156 57.714844 C 83.460938 57.824219 83.3125 57.835938 83.125 57.90625 C 82.945312 57.976562 82.765625 58.03125 82.578125 58.078125 C 82.15625 58.179688 81.597656 58.175781 81.347656 58.597656 C 81.253906 58.761719 81.304688 58.886719 81.257812 59.050781 C 81.222656 59.160156 81.257812 59.183594 81.28125 59.1875 C 81.253906 59.191406 81.195312 59.210938 81.078125 59.261719 C 80.953125 59.316406 80.789062 59.328125 80.652344 59.351562 C 80.242188 59.429688 79.828125 59.511719 79.410156 59.515625 C 78.917969 59.523438 78.457031 59.398438 77.964844 59.4375 C 77.597656 59.46875 77.425781 59.871094 77.671875 60.148438 C 77.792969 60.289062 77.890625 60.332031 77.851562 60.421875 C 77.800781 60.53125 77.28125 60.554688 77.167969 60.566406 C 76.773438 60.597656 76.382812 60.585938 75.988281 60.636719 C 75.101562 60.746094 74.136719 60.796875 73.246094 60.707031 C 72.601562 60.644531 71.96875 60.496094 71.324219 60.4375 C 70.839844 60.386719 70.386719 60.226562 69.925781 60.09375 C 70.003906 60.054688 70.082031 60.011719 70.160156 59.964844 C 71.039062 59.417969 71.847656 58.722656 72.652344 58.070312 C 73.160156 57.65625 73.652344 57.359375 74.222656 57.050781 C 74.679688 56.800781 75.070312 56.464844 75.511719 56.191406 C 76.347656 55.683594 77.300781 55.316406 78.179688 54.886719 C 79.125 54.421875 80.101562 53.972656 81.09375 53.628906 C 81.617188 53.449219 82.15625 53.300781 82.671875 53.105469 C 83.132812 52.929688 83.53125 52.707031 84.023438 52.601562 C 84.910156 52.40625 85.832031 52.167969 86.742188 52.097656 C 87.300781 52.050781 87.867188 52.011719 88.429688 51.949219 C 87.539062 52.273438 86.40625 52.574219 85.808594 53.304688 Z M 70.15625 58.148438 C 70.265625 57.058594 70.414062 55.914062 70.703125 54.859375 C 71.003906 53.777344 71.578125 53.015625 72.257812 52.152344 C 72.390625 51.984375 72.527344 51.859375 72.675781 51.710938 C 72.746094 51.652344 72.8125 51.585938 72.871094 51.515625 C 73.027344 51.292969 73.082031 51.285156 73.035156 51.496094 C 73.214844 51.878906 72.902344 52.855469 72.867188 53.261719 C 72.832031 53.664062 73.433594 53.710938 73.546875 53.355469 C 73.824219 52.480469 74.136719 51.671875 74.847656 51.0625 C 74.945312 50.980469 75.429688 50.535156 75.601562 50.613281 C 75.804688 50.703125 75.648438 51.375 75.679688 51.609375 C 75.722656 51.9375 76.109375 52.078125 76.3125 51.777344 C 76.507812 51.492188 76.601562 51.164062 76.828125 50.890625 C 77.125 50.53125 77.511719 50.386719 77.945312 50.253906 C 78.039062 50.226562 78.34375 50.089844 78.421875 50.125 C 78.441406 50.132812 78.457031 50.140625 78.464844 50.140625 C 78.453125 50.148438 78.433594 50.175781 78.429688 50.246094 C 78.421875 50.410156 78.300781 50.59375 78.28125 50.773438 C 78.265625 50.992188 78.519531 51.175781 78.71875 51.105469 C 79.003906 51.011719 79.234375 50.851562 79.53125 50.777344 C 79.695312 50.742188 79.921875 50.679688 80.097656 50.707031 C 80.378906 50.753906 80.355469 50.792969 80.308594 51.105469 C 80.265625 51.367188 80.460938 51.617188 80.742188 51.542969 C 81.324219 51.386719 81.726562 50.972656 82.390625 50.964844 C 82.992188 50.960938 83.292969 51.253906 83.78125 51.523438 C 84.191406 51.75 84.46875 51.605469 84.914062 51.515625 C 85.460938 51.40625 85.945312 51.429688 86.460938 51.46875 C 86.03125 51.554688 85.597656 51.710938 85.167969 51.746094 C 84.699219 51.78125 84.308594 51.828125 83.835938 51.914062 C 83.324219 52.007812 82.953125 52.199219 82.46875 52.375 C 81.875 52.59375 81.234375 52.726562 80.625 52.925781 C 79.640625 53.25 78.679688 53.6875 77.75 54.140625 C 76.792969 54.605469 75.746094 54.988281 74.855469 55.578125 C 73.949219 56.183594 72.984375 56.671875 72.144531 57.371094 C 71.488281 57.917969 70.832031 58.519531 70.117188 59.011719 C 70.128906 58.722656 70.125 58.429688 70.15625 58.148438 Z M 66.996094 58.347656 C 66.75 59.023438 66.480469 59.675781 66.308594 60.378906 C 66.128906 61.140625 66.019531 61.917969 65.785156 62.667969 C 65.386719 63.949219 64.878906 65.210938 64.445312 66.480469 C 64.011719 67.746094 63.523438 69.003906 63.089844 70.273438 C 62.695312 71.445312 62.246094 72.582031 61.808594 73.742188 C 61.238281 75.265625 60.382812 76.667969 59.742188 78.15625 C 59.265625 79.257812 58.8125 80.449219 58.542969 81.636719 C 58.128906 81.410156 57.632812 81.285156 57.222656 81.242188 C 56.714844 81.191406 56.003906 81.171875 55.425781 81.335938 C 55.519531 81.070312 55.625 80.804688 55.695312 80.558594 C 55.882812 79.925781 56.097656 79.296875 56.339844 78.683594 C 56.820312 77.46875 57.292969 76.203125 57.933594 75.066406 C 58.492188 74.074219 59.203125 73.164062 59.75 72.15625 C 60.308594 71.121094 60.90625 70.105469 61.476562 69.082031 C 61.765625 68.558594 61.917969 67.949219 62.21875 67.445312 C 62.519531 66.945312 62.777344 66.453125 63.035156 65.925781 C 63.65625 64.644531 64.394531 63.421875 64.984375 62.128906 C 65.980469 59.949219 66.679688 57.480469 67.058594 55.117188 C 67.253906 53.886719 67.527344 52.664062 67.691406 51.429688 C 67.859375 50.15625 67.894531 48.882812 67.894531 47.601562 C 68.347656 47.511719 68.796875 47.347656 69.230469 47.136719 C 69.132812 48.152344 69.015625 49.15625 68.96875 50.183594 C 68.941406 50.867188 68.804688 51.558594 68.671875 52.226562 C 68.535156 52.929688 68.484375 53.660156 68.304688 54.355469 C 67.949219 55.714844 67.472656 57.023438 66.996094 58.347656 Z M 57.867188 83.085938 C 57.457031 83.179688 56.960938 83.191406 56.5625 83.058594 C 56.261719 82.957031 55.933594 82.757812 55.65625 82.589844 C 55.574219 82.539062 55.378906 82.453125 55.296875 82.363281 C 55.347656 82.367188 55.429688 82.234375 55.488281 82.179688 C 55.546875 82.125 55.585938 82.070312 55.609375 82.011719 C 55.683594 82.015625 55.761719 82.015625 55.839844 82.015625 C 56.296875 81.988281 56.710938 81.933594 57.164062 82.011719 C 57.664062 82.097656 58.011719 82.289062 58.375 82.535156 C 58.332031 82.835938 58.289062 82.988281 57.867188 83.085938 Z M 64.925781 46.269531 C 64.886719 46.257812 64.839844 46.25 64.792969 46.246094 L 64.785156 46.246094 C 64.71875 46.234375 64.652344 46.222656 64.585938 46.214844 C 63.648438 46.089844 62.765625 45.640625 61.898438 45.214844 C 61.761719 45.113281 61.625 45.019531 61.476562 44.929688 C 60.960938 44.601562 60.453125 44.410156 59.890625 44.171875 C 59.324219 43.933594 58.714844 43.832031 58.144531 43.609375 C 57.621094 43.40625 57.167969 43.109375 56.617188 42.945312 C 55.910156 42.738281 55.386719 42.417969 54.753906 42.066406 C 54.136719 41.722656 53.789062 41.300781 53.339844 40.757812 C 52.882812 40.210938 52.601562 39.707031 52.25 39.101562 C 51.929688 38.539062 51.519531 38.0625 51.144531 37.539062 C 50.386719 36.476562 49.75 35.355469 48.8125 34.4375 C 47.917969 33.558594 46.832031 32.871094 45.863281 32.066406 C 45.324219 31.617188 44.871094 31.125 44.390625 30.613281 C 44.054688 30.25 43.542969 29.804688 43.445312 29.277344 C 44.089844 27.945312 48.164062 28.332031 49.132812 28.421875 C 50.234375 28.527344 51.308594 28.84375 52.382812 29.113281 C 52.773438 29.210938 53.183594 29.269531 53.570312 29.386719 C 53.992188 29.515625 54.34375 29.785156 54.769531 29.84375 C 54.957031 30.042969 55.164062 30.21875 55.421875 30.253906 C 55.789062 30.300781 55.875 29.851562 55.683594 29.613281 C 55.582031 29.359375 55.355469 29.113281 55.183594 28.917969 C 54.789062 28.464844 54.484375 28.03125 54.152344 27.527344 C 53.8125 27.015625 53.453125 26.515625 53.179688 25.960938 C 52.878906 25.351562 52.863281 24.78125 52.875 24.113281 C 52.898438 22.992188 53.429688 20.964844 54.886719 21.261719 C 55.453125 21.378906 55.964844 21.570312 56.472656 21.859375 C 56.875 22.089844 57.222656 22.390625 57.699219 22.398438 C 57.863281 22.402344 57.984375 22.261719 58.011719 22.109375 C 58.472656 22.289062 58.960938 22.429688 59.40625 22.566406 C 60.195312 22.804688 60.949219 22.945312 61.761719 22.9375 C 62.265625 23.425781 63.042969 23.695312 63.695312 23.765625 C 64.828125 23.890625 65.722656 23.507812 66.585938 22.800781 C 67.207031 22.289062 67.953125 21.394531 67.6875 20.535156 C 67.679688 20.515625 67.671875 20.5 67.664062 20.480469 C 67.738281 20.472656 67.8125 20.464844 67.886719 20.453125 C 68.121094 20.414062 68.113281 20.023438 67.886719 19.980469 C 66.277344 19.691406 64.996094 20.203125 64.011719 21.5 C 63.796875 21.777344 64.273438 22.148438 64.496094 21.875 C 64.957031 21.316406 65.464844 20.898438 66.167969 20.683594 C 66.421875 20.605469 66.679688 20.570312 66.9375 20.546875 C 66.628906 21.703125 65.0625 22.871094 63.75 22.574219 C 63.3125 22.480469 62.910156 22.363281 62.59375 22.023438 C 62.136719 21.539062 62.222656 20.910156 62.039062 20.371094 C 62.601562 19.675781 63.679688 19.1875 64.417969 18.839844 C 64.820312 18.648438 65.261719 18.46875 65.710938 18.308594 C 65.726562 18.3125 65.734375 18.320312 65.75 18.324219 C 66 18.414062 66.191406 18.300781 66.28125 18.121094 C 66.914062 17.925781 67.5625 17.777344 68.171875 17.703125 C 68.617188 17.644531 69.089844 17.605469 69.539062 17.589844 C 70.195312 17.574219 70.6875 17.6875 71.289062 17.933594 C 71.753906 18.125 72.226562 18.273438 72.597656 18.609375 C 73.101562 19.074219 73.433594 19.785156 73.652344 20.421875 C 74.0625 21.621094 73.800781 22.964844 73.292969 24.074219 C 72.933594 24.867188 72.488281 25.261719 71.945312 25.894531 C 71.636719 26.257812 71.34375 26.648438 71.066406 27.035156 C 70.707031 27.535156 70.472656 28.289062 69.953125 28.632812 C 69.492188 28.941406 68.976562 29.058594 68.453125 29.207031 C 67.875 29.375 67.304688 29.613281 66.75 29.847656 C 65.554688 30.359375 64.359375 31.058594 63.507812 32.0625 C 63.191406 32.4375 62.898438 32.863281 62.617188 33.265625 C 62.402344 33.574219 62.152344 33.894531 61.984375 34.246094 C 61.871094 34.195312 61.761719 34.144531 61.652344 34.09375 C 60.671875 33.671875 59.832031 32.914062 58.929688 32.355469 C 58.136719 31.867188 57.511719 31.195312 56.796875 30.605469 C 56.527344 30.386719 56.148438 30.746094 56.40625 30.996094 C 56.894531 31.457031 57.296875 31.980469 57.785156 32.429688 C 58.484375 33.074219 59.324219 33.625 60.089844 34.191406 C 60.84375 34.746094 61.691406 35.1875 62.519531 35.621094 C 63.550781 36.160156 64.605469 36.703125 65.722656 37.042969 C 66.691406 37.339844 67.613281 37.804688 68.597656 38.066406 C 69.542969 38.3125 70.519531 38.355469 71.472656 38.515625 C 71.507812 38.589844 71.578125 38.652344 71.691406 38.675781 C 71.875 38.714844 72.011719 38.703125 72.128906 38.652344 C 72.160156 38.660156 72.191406 38.664062 72.222656 38.675781 C 72.734375 38.8125 73.355469 39 73.628906 39.507812 C 73.90625 40.023438 73.882812 41.058594 73.765625 41.574219 C 73.691406 41.898438 73.550781 42.207031 73.378906 42.503906 C 72.683594 43.113281 72.097656 43.847656 71.394531 44.457031 C 70.898438 44.890625 70.273438 45.257812 69.714844 45.605469 C 69.039062 46.027344 68.246094 46.488281 67.453125 46.59375 C 66.628906 46.707031 65.753906 46.425781 64.925781 46.269531 Z M 62.21875 46.75 C 61.734375 46.953125 61.320312 47.269531 60.875 47.546875 C 60.339844 47.878906 59.738281 48.078125 59.203125 48.40625 C 58.273438 48.972656 57.171875 49.105469 56.109375 48.84375 C 55.640625 48.730469 55.136719 48.640625 54.667969 48.480469 C 54.058594 48.132812 53.398438 47.867188 52.84375 47.425781 C 52.277344 46.976562 51.941406 46.335938 51.464844 45.800781 C 50.894531 45.164062 50.511719 44.421875 49.914062 43.804688 C 49.371094 43.25 48.730469 42.722656 48.066406 42.316406 C 46.699219 41.46875 44.992188 41.035156 43.4375 40.71875 C 42.636719 40.558594 41.785156 40.28125 41.050781 39.914062 C 40.625 39.699219 40.195312 39.429688 40.257812 38.863281 C 40.273438 38.722656 40.320312 38.597656 40.367188 38.472656 C 40.601562 38.140625 40.90625 37.886719 41.214844 37.570312 C 41.773438 36.992188 42.4375 36.5625 43.046875 36.027344 C 44.101562 35.097656 45.429688 34.421875 46.820312 34.257812 C 47.234375 34.566406 47.640625 34.882812 48 35.253906 C 48.84375 36.109375 49.398438 37.179688 50.078125 38.160156 C 50.382812 38.59375 50.710938 38.996094 50.988281 39.445312 C 51.25 39.871094 51.441406 40.328125 51.734375 40.734375 C 52.261719 41.464844 53.070312 42.394531 53.867188 42.820312 C 54.300781 43.050781 54.734375 43.308594 55.179688 43.523438 C 55.675781 43.761719 56.199219 43.847656 56.710938 44.035156 C 57.152344 44.195312 57.542969 44.464844 57.992188 44.617188 C 58.558594 44.8125 59.128906 44.941406 59.683594 45.167969 C 60.695312 45.582031 61.550781 46.195312 62.625 46.453125 C 62.703125 46.472656 62.78125 46.496094 62.863281 46.519531 C 62.632812 46.589844 62.414062 46.667969 62.21875 46.75 Z M 61.207031 22.121094 C 60.25 21.914062 59.324219 21.507812 58.425781 21.160156 C 57.609375 20.839844 57.117188 20.320312 57.0625 19.421875 C 57.003906 18.539062 57.121094 17.859375 57.761719 17.214844 C 58.722656 16.246094 60.917969 16.394531 62.167969 16.507812 C 63.105469 16.59375 63.820312 17.164062 64.566406 17.671875 C 64.34375 17.765625 64.121094 17.863281 63.910156 17.964844 C 63.097656 18.355469 61.859375 18.949219 61.332031 19.828125 C 61.285156 19.84375 61.238281 19.875 61.203125 19.921875 C 60.714844 20.542969 60.871094 21.410156 61.207031 22.121094 Z M 46.40625 24.3125 C 46.507812 22.898438 47.773438 22.101562 48.664062 21.148438 C 49.539062 20.214844 50.332031 19.210938 51.175781 18.246094 C 51.585938 17.78125 51.960938 17.277344 52.375 16.824219 C 52.738281 16.425781 53.25 16.15625 53.621094 15.757812 C 54.492188 14.820312 55.613281 13.609375 56.839844 13.21875 C 58.15625 12.804688 59.347656 12.085938 60.753906 12.066406 C 62.132812 12.042969 63.503906 11.984375 64.863281 12.136719 C 65.015625 12.15625 65.496094 12.074219 65.605469 12.210938 C 65.726562 12.359375 65.578125 12.945312 65.546875 13.113281 C 65.484375 13.480469 65.378906 13.839844 65.285156 14.199219 C 65.246094 14.242188 65.210938 14.285156 65.175781 14.328125 C 64.816406 14.761719 64.386719 15.214844 64.085938 15.683594 C 64.035156 15.765625 63.960938 15.882812 63.917969 16.027344 C 63.90625 16.019531 63.898438 16.015625 63.890625 16.011719 C 63.007812 15.527344 62.148438 15.472656 61.164062 15.46875 C 59.324219 15.464844 57.574219 15.535156 56.429688 17.167969 C 55.746094 18.140625 55.726562 19.695312 56.335938 20.785156 C 56.222656 20.71875 56.105469 20.65625 55.980469 20.605469 C 55.453125 20.394531 54.792969 20.175781 54.21875 20.273438 C 52.855469 20.503906 52.140625 22.144531 51.945312 23.371094 C 51.679688 25.035156 52.144531 26.339844 53.089844 27.691406 C 53.269531 27.953125 53.449219 28.214844 53.632812 28.472656 C 53.625 28.46875 53.617188 28.464844 53.605469 28.460938 C 53.035156 28.261719 52.445312 28.136719 51.863281 27.96875 C 50.570312 27.589844 49.359375 27.359375 48.039062 27.3125 C 47.804688 26.910156 47.53125 26.539062 47.277344 26.136719 C 46.902344 25.535156 46.347656 25.074219 46.40625 24.3125 Z M 72.390625 36.757812 C 72.296875 37.003906 72.167969 37.132812 72.046875 37.351562 C 72.011719 37.410156 71.976562 37.507812 71.941406 37.609375 C 71.300781 37.488281 70.65625 37.492188 70.015625 37.363281 C 69.363281 37.234375 68.742188 37.101562 68.113281 36.875 C 67.015625 36.480469 65.878906 36.128906 64.808594 35.65625 C 64.058594 35.324219 63.339844 34.925781 62.613281 34.554688 C 62.890625 34.171875 63.261719 33.789062 63.519531 33.480469 C 63.9375 32.976562 64.3125 32.480469 64.8125 32.046875 C 65.933594 31.066406 67.527344 30.472656 68.949219 30.089844 C 70.085938 29.785156 70.925781 29.332031 71.53125 28.3125 C 71.730469 27.980469 71.949219 27.65625 72.179688 27.34375 C 72.179688 27.984375 72.269531 28.617188 72.433594 29.277344 C 72.699219 30.34375 73.335938 31.292969 73.339844 32.398438 C 73.34375 33.316406 73 34.355469 72.777344 35.25 C 72.652344 35.738281 72.574219 36.285156 72.390625 36.757812 Z M 68.835938 12.59375 C 69.71875 12.382812 70.738281 12.21875 71.636719 12.347656 C 72.597656 12.480469 73.207031 13.125 73.957031 13.667969 C 74.425781 14.007812 74.902344 14.28125 75.347656 14.664062 C 75.753906 15.023438 76.019531 15.503906 76.433594 15.859375 C 76.992188 16.34375 77.710938 16.777344 78.414062 17.007812 C 79.503906 17.363281 80.441406 17.785156 81.355469 18.503906 C 81.738281 18.808594 82.238281 19.089844 82.5 19.507812 C 82.679688 19.796875 82.773438 20.136719 82.871094 20.472656 C 82.84375 20.519531 82.828125 20.574219 82.824219 20.640625 C 82.75 22.4375 81.382812 23.6875 80.605469 25.207031 C 79.859375 26.65625 79.027344 28.011719 78.046875 29.304688 C 76.9375 30.765625 75.886719 32.125 75.054688 33.773438 C 74.605469 34.671875 74.15625 35.566406 73.667969 36.441406 C 73.445312 36.839844 72.957031 37.34375 72.828125 37.832031 C 72.808594 37.824219 72.789062 37.820312 72.769531 37.8125 C 72.921875 37.539062 73.066406 37.25 73.164062 36.96875 C 73.523438 35.929688 73.757812 34.777344 73.957031 33.699219 C 74.074219 33.0625 74.144531 32.539062 74.082031 31.882812 C 74.027344 31.289062 73.949219 31.003906 73.664062 30.496094 C 72.976562 29.277344 72.890625 27.761719 72.960938 26.394531 C 73.191406 26.15625 73.4375 25.933594 73.605469 25.648438 C 74.191406 24.648438 74.796875 23.738281 74.863281 22.53125 C 74.9375 21.210938 74.792969 19.996094 74.050781 18.867188 C 73.765625 18.4375 73.464844 17.863281 73.011719 17.589844 C 72.488281 17.273438 71.882812 17.09375 71.324219 16.859375 C 70.308594 16.425781 69.179688 16.558594 68.105469 16.6875 C 67.335938 16.777344 66.53125 16.972656 65.757812 17.226562 C 65.566406 17.097656 65.375 16.929688 65.207031 16.820312 C 65.019531 16.699219 64.832031 16.582031 64.644531 16.460938 C 64.648438 16.449219 64.652344 16.4375 64.652344 16.425781 C 64.667969 16.3125 64.945312 16.035156 65.03125 15.929688 C 65.386719 15.511719 65.710938 15.0625 66.085938 14.664062 C 66.820312 13.886719 67.761719 12.84375 68.835938 12.59375 Z M 82.304688 27.417969 C 82.871094 27.617188 83.300781 27.871094 83.757812 28.257812 C 84.667969 29.023438 85.511719 29.878906 86.328125 30.75 C 86.898438 31.359375 88.140625 32.703125 87.832031 33.660156 C 87.625 34.296875 86.710938 34.566406 86.15625 34.710938 C 85.605469 34.859375 85.097656 35.03125 84.574219 35.25 C 83.613281 35.652344 82.597656 36.023438 81.726562 36.605469 C 80.90625 37.148438 79.921875 37.695312 79.316406 38.484375 C 78.566406 39.460938 77.941406 40.199219 76.820312 40.765625 C 76.085938 41.136719 75.378906 41.441406 74.691406 41.828125 C 74.894531 40.9375 74.90625 39.789062 74.464844 39.019531 C 74.203125 38.5625 73.800781 38.253906 73.339844 38.035156 C 73.464844 37.800781 73.722656 37.613281 73.878906 37.410156 C 74.175781 37.015625 74.40625 36.5625 74.679688 36.15625 C 75.238281 35.332031 75.777344 34.515625 76.253906 33.640625 C 76.726562 32.789062 77.214844 32.03125 77.816406 31.265625 C 78.375 30.554688 78.96875 29.835938 79.488281 29.097656 C 79.898438 28.503906 80.292969 27.886719 80.660156 27.257812 C 80.707031 27.171875 80.757812 27.085938 80.804688 27 C 80.855469 27.019531 80.914062 27.027344 80.980469 27.019531 C 81.386719 26.980469 81.9375 27.285156 82.304688 27.417969 Z M 57.6875 70.714844 C 57.382812 71.035156 57.136719 71.445312 56.875 71.804688 C 56.746094 71.984375 56.574219 72.441406 56.386719 72.820312 C 56.359375 72.757812 56.316406 72.695312 56.253906 72.644531 C 56.101562 72.527344 55.9375 72.523438 55.785156 72.644531 C 55.441406 72.925781 55.164062 73.265625 54.835938 73.558594 C 54.867188 73.386719 54.875 73.203125 54.847656 72.992188 C 54.8125 72.707031 54.566406 72.539062 54.292969 72.675781 C 53.507812 73.054688 52.757812 73.671875 52.179688 74.320312 C 51.839844 74.703125 51.375 75.019531 50.9375 75.300781 C 50.992188 75.117188 50.910156 74.867188 50.699219 74.835938 C 50.0625 74.738281 49.78125 75.308594 49.296875 75.609375 C 48.65625 76.003906 47.902344 76.507812 47.117188 76.523438 C 47.246094 76.242188 47.417969 75.949219 47.019531 75.734375 C 46.925781 75.679688 46.699219 75.722656 46.46875 75.789062 C 46.667969 75.542969 46.828125 75.28125 46.855469 75.007812 C 46.875 74.796875 46.671875 74.671875 46.496094 74.648438 C 45.921875 74.574219 45.339844 74.636719 44.757812 74.574219 C 44.140625 74.507812 43.488281 74.566406 42.867188 74.566406 C 42.597656 74.570312 42.351562 74.585938 42.113281 74.617188 C 42.980469 73.988281 44.011719 73.492188 44.953125 73.128906 C 46.605469 72.488281 48.324219 71.855469 50.089844 71.597656 C 51.597656 71.375 53.128906 71.238281 54.644531 71.078125 C 55.347656 71.003906 56.117188 70.894531 56.796875 70.691406 C 57.324219 70.53125 57.832031 70.25 58.351562 70.023438 C 58.367188 70.027344 58.378906 70.035156 58.394531 70.035156 C 58.148438 70.25 57.910156 70.476562 57.6875 70.714844 Z M 40.863281 74.851562 C 40.769531 74.867188 40.679688 74.878906 40.585938 74.882812 C 40.90625 74.339844 41.257812 73.878906 41.742188 73.414062 C 42.214844 72.960938 42.851562 72.429688 43.085938 71.796875 C 43.128906 71.683594 43.097656 71.582031 43.03125 71.507812 C 43.28125 71.363281 43.601562 71.226562 43.703125 71.171875 C 44 71.027344 44.300781 70.957031 44.53125 70.710938 C 44.578125 70.660156 44.605469 70.605469 44.625 70.550781 C 45.09375 70.269531 45.605469 70.042969 46.125 69.878906 C 46.539062 69.75 47.066406 69.921875 47.390625 69.585938 C 47.492188 69.484375 47.53125 69.304688 47.46875 69.167969 C 47.550781 69.175781 47.632812 69.1875 47.703125 69.191406 C 48.171875 69.210938 48.628906 69.265625 49.097656 69.304688 C 49.859375 69.371094 50.703125 69.484375 51.460938 69.34375 C 51.640625 69.3125 51.722656 69.132812 51.742188 68.976562 C 51.75 68.902344 51.726562 68.554688 51.789062 68.523438 C 51.914062 68.464844 52.304688 68.65625 52.425781 68.691406 C 52.757812 68.785156 53.03125 68.808594 53.371094 68.757812 C 53.621094 68.722656 53.726562 68.378906 53.605469 68.183594 C 53.472656 67.96875 53.316406 67.785156 53.171875 67.589844 C 53.664062 67.609375 54.523438 67.847656 54.6875 67.894531 C 55.527344 68.136719 56.289062 68.664062 56.988281 69.171875 C 57.175781 69.308594 57.347656 69.460938 57.527344 69.601562 C 57.398438 69.65625 57.265625 69.710938 57.132812 69.757812 C 56.246094 70.085938 55.226562 70.210938 54.285156 70.273438 C 52.667969 70.382812 50.992188 70.59375 49.398438 70.882812 C 47.644531 71.203125 45.921875 71.847656 44.261719 72.480469 C 43.613281 72.726562 42.996094 73.140625 42.398438 73.488281 C 41.839844 73.8125 41.207031 74.285156 40.863281 74.851562 Z M 59.035156 63.65625 C 58.980469 63.660156 58.921875 63.667969 58.867188 63.675781 C 58.183594 63.269531 57.53125 62.832031 56.867188 62.382812 C 55.175781 61.238281 54.203125 59.394531 52.445312 58.316406 C 51.519531 57.746094 50.875 56.980469 50.09375 56.246094 C 49.390625 55.589844 48.605469 55.03125 47.746094 54.597656 C 45.894531 53.660156 43.832031 53.230469 41.753906 53.195312 C 41.398438 53.1875 41.386719 53.660156 41.675781 53.777344 C 42.707031 54.195312 43.941406 54.171875 45.023438 54.445312 C 46.015625 54.695312 47.007812 55.113281 47.875 55.664062 C 48.808594 56.261719 49.597656 56.953125 50.347656 57.769531 C 51.078125 58.5625 52.007812 59.019531 52.796875 59.726562 C 53.546875 60.394531 54.140625 61.214844 54.816406 61.949219 C 55.527344 62.71875 56.464844 63.253906 57.316406 63.84375 C 57.253906 63.855469 57.1875 63.859375 57.125 63.867188 C 56.125 63.992188 55.097656 63.929688 54.085938 63.9375 C 53.136719 63.945312 52.167969 63.988281 51.226562 64.109375 C 51.328125 64.0625 51.425781 63.976562 51.515625 63.90625 C 51.710938 63.75 51.917969 63.578125 52.023438 63.347656 C 52.113281 63.152344 52.058594 62.835938 51.800781 62.796875 C 51.183594 62.703125 50.652344 62.867188 50.050781 63 C 49.691406 63.082031 48.8125 63.351562 48.269531 63.226562 C 48.722656 62.824219 49.429688 62.230469 48.671875 61.878906 C 48.382812 61.75 48 61.835938 47.691406 61.84375 C 47.339844 61.851562 46.988281 61.84375 46.636719 61.84375 C 46.535156 61.84375 46.398438 61.863281 46.253906 61.871094 C 46.574219 61.523438 46.910156 61.160156 46.457031 60.738281 C 46.234375 60.535156 45.90625 60.519531 45.625 60.492188 C 45.023438 60.4375 44.425781 60.394531 43.824219 60.34375 C 43.804688 60.34375 43.785156 60.34375 43.765625 60.34375 C 43.871094 60.25 43.980469 60.117188 44.039062 60.039062 C 44.242188 59.789062 44.386719 59.484375 44.296875 59.160156 C 44.109375 58.476562 43.261719 58.410156 42.578125 58.351562 C 42.730469 58.253906 42.90625 58.160156 42.976562 58.089844 C 43.167969 57.917969 43.320312 57.707031 43.277344 57.4375 C 43.1875 56.867188 42.503906 56.773438 41.917969 56.636719 C 42.046875 56.484375 42.066406 56.25 41.914062 56.105469 C 41.460938 55.671875 40.707031 55.601562 40.195312 55.21875 C 40.066406 55.125 39.96875 55.203125 40.0625 55.148438 C 40.152344 55.089844 40.324219 55.128906 40.425781 55.125 C 40.609375 55.125 40.792969 55.148438 40.972656 55.128906 C 41.3125 55.085938 41.453125 54.75 41.242188 54.480469 C 40.882812 54.027344 40.367188 53.816406 39.878906 53.535156 C 39.496094 53.3125 39.136719 53.0625 38.773438 52.8125 C 38.601562 52.691406 38.34375 52.441406 38.101562 52.292969 C 38.417969 52.285156 38.726562 52.207031 39.039062 52.195312 C 39.894531 52.160156 40.679688 52.652344 41.515625 52.652344 C 41.847656 52.652344 42.363281 52.484375 42.378906 52.074219 C 42.445312 52.101562 42.523438 52.128906 42.601562 52.167969 C 42.839844 52.292969 43.070312 52.449219 43.335938 52.519531 C 43.6875 52.605469 44.136719 52.589844 44.347656 52.242188 C 44.546875 51.917969 44.269531 51.507812 44.1875 51.195312 C 44.402344 51.304688 44.625 51.472656 44.78125 51.546875 C 45.035156 51.667969 45.339844 51.8125 45.628906 51.753906 C 45.863281 51.710938 46.046875 51.558594 46.105469 51.316406 C 46.117188 51.277344 46.121094 51.226562 46.121094 51.175781 C 46.140625 51.191406 46.164062 51.210938 46.183594 51.226562 C 46.648438 51.804688 47.816406 52.304688 48.5625 52.289062 C 48.796875 52.28125 49.09375 52.238281 49.230469 52.019531 C 49.5 52.257812 49.820312 52.546875 49.917969 52.617188 C 50.285156 52.898438 50.582031 53.335938 50.992188 53.558594 C 51.25 53.695312 51.570312 53.730469 51.746094 53.441406 C 51.902344 53.179688 51.800781 52.917969 51.6875 52.65625 C 51.941406 52.871094 52.234375 53.128906 52.257812 53.144531 C 52.503906 53.371094 52.71875 53.605469 52.9375 53.847656 C 53.15625 54.089844 53.433594 54.371094 53.78125 54.382812 C 53.910156 54.382812 54.050781 54.304688 54.109375 54.191406 C 54.171875 54.082031 54.195312 53.980469 54.207031 53.871094 C 54.488281 54.160156 54.789062 54.421875 55.019531 54.757812 C 55.273438 55.117188 55.339844 55.535156 55.613281 55.863281 C 55.703125 55.96875 55.863281 55.992188 55.988281 55.960938 C 56.320312 55.886719 56.488281 55.636719 56.566406 55.335938 C 56.722656 55.585938 56.882812 55.839844 57.027344 56.09375 C 57.417969 56.792969 57.605469 57.699219 57.71875 58.488281 C 57.765625 58.828125 58.335938 58.898438 58.476562 58.585938 C 58.542969 58.4375 58.671875 57.558594 58.773438 57.007812 C 58.933594 58.113281 59.199219 59.195312 59.179688 60.328125 C 59.164062 61.4375 59.222656 62.5625 59.035156 63.65625 Z M 90.054688 51.105469 C 89.894531 50.609375 88.878906 50.621094 88.347656 50.679688 C 87.582031 50.761719 86.882812 50.667969 86.125 50.660156 C 85.746094 50.65625 85.363281 50.675781 84.992188 50.746094 C 84.816406 50.777344 84.621094 50.875 84.449219 50.882812 C 83.972656 50.90625 84.207031 50.8125 83.957031 50.6875 C 83.460938 50.445312 82.960938 50.234375 82.390625 50.246094 C 82.105469 50.253906 81.765625 50.296875 81.492188 50.371094 C 81.332031 50.414062 81.191406 50.5 81.054688 50.589844 C 81.035156 50.332031 80.914062 50.117188 80.558594 50.019531 C 80.070312 49.886719 79.585938 50.035156 79.125 50.214844 C 79.191406 50.039062 79.230469 49.859375 79.128906 49.679688 C 78.953125 49.355469 78.550781 49.4375 78.246094 49.484375 C 77.714844 49.566406 77.136719 49.730469 76.695312 50.054688 C 76.550781 50.160156 76.4375 50.277344 76.339844 50.40625 C 76.304688 50.257812 76.234375 50.125 76.101562 50.035156 C 75.808594 49.835938 75.359375 49.964844 75.066406 50.089844 C 74.5 50.328125 74.074219 50.734375 73.746094 51.214844 C 73.691406 50.828125 73.53125 50.53125 73.160156 50.480469 C 72.34375 50.371094 71.476562 51.753906 71.0625 52.289062 C 70.207031 53.386719 69.84375 54.699219 69.648438 56.058594 C 69.5625 56.65625 69.476562 57.238281 69.402344 57.835938 C 69.351562 58.28125 69.425781 58.972656 69.304688 59.496094 C 69.222656 59.539062 69.140625 59.582031 69.054688 59.617188 C 68.632812 59.804688 68.324219 60.035156 67.953125 60.285156 C 67.769531 60.410156 67.417969 60.550781 67.097656 60.714844 C 67.445312 59.230469 68.015625 57.785156 68.527344 56.355469 C 69.105469 54.746094 69.347656 53.015625 69.601562 51.328125 C 69.71875 50.554688 69.792969 49.722656 69.796875 48.941406 C 69.800781 48.226562 69.855469 47.515625 69.867188 46.800781 C 70.5 46.4375 71.097656 46.015625 71.65625 45.644531 C 72.699219 44.953125 73.625 43.988281 74.296875 42.921875 C 74.914062 42.636719 75.507812 42.328125 76.140625 42.066406 C 76.777344 41.808594 77.433594 41.546875 78.027344 41.195312 C 78.585938 40.871094 79.007812 40.496094 79.429688 40.011719 C 79.863281 39.503906 80.175781 38.902344 80.671875 38.449219 C 81.191406 37.972656 81.734375 37.46875 82.320312 37.078125 C 82.898438 36.6875 83.636719 36.425781 84.289062 36.160156 C 84.929688 35.898438 85.566406 35.664062 86.238281 35.496094 C 86.820312 35.351562 87.351562 35.195312 87.851562 34.855469 C 89.851562 33.5 87.464844 30.773438 86.355469 29.605469 C 85.433594 28.640625 84.535156 27.359375 83.351562 26.691406 C 82.859375 26.414062 82.261719 26.1875 81.714844 26.039062 C 81.578125 26 81.449219 25.976562 81.324219 25.96875 C 81.496094 25.617188 81.671875 25.265625 81.875 24.929688 C 82.625 23.6875 83.425781 22.574219 83.515625 21.136719 C 83.589844 21.078125 83.644531 20.992188 83.652344 20.894531 C 83.691406 19.808594 83.195312 18.84375 82.382812 18.171875 C 81.472656 17.421875 80.5 16.671875 79.367188 16.3125 C 78.125 15.917969 77.265625 15.449219 76.417969 14.441406 C 76.078125 14.035156 75.652344 13.683594 75.222656 13.378906 C 74.726562 13.027344 74.265625 12.640625 73.769531 12.289062 C 72.980469 11.730469 72.160156 11.40625 71.195312 11.371094 C 70.628906 11.347656 70.097656 11.464844 69.542969 11.546875 C 69.042969 11.621094 68.5 11.648438 68.03125 11.859375 C 67.414062 12.136719 66.8125 12.613281 66.269531 13.136719 C 66.367188 12.777344 66.460938 12.371094 66.410156 12.0625 C 66.292969 11.304688 64.996094 11.289062 64.410156 11.246094 C 63.007812 11.136719 61.554688 11.035156 60.144531 11.085938 C 59.570312 11.109375 59.117188 11.351562 58.585938 11.539062 C 57.996094 11.753906 57.441406 11.945312 56.875 12.214844 C 56.457031 12.414062 56.007812 12.480469 55.632812 12.757812 C 55.03125 13.207031 54.429688 13.65625 53.824219 14.105469 C 53.375 14.4375 53.015625 14.847656 52.597656 15.210938 C 52.179688 15.578125 51.683594 15.839844 51.332031 16.28125 C 50.566406 17.257812 49.6875 18.167969 48.859375 19.097656 C 48.082031 19.972656 47.351562 20.871094 46.476562 21.660156 C 45.644531 22.410156 44.964844 23.769531 45.265625 24.929688 C 45.429688 25.582031 45.964844 25.804688 46.363281 26.277344 C 46.585938 26.539062 46.71875 26.863281 46.945312 27.128906 C 46.996094 27.1875 47.046875 27.246094 47.09375 27.304688 C 45.988281 27.304688 44.886719 27.335938 43.828125 27.714844 C 42.949219 28.03125 42.027344 29.042969 42.570312 30 C 42.632812 30.109375 42.742188 30.171875 42.859375 30.191406 C 43.003906 30.488281 43.199219 30.765625 43.398438 31.023438 C 44.082031 31.898438 44.871094 32.648438 45.703125 33.378906 C 45.777344 33.445312 45.855469 33.507812 45.929688 33.570312 C 44.589844 33.835938 43.351562 34.570312 42.308594 35.472656 C 41.574219 36.109375 40.761719 36.617188 40.070312 37.308594 C 39.640625 37.738281 39.269531 38.121094 39.296875 38.640625 C 39.261719 38.722656 39.238281 38.808594 39.222656 38.898438 C 39.179688 39.234375 39.265625 39.585938 39.425781 39.878906 C 39.757812 40.472656 40.367188 40.792969 40.96875 41.050781 C 42.710938 41.804688 44.597656 42.007812 46.355469 42.722656 C 47.308594 43.113281 48.207031 43.667969 48.953125 44.382812 C 49.640625 45.039062 50.054688 45.882812 50.699219 46.570312 C 51.230469 47.136719 51.605469 47.820312 52.269531 48.265625 C 52.785156 48.609375 53.402344 48.84375 54.011719 49.039062 C 54.128906 49.117188 54.253906 49.1875 54.378906 49.238281 C 54.929688 49.453125 55.539062 49.597656 56.113281 49.734375 C 57.09375 49.964844 58 49.859375 58.964844 49.648438 C 59.457031 49.539062 59.925781 49.210938 60.390625 49.015625 C 60.914062 48.792969 61.386719 48.53125 61.867188 48.234375 C 62.675781 47.742188 63.59375 47.472656 64.53125 47.394531 C 64.679688 47.636719 65.105469 47.601562 65.230469 47.355469 C 65.253906 47.308594 65.273438 47.265625 65.292969 47.230469 C 65.824219 47.398438 66.34375 47.582031 66.898438 47.644531 C 66.890625 48.773438 66.867188 49.910156 66.722656 51.027344 C 66.566406 52.203125 66.3125 53.371094 66.125 54.542969 C 65.746094 56.910156 65.09375 59.339844 64.152344 61.542969 C 63.644531 62.738281 62.976562 63.871094 62.390625 65.035156 C 62.375 65.035156 62.359375 65.027344 62.335938 65.027344 C 61.46875 65.023438 60.542969 64.597656 59.789062 64.195312 C 59.777344 64.191406 59.765625 64.183594 59.753906 64.179688 C 60.070312 63.050781 59.929688 61.722656 59.929688 60.605469 C 59.929688 59.90625 59.878906 59.21875 59.796875 58.527344 C 59.707031 57.777344 59.363281 57.117188 59.214844 56.382812 C 59.210938 56.359375 59.203125 56.339844 59.191406 56.320312 C 59.273438 56.113281 59.175781 55.851562 58.878906 55.84375 C 58.402344 55.839844 58.183594 56.167969 58.0625 56.585938 C 57.972656 56.351562 57.871094 56.125 57.757812 55.914062 C 57.394531 55.246094 56.914062 54.675781 56.53125 54.035156 C 56.375 53.769531 55.929688 53.871094 55.941406 54.195312 C 55.945312 54.28125 55.96875 54.53125 55.960938 54.761719 C 55.832031 54.5 55.667969 54.257812 55.472656 54.035156 C 55.078125 53.582031 54.542969 52.871094 54.003906 52.585938 C 53.804688 52.480469 53.605469 52.550781 53.476562 52.726562 C 53.34375 52.90625 53.378906 53.09375 53.425781 53.277344 C 53.339844 53.167969 53.261719 53.066406 53.210938 53.019531 C 52.789062 52.65625 52.40625 52.261719 51.9375 51.964844 C 51.519531 51.703125 50.742188 51.398438 50.792969 52.210938 C 50.800781 52.261719 50.808594 52.324219 50.824219 52.386719 C 50.703125 52.285156 50.578125 52.1875 50.503906 52.128906 C 50.144531 51.839844 49.808594 51.5625 49.464844 51.253906 C 49.28125 51.089844 49.089844 50.917969 48.828125 50.914062 C 48.652344 50.914062 48.523438 51.035156 48.464844 51.195312 C 48.40625 51.355469 48.449219 51.453125 48.488281 51.5625 C 48.011719 51.597656 47.292969 51.074219 47.015625 50.886719 C 46.71875 50.683594 46.289062 50.179688 45.894531 50.140625 C 45.570312 50.105469 45.285156 50.320312 45.234375 50.652344 C 45.222656 50.71875 45.246094 50.800781 45.265625 50.878906 C 45.242188 50.871094 45.214844 50.867188 45.179688 50.863281 C 45.085938 50.816406 44.992188 50.765625 44.898438 50.710938 C 44.457031 50.46875 43.628906 49.917969 43.382812 50.71875 C 43.335938 50.878906 43.558594 51.714844 43.570312 51.703125 C 43.464844 51.804688 42.605469 51.226562 42.363281 51.183594 C 42.058594 51.125 41.796875 51.207031 41.652344 51.5 C 41.5 51.820312 41.746094 51.796875 41.347656 51.808594 C 41.03125 51.820312 40.601562 51.605469 40.289062 51.542969 C 39.585938 51.402344 39.027344 51.414062 38.324219 51.464844 C 37.925781 51.496094 37.414062 51.359375 37.035156 51.519531 C 36.160156 51.894531 36.988281 52.660156 37.453125 52.914062 C 38.03125 53.226562 38.550781 53.636719 39.113281 53.976562 C 39.367188 54.128906 39.648438 54.257812 39.914062 54.402344 C 39.597656 54.453125 39.332031 54.589844 39.269531 54.960938 C 39.203125 55.332031 39.476562 55.621094 39.746094 55.828125 C 40.003906 56.027344 40.308594 56.160156 40.601562 56.300781 C 40.628906 56.316406 40.660156 56.328125 40.699219 56.34375 C 40.695312 56.34375 40.691406 56.347656 40.6875 56.347656 C 40.546875 56.488281 40.535156 56.75 40.6875 56.886719 C 40.972656 57.144531 41.246094 57.265625 41.613281 57.363281 C 41.773438 57.40625 41.972656 57.460938 42.136719 57.480469 C 42.351562 57.507812 42.546875 57.417969 42.449219 57.558594 C 42.144531 58 41.589844 58.003906 41.554688 58.644531 C 41.542969 58.800781 41.675781 58.972656 41.828125 59.007812 C 42.269531 59.105469 42.734375 59.078125 43.167969 59.179688 C 43.8125 59.332031 43.394531 59.640625 43.097656 59.917969 C 42.816406 60.175781 42.484375 60.554688 42.851562 60.902344 C 43.070312 61.101562 43.457031 61.0625 43.714844 61.082031 C 44.152344 61.121094 44.582031 61.136719 45.015625 61.175781 C 45.078125 61.183594 45.851562 61.199219 45.871094 61.25 C 45.886719 61.296875 45.332031 61.839844 45.28125 61.949219 C 45.203125 62.125 45.226562 62.347656 45.414062 62.449219 C 46.035156 62.789062 47.136719 62.605469 47.824219 62.582031 C 47.835938 62.578125 47.851562 62.582031 47.867188 62.582031 C 47.671875 62.734375 47.460938 62.988281 47.363281 63.128906 C 47.269531 63.265625 47.316406 63.460938 47.421875 63.574219 C 47.804688 64.003906 48.390625 63.945312 48.917969 63.945312 C 49.460938 63.945312 50.015625 63.734375 50.566406 63.601562 C 50.1875 63.828125 49.863281 64.078125 50.023438 64.492188 C 50.296875 65.203125 51.71875 64.832031 52.25 64.78125 C 53.511719 64.65625 54.800781 64.707031 56.066406 64.738281 C 56.84375 64.757812 57.675781 64.664062 58.429688 64.570312 C 59.527344 65.230469 60.792969 65.816406 62 65.839844 C 61.808594 66.222656 61.617188 66.585938 61.386719 66.960938 C 61.074219 67.46875 60.941406 68.070312 60.652344 68.597656 C 60.640625 68.617188 60.628906 68.636719 60.621094 68.65625 C 60.550781 68.640625 60.476562 68.652344 60.398438 68.695312 C 60.195312 68.808594 59.988281 68.933594 59.777344 69.035156 C 59.722656 68.992188 59.648438 68.964844 59.554688 68.96875 C 59.179688 68.988281 58.835938 69.082031 58.5 69.199219 C 58.183594 69.085938 57.925781 68.855469 57.652344 68.644531 C 57.089844 68.195312 56.4375 67.757812 55.785156 67.445312 C 55.101562 67.121094 54.363281 66.96875 53.617188 66.894531 C 53.195312 66.851562 52.636719 66.773438 52.300781 67.085938 C 52.164062 67.214844 52.164062 67.410156 52.238281 67.5625 C 52.292969 67.679688 52.355469 67.785156 52.425781 67.886719 C 52.0625 67.769531 51.695312 67.636719 51.351562 67.796875 C 50.988281 67.964844 50.988281 68.304688 50.988281 68.644531 C 50.105469 68.734375 49.136719 68.507812 48.273438 68.441406 C 47.699219 68.394531 46.824219 68.273438 46.316406 68.601562 C 46.15625 68.703125 46.082031 68.929688 46.175781 69.097656 C 45.949219 69.148438 45.730469 69.25 45.515625 69.335938 C 44.902344 69.589844 44.332031 69.816406 43.78125 70.183594 C 43.695312 70.246094 43.644531 70.335938 43.625 70.429688 C 43.03125 70.75 42.140625 70.925781 42 71.585938 C 41.957031 71.78125 42.0625 71.980469 42.253906 72.035156 C 41.882812 72.601562 41.082031 73.183594 40.691406 73.535156 C 40.242188 73.9375 40.003906 74.507812 39.773438 75.066406 C 39.714844 75.210938 39.839844 75.429688 39.996094 75.453125 C 40.871094 75.597656 41.746094 75.246094 42.628906 75.25 C 43.328125 75.253906 44.050781 75.203125 44.75 75.28125 C 45.132812 75.324219 45.53125 75.304688 45.925781 75.316406 C 45.6875 75.605469 45.332031 75.976562 45.296875 76.015625 C 45.164062 76.1875 45.164062 76.363281 45.296875 76.53125 C 45.539062 76.84375 45.988281 76.695312 46.296875 76.589844 C 46.304688 76.589844 46.3125 76.585938 46.320312 76.585938 C 46.300781 76.691406 46.289062 76.792969 46.289062 76.847656 C 46.289062 76.996094 46.402344 77.171875 46.558594 77.199219 C 47.265625 77.335938 47.941406 77.140625 48.589844 76.855469 C 48.949219 76.695312 49.300781 76.480469 49.636719 76.269531 C 49.667969 76.375 49.746094 76.464844 49.855469 76.484375 C 50.519531 76.605469 51.421875 75.855469 51.914062 75.503906 C 52.679688 74.949219 53.300781 74.230469 54.070312 73.679688 C 53.988281 73.925781 53.851562 74.152344 53.734375 74.410156 C 53.628906 74.652344 53.753906 74.925781 54.035156 74.9375 C 54.433594 74.953125 54.644531 74.605469 54.925781 74.367188 C 55.199219 74.140625 55.441406 73.890625 55.691406 73.640625 C 55.683594 73.675781 55.683594 73.703125 55.683594 73.71875 C 55.675781 73.957031 55.902344 74.089844 56.117188 74.050781 C 56.449219 73.984375 56.59375 73.773438 56.757812 73.488281 C 57.089844 72.914062 57.371094 72.382812 57.769531 71.851562 C 58.339844 71.082031 59.054688 70.359375 59.914062 69.917969 C 59.574219 70.535156 59.226562 71.152344 58.886719 71.769531 C 58.332031 72.78125 57.644531 73.714844 57.097656 74.722656 C 56.464844 75.898438 55.996094 77.207031 55.515625 78.453125 C 55.257812 79.113281 55.046875 79.792969 54.878906 80.484375 C 54.777344 80.90625 54.625 81.359375 54.542969 81.808594 C 54.363281 81.996094 54.242188 82.214844 54.335938 82.515625 C 54.511719 83.066406 55.105469 83.316406 55.558594 83.574219 C 56.125 83.894531 56.703125 84.144531 57.378906 84.101562 C 57.984375 84.058594 58.628906 83.988281 59.019531 83.46875 C 59.351562 83.023438 59.289062 82.394531 59.425781 81.878906 C 59.628906 81.089844 59.921875 80.335938 60.191406 79.570312 C 60.789062 77.871094 61.710938 76.296875 62.425781 74.648438 C 63.027344 73.257812 63.488281 71.816406 64.023438 70.40625 C 64.292969 69.699219 64.5 68.964844 64.734375 68.242188 C 64.976562 67.496094 65.296875 66.777344 65.515625 66.015625 C 65.933594 64.554688 66.535156 63.183594 66.878906 61.699219 C 66.945312 61.675781 67.003906 61.632812 67.054688 61.558594 C 67.214844 61.3125 68.472656 60.832031 68.761719 60.65625 C 68.835938 60.796875 68.96875 60.910156 69.167969 60.929688 C 69.746094 60.988281 70.3125 61.257812 70.894531 61.359375 C 71.34375 61.4375 71.789062 61.515625 72.242188 61.589844 C 73.222656 61.742188 74.246094 61.753906 75.242188 61.671875 C 75.84375 61.621094 76.441406 61.507812 77.046875 61.460938 C 77.46875 61.429688 77.960938 61.375 78.328125 61.140625 C 78.75 60.878906 78.820312 60.574219 78.722656 60.269531 C 79.140625 60.296875 79.558594 60.335938 79.988281 60.28125 C 80.417969 60.226562 80.875 60.160156 81.292969 60.039062 C 81.574219 59.953125 81.921875 59.820312 82.046875 59.527344 C 82.207031 59.15625 81.902344 59.082031 82.324219 58.929688 C 82.886719 58.722656 84.066406 58.699219 84.300781 57.984375 C 84.441406 57.5625 84.210938 57.328125 83.90625 57.15625 C 84.621094 57.03125 85.4375 57.09375 85.984375 56.601562 C 86.222656 56.386719 86.296875 56.089844 86.214844 55.78125 C 86.144531 55.507812 85.984375 55.378906 85.808594 55.253906 C 86.242188 54.957031 86.875 54.746094 87.285156 54.597656 C 87.621094 54.472656 88.253906 54.40625 88.308594 53.949219 C 88.375 53.441406 87.722656 53.289062 87.089844 53.238281 C 88.046875 52.769531 89.320312 52.683594 89.886719 51.78125 C 89.902344 51.753906 89.921875 51.722656 89.9375 51.691406 C 90.179688 51.621094 90.234375 51.253906 90.054688 51.105469 " fill-opacity="1" fill-rule="nonzero"/></g><g fill="#000000" fill-opacity="1"><g transform="translate(45.166562, 96.438311)"><g><path d="M 1.421875 1.589844 C 1.867188 1.589844 2.285156 1.421875 2.675781 1.085938 C 2.761719 1.03125 2.84375 0.949219 2.957031 0.835938 C 4.183594 -0.613281 5.105469 -2.316406 5.578125 -4.183594 C 5.71875 -4.796875 5.882812 -5.410156 6.050781 -6.023438 C 6.21875 -6.636719 6.359375 -7.25 6.496094 -7.863281 C 6.554688 -8.226562 6.75 -8.421875 7.082031 -8.507812 L 9.203125 -9.175781 C 9.285156 -9.203125 9.371094 -9.257812 9.398438 -9.34375 C 9.425781 -9.425781 9.371094 -9.511719 9.230469 -9.59375 C 9.121094 -9.648438 9.007812 -9.675781 8.894531 -9.675781 C 8.8125 -9.675781 8.757812 -9.675781 8.730469 -9.648438 C 8.367188 -9.566406 7.308594 -9.089844 6.972656 -9.089844 C 6.886719 -9.0625 6.859375 -9.121094 6.859375 -9.203125 C 6.886719 -9.285156 6.886719 -9.34375 6.886719 -9.425781 C 6.886719 -9.480469 6.886719 -9.539062 6.917969 -9.59375 L 7.335938 -11.238281 C 7.53125 -11.9375 7.726562 -12.605469 7.949219 -13.246094 C 8.117188 -13.777344 8.339844 -14.277344 8.617188 -14.753906 C 8.699219 -14.890625 8.8125 -14.949219 8.925781 -14.949219 C 10.289062 -15.085938 13.441406 -15.699219 14.417969 -16.675781 C 14.726562 -16.984375 14.726562 -17.375 14.472656 -17.679688 C 13.917969 -18.238281 13.300781 -18.378906 12.550781 -18.378906 C 10.875 -18.378906 8.839844 -17.289062 7.976562 -15.839844 C 7.835938 -15.644531 7.613281 -15.535156 7.363281 -15.503906 C 7.195312 -15.503906 7.027344 -15.503906 6.859375 -15.503906 C 6.664062 -15.476562 6.496094 -15.476562 6.332031 -15.476562 C 6.191406 -15.476562 6.023438 -15.476562 5.882812 -15.476562 C 5.746094 -15.476562 5.550781 -15.476562 5.355469 -15.503906 L 4.9375 -15.503906 C 3.375 -15.503906 1.644531 -15.367188 0.390625 -14.390625 C 0.167969 -14.195312 0 -13.945312 -0.113281 -13.691406 C -0.335938 -13.136719 0.140625 -12.550781 0.78125 -12.578125 C 0.808594 -12.578125 0.808594 -12.578125 0.808594 -12.605469 C 0.808594 -12.605469 0.808594 -12.605469 0.808594 -12.632812 C 0.808594 -12.6875 0.808594 -12.71875 0.78125 -12.746094 C 0.667969 -12.828125 0.53125 -12.882812 0.53125 -13.078125 C 0.53125 -13.21875 0.585938 -13.386719 0.667969 -13.527344 C 1.507812 -14.5 3.320312 -14.921875 4.574219 -14.921875 C 4.964844 -14.921875 6.917969 -14.949219 7.113281 -14.808594 C 7.195312 -14.808594 7.222656 -14.695312 7.195312 -14.667969 C 7.167969 -14.53125 7.113281 -14.417969 7.082031 -14.363281 C 6.832031 -13.75 6.609375 -13.136719 6.414062 -12.523438 C 6.21875 -11.9375 6.050781 -11.324219 5.914062 -10.738281 C 5.773438 -10.152344 5.605469 -9.539062 5.464844 -8.953125 C 5.355469 -8.421875 5.382812 -8.449219 4.851562 -8.199219 C 2.480469 -7.113281 0.417969 -4.628906 -0.222656 -2.089844 C -0.417969 -1.28125 -0.503906 -0.472656 -0.308594 0.390625 C -0.113281 1.199219 0.613281 1.589844 1.421875 1.589844 Z M 1.171875 1.117188 C 1.085938 1.117188 1.003906 1.085938 0.949219 1.03125 C 0.695312 0.835938 0.53125 0.585938 0.472656 0.277344 C 0.390625 -0.0546875 0.308594 -0.417969 0.308594 -0.640625 C 0.445312 -3.347656 2.257812 -6.078125 4.628906 -7.445312 C 4.742188 -7.472656 4.851562 -7.53125 4.9375 -7.558594 C 5.019531 -7.558594 5.074219 -7.53125 5.074219 -7.445312 C 5.074219 -7.335938 5.074219 -7.25 5.046875 -7.195312 C 4.964844 -6.777344 4.851562 -6.359375 4.769531 -5.941406 C 4.683594 -5.523438 4.574219 -5.105469 4.488281 -4.683594 C 4.042969 -2.898438 3.179688 -0.726562 1.867188 0.667969 C 1.703125 0.863281 1.535156 1.003906 1.367188 1.085938 C 1.339844 1.117188 1.253906 1.117188 1.171875 1.117188 Z M 9.511719 -15.730469 C 9.480469 -15.757812 9.480469 -15.757812 9.453125 -15.757812 C 9.425781 -15.757812 9.425781 -15.757812 9.398438 -15.785156 C 9.371094 -15.8125 9.371094 -15.867188 9.398438 -15.894531 C 9.539062 -16.203125 9.734375 -16.34375 9.957031 -16.539062 C 10.570312 -17.152344 12.296875 -17.738281 13.109375 -17.738281 C 13.300781 -17.738281 13.527344 -17.707031 13.722656 -17.679688 L 13.777344 -17.679688 C 13.886719 -17.652344 13.972656 -17.484375 13.886719 -17.402344 C 13.691406 -17.09375 13.414062 -16.929688 13.109375 -16.816406 C 12.019531 -16.285156 10.820312 -15.925781 9.566406 -15.730469 Z M 9.511719 -15.730469 "/></g></g></g><g fill="#000000" fill-opacity="1"><g transform="translate(54.174004, 96.438311)"><g><path d="M 1.421875 -0.890625 C 2.285156 -0.890625 3.039062 -2.121094 3.347656 -2.898438 C 3.875 -3.933594 4.378906 -5.019531 4.796875 -6.136719 C 4.910156 -6.441406 5.019531 -6.722656 5.160156 -7.027344 C 5.296875 -7.335938 5.410156 -7.640625 5.550781 -7.949219 C 5.578125 -8.03125 5.632812 -8.117188 5.660156 -8.199219 C 5.6875 -8.253906 5.71875 -8.339844 5.746094 -8.421875 C 5.773438 -8.507812 5.71875 -8.5625 5.632812 -8.644531 C 5.578125 -8.671875 5.492188 -8.699219 5.410156 -8.699219 C 4.992188 -8.699219 4.742188 -8.03125 4.628906 -7.726562 C 4.546875 -7.53125 4.460938 -7.308594 4.378906 -7.113281 C 4.292969 -6.917969 4.238281 -6.691406 4.15625 -6.496094 C 3.597656 -5.019531 2.789062 -3.039062 1.8125 -1.8125 C 1.730469 -1.730469 1.671875 -1.671875 1.617188 -1.644531 C 1.5625 -1.644531 1.535156 -1.644531 1.507812 -1.671875 C 1.476562 -1.703125 1.449219 -1.730469 1.449219 -1.757812 C 1.449219 -1.785156 1.449219 -1.8125 1.421875 -1.839844 C 1.3125 -2.148438 1.3125 -2.398438 1.3125 -2.707031 C 1.199219 -4.714844 1.421875 -6.636719 1.839844 -8.5625 C 1.867188 -8.757812 1.980469 -8.894531 2.089844 -9.089844 C 3.234375 -10.515625 5.464844 -13.496094 5.882812 -15.3125 C 5.941406 -15.617188 5.96875 -15.925781 5.941406 -16.175781 C 5.855469 -16.675781 5.523438 -16.957031 4.992188 -17.011719 C 4.128906 -17.011719 3.765625 -16.539062 3.320312 -15.894531 C 1.339844 -13.023438 0.0820312 -7.25 0.0820312 -3.652344 C 0.0546875 -3.234375 0.113281 -2.675781 0.195312 -2.089844 C 0.195312 -1.449219 0.503906 -1.03125 1.144531 -0.921875 C 1.199219 -0.890625 1.28125 -0.890625 1.421875 -0.890625 Z M 2.511719 -10.988281 L 2.480469 -11.015625 C 2.480469 -11.042969 2.480469 -11.097656 2.480469 -11.128906 C 2.453125 -11.15625 2.453125 -11.183594 2.480469 -11.210938 C 2.957031 -12.996094 3.570312 -14.585938 4.65625 -16.0625 C 4.742188 -16.148438 4.964844 -16.34375 5.046875 -16.34375 C 5.105469 -16.34375 5.160156 -16.316406 5.1875 -16.230469 L 5.1875 -15.980469 C 5.132812 -14.753906 3.515625 -12.132812 2.761719 -11.183594 C 2.707031 -11.097656 2.648438 -11.042969 2.566406 -10.988281 Z M 2.511719 -10.988281 "/></g></g></g><g fill="#000000" fill-opacity="1"><g transform="translate(58.301255, 96.438311)"><g><path d="M 2.425781 -2.761719 C 3.011719 -2.761719 3.402344 -2.789062 3.738281 -3.320312 C 3.820312 -3.402344 3.847656 -3.457031 3.875 -3.542969 C 4.210938 -4.183594 4.351562 -4.910156 4.324219 -5.6875 C 4.265625 -6.332031 4.070312 -6.886719 3.738281 -7.417969 C 3.597656 -7.613281 3.484375 -7.78125 3.375 -7.976562 C 3.320312 -8.085938 3.347656 -8.171875 3.457031 -8.226562 C 3.820312 -8.253906 4.183594 -8.28125 4.65625 -8.28125 C 4.964844 -8.28125 5.296875 -8.28125 5.6875 -8.28125 C 6.050781 -8.253906 6.496094 -8.253906 7 -8.253906 C 7.140625 -8.28125 7.167969 -8.367188 7.082031 -8.507812 C 7 -8.617188 6.832031 -8.699219 6.636719 -8.757812 C 6.078125 -8.785156 5.464844 -8.8125 4.910156 -8.8125 C 4.324219 -8.8125 3.792969 -8.785156 3.347656 -8.757812 C 2.871094 -8.699219 2.621094 -8.617188 2.59375 -8.535156 C 2.453125 -8.507812 2.398438 -8.339844 2.480469 -8.226562 C 2.621094 -7.976562 2.789062 -7.726562 2.929688 -7.5 C 3.515625 -6.582031 3.597656 -5.632812 3.289062 -4.601562 C 3.261719 -4.460938 3.207031 -4.351562 3.152344 -4.238281 C 3.066406 -4.128906 3.011719 -4.015625 2.957031 -3.90625 C 2.816406 -3.679688 2.675781 -3.515625 2.511719 -3.429688 C 2.425781 -3.375 2.371094 -3.347656 2.285156 -3.347656 C 2.203125 -3.347656 2.121094 -3.375 2.035156 -3.457031 C 1.867188 -3.597656 1.730469 -3.765625 1.589844 -4.015625 C 1.339844 -4.460938 1.253906 -4.964844 1.28125 -5.523438 C 1.367188 -7.277344 1.894531 -9.035156 3.234375 -10.234375 C 3.320312 -10.320312 3.289062 -10.429688 3.207031 -10.457031 C 3.207031 -10.484375 3.179688 -10.484375 3.152344 -10.484375 C 3.011719 -10.542969 2.871094 -10.570312 2.707031 -10.570312 C 2.453125 -10.570312 2.230469 -10.484375 2.035156 -10.320312 C 0.808594 -9.371094 0.113281 -7.25 0.0273438 -5.71875 L 0.0273438 -5.4375 C 0.0273438 -5.410156 0.0273438 -5.355469 0.0546875 -5.328125 C 0.0546875 -5.269531 0.0546875 -5.214844 0.0546875 -5.1875 C 0.195312 -4.042969 0.808594 -3.289062 1.839844 -2.898438 C 1.925781 -2.871094 2.035156 -2.84375 2.148438 -2.816406 C 2.230469 -2.789062 2.34375 -2.789062 2.425781 -2.761719 Z M 2.425781 -2.761719 "/></g></g></g><g fill="#000000" fill-opacity="1"><g transform="translate(64.018048, 96.438311)"><g><path d="M 3.179688 0.167969 C 3.933594 0.167969 4.40625 -0.335938 4.628906 -1.003906 C 4.742188 -1.253906 4.824219 -1.535156 4.910156 -1.785156 C 5.382812 -3.484375 5.746094 -5.160156 5.828125 -6.945312 L 5.828125 -7.277344 C 5.855469 -7.417969 5.96875 -7.5 6.109375 -7.53125 C 6.191406 -7.558594 6.300781 -7.558594 6.414062 -7.585938 C 6.527344 -7.585938 6.636719 -7.613281 6.75 -7.640625 L 9.035156 -8.226562 L 9.203125 -8.3125 C 9.230469 -8.339844 9.285156 -8.476562 9.203125 -8.507812 C 9.121094 -8.535156 9.0625 -8.5625 9.035156 -8.5625 C 8.980469 -8.589844 8.894531 -8.589844 8.785156 -8.589844 C 8.589844 -8.589844 8.394531 -8.535156 8.199219 -8.507812 C 7.753906 -8.394531 7.308594 -8.28125 6.886719 -8.144531 C 6.441406 -8.003906 5.996094 -7.921875 5.523438 -7.863281 C 5.160156 -7.835938 5.105469 -7.695312 5.105469 -7.390625 C 5.019531 -5.800781 4.574219 -2.257812 3.679688 -0.921875 C 3.652344 -0.835938 3.484375 -0.640625 3.375 -0.640625 C 3.320312 -0.640625 3.261719 -0.667969 3.234375 -0.695312 C 3.152344 -0.921875 3.09375 -1.144531 3.066406 -1.394531 C 2.984375 -2.425781 3.011719 -3.457031 3.125 -4.488281 C 3.207031 -4.992188 3.261719 -5.523438 3.289062 -6.050781 C 3.320312 -6.300781 3.320312 -6.582031 3.289062 -6.832031 C 3.207031 -7.140625 3.011719 -7.277344 2.707031 -7.277344 C 2.59375 -7.277344 2.453125 -7.25 2.371094 -7.140625 C 2.316406 -7.054688 2.257812 -6.972656 2.230469 -6.886719 C 2.175781 -6.804688 2.121094 -6.691406 2.0625 -6.609375 C 1.925781 -6.359375 1.785156 -6.136719 1.644531 -5.914062 C 1.507812 -5.6875 1.367188 -5.464844 1.226562 -5.214844 C 1.144531 -5.105469 1.085938 -5.019531 1.03125 -4.964844 C 1.003906 -4.9375 0.976562 -4.9375 0.921875 -4.9375 L 0.890625 -4.964844 L 0.890625 -5.1875 L 1.730469 -8.421875 C 1.757812 -8.671875 1.671875 -8.8125 1.421875 -8.867188 C 1.394531 -8.867188 1.367188 -8.867188 1.367188 -8.894531 C 1.339844 -8.894531 1.3125 -8.894531 1.28125 -8.894531 C 1.171875 -8.894531 1.085938 -8.839844 1.003906 -8.757812 C 0.976562 -8.730469 0.949219 -8.671875 0.949219 -8.644531 C 0.308594 -7.390625 -0.417969 -5.605469 -0.417969 -4.15625 C -0.390625 -3.90625 -0.277344 -3.738281 -0.0820312 -3.625 C 0.113281 -3.542969 0.222656 -3.515625 0.417969 -3.484375 C 0.667969 -3.484375 0.890625 -3.570312 1.03125 -3.710938 L 1.449219 -4.210938 C 1.535156 -4.324219 1.617188 -4.460938 1.730469 -4.574219 C 1.730469 -4.601562 1.757812 -4.628906 1.839844 -4.628906 C 1.867188 -4.628906 1.894531 -4.601562 1.894531 -4.519531 C 1.894531 -4.488281 1.894531 -4.433594 1.894531 -4.40625 C 1.867188 -4.351562 1.867188 -4.292969 1.867188 -4.265625 C 1.839844 -3.960938 1.8125 -3.625 1.785156 -3.320312 C 1.757812 -3.011719 1.703125 -2.675781 1.671875 -2.371094 C 1.671875 -1.644531 1.785156 -0.277344 2.511719 0 C 2.734375 0.113281 2.957031 0.167969 3.179688 0.167969 Z M 3.179688 0.167969 "/></g></g></g><g fill="#000000" fill-opacity="1"><g transform="translate(71.85425, 96.438311)"><g><path d="M 0.921875 -2.257812 C 1.617188 -2.257812 2.121094 -2.761719 2.539062 -3.234375 C 2.984375 -3.792969 3.402344 -4.378906 3.820312 -4.964844 C 4.128906 -5.4375 4.460938 -5.941406 4.769531 -6.414062 C 5.074219 -6.886719 5.382812 -7.363281 5.6875 -7.835938 C 5.71875 -7.921875 5.800781 -8.03125 5.882812 -8.171875 C 5.96875 -8.3125 6.023438 -8.449219 6.023438 -8.535156 C 6.023438 -8.5625 5.996094 -8.617188 5.96875 -8.644531 C 5.914062 -8.730469 5.828125 -8.757812 5.71875 -8.757812 C 5.632812 -8.757812 5.550781 -8.730469 5.492188 -8.671875 C 5.464844 -8.644531 5.4375 -8.589844 5.4375 -8.5625 C 5.410156 -8.535156 5.382812 -8.476562 5.355469 -8.449219 L 3.679688 -5.941406 C 3.347656 -5.382812 1.644531 -2.984375 1.03125 -2.984375 C 0.921875 -2.984375 0.835938 -3.09375 0.808594 -3.289062 L 0.808594 -3.484375 C 0.78125 -4.15625 0.835938 -4.851562 0.949219 -5.523438 L 1.117188 -6.21875 C 1.171875 -6.414062 1.28125 -6.527344 1.449219 -6.554688 C 1.589844 -6.582031 1.703125 -6.636719 1.8125 -6.664062 C 1.925781 -6.691406 2.035156 -6.722656 2.148438 -6.777344 C 2.898438 -7.222656 3.679688 -7.890625 3.933594 -8.785156 C 4.128906 -9.371094 3.960938 -9.761719 3.402344 -10.011719 C 3.152344 -10.152344 2.957031 -10.152344 2.648438 -10.152344 C 2.425781 -10.152344 2.203125 -10.066406 1.953125 -9.929688 C 1.730469 -9.761719 1.5625 -9.59375 1.421875 -9.453125 C 1.085938 -9.121094 0.808594 -8.699219 0.585938 -8.28125 C -0.167969 -6.75 -0.503906 -5.160156 -0.390625 -3.515625 L -0.308594 -3.066406 C -0.167969 -2.511719 0.390625 -2.257812 0.921875 -2.257812 Z M 1.535156 -7.140625 C 1.449219 -7.167969 1.449219 -7.222656 1.476562 -7.308594 C 1.644531 -7.863281 2.480469 -9.566406 3.09375 -9.566406 C 3.207031 -9.566406 3.289062 -9.511719 3.320312 -9.371094 L 3.320312 -9.316406 C 3.320312 -8.535156 2.371094 -7.417969 1.644531 -7.140625 C 1.617188 -7.113281 1.5625 -7.113281 1.535156 -7.140625 Z M 1.535156 -7.140625 "/></g></g></g><g fill="#000000" fill-opacity="1"><g transform="translate(76.483461, 96.438311)"><g><path d="M 0.976562 -3.484375 C 1.171875 -3.484375 1.367188 -3.597656 1.535156 -3.820312 C 1.644531 -3.960938 1.730469 -4.128906 1.8125 -4.265625 C 1.894531 -4.460938 2.007812 -4.683594 2.089844 -4.878906 C 2.175781 -5.074219 2.257812 -5.269531 2.34375 -5.464844 C 2.480469 -5.773438 2.621094 -6.050781 2.761719 -6.359375 C 2.871094 -6.636719 3.011719 -6.917969 3.152344 -7.195312 C 3.484375 -7.863281 4.292969 -9.371094 5.019531 -9.453125 C 5.046875 -9.453125 5.132812 -9.566406 5.132812 -9.59375 C 5.105469 -9.621094 5.074219 -9.675781 5.046875 -9.703125 L 4.714844 -9.789062 C 4.683594 -9.789062 4.65625 -9.789062 4.628906 -9.816406 C 4.601562 -9.816406 4.574219 -9.816406 4.546875 -9.816406 C 4.015625 -9.816406 3.597656 -9.257812 3.347656 -8.839844 C 2.675781 -7.949219 2.203125 -6.886719 1.757812 -5.855469 L 1.535156 -5.4375 C 1.507812 -5.410156 1.476562 -5.382812 1.449219 -5.355469 C 1.421875 -5.328125 1.394531 -5.328125 1.394531 -5.355469 C 1.367188 -5.4375 1.339844 -5.464844 1.339844 -5.492188 L 1.757812 -8.339844 C 1.785156 -8.617188 1.839844 -8.894531 1.894531 -9.203125 C 1.925781 -9.480469 1.953125 -9.816406 1.953125 -10.179688 L 1.953125 -10.542969 C 1.925781 -10.792969 1.617188 -10.847656 1.421875 -10.847656 C 1.367188 -10.792969 1.339844 -10.765625 1.339844 -10.765625 C 0.921875 -10.207031 0.167969 -5.6875 0.113281 -4.683594 C 0.113281 -4.574219 0.113281 -4.460938 0.140625 -4.351562 C 0.140625 -4.238281 0.140625 -4.128906 0.140625 -4.015625 C 0.167969 -3.847656 0.25 -3.710938 0.445312 -3.625 C 0.503906 -3.597656 0.585938 -3.542969 0.695312 -3.515625 C 0.78125 -3.484375 0.863281 -3.484375 0.976562 -3.484375 Z M 0.976562 -3.484375 "/></g></g></g></svg>