<svg xmlns="http://www.w3.org/2000/svg" xmlns:xlink="http://www.w3.org/1999/xlink" width="170" zoomAndPan="magnify" viewBox="0 0 127.5 111.749997" height="149" preserveAspectRatio="xMidYMid meet" version="1.0"><defs><g/><clipPath id="c118ce6773"><path d="M 34 43 L 64 43 L 64 81.171875 L 34 81.171875 Z M 34 43 " clip-rule="nonzero"/></clipPath><clipPath id="7994002957"><path d="M 63 43 L 93 43 L 93 81.171875 L 63 81.171875 Z M 63 43 " clip-rule="nonzero"/></clipPath><clipPath id="aad476bdc4"><path d="M 63 61 L 64 61 L 64 81.171875 L 63 81.171875 Z M 63 61 " clip-rule="nonzero"/></clipPath><clipPath id="1757637b09"><path d="M 34 46 L 64 46 L 64 81.171875 L 34 81.171875 Z M 34 46 " clip-rule="nonzero"/></clipPath><clipPath id="a6da4cb0cb"><path d="M 63 46 L 93 46 L 93 81.171875 L 63 81.171875 Z M 63 46 " clip-rule="nonzero"/></clipPath><clipPath id="7c56e4da94"><path d="M 63 61 L 64 61 L 64 81.171875 L 63 81.171875 Z M 63 61 " clip-rule="nonzero"/></clipPath><clipPath id="ac302ee7a5"><path d="M 26.144531 7.957031 L 96.371094 7.957031 L 96.371094 33 L 26.144531 33 Z M 26.144531 7.957031 " clip-rule="nonzero"/></clipPath></defs><g clip-path="url(#c118ce6773)"><path fill="#f79faf" d="M 63.6875 47.285156 L 34.890625 43.988281 L 34.890625 63.878906 L 63.6875 81.171875 L 63.6875 47.285156 " fill-opacity="1" fill-rule="nonzero"/></g><g clip-path="url(#7994002957)"><path fill="#f79faf" d="M 63.703125 47.285156 L 92.5 43.988281 L 92.5 63.878906 L 63.703125 81.171875 L 63.703125 47.285156 " fill-opacity="1" fill-rule="nonzero"/></g><g clip-path="url(#aad476bdc4)"><path fill="#e7e7e6" d="M 63.714844 81.171875 L 63.707031 81.167969 L 63.714844 81.164062 L 63.714844 81.171875 M 63.703125 81.164062 L 63.6875 81.152344 L 63.6875 61.574219 L 63.703125 61.5625 L 63.703125 81.164062 " fill-opacity="1" fill-rule="nonzero"/></g><g clip-path="url(#1757637b09)"><path fill="#e6909b" d="M 63.6875 81.152344 L 53.484375 75.027344 C 52.992188 73.578125 52.4375 67.976562 52.4375 67.976562 C 52.4375 67.976562 51.816406 61.664062 51.378906 55.105469 L 63.6875 61.574219 L 63.6875 81.152344 M 41.359375 67.746094 L 34.917969 63.878906 L 34.917969 46.457031 L 40.210938 49.242188 C 40.648438 57.589844 41.199219 66.601562 41.359375 67.746094 " fill-opacity="1" fill-rule="nonzero"/></g><g clip-path="url(#a6da4cb0cb)"><path fill="#d98793" d="M 63.703125 81.171875 L 63.703125 81.164062 L 63.707031 81.167969 L 63.703125 81.171875 M 63.714844 81.164062 L 63.714844 61.558594 L 63.761719 61.535156 L 63.761719 61.574219 L 75.109375 55.609375 C 74.671875 62.160156 74.050781 68.460938 74.050781 68.460938 C 74.050781 68.460938 73.472656 74.316406 72.972656 75.605469 L 63.714844 81.164062 M 85.117188 68.3125 C 85.261719 67.605469 85.828125 58.328125 86.277344 49.742188 L 92.5 46.476562 L 92.5 63.878906 L 85.117188 68.3125 " fill-opacity="1" fill-rule="nonzero"/></g><g clip-path="url(#7c56e4da94)"><path fill="#c07982" d="M 63.707031 81.167969 L 63.703125 81.164062 L 63.703125 61.5625 L 63.714844 61.558594 L 63.714844 81.164062 L 63.707031 81.167969 " fill-opacity="1" fill-rule="nonzero"/></g><path fill="#f79faf" d="M 95.738281 44.773438 L 63.6875 61.574219 L 31.710938 44.773438 L 31.710938 30.644531 L 62.925781 13.84375 L 95.738281 30.644531 L 95.738281 44.773438 " fill-opacity="1" fill-rule="nonzero"/><path fill="#f79faf" d="M 63.6875 61.574219 L 31.710938 44.773438 L 31.710938 30.644531 L 63.6875 47.207031 L 63.6875 61.574219 " fill-opacity="1" fill-rule="nonzero"/><path fill="#f79faf" d="M 63.761719 61.574219 L 95.738281 44.773438 L 95.738281 30.644531 L 63.761719 47.207031 L 63.761719 61.574219 " fill-opacity="1" fill-rule="nonzero"/><path fill="#f398a5" d="M 63.6875 61.574219 L 51.378906 55.105469 C 51.140625 51.503906 50.949219 47.824219 50.949219 45.082031 C 50.949219 42.988281 51.058594 41.441406 51.335938 40.886719 C 51.347656 40.867188 51.355469 40.847656 51.367188 40.824219 L 63.6875 47.207031 L 63.6875 61.574219 " fill-opacity="1" fill-rule="nonzero"/><path fill="#f398a5" d="M 40.210938 49.242188 L 31.710938 44.773438 L 31.710938 30.738281 C 32.332031 31.039062 32.742188 31.257812 32.742188 31.257812 C 32.742188 31.257812 32.835938 31.28125 33.003906 31.3125 L 39.648438 34.757812 C 39.644531 34.78125 39.640625 34.804688 39.640625 34.828125 C 39.636719 34.953125 39.632812 35.113281 39.632812 35.304688 C 39.632812 37.351562 39.890625 43.117188 40.210938 49.242188 " fill-opacity="1" fill-rule="nonzero"/><path fill="#e6909b" d="M 63.761719 61.574219 L 63.761719 47.207031 L 75.125 41.320312 C 75.132812 41.339844 75.144531 41.355469 75.152344 41.375 C 75.429688 41.925781 75.535156 43.46875 75.539062 45.5625 C 75.539062 48.308594 75.351562 51.996094 75.109375 55.609375 L 63.761719 61.574219 " fill-opacity="1" fill-rule="nonzero"/><path fill="#e6909b" d="M 86.277344 49.742188 C 86.597656 43.613281 86.855469 37.839844 86.855469 35.789062 C 86.855469 35.597656 86.851562 35.441406 86.847656 35.316406 C 86.847656 35.292969 86.847656 35.273438 86.84375 35.25 L 95.738281 30.644531 L 95.738281 44.773438 L 86.277344 49.742188 " fill-opacity="1" fill-rule="nonzero"/><path fill="#992228" d="M 59.292969 25.394531 C 59.292969 25.394531 39.769531 31.46875 39.640625 34.828125 C 39.511719 38.191406 41.183594 67.746094 41.386719 67.867188 C 41.589844 67.992188 51.75 75.054688 53.535156 75.164062 C 53.03125 73.976562 52.4375 67.976562 52.4375 67.976562 C 52.4375 67.976562 50.039062 43.484375 51.335938 40.886719 C 52.632812 38.289062 59.292969 25.394531 59.292969 25.394531 " fill-opacity="1" fill-rule="nonzero"/><path fill="#992228" d="M 67.195312 25.882812 C 67.195312 25.882812 86.71875 31.957031 86.847656 35.316406 C 86.976562 38.675781 85.304688 68.230469 85.101562 68.355469 C 84.898438 68.476562 74.738281 75.539062 72.953125 75.648438 C 73.457031 74.460938 74.050781 68.460938 74.050781 68.460938 C 74.050781 68.460938 76.449219 43.972656 75.152344 41.375 C 73.855469 38.773438 67.195312 25.882812 67.195312 25.882812 " fill-opacity="1" fill-rule="nonzero"/><path fill="#f398a5" d="M 41.363281 67.765625 C 41.363281 67.757812 41.359375 67.753906 41.359375 67.746094 C 41.359375 67.753906 41.363281 67.757812 41.363281 67.765625 " fill-opacity="1" fill-rule="nonzero"/><path fill="#d98993" d="M 41.359375 67.746094 C 41.199219 66.601562 40.648438 57.589844 40.210938 49.242188 C 40.648438 57.589844 41.199219 66.601562 41.359375 67.746094 " fill-opacity="1" fill-rule="nonzero"/><path fill="#e7909b" d="M 40.210938 49.242188 C 39.890625 43.117188 39.632812 37.351562 39.632812 35.304688 C 39.632812 37.351562 39.890625 43.117188 40.210938 49.242188 " fill-opacity="1" fill-rule="nonzero"/><path fill="#912027" d="M 53.535156 75.164062 C 51.75 75.054688 41.589844 67.992188 41.386719 67.867188 C 41.378906 67.863281 41.371094 67.828125 41.363281 67.765625 C 41.363281 67.757812 41.359375 67.753906 41.359375 67.746094 C 41.199219 66.601562 40.648438 57.589844 40.210938 49.242188 C 39.890625 43.117188 39.632812 37.351562 39.632812 35.304688 C 39.632812 35.113281 39.636719 34.953125 39.640625 34.828125 C 39.707031 33.085938 45 30.609375 50.074219 28.632812 C 50.714844 28.597656 51.101562 28.585938 51.101562 28.585938 L 51.136719 28.585938 C 51.5625 28.585938 55.808594 28.558594 58.210938 27.496094 C 56.269531 31.261719 52.304688 38.949219 51.335938 40.886719 C 51.058594 41.441406 50.949219 42.988281 50.949219 45.082031 C 50.953125 52.8125 52.4375 67.976562 52.4375 67.976562 C 52.4375 67.976562 53.03125 73.976562 53.535156 75.164062 " fill-opacity="1" fill-rule="nonzero"/><path fill="#cc7f8a" d="M 85.117188 68.3125 C 85.261719 67.605469 85.828125 58.328125 86.277344 49.742188 C 85.828125 58.328125 85.261719 67.605469 85.117188 68.3125 " fill-opacity="1" fill-rule="nonzero"/><path fill="#d98993" d="M 86.277344 49.742188 C 86.597656 43.613281 86.855469 37.839844 86.855469 35.789062 C 86.855469 37.839844 86.597656 43.613281 86.277344 49.742188 " fill-opacity="1" fill-rule="nonzero"/><path fill="#912027" d="M 72.953125 75.648438 C 73.457031 74.460938 74.050781 68.460938 74.050781 68.460938 C 74.050781 68.460938 75.539062 53.289062 75.539062 45.5625 C 75.535156 43.46875 75.429688 41.925781 75.152344 41.375 C 74.136719 39.339844 69.832031 30.988281 68.011719 27.460938 C 69.957031 28.957031 74.996094 32.507812 78.871094 32.507812 C 79.765625 32.507812 80.59375 32.320312 81.308594 31.878906 C 81.511719 31.75 81.714844 31.621094 81.914062 31.480469 C 84.71875 32.847656 86.804688 34.222656 86.847656 35.316406 C 86.851562 35.441406 86.855469 35.597656 86.855469 35.789062 C 86.855469 37.839844 86.597656 43.613281 86.277344 49.742188 C 85.828125 58.328125 85.261719 67.605469 85.117188 68.3125 C 85.109375 68.339844 85.105469 68.351562 85.101562 68.355469 C 84.898438 68.476562 74.738281 75.539062 72.953125 75.648438 " fill-opacity="1" fill-rule="nonzero"/><g clip-path="url(#ac302ee7a5)"><path fill="#992228" d="M 63.539062 20.519531 C 63.539062 20.519531 54.046875 22.824219 51.59375 15.742188 C 49.136719 8.664062 44.714844 8.664062 42.09375 9.980469 C 39.476562 11.300781 33.582031 15.578125 32.761719 16.238281 C 31.945312 16.894531 29.160156 22.824219 35.546875 24.46875 C 41.933594 26.113281 46.023438 26.609375 46.023438 26.609375 C 46.023438 26.609375 29.488281 26.28125 26.214844 29.078125 C 27.359375 28.414062 32.742188 31.257812 32.742188 31.257812 C 32.742188 31.257812 36.230469 32.160156 38.6875 30.546875 C 41.148438 28.9375 51.101562 28.585938 51.101562 28.585938 C 51.101562 28.585938 57.378906 28.625 59.292969 26.816406 C 61.988281 31.589844 67.195312 26.816406 67.195312 26.816406 C 67.195312 26.816406 76.640625 34.757812 81.308594 31.878906 C 85.976562 28.996094 90.273438 22.613281 89.863281 20.90625 C 89.453125 19.199219 86.261719 18.5 83.683594 18.625 C 81.101562 18.75 95.921875 13.480469 96.289062 13.480469 C 96.65625 13.480469 87.164062 5.824219 80.285156 8.539062 C 77.664062 9.199219 72.261719 16.074219 72.261719 16.074219 C 72.261719 16.074219 68.8125 19.984375 63.539062 20.519531 " fill-opacity="1" fill-rule="nonzero"/></g><path fill="#f398a5" d="M 62.726562 28.984375 C 62.367188 28.984375 62.035156 28.933594 61.734375 28.847656 C 62 28.910156 62.269531 28.9375 62.539062 28.9375 C 64.878906 28.9375 67.195312 26.816406 67.195312 26.816406 C 65.378906 28.441406 63.898438 28.984375 62.726562 28.984375 M 59.46875 27.105469 C 59.351562 26.929688 59.292969 26.816406 59.292969 26.816406 C 59.351562 26.914062 59.410156 27.011719 59.46875 27.105469 M 59.957031 20.875 C 59.945312 20.875 59.933594 20.875 59.917969 20.875 C 59.925781 20.875 59.929688 20.875 59.9375 20.875 C 59.941406 20.875 59.949219 20.875 59.957031 20.875 M 62 20.769531 C 62.4375 20.710938 62.898438 20.636719 63.335938 20.5625 C 63.085938 20.613281 62.617188 20.699219 62 20.769531 M 63.664062 20.503906 C 64.730469 20.316406 65.589844 20.128906 65.589844 20.128906 C 64.980469 20.300781 64.339844 20.429688 63.664062 20.503906 " fill-opacity="1" fill-rule="nonzero"/><path fill="#912027" d="M 62.539062 28.9375 C 62.269531 28.9375 62 28.910156 61.734375 28.847656 C 60.523438 28.496094 59.78125 27.578125 59.46875 27.105469 C 59.410156 27.011719 59.351562 26.914062 59.292969 26.816406 C 59.292969 26.78125 59.296875 20.980469 59.917969 20.875 C 59.933594 20.875 59.945312 20.875 59.957031 20.875 C 60.074219 20.898438 60.226562 20.90625 60.402344 20.90625 C 60.824219 20.90625 61.394531 20.851562 62 20.769531 C 62.617188 20.699219 63.085938 20.613281 63.335938 20.5625 C 63.449219 20.542969 63.558594 20.523438 63.664062 20.503906 C 64.339844 20.429688 64.980469 20.300781 65.589844 20.128906 C 65.613281 20.148438 67.8125 21.960938 67.195312 26.816406 C 67.195312 26.816406 64.878906 28.9375 62.539062 28.9375 " fill-opacity="1" fill-rule="nonzero"/><g fill="#000000" fill-opacity="1"><g transform="translate(52.46217, 96.039882)"><g><path d="M 1.144531 2.621094 C 3.039062 2.539062 4.265625 0.335938 4.9375 -1.3125 C 5.242188 -2.007812 5.492188 -2.707031 5.746094 -3.457031 L 7 -7.390625 C 7.78125 -7.695312 8.644531 -7.976562 9.566406 -8.226562 L 9.734375 -8.3125 C 9.761719 -8.339844 9.816406 -8.476562 9.734375 -8.507812 C 9.648438 -8.535156 9.59375 -8.5625 9.566406 -8.5625 C 9.511719 -8.589844 9.425781 -8.589844 9.316406 -8.589844 C 9.121094 -8.589844 8.925781 -8.535156 8.730469 -8.507812 C 8.226562 -8.367188 7.726562 -8.199219 7.222656 -8.003906 C 7.417969 -8.671875 7.640625 -9.34375 7.863281 -10.011719 C 8.085938 -10.652344 8.3125 -11.324219 8.507812 -11.992188 C 8.589844 -12.296875 8.671875 -12.605469 8.757812 -12.914062 C 8.8125 -13.21875 8.867188 -13.527344 8.953125 -13.832031 C 8.980469 -13.886719 8.980469 -13.945312 8.980469 -14.027344 C 8.980469 -14.167969 8.925781 -14.25 8.839844 -14.304688 L 8.730469 -14.390625 C 8.617188 -14.445312 8.535156 -14.472656 8.449219 -14.472656 C 8.3125 -14.472656 8.171875 -14.363281 8.085938 -14.167969 C 7.949219 -13.886719 7.753906 -13.609375 7.5 -13.300781 C 7.027344 -12.605469 5.6875 -10.847656 4.769531 -9.84375 C 3.792969 -8.785156 2.398438 -7.472656 1.507812 -7.472656 C 1.3125 -7.5 1.171875 -7.613281 1.085938 -7.753906 C 0.976562 -8.058594 0.890625 -8.339844 0.890625 -8.644531 C 0.835938 -9.511719 0.890625 -10.402344 1.058594 -11.265625 C 1.644531 -13.75 3.570312 -17.375 5.746094 -18.824219 L 6.359375 -19.160156 C 6.496094 -19.242188 6.636719 -19.269531 6.832031 -19.269531 L 7 -19.269531 C 7.195312 -19.242188 7.335938 -19.160156 7.417969 -18.964844 C 7.445312 -18.851562 7.5 -18.714844 7.5 -18.601562 C 7.53125 -18.292969 7.5 -18.015625 7.390625 -17.765625 C 7.363281 -17.625 7.308594 -17.515625 7.277344 -17.429688 C 7.222656 -17.320312 7.167969 -17.207031 7.140625 -17.09375 C 7.054688 -16.929688 7.113281 -16.816406 7.308594 -16.789062 C 7.335938 -16.761719 7.390625 -16.761719 7.445312 -16.761719 C 7.890625 -16.761719 8.117188 -17.738281 8.199219 -18.097656 C 8.28125 -18.683594 8.117188 -19.101562 7.640625 -19.410156 C 7.167969 -19.71875 6.691406 -19.882812 6.21875 -19.882812 C 3.765625 -19.882812 1.394531 -16.007812 0.472656 -13.777344 C -0.0820312 -12.464844 -0.417969 -11.15625 -0.417969 -9.789062 C -0.390625 -9.539062 -0.390625 -9.285156 -0.390625 -9.035156 C -0.363281 -8.785156 -0.335938 -8.507812 -0.277344 -8.253906 C -0.0273438 -7.25 0.863281 -7 1.785156 -7 C 2.425781 -7 2.957031 -7.195312 3.484375 -7.667969 C 4.238281 -8.3125 4.910156 -8.980469 5.550781 -9.761719 C 5.914062 -10.289062 6.273438 -10.738281 6.691406 -11.210938 C 6.75 -11.292969 6.832031 -11.378906 6.917969 -11.433594 C 6.917969 -11.460938 6.945312 -11.460938 6.972656 -11.460938 C 7 -11.460938 7.027344 -11.433594 7.027344 -11.40625 C 6.886719 -10.988281 6.75 -10.570312 6.636719 -10.152344 C 6.496094 -9.734375 6.386719 -9.316406 6.246094 -8.894531 L 5.746094 -7.308594 C 3.542969 -6.109375 1.703125 -4.40625 0.503906 -2.539062 C 0.277344 -2.089844 0.0820312 -1.644531 -0.113281 -1.171875 C -0.363281 -0.53125 -0.445312 0.167969 -0.390625 0.890625 C -0.308594 1.8125 0.140625 2.621094 1.144531 2.621094 Z M 1.339844 2.203125 C 1.226562 2.203125 1.144531 2.175781 1.03125 2.089844 C 0.585938 1.757812 0.363281 1.3125 0.363281 0.726562 C 0.335938 0.308594 0.335938 -0.0820312 0.445312 -0.503906 C 0.667969 -1.476562 1.117188 -2.398438 1.757812 -3.261719 C 3.179688 -4.878906 3.347656 -5.382812 5.550781 -6.664062 L 4.796875 -4.210938 C 4.488281 -3.234375 4.183594 -2.316406 3.847656 -1.339844 C 3.429688 -0.222656 2.816406 1.085938 1.925781 1.894531 C 1.867188 1.925781 1.8125 1.980469 1.757812 2.035156 C 1.671875 2.0625 1.617188 2.121094 1.535156 2.148438 C 1.449219 2.175781 1.394531 2.203125 1.339844 2.203125 Z M 1.339844 2.203125 "/></g></g></g><g fill="#000000" fill-opacity="1"><g transform="translate(60.828215, 96.039882)"><g><path d="M 0.726562 -3.152344 C 1.085938 -3.152344 1.421875 -3.402344 1.671875 -3.625 C 2.203125 -4.183594 2.675781 -4.769531 3.09375 -5.410156 C 3.347656 -5.828125 3.597656 -6.246094 3.847656 -6.664062 C 4.097656 -7.054688 4.351562 -7.445312 4.601562 -7.863281 L 4.824219 -8.28125 C 4.910156 -8.394531 4.769531 -8.5625 4.628906 -8.589844 C 4.601562 -8.617188 4.546875 -8.617188 4.460938 -8.617188 C 4.351562 -8.617188 4.238281 -8.5625 4.128906 -8.421875 C 4.042969 -8.3125 3.988281 -8.199219 3.933594 -8.117188 C 3.875 -8.003906 3.820312 -7.890625 3.738281 -7.808594 L 2.707031 -6.050781 L 2.0625 -5.132812 C 1.839844 -4.824219 1.5625 -4.574219 1.253906 -4.265625 C 1.226562 -4.238281 1.199219 -4.238281 1.171875 -4.210938 C 1.144531 -4.183594 1.117188 -4.183594 1.085938 -4.15625 C 1.058594 -4.128906 1.03125 -4.128906 0.976562 -4.128906 C 0.890625 -4.15625 0.863281 -4.183594 0.863281 -4.265625 C 0.890625 -4.519531 0.921875 -4.742188 0.949219 -4.964844 C 0.976562 -5.1875 1.003906 -5.410156 1.03125 -5.632812 C 1.171875 -6.386719 1.339844 -7.054688 1.535156 -7.808594 L 1.703125 -8.507812 C 1.730469 -8.671875 1.703125 -8.785156 1.5625 -8.839844 C 1.421875 -8.925781 1.339844 -8.953125 1.339844 -8.953125 L 1.253906 -8.953125 C 1.03125 -8.953125 0.921875 -8.785156 0.835938 -8.589844 C 0.140625 -7.25 -0.195312 -5.855469 -0.195312 -4.433594 C -0.195312 -4.324219 -0.195312 -4.210938 -0.195312 -4.097656 C -0.195312 -3.988281 -0.167969 -3.875 -0.140625 -3.792969 C -0.0546875 -3.375 0.308594 -3.152344 0.726562 -3.152344 Z M 1.980469 -10.457031 C 2.0625 -10.457031 2.148438 -10.457031 2.175781 -10.457031 C 2.203125 -10.457031 2.257812 -10.484375 2.34375 -10.515625 C 2.539062 -10.652344 2.621094 -11.015625 2.480469 -11.210938 C 2.398438 -11.292969 2.316406 -11.40625 2.230469 -11.546875 C 2.121094 -11.683594 1.980469 -11.742188 1.839844 -11.742188 C 1.703125 -11.742188 1.589844 -11.683594 1.535156 -11.574219 C 1.449219 -11.40625 1.421875 -11.210938 1.421875 -10.988281 C 1.421875 -10.792969 1.507812 -10.625 1.703125 -10.542969 C 1.757812 -10.515625 1.8125 -10.484375 1.867188 -10.484375 C 1.894531 -10.484375 1.953125 -10.484375 1.980469 -10.457031 Z M 1.980469 -10.457031 "/></g></g></g><g fill="#000000" fill-opacity="1"><g transform="translate(64.286185, 96.039882)"><g><path d="M 0.667969 2.898438 C 1.644531 2.898438 2.089844 1.953125 2.230469 1.144531 C 2.480469 -0.277344 2.511719 -1.703125 2.0625 -3.125 C 1.980469 -3.320312 1.953125 -3.457031 1.925781 -3.652344 C 1.785156 -4.097656 1.617188 -4.546875 1.394531 -4.992188 C 1.367188 -5.074219 1.339844 -5.132812 1.3125 -5.214844 C 1.28125 -5.269531 1.226562 -5.328125 1.199219 -5.410156 C 1.117188 -5.550781 1.171875 -5.660156 1.339844 -5.71875 L 3.125 -6.554688 C 4.042969 -7.027344 5.855469 -7.863281 6.414062 -8.421875 C 6.496094 -8.449219 6.46875 -8.5625 6.386719 -8.644531 C 6.273438 -8.730469 6.191406 -8.757812 6.109375 -8.757812 C 6.050781 -8.757812 5.996094 -8.730469 5.914062 -8.699219 L 5.4375 -8.449219 C 4.488281 -7.863281 3.515625 -7.335938 2.511719 -6.859375 C 2.371094 -6.777344 2.257812 -6.75 2.0625 -6.722656 C 2.0625 -6.691406 2.0625 -6.691406 2.0625 -6.722656 C 2.035156 -6.722656 2.035156 -6.722656 2.035156 -6.75 C 2.007812 -6.75 2.007812 -6.777344 2.007812 -6.804688 C 2.121094 -7 2.230469 -7.140625 2.371094 -7.277344 C 3.347656 -8.476562 4.070312 -9.816406 4.546875 -11.351562 C 4.574219 -11.433594 4.574219 -11.488281 4.574219 -11.574219 C 4.574219 -11.65625 4.574219 -11.714844 4.601562 -11.796875 C 4.601562 -11.992188 4.546875 -12.160156 4.40625 -12.296875 C 4.183594 -12.550781 3.875 -12.6875 3.484375 -12.6875 C 2.425781 -12.6875 1.449219 -11.15625 0.921875 -9.734375 C 0.335938 -8.28125 -0.0820312 -6.664062 -0.417969 -5.382812 C -0.753906 -3.792969 -0.949219 -2.203125 -1.003906 -0.558594 C -1.003906 0.0820312 -1.03125 0.667969 -0.835938 1.253906 C -0.640625 2.0625 -0.308594 2.898438 0.667969 2.898438 Z M 0.78125 2.175781 C 0.753906 2.175781 0.726562 2.148438 0.695312 2.121094 C 0.613281 2.035156 0.558594 1.953125 0.53125 1.839844 C 0.390625 1.421875 0.277344 1.003906 0.277344 0.558594 C 0.25 0.417969 0.25 0.277344 0.277344 0.140625 C 0.277344 0 0.277344 -0.140625 0.277344 -0.277344 C 0.308594 -1.589844 0.445312 -2.929688 0.695312 -4.238281 C 0.695312 -4.324219 0.753906 -4.40625 0.78125 -4.488281 C 0.863281 -4.488281 0.890625 -4.488281 0.890625 -4.488281 C 0.976562 -4.460938 1.003906 -4.40625 1.003906 -4.351562 L 1.226562 -3.710938 C 1.253906 -3.570312 1.3125 -3.457031 1.339844 -3.347656 C 1.367188 -3.207031 1.394531 -3.09375 1.421875 -2.957031 C 1.785156 -1.644531 1.703125 -0.390625 1.449219 0.921875 C 1.394531 1.3125 1.253906 1.644531 1.03125 1.953125 C 1.003906 1.980469 1.003906 2.007812 0.976562 2.035156 C 0.949219 2.0625 0.890625 2.089844 0.863281 2.121094 C 0.863281 2.148438 0.835938 2.175781 0.78125 2.175781 Z M 1.476562 -7.390625 C 1.449219 -7.390625 1.449219 -7.417969 1.449219 -7.445312 L 1.449219 -7.5 C 1.449219 -7.585938 1.449219 -7.667969 1.476562 -7.695312 C 1.785156 -8.589844 2.0625 -9.480469 2.425781 -10.347656 C 2.648438 -10.820312 2.929688 -11.292969 3.289062 -11.714844 L 3.625 -12.019531 C 3.652344 -12.046875 3.710938 -12.046875 3.765625 -12.019531 C 3.765625 -12.019531 3.792969 -11.992188 3.847656 -11.9375 L 3.847656 -11.796875 C 3.847656 -10.710938 2.316406 -8.253906 1.589844 -7.390625 C 1.589844 -7.390625 1.5625 -7.390625 1.476562 -7.390625 Z M 1.476562 -7.390625 "/></g></g></g><g fill="#000000" fill-opacity="1"><g transform="translate(69.361591, 96.039882)"><g><path d="M 0.0546875 0.949219 C 0.53125 0.949219 0.835938 0.890625 1.144531 0.472656 L 1.3125 0.277344 C 1.839844 -0.472656 2.34375 -1.199219 2.761719 -1.980469 C 2.898438 -2.285156 3.039062 -2.539062 3.234375 -2.84375 L 4.15625 -4.433594 C 4.460938 -5.019531 4.796875 -5.578125 5.105469 -6.164062 C 5.410156 -6.722656 5.746094 -7.308594 6.050781 -7.890625 C 6.109375 -7.976562 6.164062 -8.085938 6.246094 -8.226562 C 6.273438 -8.367188 6.246094 -8.449219 6.136719 -8.507812 C 6.050781 -8.5625 5.996094 -8.589844 5.914062 -8.589844 C 5.855469 -8.589844 5.800781 -8.5625 5.773438 -8.535156 L 5.578125 -8.28125 L 4.65625 -6.609375 C 4.433594 -6.246094 4.238281 -5.882812 4.015625 -5.464844 C 3.597656 -4.769531 3.207031 -4.042969 2.816406 -3.347656 C 2.398438 -2.621094 1.980469 -1.894531 1.5625 -1.199219 C 1.339844 -0.835938 1.058594 -0.472656 0.808594 -0.140625 C 0.78125 -0.0820312 0.726562 -0.0273438 0.695312 0.0546875 C 0.667969 0.113281 0.613281 0.140625 0.53125 0.113281 C 0.445312 0.0820312 0.390625 0.0273438 0.390625 -0.0546875 C 0.363281 -0.140625 0.363281 -0.195312 0.335938 -0.277344 C 0.335938 -2.929688 1.03125 -5.492188 1.785156 -7.976562 C 1.867188 -8.144531 2.816406 -11.238281 2.957031 -11.378906 C 3.011719 -11.460938 3.066406 -11.519531 3.152344 -11.574219 C 3.679688 -11.851562 6.496094 -12.269531 7.195312 -12.355469 C 7.863281 -12.4375 8.589844 -12.523438 9.230469 -12.746094 C 9.285156 -12.773438 9.34375 -12.828125 9.371094 -12.914062 C 9.425781 -13.050781 9.398438 -13.21875 9.257812 -13.386719 C 9.203125 -13.441406 9.148438 -13.46875 9.0625 -13.46875 L 7.585938 -13.191406 C 7.222656 -13.136719 6.886719 -13.078125 6.527344 -13.023438 C 6.164062 -12.96875 5.828125 -12.914062 5.464844 -12.828125 C 5.160156 -12.800781 4.878906 -12.746094 4.601562 -12.6875 C 4.292969 -12.605469 4.015625 -12.550781 3.738281 -12.523438 C 3.679688 -12.492188 3.625 -12.492188 3.542969 -12.492188 C 3.484375 -12.550781 3.457031 -12.578125 3.457031 -12.605469 C 3.457031 -12.660156 3.484375 -12.773438 3.515625 -12.914062 C 3.625 -13.21875 3.738281 -13.554688 3.847656 -13.859375 C 3.933594 -14.167969 4.042969 -14.472656 4.15625 -14.78125 C 4.183594 -14.921875 4.210938 -15.058594 4.210938 -15.171875 C 4.238281 -15.226562 4.210938 -15.28125 4.15625 -15.339844 C 4.070312 -15.476562 3.933594 -15.5625 3.792969 -15.5625 C 3.429688 -15.5625 3.179688 -14.753906 2.984375 -14.472656 C 2.675781 -13.886719 2.425781 -13.332031 2.175781 -12.6875 C 1.8125 -11.992188 1.980469 -12.160156 1.226562 -11.9375 C 1.199219 -11.910156 1.171875 -11.910156 1.117188 -11.910156 C 0.753906 -11.824219 0.417969 -11.714844 0.0820312 -11.628906 C -0.25 -11.546875 -0.585938 -11.433594 -0.921875 -11.351562 C -0.976562 -11.324219 -1.03125 -11.324219 -1.085938 -11.292969 C -1.144531 -11.265625 -1.199219 -11.210938 -1.28125 -11.183594 C -1.3125 -11.15625 -1.3125 -11.128906 -1.3125 -11.070312 C -1.28125 -10.933594 -1.144531 -10.765625 -1.03125 -10.765625 C -0.949219 -10.738281 -0.890625 -10.738281 -0.835938 -10.738281 C -0.753906 -10.738281 -0.695312 -10.738281 -0.640625 -10.738281 C -0.445312 -10.765625 -0.277344 -10.820312 -0.113281 -10.847656 C 0.0546875 -10.875 0.222656 -10.933594 0.390625 -10.960938 C 0.53125 -10.988281 0.667969 -11.042969 0.808594 -11.070312 C 0.949219 -11.097656 1.085938 -11.128906 1.226562 -11.15625 L 1.28125 -11.15625 C 1.476562 -11.15625 1.5625 -11.070312 1.476562 -10.902344 C 1.449219 -10.765625 1.394531 -10.625 1.339844 -10.484375 C 1.28125 -10.347656 1.226562 -10.234375 1.199219 -10.09375 C 0.167969 -7.082031 -0.53125 -4.128906 -0.835938 -0.976562 C -0.835938 -0.613281 -0.808594 -0.277344 -0.726562 0.0820312 C -0.613281 0.503906 -0.417969 0.863281 0.0546875 0.949219 Z M 0.0546875 0.949219 "/></g></g></g></svg>