<svg xmlns="http://www.w3.org/2000/svg" xmlns:xlink="http://www.w3.org/1999/xlink" width="168" zoomAndPan="magnify" viewBox="0 0 126 116.249996" height="155" preserveAspectRatio="xMidYMid meet" version="1.0"><defs><g/></defs><path fill="#3b647f" d="M 82.726562 12.144531 L 74.121094 30.132812 C 73.976562 30.433594 73.519531 30.519531 73.101562 30.320312 C 72.683594 30.125 72.460938 29.722656 72.605469 29.421875 L 81.214844 11.429688 C 81.359375 11.128906 81.8125 11.046875 82.230469 11.242188 C 82.648438 11.441406 82.871094 11.84375 82.726562 12.144531 Z M 67.816406 9.132812 C 66.535156 10.351562 65.917969 11.945312 65.367188 13.585938 C 65.230469 13.984375 65.871094 14.15625 66.003906 13.757812 C 66.519531 12.226562 67.082031 10.738281 68.285156 9.59375 C 68.59375 9.300781 68.125 8.839844 67.816406 9.132812 Z M 67.816406 9.132812 " fill-opacity="1" fill-rule="nonzero"/><path fill="#bcf6f4" d="M 77.007812 39.433594 C 74.660156 45.511719 73.511719 57.703125 73.1875 61.742188 C 73.226562 62.058594 73.25 62.382812 73.25 62.710938 C 73.25 66.445312 70.550781 69.554688 66.980469 70.222656 L 66.980469 74.53125 L 72.65625 77.652344 C 73.460938 77.910156 74.023438 78.210938 74.269531 78.539062 L 74.273438 78.542969 L 74.269531 78.542969 C 74.359375 78.660156 74.40625 78.78125 74.40625 78.90625 C 74.40625 80.058594 70.507812 80.992188 65.699219 80.992188 C 60.890625 80.992188 56.992188 80.058594 56.992188 78.90625 C 56.992188 78.359375 57.878906 77.859375 59.320312 77.488281 L 64.171875 74.53125 L 64.171875 70.238281 C 60.679688 69.621094 58 66.675781 57.828125 63.078125 L 57.816406 63.078125 C 57.816406 63.078125 56.75 47.003906 53.953125 39.582031 L 52.289062 36.574219 C 65.65625 33.140625 78.613281 36.574219 78.613281 36.574219 Z M 77.007812 39.433594 " fill-opacity="1" fill-rule="nonzero"/><path fill="#ff9cb6" d="M 77.046875 35.675781 C 76.910156 35.828125 76.769531 36.042969 76.625 36.308594 C 75.882812 37.695312 75.058594 40.535156 74.328125 43.878906 C 74.328125 43.890625 74.328125 43.898438 74.324219 43.90625 C 74.003906 45.390625 73.703125 46.96875 73.4375 48.566406 C 73.160156 50.214844 72.925781 51.878906 72.742188 53.46875 C 72.519531 55.40625 72.378906 57.234375 72.347656 58.792969 C 72.34375 58.886719 72.34375 58.980469 72.34375 59.070312 C 72.324219 60.84375 72.089844 62.335938 71.699219 63.578125 C 71.050781 65.65625 69.980469 67.039062 68.773438 67.871094 C 68.507812 68.054688 68.234375 68.210938 67.957031 68.34375 C 67.125 68.742188 66.257812 68.90625 65.453125 68.886719 C 64.402344 68.859375 63.324219 68.441406 62.367188 67.742188 C 61.742188 67.285156 61.167969 66.710938 60.683594 66.042969 C 60.179688 65.351562 59.773438 64.566406 59.5 63.710938 C 59.28125 63.019531 59.152344 62.285156 59.140625 61.523438 C 59.117188 60.578125 59.035156 59.390625 58.917969 58.132812 C 58.765625 56.503906 58.558594 54.757812 58.367188 53.246094 C 58.078125 50.984375 57.820312 49.253906 57.820312 49.253906 C 57.800781 49.128906 57.785156 48.996094 57.765625 48.867188 C 57.507812 46.988281 57.058594 44.949219 56.566406 43.050781 C 55.921875 40.546875 55.207031 38.285156 54.765625 36.945312 C 54.699219 36.742188 54.636719 36.5625 54.585938 36.402344 C 54.429688 35.9375 54.335938 35.675781 54.335938 35.675781 L 54.398438 35.476562 L 54.433594 35.363281 L 54.53125 35.0625 L 54.542969 35.03125 L 54.550781 35.003906 L 54.613281 34.804688 L 54.734375 34.4375 L 54.90625 33.910156 L 54.933594 33.824219 L 55.054688 33.449219 L 55.144531 33.171875 L 55.144531 33.167969 L 55.195312 33.019531 L 55.261719 32.8125 C 55.269531 32.804688 55.332031 32.757812 55.492188 32.65625 C 55.554688 32.613281 55.632812 32.566406 55.726562 32.507812 C 55.808594 32.457031 55.90625 32.402344 56.019531 32.335938 C 56.066406 32.304688 56.121094 32.273438 56.179688 32.242188 C 56.226562 32.214844 56.273438 32.183594 56.328125 32.152344 C 56.335938 32.148438 56.347656 32.144531 56.355469 32.140625 C 56.371094 32.128906 56.390625 32.117188 56.410156 32.105469 L 56.414062 32.105469 C 56.449219 32.082031 56.484375 32.0625 56.519531 32.046875 C 56.519531 32.046875 56.527344 32.042969 56.53125 32.039062 C 56.53125 32.039062 56.53125 32.039062 56.535156 32.039062 C 56.613281 31.992188 56.695312 31.945312 56.785156 31.898438 C 56.847656 31.859375 56.914062 31.824219 56.984375 31.789062 C 57.039062 31.757812 57.097656 31.722656 57.160156 31.691406 C 57.171875 31.683594 57.1875 31.675781 57.199219 31.667969 C 57.296875 31.617188 57.398438 31.558594 57.503906 31.503906 C 57.550781 31.476562 57.601562 31.449219 57.652344 31.421875 C 57.65625 31.421875 57.660156 31.421875 57.660156 31.417969 C 57.753906 31.371094 57.835938 31.324219 57.917969 31.28125 C 57.921875 31.28125 57.925781 31.277344 57.929688 31.273438 C 57.957031 31.261719 57.980469 31.25 58.003906 31.234375 C 58.195312 31.136719 58.351562 31.054688 58.480469 30.992188 C 58.519531 30.976562 58.554688 30.960938 58.585938 30.945312 C 58.597656 30.941406 58.605469 30.933594 58.617188 30.929688 C 58.855469 30.820312 58.992188 30.777344 59.109375 30.75 C 59.140625 30.746094 59.171875 30.742188 59.199219 30.738281 C 59.25 30.726562 59.300781 30.722656 59.359375 30.714844 C 59.359375 30.714844 59.359375 30.714844 59.363281 30.714844 C 59.4375 30.703125 59.527344 30.6875 59.644531 30.660156 C 59.648438 30.65625 59.648438 30.65625 59.652344 30.65625 C 59.742188 30.636719 59.84375 30.609375 59.96875 30.570312 C 59.980469 30.566406 59.988281 30.5625 60 30.558594 C 60.039062 30.546875 60.082031 30.535156 60.128906 30.519531 C 60.203125 30.496094 60.285156 30.46875 60.375 30.4375 C 60.535156 30.378906 60.679688 30.335938 60.816406 30.304688 C 60.832031 30.300781 60.84375 30.296875 60.855469 30.292969 C 60.992188 30.261719 61.121094 30.238281 61.246094 30.222656 C 61.289062 30.21875 61.332031 30.214844 61.371094 30.210938 C 61.519531 30.195312 61.660156 30.195312 61.804688 30.203125 C 61.859375 30.203125 61.917969 30.207031 61.972656 30.210938 C 62.15625 30.226562 62.347656 30.246094 62.5625 30.273438 C 62.644531 30.285156 62.730469 30.296875 62.816406 30.304688 C 62.898438 30.316406 62.980469 30.324219 63.070312 30.335938 C 63.101562 30.339844 63.132812 30.34375 63.167969 30.347656 C 63.328125 30.367188 63.503906 30.382812 63.695312 30.398438 C 63.730469 30.398438 63.769531 30.402344 63.808594 30.40625 C 63.96875 30.417969 64.144531 30.425781 64.332031 30.433594 L 64.34375 30.433594 C 64.355469 30.4375 64.363281 30.4375 64.375 30.4375 C 64.449219 30.4375 64.523438 30.441406 64.601562 30.441406 C 64.789062 30.449219 64.988281 30.449219 65.199219 30.445312 C 65.300781 30.445312 65.402344 30.445312 65.507812 30.441406 C 65.53125 30.441406 65.554688 30.441406 65.574219 30.441406 C 65.59375 30.441406 65.605469 30.4375 65.625 30.4375 C 65.800781 30.4375 65.96875 30.4375 66.132812 30.4375 L 66.136719 30.4375 C 66.144531 30.4375 66.148438 30.4375 66.160156 30.4375 C 66.1875 30.4375 66.210938 30.4375 66.234375 30.441406 C 66.234375 30.4375 66.234375 30.4375 66.234375 30.4375 C 66.238281 30.4375 66.238281 30.441406 66.238281 30.441406 C 66.355469 30.441406 66.464844 30.449219 66.574219 30.453125 C 66.632812 30.457031 66.691406 30.457031 66.746094 30.464844 C 66.84375 30.46875 66.941406 30.476562 67.039062 30.488281 C 67.167969 30.5 67.289062 30.515625 67.410156 30.53125 C 67.417969 30.53125 67.417969 30.53125 67.421875 30.535156 C 67.449219 30.539062 67.480469 30.539062 67.507812 30.546875 C 67.671875 30.570312 67.828125 30.597656 67.976562 30.628906 C 67.992188 30.632812 68.007812 30.636719 68.023438 30.640625 C 68.039062 30.640625 68.054688 30.644531 68.066406 30.648438 C 68.164062 30.667969 68.261719 30.691406 68.351562 30.714844 C 68.386719 30.722656 68.421875 30.730469 68.453125 30.742188 L 68.457031 30.742188 C 68.457031 30.742188 68.460938 30.742188 68.464844 30.742188 C 68.46875 30.746094 68.472656 30.746094 68.476562 30.746094 C 68.535156 30.761719 68.597656 30.78125 68.652344 30.796875 C 68.695312 30.808594 68.734375 30.820312 68.773438 30.832031 C 68.917969 30.878906 69.054688 30.925781 69.183594 30.972656 C 69.238281 30.992188 69.292969 31.011719 69.347656 31.03125 C 69.417969 31.0625 69.484375 31.085938 69.546875 31.113281 C 69.558594 31.117188 69.566406 31.121094 69.578125 31.121094 C 69.617188 31.140625 69.652344 31.152344 69.691406 31.167969 C 70.023438 31.304688 70.304688 31.421875 70.574219 31.472656 C 70.578125 31.476562 70.582031 31.476562 70.585938 31.476562 C 70.597656 31.480469 70.609375 31.480469 70.621094 31.484375 C 70.671875 31.492188 70.722656 31.5 70.773438 31.503906 C 70.804688 31.507812 70.84375 31.511719 70.886719 31.515625 C 70.90625 31.519531 70.921875 31.523438 70.941406 31.527344 C 70.992188 31.535156 71.046875 31.542969 71.105469 31.554688 C 71.195312 31.574219 71.296875 31.59375 71.40625 31.621094 C 71.445312 31.628906 71.484375 31.636719 71.527344 31.648438 C 71.554688 31.65625 71.582031 31.660156 71.613281 31.667969 C 71.695312 31.6875 71.785156 31.710938 71.875 31.734375 C 71.976562 31.761719 72.082031 31.789062 72.191406 31.820312 C 72.253906 31.835938 72.316406 31.855469 72.378906 31.875 C 72.410156 31.882812 72.429688 31.890625 72.457031 31.898438 L 72.46875 31.898438 C 72.476562 31.902344 72.488281 31.90625 72.496094 31.910156 C 72.5625 31.929688 72.628906 31.949219 72.699219 31.96875 C 72.777344 31.992188 72.859375 32.019531 72.941406 32.046875 C 72.941406 32.046875 72.945312 32.046875 72.945312 32.046875 C 73.019531 32.070312 73.097656 32.09375 73.171875 32.117188 C 73.328125 32.171875 73.484375 32.222656 73.644531 32.28125 C 73.675781 32.292969 73.707031 32.304688 73.738281 32.316406 C 73.765625 32.324219 73.789062 32.332031 73.8125 32.339844 C 73.851562 32.355469 73.890625 32.371094 73.929688 32.382812 C 74.015625 32.417969 74.105469 32.453125 74.191406 32.484375 L 74.195312 32.484375 C 74.253906 32.507812 74.3125 32.535156 74.375 32.558594 C 74.40625 32.570312 74.441406 32.582031 74.472656 32.597656 C 74.496094 32.605469 74.515625 32.613281 74.539062 32.625 C 74.648438 32.671875 74.757812 32.714844 74.867188 32.765625 C 74.890625 32.777344 74.914062 32.785156 74.9375 32.796875 C 74.96875 32.8125 75 32.824219 75.03125 32.839844 C 75.105469 32.875 75.175781 32.90625 75.246094 32.941406 C 75.316406 32.976562 75.382812 33.007812 75.449219 33.042969 C 75.597656 33.117188 75.738281 33.191406 75.875 33.269531 C 75.917969 33.296875 75.960938 33.320312 76 33.347656 C 76.074219 33.390625 76.148438 33.4375 76.21875 33.480469 C 76.222656 33.484375 76.222656 33.484375 76.226562 33.488281 C 76.3125 33.542969 76.398438 33.601562 76.476562 33.664062 C 76.535156 33.703125 76.589844 33.746094 76.640625 33.789062 C 77.347656 34.367188 77.636719 35.015625 77.046875 35.675781 Z M 77.046875 35.675781 " fill-opacity="1" fill-rule="nonzero"/><path fill="#f26666" d="M 71.410156 21.945312 C 71.40625 21.996094 71.40625 22.042969 71.398438 22.085938 C 71.398438 22.085938 71.398438 22.089844 71.398438 22.089844 C 71.398438 22.109375 71.394531 22.128906 71.390625 22.152344 C 71.378906 22.214844 71.367188 22.269531 71.351562 22.316406 C 70.972656 23.492188 68.890625 23.804688 68.699219 23.828125 L 68.699219 23.835938 C 68.699219 23.835938 68.695312 23.832031 68.691406 23.828125 C 68.6875 23.832031 68.683594 23.832031 68.683594 23.832031 L 68.6875 23.824219 C 68.550781 23.691406 67.058594 22.214844 67.460938 21.046875 C 67.472656 21 67.496094 20.949219 67.523438 20.890625 C 67.535156 20.875 67.542969 20.855469 67.554688 20.835938 C 67.578125 20.796875 67.605469 20.757812 67.632812 20.71875 C 67.996094 20.207031 68.46875 20.191406 68.742188 20.238281 C 68.816406 20.25 68.894531 20.269531 68.964844 20.300781 C 69.21875 20.414062 69.441406 20.691406 69.542969 21.265625 C 69.964844 20.863281 70.3125 20.769531 70.582031 20.828125 C 70.582031 20.828125 70.582031 20.828125 70.585938 20.828125 C 70.660156 20.84375 70.734375 20.871094 70.800781 20.910156 C 71.050781 21.03125 71.421875 21.324219 71.410156 21.945312 Z M 57.601562 21.613281 C 57.578125 21.566406 57.546875 21.519531 57.507812 21.472656 C 57.496094 21.453125 57.480469 21.4375 57.46875 21.421875 C 57.46875 21.421875 57.464844 21.421875 57.464844 21.421875 C 57.4375 21.386719 57.402344 21.351562 57.367188 21.320312 C 56.917969 20.882812 56.449219 20.957031 56.1875 21.054688 C 56.117188 21.074219 56.046875 21.109375 55.980469 21.152344 C 55.980469 21.152344 55.980469 21.15625 55.980469 21.15625 C 55.753906 21.3125 55.585938 21.625 55.59375 22.207031 C 55.101562 21.890625 54.746094 21.863281 54.488281 21.96875 C 54.414062 22 54.351562 22.039062 54.292969 22.089844 C 54.070312 22.253906 53.757812 22.609375 53.886719 23.21875 C 53.898438 23.265625 53.910156 23.3125 53.921875 23.355469 C 53.929688 23.378906 53.9375 23.398438 53.945312 23.417969 C 53.964844 23.476562 53.988281 23.527344 54.011719 23.570312 C 54.601562 24.65625 56.707031 24.582031 56.898438 24.574219 L 56.902344 24.578125 C 56.902344 24.578125 56.90625 24.574219 56.90625 24.570312 C 56.914062 24.570312 56.917969 24.570312 56.917969 24.570312 L 56.914062 24.566406 C 57.023438 24.410156 58.214844 22.6875 57.601562 21.613281 Z M 77.738281 28.84375 C 77.671875 28.808594 77.601562 28.777344 77.523438 28.761719 C 77.25 28.707031 76.90625 28.796875 76.480469 29.199219 C 76.378906 28.628906 76.15625 28.351562 75.90625 28.234375 C 75.832031 28.203125 75.757812 28.183594 75.683594 28.175781 C 75.40625 28.128906 74.933594 28.140625 74.570312 28.652344 C 74.542969 28.691406 74.519531 28.730469 74.496094 28.769531 C 74.496094 28.769531 74.496094 28.773438 74.492188 28.773438 C 74.484375 28.789062 74.472656 28.808594 74.464844 28.828125 C 74.433594 28.882812 74.414062 28.933594 74.398438 28.984375 C 73.996094 30.152344 75.488281 31.625 75.625 31.757812 L 75.625 31.765625 C 75.625 31.765625 75.625 31.765625 75.632812 31.765625 C 75.636719 31.769531 75.636719 31.769531 75.636719 31.769531 L 75.640625 31.765625 C 75.828125 31.738281 77.914062 31.425781 78.289062 30.25 C 78.304688 30.203125 78.320312 30.148438 78.328125 30.085938 C 78.332031 30.066406 78.335938 30.042969 78.339844 30.023438 C 78.34375 29.976562 78.347656 29.929688 78.347656 29.882812 C 78.363281 29.257812 77.988281 28.96875 77.738281 28.84375 Z M 77.738281 28.84375 " fill-opacity="1" fill-rule="nonzero"/><path fill="#ffd7e3" d="M 77.75 32.546875 C 77.398438 30.789062 75.960938 29.855469 74.566406 28.945312 C 73.863281 28.484375 73.472656 27.960938 73.394531 27.117188 C 73.328125 26.398438 73.179688 25.664062 72.761719 25.0625 C 72.691406 24.960938 72.613281 24.871094 72.535156 24.78125 C 72.453125 24.621094 72.367188 24.46875 72.285156 24.335938 C 71.851562 23.644531 71.203125 22.917969 70.40625 22.652344 C 70.023438 22.523438 69.640625 22.484375 69.234375 22.496094 C 68.988281 22.507812 68.609375 22.609375 68.324219 22.554688 C 68.324219 22.035156 68.25 21.527344 68.132812 21.144531 C 67.878906 20.292969 67.363281 19.476562 66.703125 18.878906 C 65.960938 18.214844 65.09375 17.839844 65.550781 16.683594 C 65.558594 16.664062 65.5625 16.648438 65.566406 16.632812 C 65.699219 16.480469 65.839844 16.332031 65.980469 16.183594 C 65.992188 16.171875 66.007812 16.15625 66.019531 16.144531 C 66.070312 16.085938 66.125 16.03125 66.175781 15.976562 C 66.214844 15.933594 66.25 15.894531 66.289062 15.851562 C 66.363281 15.773438 66.433594 15.691406 66.503906 15.609375 C 66.515625 15.59375 66.527344 15.582031 66.542969 15.566406 C 66.5625 15.539062 66.589844 15.511719 66.613281 15.480469 C 66.851562 15.203125 67.207031 14.789062 67.175781 14.4375 C 67.164062 14.339844 67.117188 14.257812 67.046875 14.191406 C 66.792969 14.046875 66.460938 14.015625 66.125 14.027344 C 66.050781 14.027344 65.988281 14.007812 65.9375 13.980469 C 65.738281 13.992188 65.5625 14.054688 65.390625 14.136719 C 64.246094 14.300781 62.976562 15.035156 62.148438 15.5625 C 60.597656 16.550781 59.238281 18.394531 58.929688 20.207031 C 58.777344 21.101562 59.042969 21.722656 59.570312 22.429688 C 59.617188 22.492188 59.675781 22.566406 59.726562 22.640625 C 59.167969 22.398438 58.605469 22.175781 57.96875 22.324219 C 56.902344 22.574219 56.015625 23.304688 55.457031 24.222656 C 54.980469 25.003906 54.871094 25.984375 54.960938 26.875 C 54.996094 27.203125 55.0625 27.519531 55.152344 27.832031 C 54.832031 27.78125 54.507812 27.847656 54.210938 27.972656 C 53.316406 28.355469 52.628906 29.203125 52.3125 30.105469 C 52.152344 30.554688 52.03125 31.054688 51.964844 31.570312 C 51.964844 31.570312 51.964844 31.570312 51.964844 31.574219 C 51.921875 31.648438 51.890625 31.734375 51.875 31.832031 C 51.785156 32.515625 51.808594 33.175781 51.949219 33.796875 C 51.949219 33.878906 51.96875 33.972656 52.015625 34.0625 C 52.015625 34.066406 52.019531 34.070312 52.019531 34.070312 C 52.289062 34.996094 52.84375 35.8125 53.71875 36.433594 C 55.082031 37.40625 56.6875 37.171875 58.109375 36.515625 C 58.746094 36.222656 59.34375 35.859375 60.007812 35.636719 C 60.863281 35.347656 61.539062 35.535156 62.304688 35.960938 C 62.484375 36.058594 62.664062 36.15625 62.847656 36.246094 C 63.09375 36.511719 63.382812 36.746094 63.816406 36.8125 C 64.765625 36.964844 65.8125 37.035156 66.761719 36.890625 C 67.796875 36.734375 68.410156 35.78125 69.390625 35.523438 C 70.40625 35.257812 71.613281 36.363281 72.476562 36.757812 C 73.382812 37.171875 74.335938 37.316406 75.304688 37.042969 C 75.824219 36.894531 76.265625 36.640625 76.625 36.308594 C 77.628906 35.394531 78.019531 33.898438 77.75 32.546875 Z M 55.644531 35.199219 C 55.703125 35.230469 55.761719 35.253906 55.824219 35.277344 C 55.820312 35.277344 55.820312 35.277344 55.820312 35.277344 C 55.765625 35.28125 55.710938 35.285156 55.65625 35.285156 C 55.625 35.289062 55.589844 35.289062 55.554688 35.285156 C 55.585938 35.261719 55.617188 35.230469 55.644531 35.199219 Z M 63.257812 34.640625 C 63.296875 34.683594 63.335938 34.726562 63.378906 34.769531 C 63.382812 34.796875 63.390625 34.824219 63.398438 34.847656 C 63.398438 34.847656 63.398438 34.84375 63.394531 34.84375 C 63.394531 34.839844 63.394531 34.839844 63.394531 34.839844 C 63.347656 34.777344 63.300781 34.714844 63.242188 34.648438 C 63.25 34.644531 63.253906 34.640625 63.257812 34.640625 Z M 68.761719 34.347656 C 68.761719 34.34375 68.761719 34.34375 68.757812 34.347656 C 68.757812 34.34375 68.757812 34.34375 68.757812 34.347656 C 68.742188 34.351562 68.730469 34.355469 68.714844 34.359375 C 68.722656 34.355469 68.726562 34.351562 68.734375 34.347656 C 68.742188 34.347656 68.753906 34.347656 68.765625 34.347656 C 68.765625 34.34375 68.765625 34.34375 68.761719 34.347656 Z M 74.328125 43.878906 C 74.328125 43.890625 74.328125 43.898438 74.324219 43.90625 C 74.003906 45.390625 73.703125 46.96875 73.4375 48.566406 C 73.171875 48.527344 72.910156 48.472656 72.652344 48.394531 C 71.796875 48.140625 70.929688 47.769531 70.21875 47.230469 C 69.875 46.96875 69.542969 46.691406 69.207031 46.425781 C 69.246094 46.472656 68.992188 46.3125 68.820312 46.203125 C 68.820312 46.238281 68.449219 46.132812 68.695312 46.128906 C 68.691406 46.128906 68.6875 46.125 68.6875 46.125 C 68.691406 46.125 68.695312 46.128906 68.699219 46.128906 C 68.71875 46.128906 68.742188 46.132812 68.769531 46.132812 C 68.742188 46.128906 68.714844 46.125 68.6875 46.125 L 68.683594 46.125 C 68.585938 46.117188 68.480469 46.117188 68.382812 46.121094 C 68.375 46.125 68.367188 46.125 68.363281 46.125 L 68.359375 46.125 C 68.347656 46.132812 68.332031 46.144531 68.316406 46.152344 C 68.300781 46.160156 68.289062 46.167969 68.277344 46.175781 C 68.277344 46.175781 68.277344 46.175781 68.277344 46.179688 C 68.207031 46.238281 68.140625 46.300781 68.074219 46.363281 C 67.894531 46.527344 67.710938 46.691406 67.519531 46.847656 C 66.230469 47.910156 64.523438 48.410156 62.886719 47.84375 C 62.09375 47.570312 61.472656 47.132812 60.832031 46.609375 C 60.765625 46.554688 60.507812 46.363281 60.382812 46.265625 C 60.382812 46.265625 60.382812 46.261719 60.378906 46.261719 C 60.3125 46.226562 60.234375 46.191406 60.179688 46.164062 C 60.085938 46.253906 59.996094 46.347656 59.910156 46.445312 C 59.90625 46.449219 59.902344 46.457031 59.902344 46.460938 C 59.898438 46.460938 59.898438 46.464844 59.894531 46.464844 C 59.820312 46.566406 59.617188 46.835938 59.578125 46.882812 C 59.039062 47.582031 58.445312 48.277344 57.765625 48.867188 C 57.507812 46.988281 57.058594 44.949219 56.566406 43.050781 C 56.71875 42.878906 56.882812 42.714844 57.0625 42.566406 C 58.347656 41.503906 60.167969 41.035156 61.773438 41.664062 C 62.519531 41.957031 63.0625 42.316406 63.683594 42.820312 C 63.796875 42.90625 63.90625 43 64.015625 43.089844 C 64.050781 43.109375 64.230469 43.242188 64.34375 43.316406 C 64.347656 43.316406 64.347656 43.316406 64.351562 43.316406 C 64.417969 43.253906 64.484375 43.195312 64.550781 43.132812 C 64.734375 42.964844 64.917969 42.800781 65.109375 42.640625 C 66.433594 41.554688 68.1875 41.058594 69.882812 41.550781 C 70.820312 41.820312 71.574219 42.273438 72.332031 42.867188 C 72.640625 43.109375 72.605469 43.128906 72.867188 43.296875 C 72.960938 43.355469 73.644531 43.71875 73.492188 43.675781 C 73.746094 43.765625 74.007812 43.851562 74.273438 43.898438 C 74.246094 43.886719 74.273438 43.882812 74.328125 43.878906 Z M 74.839844 43.878906 C 74.886719 43.878906 74.925781 43.878906 74.9375 43.875 C 74.847656 43.886719 74.824219 43.882812 74.839844 43.878906 Z M 68.492188 52.835938 C 67.800781 53.105469 67.320312 53.449219 66.746094 53.890625 C 66.9375 53.734375 66.484375 54.046875 66.429688 54.078125 C 66.148438 54.25 66.070312 54.285156 66.195312 54.1875 C 66.148438 54.195312 66.109375 54.207031 66.078125 54.214844 C 66.0625 54.214844 66.046875 54.214844 66.035156 54.214844 C 66.011719 54.203125 65.96875 54.183594 65.890625 54.15625 C 66.195312 54.242188 65.472656 53.910156 65.375 53.847656 C 64.847656 53.515625 64.375 53.097656 63.835938 52.785156 C 62.316406 51.898438 60.578125 52.261719 59.070312 52.929688 C 58.808594 53.046875 58.582031 53.148438 58.367188 53.246094 C 58.558594 54.757812 58.765625 56.503906 58.917969 58.132812 C 59.316406 57.992188 59.703125 57.832031 60.074219 57.671875 C 60.3125 57.570312 60.546875 57.464844 60.78125 57.351562 C 60.929688 57.28125 61.082031 57.207031 61.234375 57.140625 C 61.234375 57.136719 61.238281 57.136719 61.238281 57.136719 C 61.273438 57.125 61.324219 57.105469 61.382812 57.085938 C 61.484375 57.046875 61.578125 57.027344 61.652344 57.015625 C 61.652344 57.015625 61.65625 57.015625 61.65625 57.015625 C 61.804688 57.128906 61.957031 57.242188 62.113281 57.351562 C 63.367188 58.253906 64.722656 59.03125 66.339844 58.941406 C 67.242188 58.890625 68.050781 58.585938 68.847656 58.175781 C 69.207031 57.988281 69.535156 57.707031 69.851562 57.460938 C 69.855469 57.460938 69.859375 57.453125 69.867188 57.449219 C 69.90625 57.421875 69.945312 57.394531 69.988281 57.367188 C 69.992188 57.367188 69.992188 57.367188 69.996094 57.367188 C 70.101562 57.425781 70.207031 57.488281 70.308594 57.554688 C 70.84375 57.890625 71.308594 58.296875 71.878906 58.582031 C 72.03125 58.660156 72.1875 58.730469 72.347656 58.792969 C 72.378906 57.234375 72.519531 55.40625 72.742188 53.46875 C 72.734375 53.464844 72.730469 53.460938 72.722656 53.457031 C 71.554688 52.65625 69.835938 52.304688 68.492188 52.835938 Z M 61.523438 56.949219 C 61.371094 56.847656 61.382812 56.847656 61.554688 56.957031 C 61.546875 56.953125 61.535156 56.953125 61.523438 56.949219 Z M 70.074219 57.3125 C 70.082031 57.304688 70.089844 57.300781 70.097656 57.296875 C 70.097656 57.296875 70.097656 57.296875 70.101562 57.296875 C 70.109375 57.292969 70.125 57.289062 70.136719 57.285156 C 70.117188 57.296875 70.097656 57.304688 70.074219 57.3125 Z M 69.25 63.730469 C 69.125 63.726562 69 63.722656 68.875 63.710938 C 68.898438 63.707031 68.832031 63.691406 68.679688 63.65625 C 68.640625 63.636719 68.585938 63.605469 68.515625 63.566406 C 68.308594 63.445312 68.109375 63.308594 67.914062 63.171875 C 67.164062 62.65625 66.359375 62.277344 65.449219 62.140625 C 64.484375 61.996094 63.535156 62.023438 62.609375 62.367188 C 62.136719 62.542969 61.683594 62.757812 61.238281 62.992188 C 61.101562 63.0625 60.964844 63.136719 60.828125 63.210938 C 60.824219 63.210938 60.429688 63.402344 60.398438 63.433594 C 60.105469 63.550781 59.804688 63.636719 59.5 63.710938 C 59.773438 64.5625 60.179688 65.351562 60.683594 66.042969 C 61.167969 66.707031 61.742188 67.285156 62.367188 67.742188 C 63.324219 68.441406 64.402344 68.859375 65.453125 68.886719 C 66.257812 68.90625 67.125 68.742188 67.957031 68.34375 C 68.199219 68.390625 68.445312 68.421875 68.695312 68.441406 C 68.734375 68.253906 68.761719 68.066406 68.773438 67.871094 C 69.980469 67.039062 71.050781 65.65625 71.699219 63.578125 C 71.617188 63.609375 71.539062 63.632812 71.460938 63.65625 C 70.917969 63.800781 69.976562 63.738281 69.25 63.730469 Z M 64.042969 67.578125 C 64.042969 67.546875 64.046875 67.515625 64.050781 67.488281 C 64.050781 67.535156 64.050781 67.578125 64.058594 67.625 C 64.050781 67.582031 64.042969 67.566406 64.042969 67.578125 Z M 64.042969 67.578125 " fill-opacity="1" fill-rule="nonzero"/><path fill="#f26666" d="M 62.507812 12.714844 C 62.539062 12.667969 62.574219 12.628906 62.613281 12.597656 C 62.738281 12.402344 62.894531 12.230469 63.085938 12.089844 C 63.925781 11.464844 65.117188 11.730469 65.675781 12.613281 C 65.785156 12.789062 65.871094 12.972656 65.933594 13.15625 C 66.296875 12.972656 66.726562 12.789062 67.136719 12.898438 C 67.914062 13.105469 68.617188 14.027344 68.371094 14.855469 C 68.117188 15.710938 67.269531 16.21875 66.359375 16.484375 C 65.5625 16.921875 64.535156 16.984375 63.765625 16.472656 C 62.664062 15.738281 61.675781 13.980469 62.507812 12.714844 Z M 67.980469 29.34375 C 67.59375 28.90625 67.257812 28.78125 66.984375 28.8125 C 66.902344 28.824219 66.828125 28.84375 66.761719 28.875 C 66.5 28.976562 66.101562 29.230469 66.058594 29.855469 C 66.054688 29.902344 66.054688 29.949219 66.054688 29.996094 C 66.054688 30.015625 66.058594 30.039062 66.058594 30.058594 C 66.0625 30.121094 66.070312 30.175781 66.082031 30.226562 C 66.351562 31.433594 68.394531 31.929688 68.582031 31.972656 L 68.585938 31.980469 C 68.585938 31.980469 68.585938 31.976562 68.589844 31.972656 C 68.597656 31.976562 68.597656 31.976562 68.597656 31.976562 L 68.597656 31.96875 C 68.746094 31.847656 70.367188 30.515625 70.074219 29.3125 C 70.066406 29.265625 70.046875 29.210938 70.023438 29.152344 C 70.015625 29.132812 70.007812 29.113281 70 29.09375 C 69.980469 29.050781 69.957031 29.011719 69.933594 28.96875 C 69.617188 28.429688 69.148438 28.371094 68.871094 28.394531 C 68.792969 28.394531 68.71875 28.410156 68.644531 28.433594 C 68.644531 28.433594 68.640625 28.433594 68.640625 28.433594 C 68.378906 28.527344 68.132812 28.78125 67.980469 29.34375 Z M 62.582031 26.371094 L 62.578125 26.378906 C 62.578125 26.378906 62.582031 26.375 62.585938 26.375 C 62.589844 26.378906 62.59375 26.378906 62.59375 26.378906 L 62.59375 26.375 C 62.785156 26.339844 64.847656 25.921875 65.160156 24.726562 C 65.175781 24.679688 65.1875 24.621094 65.191406 24.558594 C 65.195312 24.539062 65.199219 24.519531 65.199219 24.496094 C 65.203125 24.449219 65.203125 24.402344 65.199219 24.355469 C 65.183594 23.730469 64.792969 23.460938 64.539062 23.351562 C 64.46875 23.316406 64.398438 23.292969 64.320312 23.28125 C 64.320312 23.28125 64.316406 23.28125 64.316406 23.28125 C 64.042969 23.238281 63.703125 23.347656 63.300781 23.769531 C 63.171875 23.203125 62.933594 22.9375 62.675781 22.835938 C 62.601562 22.808594 62.523438 22.792969 62.449219 22.789062 C 62.171875 22.753906 61.699219 22.792969 61.367188 23.320312 C 61.339844 23.363281 61.316406 23.402344 61.296875 23.445312 C 61.296875 23.445312 61.292969 23.445312 61.292969 23.445312 C 61.285156 23.464844 61.277344 23.484375 61.265625 23.503906 C 61.242188 23.558594 61.222656 23.613281 61.210938 23.660156 C 60.871094 24.847656 62.4375 26.246094 62.582031 26.371094 Z M 58.191406 32.894531 C 58.191406 32.894531 58.195312 32.890625 58.199219 32.886719 C 58.203125 32.886719 58.207031 32.886719 58.207031 32.886719 L 58.203125 32.882812 C 58.320312 32.730469 59.585938 31.0625 59.023438 29.960938 C 59.003906 29.917969 58.976562 29.867188 58.9375 29.816406 C 58.925781 29.800781 58.914062 29.78125 58.898438 29.765625 C 58.871094 29.726562 58.839844 29.691406 58.808594 29.660156 C 58.375 29.203125 57.90625 29.253906 57.640625 29.339844 C 57.566406 29.359375 57.496094 29.386719 57.429688 29.429688 C 57.429688 29.429688 57.425781 29.433594 57.425781 29.433594 C 57.195312 29.578125 57.011719 29.886719 56.992188 30.464844 C 56.515625 30.128906 56.160156 30.085938 55.902344 30.175781 C 55.902344 30.175781 55.898438 30.179688 55.898438 30.179688 C 55.824219 30.203125 55.757812 30.242188 55.699219 30.289062 C 55.46875 30.445312 55.140625 30.785156 55.242188 31.398438 C 55.25 31.449219 55.257812 31.492188 55.269531 31.539062 C 55.273438 31.539062 55.273438 31.539062 55.273438 31.539062 C 55.277344 31.558594 55.28125 31.578125 55.289062 31.601562 C 55.308594 31.660156 55.328125 31.710938 55.351562 31.757812 C 55.890625 32.871094 57.996094 32.886719 58.191406 32.886719 Z M 69.601562 54.484375 C 69.535156 54.449219 69.464844 54.417969 69.386719 54.402344 C 69.113281 54.347656 68.769531 54.4375 68.34375 54.839844 C 68.242188 54.269531 68.019531 53.992188 67.769531 53.875 C 67.695312 53.84375 67.621094 53.824219 67.546875 53.816406 C 67.269531 53.765625 66.796875 53.78125 66.433594 54.292969 C 66.40625 54.332031 66.382812 54.371094 66.359375 54.410156 C 66.359375 54.410156 66.359375 54.410156 66.355469 54.414062 C 66.347656 54.429688 66.335938 54.449219 66.328125 54.46875 C 66.296875 54.523438 66.277344 54.574219 66.261719 54.625 C 65.859375 55.792969 67.351562 57.265625 67.488281 57.398438 L 67.488281 57.40625 C 67.488281 57.40625 67.488281 57.40625 67.496094 57.40625 C 67.5 57.410156 67.5 57.410156 67.5 57.410156 L 67.503906 57.40625 C 67.691406 57.378906 69.777344 57.066406 70.152344 55.890625 C 70.167969 55.84375 70.183594 55.789062 70.191406 55.726562 C 70.195312 55.707031 70.199219 55.683594 70.203125 55.664062 C 70.207031 55.617188 70.210938 55.570312 70.210938 55.523438 C 70.226562 54.898438 69.851562 54.609375 69.601562 54.484375 Z M 63.175781 50.671875 C 63.175781 50.671875 63.175781 50.667969 63.179688 50.664062 C 63.183594 50.664062 63.1875 50.667969 63.1875 50.667969 L 63.1875 50.660156 C 63.328125 50.53125 64.863281 49.101562 64.5 47.921875 C 64.484375 47.875 64.464844 47.820312 64.4375 47.765625 C 64.429688 47.746094 64.417969 47.726562 64.410156 47.707031 C 64.386719 47.664062 64.363281 47.625 64.335938 47.585938 C 63.988281 47.066406 63.515625 47.035156 63.238281 47.074219 C 63.164062 47.082031 63.089844 47.097656 63.015625 47.128906 C 62.757812 47.238281 62.527344 47.507812 62.410156 48.074219 C 61.996094 47.664062 61.65625 47.558594 61.382812 47.609375 C 61.304688 47.621094 61.230469 47.648438 61.164062 47.683594 C 60.910156 47.796875 60.527344 48.078125 60.523438 48.703125 C 60.523438 48.75 60.523438 48.796875 60.527344 48.839844 C 60.527344 48.84375 60.527344 48.84375 60.527344 48.84375 C 60.53125 48.863281 60.53125 48.886719 60.535156 48.90625 C 60.542969 48.96875 60.554688 49.023438 60.570312 49.070312 C 60.910156 50.257812 62.984375 50.632812 63.171875 50.664062 Z M 71.710938 38.914062 C 71.652344 38.863281 71.589844 38.820312 71.515625 38.789062 C 71.261719 38.679688 70.90625 38.703125 70.40625 39.007812 C 70.425781 38.429688 70.261719 38.113281 70.039062 37.949219 C 69.976562 37.902344 69.90625 37.867188 69.835938 37.84375 C 69.574219 37.742188 69.109375 37.660156 68.648438 38.089844 C 68.613281 38.121094 68.582031 38.15625 68.550781 38.191406 C 68.550781 38.191406 68.550781 38.191406 68.546875 38.191406 C 68.535156 38.207031 68.519531 38.222656 68.507812 38.238281 C 68.46875 38.289062 68.4375 38.335938 68.410156 38.378906 C 67.78125 39.441406 68.9375 41.1875 69.046875 41.34375 L 69.042969 41.351562 C 69.042969 41.351562 69.046875 41.351562 69.050781 41.351562 C 69.054688 41.355469 69.054688 41.355469 69.054688 41.355469 L 69.058594 41.351562 C 69.25 41.363281 71.355469 41.476562 71.960938 40.402344 C 71.988281 40.359375 72.011719 40.308594 72.035156 40.25 C 72.042969 40.230469 72.050781 40.210938 72.058594 40.191406 C 72.058594 40.1875 72.058594 40.1875 72.058594 40.1875 C 72.070312 40.144531 72.085938 40.097656 72.09375 40.050781 C 72.238281 39.445312 71.929688 39.085938 71.710938 38.914062 Z M 66.207031 62.949219 C 66.191406 62.902344 66.167969 62.851562 66.136719 62.796875 C 66.128906 62.777344 66.117188 62.761719 66.105469 62.742188 C 66.082031 62.703125 66.054688 62.664062 66.023438 62.625 C 65.644531 62.125 65.171875 62.128906 64.898438 62.183594 C 64.824219 62.195312 64.75 62.214844 64.679688 62.25 C 64.429688 62.375 64.214844 62.65625 64.132812 63.234375 C 63.695312 62.84375 63.347656 62.765625 63.078125 62.828125 C 63 62.847656 62.929688 62.878906 62.863281 62.917969 C 62.621094 63.046875 62.257812 63.347656 62.289062 63.972656 C 62.292969 64.019531 62.296875 64.066406 62.304688 64.113281 C 62.308594 64.136719 62.3125 64.15625 62.316406 64.175781 C 62.328125 64.238281 62.34375 64.292969 62.359375 64.339844 C 62.773438 65.503906 64.863281 65.75 65.054688 65.769531 L 65.058594 65.777344 C 65.058594 65.777344 65.0625 65.773438 65.0625 65.769531 C 65.070312 65.769531 65.070312 65.769531 65.070312 65.769531 L 65.070312 65.765625 C 65.203125 65.628906 66.644531 64.105469 66.207031 62.949219 Z M 61.421875 38.546875 C 61.40625 38.5 61.382812 38.449219 61.351562 38.394531 C 61.339844 38.375 61.328125 38.355469 61.320312 38.339844 C 61.320312 38.335938 61.316406 38.335938 61.316406 38.335938 C 61.292969 38.296875 61.265625 38.257812 61.238281 38.222656 C 60.859375 37.722656 60.382812 37.722656 60.113281 37.777344 C 60.035156 37.789062 59.964844 37.8125 59.890625 37.847656 C 59.640625 37.96875 59.429688 38.253906 59.34375 38.828125 C 58.910156 38.441406 58.5625 38.359375 58.292969 38.421875 L 58.289062 38.421875 C 58.214844 38.441406 58.144531 38.472656 58.078125 38.511719 C 57.832031 38.644531 57.46875 38.945312 57.503906 39.566406 C 57.503906 39.617188 57.507812 39.660156 57.515625 39.707031 C 57.515625 39.707031 57.515625 39.707031 57.515625 39.710938 C 57.519531 39.730469 57.523438 39.75 57.527344 39.769531 C 57.539062 39.832031 57.554688 39.886719 57.570312 39.933594 C 57.988281 41.097656 60.078125 41.34375 60.269531 41.363281 L 60.269531 41.371094 C 60.269531 41.371094 60.273438 41.367188 60.277344 41.367188 C 60.28125 41.367188 60.285156 41.367188 60.285156 41.367188 L 60.28125 41.359375 C 60.414062 41.222656 61.859375 39.703125 61.421875 38.546875 Z M 61.421875 38.546875 " fill-opacity="1" fill-rule="nonzero"/><path fill="#bcf6f4" d="M 77.007812 39.433594 C 74.660156 45.511719 73.511719 57.703125 73.1875 61.742188 C 73.226562 62.058594 73.25 62.382812 73.25 62.710938 C 73.25 66.207031 70.882812 69.15625 67.648438 70.066406 C 67.585938 70.085938 67.523438 70.105469 67.460938 70.121094 C 67.457031 70.117188 67.457031 70.117188 67.457031 70.121094 C 67.042969 70.226562 66.617188 70.296875 66.179688 70.332031 C 66.089844 70.339844 66 70.347656 65.90625 70.351562 C 65.78125 70.355469 65.660156 70.359375 65.535156 70.359375 L 65.507812 70.359375 C 65.507812 70.359375 65.507812 70.359375 65.503906 70.359375 C 65.421875 70.359375 65.339844 70.355469 65.257812 70.355469 C 65.253906 70.355469 65.25 70.355469 65.246094 70.355469 C 65.230469 70.351562 65.222656 70.351562 65.210938 70.351562 C 65.015625 70.34375 64.820312 70.328125 64.632812 70.308594 C 64.277344 70.265625 63.929688 70.203125 63.589844 70.113281 C 63.464844 70.082031 63.34375 70.046875 63.222656 70.007812 C 60.203125 69.070312 57.984375 66.34375 57.828125 63.078125 L 57.820312 63.078125 C 57.820312 63.078125 56.75 47.003906 53.953125 39.582031 L 52.289062 36.574219 C 53.925781 36.15625 55.554688 35.839844 57.15625 35.605469 C 57.375 35.574219 57.597656 35.542969 57.820312 35.511719 C 60.414062 35.167969 62.921875 35.042969 65.246094 35.050781 C 65.46875 35.050781 65.6875 35.050781 65.90625 35.054688 C 68.585938 35.09375 71 35.304688 72.984375 35.558594 C 73.210938 35.585938 73.433594 35.617188 73.652344 35.648438 C 76.726562 36.074219 78.613281 36.574219 78.613281 36.574219 Z M 77.007812 39.433594 " fill-opacity="0.4" fill-rule="nonzero"/><path fill="#3b647f" d="M 74.027344 78.710938 C 73.917969 78.738281 73.804688 78.773438 73.691406 78.808594 C 73.496094 78.867188 73.300781 78.9375 73.101562 78.992188 C 72.332031 79.207031 71.578125 79.417969 70.78125 79.523438 C 69.078125 79.75 67.371094 79.765625 65.65625 79.765625 C 62.738281 79.769531 59.890625 79.710938 57.257812 78.34375 C 57.316406 78.277344 57.417969 78.191406 57.492188 78.128906 C 57.507812 78.121094 57.519531 78.109375 57.535156 78.097656 C 57.65625 78.054688 57.785156 78.011719 57.914062 77.980469 C 57.929688 77.976562 57.945312 77.96875 57.960938 77.964844 C 60.734375 79.253906 63.828125 79.136719 66.851562 79.109375 C 68.664062 79.089844 70.535156 79.054688 72.292969 78.550781 C 72.667969 78.441406 73.21875 78.179688 73.738281 78.050781 C 73.902344 78.21875 74.058594 78.398438 74.214844 78.574219 C 74.28125 78.699219 74.34375 78.621094 74.027344 78.710938 Z M 67.128906 74.328125 C 67.105469 74.300781 67.082031 74.273438 67.054688 74.25 C 67.015625 74.207031 66.984375 74.152344 66.96875 74.097656 C 66.632812 74.25 66.039062 74.296875 65.789062 74.316406 C 65.253906 74.355469 64.6875 74.324219 64.203125 74.085938 C 64.203125 74.113281 64.199219 74.144531 64.1875 74.175781 C 64.132812 74.332031 64.058594 74.480469 63.984375 74.628906 C 63.972656 74.652344 63.957031 74.675781 63.941406 74.695312 C 64.503906 74.964844 65.164062 74.996094 65.789062 74.96875 C 66.191406 74.953125 66.871094 74.882812 67.316406 74.65625 C 67.285156 74.617188 67.257812 74.566406 67.246094 74.511719 C 67.207031 74.453125 67.167969 74.390625 67.128906 74.328125 Z M 58.457031 39.835938 C 58.777344 41.734375 59.023438 43.636719 59.207031 45.550781 C 59.570312 49.339844 59.679688 53.144531 59.863281 56.945312 C 59.949219 58.832031 60.070312 60.722656 60.273438 62.601562 C 60.449219 64.21875 60.695312 65.839844 61.355469 67.34375 C 61.792969 68.355469 62.363281 69.128906 63.125 69.90625 C 63.152344 69.933594 63.183594 69.96875 63.222656 70.007812 C 63.238281 70.023438 63.253906 70.042969 63.269531 70.0625 C 63.273438 70.0625 63.277344 70.0625 63.28125 70.0625 C 63.332031 70.152344 63.398438 70.230469 63.476562 70.300781 C 63.546875 70.367188 63.628906 70.421875 63.707031 70.480469 C 63.714844 70.503906 63.726562 70.527344 63.742188 70.546875 C 63.753906 70.550781 63.765625 70.558594 63.777344 70.566406 C 63.777344 70.566406 63.78125 70.566406 63.78125 70.566406 C 63.789062 70.574219 63.800781 70.578125 63.8125 70.585938 C 63.816406 70.585938 63.820312 70.589844 63.824219 70.589844 C 63.828125 70.59375 63.828125 70.59375 63.828125 70.59375 C 63.832031 70.597656 63.839844 70.597656 63.84375 70.601562 C 63.863281 70.609375 63.878906 70.617188 63.894531 70.625 C 63.902344 70.628906 63.910156 70.632812 63.917969 70.636719 C 63.929688 70.640625 63.945312 70.648438 63.957031 70.65625 C 64.601562 70.789062 65.175781 70.84375 65.839844 70.785156 C 66.296875 70.746094 66.835938 70.800781 67.226562 70.53125 C 67.25 70.515625 67.269531 70.5 67.285156 70.484375 C 67.289062 70.488281 67.296875 70.488281 67.300781 70.488281 C 67.320312 70.476562 67.335938 70.460938 67.355469 70.449219 C 67.375 70.4375 67.390625 70.425781 67.410156 70.417969 C 67.414062 70.40625 67.417969 70.398438 67.417969 70.386719 C 67.417969 70.382812 67.542969 70.257812 67.5625 70.230469 C 67.640625 70.128906 67.710938 70.023438 67.785156 69.917969 C 68.523438 69.054688 69.234375 67.871094 69.34375 67.640625 C 70.046875 66.164062 70.3125 64.542969 70.5 62.941406 C 70.71875 61.066406 70.835938 59.183594 70.929688 57.304688 C 71.125 53.503906 71.230469 49.699219 71.570312 45.90625 C 71.746094 43.980469 71.996094 42.074219 72.300781 40.164062 C 72.4375 39.3125 72.597656 38.46875 72.816406 37.636719 C 73 36.933594 73.328125 36.292969 73.652344 35.648438 C 73.433594 35.617188 73.210938 35.585938 72.984375 35.558594 C 72.503906 36.628906 72.097656 37.65625 71.859375 38.859375 C 71.566406 40.359375 71.359375 41.882812 71.175781 43.402344 C 70.753906 46.855469 70.578125 50.335938 70.425781 53.808594 C 70.273438 57.3125 70.210938 60.863281 69.648438 64.332031 C 69.421875 65.730469 68.980469 67.628906 67.964844 68.699219 C 67.679688 69.136719 67.304688 69.519531 66.96875 69.929688 C 66.945312 69.9375 66.917969 69.949219 66.894531 69.96875 C 66.65625 70.132812 66.25 70.132812 65.90625 70.140625 L 65.90625 35.054688 C 65.6875 35.050781 65.464844 35.050781 65.246094 35.050781 L 65.246094 70.164062 C 64.871094 70.160156 64.515625 70.101562 64.140625 70.027344 C 63.566406 69.597656 63.109375 69.027344 62.675781 68.464844 C 62.671875 68.457031 62.667969 68.453125 62.660156 68.449219 C 62.65625 68.4375 62.648438 68.425781 62.644531 68.414062 C 61.835938 67.355469 61.460938 65.832031 61.210938 64.585938 C 60.53125 61.164062 60.542969 57.558594 60.394531 54.082031 C 60.246094 50.605469 60.0625 47.132812 59.671875 43.671875 C 59.496094 42.140625 59.265625 40.617188 59 39.097656 C 58.769531 37.789062 58.339844 36.675781 57.816406 35.511719 C 57.597656 35.542969 57.375 35.574219 57.15625 35.605469 C 57.433594 36.164062 57.710938 36.722656 57.914062 37.316406 C 58.183594 38.128906 58.316406 38.996094 58.457031 39.835938 Z M 58.457031 39.835938 " fill-opacity="1" fill-rule="nonzero"/><path fill="#f26666" d="M 87.734375 31.609375 C 87.714844 31.703125 87.691406 31.789062 87.664062 31.875 C 87.664062 31.875 87.664062 31.878906 87.664062 31.878906 C 87.648438 31.917969 87.636719 31.957031 87.621094 31.992188 C 87.578125 32.109375 87.53125 32.207031 87.480469 32.289062 C 86.308594 34.390625 82.21875 34.1875 81.847656 34.164062 L 81.839844 34.175781 C 81.839844 34.175781 81.835938 34.171875 81.832031 34.164062 C 81.820312 34.164062 81.816406 34.164062 81.816406 34.164062 L 81.824219 34.152344 C 81.613281 33.84375 79.34375 30.46875 80.5625 28.394531 C 80.609375 28.308594 80.667969 28.21875 80.746094 28.125 C 80.773438 28.089844 80.796875 28.058594 80.824219 28.027344 C 80.828125 28.027344 80.828125 28.027344 80.828125 28.027344 C 80.886719 27.960938 80.953125 27.894531 81.019531 27.832031 C 81.90625 26.996094 82.816406 27.148438 83.320312 27.34375 C 83.460938 27.390625 83.59375 27.457031 83.71875 27.546875 C 83.71875 27.546875 83.722656 27.546875 83.722656 27.546875 C 84.15625 27.859375 84.472656 28.472656 84.445312 29.601562 C 85.410156 29 86.101562 28.953125 86.597656 29.164062 C 86.597656 29.164062 86.597656 29.167969 86.601562 29.167969 C 86.742188 29.226562 86.867188 29.308594 86.976562 29.402344 C 87.40625 29.734375 88.003906 30.425781 87.734375 31.609375 Z M 83.117188 39.847656 C 83.035156 39.808594 82.945312 39.777344 82.847656 39.765625 C 82.511719 39.714844 82.097656 39.851562 81.609375 40.367188 C 81.445312 39.675781 81.15625 39.355469 80.839844 39.234375 C 80.839844 39.234375 80.839844 39.230469 80.839844 39.230469 C 80.75 39.195312 80.65625 39.179688 80.566406 39.171875 C 80.226562 39.132812 79.648438 39.183594 79.246094 39.832031 C 79.210938 39.878906 79.183594 39.929688 79.160156 39.980469 C 79.160156 39.980469 79.160156 39.980469 79.15625 39.980469 C 79.144531 40.003906 79.136719 40.027344 79.125 40.050781 C 79.09375 40.121094 79.070312 40.1875 79.054688 40.246094 C 78.648438 41.699219 80.566406 43.394531 80.746094 43.546875 L 80.742188 43.554688 C 80.742188 43.554688 80.746094 43.554688 80.753906 43.550781 C 80.757812 43.554688 80.757812 43.558594 80.757812 43.558594 L 80.761719 43.550781 C 80.992188 43.503906 83.507812 42.984375 83.886719 41.523438 C 83.902344 41.464844 83.914062 41.398438 83.921875 41.320312 C 83.925781 41.296875 83.929688 41.269531 83.929688 41.246094 C 83.929688 41.246094 83.929688 41.246094 83.929688 41.242188 C 83.933594 41.1875 83.933594 41.128906 83.929688 41.070312 C 83.90625 40.308594 83.429688 39.980469 83.117188 39.847656 Z M 51.726562 42.472656 C 51.664062 42.398438 51.589844 42.320312 51.496094 42.238281 C 51.46875 42.210938 51.4375 42.183594 51.402344 42.160156 C 51.402344 42.160156 51.402344 42.15625 51.402344 42.15625 C 51.332031 42.101562 51.257812 42.046875 51.179688 41.996094 C 50.164062 41.328125 49.300781 41.632812 48.839844 41.910156 C 48.710938 41.976562 48.589844 42.066406 48.484375 42.175781 C 48.484375 42.175781 48.480469 42.175781 48.480469 42.175781 C 48.109375 42.558594 47.90625 43.210938 48.125 44.3125 C 47.078125 43.886719 46.390625 43.960938 45.941406 44.25 C 45.8125 44.332031 45.703125 44.433594 45.609375 44.546875 C 45.25 44.941406 44.78125 45.726562 45.25 46.839844 C 45.285156 46.925781 45.324219 47.007812 45.363281 47.085938 C 45.367188 47.085938 45.367188 47.089844 45.367188 47.089844 C 45.386719 47.125 45.40625 47.160156 45.425781 47.195312 C 45.488281 47.300781 45.550781 47.390625 45.613281 47.460938 C 47.125 49.320312 51.097656 48.429688 51.460938 48.34375 L 51.46875 48.355469 C 51.46875 48.355469 51.472656 48.351562 51.476562 48.339844 C 51.484375 48.339844 51.488281 48.339844 51.488281 48.339844 L 51.480469 48.328125 C 51.632812 47.992188 53.277344 44.296875 51.726562 42.472656 Z M 51.726562 42.472656 " fill-opacity="1" fill-rule="nonzero"/><path fill="#bcf6f4" d="M 67.640625 14.175781 C 67.640625 14.480469 67.390625 14.722656 67.085938 14.722656 C 66.777344 14.722656 66.53125 14.480469 66.53125 14.175781 C 66.53125 13.871094 66.777344 13.625 67.085938 13.625 C 67.390625 13.625 67.640625 13.871094 67.640625 14.175781 Z M 67.640625 14.175781 " fill-opacity="1" fill-rule="nonzero"/><g fill="#000000" fill-opacity="1"><g transform="translate(34.194122, 100.646837)"><g><path d="M 0.722656 0.945312 C 2.058594 0.722656 2.78125 -1.28125 3.085938 -2.558594 C 3.199219 -3.03125 3.308594 -3.503906 3.421875 -3.976562 C 3.53125 -4.421875 3.644531 -4.894531 3.726562 -5.367188 C 3.753906 -5.453125 3.753906 -5.5625 3.785156 -5.675781 C 3.8125 -5.785156 3.839844 -5.925781 3.867188 -6.0625 C 4.894531 -7.148438 6.0625 -7.984375 7.316406 -8.234375 L 7.484375 -8.316406 C 7.511719 -8.34375 7.566406 -8.484375 7.484375 -8.511719 C 7.398438 -8.539062 7.34375 -8.566406 7.316406 -8.566406 C 7.261719 -8.597656 7.175781 -8.597656 7.066406 -8.597656 C 6.871094 -8.597656 6.675781 -8.539062 6.480469 -8.511719 C 5.703125 -8.207031 4.921875 -7.707031 4.0625 -7.011719 C 4.921875 -10.933594 5.730469 -14.800781 6.871094 -18.664062 C 6.898438 -18.777344 6.953125 -18.917969 6.980469 -19.054688 C 7.011719 -19.140625 6.980469 -19.222656 6.898438 -19.277344 C 6.761719 -19.417969 6.621094 -19.527344 6.398438 -19.527344 C 6.257812 -19.527344 6.148438 -19.472656 6.0625 -19.390625 L 5.898438 -19.167969 C 4.671875 -17.71875 3.503906 -16.246094 2.363281 -14.714844 C 1.726562 -13.851562 1.027344 -12.628906 0.835938 -11.542969 C 0.808594 -11.292969 0.917969 -11.097656 1.167969 -10.988281 C 1.195312 -10.960938 1.222656 -10.960938 1.28125 -10.960938 C 1.417969 -10.960938 1.472656 -11.015625 1.503906 -11.128906 C 1.640625 -12.128906 2.558594 -13.378906 3.253906 -14.382812 L 4.839844 -16.46875 L 5.035156 -16.636719 L 5.089844 -16.636719 C 5.117188 -16.605469 5.144531 -16.578125 5.144531 -16.578125 C 5.117188 -16.496094 5.117188 -16.441406 5.117188 -16.386719 C 5.117188 -16.328125 5.089844 -16.273438 5.0625 -16.191406 C 4.953125 -15.71875 4.8125 -15.214844 4.671875 -14.742188 C 4.421875 -13.769531 4.003906 -12.238281 3.644531 -10.570312 C 3.339844 -9.125 2.835938 -6.789062 2.558594 -5.480469 C 1.417969 -4.117188 0.390625 -2.476562 -0.304688 -0.777344 C -0.390625 -0.554688 -0.417969 -0.363281 -0.417969 -0.140625 L -0.417969 0.0546875 C -0.332031 0.722656 0.0820312 0.945312 0.722656 0.945312 Z M 0.585938 0.445312 C 0.5 0.445312 0.445312 0.417969 0.417969 0.390625 C 0.277344 0.195312 0.222656 -0.0273438 0.222656 -0.277344 C 0.222656 -0.304688 0.25 -0.417969 0.277344 -0.613281 C 0.808594 -1.917969 1.417969 -3.03125 2.28125 -4.144531 C 2.058594 -3.003906 1.835938 -1.863281 1.417969 -0.777344 C 1.28125 -0.445312 1.113281 -0.109375 0.890625 0.195312 C 0.808594 0.277344 0.75 0.332031 0.667969 0.417969 C 0.640625 0.445312 0.613281 0.445312 0.585938 0.445312 Z M 0.585938 0.445312 "/></g></g></g><g fill="#000000" fill-opacity="1"><g transform="translate(40.313804, 100.646837)"><g><path d="M 1.027344 -2.671875 C 1.558594 -2.671875 1.917969 -3.003906 2.253906 -3.339844 C 2.699219 -3.753906 3.058594 -4.199219 3.476562 -4.730469 L 5.757812 -7.761719 C 5.8125 -7.84375 5.871094 -7.898438 5.925781 -7.984375 C 5.980469 -8.066406 6.035156 -8.152344 6.09375 -8.234375 L 6.175781 -8.402344 C 6.203125 -8.484375 6.148438 -8.597656 6.0625 -8.625 C 6.035156 -8.652344 5.953125 -8.652344 5.871094 -8.652344 C 5.785156 -8.652344 5.703125 -8.625 5.648438 -8.566406 L 4.980469 -7.761719 C 4.285156 -6.789062 3.589844 -5.871094 2.835938 -4.953125 C 2.476562 -4.449219 2.03125 -3.976562 1.503906 -3.503906 C 1.390625 -3.421875 1.28125 -3.367188 1.140625 -3.28125 C 1.113281 -3.253906 1.085938 -3.253906 1.058594 -3.253906 C 1 -3.253906 0.945312 -3.28125 0.917969 -3.367188 C 0.835938 -3.726562 0.777344 -4.089844 0.808594 -4.449219 C 1.058594 -7.09375 1.585938 -9.070312 3.226562 -11.183594 C 3.253906 -11.210938 3.308594 -11.265625 3.367188 -11.292969 C 3.394531 -11.320312 3.449219 -11.351562 3.476562 -11.378906 C 3.503906 -11.40625 3.503906 -11.40625 3.53125 -11.40625 C 3.617188 -11.40625 3.671875 -11.378906 3.671875 -11.292969 C 3.699219 -11.238281 3.699219 -11.183594 3.699219 -11.097656 C 3.726562 -10.570312 3.644531 -10.070312 3.476562 -9.542969 L 3.308594 -9.039062 C 3.28125 -8.957031 3.308594 -8.875 3.449219 -8.847656 C 3.476562 -8.847656 3.503906 -8.847656 3.53125 -8.847656 C 3.5625 -8.816406 3.5625 -8.816406 3.589844 -8.816406 C 3.726562 -8.816406 3.867188 -8.902344 3.949219 -9.039062 C 4.3125 -9.679688 4.480469 -10.402344 4.421875 -11.183594 C 4.421875 -11.40625 4.339844 -11.574219 4.171875 -11.683594 C 3.867188 -11.933594 3.53125 -12.074219 3.199219 -12.074219 C 2.949219 -12.074219 2.671875 -11.960938 2.421875 -11.765625 C 0.667969 -10.238281 -0.277344 -7.261719 -0.417969 -4.980469 C -0.417969 -4.339844 -0.417969 -3.894531 -0.222656 -3.421875 C -0.167969 -3.226562 -0.0546875 -3.085938 0.109375 -2.949219 C 0.417969 -2.753906 0.695312 -2.699219 1.027344 -2.671875 Z M 1.027344 -2.671875 "/></g></g></g><g fill="#000000" fill-opacity="1"><g transform="translate(45.098278, 100.646837)"><g><path d="M 0.917969 -2.253906 C 1.613281 -2.253906 2.113281 -2.753906 2.53125 -3.226562 C 2.976562 -3.785156 3.394531 -4.367188 3.8125 -4.953125 C 4.117188 -5.425781 4.449219 -5.925781 4.757812 -6.398438 C 5.0625 -6.871094 5.367188 -7.34375 5.675781 -7.816406 C 5.703125 -7.898438 5.785156 -8.011719 5.871094 -8.152344 C 5.953125 -8.289062 6.007812 -8.429688 6.007812 -8.511719 C 6.007812 -8.539062 5.980469 -8.597656 5.953125 -8.625 C 5.898438 -8.707031 5.8125 -8.734375 5.703125 -8.734375 C 5.621094 -8.734375 5.535156 -8.707031 5.480469 -8.652344 C 5.453125 -8.625 5.425781 -8.566406 5.425781 -8.539062 C 5.398438 -8.511719 5.367188 -8.457031 5.339844 -8.429688 L 3.671875 -5.925781 C 3.339844 -5.367188 1.640625 -2.976562 1.027344 -2.976562 C 0.917969 -2.976562 0.835938 -3.085938 0.808594 -3.28125 L 0.808594 -3.476562 C 0.777344 -4.144531 0.835938 -4.839844 0.945312 -5.507812 L 1.113281 -6.203125 C 1.167969 -6.398438 1.28125 -6.507812 1.445312 -6.539062 C 1.585938 -6.566406 1.695312 -6.621094 1.808594 -6.648438 C 1.917969 -6.675781 2.03125 -6.703125 2.140625 -6.761719 C 2.894531 -7.203125 3.671875 -7.871094 3.921875 -8.761719 C 4.117188 -9.347656 3.949219 -9.734375 3.394531 -9.988281 C 3.144531 -10.125 2.949219 -10.125 2.644531 -10.125 C 2.421875 -10.125 2.199219 -10.042969 1.945312 -9.902344 C 1.726562 -9.734375 1.558594 -9.570312 1.417969 -9.429688 C 1.085938 -9.097656 0.808594 -8.679688 0.585938 -8.261719 C -0.167969 -6.730469 -0.5 -5.144531 -0.390625 -3.503906 L -0.304688 -3.058594 C -0.167969 -2.503906 0.390625 -2.253906 0.917969 -2.253906 Z M 1.53125 -7.121094 C 1.445312 -7.148438 1.445312 -7.203125 1.472656 -7.289062 C 1.640625 -7.84375 2.476562 -9.542969 3.085938 -9.542969 C 3.199219 -9.542969 3.28125 -9.484375 3.308594 -9.347656 L 3.308594 -9.292969 C 3.308594 -8.511719 2.363281 -7.398438 1.640625 -7.121094 C 1.613281 -7.09375 1.558594 -7.09375 1.53125 -7.121094 Z M 1.53125 -7.121094 "/></g></g></g><g fill="#000000" fill-opacity="1"><g transform="translate(49.715852, 100.646837)"><g/></g></g><g fill="#000000" fill-opacity="1"><g transform="translate(56.948195, 100.646837)"><g><path d="M 2.585938 0.667969 C 3.367188 0.667969 3.894531 0.554688 4.5625 0.140625 C 5.035156 -0.167969 5.453125 -0.585938 5.871094 -1.058594 C 6.816406 -2.085938 8.875 -5.507812 9.515625 -6.730469 C 9.597656 -6.925781 9.707031 -7.148438 9.792969 -7.371094 C 9.875 -7.566406 9.988281 -7.789062 10.070312 -7.984375 C 10.097656 -8.039062 10.097656 -8.09375 10.125 -8.152344 C 10.152344 -8.179688 10.152344 -8.234375 10.179688 -8.289062 C 10.179688 -8.34375 10.179688 -8.375 10.152344 -8.402344 C 10.125 -8.511719 9.988281 -8.566406 9.875 -8.566406 C 9.679688 -8.566406 9.597656 -8.375 9.515625 -8.234375 C 9.429688 -8.039062 9.347656 -7.871094 9.292969 -7.707031 C 9.207031 -7.511719 9.125 -7.34375 9.039062 -7.175781 C 8.875 -6.675781 7.816406 -4.980469 7.148438 -3.976562 C 6.453125 -2.921875 5.339844 -1.28125 4.894531 -0.890625 C 4.367188 -0.417969 3.699219 0.167969 2.949219 0.25 C 2.503906 0.25 2.140625 0.25 1.835938 -0.167969 C 1.695312 -0.304688 1.585938 -0.445312 1.503906 -0.640625 C 1.390625 -0.890625 1.308594 -1.140625 1.222656 -1.390625 C 0.917969 -2.390625 0.777344 -3.503906 0.863281 -4.757812 C 0.890625 -4.894531 0.917969 -5.117188 0.917969 -5.398438 C 1.140625 -8.984375 2.53125 -14.492188 5.871094 -16.164062 C 6.230469 -16.328125 6.621094 -16.414062 7.039062 -16.414062 C 7.09375 -16.414062 7.148438 -16.414062 7.234375 -16.414062 C 7.289062 -16.386719 7.34375 -16.386719 7.398438 -16.386719 C 7.648438 -16.355469 7.871094 -16.21875 8.011719 -15.96875 C 8.207031 -15.605469 8.289062 -15.214844 8.261719 -14.828125 C 8.066406 -13.269531 7.316406 -12.128906 6.121094 -11.210938 C 6.035156 -11.183594 5.980469 -11.128906 5.953125 -11.097656 C 5.648438 -10.960938 5.425781 -10.847656 5.117188 -10.847656 C 5.035156 -10.847656 4.953125 -10.847656 4.894531 -10.875 L 4.757812 -10.875 C 4.703125 -10.820312 4.671875 -10.792969 4.671875 -10.792969 C 4.671875 -10.765625 4.703125 -10.710938 4.730469 -10.683594 C 5.007812 -10.542969 5.285156 -10.488281 5.589844 -10.488281 C 7.34375 -10.488281 8.707031 -12.742188 9.039062 -14.355469 C 9.234375 -15.214844 8.847656 -16.21875 7.871094 -16.664062 C 7.789062 -16.691406 7.707031 -16.746094 7.621094 -16.773438 C 7.539062 -16.800781 7.457031 -16.828125 7.371094 -16.859375 C 7.011719 -16.941406 6.675781 -16.996094 6.371094 -16.996094 C 5.007812 -16.996094 3.867188 -16.273438 2.976562 -15.160156 C 2.503906 -14.605469 2.113281 -13.992188 1.753906 -13.296875 C 1.058594 -11.90625 0.527344 -10.375 0.195312 -9.011719 C 0.0273438 -8.316406 -0.0820312 -7.707031 -0.167969 -7.175781 C -0.222656 -6.84375 -0.25 -6.507812 -0.277344 -6.175781 C -0.304688 -5.839844 -0.332031 -5.507812 -0.363281 -5.175781 C -0.445312 -4.617188 -0.445312 -4.0625 -0.417969 -3.53125 C -0.332031 -2.671875 -0.222656 -1.835938 0.0820312 -1.027344 C 0.613281 0.167969 1.140625 0.667969 2.585938 0.667969 Z M 2.585938 0.667969 "/></g></g></g><g fill="#000000" fill-opacity="1"><g transform="translate(65.738282, 100.646837)"><g><path d="M 0.972656 -3.476562 C 1.167969 -3.476562 1.363281 -3.589844 1.53125 -3.8125 C 1.640625 -3.949219 1.726562 -4.117188 1.808594 -4.257812 C 1.890625 -4.449219 2.003906 -4.671875 2.085938 -4.867188 C 2.167969 -5.0625 2.253906 -5.257812 2.335938 -5.453125 C 2.476562 -5.757812 2.613281 -6.035156 2.753906 -6.34375 C 2.867188 -6.621094 3.003906 -6.898438 3.144531 -7.175781 C 3.476562 -7.84375 4.285156 -9.347656 5.007812 -9.429688 C 5.035156 -9.429688 5.117188 -9.542969 5.117188 -9.570312 C 5.089844 -9.597656 5.0625 -9.652344 5.035156 -9.679688 L 4.703125 -9.765625 C 4.671875 -9.765625 4.644531 -9.765625 4.617188 -9.792969 C 4.589844 -9.792969 4.5625 -9.792969 4.535156 -9.792969 C 4.003906 -9.792969 3.589844 -9.234375 3.339844 -8.816406 C 2.671875 -7.929688 2.199219 -6.871094 1.753906 -5.839844 L 1.53125 -5.425781 C 1.503906 -5.398438 1.472656 -5.367188 1.445312 -5.339844 C 1.417969 -5.3125 1.390625 -5.3125 1.390625 -5.339844 C 1.363281 -5.425781 1.335938 -5.453125 1.335938 -5.480469 L 1.753906 -8.316406 C 1.78125 -8.597656 1.835938 -8.875 1.890625 -9.179688 C 1.917969 -9.457031 1.945312 -9.792969 1.945312 -10.152344 L 1.945312 -10.515625 C 1.917969 -10.765625 1.613281 -10.820312 1.417969 -10.820312 C 1.363281 -10.765625 1.335938 -10.738281 1.335938 -10.738281 C 0.917969 -10.179688 0.167969 -5.675781 0.109375 -4.671875 C 0.109375 -4.5625 0.109375 -4.449219 0.140625 -4.339844 C 0.140625 -4.226562 0.140625 -4.117188 0.140625 -4.003906 C 0.167969 -3.839844 0.25 -3.699219 0.445312 -3.617188 C 0.5 -3.589844 0.585938 -3.53125 0.695312 -3.503906 C 0.777344 -3.476562 0.863281 -3.476562 0.972656 -3.476562 Z M 0.972656 -3.476562 "/></g></g></g><g fill="#000000" fill-opacity="1"><g transform="translate(70.689655, 100.646837)"><g><path d="M 0.917969 -2.253906 C 1.613281 -2.253906 2.113281 -2.753906 2.53125 -3.226562 C 2.976562 -3.785156 3.394531 -4.367188 3.8125 -4.953125 C 4.117188 -5.425781 4.449219 -5.925781 4.757812 -6.398438 C 5.0625 -6.871094 5.367188 -7.34375 5.675781 -7.816406 C 5.703125 -7.898438 5.785156 -8.011719 5.871094 -8.152344 C 5.953125 -8.289062 6.007812 -8.429688 6.007812 -8.511719 C 6.007812 -8.539062 5.980469 -8.597656 5.953125 -8.625 C 5.898438 -8.707031 5.8125 -8.734375 5.703125 -8.734375 C 5.621094 -8.734375 5.535156 -8.707031 5.480469 -8.652344 C 5.453125 -8.625 5.425781 -8.566406 5.425781 -8.539062 C 5.398438 -8.511719 5.367188 -8.457031 5.339844 -8.429688 L 3.671875 -5.925781 C 3.339844 -5.367188 1.640625 -2.976562 1.027344 -2.976562 C 0.917969 -2.976562 0.835938 -3.085938 0.808594 -3.28125 L 0.808594 -3.476562 C 0.777344 -4.144531 0.835938 -4.839844 0.945312 -5.507812 L 1.113281 -6.203125 C 1.167969 -6.398438 1.28125 -6.507812 1.445312 -6.539062 C 1.585938 -6.566406 1.695312 -6.621094 1.808594 -6.648438 C 1.917969 -6.675781 2.03125 -6.703125 2.140625 -6.761719 C 2.894531 -7.203125 3.671875 -7.871094 3.921875 -8.761719 C 4.117188 -9.347656 3.949219 -9.734375 3.394531 -9.988281 C 3.144531 -10.125 2.949219 -10.125 2.644531 -10.125 C 2.421875 -10.125 2.199219 -10.042969 1.945312 -9.902344 C 1.726562 -9.734375 1.558594 -9.570312 1.417969 -9.429688 C 1.085938 -9.097656 0.808594 -8.679688 0.585938 -8.261719 C -0.167969 -6.730469 -0.5 -5.144531 -0.390625 -3.503906 L -0.304688 -3.058594 C -0.167969 -2.503906 0.390625 -2.253906 0.917969 -2.253906 Z M 1.53125 -7.121094 C 1.445312 -7.148438 1.445312 -7.203125 1.472656 -7.289062 C 1.640625 -7.84375 2.476562 -9.542969 3.085938 -9.542969 C 3.199219 -9.542969 3.28125 -9.484375 3.308594 -9.347656 L 3.308594 -9.292969 C 3.308594 -8.511719 2.363281 -7.398438 1.640625 -7.121094 C 1.613281 -7.09375 1.558594 -7.09375 1.53125 -7.121094 Z M 1.53125 -7.121094 "/></g></g></g><g fill="#000000" fill-opacity="1"><g transform="translate(75.30723, 100.646837)"><g><path d="M 4.421875 -2.644531 C 4.703125 -2.644531 4.953125 -2.753906 5.203125 -2.976562 C 5.425781 -3.171875 5.621094 -3.367188 5.8125 -3.589844 C 6.09375 -3.949219 6.371094 -4.367188 6.675781 -4.785156 L 7.84375 -6.621094 C 7.984375 -6.816406 8.09375 -7.039062 8.234375 -7.261719 C 8.34375 -7.484375 8.457031 -7.707031 8.597656 -7.929688 C 8.679688 -8.066406 8.707031 -8.207031 8.734375 -8.289062 C 8.734375 -8.289062 8.734375 -8.316406 8.734375 -8.402344 C 8.707031 -8.539062 8.597656 -8.597656 8.402344 -8.597656 C 8.316406 -8.597656 8.261719 -8.566406 8.234375 -8.511719 C 8.121094 -8.402344 8.039062 -8.261719 7.984375 -8.121094 C 7.398438 -7.011719 5.898438 -4.644531 5.007812 -3.753906 C 4.921875 -3.671875 4.839844 -3.617188 4.757812 -3.5625 C 4.671875 -3.476562 4.589844 -3.421875 4.480469 -3.367188 C 4.449219 -3.367188 4.449219 -3.367188 4.449219 -3.367188 C 4.449219 -3.339844 4.449219 -3.339844 4.421875 -3.339844 C 4.339844 -3.339844 4.285156 -3.394531 4.226562 -3.476562 C 4.144531 -3.785156 4.226562 -4.089844 4.257812 -4.394531 C 4.449219 -5.3125 4.617188 -6.175781 4.953125 -7.039062 C 5.175781 -7.566406 5.398438 -8.09375 5.589844 -8.625 C 5.730469 -8.816406 6.175781 -10.070312 6.175781 -10.210938 C 6.203125 -10.347656 6.148438 -10.433594 6.035156 -10.488281 C 5.953125 -10.570312 5.871094 -10.597656 5.757812 -10.597656 C 5.621094 -10.597656 5.507812 -10.542969 5.425781 -10.402344 C 5.3125 -10.210938 5.203125 -10.070312 5.089844 -9.929688 L 4.257812 -8.734375 C 4.171875 -8.652344 4.117188 -8.597656 4.0625 -8.566406 C 4.0625 -8.566406 4.035156 -8.566406 3.949219 -8.566406 L 3.8125 -8.875 C 3.476562 -9.402344 3.003906 -9.652344 2.421875 -9.652344 C 2.058594 -9.652344 1.695312 -9.542969 1.363281 -9.292969 C 1.140625 -9.097656 0.945312 -8.902344 0.75 -8.597656 C 0.640625 -8.402344 0.527344 -8.234375 0.417969 -8.066406 C 0.304688 -7.871094 0.195312 -7.679688 0.0820312 -7.484375 C -0.25 -6.84375 -0.417969 -6.148438 -0.417969 -5.398438 C -0.332031 -4.730469 0.167969 -4.367188 0.808594 -4.285156 L 0.972656 -4.285156 C 1.167969 -4.285156 1.335938 -4.339844 1.445312 -4.421875 C 1.976562 -4.867188 2.390625 -5.285156 2.835938 -5.8125 C 2.921875 -5.898438 2.976562 -5.953125 3.058594 -6.035156 L 3.117188 -6.035156 C 3.171875 -5.980469 3.199219 -5.953125 3.199219 -5.953125 C 3.199219 -5.925781 3.199219 -5.871094 3.199219 -5.839844 C 3.171875 -5.785156 3.171875 -5.730469 3.171875 -5.703125 C 3.144531 -5.480469 3.085938 -5.257812 3.058594 -5.035156 C 3.003906 -4.8125 2.976562 -4.589844 2.949219 -4.339844 C 2.949219 -3.476562 3.449219 -2.644531 4.421875 -2.644531 Z M 0.972656 -5.230469 C 0.890625 -5.257812 0.863281 -5.367188 0.863281 -5.507812 C 1 -6.507812 2.03125 -9.125 2.921875 -9.125 C 3.03125 -9.125 3.117188 -9.070312 3.171875 -8.957031 C 3.253906 -8.847656 3.28125 -8.761719 3.308594 -8.707031 C 3.339844 -8.511719 3.449219 -8.375 3.671875 -8.289062 C 3.753906 -8.261719 3.785156 -8.179688 3.753906 -8.066406 C 3.753906 -8.066406 3.726562 -8.039062 3.699219 -8.011719 C 3.058594 -7.148438 2.449219 -6.398438 1.667969 -5.648438 C 1.585938 -5.5625 1.503906 -5.507812 1.417969 -5.453125 C 1.335938 -5.398438 1.222656 -5.339844 1.140625 -5.257812 C 1.113281 -5.230469 1.058594 -5.230469 0.972656 -5.230469 Z M 0.972656 -5.230469 "/></g></g></g><g fill="#000000" fill-opacity="1"><g transform="translate(82.650846, 100.646837)"><g><path d="M 6.539062 -1.667969 C 6.730469 -1.667969 6.871094 -1.726562 6.980469 -1.863281 C 7.175781 -2.058594 7.316406 -2.28125 7.457031 -2.503906 C 7.871094 -3.144531 8.207031 -3.8125 8.566406 -4.507812 C 8.875 -5.0625 9.152344 -5.621094 9.429688 -6.203125 C 9.707031 -6.761719 9.988281 -7.316406 10.265625 -7.871094 C 10.292969 -7.929688 10.347656 -7.984375 10.375 -8.066406 C 10.402344 -8.121094 10.433594 -8.179688 10.460938 -8.234375 L 10.488281 -8.34375 C 10.542969 -8.457031 10.515625 -8.539062 10.375 -8.625 C 10.320312 -8.652344 10.238281 -8.679688 10.152344 -8.679688 C 10.042969 -8.679688 9.929688 -8.625 9.847656 -8.511719 L 9.570312 -8.011719 C 9.207031 -7.316406 8.847656 -6.648438 8.484375 -5.898438 C 8.011719 -4.980469 7.539062 -4.0625 6.953125 -3.171875 C 6.871094 -3.058594 6.816406 -2.949219 6.730469 -2.867188 C 6.675781 -2.808594 6.621094 -2.78125 6.566406 -2.808594 C 6.507812 -2.808594 6.480469 -2.835938 6.480469 -2.894531 C 6.480469 -3.003906 6.480469 -3.117188 6.480469 -3.226562 C 6.480469 -3.308594 6.480469 -3.421875 6.507812 -3.503906 C 6.566406 -3.753906 6.621094 -4.035156 6.675781 -4.3125 C 6.703125 -4.5625 6.761719 -4.839844 6.84375 -5.089844 C 6.980469 -5.703125 7.148438 -6.316406 7.34375 -6.925781 C 7.511719 -7.539062 7.679688 -8.152344 7.84375 -8.761719 C 7.871094 -8.929688 7.929688 -9.097656 7.984375 -9.292969 C 8.039062 -9.457031 8.09375 -9.625 8.121094 -9.820312 C 8.207031 -10.097656 8.234375 -10.402344 8.234375 -10.738281 C 8.207031 -11.070312 7.816406 -11.320312 7.511719 -11.320312 C 7.175781 -11.320312 6.730469 -10.875 6.539062 -10.625 C 5.898438 -9.957031 5.367188 -9.207031 4.894531 -8.457031 L 4.421875 -7.734375 C 4.339844 -7.648438 4.285156 -7.566406 4.257812 -7.539062 C 4.257812 -7.511719 4.226562 -7.511719 4.144531 -7.511719 L 4.117188 -7.566406 L 4.117188 -8.566406 C 4.089844 -8.902344 3.726562 -9.125 3.421875 -9.125 C 3.28125 -9.125 3.144531 -9.039062 3.03125 -8.902344 L 2.613281 -8.402344 L 1.613281 -6.871094 L 1.558594 -6.871094 C 1.53125 -6.871094 1.53125 -6.871094 1.503906 -6.898438 C 1.417969 -7.121094 1.472656 -7.289062 1.558594 -7.484375 C 1.695312 -8.121094 1.835938 -8.707031 1.945312 -9.347656 C 2.003906 -9.570312 2.03125 -9.792969 2.03125 -10.042969 C 2.058594 -10.238281 1.945312 -10.347656 1.753906 -10.433594 C 1.726562 -10.460938 1.667969 -10.460938 1.585938 -10.460938 C 1.445312 -10.460938 1.363281 -10.402344 1.335938 -10.265625 C 1.25 -10.097656 1.195312 -9.929688 1.140625 -9.765625 C 1.085938 -9.570312 1.027344 -9.402344 0.945312 -9.234375 C 0.640625 -8.261719 0.472656 -7.34375 0.277344 -6.371094 C 0.277344 -6.285156 0.277344 -6.203125 0.277344 -6.121094 C 0.25 -6.035156 0.25 -5.925781 0.277344 -5.839844 C 0.304688 -5.535156 0.445312 -5.339844 0.695312 -5.230469 C 0.722656 -5.203125 0.777344 -5.203125 0.808594 -5.203125 C 0.835938 -5.203125 0.863281 -5.203125 0.890625 -5.175781 C 0.945312 -5.144531 1.027344 -5.144531 1.113281 -5.144531 C 1.25 -5.144531 1.363281 -5.203125 1.472656 -5.339844 C 1.558594 -5.425781 1.613281 -5.535156 1.667969 -5.648438 C 1.726562 -5.730469 1.78125 -5.839844 1.863281 -5.953125 C 1.976562 -6.148438 2.085938 -6.371094 2.199219 -6.566406 C 2.28125 -6.761719 2.390625 -6.953125 2.503906 -7.148438 C 2.558594 -7.234375 2.613281 -7.34375 2.699219 -7.425781 C 2.753906 -7.511719 2.808594 -7.59375 2.867188 -7.679688 C 2.894531 -7.707031 2.894531 -7.707031 2.921875 -7.707031 C 2.976562 -7.679688 3.003906 -7.648438 3.003906 -7.621094 C 3.003906 -7.425781 2.976562 -7.289062 2.949219 -7.09375 L 2.867188 -6.453125 C 2.835938 -6.09375 2.976562 -5.871094 3.308594 -5.730469 C 3.339844 -5.703125 3.394531 -5.703125 3.449219 -5.675781 C 3.503906 -5.648438 3.5625 -5.648438 3.617188 -5.621094 L 3.726562 -5.621094 C 4.089844 -5.621094 4.285156 -5.980469 4.480469 -6.285156 L 5.203125 -7.539062 C 5.425781 -8.011719 6.398438 -9.679688 6.84375 -9.957031 C 6.953125 -9.988281 6.980469 -9.957031 6.925781 -9.875 C 6.898438 -9.792969 6.871094 -9.707031 6.871094 -9.625 C 6.84375 -9.542969 6.816406 -9.457031 6.789062 -9.375 C 6.035156 -7.484375 5.480469 -5.507812 5.285156 -3.503906 C 5.230469 -3.171875 5.257812 -2.835938 5.339844 -2.476562 C 5.398438 -2.167969 5.589844 -1.917969 5.898438 -1.78125 C 6.09375 -1.667969 6.316406 -1.667969 6.539062 -1.667969 Z M 6.539062 -1.667969 "/></g></g></g></svg>