<svg xmlns="http://www.w3.org/2000/svg" xmlns:xlink="http://www.w3.org/1999/xlink" width="175" zoomAndPan="magnify" viewBox="0 0 131.25 111.749997" height="149" preserveAspectRatio="xMidYMid meet" version="1.0"><defs><g/><clipPath id="67ee227be3"><path d="M 40 12 L 92.734375 12 L 92.734375 79 L 40 79 Z M 40 12 " clip-rule="nonzero"/></clipPath><clipPath id="da78c669f5"><path d="M 51.851562 19.265625 L 92.695312 19.265625 L 92.695312 65.8125 L 51.851562 65.8125 Z M 51.851562 19.265625 " clip-rule="nonzero"/></clipPath><clipPath id="92d15fe7f9"><path d="M 39.074219 11.78125 L 91.535156 11.78125 L 91.535156 79.652344 L 39.074219 79.652344 Z M 39.074219 11.78125 " clip-rule="nonzero"/></clipPath></defs><g clip-path="url(#67ee227be3)"><path fill="#fbcce3" d="M 92.257812 44.945312 C 92.257812 44.925781 92.257812 44.910156 92.257812 44.894531 C 92.25 44.832031 92.242188 44.78125 92.222656 44.730469 C 92.214844 44.703125 92.203125 44.679688 92.195312 44.65625 C 92.1875 44.644531 92.183594 44.628906 92.175781 44.613281 C 92.167969 44.5625 92.152344 44.515625 92.125 44.46875 C 92.117188 44.457031 92.113281 44.445312 92.109375 44.4375 C 92.09375 44.40625 92.074219 44.371094 92.046875 44.332031 C 91.945312 44.199219 91.800781 44.101562 91.628906 44.054688 C 91.582031 44.042969 91.53125 44.035156 91.480469 44.027344 L 91.4375 44.023438 C 91.351562 44.015625 91.265625 44.007812 91.167969 44.011719 C 91.109375 44.011719 91.046875 44.015625 90.980469 44.023438 C 90.785156 44.019531 90.621094 44.023438 90.476562 44.035156 C 90.347656 44.046875 90.230469 44.082031 90.101562 44.117188 C 90.054688 44.132812 90.003906 44.144531 89.953125 44.160156 C 89.945312 44.160156 89.933594 44.164062 89.921875 44.167969 C 89.921875 44.15625 89.90625 44.117188 89.90625 44.117188 C 89.890625 44.074219 89.867188 44.015625 89.828125 43.953125 C 89.816406 43.933594 89.804688 43.910156 89.789062 43.886719 C 89.777344 43.867188 89.769531 43.847656 89.757812 43.828125 C 89.734375 43.789062 89.707031 43.757812 89.6875 43.734375 C 89.675781 43.722656 89.667969 43.714844 89.660156 43.707031 C 89.621094 43.648438 89.566406 43.589844 89.511719 43.550781 C 89.5 43.539062 89.484375 43.527344 89.46875 43.515625 C 89.394531 43.453125 89.308594 43.386719 89.207031 43.335938 L 89.167969 43.320312 C 89.101562 43.28125 89.023438 43.242188 88.933594 43.214844 L 88.929688 43.214844 C 88.867188 43.199219 88.800781 43.199219 88.738281 43.214844 C 88.714844 43.214844 88.691406 43.21875 88.675781 43.222656 C 88.671875 43.222656 88.664062 43.222656 88.660156 43.222656 C 88.621094 43.226562 88.574219 43.230469 88.515625 43.25 C 88.507812 43.253906 88.496094 43.253906 88.480469 43.257812 C 88.460938 43.265625 88.429688 43.273438 88.402344 43.285156 C 88.351562 43.300781 88.308594 43.328125 88.273438 43.347656 L 88.265625 43.351562 C 88.214844 43.382812 88.171875 43.417969 88.128906 43.449219 C 88.101562 43.46875 88.078125 43.484375 88.054688 43.5 C 87.984375 43.546875 87.898438 43.613281 87.835938 43.726562 C 87.777344 43.824219 87.734375 43.941406 87.707031 44.089844 C 87.699219 44.109375 87.695312 44.128906 87.691406 44.144531 C 87.664062 44.25 87.648438 44.351562 87.636719 44.445312 C 87.613281 44.628906 87.613281 44.777344 87.636719 44.921875 C 87.652344 45.027344 87.683594 45.125 87.710938 45.21875 C 87.722656 45.253906 87.734375 45.289062 87.742188 45.328125 C 87.78125 45.464844 87.84375 45.589844 87.90625 45.703125 C 87.992188 45.863281 88.074219 46.039062 88.152344 46.203125 C 88.195312 46.292969 88.238281 46.382812 88.28125 46.472656 C 88.308594 46.523438 88.332031 46.574219 88.355469 46.625 C 88.390625 46.703125 88.425781 46.78125 88.46875 46.859375 C 88.503906 46.929688 88.546875 46.992188 88.589844 47.054688 C 88.617188 47.09375 88.644531 47.128906 88.667969 47.167969 C 88.671875 47.175781 88.679688 47.1875 88.683594 47.195312 C 88.691406 47.210938 88.699219 47.222656 88.710938 47.238281 C 88.714844 47.246094 88.722656 47.253906 88.726562 47.261719 C 88.738281 47.28125 88.75 47.300781 88.761719 47.320312 C 88.777344 47.335938 88.789062 47.351562 88.800781 47.363281 C 88.808594 47.378906 88.820312 47.394531 88.832031 47.40625 C 88.84375 47.421875 88.855469 47.433594 88.871094 47.445312 C 88.910156 47.503906 88.976562 47.578125 89.074219 47.605469 C 89.085938 47.609375 89.09375 47.609375 89.105469 47.613281 C 89.195312 47.625 89.292969 47.601562 89.410156 47.539062 C 89.457031 47.515625 89.515625 47.480469 89.5625 47.4375 C 89.570312 47.433594 89.578125 47.429688 89.585938 47.425781 C 89.625 47.40625 89.664062 47.386719 89.703125 47.367188 L 89.800781 47.316406 C 89.894531 47.269531 89.992188 47.21875 90.085938 47.164062 C 90.183594 47.109375 90.28125 47.054688 90.378906 47.011719 C 90.40625 47 90.433594 46.988281 90.457031 46.976562 C 90.484375 46.964844 90.507812 46.953125 90.53125 46.941406 C 90.574219 46.925781 90.609375 46.902344 90.640625 46.886719 C 90.65625 46.875 90.675781 46.863281 90.6875 46.859375 C 90.691406 46.855469 90.695312 46.855469 90.699219 46.855469 C 90.714844 46.851562 90.734375 46.84375 90.757812 46.832031 C 90.773438 46.824219 90.789062 46.816406 90.800781 46.808594 C 90.8125 46.804688 90.820312 46.796875 90.828125 46.796875 C 90.875 46.773438 90.925781 46.75 90.980469 46.71875 C 90.992188 46.710938 91.011719 46.703125 91.03125 46.691406 C 91.058594 46.679688 91.089844 46.667969 91.121094 46.648438 C 91.164062 46.621094 91.207031 46.59375 91.25 46.566406 L 91.285156 46.542969 C 91.363281 46.492188 91.4375 46.433594 91.503906 46.382812 C 91.527344 46.363281 91.546875 46.347656 91.570312 46.332031 C 91.777344 46.171875 91.945312 45.964844 92.054688 45.734375 C 92.160156 45.511719 92.273438 45.246094 92.257812 44.976562 C 92.257812 44.96875 92.257812 44.957031 92.257812 44.945312 Z M 48.539062 26.464844 C 48.550781 26.480469 48.5625 26.492188 48.574219 26.507812 C 48.644531 26.589844 48.71875 26.660156 48.789062 26.726562 C 48.921875 26.851562 49.042969 26.9375 49.171875 27.003906 C 49.265625 27.050781 49.363281 27.082031 49.457031 27.113281 C 49.492188 27.128906 49.53125 27.140625 49.5625 27.152344 C 49.699219 27.203125 49.835938 27.222656 49.960938 27.238281 C 50.144531 27.261719 50.332031 27.296875 50.515625 27.328125 C 50.613281 27.34375 50.710938 27.363281 50.808594 27.378906 C 50.863281 27.386719 50.917969 27.398438 50.976562 27.410156 C 51.058594 27.425781 51.144531 27.441406 51.230469 27.453125 C 51.308594 27.464844 51.386719 27.464844 51.460938 27.464844 C 51.507812 27.464844 51.550781 27.464844 51.59375 27.46875 C 51.605469 27.46875 51.617188 27.46875 51.628906 27.472656 C 51.644531 27.472656 51.660156 27.472656 51.679688 27.476562 C 51.6875 27.476562 51.699219 27.476562 51.707031 27.476562 C 51.730469 27.476562 51.753906 27.480469 51.777344 27.480469 C 51.796875 27.480469 51.816406 27.476562 51.832031 27.476562 C 51.851562 27.476562 51.867188 27.476562 51.886719 27.476562 C 51.90625 27.472656 51.921875 27.46875 51.941406 27.464844 C 52.011719 27.464844 52.109375 27.457031 52.191406 27.390625 C 52.199219 27.386719 52.207031 27.378906 52.214844 27.371094 C 52.273438 27.304688 52.3125 27.210938 52.332031 27.078125 C 52.339844 27.027344 52.34375 26.960938 52.339844 26.894531 C 52.339844 26.886719 52.339844 26.878906 52.34375 26.871094 C 52.347656 26.828125 52.355469 26.785156 52.359375 26.742188 L 52.378906 26.632812 C 52.390625 26.527344 52.410156 26.417969 52.417969 26.3125 C 52.429688 26.199219 52.441406 26.089844 52.464844 25.984375 C 52.472656 25.953125 52.476562 25.925781 52.480469 25.898438 C 52.488281 25.871094 52.492188 25.84375 52.496094 25.820312 C 52.507812 25.777344 52.511719 25.734375 52.511719 25.699219 C 52.515625 25.675781 52.515625 25.65625 52.519531 25.640625 C 52.519531 25.640625 52.523438 25.636719 52.523438 25.632812 C 52.527344 25.617188 52.535156 25.59375 52.539062 25.570312 C 52.542969 25.554688 52.542969 25.539062 52.546875 25.523438 C 52.546875 25.511719 52.546875 25.5 52.550781 25.496094 C 52.5625 25.441406 52.570312 25.386719 52.574219 25.324219 C 52.578125 25.308594 52.582031 25.289062 52.585938 25.265625 C 52.589844 25.238281 52.597656 25.203125 52.601562 25.167969 C 52.605469 25.117188 52.605469 25.0625 52.609375 25.011719 L 52.609375 24.972656 C 52.613281 24.878906 52.609375 24.789062 52.605469 24.699219 C 52.605469 24.671875 52.605469 24.644531 52.601562 24.617188 C 52.59375 24.355469 52.523438 24.097656 52.398438 23.875 C 52.28125 23.660156 52.132812 23.414062 51.90625 23.269531 C 51.894531 23.265625 51.886719 23.257812 51.875 23.25 C 51.863281 23.242188 51.851562 23.230469 51.835938 23.222656 C 51.78125 23.191406 51.734375 23.167969 51.683594 23.152344 C 51.65625 23.144531 51.628906 23.140625 51.605469 23.136719 C 51.59375 23.132812 51.578125 23.128906 51.5625 23.125 C 51.511719 23.101562 51.464844 23.089844 51.410156 23.082031 C 51.402344 23.082031 51.390625 23.078125 51.378906 23.078125 C 51.34375 23.074219 51.304688 23.066406 51.257812 23.066406 C 51.089844 23.070312 50.925781 23.132812 50.789062 23.246094 C 50.75 23.277344 50.714844 23.3125 50.683594 23.351562 L 50.652344 23.386719 C 50.59375 23.449219 50.535156 23.515625 50.484375 23.597656 C 50.453125 23.644531 50.417969 23.699219 50.386719 23.757812 C 50.269531 23.914062 50.179688 24.046875 50.105469 24.175781 C 50.039062 24.289062 49.996094 24.402344 49.953125 24.527344 C 49.9375 24.574219 49.917969 24.621094 49.898438 24.671875 C 49.894531 24.683594 49.890625 24.691406 49.886719 24.699219 C 49.878906 24.699219 49.839844 24.6875 49.839844 24.6875 C 49.792969 24.671875 49.730469 24.65625 49.660156 24.65625 C 49.636719 24.652344 49.609375 24.652344 49.582031 24.648438 C 49.558594 24.644531 49.539062 24.640625 49.515625 24.640625 C 49.46875 24.636719 49.429688 24.640625 49.398438 24.644531 C 49.386719 24.644531 49.371094 24.648438 49.363281 24.648438 C 49.289062 24.648438 49.214844 24.65625 49.148438 24.675781 C 49.128906 24.683594 49.113281 24.6875 49.09375 24.691406 C 49.003906 24.71875 48.898438 24.75 48.796875 24.804688 L 48.761719 24.824219 C 48.691406 24.859375 48.613281 24.898438 48.542969 24.957031 L 48.535156 24.960938 C 48.488281 25 48.449219 25.050781 48.425781 25.113281 C 48.414062 25.136719 48.402344 25.152344 48.394531 25.167969 C 48.394531 25.171875 48.390625 25.179688 48.386719 25.183594 C 48.367188 25.21875 48.34375 25.257812 48.324219 25.316406 C 48.324219 25.324219 48.316406 25.335938 48.3125 25.347656 C 48.304688 25.371094 48.292969 25.398438 48.285156 25.429688 C 48.273438 25.480469 48.269531 25.527344 48.265625 25.570312 L 48.265625 25.578125 C 48.261719 25.636719 48.261719 25.695312 48.261719 25.746094 C 48.261719 25.777344 48.261719 25.808594 48.261719 25.839844 C 48.257812 25.921875 48.261719 26.027344 48.316406 26.148438 C 48.363281 26.25 48.433594 26.351562 48.539062 26.464844 Z M 52.28125 58.78125 C 52.214844 58.894531 52.171875 59.007812 52.128906 59.136719 C 52.113281 59.183594 52.09375 59.230469 52.074219 59.277344 C 52.070312 59.289062 52.066406 59.296875 52.0625 59.308594 C 52.054688 59.304688 52.015625 59.292969 52.015625 59.292969 C 51.96875 59.277344 51.910156 59.261719 51.835938 59.261719 C 51.8125 59.257812 51.785156 59.257812 51.757812 59.253906 C 51.734375 59.25 51.714844 59.246094 51.691406 59.246094 C 51.648438 59.242188 51.605469 59.246094 51.574219 59.25 C 51.5625 59.25 51.546875 59.253906 51.539062 59.253906 C 51.464844 59.253906 51.390625 59.265625 51.324219 59.28125 C 51.308594 59.289062 51.289062 59.292969 51.269531 59.296875 C 51.179688 59.324219 51.074219 59.355469 50.972656 59.410156 L 50.9375 59.429688 C 50.867188 59.464844 50.789062 59.503906 50.71875 59.5625 L 50.710938 59.566406 C 50.664062 59.605469 50.625 59.660156 50.601562 59.722656 C 50.589844 59.742188 50.578125 59.761719 50.570312 59.773438 C 50.570312 59.777344 50.566406 59.785156 50.5625 59.789062 C 50.542969 59.824219 50.519531 59.863281 50.5 59.921875 C 50.5 59.929688 50.496094 59.941406 50.488281 59.953125 C 50.480469 59.976562 50.46875 60.003906 50.460938 60.035156 C 50.449219 60.085938 50.445312 60.136719 50.441406 60.175781 L 50.441406 60.183594 C 50.4375 60.246094 50.4375 60.300781 50.4375 60.351562 C 50.4375 60.386719 50.4375 60.414062 50.4375 60.445312 C 50.433594 60.527344 50.4375 60.636719 50.492188 60.753906 C 50.539062 60.855469 50.609375 60.957031 50.714844 61.070312 C 50.726562 61.085938 50.738281 61.097656 50.753906 61.113281 C 50.820312 61.195312 50.894531 61.269531 50.964844 61.332031 C 51.097656 61.457031 51.21875 61.542969 51.347656 61.609375 C 51.441406 61.65625 51.539062 61.691406 51.632812 61.722656 C 51.667969 61.734375 51.707031 61.746094 51.742188 61.757812 C 51.875 61.808594 52.011719 61.828125 52.136719 61.84375 C 52.324219 61.867188 52.511719 61.902344 52.691406 61.933594 C 52.789062 61.953125 52.886719 61.96875 52.984375 61.984375 C 53.042969 61.996094 53.09375 62.003906 53.152344 62.015625 C 53.234375 62.03125 53.320312 62.046875 53.40625 62.058594 C 53.488281 62.070312 53.5625 62.070312 53.636719 62.070312 C 53.683594 62.070312 53.730469 62.070312 53.773438 62.074219 C 53.785156 62.074219 53.792969 62.078125 53.804688 62.078125 C 53.824219 62.078125 53.839844 62.082031 53.855469 62.082031 C 53.863281 62.082031 53.875 62.082031 53.882812 62.082031 C 53.90625 62.082031 53.929688 62.085938 53.953125 62.085938 C 53.972656 62.085938 53.992188 62.082031 54.011719 62.082031 C 54.027344 62.082031 54.042969 62.082031 54.0625 62.082031 C 54.082031 62.078125 54.101562 62.074219 54.117188 62.070312 C 54.1875 62.070312 54.285156 62.0625 54.367188 62 C 54.375 61.992188 54.382812 61.984375 54.390625 61.976562 C 54.449219 61.910156 54.488281 61.816406 54.507812 61.683594 C 54.515625 61.632812 54.523438 61.566406 54.515625 61.503906 C 54.515625 61.492188 54.515625 61.484375 54.519531 61.476562 C 54.523438 61.433594 54.53125 61.390625 54.539062 61.347656 L 54.554688 61.238281 C 54.570312 61.132812 54.585938 61.027344 54.59375 60.917969 C 54.605469 60.804688 54.617188 60.695312 54.640625 60.589844 C 54.648438 60.558594 54.652344 60.53125 54.65625 60.503906 C 54.664062 60.476562 54.667969 60.449219 54.671875 60.425781 C 54.683594 60.382812 54.6875 60.339844 54.691406 60.304688 C 54.691406 60.28125 54.691406 60.261719 54.695312 60.246094 C 54.695312 60.246094 54.699219 60.242188 54.699219 60.238281 C 54.703125 60.222656 54.710938 60.203125 54.714844 60.175781 C 54.71875 60.160156 54.722656 60.144531 54.722656 60.128906 C 54.722656 60.117188 54.722656 60.105469 54.726562 60.101562 C 54.738281 60.046875 54.746094 59.992188 54.753906 59.929688 C 54.753906 59.914062 54.757812 59.894531 54.761719 59.871094 C 54.765625 59.84375 54.773438 59.808594 54.777344 59.773438 C 54.78125 59.722656 54.78125 59.671875 54.785156 59.621094 L 54.785156 59.578125 C 54.789062 59.484375 54.789062 59.394531 54.785156 59.304688 C 54.78125 59.28125 54.78125 59.25 54.78125 59.222656 C 54.769531 58.960938 54.699219 58.707031 54.578125 58.484375 C 54.457031 58.265625 54.308594 58.019531 54.082031 57.875 C 54.070312 57.871094 54.0625 57.863281 54.050781 57.859375 C 54.039062 57.847656 54.027344 57.835938 54.011719 57.828125 C 53.960938 57.796875 53.910156 57.773438 53.859375 57.761719 C 53.832031 57.75 53.804688 57.746094 53.785156 57.742188 C 53.769531 57.738281 53.753906 57.734375 53.738281 57.730469 C 53.6875 57.707031 53.644531 57.695312 53.589844 57.6875 C 53.578125 57.6875 53.566406 57.683594 53.554688 57.683594 C 53.519531 57.679688 53.480469 57.671875 53.433594 57.671875 C 53.265625 57.675781 53.101562 57.742188 52.964844 57.855469 C 52.925781 57.882812 52.890625 57.917969 52.859375 57.957031 L 52.828125 57.992188 C 52.773438 58.054688 52.714844 58.121094 52.660156 58.203125 C 52.628906 58.253906 52.59375 58.304688 52.5625 58.363281 C 52.445312 58.519531 52.355469 58.65625 52.28125 58.78125 Z M 59.960938 66.089844 C 59.804688 66.105469 59.703125 66.128906 59.613281 66.1875 C 58.78125 66.277344 58.042969 66.542969 57.234375 66.746094 C 56.234375 67 55.28125 66.980469 54.285156 66.78125 C 53.324219 66.589844 52.589844 66.429688 51.808594 65.816406 C 51.558594 65.621094 51.277344 65.484375 51.023438 65.304688 C 50.722656 65.09375 50.472656 64.816406 50.171875 64.617188 C 48.816406 63.714844 47.429688 62.84375 46.042969 61.980469 C 45.292969 61.515625 44.546875 61.046875 43.785156 60.605469 C 43.117188 60.21875 42.457031 59.738281 41.640625 59.917969 C 40.15625 60.238281 39.855469 62.066406 40.203125 63.328125 C 40.410156 64.089844 40.921875 64.695312 41.339844 65.351562 C 41.769531 66.019531 42.222656 66.605469 42.917969 67.003906 C 43.675781 67.441406 44.445312 67.785156 45.167969 68.273438 C 45.816406 68.714844 46.425781 69.09375 47.179688 69.347656 C 48.84375 69.90625 50.707031 69.957031 52.441406 70.019531 C 52.882812 70.039062 53.285156 70.132812 53.730469 70.070312 C 54.242188 70.003906 54.734375 69.878906 55.242188 69.78125 C 56.230469 69.585938 57.195312 69.261719 58.113281 68.832031 C 58.550781 68.628906 58.976562 68.40625 59.429688 68.238281 C 59.707031 68.132812 60.019531 68.082031 60.246094 67.878906 C 60.703125 67.46875 60.570312 66.78125 60.316406 66.292969 C 60.253906 66.175781 60.09375 66.074219 59.960938 66.089844 Z M 85.359375 35.335938 C 85.769531 36.027344 86.472656 37.253906 85.835938 38.078125 C 85.226562 38.859375 83.867188 38.320312 83.085938 38.160156 C 81.804688 37.890625 80.730469 37.515625 79.46875 37.976562 C 79.378906 38.007812 79.292969 38.042969 79.203125 38.078125 C 79.367188 38.445312 79.476562 38.855469 79.582031 39.210938 C 79.820312 39.996094 80.039062 40.765625 80.335938 41.523438 C 80.597656 42.1875 80.976562 42.777344 81.144531 43.476562 C 81.316406 44.210938 81.550781 44.921875 81.6875 45.667969 C 81.894531 46.808594 82.082031 47.949219 82.21875 49.09375 C 82.566406 49.054688 83.003906 48.785156 82.898438 49.109375 C 82.789062 49.441406 82.546875 49.738281 82.371094 50.027344 C 82.355469 50.054688 82.339844 50.082031 82.328125 50.109375 C 82.445312 51.417969 82.480469 52.738281 82.390625 54.074219 C 82.324219 55.019531 82.152344 55.933594 82.007812 56.863281 C 81.984375 57.121094 81.960938 57.375 81.929688 57.632812 C 81.9375 57.660156 81.949219 57.6875 81.953125 57.71875 C 82.160156 58.949219 81.84375 60.117188 81.628906 61.324219 C 81.511719 61.984375 81.503906 63.1875 81.015625 63.800781 C 81 63.898438 80.984375 63.992188 80.96875 64.089844 C 80.816406 65.105469 80.652344 66.128906 80.410156 67.132812 C 80.34375 67.40625 80.273438 67.679688 80.199219 67.953125 C 80.125 68.523438 80.039062 69.09375 79.914062 69.660156 C 79.644531 70.917969 79.28125 72.179688 79.066406 73.457031 C 78.863281 74.644531 78.980469 79.339844 76.707031 78.589844 C 75.71875 78.265625 75.367188 76.804688 75.214844 75.910156 C 75.101562 75.261719 75.082031 74.605469 74.917969 73.964844 C 74.75 73.316406 74.445312 72.71875 74.230469 72.089844 C 73.414062 72.378906 72.648438 72.734375 71.734375 72.785156 C 70.878906 72.832031 70.082031 72.65625 69.265625 72.488281 C 69.101562 72.878906 68.925781 73.613281 68.800781 73.941406 C 68.53125 74.640625 68.273438 75.347656 67.980469 76.035156 C 67.574219 76.976562 66.921875 78.359375 65.820312 78.613281 C 64.59375 78.898438 63.820312 77.910156 63.46875 76.859375 C 62.957031 75.328125 62.566406 73.8125 62.179688 72.246094 C 62.023438 71.609375 61.996094 70.953125 61.828125 70.316406 C 61.628906 69.578125 61.429688 68.839844 61.253906 68.09375 C 60.878906 66.515625 60.671875 64.945312 60.402344 63.351562 C 60.15625 61.875 59.84375 60.394531 59.566406 58.921875 C 59.511719 58.628906 59.460938 58.320312 59.417969 58.003906 L 59.40625 58.003906 C 59.230469 56.761719 59.21875 55.46875 59.21875 54.246094 C 59.21875 52.117188 59.566406 50.019531 59.792969 47.902344 C 59.996094 46.011719 60.457031 44.253906 61.167969 42.515625 C 61.550781 41.578125 61.941406 40.683594 62.453125 39.820312 C 62.675781 39.445312 62.875 38.96875 63.125 38.5625 C 62.769531 38.5 62.417969 38.492188 62.074219 38.578125 C 61.199219 38.804688 60.644531 39.667969 59.863281 40.089844 C 57.230469 41.503906 58.234375 38.113281 57.886719 36.605469 C 57.4375 34.679688 55.289062 35.617188 54.003906 35.113281 C 51.835938 34.265625 54.726562 31.84375 55.433594 30.945312 C 56.136719 30.050781 55.957031 29.203125 56.113281 28.0625 C 56.265625 26.972656 56.503906 25.835938 56.84375 24.796875 C 57.125 23.945312 57.640625 23.144531 57.867188 22.28125 C 58.082031 21.472656 58.101562 21.5625 57.878906 20.648438 C 57.628906 19.621094 57.488281 18.554688 57.464844 17.492188 C 57.429688 15.839844 57.328125 13.390625 59.230469 13.222656 C 61.4375 13.027344 63.875 14.605469 65.816406 15.496094 C 66.046875 15.601562 66.328125 15.734375 66.574219 15.8125 C 66.828125 15.921875 67.050781 16.082031 67.242188 16.296875 C 67.433594 16.222656 67.625 16.152344 67.820312 16.082031 C 68.324219 16.132812 69.8125 16.023438 70.71875 16.035156 C 71.996094 16.054688 73.28125 16.242188 74.53125 16.523438 C 75.691406 16.785156 75.640625 16.632812 76.492188 15.898438 C 78.097656 14.503906 79.933594 13.804688 81.867188 13.105469 C 87.570312 11.042969 83.164062 18.992188 84.125 21.609375 C 84.1875 21.777344 84.25 21.953125 84.308594 22.125 C 84.382812 22.1875 84.433594 22.273438 84.453125 22.378906 C 84.46875 22.457031 84.476562 22.539062 84.484375 22.621094 C 85.09375 24.402344 85.644531 26.257812 86.324219 27.972656 C 86.96875 29.601562 89.199219 30.175781 89.738281 31.734375 C 90.238281 33.195312 85.945312 33.453125 85.269531 33.992188 C 84.582031 34.542969 84.867188 34.507812 85.359375 35.335938 " fill-opacity="1" fill-rule="nonzero"/></g><g clip-path="url(#da78c669f5)"><path fill="#f24d9a" d="M 88.277344 62.984375 C 88.269531 62.921875 88.261719 62.871094 88.246094 62.820312 C 88.234375 62.792969 88.222656 62.769531 88.214844 62.75 C 88.207031 62.734375 88.203125 62.71875 88.199219 62.703125 C 88.1875 62.652344 88.171875 62.605469 88.144531 62.558594 C 88.136719 62.546875 88.132812 62.539062 88.128906 62.527344 C 88.113281 62.496094 88.09375 62.460938 88.066406 62.425781 C 87.964844 62.289062 87.820312 62.191406 87.648438 62.144531 C 87.601562 62.132812 87.550781 62.125 87.5 62.121094 L 87.457031 62.113281 C 87.371094 62.105469 87.28125 62.097656 87.1875 62.101562 C 87.128906 62.101562 87.066406 62.109375 87 62.113281 C 86.800781 62.109375 86.640625 62.113281 86.496094 62.128906 C 86.367188 62.140625 86.25 62.171875 86.121094 62.210938 C 86.074219 62.222656 86.023438 62.234375 85.972656 62.25 C 85.964844 62.25 85.953125 62.253906 85.941406 62.257812 C 85.941406 62.25 85.925781 62.210938 85.925781 62.210938 C 85.910156 62.164062 85.886719 62.105469 85.847656 62.042969 C 85.835938 62.023438 85.824219 62 85.808594 61.976562 C 85.796875 61.957031 85.789062 61.9375 85.777344 61.917969 C 85.753906 61.878906 85.726562 61.847656 85.707031 61.824219 C 85.695312 61.8125 85.6875 61.804688 85.679688 61.796875 C 85.640625 61.738281 85.585938 61.683594 85.53125 61.640625 C 85.519531 61.628906 85.503906 61.617188 85.488281 61.605469 C 85.414062 61.546875 85.328125 61.476562 85.226562 61.429688 L 85.1875 61.410156 C 85.121094 61.375 85.042969 61.332031 84.953125 61.308594 L 84.949219 61.304688 C 84.886719 61.289062 84.820312 61.289062 84.757812 61.304688 C 84.734375 61.304688 84.710938 61.308594 84.695312 61.3125 C 84.691406 61.3125 84.683594 61.3125 84.679688 61.3125 C 84.640625 61.316406 84.59375 61.320312 84.535156 61.339844 C 84.527344 61.34375 84.515625 61.347656 84.5 61.347656 C 84.480469 61.355469 84.449219 61.363281 84.421875 61.375 C 84.371094 61.394531 84.328125 61.417969 84.292969 61.441406 L 84.285156 61.445312 C 84.234375 61.472656 84.191406 61.507812 84.148438 61.539062 C 84.121094 61.558594 84.097656 61.574219 84.074219 61.589844 C 84.003906 61.636719 83.917969 61.703125 83.855469 61.816406 C 83.796875 61.914062 83.753906 62.03125 83.726562 62.179688 C 83.71875 62.199219 83.714844 62.21875 83.710938 62.238281 C 83.683594 62.339844 83.667969 62.441406 83.65625 62.535156 C 83.636719 62.71875 83.632812 62.867188 83.65625 63.011719 C 83.671875 63.117188 83.703125 63.214844 83.730469 63.308594 C 83.742188 63.34375 83.753906 63.382812 83.761719 63.417969 C 83.800781 63.558594 83.863281 63.679688 83.925781 63.792969 C 84.011719 63.957031 84.09375 64.128906 84.171875 64.292969 C 84.214844 64.382812 84.257812 64.472656 84.304688 64.5625 C 84.328125 64.613281 84.351562 64.664062 84.375 64.71875 C 84.410156 64.792969 84.445312 64.871094 84.488281 64.949219 C 84.523438 65.023438 84.566406 65.082031 84.609375 65.144531 C 84.636719 65.183594 84.664062 65.21875 84.6875 65.257812 C 84.691406 65.265625 84.699219 65.277344 84.703125 65.285156 C 84.710938 65.300781 84.71875 65.3125 84.730469 65.328125 C 84.734375 65.335938 84.738281 65.34375 84.746094 65.351562 C 84.757812 65.371094 84.769531 65.390625 84.78125 65.410156 C 84.792969 65.425781 84.808594 65.441406 84.820312 65.453125 C 84.828125 65.46875 84.839844 65.484375 84.851562 65.496094 C 84.863281 65.511719 84.875 65.523438 84.890625 65.535156 C 84.929688 65.59375 84.996094 65.667969 85.09375 65.695312 C 85.105469 65.699219 85.117188 65.703125 85.125 65.703125 C 85.214844 65.714844 85.3125 65.691406 85.429688 65.628906 C 85.476562 65.605469 85.535156 65.574219 85.582031 65.527344 C 85.589844 65.527344 85.597656 65.519531 85.605469 65.515625 C 85.644531 65.496094 85.683594 65.476562 85.722656 65.457031 L 85.820312 65.40625 C 85.914062 65.359375 86.011719 65.308594 86.105469 65.253906 C 86.203125 65.199219 86.300781 65.144531 86.398438 65.101562 C 86.425781 65.089844 86.453125 65.078125 86.476562 65.066406 C 86.503906 65.054688 86.527344 65.042969 86.550781 65.03125 C 86.59375 65.015625 86.628906 64.996094 86.660156 64.976562 C 86.675781 64.964844 86.695312 64.957031 86.707031 64.949219 C 86.710938 64.945312 86.714844 64.945312 86.71875 64.945312 C 86.734375 64.941406 86.753906 64.933594 86.78125 64.921875 C 86.792969 64.914062 86.808594 64.90625 86.820312 64.898438 C 86.832031 64.894531 86.839844 64.890625 86.847656 64.886719 C 86.894531 64.867188 86.945312 64.839844 87 64.808594 C 87.011719 64.800781 87.03125 64.792969 87.050781 64.785156 C 87.078125 64.769531 87.109375 64.757812 87.140625 64.738281 C 87.183594 64.710938 87.226562 64.683594 87.269531 64.65625 L 87.304688 64.632812 C 87.382812 64.582031 87.457031 64.527344 87.523438 64.472656 C 87.546875 64.457031 87.566406 64.4375 87.589844 64.421875 C 87.796875 64.261719 87.964844 64.054688 88.074219 63.824219 C 88.179688 63.601562 88.292969 63.335938 88.277344 63.070312 C 88.277344 63.058594 88.277344 63.046875 88.277344 63.035156 C 88.277344 63.015625 88.277344 63 88.277344 62.984375 Z M 92.691406 21.015625 C 92.695312 21 92.695312 20.984375 92.695312 20.964844 C 92.6875 20.90625 92.675781 20.851562 92.660156 20.804688 C 92.652344 20.773438 92.640625 20.75 92.628906 20.730469 C 92.625 20.714844 92.621094 20.699219 92.613281 20.6875 C 92.605469 20.632812 92.585938 20.589844 92.5625 20.539062 C 92.554688 20.53125 92.550781 20.519531 92.542969 20.507812 C 92.53125 20.480469 92.511719 20.441406 92.484375 20.40625 C 92.382812 20.269531 92.238281 20.175781 92.066406 20.128906 C 92.015625 20.117188 91.96875 20.105469 91.917969 20.101562 L 91.871094 20.097656 C 91.789062 20.089844 91.699219 20.078125 91.605469 20.082031 C 91.546875 20.085938 91.480469 20.089844 91.417969 20.09375 C 91.21875 20.089844 91.058594 20.097656 90.910156 20.109375 C 90.785156 20.121094 90.664062 20.152344 90.539062 20.191406 C 90.488281 20.207031 90.441406 20.21875 90.390625 20.230469 C 90.378906 20.234375 90.371094 20.238281 90.359375 20.238281 C 90.355469 20.230469 90.34375 20.191406 90.34375 20.191406 C 90.328125 20.144531 90.304688 20.085938 90.265625 20.027344 C 90.25 20.007812 90.238281 19.984375 90.226562 19.957031 C 90.214844 19.9375 90.203125 19.917969 90.191406 19.898438 C 90.171875 19.859375 90.144531 19.832031 90.121094 19.808594 C 90.113281 19.796875 90.101562 19.785156 90.097656 19.777344 C 90.054688 19.71875 90.003906 19.664062 89.949219 19.621094 C 89.933594 19.609375 89.921875 19.597656 89.90625 19.585938 C 89.832031 19.527344 89.746094 19.460938 89.640625 19.410156 L 89.601562 19.390625 C 89.535156 19.355469 89.460938 19.316406 89.371094 19.289062 L 89.363281 19.289062 C 89.300781 19.269531 89.238281 19.269531 89.175781 19.289062 C 89.148438 19.289062 89.128906 19.292969 89.113281 19.292969 C 89.105469 19.292969 89.101562 19.296875 89.09375 19.296875 C 89.054688 19.300781 89.011719 19.300781 88.953125 19.324219 C 88.945312 19.324219 88.929688 19.328125 88.917969 19.332031 C 88.894531 19.335938 88.867188 19.34375 88.835938 19.355469 C 88.789062 19.375 88.746094 19.398438 88.710938 19.421875 L 88.703125 19.425781 C 88.652344 19.457031 88.605469 19.488281 88.5625 19.519531 C 88.539062 19.539062 88.515625 19.558594 88.488281 19.574219 C 88.421875 19.617188 88.335938 19.683594 88.269531 19.796875 C 88.214844 19.898438 88.171875 20.011719 88.140625 20.164062 C 88.136719 20.183594 88.132812 20.199219 88.128906 20.21875 C 88.101562 20.324219 88.085938 20.425781 88.074219 20.519531 C 88.050781 20.699219 88.050781 20.851562 88.074219 20.992188 C 88.089844 21.097656 88.117188 21.195312 88.148438 21.292969 C 88.160156 21.328125 88.171875 21.363281 88.179688 21.398438 C 88.21875 21.539062 88.28125 21.660156 88.339844 21.773438 C 88.429688 21.9375 88.511719 22.109375 88.589844 22.277344 C 88.632812 22.367188 88.675781 22.457031 88.71875 22.546875 C 88.742188 22.597656 88.765625 22.648438 88.792969 22.699219 C 88.828125 22.777344 88.863281 22.855469 88.902344 22.933594 C 88.941406 23.003906 88.984375 23.066406 89.027344 23.125 C 89.054688 23.164062 89.082031 23.203125 89.101562 23.238281 C 89.109375 23.25 89.113281 23.257812 89.121094 23.269531 C 89.128906 23.28125 89.136719 23.296875 89.144531 23.308594 C 89.152344 23.316406 89.15625 23.328125 89.164062 23.335938 C 89.175781 23.355469 89.1875 23.375 89.199219 23.390625 C 89.210938 23.410156 89.222656 23.425781 89.234375 23.4375 C 89.246094 23.453125 89.253906 23.464844 89.265625 23.480469 C 89.28125 23.492188 89.292969 23.507812 89.308594 23.515625 C 89.347656 23.574219 89.410156 23.652344 89.511719 23.679688 C 89.519531 23.683594 89.53125 23.683594 89.542969 23.6875 C 89.628906 23.699219 89.730469 23.675781 89.847656 23.613281 C 89.894531 23.585938 89.953125 23.554688 90 23.511719 C 90.007812 23.507812 90.015625 23.503906 90.023438 23.5 C 90.0625 23.480469 90.101562 23.460938 90.140625 23.4375 L 90.238281 23.390625 C 90.332031 23.339844 90.429688 23.292969 90.523438 23.238281 C 90.621094 23.179688 90.714844 23.128906 90.816406 23.085938 C 90.84375 23.074219 90.871094 23.058594 90.894531 23.046875 C 90.917969 23.035156 90.945312 23.023438 90.964844 23.015625 C 91.007812 22.996094 91.042969 22.976562 91.074219 22.957031 C 91.09375 22.945312 91.109375 22.9375 91.125 22.929688 C 91.128906 22.929688 91.132812 22.929688 91.132812 22.925781 C 91.148438 22.921875 91.171875 22.917969 91.195312 22.90625 C 91.210938 22.898438 91.222656 22.890625 91.238281 22.882812 C 91.246094 22.875 91.257812 22.871094 91.261719 22.867188 C 91.3125 22.847656 91.359375 22.824219 91.414062 22.792969 C 91.429688 22.785156 91.449219 22.773438 91.46875 22.765625 C 91.496094 22.753906 91.523438 22.738281 91.554688 22.71875 C 91.601562 22.695312 91.644531 22.664062 91.6875 22.636719 L 91.722656 22.613281 C 91.800781 22.5625 91.871094 22.507812 91.941406 22.453125 C 91.960938 22.4375 91.984375 22.421875 92.003906 22.402344 C 92.214844 22.242188 92.378906 22.039062 92.488281 21.808594 C 92.597656 21.582031 92.707031 21.320312 92.695312 21.050781 C 92.695312 21.039062 92.695312 21.027344 92.691406 21.015625 Z M 56.316406 44.289062 C 56.308594 44.027344 56.238281 43.769531 56.113281 43.550781 C 55.992188 43.332031 55.847656 43.085938 55.621094 42.941406 C 55.609375 42.9375 55.601562 42.929688 55.589844 42.925781 C 55.578125 42.914062 55.5625 42.902344 55.550781 42.894531 C 55.496094 42.863281 55.449219 42.839844 55.398438 42.828125 C 55.371094 42.816406 55.34375 42.8125 55.320312 42.808594 C 55.304688 42.804688 55.289062 42.800781 55.277344 42.796875 C 55.226562 42.773438 55.179688 42.761719 55.125 42.753906 C 55.113281 42.753906 55.105469 42.75 55.09375 42.75 C 55.058594 42.746094 55.019531 42.738281 54.972656 42.738281 C 54.804688 42.742188 54.640625 42.804688 54.503906 42.917969 C 54.464844 42.949219 54.429688 42.984375 54.398438 43.023438 L 54.367188 43.058594 C 54.308594 43.121094 54.25 43.1875 54.199219 43.269531 C 54.167969 43.320312 54.132812 43.371094 54.101562 43.429688 C 53.980469 43.585938 53.894531 43.722656 53.816406 43.847656 C 53.753906 43.960938 53.710938 44.074219 53.667969 44.199219 C 53.652344 44.25 53.632812 44.296875 53.613281 44.34375 C 53.609375 44.355469 53.605469 44.363281 53.601562 44.375 C 53.59375 44.371094 53.554688 44.359375 53.554688 44.359375 C 53.507812 44.34375 53.445312 44.328125 53.375 44.328125 C 53.351562 44.324219 53.324219 44.324219 53.296875 44.320312 C 53.273438 44.316406 53.253906 44.3125 53.230469 44.3125 C 53.183594 44.308594 53.144531 44.3125 53.113281 44.316406 C 53.097656 44.316406 53.085938 44.320312 53.078125 44.320312 C 53.003906 44.320312 52.929688 44.332031 52.863281 44.347656 C 52.84375 44.355469 52.828125 44.359375 52.808594 44.363281 C 52.714844 44.390625 52.613281 44.421875 52.511719 44.476562 L 52.472656 44.496094 C 52.40625 44.53125 52.328125 44.570312 52.253906 44.628906 L 52.25 44.632812 C 52.203125 44.671875 52.164062 44.726562 52.140625 44.789062 C 52.128906 44.808594 52.117188 44.828125 52.109375 44.839844 C 52.105469 44.84375 52.105469 44.851562 52.101562 44.855469 C 52.082031 44.890625 52.058594 44.929688 52.039062 44.988281 C 52.039062 44.996094 52.03125 45.007812 52.027344 45.019531 C 52.019531 45.042969 52.007812 45.070312 52 45.101562 C 51.988281 45.152344 51.984375 45.199219 51.980469 45.242188 L 51.980469 45.25 C 51.972656 45.308594 51.972656 45.367188 51.976562 45.417969 C 51.976562 45.453125 51.976562 45.480469 51.972656 45.511719 C 51.972656 45.59375 51.976562 45.703125 52.03125 45.820312 C 52.078125 45.921875 52.148438 46.023438 52.253906 46.136719 C 52.265625 46.152344 52.277344 46.164062 52.289062 46.179688 C 52.355469 46.261719 52.429688 46.332031 52.5 46.398438 C 52.636719 46.523438 52.757812 46.609375 52.886719 46.675781 C 52.980469 46.722656 53.078125 46.757812 53.171875 46.789062 C 53.207031 46.800781 53.242188 46.8125 53.277344 46.824219 C 53.414062 46.875 53.550781 46.894531 53.675781 46.910156 C 53.859375 46.933594 54.046875 46.96875 54.230469 47 C 54.324219 47.015625 54.425781 47.035156 54.523438 47.050781 C 54.578125 47.0625 54.632812 47.070312 54.691406 47.082031 C 54.773438 47.097656 54.859375 47.113281 54.945312 47.125 C 55.023438 47.136719 55.101562 47.136719 55.171875 47.136719 C 55.222656 47.136719 55.265625 47.136719 55.308594 47.140625 C 55.320312 47.140625 55.332031 47.144531 55.34375 47.144531 C 55.359375 47.144531 55.375 47.148438 55.390625 47.148438 C 55.402344 47.148438 55.414062 47.148438 55.421875 47.148438 C 55.445312 47.148438 55.46875 47.152344 55.488281 47.152344 C 55.511719 47.152344 55.53125 47.148438 55.546875 47.148438 C 55.566406 47.148438 55.582031 47.148438 55.601562 47.148438 C 55.621094 47.144531 55.636719 47.140625 55.65625 47.136719 C 55.726562 47.136719 55.824219 47.128906 55.902344 47.0625 C 55.914062 47.058594 55.921875 47.050781 55.929688 47.042969 C 55.988281 46.976562 56.027344 46.882812 56.046875 46.75 C 56.054688 46.699219 56.058594 46.632812 56.050781 46.570312 C 56.054688 46.558594 56.054688 46.550781 56.054688 46.542969 C 56.0625 46.5 56.070312 46.457031 56.074219 46.414062 L 56.089844 46.304688 C 56.105469 46.199219 56.121094 46.09375 56.132812 45.984375 C 56.144531 45.871094 56.15625 45.761719 56.179688 45.65625 C 56.1875 45.625 56.191406 45.597656 56.195312 45.570312 C 56.199219 45.542969 56.207031 45.515625 56.210938 45.492188 C 56.222656 45.445312 56.226562 45.40625 56.226562 45.371094 C 56.230469 45.347656 56.230469 45.328125 56.234375 45.3125 C 56.234375 45.3125 56.238281 45.308594 56.238281 45.304688 C 56.242188 45.289062 56.25 45.265625 56.253906 45.242188 C 56.257812 45.226562 56.257812 45.210938 56.261719 45.195312 C 56.261719 45.183594 56.261719 45.171875 56.265625 45.164062 C 56.273438 45.113281 56.285156 45.058594 56.289062 44.996094 C 56.292969 44.980469 56.296875 44.960938 56.300781 44.9375 C 56.304688 44.910156 56.3125 44.875 56.3125 44.839844 C 56.320312 44.789062 56.320312 44.738281 56.324219 44.6875 L 56.324219 44.644531 C 56.328125 44.550781 56.324219 44.460938 56.320312 44.371094 C 56.320312 44.34375 56.320312 44.316406 56.316406 44.289062 Z M 80.070312 37.148438 C 80.375 38.085938 80.222656 39.117188 80.0625 40.015625 C 79.894531 40.929688 79.5 41.816406 78.914062 42.578125 C 78.855469 42.660156 78.792969 42.738281 78.734375 42.820312 C 78.542969 43.074219 78.34375 43.339844 78.117188 43.59375 L 78.011719 43.707031 C 77.890625 43.84375 77.761719 43.988281 77.628906 44.125 C 77.535156 44.21875 77.441406 44.296875 77.359375 44.367188 C 77.300781 44.417969 77.242188 44.464844 77.199219 44.511719 C 77.035156 44.671875 76.886719 44.804688 76.734375 44.925781 C 76.714844 44.941406 76.6875 44.96875 76.65625 44.996094 C 76.617188 45.039062 76.574219 45.078125 76.53125 45.117188 C 76.457031 45.179688 76.386719 45.222656 76.335938 45.253906 C 76.324219 45.261719 76.316406 45.269531 76.304688 45.277344 C 76.261719 45.3125 76.210938 45.363281 76.15625 45.417969 C 76.066406 45.515625 75.960938 45.621094 75.824219 45.726562 C 75.753906 45.777344 75.679688 45.84375 75.601562 45.910156 C 75.523438 45.976562 75.445312 46.042969 75.359375 46.113281 C 75.046875 46.359375 74.761719 46.636719 74.46875 46.929688 C 74.183594 47.210938 73.890625 47.480469 73.605469 47.738281 L 73.308594 48.007812 C 73.1875 48.113281 73.070312 48.21875 72.953125 48.328125 C 72.929688 48.351562 72.90625 48.371094 72.882812 48.394531 C 72.753906 48.59375 72.582031 48.761719 72.4375 48.894531 C 72.082031 49.222656 71.75 49.402344 71.433594 49.441406 C 71.394531 49.445312 71.351562 49.449219 71.3125 49.449219 C 70.9375 49.449219 70.636719 49.238281 70.441406 49.070312 C 70.382812 49.046875 70.324219 49.015625 70.261719 48.976562 C 70.207031 48.941406 70.160156 48.902344 70.113281 48.855469 C 70.0625 48.824219 70 48.78125 69.941406 48.730469 C 69.878906 48.679688 69.816406 48.621094 69.757812 48.566406 C 69.730469 48.542969 69.703125 48.515625 69.675781 48.492188 C 69.632812 48.453125 69.589844 48.414062 69.546875 48.367188 C 69.515625 48.339844 69.488281 48.3125 69.457031 48.285156 C 69.34375 48.175781 69.214844 48.066406 69.082031 47.957031 C 68.875 47.785156 68.660156 47.609375 68.460938 47.390625 C 68.246094 47.152344 68.042969 46.910156 67.84375 46.671875 C 67.707031 46.511719 67.578125 46.355469 67.445312 46.203125 C 67.207031 45.925781 66.964844 45.644531 66.734375 45.371094 C 66.296875 44.859375 65.84375 44.328125 65.382812 43.832031 C 65.0625 43.488281 64.726562 43.117188 64.457031 42.664062 C 64.386719 42.546875 64.316406 42.429688 64.242188 42.3125 C 64.046875 42.003906 63.847656 41.6875 63.695312 41.332031 C 63.480469 40.847656 63.339844 40.316406 63.25 39.65625 C 63.203125 39.308594 63.15625 38.933594 63.160156 38.542969 C 63.15625 38.472656 63.152344 38.40625 63.152344 38.335938 C 63.117188 37.773438 63.152344 37.324219 63.261719 36.917969 C 63.386719 36.464844 63.625 36.144531 63.820312 35.921875 C 63.890625 35.839844 63.960938 35.753906 64.035156 35.664062 C 64.15625 35.511719 64.285156 35.355469 64.4375 35.199219 L 64.457031 35.175781 C 64.5625 35.066406 64.6875 34.9375 64.84375 34.824219 C 64.9375 34.753906 65.03125 34.699219 65.109375 34.660156 C 65.152344 34.636719 65.191406 34.613281 65.21875 34.59375 C 65.40625 34.46875 65.5625 34.414062 65.699219 34.367188 C 65.71875 34.359375 65.738281 34.351562 65.757812 34.34375 C 65.8125 34.320312 65.882812 34.289062 65.96875 34.265625 C 66.179688 34.144531 66.40625 34.082031 66.640625 34.082031 L 66.664062 34.082031 C 67.003906 34.085938 67.3125 34.160156 67.582031 34.222656 L 67.734375 34.25 C 68.148438 34.324219 68.515625 34.484375 68.835938 34.625 C 68.898438 34.652344 68.960938 34.679688 69.023438 34.707031 C 69.253906 34.804688 69.492188 34.953125 69.695312 35.121094 C 69.722656 35.140625 69.765625 35.167969 69.808594 35.199219 C 69.90625 35.261719 70.027344 35.339844 70.144531 35.457031 C 70.207031 35.515625 70.261719 35.574219 70.316406 35.632812 C 70.386719 35.707031 70.457031 35.777344 70.519531 35.835938 C 70.71875 36.011719 70.855469 36.199219 70.953125 36.34375 C 70.953125 36.34375 71.039062 36.46875 71.058594 36.496094 C 71.089844 36.476562 71.121094 36.460938 71.15625 36.441406 C 71.324219 36.34375 71.480469 36.253906 71.636719 36.160156 C 72.058594 35.902344 72.441406 35.679688 72.882812 35.515625 C 73.386719 35.328125 73.953125 35.160156 74.652344 34.984375 C 74.875 34.90625 75.097656 34.832031 75.304688 34.765625 C 75.636719 34.660156 75.957031 34.609375 76.261719 34.558594 L 76.429688 34.535156 C 76.609375 34.503906 76.792969 34.488281 76.972656 34.488281 C 77.625 34.488281 78.226562 34.6875 78.714844 35.070312 C 78.847656 35.171875 78.949219 35.285156 79.027344 35.378906 C 79.054688 35.410156 79.082031 35.441406 79.113281 35.472656 C 79.253906 35.617188 79.355469 35.761719 79.4375 35.933594 C 79.472656 35.980469 79.503906 36.03125 79.539062 36.078125 C 79.589844 36.140625 79.65625 36.214844 79.71875 36.308594 C 79.820312 36.464844 79.90625 36.640625 79.984375 36.847656 C 80.007812 36.90625 80.023438 36.96875 80.03125 37.027344 C 80.046875 37.070312 80.058594 37.109375 80.070312 37.148438 " fill-opacity="1" fill-rule="nonzero"/></g><g clip-path="url(#92d15fe7f9)"><path fill="#ef2f7f" d="M 81.546875 36.601562 C 81.554688 36.621094 81.558594 36.640625 81.5625 36.660156 C 81.558594 36.640625 81.554688 36.621094 81.546875 36.601562 Z M 81.601562 36.839844 C 81.605469 36.859375 81.609375 36.878906 81.609375 36.894531 C 81.609375 36.878906 81.605469 36.859375 81.601562 36.839844 Z M 81.640625 37.09375 C 81.644531 37.105469 81.644531 37.117188 81.644531 37.128906 C 81.644531 37.117188 81.644531 37.105469 81.640625 37.09375 Z M 90.375 31.335938 C 88.890625 30.246094 87.257812 29.242188 86.601562 27.429688 C 86.1875 28.386719 85.480469 29.402344 84.570312 29.957031 C 83.699219 30.488281 83.195312 30.390625 83.824219 29.496094 C 84.554688 28.453125 85.128906 28.050781 85.59375 26.773438 C 86.078125 25.445312 85.921875 24.867188 85.398438 23.519531 C 85.058594 24.394531 83.789062 26.816406 82.660156 26.859375 C 81.4375 26.910156 82.875 25.671875 83.140625 25.351562 C 83.949219 24.371094 84.746094 22.984375 84.625 21.699219 C 84.53125 20.671875 83.914062 19.953125 84.125 18.835938 C 84.363281 17.582031 86.503906 13.480469 84.90625 12.617188 C 83.976562 12.113281 81.871094 13.199219 81.039062 13.578125 C 79.558594 14.246094 78.175781 15.132812 76.871094 16.097656 C 77.277344 16.242188 80.222656 16.800781 78.839844 17.460938 C 77.890625 17.910156 74.742188 16.492188 73.847656 16.324219 C 73.847656 17.257812 73.773438 18.226562 73.441406 19.105469 C 73.203125 19.734375 72.707031 20.761719 72.445312 19.765625 C 72.289062 19.175781 72.765625 17.710938 72.738281 17.03125 C 72.683594 15.800781 72.015625 16.023438 70.84375 15.996094 C 70.890625 16.59375 70.898438 21.078125 70.324219 20.855469 C 69.75 20.632812 69.671875 16.660156 69.695312 16.015625 C 68.230469 16.09375 67.394531 15.945312 67.519531 17.59375 C 67.554688 18.070312 68.394531 19.46875 68.203125 19.808594 C 67.5625 20.960938 66.417969 17.070312 66.5 16.445312 C 66.136719 16.511719 62.433594 17.496094 62.4375 16.605469 C 62.4375 15.757812 65.136719 15.730469 65.671875 15.628906 C 64.082031 15.117188 62.601562 14.320312 61.035156 13.746094 C 60.320312 13.484375 58.410156 12.664062 57.65625 13.054688 C 56.132812 13.839844 57.070312 17.953125 57.390625 19.15625 C 57.519531 19.636719 57.800781 20.148438 57.8125 20.652344 C 57.832031 21.339844 57.410156 21.617188 57.210938 22.222656 C 56.957031 22.988281 57.222656 23.941406 57.695312 24.675781 C 58.03125 25.195312 60.320312 26.410156 58.765625 26.429688 C 57.789062 26.441406 56.792969 25.070312 56.367188 24.308594 C 55.976562 25.496094 56.125 25.773438 56.585938 26.886719 C 56.972656 27.824219 57.546875 28.433594 58.347656 29.042969 C 58.640625 29.265625 59.289062 29.355469 59.117188 29.855469 C 58.984375 30.234375 58.042969 29.792969 57.890625 29.726562 C 56.988281 29.34375 56.097656 28.59375 55.675781 27.703125 C 55.609375 29.046875 55.539062 30.167969 54.535156 31.132812 C 54.128906 31.527344 52.375 32.589844 52.640625 33.375 C 52.867188 34.054688 54.015625 33.765625 54.59375 33.847656 C 55.507812 33.972656 56.667969 34.277344 57.160156 35.136719 C 57.722656 36.121094 56.492188 39.546875 58.359375 38.972656 C 59.078125 38.753906 59.550781 37.953125 60.21875 37.613281 C 60.699219 37.363281 61.195312 37.277344 61.699219 37.28125 C 61.699219 36.839844 61.746094 36.457031 61.84375 36.101562 C 61.984375 35.570312 62.265625 35.199219 62.496094 34.9375 C 62.578125 34.84375 62.660156 34.742188 62.746094 34.636719 C 62.890625 34.457031 63.039062 34.273438 63.214844 34.089844 L 63.238281 34.070312 C 63.363281 33.9375 63.507812 33.789062 63.6875 33.65625 C 63.800781 33.574219 63.910156 33.511719 64 33.460938 C 64.050781 33.433594 64.097656 33.40625 64.128906 33.386719 C 64.347656 33.238281 64.53125 33.175781 64.691406 33.121094 C 64.714844 33.113281 64.738281 33.101562 64.757812 33.09375 C 64.824219 33.066406 64.90625 33.03125 65.003906 33.003906 C 65.253906 32.859375 65.515625 32.785156 65.789062 32.785156 L 65.816406 32.789062 C 66.214844 32.792969 66.574219 32.878906 66.890625 32.953125 L 67.070312 32.984375 C 67.554688 33.070312 67.980469 33.257812 68.355469 33.425781 C 68.429688 33.457031 68.5 33.488281 68.570312 33.519531 C 68.84375 33.632812 69.125 33.804688 69.359375 34.003906 C 69.390625 34.027344 69.441406 34.058594 69.492188 34.09375 C 69.605469 34.164062 69.746094 34.257812 69.886719 34.394531 C 69.953125 34.460938 70.019531 34.53125 70.085938 34.597656 C 70.167969 34.6875 70.246094 34.769531 70.324219 34.835938 C 70.554688 35.039062 70.714844 35.261719 70.828125 35.429688 C 70.828125 35.429688 70.929688 35.578125 70.949219 35.609375 C 70.988281 35.585938 71.027344 35.566406 71.0625 35.542969 C 71.261719 35.433594 71.445312 35.328125 71.628906 35.214844 C 72.117188 34.917969 72.566406 34.65625 73.082031 34.464844 C 73.675781 34.246094 74.332031 34.046875 75.152344 33.84375 C 75.414062 33.75 75.667969 33.664062 75.914062 33.585938 C 76.300781 33.464844 76.671875 33.40625 77.035156 33.347656 L 77.226562 33.316406 C 77.4375 33.28125 77.652344 33.261719 77.859375 33.261719 C 78.621094 33.261719 79.328125 33.496094 79.898438 33.941406 C 80.054688 34.0625 80.167969 34.195312 80.261719 34.300781 C 80.296875 34.339844 80.328125 34.378906 80.363281 34.414062 C 80.527344 34.578125 80.648438 34.75 80.742188 34.953125 C 80.78125 35.007812 80.820312 35.0625 80.859375 35.121094 C 80.921875 35.191406 80.996094 35.277344 81.066406 35.386719 C 81.1875 35.574219 81.292969 35.777344 81.378906 36.019531 C 81.40625 36.089844 81.425781 36.160156 81.433594 36.230469 C 81.453125 36.277344 81.46875 36.324219 81.484375 36.371094 C 81.480469 36.363281 81.476562 36.351562 81.472656 36.34375 C 82.820312 36.40625 83.972656 37.078125 85.414062 37.171875 C 87.828125 37.324219 85.503906 35.246094 85.21875 34.3125 C 84.539062 32.074219 89.109375 31.800781 90.375 31.335938 Z M 80.640625 41.949219 C 80.488281 42.214844 80.320312 42.472656 80.132812 42.714844 C 80.058594 42.808594 79.988281 42.902344 79.917969 42.996094 C 79.695312 43.296875 79.464844 43.601562 79.195312 43.902344 L 79.078125 44.035156 C 78.933594 44.195312 78.785156 44.363281 78.628906 44.523438 C 78.519531 44.632812 78.410156 44.722656 78.316406 44.804688 C 78.246094 44.863281 78.179688 44.921875 78.125 44.972656 C 77.933594 45.164062 77.761719 45.316406 77.582031 45.460938 C 77.558594 45.476562 77.527344 45.507812 77.492188 45.542969 C 77.445312 45.589844 77.398438 45.636719 77.34375 45.679688 C 77.257812 45.753906 77.175781 45.804688 77.117188 45.84375 C 77.105469 45.851562 77.09375 45.859375 77.082031 45.867188 C 77.027344 45.910156 76.972656 45.96875 76.910156 46.035156 C 76.800781 46.144531 76.679688 46.273438 76.519531 46.390625 C 76.480469 46.421875 76.445312 46.453125 76.40625 46.484375 C 76.550781 46.554688 76.699219 46.632812 76.84375 46.714844 C 77.363281 47.007812 77.871094 47.265625 78.328125 47.667969 C 78.785156 48.070312 79.050781 48.566406 79.390625 49.058594 C 79.585938 49.34375 79.207031 49.660156 78.945312 49.457031 C 78.605469 49.195312 78.390625 48.863281 78.09375 48.554688 C 77.703125 48.152344 77.3125 47.890625 76.832031 47.628906 C 76.464844 47.425781 76.097656 47.238281 75.722656 47.054688 C 75.453125 47.285156 75.195312 47.539062 74.9375 47.796875 C 74.605469 48.128906 74.261719 48.441406 73.925781 48.742188 L 73.578125 49.058594 C 73.488281 49.140625 73.394531 49.226562 73.304688 49.308594 C 73.726562 50.210938 74.230469 51.050781 74.851562 51.851562 C 75.484375 52.675781 76.105469 53.433594 77.015625 53.953125 C 78.144531 54.597656 79.3125 53.824219 79.984375 53.011719 C 80.496094 52.398438 80.808594 51.644531 81.179688 50.9375 C 81.371094 50.578125 81.574219 50.222656 81.75 49.855469 C 81.925781 49.496094 82.21875 49.058594 82.386719 48.640625 C 82.070312 46.351562 81.457031 44.105469 80.640625 41.949219 Z M 70.164062 48.042969 L 70.199219 48.078125 C 70.351562 48.222656 70.507812 48.363281 70.671875 48.503906 C 70.59375 48.238281 70.40625 48.097656 70.164062 48.042969 Z M 75.695312 44.972656 C 76.035156 44.621094 76.410156 44.285156 76.808594 43.972656 C 76.867188 43.929688 76.9375 43.859375 77.011719 43.78125 C 77.082031 43.707031 77.167969 43.621094 77.261719 43.535156 L 77.363281 43.445312 C 77.484375 43.335938 77.585938 43.246094 77.667969 43.152344 C 77.800781 42.996094 77.9375 42.84375 78.074219 42.695312 C 78.28125 42.464844 78.472656 42.246094 78.660156 42.023438 C 78.929688 41.695312 79.179688 41.300781 79.398438 40.957031 C 79.628906 40.589844 79.855469 40.195312 79.972656 39.808594 C 80.101562 39.378906 80.199219 38.90625 80.296875 38.277344 C 80.359375 37.847656 80.386719 37.382812 80.382812 36.816406 C 80.382812 36.636719 80.328125 36.324219 80.085938 35.847656 C 80.085938 35.847656 80.085938 35.847656 80.085938 35.84375 C 80.082031 35.84375 80.082031 35.839844 80.078125 35.835938 C 79.917969 35.675781 79.703125 35.453125 79.546875 35.09375 C 79.546875 35.089844 79.542969 35.085938 79.539062 35.082031 C 79.34375 34.890625 79.046875 34.660156 78.683594 34.597656 C 78.574219 34.578125 78.449219 34.570312 78.308594 34.570312 C 78.050781 34.570312 77.769531 34.601562 77.515625 34.628906 C 77.453125 34.640625 77.390625 34.652344 77.328125 34.664062 C 77.105469 34.714844 76.875 34.800781 76.628906 34.890625 C 76.480469 34.945312 76.332031 35 76.179688 35.046875 C 75.890625 35.140625 75.570312 35.265625 75.195312 35.433594 C 75.070312 35.488281 74.945312 35.546875 74.820312 35.601562 L 74.632812 35.6875 C 74.582031 35.710938 74.511719 35.753906 74.4375 35.800781 C 74.339844 35.863281 74.234375 35.929688 74.105469 35.996094 C 74.007812 36.042969 73.910156 36.089844 73.8125 36.136719 C 73.78125 36.15625 73.753906 36.171875 73.726562 36.191406 C 73.714844 36.195312 73.703125 36.203125 73.695312 36.210938 C 73.277344 36.566406 72.847656 36.839844 72.429688 37.105469 L 72.332031 37.167969 C 72.082031 37.324219 71.839844 37.445312 71.601562 37.5625 C 71.417969 37.65625 71.242188 37.742188 71.089844 37.835938 C 70.925781 37.933594 70.746094 37.984375 70.5625 37.984375 C 70.425781 37.984375 70.296875 37.957031 70.175781 37.90625 C 69.882812 37.828125 69.644531 37.613281 69.515625 37.324219 C 69.515625 37.324219 69.515625 37.320312 69.515625 37.320312 C 69.464844 37.261719 69.394531 37.175781 69.328125 37.066406 C 69.292969 37.003906 69.25 36.941406 69.210938 36.882812 C 69.164062 36.8125 69.117188 36.742188 69.070312 36.667969 C 69.007812 36.566406 68.960938 36.46875 68.925781 36.390625 C 68.910156 36.359375 68.886719 36.3125 68.878906 36.300781 C 68.855469 36.261719 68.792969 36.195312 68.734375 36.132812 L 68.6875 36.085938 C 68.558594 35.949219 68.433594 35.808594 68.304688 35.667969 C 68 35.332031 67.710938 35.015625 67.402344 34.742188 C 67.234375 34.59375 67.050781 34.472656 66.859375 34.386719 C 66.78125 34.351562 66.691406 34.320312 66.585938 34.285156 C 66.449219 34.242188 66.292969 34.191406 66.128906 34.113281 C 65.988281 34.046875 65.78125 34 65.519531 33.964844 C 65.5 33.964844 65.484375 33.964844 65.46875 33.964844 C 65.335938 33.964844 65.15625 33.980469 65.039062 34.0625 C 64.757812 34.261719 64.488281 34.519531 64.246094 34.824219 C 63.746094 35.445312 63.445312 36.171875 63.320312 37.050781 C 63.308594 37.132812 63.292969 37.21875 63.28125 37.300781 C 63.257812 37.433594 63.230469 37.582031 63.234375 37.660156 L 63.242188 37.777344 C 63.25 37.972656 63.261719 38.152344 63.28125 38.324219 C 63.292969 38.410156 63.300781 38.492188 63.3125 38.574219 C 63.324219 38.703125 63.339844 38.828125 63.355469 38.949219 C 63.453125 39.203125 63.566406 39.53125 63.585938 39.890625 C 63.832031 40.570312 64.179688 41.253906 64.675781 42.027344 C 64.96875 42.484375 65.222656 42.855469 65.472656 43.191406 L 65.484375 43.203125 C 65.742188 43.488281 65.984375 43.785156 66.222656 44.070312 C 66.289062 44.15625 66.359375 44.242188 66.429688 44.324219 L 66.578125 44.492188 C 67.066406 45.027344 67.527344 45.535156 68.027344 45.996094 C 68.210938 46.160156 68.371094 46.328125 68.523438 46.492188 C 68.6875 46.667969 68.839844 46.828125 68.996094 46.960938 C 69.09375 47.046875 69.183594 47.132812 69.277344 47.214844 C 69.363281 47.191406 69.449219 47.171875 69.535156 47.160156 C 70.289062 47.042969 71.332031 47.347656 71.535156 48.191406 C 71.554688 48.285156 71.570312 48.375 71.578125 48.46875 C 71.617188 48.441406 71.652344 48.410156 71.6875 48.378906 C 71.785156 48.296875 71.878906 48.226562 71.96875 48.164062 C 71.742188 47.449219 71.605469 46.679688 71.753906 46.058594 C 71.953125 45.234375 72.988281 45.046875 73.734375 45.242188 C 74.097656 45.339844 74.460938 45.535156 74.816406 45.726562 C 74.847656 45.695312 74.882812 45.664062 74.914062 45.632812 C 75.042969 45.519531 75.171875 45.398438 75.316406 45.277344 C 75.382812 45.222656 75.445312 45.175781 75.511719 45.125 C 75.5625 45.085938 75.609375 45.050781 75.65625 45.011719 C 75.667969 45 75.683594 44.988281 75.695312 44.972656 Z M 73.757812 46.679688 C 73.890625 46.554688 74.027344 46.429688 74.164062 46.308594 C 74.15625 46.304688 74.148438 46.300781 74.140625 46.296875 C 73.359375 45.929688 72.472656 45.847656 72.574219 46.929688 C 72.597656 47.15625 72.636719 47.386719 72.691406 47.617188 C 72.699219 47.613281 72.707031 47.605469 72.714844 47.601562 C 72.734375 47.589844 72.753906 47.582031 72.769531 47.566406 C 72.839844 47.515625 72.921875 47.4375 73.003906 47.363281 L 73.097656 47.28125 C 73.320312 47.085938 73.542969 46.878906 73.757812 46.679688 Z M 61.953125 40.019531 C 61.945312 39.980469 61.9375 39.941406 61.929688 39.898438 C 61.9375 39.941406 61.945312 39.980469 61.953125 40.019531 Z M 61.90625 39.789062 C 61.898438 39.742188 61.890625 39.691406 61.882812 39.644531 C 61.890625 39.691406 61.898438 39.742188 61.90625 39.789062 Z M 82.523438 49.867188 C 82.304688 50.285156 82.054688 50.6875 81.867188 51.070312 C 81.507812 51.796875 81.15625 52.554688 80.664062 53.199219 C 80.140625 53.886719 79.457031 54.449219 78.632812 54.75 C 77.730469 55.085938 76.992188 54.796875 76.15625 54.261719 C 74.644531 53.296875 73.507812 51.585938 72.710938 49.953125 C 72.660156 50.003906 72.613281 50.050781 72.566406 50.09375 C 72.148438 50.480469 71.761719 50.6875 71.386719 50.734375 C 71.339844 50.738281 71.296875 50.742188 71.246094 50.742188 C 71.214844 50.742188 71.183594 50.738281 71.148438 50.738281 C 71.066406 50.941406 70.984375 51.136719 70.898438 51.3125 C 70.089844 53.046875 68.835938 54.996094 67.089844 55.914062 C 66.242188 56.355469 65.496094 56.5625 64.585938 56.128906 C 63.753906 55.734375 63.0625 55.097656 62.53125 54.351562 C 62.039062 53.65625 61.679688 52.859375 61.316406 52.089844 C 60.914062 51.238281 60.238281 50.25 60.117188 49.3125 C 60.074219 48.988281 60.628906 48.921875 60.683594 49.238281 C 60.773438 49.753906 61.207031 50.402344 61.433594 50.886719 C 61.617188 51.277344 61.820312 51.652344 62.011719 52.035156 C 62.386719 52.785156 62.703125 53.570312 63.21875 54.242188 C 63.898438 55.128906 65.082031 56.027344 66.21875 55.507812 C 67.140625 55.085938 67.765625 54.402344 68.40625 53.644531 C 69.125 52.800781 69.691406 51.890625 70.160156 50.878906 C 70.230469 50.722656 70.296875 50.566406 70.359375 50.402344 C 70.3125 50.367188 70.269531 50.335938 70.234375 50.300781 C 70.160156 50.273438 70.09375 50.234375 70.023438 50.191406 C 69.957031 50.148438 69.902344 50.101562 69.847656 50.050781 C 69.789062 50.011719 69.714844 49.964844 69.644531 49.902344 C 69.570312 49.84375 69.5 49.777344 69.429688 49.710938 C 69.398438 49.683594 69.367188 49.652344 69.335938 49.625 C 69.285156 49.578125 69.234375 49.53125 69.1875 49.480469 C 69.152344 49.449219 69.117188 49.414062 69.082031 49.382812 C 68.949219 49.253906 68.796875 49.128906 68.640625 49 C 68.464844 48.851562 68.285156 48.703125 68.109375 48.53125 C 67.535156 48.742188 66.964844 48.960938 66.40625 49.203125 C 65.921875 49.414062 65.523438 49.628906 65.128906 49.992188 C 64.828125 50.269531 64.613281 50.578125 64.269531 50.800781 C 64.007812 50.972656 63.621094 50.617188 63.820312 50.351562 C 64.164062 49.898438 64.429688 49.429688 64.894531 49.078125 C 65.355469 48.726562 65.867188 48.527344 66.394531 48.289062 C 66.761719 48.121094 67.132812 47.996094 67.507812 47.871094 C 67.402344 47.746094 67.296875 47.621094 67.195312 47.5 C 67.039062 47.308594 66.886719 47.128906 66.730469 46.949219 C 66.449219 46.628906 66.167969 46.296875 65.898438 45.980469 C 65.386719 45.378906 64.859375 44.757812 64.316406 44.179688 C 63.945312 43.78125 63.550781 43.347656 63.238281 42.816406 C 63.15625 42.679688 63.070312 42.542969 62.984375 42.402344 C 62.761719 42.042969 62.527344 41.671875 62.347656 41.261719 C 62.195312 40.914062 62.074219 40.542969 61.980469 40.132812 C 61.679688 40.839844 61.429688 41.542969 61.308594 41.824219 C 60.8125 42.96875 60.363281 44.125 60.074219 45.34375 C 59.394531 48.230469 59.109375 51.394531 59.082031 54.359375 C 59.066406 56.480469 59.339844 58.632812 59.765625 60.789062 C 60.203125 60.652344 60.695312 60.605469 61.128906 60.46875 C 61.453125 60.367188 61.777344 60.246094 62.089844 60.113281 C 62.355469 59.996094 62.605469 59.828125 62.902344 59.847656 C 63.160156 59.867188 63.21875 60.15625 63.027344 60.304688 C 62.472656 60.734375 61.796875 61.003906 61.171875 61.316406 C 60.800781 61.5 60.367188 61.722656 59.957031 61.738281 C 60.085938 62.328125 60.222656 62.921875 60.367188 63.511719 C 60.871094 63.339844 61.394531 63.117188 61.867188 62.914062 C 62.589844 62.605469 63.125 62.148438 63.75 61.695312 C 63.988281 61.523438 64.261719 61.898438 64.058594 62.09375 C 63.453125 62.675781 62.914062 63.152344 62.164062 63.554688 C 61.65625 63.824219 61.121094 64.152344 60.582031 64.378906 C 60.808594 65.277344 61.046875 66.171875 61.289062 67.066406 C 61.367188 67.152344 61.402344 67.285156 61.378906 67.402344 C 61.617188 68.28125 61.855469 69.160156 62.082031 70.027344 C 62.488281 71.578125 62.910156 73.125 63.386719 74.65625 C 63.75 75.820312 63.972656 77.554688 65.039062 78.125 C 67.828125 79.621094 68.769531 74.355469 69.917969 72.992188 C 69.417969 72.882812 67.847656 72.476562 67.679688 71.917969 C 67.378906 70.9375 68.46875 71.609375 68.875 71.78125 C 70.449219 72.4375 72.476562 72.40625 74.09375 71.921875 C 74.636719 71.761719 77.027344 69.949219 77.269531 70.367188 C 77.800781 71.296875 74.597656 72.558594 74.117188 72.679688 C 74.769531 74.0625 74.957031 75.757812 75.53125 77.191406 C 76.28125 79.078125 77.746094 78.152344 78.417969 76.675781 C 80.019531 73.160156 80.515625 69.523438 81.113281 65.765625 C 81.207031 65.171875 81.289062 64.574219 81.359375 63.980469 C 80.585938 63.660156 79.914062 63.148438 79.269531 62.613281 C 78.648438 62.097656 77.980469 61.558594 77.605469 60.824219 C 77.507812 60.636719 77.757812 60.417969 77.910156 60.589844 C 78.894531 61.707031 80.128906 62.496094 81.457031 63.121094 C 81.535156 62.425781 81.601562 61.726562 81.667969 61.027344 C 80.210938 60.578125 78.730469 59.675781 77.71875 58.558594 C 77.585938 58.410156 77.761719 58.144531 77.941406 58.269531 C 78.597656 58.714844 79.265625 59.199219 79.972656 59.5625 C 80.535156 59.847656 81.160156 59.933594 81.757812 60.105469 C 81.796875 59.679688 81.835938 59.253906 81.882812 58.824219 C 82.042969 57.242188 82.4375 55.523438 82.566406 53.78125 C 82.660156 52.46875 82.640625 51.164062 82.523438 49.867188 Z M 60.140625 67.4375 C 60.046875 67.050781 59.957031 66.664062 59.867188 66.277344 C 59.765625 66.328125 59.664062 66.375 59.558594 66.410156 C 59.125 66.554688 58.65625 66.683594 58.203125 66.753906 C 57.320312 66.890625 56.441406 66.847656 55.5625 66.6875 C 53.71875 66.359375 51.980469 65.886719 50.261719 65.15625 C 49.503906 64.835938 48.824219 64.40625 48.171875 63.910156 C 47.578125 63.460938 46.902344 63.15625 46.328125 62.664062 C 45.648438 62.085938 45.371094 61.21875 44.730469 60.605469 C 44.214844 60.117188 43.566406 59.726562 43.007812 59.285156 C 42.523438 58.898438 42.066406 58.601562 41.414062 58.761719 C 41.011719 58.859375 40.589844 59.074219 40.285156 59.351562 C 39.691406 59.898438 39.6875 61.03125 39.882812 61.757812 C 40.117188 62.621094 40.625 63.394531 41.152344 64.09375 C 41.691406 64.816406 42.195312 65.566406 42.796875 66.238281 C 43.132812 66.613281 43.5625 66.855469 43.960938 67.144531 C 44.316406 67.40625 44.640625 67.707031 45.003906 67.953125 C 45.691406 68.414062 46.398438 68.878906 47.179688 69.175781 C 47.9375 69.464844 48.726562 69.785156 49.523438 69.957031 C 50.335938 70.128906 51.1875 70.035156 52.015625 70.039062 C 52.886719 70.039062 53.871094 70.191406 54.703125 69.867188 C 55.429688 69.578125 56.085938 69.214844 56.839844 68.96875 C 57.65625 68.699219 58.449219 68.339844 59.238281 68.015625 C 59.5625 67.882812 59.847656 67.652344 60.140625 67.4375 Z M 86.566406 38.027344 C 85.746094 38.328125 84.402344 37.777344 83.597656 37.613281 C 82.933594 37.480469 82.300781 37.371094 81.667969 37.363281 C 81.730469 38.164062 81.605469 38.984375 81.472656 39.71875 C 81.410156 40.058594 81.316406 40.398438 81.203125 40.726562 C 81.511719 41.5625 81.800781 42.402344 82.058594 43.195312 C 82.714844 45.191406 83.054688 47.320312 83.292969 49.402344 C 83.753906 53.449219 82.984375 57.511719 82.734375 61.554688 C 82.503906 65.375 82.117188 69.574219 80.957031 73.226562 C 80.402344 74.972656 78.273438 81.882812 75.230469 78.933594 C 74.199219 77.933594 73.839844 75.921875 73.441406 74.601562 C 73.378906 74.394531 73.152344 73.375 73.085938 73.308594 C 72.964844 73.191406 72.394531 73.289062 72.230469 73.253906 C 72.269531 73.261719 70.925781 73.082031 70.851562 73.144531 C 70.863281 73.132812 70.644531 74.066406 70.597656 74.1875 C 70.089844 75.539062 69.089844 77.429688 68.039062 78.441406 C 67.441406 79.015625 66.777344 79.324219 65.929688 79.25 C 65.585938 79.222656 65.277344 79.03125 64.953125 78.984375 C 64.65625 78.941406 64.441406 79.152344 64.175781 79.027344 C 62.921875 78.429688 62.5625 75.996094 62.164062 74.777344 C 61.609375 73.09375 61.101562 71.414062 60.679688 69.691406 C 60.558594 69.191406 60.4375 68.6875 60.316406 68.1875 C 60.230469 68.253906 60.148438 68.320312 60.070312 68.371094 C 59.699219 68.628906 59.265625 68.796875 58.84375 68.953125 C 57.84375 69.328125 56.757812 69.632812 55.792969 70.089844 C 55.335938 70.300781 54.949219 70.558594 54.445312 70.660156 C 54.03125 70.746094 53.609375 70.753906 53.191406 70.753906 C 52.132812 70.742188 51.007812 70.847656 49.957031 70.734375 C 49.089844 70.644531 48.28125 70.296875 47.464844 70.011719 C 46.691406 69.738281 45.976562 69.398438 45.273438 68.96875 C 43.746094 68.027344 42.363281 66.910156 41.3125 65.460938 C 40.308594 64.074219 38.992188 62.59375 39.078125 60.757812 C 39.109375 60.066406 39.25 59.320312 39.777344 58.84375 C 40.296875 58.371094 41.011719 57.996094 41.722656 57.96875 C 42.574219 57.9375 43.144531 58.464844 43.785156 58.949219 C 44.386719 59.40625 45.074219 59.816406 45.558594 60.40625 C 45.871094 60.78125 46.082031 61.222656 46.367188 61.613281 C 46.6875 62.054688 47.152344 62.382812 47.613281 62.667969 C 47.867188 62.824219 48.136719 62.917969 48.375 63.097656 C 48.785156 63.40625 49.175781 63.722656 49.617188 63.980469 C 51.242188 64.933594 53.160156 65.476562 54.996094 65.824219 C 56.097656 66.03125 57.179688 66.230469 58.300781 66.042969 C 58.789062 65.957031 59.25 65.769531 59.71875 65.621094 C 59.183594 63.269531 58.699219 60.898438 58.308594 58.53125 C 57.734375 55.050781 58.207031 51.535156 58.644531 48.0625 C 59.050781 44.855469 60.128906 41.785156 61.789062 39.015625 C 61.800781 39.113281 61.816406 39.207031 61.828125 39.296875 C 61.839844 39.386719 61.851562 39.46875 61.867188 39.550781 C 61.851562 39.46875 61.839844 39.386719 61.828125 39.296875 C 61.777344 38.929688 61.730469 38.53125 61.726562 38.117188 C 60.695312 38.175781 60.085938 38.878906 59.171875 39.46875 C 58.707031 39.769531 57.796875 40.328125 57.214844 39.964844 C 56.21875 39.339844 56.84375 37.367188 56.644531 36.402344 C 56.203125 34.253906 54.214844 35.128906 52.6875 34.707031 C 50.597656 34.128906 51.835938 32.523438 52.808594 31.472656 C 53.28125 30.964844 53.898438 30.503906 54.222656 29.875 C 54.691406 28.964844 54.582031 27.800781 54.75 26.8125 C 54.910156 25.875 55.125 24.917969 55.457031 24.023438 C 55.824219 23.039062 56.535156 22.097656 56.691406 21.039062 C 57.015625 18.859375 54.296875 12.78125 58.070312 12.148438 C 60.332031 11.765625 62.828125 13.378906 64.777344 14.257812 C 65.28125 14.484375 66.347656 15.203125 66.839844 15.300781 C 66.792969 15.292969 68.03125 15.101562 68.171875 15.09375 C 68.667969 15.058594 69.179688 15.058594 69.679688 15.046875 C 70.945312 15.019531 72.191406 15.085938 73.441406 15.277344 C 74.261719 15.40625 75.3125 15.859375 76.132812 15.546875 C 76.757812 15.304688 77.394531 14.539062 77.949219 14.175781 C 78.945312 13.527344 80.039062 13.050781 81.148438 12.628906 C 83.367188 11.78125 86.359375 10.71875 86.085938 14.15625 C 85.921875 16.257812 84.671875 18.660156 85.324219 20.753906 C 85.984375 22.855469 86.667969 25.34375 87.734375 27.285156 C 88.527344 28.730469 90.15625 29.179688 91.078125 30.46875 C 92.792969 32.871094 87.664062 32.648438 86.578125 33.460938 C 85.277344 34.4375 89.226562 37.058594 86.566406 38.027344 Z M 75.378906 29.597656 C 74.753906 30.058594 74.316406 30.722656 73.523438 30.945312 C 72.257812 31.300781 71.972656 30.171875 71.8125 29.183594 C 71.8125 29.1875 71.8125 29.1875 71.816406 29.1875 C 72.488281 29.1875 73.128906 28.367188 73.164062 27.738281 C 73.226562 26.664062 71.925781 26.546875 71.140625 26.632812 C 70.496094 26.703125 69.394531 27.195312 69.910156 28.039062 C 70.03125 28.242188 70.226562 28.375 70.429688 28.503906 C 70.488281 28.566406 70.554688 28.628906 70.609375 28.683594 C 70.738281 28.808594 70.90625 28.890625 71.058594 28.984375 C 71.132812 29.027344 71.203125 29.070312 71.28125 29.105469 C 71.183594 29.902344 71.074219 30.816406 70.183594 30.992188 C 69.84375 31.058594 69.394531 31.046875 69.066406 30.925781 C 68.601562 30.75 68.273438 30.335938 67.828125 30.132812 C 67.664062 30.058594 67.390625 30.1875 67.480469 30.40625 C 67.957031 31.609375 69.265625 32.117188 70.472656 31.695312 C 71.03125 31.5 71.382812 31.097656 71.582031 30.613281 C 71.824219 31.15625 72.265625 31.574219 72.949219 31.648438 C 73.921875 31.757812 75.726562 30.980469 75.734375 29.800781 C 75.734375 29.632812 75.527344 29.488281 75.378906 29.597656 Z M 67.984375 26.109375 C 68.070312 25.898438 68.09375 25.671875 68.070312 25.457031 C 68.226562 24.957031 68.242188 24.425781 67.832031 24.03125 C 67.417969 23.632812 66.679688 23.542969 66.25 23.96875 C 65.660156 24.550781 65.78125 25.59375 66.082031 26.273438 C 66.347656 26.878906 66.988281 27.03125 67.425781 26.648438 C 67.667969 26.582031 67.882812 26.367188 67.984375 26.109375 Z M 77.054688 25.457031 C 77.082031 25.671875 77.058594 25.898438 76.972656 26.109375 C 76.871094 26.367188 76.65625 26.582031 76.414062 26.648438 C 75.976562 27.03125 75.335938 26.878906 75.070312 26.273438 C 74.769531 25.59375 74.648438 24.550781 75.238281 23.96875 C 75.667969 23.542969 76.40625 23.632812 76.820312 24.03125 C 77.230469 24.425781 77.214844 24.957031 77.054688 25.457031 " fill-opacity="1" fill-rule="nonzero"/></g><g fill="#000000" fill-opacity="1"><g transform="translate(39.757044, 96.515685)"><g><path d="M 8.714844 -0.390625 C 9.464844 -0.390625 9.855469 -0.585938 10.382812 -1.113281 C 10.410156 -1.140625 10.4375 -1.195312 10.46875 -1.226562 C 10.46875 -1.253906 10.496094 -1.308594 10.523438 -1.335938 C 10.605469 -1.53125 10.578125 -1.640625 10.46875 -1.726562 C 10.382812 -1.753906 10.300781 -1.78125 10.160156 -1.78125 C 10.078125 -1.753906 10.023438 -1.726562 9.9375 -1.640625 C 9.910156 -1.613281 9.882812 -1.585938 9.882812 -1.558594 C 9.855469 -1.53125 9.828125 -1.476562 9.800781 -1.449219 C 9.519531 -1.03125 9.1875 -0.835938 8.824219 -0.835938 C 7.851562 -0.835938 6.710938 -2.171875 6.261719 -3.0625 L 4.957031 -5.484375 C 4.398438 -6.597656 3.785156 -7.765625 2.699219 -8.460938 C 2.617188 -8.519531 2.617188 -8.601562 2.671875 -8.6875 C 2.699219 -8.769531 2.757812 -8.851562 2.8125 -8.9375 C 2.867188 -9.019531 2.921875 -9.101562 2.980469 -9.1875 C 3.839844 -10.496094 4.84375 -11.71875 5.875 -12.917969 C 6.988281 -14.226562 8.074219 -15.535156 9.160156 -16.898438 L 9.382812 -17.230469 C 9.410156 -17.316406 9.410156 -17.371094 9.324219 -17.453125 C 9.242188 -17.539062 9.132812 -17.59375 9.019531 -17.59375 C 8.9375 -17.59375 8.851562 -17.539062 8.769531 -17.453125 L 8.433594 -17.039062 C 7.40625 -15.617188 6.292969 -14.335938 5.179688 -13 C 4.09375 -11.746094 3.089844 -10.523438 2.199219 -9.101562 C 2.117188 -8.992188 2.058594 -8.910156 2.003906 -8.851562 C 1.976562 -8.824219 1.921875 -8.796875 1.894531 -8.769531 L 1.835938 -8.769531 C 1.835938 -8.796875 1.835938 -8.796875 1.808594 -8.824219 C 1.808594 -8.910156 1.808594 -8.992188 1.835938 -9.019531 L 2.589844 -13 C 2.839844 -14.199219 2.949219 -15.449219 2.949219 -16.730469 L 2.949219 -16.980469 C 2.867188 -17.34375 2.503906 -17.707031 2.144531 -17.707031 C 2.003906 -17.707031 1.835938 -17.621094 1.671875 -17.484375 C 1.085938 -17.007812 0.140625 -15.671875 -0.140625 -14.949219 C -0.167969 -14.894531 -0.167969 -14.808594 -0.167969 -14.699219 C -0.140625 -14.558594 -0.0273438 -14.476562 0.113281 -14.476562 C 0.195312 -14.476562 0.25 -14.503906 0.277344 -14.558594 C 0.585938 -15.253906 1.085938 -15.8125 1.558594 -16.367188 C 1.613281 -16.453125 1.699219 -16.535156 1.78125 -16.589844 C 1.808594 -16.621094 1.863281 -16.621094 1.894531 -16.589844 C 1.894531 -16.589844 1.921875 -16.5625 1.976562 -16.507812 C 1.976562 -16.425781 1.976562 -16.339844 1.949219 -16.3125 C 1.921875 -16.035156 1.894531 -15.757812 1.863281 -15.507812 C 1.835938 -15.226562 1.78125 -14.949219 1.753906 -14.671875 C 1.390625 -12.804688 1.03125 -11.023438 0.695312 -9.160156 C 0.5 -8.269531 0.335938 -7.347656 0.195312 -6.457031 C 0.113281 -5.816406 0.0273438 -5.234375 -0.167969 -4.59375 C -0.222656 -4.398438 -0.277344 -4.175781 -0.304688 -3.980469 C -0.335938 -3.785156 -0.363281 -3.5625 -0.390625 -3.367188 C -0.417969 -3.3125 -0.417969 -3.230469 -0.417969 -3.117188 C -0.417969 -2.8125 -0.167969 -2.617188 0.140625 -2.617188 C 0.335938 -2.617188 0.5 -2.726562 0.585938 -2.980469 L 0.835938 -3.8125 C 0.972656 -4.480469 1.113281 -5.121094 1.195312 -5.789062 C 1.28125 -6.402344 1.476562 -6.960938 1.808594 -7.433594 C 1.949219 -7.628906 2.03125 -7.738281 2.144531 -7.933594 C 2.199219 -7.988281 2.253906 -8.015625 2.28125 -8.046875 C 2.3125 -8.074219 2.339844 -8.074219 2.421875 -8.074219 C 2.949219 -7.542969 3.339844 -6.792969 3.648438 -6.097656 C 4.203125 -4.675781 4.925781 -3.285156 5.789062 -2.03125 C 6.207031 -1.476562 6.765625 -1.03125 7.40625 -0.722656 C 7.824219 -0.5 8.269531 -0.417969 8.714844 -0.390625 Z M 8.714844 -0.390625 "/></g></g></g><g fill="#000000" fill-opacity="1"><g transform="translate(46.632812, 96.515685)"><g><path d="M 0.722656 -3.144531 C 1.085938 -3.144531 1.417969 -3.394531 1.671875 -3.617188 C 2.199219 -4.175781 2.671875 -4.761719 3.089844 -5.402344 C 3.339844 -5.816406 3.589844 -6.234375 3.839844 -6.652344 C 4.09375 -7.042969 4.34375 -7.433594 4.59375 -7.851562 L 4.816406 -8.269531 C 4.898438 -8.378906 4.761719 -8.546875 4.621094 -8.574219 C 4.59375 -8.601562 4.539062 -8.601562 4.453125 -8.601562 C 4.34375 -8.601562 4.230469 -8.546875 4.121094 -8.40625 C 4.035156 -8.296875 3.980469 -8.183594 3.925781 -8.101562 C 3.871094 -7.988281 3.8125 -7.878906 3.730469 -7.792969 L 2.699219 -6.039062 L 2.058594 -5.121094 C 1.835938 -4.816406 1.558594 -4.566406 1.253906 -4.257812 C 1.226562 -4.230469 1.195312 -4.230469 1.167969 -4.203125 C 1.140625 -4.175781 1.113281 -4.175781 1.085938 -4.148438 C 1.058594 -4.121094 1.03125 -4.121094 0.972656 -4.121094 C 0.890625 -4.148438 0.863281 -4.175781 0.863281 -4.257812 C 0.890625 -4.511719 0.917969 -4.734375 0.945312 -4.957031 C 0.972656 -5.179688 1.003906 -5.402344 1.03125 -5.625 C 1.167969 -6.375 1.335938 -7.042969 1.53125 -7.792969 L 1.699219 -8.492188 C 1.726562 -8.65625 1.699219 -8.769531 1.558594 -8.824219 C 1.417969 -8.910156 1.335938 -8.9375 1.335938 -8.9375 L 1.253906 -8.9375 C 1.03125 -8.9375 0.917969 -8.769531 0.835938 -8.574219 C 0.140625 -7.238281 -0.195312 -5.847656 -0.195312 -4.425781 C -0.195312 -4.316406 -0.195312 -4.203125 -0.195312 -4.09375 C -0.195312 -3.980469 -0.167969 -3.871094 -0.140625 -3.785156 C -0.0546875 -3.367188 0.304688 -3.144531 0.722656 -3.144531 Z M 1.976562 -10.4375 C 2.058594 -10.4375 2.144531 -10.4375 2.171875 -10.4375 C 2.199219 -10.4375 2.253906 -10.46875 2.339844 -10.496094 C 2.535156 -10.632812 2.617188 -10.996094 2.476562 -11.191406 C 2.394531 -11.273438 2.3125 -11.386719 2.226562 -11.523438 C 2.117188 -11.664062 1.976562 -11.71875 1.835938 -11.71875 C 1.699219 -11.71875 1.585938 -11.664062 1.53125 -11.554688 C 1.449219 -11.386719 1.417969 -11.191406 1.417969 -10.96875 C 1.417969 -10.773438 1.503906 -10.605469 1.699219 -10.523438 C 1.753906 -10.496094 1.808594 -10.46875 1.863281 -10.46875 C 1.894531 -10.46875 1.949219 -10.46875 1.976562 -10.4375 Z M 1.976562 -10.4375 "/></g></g></g><g fill="#000000" fill-opacity="1"><g transform="translate(50.084618, 96.515685)"><g><path d="M 0.0546875 0.945312 C 0.527344 0.945312 0.835938 0.890625 1.140625 0.472656 L 1.308594 0.277344 C 1.835938 -0.472656 2.339844 -1.195312 2.757812 -1.976562 C 2.894531 -2.28125 3.035156 -2.535156 3.230469 -2.839844 L 4.148438 -4.425781 C 4.453125 -5.011719 4.789062 -5.566406 5.09375 -6.152344 C 5.402344 -6.710938 5.734375 -7.292969 6.039062 -7.878906 C 6.097656 -7.960938 6.152344 -8.074219 6.234375 -8.210938 C 6.261719 -8.351562 6.234375 -8.433594 6.125 -8.492188 C 6.039062 -8.546875 5.984375 -8.574219 5.902344 -8.574219 C 5.847656 -8.574219 5.789062 -8.546875 5.761719 -8.519531 L 5.566406 -8.269531 L 4.648438 -6.597656 C 4.425781 -6.234375 4.230469 -5.875 4.007812 -5.457031 C 3.589844 -4.761719 3.203125 -4.035156 2.8125 -3.339844 C 2.394531 -2.617188 1.976562 -1.894531 1.558594 -1.195312 C 1.335938 -0.835938 1.058594 -0.472656 0.808594 -0.140625 C 0.78125 -0.0820312 0.722656 -0.0273438 0.695312 0.0546875 C 0.667969 0.113281 0.613281 0.140625 0.527344 0.113281 C 0.445312 0.0820312 0.390625 0.0273438 0.390625 -0.0546875 C 0.363281 -0.140625 0.363281 -0.195312 0.335938 -0.277344 C 0.335938 -2.921875 1.03125 -5.484375 1.78125 -7.960938 C 1.863281 -8.128906 2.8125 -11.21875 2.949219 -11.359375 C 3.007812 -11.441406 3.0625 -11.496094 3.144531 -11.554688 C 3.675781 -11.832031 6.488281 -12.25 7.183594 -12.332031 C 7.851562 -12.414062 8.574219 -12.5 9.214844 -12.722656 C 9.269531 -12.75 9.324219 -12.804688 9.355469 -12.890625 C 9.410156 -13.027344 9.382812 -13.195312 9.242188 -13.363281 C 9.1875 -13.417969 9.132812 -13.445312 9.046875 -13.445312 L 7.570312 -13.167969 C 7.210938 -13.113281 6.875 -13.054688 6.515625 -13 C 6.152344 -12.945312 5.816406 -12.890625 5.457031 -12.804688 C 5.148438 -12.777344 4.871094 -12.722656 4.59375 -12.667969 C 4.289062 -12.582031 4.007812 -12.527344 3.730469 -12.5 C 3.675781 -12.472656 3.617188 -12.472656 3.535156 -12.472656 C 3.480469 -12.527344 3.453125 -12.554688 3.453125 -12.582031 C 3.453125 -12.636719 3.480469 -12.75 3.507812 -12.890625 C 3.617188 -13.195312 3.730469 -13.53125 3.839844 -13.835938 C 3.925781 -14.140625 4.035156 -14.449219 4.148438 -14.753906 C 4.175781 -14.894531 4.203125 -15.03125 4.203125 -15.144531 C 4.230469 -15.199219 4.203125 -15.253906 4.148438 -15.3125 C 4.0625 -15.449219 3.925781 -15.535156 3.785156 -15.535156 C 3.425781 -15.535156 3.171875 -14.726562 2.980469 -14.449219 C 2.671875 -13.863281 2.421875 -13.308594 2.171875 -12.667969 C 1.808594 -11.96875 1.976562 -12.136719 1.226562 -11.914062 C 1.195312 -11.886719 1.167969 -11.886719 1.113281 -11.886719 C 0.75 -11.804688 0.417969 -11.691406 0.0820312 -11.609375 C -0.25 -11.523438 -0.585938 -11.414062 -0.917969 -11.332031 C -0.972656 -11.300781 -1.03125 -11.300781 -1.085938 -11.273438 C -1.140625 -11.246094 -1.195312 -11.191406 -1.28125 -11.164062 C -1.308594 -11.136719 -1.308594 -11.109375 -1.308594 -11.050781 C -1.28125 -10.914062 -1.140625 -10.746094 -1.03125 -10.746094 C -0.945312 -10.71875 -0.890625 -10.71875 -0.835938 -10.71875 C -0.75 -10.71875 -0.695312 -10.71875 -0.640625 -10.71875 C -0.445312 -10.746094 -0.277344 -10.800781 -0.113281 -10.828125 C 0.0546875 -10.855469 0.222656 -10.914062 0.390625 -10.941406 C 0.527344 -10.96875 0.667969 -11.023438 0.808594 -11.050781 C 0.945312 -11.078125 1.085938 -11.109375 1.226562 -11.136719 L 1.28125 -11.136719 C 1.476562 -11.136719 1.558594 -11.050781 1.476562 -10.886719 C 1.449219 -10.746094 1.390625 -10.605469 1.335938 -10.46875 C 1.28125 -10.328125 1.226562 -10.214844 1.195312 -10.078125 C 0.167969 -7.070312 -0.527344 -4.121094 -0.835938 -0.972656 C -0.835938 -0.613281 -0.808594 -0.277344 -0.722656 0.0820312 C -0.613281 0.5 -0.417969 0.863281 0.0546875 0.945312 Z M 0.0546875 0.945312 "/></g></g></g><g fill="#000000" fill-opacity="1"><g transform="translate(54.8726, 96.515685)"><g><path d="M 0.0546875 0.945312 C 0.527344 0.945312 0.835938 0.890625 1.140625 0.472656 L 1.308594 0.277344 C 1.835938 -0.472656 2.339844 -1.195312 2.757812 -1.976562 C 2.894531 -2.28125 3.035156 -2.535156 3.230469 -2.839844 L 4.148438 -4.425781 C 4.453125 -5.011719 4.789062 -5.566406 5.09375 -6.152344 C 5.402344 -6.710938 5.734375 -7.292969 6.039062 -7.878906 C 6.097656 -7.960938 6.152344 -8.074219 6.234375 -8.210938 C 6.261719 -8.351562 6.234375 -8.433594 6.125 -8.492188 C 6.039062 -8.546875 5.984375 -8.574219 5.902344 -8.574219 C 5.847656 -8.574219 5.789062 -8.546875 5.761719 -8.519531 L 5.566406 -8.269531 L 4.648438 -6.597656 C 4.425781 -6.234375 4.230469 -5.875 4.007812 -5.457031 C 3.589844 -4.761719 3.203125 -4.035156 2.8125 -3.339844 C 2.394531 -2.617188 1.976562 -1.894531 1.558594 -1.195312 C 1.335938 -0.835938 1.058594 -0.472656 0.808594 -0.140625 C 0.78125 -0.0820312 0.722656 -0.0273438 0.695312 0.0546875 C 0.667969 0.113281 0.613281 0.140625 0.527344 0.113281 C 0.445312 0.0820312 0.390625 0.0273438 0.390625 -0.0546875 C 0.363281 -0.140625 0.363281 -0.195312 0.335938 -0.277344 C 0.335938 -2.921875 1.03125 -5.484375 1.78125 -7.960938 C 1.863281 -8.128906 2.8125 -11.21875 2.949219 -11.359375 C 3.007812 -11.441406 3.0625 -11.496094 3.144531 -11.554688 C 3.675781 -11.832031 6.488281 -12.25 7.183594 -12.332031 C 7.851562 -12.414062 8.574219 -12.5 9.214844 -12.722656 C 9.269531 -12.75 9.324219 -12.804688 9.355469 -12.890625 C 9.410156 -13.027344 9.382812 -13.195312 9.242188 -13.363281 C 9.1875 -13.417969 9.132812 -13.445312 9.046875 -13.445312 L 7.570312 -13.167969 C 7.210938 -13.113281 6.875 -13.054688 6.515625 -13 C 6.152344 -12.945312 5.816406 -12.890625 5.457031 -12.804688 C 5.148438 -12.777344 4.871094 -12.722656 4.59375 -12.667969 C 4.289062 -12.582031 4.007812 -12.527344 3.730469 -12.5 C 3.675781 -12.472656 3.617188 -12.472656 3.535156 -12.472656 C 3.480469 -12.527344 3.453125 -12.554688 3.453125 -12.582031 C 3.453125 -12.636719 3.480469 -12.75 3.507812 -12.890625 C 3.617188 -13.195312 3.730469 -13.53125 3.839844 -13.835938 C 3.925781 -14.140625 4.035156 -14.449219 4.148438 -14.753906 C 4.175781 -14.894531 4.203125 -15.03125 4.203125 -15.144531 C 4.230469 -15.199219 4.203125 -15.253906 4.148438 -15.3125 C 4.0625 -15.449219 3.925781 -15.535156 3.785156 -15.535156 C 3.425781 -15.535156 3.171875 -14.726562 2.980469 -14.449219 C 2.671875 -13.863281 2.421875 -13.308594 2.171875 -12.667969 C 1.808594 -11.96875 1.976562 -12.136719 1.226562 -11.914062 C 1.195312 -11.886719 1.167969 -11.886719 1.113281 -11.886719 C 0.75 -11.804688 0.417969 -11.691406 0.0820312 -11.609375 C -0.25 -11.523438 -0.585938 -11.414062 -0.917969 -11.332031 C -0.972656 -11.300781 -1.03125 -11.300781 -1.085938 -11.273438 C -1.140625 -11.246094 -1.195312 -11.191406 -1.28125 -11.164062 C -1.308594 -11.136719 -1.308594 -11.109375 -1.308594 -11.050781 C -1.28125 -10.914062 -1.140625 -10.746094 -1.03125 -10.746094 C -0.945312 -10.71875 -0.890625 -10.71875 -0.835938 -10.71875 C -0.75 -10.71875 -0.695312 -10.71875 -0.640625 -10.71875 C -0.445312 -10.746094 -0.277344 -10.800781 -0.113281 -10.828125 C 0.0546875 -10.855469 0.222656 -10.914062 0.390625 -10.941406 C 0.527344 -10.96875 0.667969 -11.023438 0.808594 -11.050781 C 0.945312 -11.078125 1.085938 -11.109375 1.226562 -11.136719 L 1.28125 -11.136719 C 1.476562 -11.136719 1.558594 -11.050781 1.476562 -10.886719 C 1.449219 -10.746094 1.390625 -10.605469 1.335938 -10.46875 C 1.28125 -10.328125 1.226562 -10.214844 1.195312 -10.078125 C 0.167969 -7.070312 -0.527344 -4.121094 -0.835938 -0.972656 C -0.835938 -0.613281 -0.808594 -0.277344 -0.722656 0.0820312 C -0.613281 0.5 -0.417969 0.863281 0.0546875 0.945312 Z M 0.0546875 0.945312 "/></g></g></g><g fill="#000000" fill-opacity="1"><g transform="translate(59.660581, 96.515685)"><g><path d="M 0.78125 2.3125 C 1.753906 2.199219 2.339844 1.613281 2.699219 0.75 C 3.480469 -0.917969 3.980469 -2.589844 4.289062 -4.398438 C 4.316406 -4.621094 4.398438 -4.789062 4.539062 -4.925781 C 5.011719 -5.457031 5.484375 -5.957031 5.957031 -6.488281 C 6.429688 -7.015625 6.902344 -7.515625 7.40625 -7.988281 L 7.65625 -8.269531 C 7.738281 -8.351562 7.65625 -8.519531 7.570312 -8.546875 C 7.488281 -8.601562 7.40625 -8.628906 7.265625 -8.628906 C 7.125 -8.628906 6.988281 -8.574219 6.902344 -8.460938 C 6.347656 -7.824219 5.789062 -7.238281 5.207031 -6.652344 C 5.066406 -6.515625 4.925781 -6.375 4.789062 -6.261719 C 4.761719 -6.234375 4.703125 -6.234375 4.648438 -6.261719 C 4.648438 -6.261719 4.648438 -6.292969 4.621094 -6.320312 L 4.621094 -6.625 C 4.734375 -7.542969 4.871094 -8.460938 5.011719 -9.355469 L 5.011719 -9.828125 L 4.925781 -9.992188 C 4.816406 -10.132812 4.675781 -10.214844 4.480469 -10.214844 C 4.34375 -10.214844 4.230469 -10.160156 4.148438 -10.050781 L 3.394531 -9.046875 C 3.0625 -8.574219 2.726562 -8.128906 2.394531 -7.738281 C 2.3125 -7.65625 2.226562 -7.542969 2.144531 -7.460938 C 2.058594 -7.378906 1.949219 -7.265625 1.863281 -7.183594 C 1.78125 -7.15625 1.726562 -7.125 1.671875 -7.125 C 1.640625 -7.125 1.585938 -7.265625 1.613281 -7.347656 C 1.613281 -7.433594 1.640625 -7.542969 1.671875 -7.683594 L 1.921875 -8.546875 C 1.949219 -8.65625 1.976562 -8.769531 2.003906 -8.878906 C 2.03125 -8.992188 2.03125 -9.101562 2.058594 -9.1875 C 2.058594 -9.269531 2.03125 -9.355469 2.003906 -9.4375 C 1.808594 -9.632812 1.671875 -9.660156 1.417969 -9.660156 C 1.335938 -9.632812 1.28125 -9.578125 1.253906 -9.546875 C 0.972656 -9.410156 0.417969 -7.542969 0.417969 -7.183594 C 0.304688 -6.488281 0.640625 -6.234375 1.058594 -6.039062 C 1.140625 -6.011719 1.253906 -5.957031 1.363281 -5.929688 C 1.503906 -5.929688 1.613281 -5.957031 1.753906 -5.984375 C 1.949219 -6.070312 2.117188 -6.207031 2.226562 -6.347656 L 3.035156 -7.292969 C 3.117188 -7.40625 3.230469 -7.515625 3.3125 -7.65625 C 3.394531 -7.765625 3.480469 -7.878906 3.5625 -8.015625 C 3.648438 -8.101562 3.703125 -8.101562 3.730469 -8.074219 C 3.757812 -8.046875 3.757812 -8.046875 3.757812 -8.015625 C 3.757812 -7.988281 3.757812 -7.933594 3.785156 -7.90625 C 3.785156 -7.878906 3.785156 -7.851562 3.757812 -7.851562 C 3.5625 -6.765625 3.394531 -5.707031 3.171875 -4.621094 C 3.144531 -4.480469 3.089844 -4.371094 3.007812 -4.289062 C 2.921875 -4.148438 2.8125 -4.035156 2.699219 -3.925781 C 2.339844 -3.507812 2.003906 -3.117188 1.640625 -2.699219 C 1.28125 -2.28125 0.945312 -1.863281 0.585938 -1.449219 C 0.167969 -1.003906 -0.335938 -0.195312 -0.527344 0.390625 C -0.667969 0.917969 -0.585938 1.335938 -0.363281 1.78125 C -0.0546875 2.199219 0.25 2.3125 0.78125 2.3125 Z M 0.527344 1.835938 C 0.304688 1.753906 0.25 1.503906 0.167969 1.308594 C 0.140625 1.226562 0.140625 1.167969 0.140625 1.113281 C 0.140625 1.058594 0.140625 1.03125 0.140625 1.003906 C 0.140625 0.0820312 1.921875 -2.367188 2.699219 -2.757812 C 2.785156 -2.757812 2.785156 -2.671875 2.757812 -2.535156 C 2.757812 -2.503906 2.757812 -2.503906 2.726562 -2.476562 C 2.367188 -1.28125 1.753906 0.835938 1.058594 1.53125 C 0.863281 1.726562 0.78125 1.835938 0.527344 1.835938 Z M 0.527344 1.835938 "/></g></g></g><g fill="#000000" fill-opacity="1"><g transform="translate(65.951772, 96.515685)"><g/></g></g><g fill="#000000" fill-opacity="1"><g transform="translate(73.189417, 96.515685)"><g><path d="M 1.03125 -2.671875 C 1.558594 -2.671875 1.921875 -3.007812 2.253906 -3.339844 C 2.699219 -3.757812 3.0625 -4.203125 3.480469 -4.734375 L 5.761719 -7.765625 C 5.816406 -7.851562 5.875 -7.90625 5.929688 -7.988281 C 5.984375 -8.074219 6.039062 -8.15625 6.097656 -8.238281 L 6.179688 -8.40625 C 6.207031 -8.492188 6.152344 -8.601562 6.070312 -8.628906 C 6.039062 -8.65625 5.957031 -8.65625 5.875 -8.65625 C 5.789062 -8.65625 5.707031 -8.628906 5.652344 -8.574219 L 4.984375 -7.765625 C 4.289062 -6.792969 3.589844 -5.875 2.839844 -4.957031 C 2.476562 -4.453125 2.03125 -3.980469 1.503906 -3.507812 C 1.390625 -3.425781 1.28125 -3.367188 1.140625 -3.285156 C 1.113281 -3.257812 1.085938 -3.257812 1.058594 -3.257812 C 1.003906 -3.257812 0.945312 -3.285156 0.917969 -3.367188 C 0.835938 -3.730469 0.78125 -4.09375 0.808594 -4.453125 C 1.058594 -7.097656 1.585938 -9.074219 3.230469 -11.191406 C 3.257812 -11.21875 3.3125 -11.273438 3.367188 -11.300781 C 3.394531 -11.332031 3.453125 -11.359375 3.480469 -11.386719 C 3.507812 -11.414062 3.507812 -11.414062 3.535156 -11.414062 C 3.617188 -11.414062 3.675781 -11.386719 3.675781 -11.300781 C 3.703125 -11.246094 3.703125 -11.191406 3.703125 -11.109375 C 3.730469 -10.578125 3.648438 -10.078125 3.480469 -9.546875 L 3.3125 -9.046875 C 3.285156 -8.964844 3.3125 -8.878906 3.453125 -8.851562 C 3.480469 -8.851562 3.507812 -8.851562 3.535156 -8.851562 C 3.5625 -8.824219 3.5625 -8.824219 3.589844 -8.824219 C 3.730469 -8.824219 3.871094 -8.910156 3.953125 -9.046875 C 4.316406 -9.6875 4.480469 -10.410156 4.425781 -11.191406 C 4.425781 -11.414062 4.34375 -11.582031 4.175781 -11.691406 C 3.871094 -11.941406 3.535156 -12.082031 3.203125 -12.082031 C 2.949219 -12.082031 2.671875 -11.96875 2.421875 -11.777344 C 0.667969 -10.246094 -0.277344 -7.265625 -0.417969 -4.984375 C -0.417969 -4.34375 -0.417969 -3.898438 -0.222656 -3.425781 C -0.167969 -3.230469 -0.0546875 -3.089844 0.113281 -2.949219 C 0.417969 -2.757812 0.695312 -2.699219 1.03125 -2.671875 Z M 1.03125 -2.671875 "/></g></g></g><g fill="#000000" fill-opacity="1"><g transform="translate(77.977399, 96.515685)"><g><path d="M 4.425781 -2.644531 C 4.703125 -2.644531 4.957031 -2.757812 5.207031 -2.980469 C 5.429688 -3.171875 5.625 -3.367188 5.816406 -3.589844 C 6.097656 -3.953125 6.375 -4.371094 6.679688 -4.789062 L 7.851562 -6.625 C 7.988281 -6.820312 8.101562 -7.042969 8.238281 -7.265625 C 8.351562 -7.488281 8.460938 -7.710938 8.601562 -7.933594 C 8.6875 -8.074219 8.714844 -8.210938 8.742188 -8.296875 C 8.742188 -8.296875 8.742188 -8.324219 8.742188 -8.40625 C 8.714844 -8.546875 8.601562 -8.601562 8.40625 -8.601562 C 8.324219 -8.601562 8.269531 -8.574219 8.238281 -8.519531 C 8.128906 -8.40625 8.046875 -8.269531 7.988281 -8.128906 C 7.40625 -7.015625 5.902344 -4.648438 5.011719 -3.757812 C 4.925781 -3.675781 4.84375 -3.617188 4.761719 -3.5625 C 4.675781 -3.480469 4.59375 -3.425781 4.480469 -3.367188 C 4.453125 -3.367188 4.453125 -3.367188 4.453125 -3.367188 C 4.453125 -3.339844 4.453125 -3.339844 4.425781 -3.339844 C 4.34375 -3.339844 4.289062 -3.394531 4.230469 -3.480469 C 4.148438 -3.785156 4.230469 -4.09375 4.257812 -4.398438 C 4.453125 -5.316406 4.621094 -6.179688 4.957031 -7.042969 C 5.179688 -7.570312 5.402344 -8.101562 5.59375 -8.628906 C 5.734375 -8.824219 6.179688 -10.078125 6.179688 -10.214844 C 6.207031 -10.355469 6.152344 -10.4375 6.039062 -10.496094 C 5.957031 -10.578125 5.875 -10.605469 5.761719 -10.605469 C 5.625 -10.605469 5.511719 -10.550781 5.429688 -10.410156 C 5.316406 -10.214844 5.207031 -10.078125 5.09375 -9.9375 L 4.257812 -8.742188 C 4.175781 -8.65625 4.121094 -8.601562 4.0625 -8.574219 C 4.0625 -8.574219 4.035156 -8.574219 3.953125 -8.574219 L 3.8125 -8.878906 C 3.480469 -9.410156 3.007812 -9.660156 2.421875 -9.660156 C 2.058594 -9.660156 1.699219 -9.546875 1.363281 -9.296875 C 1.140625 -9.101562 0.945312 -8.910156 0.75 -8.601562 C 0.640625 -8.40625 0.527344 -8.238281 0.417969 -8.074219 C 0.304688 -7.878906 0.195312 -7.683594 0.0820312 -7.488281 C -0.25 -6.847656 -0.417969 -6.152344 -0.417969 -5.402344 C -0.335938 -4.734375 0.167969 -4.371094 0.808594 -4.289062 L 0.972656 -4.289062 C 1.167969 -4.289062 1.335938 -4.34375 1.449219 -4.425781 C 1.976562 -4.871094 2.394531 -5.289062 2.839844 -5.816406 C 2.921875 -5.902344 2.980469 -5.957031 3.0625 -6.039062 L 3.117188 -6.039062 C 3.171875 -5.984375 3.203125 -5.957031 3.203125 -5.957031 C 3.203125 -5.929688 3.203125 -5.875 3.203125 -5.847656 C 3.171875 -5.789062 3.171875 -5.734375 3.171875 -5.707031 C 3.144531 -5.484375 3.089844 -5.261719 3.0625 -5.039062 C 3.007812 -4.816406 2.980469 -4.59375 2.949219 -4.34375 C 2.949219 -3.480469 3.453125 -2.644531 4.425781 -2.644531 Z M 0.972656 -5.234375 C 0.890625 -5.261719 0.863281 -5.371094 0.863281 -5.511719 C 1.003906 -6.515625 2.03125 -9.132812 2.921875 -9.132812 C 3.035156 -9.132812 3.117188 -9.074219 3.171875 -8.964844 C 3.257812 -8.851562 3.285156 -8.769531 3.3125 -8.714844 C 3.339844 -8.519531 3.453125 -8.378906 3.675781 -8.296875 C 3.757812 -8.269531 3.785156 -8.183594 3.757812 -8.074219 C 3.757812 -8.074219 3.730469 -8.046875 3.703125 -8.015625 C 3.0625 -7.15625 2.449219 -6.402344 1.671875 -5.652344 C 1.585938 -5.566406 1.503906 -5.511719 1.417969 -5.457031 C 1.335938 -5.402344 1.226562 -5.34375 1.140625 -5.261719 C 1.113281 -5.234375 1.058594 -5.234375 0.972656 -5.234375 Z M 0.972656 -5.234375 "/></g></g></g><g fill="#000000" fill-opacity="1"><g transform="translate(85.326399, 96.515685)"><g><path d="M 0.0546875 0.945312 C 0.527344 0.945312 0.835938 0.890625 1.140625 0.472656 L 1.308594 0.277344 C 1.835938 -0.472656 2.339844 -1.195312 2.757812 -1.976562 C 2.894531 -2.28125 3.035156 -2.535156 3.230469 -2.839844 L 4.148438 -4.425781 C 4.453125 -5.011719 4.789062 -5.566406 5.09375 -6.152344 C 5.402344 -6.710938 5.734375 -7.292969 6.039062 -7.878906 C 6.097656 -7.960938 6.152344 -8.074219 6.234375 -8.210938 C 6.261719 -8.351562 6.234375 -8.433594 6.125 -8.492188 C 6.039062 -8.546875 5.984375 -8.574219 5.902344 -8.574219 C 5.847656 -8.574219 5.789062 -8.546875 5.761719 -8.519531 L 5.566406 -8.269531 L 4.648438 -6.597656 C 4.425781 -6.234375 4.230469 -5.875 4.007812 -5.457031 C 3.589844 -4.761719 3.203125 -4.035156 2.8125 -3.339844 C 2.394531 -2.617188 1.976562 -1.894531 1.558594 -1.195312 C 1.335938 -0.835938 1.058594 -0.472656 0.808594 -0.140625 C 0.78125 -0.0820312 0.722656 -0.0273438 0.695312 0.0546875 C 0.667969 0.113281 0.613281 0.140625 0.527344 0.113281 C 0.445312 0.0820312 0.390625 0.0273438 0.390625 -0.0546875 C 0.363281 -0.140625 0.363281 -0.195312 0.335938 -0.277344 C 0.335938 -2.921875 1.03125 -5.484375 1.78125 -7.960938 C 1.863281 -8.128906 2.8125 -11.21875 2.949219 -11.359375 C 3.007812 -11.441406 3.0625 -11.496094 3.144531 -11.554688 C 3.675781 -11.832031 6.488281 -12.25 7.183594 -12.332031 C 7.851562 -12.414062 8.574219 -12.5 9.214844 -12.722656 C 9.269531 -12.75 9.324219 -12.804688 9.355469 -12.890625 C 9.410156 -13.027344 9.382812 -13.195312 9.242188 -13.363281 C 9.1875 -13.417969 9.132812 -13.445312 9.046875 -13.445312 L 7.570312 -13.167969 C 7.210938 -13.113281 6.875 -13.054688 6.515625 -13 C 6.152344 -12.945312 5.816406 -12.890625 5.457031 -12.804688 C 5.148438 -12.777344 4.871094 -12.722656 4.59375 -12.667969 C 4.289062 -12.582031 4.007812 -12.527344 3.730469 -12.5 C 3.675781 -12.472656 3.617188 -12.472656 3.535156 -12.472656 C 3.480469 -12.527344 3.453125 -12.554688 3.453125 -12.582031 C 3.453125 -12.636719 3.480469 -12.75 3.507812 -12.890625 C 3.617188 -13.195312 3.730469 -13.53125 3.839844 -13.835938 C 3.925781 -14.140625 4.035156 -14.449219 4.148438 -14.753906 C 4.175781 -14.894531 4.203125 -15.03125 4.203125 -15.144531 C 4.230469 -15.199219 4.203125 -15.253906 4.148438 -15.3125 C 4.0625 -15.449219 3.925781 -15.535156 3.785156 -15.535156 C 3.425781 -15.535156 3.171875 -14.726562 2.980469 -14.449219 C 2.671875 -13.863281 2.421875 -13.308594 2.171875 -12.667969 C 1.808594 -11.96875 1.976562 -12.136719 1.226562 -11.914062 C 1.195312 -11.886719 1.167969 -11.886719 1.113281 -11.886719 C 0.75 -11.804688 0.417969 -11.691406 0.0820312 -11.609375 C -0.25 -11.523438 -0.585938 -11.414062 -0.917969 -11.332031 C -0.972656 -11.300781 -1.03125 -11.300781 -1.085938 -11.273438 C -1.140625 -11.246094 -1.195312 -11.191406 -1.28125 -11.164062 C -1.308594 -11.136719 -1.308594 -11.109375 -1.308594 -11.050781 C -1.28125 -10.914062 -1.140625 -10.746094 -1.03125 -10.746094 C -0.945312 -10.71875 -0.890625 -10.71875 -0.835938 -10.71875 C -0.75 -10.71875 -0.695312 -10.71875 -0.640625 -10.71875 C -0.445312 -10.746094 -0.277344 -10.800781 -0.113281 -10.828125 C 0.0546875 -10.855469 0.222656 -10.914062 0.390625 -10.941406 C 0.527344 -10.96875 0.667969 -11.023438 0.808594 -11.050781 C 0.945312 -11.078125 1.085938 -11.109375 1.226562 -11.136719 L 1.28125 -11.136719 C 1.476562 -11.136719 1.558594 -11.050781 1.476562 -10.886719 C 1.449219 -10.746094 1.390625 -10.605469 1.335938 -10.46875 C 1.28125 -10.328125 1.226562 -10.214844 1.195312 -10.078125 C 0.167969 -7.070312 -0.527344 -4.121094 -0.835938 -0.972656 C -0.835938 -0.613281 -0.808594 -0.277344 -0.722656 0.0820312 C -0.613281 0.5 -0.417969 0.863281 0.0546875 0.945312 Z M 0.0546875 0.945312 "/></g></g></g></svg>