<svg xmlns="http://www.w3.org/2000/svg" xmlns:xlink="http://www.w3.org/1999/xlink" width="175" zoomAndPan="magnify" viewBox="0 0 131.25 107.999999" height="144" preserveAspectRatio="xMidYMid meet" version="1.0"><defs><g/><clipPath id="1f24035604"><path d="M 39.828125 4 L 92.027344 4 L 92.027344 75.878906 L 39.828125 75.878906 Z M 39.828125 4 " clip-rule="nonzero"/></clipPath><clipPath id="4787ca7c3d"><path d="M 39.828125 15 L 87 15 L 87 53 L 39.828125 53 Z M 39.828125 15 " clip-rule="nonzero"/></clipPath></defs><g clip-path="url(#1f24035604)"><path fill="#ffdfec" d="M 54.617188 8.203125 C 56.320312 5.710938 59.070312 8.226562 59.070312 8.226562 C 59.070312 8.226562 57.820312 4.71875 60.785156 4.125 C 63.75 3.535156 64.847656 9.699219 62.550781 13.472656 C 58.175781 14.109375 52.914062 10.695312 54.617188 8.203125 Z M 86.523438 35.367188 L 59.207031 15.980469 C 58.5 15.476562 57.515625 15.667969 57.046875 16.398438 L 51.832031 24.511719 C 51.570312 24.765625 51.421875 24.945312 51.421875 24.945312 C 51.421875 24.945312 52.644531 19.269531 47.941406 18.949219 C 43.484375 18.648438 42.847656 27.386719 46.460938 32.875 L 39.835938 43.179688 L 45.328125 75.863281 L 53.875 74.433594 L 54.011719 74.457031 L 54.019531 74.410156 L 84.664062 69.285156 L 84.691406 69.332031 L 84.816406 69.257812 L 92.019531 68.054688 Z M 51.054688 16.6875 C 51.054688 16.0625 51.566406 15.558594 52.191406 15.558594 C 52.816406 15.558594 53.324219 16.066406 53.324219 16.6875 C 53.324219 17.3125 52.8125 17.820312 52.191406 17.820312 C 51.566406 17.820312 51.058594 17.3125 51.054688 16.6875 Z M 51.339844 16.6875 C 51.339844 17.15625 51.722656 17.535156 52.191406 17.535156 C 52.65625 17.535156 53.039062 17.15625 53.039062 16.6875 C 53.039062 16.222656 52.660156 15.839844 52.191406 15.839844 C 51.722656 15.839844 51.339844 16.222656 51.339844 16.6875 Z M 51.339844 16.6875 " fill-opacity="1" fill-rule="nonzero"/></g><path fill="#ff5759" d="M 62.550781 13.472656 C 64.847656 9.699219 63.75 3.535156 60.785156 4.125 C 57.820312 4.71875 59.070312 8.226562 59.070312 8.226562 C 59.070312 8.226562 56.320312 5.710938 54.617188 8.203125 C 52.914062 10.695312 58.175781 14.109375 62.550781 13.472656 Z M 61.824219 5.058594 C 62.078125 5.140625 62.269531 5.351562 62.40625 5.570312 C 62.601562 5.882812 62.109375 6.164062 61.917969 5.855469 C 61.867188 5.773438 61.785156 5.679688 61.730469 5.644531 C 61.707031 5.628906 61.664062 5.613281 61.644531 5.59375 C 61.644531 5.589844 61.644531 5.589844 61.648438 5.589844 C 61.339844 5.460938 61.484375 4.949219 61.824219 5.058594 Z M 59.945312 5.078125 C 60.179688 4.871094 60.480469 4.753906 60.789062 4.738281 C 61.152344 4.71875 61.152344 5.285156 60.789062 5.304688 C 60.671875 5.308594 60.5625 5.347656 60.457031 5.40625 C 60.421875 5.425781 60.382812 5.453125 60.347656 5.476562 C 60.34375 5.480469 60.34375 5.480469 60.34375 5.480469 C 60.339844 5.484375 60.339844 5.484375 60.339844 5.484375 C 60.066406 5.710938 59.671875 5.320312 59.945312 5.078125 Z M 73.875 48.355469 C 73.667969 45.039062 72.234375 42.46875 69.765625 42.761719 C 65.082031 43.324219 66.597656 48.925781 66.597656 48.925781 C 66.597656 48.925781 62.628906 44.683594 59.679688 48.351562 C 58.640625 49.640625 58.933594 51.214844 60.042969 52.691406 L 66.628906 55.789062 L 72.910156 49.34375 L 72.90625 49.335938 L 72.933594 49.320312 Z M 70.109375 44.582031 C 69.671875 44.339844 69.164062 44.429688 68.773438 44.71875 C 68.480469 44.941406 68.195312 44.449219 68.488281 44.230469 C 69.039062 43.816406 69.792969 43.757812 70.394531 44.089844 C 70.714844 44.269531 70.429688 44.757812 70.109375 44.582031 Z M 71.464844 45.542969 C 71.378906 45.371094 71.273438 45.222656 71.128906 45.09375 C 71.121094 45.089844 71.121094 45.085938 71.117188 45.085938 C 71.105469 45.078125 71.097656 45.070312 71.085938 45.0625 C 71.070312 45.054688 71.054688 45.042969 71.039062 45.03125 C 71.007812 45.015625 70.914062 44.976562 71.039062 45.027344 C 70.894531 44.96875 70.792969 44.839844 70.839844 44.675781 C 70.875 44.542969 71.046875 44.421875 71.1875 44.480469 C 71.535156 44.617188 71.792969 44.929688 71.957031 45.253906 C 72.121094 45.578125 71.632812 45.867188 71.464844 45.542969 Z M 58.304688 24.015625 C 55.789062 21.203125 52.890625 23.488281 51.832031 24.511719 C 51.570312 24.765625 51.421875 24.945312 51.421875 24.945312 C 51.421875 24.945312 52.644531 19.269531 47.941406 18.949219 C 47.796875 18.941406 47.660156 18.941406 47.523438 18.949219 C 47.480469 18.953125 47.4375 18.960938 47.394531 18.964844 C 47.304688 18.976562 47.214844 18.984375 47.128906 19.003906 C 47.082031 19.011719 47.03125 19.03125 46.984375 19.042969 C 46.90625 19.0625 46.832031 19.082031 46.757812 19.105469 C 46.710938 19.125 46.660156 19.148438 46.609375 19.167969 C 46.542969 19.199219 46.476562 19.226562 46.414062 19.257812 C 46.363281 19.285156 46.316406 19.316406 46.269531 19.34375 C 46.210938 19.378906 46.148438 19.417969 46.09375 19.457031 C 46.046875 19.492188 46 19.527344 45.957031 19.5625 C 45.902344 19.609375 45.847656 19.652344 45.792969 19.699219 C 45.75 19.742188 45.707031 19.785156 45.664062 19.828125 C 45.617188 19.875 45.566406 19.929688 45.519531 19.984375 C 45.480469 20.03125 45.441406 20.082031 45.402344 20.128906 C 45.355469 20.1875 45.3125 20.242188 45.273438 20.304688 C 45.234375 20.359375 45.195312 20.417969 45.160156 20.472656 C 45.121094 20.535156 45.085938 20.597656 45.046875 20.660156 C 45.011719 20.722656 44.980469 20.785156 44.945312 20.851562 C 44.914062 20.917969 44.882812 20.984375 44.851562 21.050781 C 44.820312 21.121094 44.785156 21.191406 44.757812 21.261719 C 44.730469 21.332031 44.703125 21.398438 44.675781 21.46875 C 44.648438 21.546875 44.617188 21.625 44.589844 21.707031 C 44.566406 21.773438 44.546875 21.84375 44.527344 21.914062 C 44.5 22 44.472656 22.085938 44.449219 22.175781 C 44.433594 22.242188 44.417969 22.308594 44.402344 22.375 C 44.378906 22.472656 44.355469 22.574219 44.335938 22.671875 C 44.324219 22.734375 44.3125 22.796875 44.300781 22.855469 C 44.28125 22.964844 44.261719 23.078125 44.246094 23.191406 C 44.238281 23.242188 44.230469 23.292969 44.226562 23.339844 C 44.207031 23.46875 44.191406 23.601562 44.179688 23.734375 C 44.175781 23.757812 44.175781 23.785156 44.175781 23.808594 C 44.003906 25.742188 44.300781 28.003906 45.078125 30.109375 C 45.078125 30.113281 45.082031 30.113281 45.082031 30.113281 C 45.152344 30.304688 45.226562 30.496094 45.304688 30.683594 C 45.304688 30.6875 45.308594 30.691406 45.308594 30.695312 C 45.386719 30.882812 45.46875 31.066406 45.554688 31.25 C 45.558594 31.257812 45.558594 31.261719 45.5625 31.265625 C 45.648438 31.449219 45.738281 31.628906 45.832031 31.808594 C 45.835938 31.8125 45.835938 31.816406 45.839844 31.820312 C 45.933594 32 46.03125 32.175781 46.136719 32.351562 C 46.136719 32.351562 46.136719 32.355469 46.140625 32.355469 C 46.242188 32.53125 46.351562 32.707031 46.464844 32.875 C 46.664062 33.179688 46.871094 33.472656 47.097656 33.753906 C 53.992188 33.863281 61.4375 27.53125 58.304688 24.015625 Z M 56.542969 24.539062 C 56.410156 24.441406 56.265625 24.367188 56.167969 24.335938 C 55.820312 24.222656 55.96875 23.675781 56.316406 23.789062 C 57 24.011719 57.507812 24.59375 57.566406 25.3125 C 57.597656 25.675781 57.03125 25.671875 57 25.3125 C 56.972656 24.996094 56.796875 24.726562 56.542969 24.539062 Z M 57.488281 27.257812 C 57.316406 27.578125 56.828125 27.292969 57 26.972656 C 57.078125 26.820312 57.144531 26.65625 57.15625 26.480469 C 57.164062 26.429688 57.15625 26.378906 57.15625 26.328125 C 57.085938 25.976562 57.625 25.828125 57.703125 26.179688 C 57.785156 26.546875 57.660156 26.9375 57.488281 27.257812 Z M 71.796875 36.160156 C 74.089844 32.390625 72.992188 26.222656 70.027344 26.816406 C 67.066406 27.40625 68.3125 30.914062 68.3125 30.914062 C 68.3125 30.914062 65.5625 28.402344 63.859375 30.894531 C 62.160156 33.386719 67.421875 36.796875 71.796875 36.160156 Z M 71.066406 27.75 C 71.320312 27.832031 71.515625 28.042969 71.652344 28.261719 C 71.84375 28.570312 71.351562 28.855469 71.160156 28.546875 C 71.109375 28.464844 71.027344 28.371094 70.972656 28.332031 C 70.949219 28.316406 70.90625 28.304688 70.890625 28.285156 C 70.886719 28.28125 70.890625 28.28125 70.890625 28.28125 C 70.582031 28.148438 70.726562 27.640625 71.066406 27.75 Z M 69.1875 27.769531 C 69.433594 27.550781 69.765625 27.417969 70.09375 27.425781 C 70.460938 27.433594 70.460938 28 70.09375 27.992188 C 69.960938 27.988281 69.839844 28.019531 69.722656 28.082031 C 69.675781 28.105469 69.636719 28.136719 69.597656 28.160156 C 69.59375 28.160156 69.597656 28.160156 69.59375 28.160156 C 69.589844 28.164062 69.59375 28.164062 69.589844 28.164062 C 69.316406 28.410156 68.914062 28.011719 69.1875 27.769531 Z M 69.1875 27.769531 " fill-opacity="1" fill-rule="nonzero"/><g clip-path="url(#4787ca7c3d)"><path fill="#f99bb6" d="M 52.191406 17.820312 C 52.8125 17.820312 53.324219 17.3125 53.324219 16.6875 C 53.324219 16.066406 52.816406 15.558594 52.191406 15.558594 C 51.566406 15.558594 51.054688 16.0625 51.054688 16.6875 C 51.058594 17.3125 51.566406 17.820312 52.191406 17.820312 Z M 52.191406 15.839844 C 52.660156 15.839844 53.039062 16.222656 53.039062 16.6875 C 53.039062 17.15625 52.65625 17.535156 52.191406 17.535156 C 51.722656 17.535156 51.339844 17.15625 51.339844 16.6875 C 51.339844 16.222656 51.722656 15.839844 52.191406 15.839844 Z M 86.527344 35.371094 L 73.875 48.355469 C 73.667969 45.042969 72.234375 42.46875 69.765625 42.765625 C 65.082031 43.324219 66.597656 48.929688 66.597656 48.929688 C 66.597656 48.929688 62.628906 44.6875 59.679688 48.351562 C 58.640625 49.644531 58.933594 51.214844 60.042969 52.691406 L 58.039062 51.75 L 58.046875 51.710938 L 57.90625 51.683594 L 39.835938 43.179688 Z M 57.90625 35.648438 C 58.53125 35.648438 59.042969 35.140625 59.042969 34.519531 C 59.042969 33.894531 58.535156 33.386719 57.90625 33.386719 C 57.285156 33.386719 56.773438 33.894531 56.773438 34.519531 C 56.773438 35.140625 57.285156 35.648438 57.90625 35.648438 Z M 57.90625 33.667969 C 58.375 33.667969 58.757812 34.050781 58.757812 34.519531 C 58.757812 34.984375 58.375 35.363281 57.90625 35.363281 C 57.441406 35.363281 57.058594 34.984375 57.058594 34.519531 C 57.058594 34.050781 57.4375 33.667969 57.90625 33.667969 Z M 65.925781 25.816406 C 66.550781 25.816406 67.058594 25.3125 67.058594 24.6875 C 67.058594 24.0625 66.550781 23.554688 65.925781 23.554688 C 65.300781 23.554688 64.792969 24.0625 64.792969 24.6875 C 64.792969 25.3125 65.300781 25.816406 65.925781 25.816406 Z M 65.925781 23.839844 C 66.394531 23.839844 66.777344 24.21875 66.777344 24.6875 C 66.777344 25.15625 66.394531 25.535156 65.925781 25.535156 C 65.457031 25.535156 65.078125 25.152344 65.078125 24.6875 C 65.078125 24.21875 65.457031 23.839844 65.925781 23.839844 Z M 65.925781 23.839844 " fill-opacity="1" fill-rule="nonzero"/></g><path fill="#fff9ee" d="M 60.785156 5.304688 C 60.667969 5.308594 60.558594 5.347656 60.457031 5.40625 C 60.417969 5.425781 60.382812 5.449219 60.347656 5.476562 C 60.34375 5.476562 60.347656 5.476562 60.34375 5.476562 C 60.34375 5.480469 60.34375 5.480469 60.339844 5.480469 C 60.339844 5.484375 60.339844 5.484375 60.339844 5.484375 C 60.066406 5.710938 59.671875 5.316406 59.945312 5.078125 C 60.179688 4.871094 60.476562 4.75 60.789062 4.734375 C 61.152344 4.71875 61.152344 5.28125 60.785156 5.304688 Z M 61.824219 5.058594 C 61.484375 4.949219 61.339844 5.460938 61.648438 5.589844 C 61.648438 5.589844 61.644531 5.589844 61.648438 5.59375 C 61.667969 5.613281 61.707031 5.628906 61.730469 5.644531 C 61.785156 5.679688 61.867188 5.773438 61.917969 5.855469 C 62.109375 6.164062 62.601562 5.882812 62.410156 5.570312 C 62.269531 5.351562 62.078125 5.140625 61.824219 5.058594 Z M 70.394531 44.089844 C 69.792969 43.757812 69.039062 43.816406 68.488281 44.230469 C 68.195312 44.449219 68.480469 44.941406 68.773438 44.71875 C 69.164062 44.425781 69.671875 44.339844 70.109375 44.582031 C 70.429688 44.757812 70.714844 44.269531 70.394531 44.089844 Z M 57.566406 25.3125 C 57.507812 24.59375 57 24.011719 56.316406 23.789062 C 55.96875 23.679688 55.820312 24.222656 56.167969 24.335938 C 56.265625 24.367188 56.410156 24.441406 56.542969 24.539062 C 56.796875 24.726562 56.972656 24.992188 57 25.3125 C 57.03125 25.671875 57.597656 25.675781 57.566406 25.3125 Z M 57.15625 26.324219 C 57.15625 26.378906 57.164062 26.429688 57.15625 26.480469 C 57.144531 26.65625 57.078125 26.820312 57 26.972656 C 56.828125 27.292969 57.316406 27.578125 57.488281 27.257812 C 57.660156 26.9375 57.785156 26.546875 57.703125 26.179688 C 57.625 25.828125 57.085938 25.972656 57.15625 26.324219 Z M 69.589844 28.167969 C 69.59375 28.164062 69.59375 28.164062 69.59375 28.164062 C 69.59375 28.164062 69.59375 28.164062 69.597656 28.164062 C 69.640625 28.136719 69.675781 28.109375 69.722656 28.085938 C 69.839844 28.023438 69.960938 27.992188 70.09375 27.996094 C 70.460938 28 70.460938 27.433594 70.09375 27.425781 C 69.765625 27.417969 69.433594 27.550781 69.1875 27.769531 C 68.914062 28.011719 69.316406 28.410156 69.589844 28.167969 Z M 71.652344 28.261719 C 71.515625 28.042969 71.320312 27.832031 71.066406 27.75 C 70.726562 27.640625 70.582031 28.152344 70.890625 28.28125 C 70.890625 28.28125 70.886719 28.28125 70.890625 28.285156 C 70.910156 28.304688 70.949219 28.316406 70.972656 28.332031 C 71.027344 28.371094 71.109375 28.464844 71.160156 28.546875 C 71.355469 28.855469 71.84375 28.570312 71.652344 28.261719 Z M 71.652344 28.261719 " fill-opacity="1" fill-rule="nonzero"/><path fill="#5b0116" d="M 71.957031 45.257812 C 72.121094 45.582031 71.632812 45.867188 71.464844 45.542969 C 71.378906 45.371094 71.273438 45.222656 71.128906 45.097656 C 71.121094 45.089844 71.121094 45.089844 71.117188 45.085938 C 71.105469 45.078125 71.097656 45.070312 71.085938 45.066406 C 71.070312 45.054688 71.054688 45.042969 71.039062 45.035156 C 71.007812 45.015625 70.914062 44.976562 71.039062 45.027344 C 70.894531 44.96875 70.792969 44.839844 70.839844 44.679688 C 70.875 44.542969 71.046875 44.425781 71.1875 44.484375 C 71.535156 44.621094 71.792969 44.933594 71.957031 45.257812 Z M 57.769531 51.660156 L 53.734375 74.410156 L 53.875 74.433594 L 54.011719 74.457031 L 54.019531 74.410156 L 58.039062 51.75 L 58.046875 51.710938 L 57.90625 51.683594 Z M 73.148438 49.191406 L 72.933594 49.320312 L 72.90625 49.339844 L 72.910156 49.34375 L 84.664062 69.285156 L 84.691406 69.332031 L 84.816406 69.257812 L 84.9375 69.1875 Z M 73.148438 49.191406 " fill-opacity="1" fill-rule="nonzero"/><g fill="#000000" fill-opacity="1"><g transform="translate(52.015122, 92.740836)"><g><path d="M 8.878906 -0.140625 C 9.6875 -0.140625 10.355469 -1.28125 10.691406 -1.976562 C 10.773438 -2.226562 10.886719 -2.449219 10.996094 -2.671875 C 11.109375 -2.894531 11.21875 -3.117188 11.300781 -3.339844 L 11.359375 -3.480469 C 11.386719 -3.589844 11.273438 -3.675781 11.164062 -3.675781 C 11.023438 -3.675781 10.941406 -3.648438 10.914062 -3.589844 C 10.886719 -3.535156 10.828125 -3.480469 10.800781 -3.425781 C 10.746094 -3.339844 10.691406 -3.285156 10.664062 -3.203125 C 10.578125 -3.0625 10.496094 -2.894531 10.410156 -2.726562 C 10.328125 -2.5625 10.246094 -2.394531 10.160156 -2.226562 C 9.9375 -1.753906 9.605469 -1.363281 9.242188 -0.945312 C 9.160156 -0.835938 9.019531 -0.75 8.878906 -0.667969 C 8.851562 -0.640625 8.796875 -0.640625 8.769531 -0.640625 C 8.628906 -0.640625 8.546875 -0.695312 8.519531 -0.808594 C 8.324219 -1.167969 8.296875 -1.476562 8.269531 -1.894531 C 8.269531 -4.703125 8.9375 -7.488281 9.800781 -10.160156 C 10.160156 -11.300781 10.496094 -12.414062 10.828125 -13.558594 C 11.050781 -14.335938 11.273438 -15.117188 11.386719 -15.980469 C 11.386719 -16.0625 11.386719 -16.175781 11.414062 -16.285156 C 11.414062 -16.367188 11.414062 -16.480469 11.414062 -16.5625 C 11.386719 -16.898438 11.050781 -17.484375 10.632812 -17.484375 C 10.523438 -17.484375 10.410156 -17.425781 10.328125 -17.34375 C 9.6875 -16.8125 9.296875 -16.035156 8.878906 -15.339844 C 8.101562 -14.03125 7.515625 -12.636719 6.933594 -11.273438 C 6.597656 -10.523438 6.292969 -9.800781 5.984375 -9.046875 C 5.679688 -8.40625 5.429688 -7.851562 5.121094 -7.265625 L 4.925781 -7.015625 C 4.925781 -7.015625 4.925781 -7.015625 4.898438 -6.988281 L 4.871094 -6.988281 C 4.84375 -6.988281 4.84375 -6.988281 4.816406 -7.015625 C 4.816406 -7.042969 4.816406 -7.097656 4.816406 -7.125 C 4.789062 -7.15625 4.789062 -7.183594 4.816406 -7.210938 C 4.957031 -7.878906 5.09375 -8.546875 5.207031 -9.214844 L 5.625 -11.46875 C 5.679688 -11.777344 5.652344 -12.054688 5.566406 -12.304688 C 5.457031 -12.609375 5.261719 -12.777344 4.957031 -12.863281 C 4.925781 -12.890625 4.84375 -12.890625 4.761719 -12.890625 C 4.566406 -12.890625 4.425781 -12.832031 4.316406 -12.695312 C 4.230469 -12.609375 4.148438 -12.5 4.09375 -12.414062 C 4.007812 -12.304688 3.953125 -12.191406 3.871094 -12.109375 C 2.757812 -10.328125 1.726562 -7.65625 1.195312 -5.652344 L 1.113281 -5.429688 C 1.085938 -5.402344 1.058594 -5.402344 1.003906 -5.402344 L 0.972656 -5.429688 C 0.945312 -5.59375 0.945312 -5.761719 1.003906 -5.929688 C 1.03125 -6.097656 1.058594 -6.261719 1.085938 -6.402344 C 1.195312 -7.378906 1.335938 -8.269531 1.585938 -9.1875 C 2.03125 -11.050781 2.421875 -12.863281 2.785156 -14.753906 L 2.867188 -15.0625 C 2.894531 -15.367188 2.617188 -15.617188 2.3125 -15.589844 C 2.199219 -15.589844 2.117188 -15.535156 2.085938 -15.421875 C 1.863281 -15.003906 1.753906 -14.671875 1.640625 -14.253906 C 1.449219 -13.558594 1.28125 -12.863281 1.113281 -12.191406 C 0.945312 -11.496094 0.78125 -10.828125 0.585938 -10.132812 C 0.0273438 -7.90625 -0.417969 -5.09375 -0.417969 -2.757812 C -0.417969 -2.5625 -0.390625 -2.449219 -0.363281 -2.367188 C -0.167969 -1.808594 0.113281 -1.78125 0.585938 -1.78125 C 0.667969 -1.78125 0.75 -1.835938 0.78125 -1.921875 C 0.863281 -2.085938 0.917969 -2.253906 0.945312 -2.421875 C 1.113281 -3.035156 1.28125 -3.648438 1.476562 -4.289062 C 1.640625 -4.898438 1.808594 -5.511719 1.976562 -6.152344 C 2.339844 -7.488281 3.589844 -10.886719 4.539062 -11.832031 L 4.59375 -11.832031 C 4.621094 -11.832031 4.621094 -11.804688 4.621094 -11.777344 C 4.648438 -11.691406 4.648438 -11.609375 4.621094 -11.523438 C 4.59375 -11.332031 4.539062 -11.136719 4.480469 -10.96875 C 4.425781 -10.773438 4.371094 -10.578125 4.34375 -10.382812 C 4.09375 -9.410156 3.898438 -8.492188 3.703125 -7.515625 C 3.589844 -7.015625 3.5625 -6.515625 3.617188 -6.011719 C 3.675781 -5.59375 3.925781 -5.316406 4.34375 -5.179688 C 4.371094 -5.179688 4.398438 -5.179688 4.425781 -5.179688 C 4.453125 -5.148438 4.453125 -5.148438 4.480469 -5.148438 C 4.675781 -5.148438 4.816406 -5.234375 4.925781 -5.402344 L 5.148438 -5.789062 C 5.679688 -6.875 6.152344 -7.878906 6.597656 -8.964844 C 7.183594 -10.382812 7.792969 -11.777344 8.433594 -13.140625 C 8.964844 -14.226562 9.464844 -15.285156 10.214844 -16.203125 C 10.246094 -16.230469 10.300781 -16.285156 10.410156 -16.367188 L 10.46875 -16.367188 C 10.496094 -16.339844 10.496094 -16.339844 10.496094 -16.3125 C 10.523438 -16.0625 10.4375 -15.839844 10.355469 -15.617188 C 10.050781 -14.644531 9.769531 -13.722656 9.4375 -12.804688 C 8.492188 -10.1875 7.15625 -5.875 7.15625 -3.089844 L 7.15625 -2.367188 C 7.15625 -1.835938 7.292969 -1.390625 7.515625 -0.917969 C 7.824219 -0.277344 8.324219 -0.140625 8.878906 -0.140625 Z M 8.878906 -0.140625 "/></g></g></g><g fill="#000000" fill-opacity="1"><g transform="translate(62.927273, 92.740836)"><g><path d="M 4.425781 -2.644531 C 4.703125 -2.644531 4.957031 -2.757812 5.207031 -2.980469 C 5.429688 -3.171875 5.625 -3.367188 5.816406 -3.589844 C 6.097656 -3.953125 6.375 -4.371094 6.679688 -4.789062 L 7.851562 -6.625 C 7.988281 -6.820312 8.101562 -7.042969 8.238281 -7.265625 C 8.351562 -7.488281 8.460938 -7.710938 8.601562 -7.933594 C 8.6875 -8.074219 8.714844 -8.210938 8.742188 -8.296875 C 8.742188 -8.296875 8.742188 -8.324219 8.742188 -8.40625 C 8.714844 -8.546875 8.601562 -8.601562 8.40625 -8.601562 C 8.324219 -8.601562 8.269531 -8.574219 8.238281 -8.519531 C 8.128906 -8.40625 8.046875 -8.269531 7.988281 -8.128906 C 7.40625 -7.015625 5.902344 -4.648438 5.011719 -3.757812 C 4.925781 -3.675781 4.84375 -3.617188 4.761719 -3.5625 C 4.675781 -3.480469 4.59375 -3.425781 4.480469 -3.367188 C 4.453125 -3.367188 4.453125 -3.367188 4.453125 -3.367188 C 4.453125 -3.339844 4.453125 -3.339844 4.425781 -3.339844 C 4.34375 -3.339844 4.289062 -3.394531 4.230469 -3.480469 C 4.148438 -3.785156 4.230469 -4.09375 4.257812 -4.398438 C 4.453125 -5.316406 4.621094 -6.179688 4.957031 -7.042969 C 5.179688 -7.570312 5.402344 -8.101562 5.59375 -8.628906 C 5.734375 -8.824219 6.179688 -10.078125 6.179688 -10.214844 C 6.207031 -10.355469 6.152344 -10.4375 6.039062 -10.496094 C 5.957031 -10.578125 5.875 -10.605469 5.761719 -10.605469 C 5.625 -10.605469 5.511719 -10.550781 5.429688 -10.410156 C 5.316406 -10.214844 5.207031 -10.078125 5.09375 -9.9375 L 4.257812 -8.742188 C 4.175781 -8.65625 4.121094 -8.601562 4.0625 -8.574219 C 4.0625 -8.574219 4.035156 -8.574219 3.953125 -8.574219 L 3.8125 -8.878906 C 3.480469 -9.410156 3.007812 -9.660156 2.421875 -9.660156 C 2.058594 -9.660156 1.699219 -9.546875 1.363281 -9.296875 C 1.140625 -9.101562 0.945312 -8.910156 0.75 -8.601562 C 0.640625 -8.40625 0.527344 -8.238281 0.417969 -8.074219 C 0.304688 -7.878906 0.195312 -7.683594 0.0820312 -7.488281 C -0.25 -6.847656 -0.417969 -6.152344 -0.417969 -5.402344 C -0.335938 -4.734375 0.167969 -4.371094 0.808594 -4.289062 L 0.972656 -4.289062 C 1.167969 -4.289062 1.335938 -4.34375 1.449219 -4.425781 C 1.976562 -4.871094 2.394531 -5.289062 2.839844 -5.816406 C 2.921875 -5.902344 2.980469 -5.957031 3.0625 -6.039062 L 3.117188 -6.039062 C 3.171875 -5.984375 3.203125 -5.957031 3.203125 -5.957031 C 3.203125 -5.929688 3.203125 -5.875 3.203125 -5.847656 C 3.171875 -5.789062 3.171875 -5.734375 3.171875 -5.707031 C 3.144531 -5.484375 3.089844 -5.261719 3.0625 -5.039062 C 3.007812 -4.816406 2.980469 -4.59375 2.949219 -4.34375 C 2.949219 -3.480469 3.453125 -2.644531 4.425781 -2.644531 Z M 0.972656 -5.234375 C 0.890625 -5.261719 0.863281 -5.371094 0.863281 -5.511719 C 1.003906 -6.515625 2.03125 -9.132812 2.921875 -9.132812 C 3.035156 -9.132812 3.117188 -9.074219 3.171875 -8.964844 C 3.257812 -8.851562 3.285156 -8.769531 3.3125 -8.714844 C 3.339844 -8.519531 3.453125 -8.378906 3.675781 -8.296875 C 3.757812 -8.269531 3.785156 -8.183594 3.757812 -8.074219 C 3.757812 -8.074219 3.730469 -8.046875 3.703125 -8.015625 C 3.0625 -7.15625 2.449219 -6.402344 1.671875 -5.652344 C 1.585938 -5.566406 1.503906 -5.511719 1.417969 -5.457031 C 1.335938 -5.402344 1.226562 -5.34375 1.140625 -5.261719 C 1.113281 -5.234375 1.058594 -5.234375 0.972656 -5.234375 Z M 0.972656 -5.234375 "/></g></g></g><g fill="#000000" fill-opacity="1"><g transform="translate(70.276273, 92.740836)"><g><path d="M 0.722656 -3.144531 C 1.085938 -3.144531 1.417969 -3.394531 1.671875 -3.617188 C 2.199219 -4.175781 2.671875 -4.761719 3.089844 -5.402344 C 3.339844 -5.816406 3.589844 -6.234375 3.839844 -6.652344 C 4.09375 -7.042969 4.34375 -7.433594 4.59375 -7.851562 L 4.816406 -8.269531 C 4.898438 -8.378906 4.761719 -8.546875 4.621094 -8.574219 C 4.59375 -8.601562 4.539062 -8.601562 4.453125 -8.601562 C 4.34375 -8.601562 4.230469 -8.546875 4.121094 -8.40625 C 4.035156 -8.296875 3.980469 -8.183594 3.925781 -8.101562 C 3.871094 -7.988281 3.8125 -7.878906 3.730469 -7.792969 L 2.699219 -6.039062 L 2.058594 -5.121094 C 1.835938 -4.816406 1.558594 -4.566406 1.253906 -4.257812 C 1.226562 -4.230469 1.195312 -4.230469 1.167969 -4.203125 C 1.140625 -4.175781 1.113281 -4.175781 1.085938 -4.148438 C 1.058594 -4.121094 1.03125 -4.121094 0.972656 -4.121094 C 0.890625 -4.148438 0.863281 -4.175781 0.863281 -4.257812 C 0.890625 -4.511719 0.917969 -4.734375 0.945312 -4.957031 C 0.972656 -5.179688 1.003906 -5.402344 1.03125 -5.625 C 1.167969 -6.375 1.335938 -7.042969 1.53125 -7.792969 L 1.699219 -8.492188 C 1.726562 -8.65625 1.699219 -8.769531 1.558594 -8.824219 C 1.417969 -8.910156 1.335938 -8.9375 1.335938 -8.9375 L 1.253906 -8.9375 C 1.03125 -8.9375 0.917969 -8.769531 0.835938 -8.574219 C 0.140625 -7.238281 -0.195312 -5.847656 -0.195312 -4.425781 C -0.195312 -4.316406 -0.195312 -4.203125 -0.195312 -4.09375 C -0.195312 -3.980469 -0.167969 -3.871094 -0.140625 -3.785156 C -0.0546875 -3.367188 0.304688 -3.144531 0.722656 -3.144531 Z M 1.976562 -10.4375 C 2.058594 -10.4375 2.144531 -10.4375 2.171875 -10.4375 C 2.199219 -10.4375 2.253906 -10.46875 2.339844 -10.496094 C 2.535156 -10.632812 2.617188 -10.996094 2.476562 -11.191406 C 2.394531 -11.273438 2.3125 -11.386719 2.226562 -11.523438 C 2.117188 -11.664062 1.976562 -11.71875 1.835938 -11.71875 C 1.699219 -11.71875 1.585938 -11.664062 1.53125 -11.554688 C 1.449219 -11.386719 1.417969 -11.191406 1.417969 -10.96875 C 1.417969 -10.773438 1.503906 -10.605469 1.699219 -10.523438 C 1.753906 -10.496094 1.808594 -10.46875 1.863281 -10.46875 C 1.894531 -10.46875 1.949219 -10.46875 1.976562 -10.4375 Z M 1.976562 -10.4375 "/></g></g></g><g fill="#000000" fill-opacity="1"><g transform="translate(73.72808, 92.740836)"><g><path d="M 1.417969 -0.890625 C 2.28125 -0.890625 3.035156 -2.117188 3.339844 -2.894531 C 3.871094 -3.925781 4.371094 -5.011719 4.789062 -6.125 C 4.898438 -6.429688 5.011719 -6.710938 5.148438 -7.015625 C 5.289062 -7.320312 5.402344 -7.628906 5.539062 -7.933594 C 5.566406 -8.015625 5.625 -8.101562 5.652344 -8.183594 C 5.679688 -8.238281 5.707031 -8.324219 5.734375 -8.40625 C 5.761719 -8.492188 5.707031 -8.546875 5.625 -8.628906 C 5.566406 -8.65625 5.484375 -8.6875 5.402344 -8.6875 C 4.984375 -8.6875 4.734375 -8.015625 4.621094 -7.710938 C 4.539062 -7.515625 4.453125 -7.292969 4.371094 -7.097656 C 4.289062 -6.902344 4.230469 -6.679688 4.148438 -6.488281 C 3.589844 -5.011719 2.785156 -3.035156 1.808594 -1.808594 C 1.726562 -1.726562 1.671875 -1.671875 1.613281 -1.640625 C 1.558594 -1.640625 1.53125 -1.640625 1.503906 -1.671875 C 1.476562 -1.699219 1.449219 -1.726562 1.449219 -1.753906 C 1.449219 -1.78125 1.449219 -1.808594 1.417969 -1.835938 C 1.308594 -2.144531 1.308594 -2.394531 1.308594 -2.699219 C 1.195312 -4.703125 1.417969 -6.625 1.835938 -8.546875 C 1.863281 -8.742188 1.976562 -8.878906 2.085938 -9.074219 C 3.230469 -10.496094 5.457031 -13.472656 5.875 -15.285156 C 5.929688 -15.589844 5.957031 -15.894531 5.929688 -16.144531 C 5.847656 -16.648438 5.511719 -16.925781 4.984375 -16.980469 C 4.121094 -16.980469 3.757812 -16.507812 3.3125 -15.867188 C 1.335938 -13 0.0820312 -7.238281 0.0820312 -3.648438 C 0.0546875 -3.230469 0.113281 -2.671875 0.195312 -2.085938 C 0.195312 -1.449219 0.5 -1.03125 1.140625 -0.917969 C 1.195312 -0.890625 1.28125 -0.890625 1.417969 -0.890625 Z M 2.503906 -10.96875 L 2.476562 -10.996094 C 2.476562 -11.023438 2.476562 -11.078125 2.476562 -11.109375 C 2.449219 -11.136719 2.449219 -11.164062 2.476562 -11.191406 C 2.949219 -12.972656 3.5625 -14.558594 4.648438 -16.035156 C 4.734375 -16.117188 4.957031 -16.3125 5.039062 -16.3125 C 5.09375 -16.3125 5.148438 -16.285156 5.179688 -16.203125 L 5.179688 -15.953125 C 5.121094 -14.726562 3.507812 -12.109375 2.757812 -11.164062 C 2.699219 -11.078125 2.644531 -11.023438 2.5625 -10.96875 Z M 2.503906 -10.96875 "/></g></g></g></svg>