<svg xmlns="http://www.w3.org/2000/svg" xmlns:xlink="http://www.w3.org/1999/xlink" width="167" zoomAndPan="magnify" viewBox="0 0 125.25 111.749997" height="149" preserveAspectRatio="xMidYMid meet" version="1.0"><defs><g/><clipPath id="6282ca08bc"><path d="M 41 8.113281 L 87 8.113281 L 87 76.703125 L 41 76.703125 Z M 41 8.113281 " clip-rule="nonzero"/></clipPath><clipPath id="15c5cba2fe"><path d="M 40.625 8.113281 L 62 8.113281 L 62 31 L 40.625 31 Z M 40.625 8.113281 " clip-rule="nonzero"/></clipPath><clipPath id="8eb0144763"><path d="M 40.625 31 L 87.59375 31 L 87.59375 76.703125 L 40.625 76.703125 Z M 40.625 31 " clip-rule="nonzero"/></clipPath><clipPath id="73c228b722"><path d="M 66 8.113281 L 87.59375 8.113281 L 87.59375 31 L 66 31 Z M 66 8.113281 " clip-rule="nonzero"/></clipPath><clipPath id="4cd0ad6f08"><path d="M 61 8.113281 L 67 8.113281 L 67 10 L 61 10 Z M 61 8.113281 " clip-rule="nonzero"/></clipPath></defs><g clip-path="url(#6282ca08bc)"><path fill="#f9476b" d="M 64.011719 8.789062 C 64.011719 8.789062 58.375 8.195312 51.949219 11.648438 C 45.519531 15.101562 42.457031 21.917969 42.058594 23.496094 C 41.664062 25.074219 41.367188 33.269531 41.269531 36.921875 C 41.167969 40.574219 41.464844 75.125 41.765625 75.71875 C 42.0625 76.308594 86.554688 76.609375 86.65625 76.015625 C 86.757812 75.421875 86.953125 28.824219 86.65625 25.863281 C 86.359375 22.902344 83.195312 16.191406 77.953125 12.636719 C 72.710938 9.082031 64.011719 8.789062 64.011719 8.789062 Z M 64.011719 8.789062 " fill-opacity="1" fill-rule="nonzero"/></g><path fill="#faf1e8" d="M 63.617188 16.878906 C 63.617188 16.878906 61.339844 15.003906 60.054688 15.796875 C 58.769531 16.589844 57.980469 17.675781 58.277344 18.660156 C 58.578125 19.648438 63.519531 23.398438 63.519531 23.398438 C 63.519531 23.398438 68.261719 20.734375 68.5625 19.15625 C 68.859375 17.574219 67.375 15.699219 66.484375 15.796875 C 65.59375 15.894531 63.617188 16.878906 63.617188 16.878906 Z M 63.617188 16.878906 " fill-opacity="1" fill-rule="nonzero"/><path fill="#faf1e8" d="M 64.835938 49.0625 C 64.835938 49.0625 63.386719 47.75 62.59375 48.535156 C 61.800781 49.324219 61.339844 49.917969 61.933594 50.972656 C 62.527344 52.027344 64.835938 53.410156 64.835938 53.410156 C 64.835938 53.410156 68.132812 51.433594 68.332031 50.316406 C 68.527344 49.195312 67.40625 47.945312 66.746094 48.148438 C 66.085938 48.402344 65.449219 48.707031 64.835938 49.0625 Z M 64.835938 49.0625 " fill-opacity="1" fill-rule="nonzero"/><path fill="#ffdaa9" d="M 52.789062 57.304688 L 52.984375 69.015625 L 76.371094 68.621094 L 76.175781 56.726562 C 76.175781 56.726562 54.214844 56.359375 53.621094 56.640625 C 53.285156 56.789062 53.007812 57.011719 52.789062 57.304688 Z M 52.789062 57.304688 " fill-opacity="1" fill-rule="nonzero"/><path fill="#2d2323" d="M 66.535156 20.835938 C 65.746094 21.5 64.902344 22.082031 64 22.582031 C 63.859375 22.683594 63.703125 22.753906 63.53125 22.785156 C 63.3125 22.757812 63.121094 22.679688 62.945312 22.550781 C 62.503906 22.28125 62.074219 21.984375 61.652344 21.691406 C 60.390625 20.804688 58.375 19.304688 59.15625 17.515625 C 59.320312 17.140625 59.574219 16.84375 59.921875 16.625 C 60.265625 16.40625 60.644531 16.300781 61.054688 16.3125 C 61.46875 16.320312 61.839844 16.445312 62.175781 16.6875 C 62.519531 16.925781 62.679688 17.242188 62.953125 17.542969 C 63.0625 17.6875 63.203125 17.78125 63.378906 17.820312 C 63.554688 17.859375 63.722656 17.832031 63.882812 17.746094 C 64.027344 17.644531 64.144531 17.519531 64.238281 17.371094 C 64.347656 17.226562 64.417969 17.101562 64.496094 17.023438 C 64.78125 16.703125 65.132812 16.492188 65.546875 16.386719 C 65.960938 16.28125 66.371094 16.296875 66.773438 16.433594 C 67.199219 16.597656 67.53125 16.871094 67.773438 17.253906 C 68.015625 17.640625 68.117188 18.058594 68.078125 18.511719 C 67.992188 19.480469 67.214844 20.234375 66.519531 20.835938 C 66.046875 21.242188 66.734375 21.917969 67.203125 21.515625 C 68.007812 20.835938 68.800781 19.988281 69 18.941406 C 69.054688 18.691406 69.078125 18.433594 69.066406 18.179688 C 69.054688 17.921875 69.011719 17.671875 68.9375 17.425781 C 68.859375 17.179688 68.753906 16.949219 68.617188 16.730469 C 68.480469 16.511719 68.316406 16.3125 68.128906 16.136719 C 67.941406 15.960938 67.734375 15.8125 67.511719 15.6875 C 67.285156 15.566406 67.046875 15.476562 66.796875 15.414062 C 66.542969 15.351562 66.292969 15.324219 66.035156 15.328125 C 65.777344 15.332031 65.523438 15.371094 65.277344 15.441406 C 64.746094 15.59375 64.285156 15.863281 63.894531 16.253906 C 63.761719 16.386719 63.644531 16.53125 63.539062 16.6875 C 63.488281 16.753906 63.4375 16.820312 63.398438 16.890625 C 63.363281 16.972656 63.167969 16.953125 63.53125 16.925781 C 63.890625 16.902344 63.6875 16.953125 63.648438 16.851562 C 63.558594 16.6875 63.449219 16.535156 63.316406 16.402344 C 63.128906 16.1875 62.910156 16 62.671875 15.839844 C 62.34375 15.621094 61.988281 15.472656 61.601562 15.394531 C 61.214844 15.316406 60.828125 15.316406 60.441406 15.390625 C 60.050781 15.464844 59.695312 15.609375 59.363281 15.824219 C 59.035156 16.039062 58.757812 16.308594 58.53125 16.632812 C 58.242188 17.0625 58.074219 17.535156 58.023438 18.050781 C 57.976562 18.566406 58.054688 19.0625 58.261719 19.539062 C 58.699219 20.5625 59.578125 21.324219 60.429688 21.992188 C 60.972656 22.40625 61.535156 22.777344 62.097656 23.160156 C 62.597656 23.5 63.183594 23.851562 63.8125 23.703125 C 64.445312 23.554688 65.011719 23.105469 65.519531 22.773438 C 66.105469 22.386719 66.660156 21.964844 67.195312 21.507812 C 67.695312 21.105469 67.003906 20.429688 66.535156 20.835938 Z M 66.535156 20.835938 " fill-opacity="1" fill-rule="nonzero"/><g clip-path="url(#15c5cba2fe)"><path fill="#2d2323" d="M 60.9375 8.28125 C 58.804688 8.480469 56.738281 8.964844 54.738281 9.730469 C 52.738281 10.5 50.882812 11.523438 49.164062 12.800781 C 47.410156 14.078125 45.898438 15.597656 44.628906 17.359375 C 43.421875 19.113281 42.507812 21.007812 41.894531 23.042969 C 41.195312 25.382812 40.789062 27.769531 40.683594 30.207031 C 40.652344 30.832031 41.621094 30.828125 41.65625 30.207031 C 41.867188 26.148438 42.789062 22.042969 44.980469 18.570312 C 47.175781 15.097656 50.59375 12.535156 54.300781 10.941406 C 56.425781 10.03125 58.636719 9.464844 60.9375 9.246094 C 61.550781 9.191406 61.558594 8.222656 60.9375 8.28125 Z M 60.9375 8.28125 " fill-opacity="1" fill-rule="nonzero"/></g><g clip-path="url(#8eb0144763)"><path fill="#2d2323" d="M 40.683594 31.984375 C 40.992188 38.929688 40.957031 45.886719 40.933594 52.828125 C 40.914062 59.765625 40.867188 66.773438 41.152344 73.738281 C 41.171875 74.195312 41.179688 74.644531 41.179688 75.09375 C 41.179688 75.542969 41.109375 76.125 41.570312 76.425781 C 41.777344 76.550781 42.003906 76.601562 42.246094 76.582031 L 85 76.582031 C 85.570312 76.582031 86.421875 76.722656 86.808594 76.292969 C 87.113281 75.953125 87.039062 75.445312 87.039062 75.027344 C 87.039062 74.519531 87.058594 74.011719 87.074219 73.503906 C 87.144531 71.824219 87.195312 70.148438 87.222656 68.46875 C 87.289062 64.972656 87.300781 61.476562 87.296875 57.980469 C 87.296875 50.941406 87.210938 43.90625 87.371094 36.851562 C 87.410156 35.226562 87.464844 33.601562 87.535156 31.980469 C 87.5625 31.359375 86.59375 31.359375 86.566406 31.980469 C 86.265625 38.820312 86.296875 45.671875 86.316406 52.519531 C 86.339844 59.367188 86.386719 66.289062 86.121094 73.171875 C 86.101562 73.710938 86.070312 74.253906 86.070312 74.78125 L 86.070312 75.445312 C 86.058594 75.519531 86.058594 75.589844 86.070312 75.660156 C 86.109375 75.753906 86.144531 75.632812 86.136719 75.625 C 86.09375 75.570312 85.644531 75.625 85.558594 75.625 L 42.289062 75.625 C 42.265625 75.625 42.074219 75.605469 42.058594 75.625 L 42.148438 75.710938 L 42.148438 75.695312 C 42.152344 75.679688 42.152344 75.664062 42.148438 75.648438 C 42.160156 75.570312 42.160156 75.496094 42.148438 75.421875 L 42.148438 74.722656 C 42.148438 74.148438 42.109375 73.570312 42.089844 72.996094 C 42.03125 71.332031 41.984375 69.667969 41.957031 68.003906 C 41.894531 64.542969 41.886719 61.078125 41.890625 57.617188 C 41.890625 50.660156 41.976562 43.699219 41.8125 36.742188 C 41.773438 35.152344 41.722656 33.566406 41.65625 31.980469 C 41.628906 31.359375 40.65625 31.355469 40.683594 31.980469 Z M 40.683594 31.984375 " fill-opacity="1" fill-rule="nonzero"/></g><g clip-path="url(#73c228b722)"><path fill="#2d2323" d="M 67.277344 9.246094 C 69.316406 9.449219 71.289062 9.917969 73.199219 10.65625 C 75.109375 11.394531 76.882812 12.378906 78.523438 13.601562 C 80.191406 14.8125 81.621094 16.253906 82.8125 17.929688 C 83.960938 19.601562 84.824219 21.40625 85.410156 23.34375 C 86.078125 25.578125 86.460938 27.859375 86.566406 30.191406 C 86.597656 30.808594 87.566406 30.8125 87.535156 30.191406 C 87.308594 25.953125 86.347656 21.640625 84.046875 18.007812 C 81.742188 14.378906 78.15625 11.703125 74.253906 10.046875 C 72.019531 9.097656 69.695312 8.507812 67.277344 8.28125 C 66.65625 8.222656 66.660156 9.1875 67.277344 9.246094 Z M 67.277344 9.246094 " fill-opacity="1" fill-rule="nonzero"/></g><g clip-path="url(#4cd0ad6f08)"><path fill="#2d2323" d="M 65.988281 8.152344 C 64.785156 8.128906 63.582031 8.1875 62.378906 8.234375 C 62.246094 8.234375 62.132812 8.285156 62.039062 8.378906 C 61.945312 8.472656 61.898438 8.585938 61.894531 8.71875 C 61.898438 8.851562 61.945312 8.960938 62.039062 9.054688 C 62.132812 9.148438 62.246094 9.195312 62.378906 9.195312 C 63.582031 9.152344 64.785156 9.09375 65.988281 9.117188 C 66.121094 9.117188 66.234375 9.070312 66.328125 8.976562 C 66.425781 8.882812 66.472656 8.769531 66.472656 8.636719 C 66.472656 8.503906 66.425781 8.390625 66.332031 8.296875 C 66.234375 8.199219 66.121094 8.152344 65.988281 8.152344 Z M 65.988281 8.152344 " fill-opacity="1" fill-rule="nonzero"/></g><path fill="#2d2323" d="M 50.167969 34.246094 C 55.09375 34.351562 60.027344 34.289062 64.953125 34.246094 C 66.214844 34.246094 67.484375 34.277344 68.75 34.21875 C 70.070312 34.160156 71.394531 34.121094 72.71875 34.109375 C 74.058594 34.109375 75.394531 34.085938 76.730469 34.050781 C 77.398438 34.03125 78.085938 34.007812 78.746094 34 C 79.269531 34 79.9375 34.105469 80.421875 33.851562 C 80.851562 33.621094 80.960938 33.183594 80.914062 32.730469 C 80.859375 32.105469 80.855469 31.46875 80.847656 30.835938 C 80.839844 30.203125 80.828125 29.539062 80.828125 28.886719 C 80.828125 28.304688 80.941406 27.695312 80.808594 27.117188 C 80.5625 26.058594 79.234375 26.234375 78.414062 26.269531 C 77.09375 26.320312 75.769531 26.363281 74.449219 26.390625 C 69.078125 26.496094 63.703125 26.535156 58.328125 26.613281 C 55.65625 26.65625 52.972656 26.613281 50.300781 26.71875 C 49.820312 26.738281 49.296875 26.71875 48.890625 27.007812 C 48.550781 27.277344 48.371094 27.628906 48.347656 28.0625 C 48.328125 28.4375 48.328125 28.8125 48.347656 29.1875 C 48.347656 29.847656 48.347656 30.511719 48.347656 31.175781 L 48.347656 33.160156 C 48.359375 33.289062 48.410156 33.394531 48.503906 33.480469 C 48.597656 33.566406 48.707031 33.609375 48.832031 33.609375 C 48.960938 33.609375 49.070312 33.566406 49.164062 33.480469 C 49.257812 33.394531 49.308594 33.289062 49.316406 33.160156 L 49.316406 29.460938 C 49.316406 29.058594 49.28125 28.648438 49.316406 28.253906 C 49.332031 28.011719 49.359375 27.792969 49.617188 27.730469 C 49.867188 27.699219 50.113281 27.683594 50.363281 27.691406 C 50.695312 27.691406 51.027344 27.671875 51.363281 27.664062 C 51.984375 27.664062 52.601562 27.648438 53.226562 27.644531 C 54.476562 27.644531 55.726562 27.632812 56.972656 27.609375 C 62.035156 27.53125 67.097656 27.492188 72.15625 27.40625 C 73.4375 27.386719 74.714844 27.359375 75.996094 27.328125 C 77.140625 27.304688 78.292969 27.203125 79.441406 27.230469 C 79.535156 27.230469 79.730469 27.210938 79.816406 27.269531 C 79.898438 27.328125 79.890625 27.640625 79.894531 27.773438 C 79.894531 28.339844 79.855469 28.910156 79.859375 29.480469 L 79.882812 31.375 C 79.882812 31.644531 79.882812 31.917969 79.902344 32.1875 C 79.902344 32.332031 79.914062 32.476562 79.929688 32.625 C 79.929688 32.691406 79.996094 32.941406 79.960938 32.996094 C 79.921875 33.050781 79.859375 33.039062 79.792969 33.042969 C 79.46875 33.066406 79.132812 33.042969 78.808594 33.042969 C 78.179688 33.042969 77.550781 33.070312 76.925781 33.089844 C 75.675781 33.125 74.425781 33.144531 73.179688 33.152344 C 70.714844 33.167969 68.253906 33.285156 65.789062 33.285156 C 61.195312 33.285156 56.601562 33.367188 52.007812 33.3125 C 51.394531 33.3125 50.78125 33.296875 50.167969 33.285156 C 49.550781 33.269531 49.542969 34.238281 50.167969 34.25 Z M 50.167969 34.246094 " fill-opacity="1" fill-rule="nonzero"/><path fill="#2d2323" d="M 76.664062 29.089844 C 70.460938 29.257812 64.265625 29.449219 58.0625 29.511719 C 56.21875 29.53125 54.378906 29.539062 52.535156 29.539062 C 52.269531 29.539062 52.039062 29.632812 51.851562 29.820312 C 51.664062 30.007812 51.566406 30.238281 51.566406 30.503906 C 51.566406 30.769531 51.664062 31 51.851562 31.1875 C 52.039062 31.375 52.269531 31.46875 52.535156 31.46875 C 58.828125 31.46875 65.117188 31.335938 71.410156 31.167969 L 76.664062 31.027344 C 76.921875 31.011719 77.136719 30.914062 77.316406 30.726562 C 77.492188 30.539062 77.582031 30.316406 77.582031 30.058594 C 77.582031 29.800781 77.492188 29.578125 77.316406 29.390625 C 77.136719 29.203125 76.921875 29.105469 76.664062 29.089844 Z M 76.664062 29.089844 " fill-opacity="1" fill-rule="nonzero"/><path fill="#2d2323" d="M 54.429688 44.398438 C 53.617188 44.398438 52.828125 44.398438 52.027344 44.4375 C 51.632812 44.453125 51.238281 44.472656 50.839844 44.496094 C 50.5 44.5 50.171875 44.578125 49.863281 44.726562 C 49.191406 45.109375 49.148438 45.914062 49.085938 46.601562 C 49.019531 47.386719 49.011719 48.175781 49.066406 48.964844 C 49.066406 49.097656 49.117188 49.210938 49.210938 49.304688 C 49.304688 49.398438 49.417969 49.445312 49.550781 49.449219 C 49.683594 49.449219 49.796875 49.398438 49.890625 49.304688 C 49.984375 49.210938 50.035156 49.097656 50.035156 48.964844 C 49.988281 48.269531 49.988281 47.578125 50.035156 46.882812 C 50.046875 46.574219 50.078125 46.269531 50.128906 45.96875 C 50.175781 45.765625 50.226562 45.605469 50.433594 45.527344 C 50.703125 45.460938 50.972656 45.429688 51.246094 45.441406 C 51.601562 45.421875 51.953125 45.40625 52.300781 45.394531 C 53.007812 45.367188 53.710938 45.359375 54.417969 45.363281 C 54.542969 45.355469 54.648438 45.304688 54.738281 45.210938 C 54.824219 45.117188 54.867188 45.007812 54.867188 44.882812 C 54.867188 44.753906 54.824219 44.644531 54.738281 44.550781 C 54.648438 44.457031 54.542969 44.40625 54.417969 44.398438 Z M 54.429688 44.398438 " fill-opacity="1" fill-rule="nonzero"/><path fill="#2d2323" d="M 49.050781 50.394531 C 48.996094 55.933594 49.074219 61.46875 49.28125 67 C 49.339844 68.574219 49.410156 70.148438 49.488281 71.722656 C 49.519531 72.34375 50.488281 72.34375 50.457031 71.722656 C 50.175781 66.191406 50.027344 60.65625 50.007812 55.121094 C 50.007812 53.546875 50.007812 51.972656 50.007812 50.394531 C 50.007812 49.777344 49.046875 49.773438 49.039062 50.394531 Z M 49.050781 50.394531 " fill-opacity="1" fill-rule="nonzero"/><path fill="#2d2323" d="M 78.832031 69.945312 C 78.875 70.507812 78.863281 71.070312 78.804688 71.628906 C 78.777344 71.894531 78.734375 72.15625 78.675781 72.414062 C 78.660156 72.507812 78.628906 72.597656 78.585938 72.683594 C 78.554688 72.710938 78.523438 72.734375 78.484375 72.75 C 78.308594 72.800781 78.125 72.828125 77.941406 72.824219 L 77.078125 72.878906 L 75.3125 72.988281 C 75.179688 72.988281 75.066406 73.039062 74.972656 73.132812 C 74.878906 73.226562 74.832031 73.339844 74.828125 73.472656 C 74.832031 73.601562 74.878906 73.714844 74.972656 73.808594 C 75.066406 73.902344 75.179688 73.953125 75.3125 73.953125 L 77.273438 73.832031 C 77.835938 73.796875 78.523438 73.851562 79.027344 73.558594 C 79.589844 73.226562 79.648438 72.507812 79.730469 71.921875 C 79.820312 71.261719 79.839844 70.601562 79.792969 69.9375 C 79.789062 69.804688 79.738281 69.691406 79.644531 69.597656 C 79.550781 69.503906 79.4375 69.457031 79.304688 69.453125 C 79.171875 69.453125 79.058594 69.503906 78.964844 69.597656 C 78.871094 69.691406 78.824219 69.804688 78.824219 69.9375 Z M 78.832031 69.945312 " fill-opacity="1" fill-rule="nonzero"/><path fill="#2d2323" d="M 50.515625 73.886719 C 56.679688 73.808594 62.847656 73.976562 69.011719 74.003906 C 70.609375 74.003906 72.207031 74.003906 73.800781 73.984375 C 74.421875 73.984375 74.425781 73.011719 73.800781 73.019531 C 67.636719 73.109375 61.46875 72.941406 55.304688 72.90625 C 53.707031 72.90625 52.113281 72.90625 50.515625 72.90625 C 49.890625 72.90625 49.890625 73.882812 50.515625 73.875 Z M 50.515625 73.886719 " fill-opacity="1" fill-rule="nonzero"/><path fill="#2d2323" d="M 56.148438 45.351562 C 62.039062 45.289062 67.925781 45.238281 73.8125 45.238281 C 75.21875 45.238281 76.628906 45.242188 78.035156 45.253906 C 78.273438 45.230469 78.484375 45.292969 78.671875 45.441406 C 78.859375 45.585938 78.972656 45.777344 79.007812 46.011719 C 79.03125 46.339844 79.03125 46.667969 79.007812 46.996094 C 78.96875 50.316406 78.945312 53.640625 78.933594 56.964844 C 78.917969 60.71875 78.917969 64.464844 78.933594 68.214844 C 78.941406 68.339844 78.992188 68.449219 79.085938 68.535156 C 79.179688 68.621094 79.289062 68.664062 79.414062 68.664062 C 79.542969 68.664062 79.652344 68.621094 79.746094 68.535156 C 79.839844 68.449219 79.890625 68.339844 79.898438 68.214844 C 79.867188 61.34375 79.886719 54.472656 79.960938 47.601562 C 79.960938 46.640625 80.15625 45.457031 79.347656 44.746094 C 78.832031 44.292969 78.230469 44.285156 77.582031 44.285156 L 75.429688 44.285156 C 72.371094 44.285156 69.308594 44.292969 66.246094 44.308594 C 62.878906 44.332031 59.507812 44.359375 56.136719 44.394531 C 55.515625 44.394531 55.511719 45.371094 56.136719 45.363281 Z M 56.148438 45.351562 " fill-opacity="1" fill-rule="nonzero"/><path fill="#2d2323" d="M 65.117188 53.046875 C 63.925781 52.421875 62.082031 51.46875 62.15625 49.878906 C 62.15625 49.71875 62.191406 49.5625 62.261719 49.417969 C 62.328125 49.269531 62.421875 49.140625 62.542969 49.035156 C 62.664062 48.925781 62.800781 48.847656 62.953125 48.796875 C 63.109375 48.75 63.265625 48.730469 63.425781 48.746094 C 63.96875 48.824219 64.210938 49.234375 64.453125 49.667969 C 64.496094 49.742188 64.554688 49.796875 64.628906 49.839844 C 64.703125 49.882812 64.785156 49.902344 64.867188 49.902344 C 64.953125 49.902344 65.035156 49.882812 65.109375 49.839844 C 65.183594 49.796875 65.242188 49.742188 65.285156 49.667969 C 65.5 49.222656 65.75 48.820312 66.289062 48.746094 C 66.449219 48.730469 66.609375 48.746094 66.761719 48.796875 C 66.914062 48.847656 67.054688 48.925781 67.171875 49.035156 C 67.292969 49.140625 67.386719 49.269531 67.457031 49.417969 C 67.523438 49.5625 67.554688 49.71875 67.558594 49.878906 C 67.632812 51.46875 65.789062 52.421875 64.597656 53.046875 C 64.054688 53.335938 64.535156 54.171875 65.085938 53.882812 C 66.734375 53.015625 69.039062 51.542969 68.449219 49.332031 C 68.382812 49.09375 68.277344 48.871094 68.132812 48.667969 C 67.992188 48.464844 67.816406 48.292969 67.609375 48.152344 C 67.40625 48.011719 67.183594 47.910156 66.941406 47.847656 C 66.699219 47.785156 66.457031 47.765625 66.207031 47.789062 C 65.355469 47.890625 64.804688 48.445312 64.453125 49.179688 L 65.277344 49.179688 C 65.144531 48.90625 64.976562 48.652344 64.78125 48.421875 C 64.519531 48.148438 64.207031 47.960938 63.84375 47.855469 C 63.480469 47.753906 63.113281 47.746094 62.75 47.84375 C 62.382812 47.9375 62.066406 48.117188 61.796875 48.382812 C 61.53125 48.652344 61.351562 48.96875 61.253906 49.332031 C 60.664062 51.542969 62.96875 53.015625 64.617188 53.882812 C 65.160156 54.167969 65.65625 53.339844 65.105469 53.046875 Z M 65.117188 53.046875 " fill-opacity="1" fill-rule="nonzero"/><path fill="#2d2323" d="M 53.214844 68.609375 C 53.066406 66.082031 52.992188 63.5625 53 61.050781 C 52.96875 60.039062 52.996094 59.03125 53.074219 58.027344 C 53.066406 57.78125 53.113281 57.546875 53.214844 57.324219 C 53.3125 57.183594 53.445312 57.113281 53.617188 57.105469 C 53.925781 57.082031 54.25 57.105469 54.558594 57.105469 C 59.648438 57.105469 64.738281 57.085938 69.832031 57.082031 L 73.605469 57.082031 C 74.125 57.082031 74.632812 57.082031 75.148438 57.042969 C 75.238281 57.042969 75.527344 56.988281 75.582031 57.03125 C 75.640625 57.074219 75.644531 57.273438 75.648438 57.359375 C 75.6875 58.472656 75.648438 59.597656 75.667969 60.710938 L 75.710938 64.46875 L 75.734375 66.417969 C 75.734375 66.941406 75.875 67.527344 75.789062 68.042969 C 75.730469 68.414062 75.46875 68.464844 75.132812 68.484375 C 74.703125 68.507812 74.269531 68.484375 73.84375 68.484375 C 71.300781 68.535156 68.753906 68.550781 66.207031 68.550781 C 62.226562 68.550781 58.25 68.667969 54.277344 68.570312 C 54.007812 68.570312 53.3125 68.667969 53.171875 68.351562 C 52.898438 67.785156 52.085938 68.277344 52.335938 68.839844 C 52.550781 69.3125 53.058594 69.464844 53.535156 69.511719 C 54.140625 69.570312 54.757812 69.550781 55.363281 69.5625 C 56.601562 69.585938 57.839844 69.597656 59.078125 69.59375 C 61.101562 69.59375 63.121094 69.535156 65.148438 69.519531 C 67.648438 69.503906 70.148438 69.519531 72.652344 69.472656 C 73.273438 69.472656 73.898438 69.4375 74.519531 69.441406 C 74.929688 69.46875 75.335938 69.441406 75.742188 69.355469 C 76.238281 69.230469 76.558594 68.921875 76.699219 68.429688 C 76.859375 67.886719 76.722656 67.300781 76.714844 66.742188 C 76.664062 64.035156 76.644531 61.328125 76.617188 58.621094 C 76.617188 57.839844 76.886719 56.363281 75.847656 56.097656 C 75.453125 55.996094 75.035156 56.097656 74.625 56.113281 C 73.933594 56.128906 73.234375 56.113281 72.535156 56.113281 C 67.082031 56.113281 61.632812 56.144531 56.179688 56.140625 L 54.09375 56.140625 C 53.550781 56.140625 53.007812 56.140625 52.589844 56.558594 C 52.117188 57.03125 52.097656 57.796875 52.0625 58.429688 C 51.984375 59.78125 52.023438 61.15625 52.035156 62.515625 C 52.050781 63.871094 52.085938 65.238281 52.144531 66.597656 C 52.175781 67.265625 52.207031 67.9375 52.25 68.601562 C 52.285156 69.222656 53.253906 69.222656 53.214844 68.601562 Z M 53.214844 68.609375 " fill-opacity="1" fill-rule="nonzero"/><path fill="#faf1e8" d="M 50.175781 37.367188 C 50.195312 38.589844 50.21875 39.8125 50.246094 41.035156 C 50.226562 41.320312 50.242188 41.597656 50.300781 41.878906 C 50.355469 42.035156 50.457031 42.15625 50.601562 42.238281 C 50.746094 42.324219 50.902344 42.351562 51.066406 42.324219 L 52.90625 42.230469 C 53.035156 42.230469 53.148438 42.179688 53.242188 42.089844 C 53.335938 41.996094 53.386719 41.882812 53.390625 41.75 C 53.386719 41.617188 53.339844 41.503906 53.246094 41.410156 C 53.152344 41.316406 53.039062 41.265625 52.90625 41.265625 L 51.851562 41.316406 C 51.523438 41.359375 51.195312 41.371094 50.863281 41.355469 L 51.105469 41.421875 L 51.121094 41.421875 L 51.242188 41.632812 C 51.214844 41.492188 51.207031 41.347656 51.21875 41.199219 C 51.21875 41.023438 51.21875 40.847656 51.21875 40.660156 L 51.175781 39.578125 C 51.160156 38.839844 51.148438 38.105469 51.136719 37.367188 C 51.136719 36.75 50.15625 36.746094 50.167969 37.367188 Z M 50.175781 37.367188 " fill-opacity="1" fill-rule="nonzero"/><path fill="#faf1e8" d="M 56.183594 36.949219 C 55.890625 36.933594 55.601562 36.925781 55.308594 36.925781 C 55.027344 36.910156 54.746094 36.933594 54.46875 36.992188 C 53.839844 37.191406 53.925781 38.015625 53.910156 38.539062 C 53.886719 39.707031 54.015625 40.855469 54.296875 41.988281 C 54.363281 42.222656 54.519531 42.339844 54.765625 42.34375 C 55.304688 42.328125 55.824219 42.296875 56.351562 42.253906 C 56.484375 42.25 56.597656 42.203125 56.691406 42.109375 C 56.785156 42.015625 56.832031 41.902344 56.835938 41.769531 C 56.835938 41.636719 56.789062 41.523438 56.695312 41.429688 C 56.597656 41.335938 56.484375 41.289062 56.351562 41.289062 C 55.8125 41.332031 55.292969 41.359375 54.765625 41.378906 L 55.242188 41.730469 C 55.015625 40.824219 54.890625 39.90625 54.875 38.972656 C 54.875 38.742188 54.875 38.519531 54.875 38.292969 C 54.875 38.175781 54.875 38.0625 54.898438 37.953125 C 54.898438 37.953125 54.898438 37.742188 54.914062 37.742188 C 54.871094 37.804688 54.828125 37.863281 54.773438 37.914062 C 54.976562 37.933594 55.183594 37.933594 55.386719 37.914062 C 55.648438 37.914062 55.910156 37.921875 56.175781 37.9375 C 56.308594 37.9375 56.421875 37.890625 56.515625 37.796875 C 56.613281 37.703125 56.660156 37.589844 56.660156 37.453125 C 56.660156 37.320312 56.613281 37.207031 56.515625 37.113281 C 56.421875 37.019531 56.308594 36.96875 56.175781 36.96875 Z M 56.183594 36.949219 " fill-opacity="1" fill-rule="nonzero"/><path fill="#faf1e8" d="M 54.632812 40.277344 L 55.855469 40.238281 C 55.988281 40.238281 56.101562 40.191406 56.195312 40.097656 C 56.285156 40 56.332031 39.886719 56.328125 39.753906 C 56.324219 39.625 56.277344 39.511719 56.183594 39.417969 C 56.089844 39.324219 55.976562 39.273438 55.84375 39.269531 L 54.625 39.3125 C 54.492188 39.3125 54.378906 39.359375 54.28125 39.453125 C 54.140625 39.605469 54.109375 39.777344 54.191406 39.96875 C 54.273438 40.160156 54.414062 40.257812 54.625 40.265625 Z M 54.632812 40.277344 " fill-opacity="1" fill-rule="nonzero"/><path fill="#faf1e8" d="M 60.238281 37.207031 C 59.265625 37.144531 58.300781 37.183594 57.335938 37.316406 C 57.207031 37.351562 57.109375 37.429688 57.046875 37.546875 C 56.980469 37.660156 56.964844 37.785156 57 37.914062 C 57.039062 38.039062 57.113281 38.132812 57.230469 38.199219 C 57.34375 38.265625 57.464844 38.28125 57.59375 38.25 L 57.679688 38.25 L 57.871094 38.230469 L 58.195312 38.195312 C 58.421875 38.175781 58.648438 38.167969 58.878906 38.160156 C 59.328125 38.160156 59.785156 38.160156 60.234375 38.183594 C 60.367188 38.183594 60.480469 38.136719 60.574219 38.042969 C 60.667969 37.949219 60.714844 37.835938 60.714844 37.703125 C 60.710938 37.570312 60.664062 37.457031 60.570312 37.363281 C 60.476562 37.269531 60.363281 37.21875 60.234375 37.214844 Z M 60.238281 37.207031 " fill-opacity="1" fill-rule="nonzero"/><path fill="#faf1e8" d="M 58.535156 37.746094 C 58.503906 39.042969 58.550781 40.335938 58.683594 41.625 C 58.6875 41.757812 58.738281 41.871094 58.832031 41.964844 C 58.925781 42.058594 59.039062 42.105469 59.171875 42.109375 C 59.304688 42.105469 59.417969 42.058594 59.511719 41.964844 C 59.605469 41.871094 59.652344 41.757812 59.652344 41.625 C 59.519531 40.335938 59.472656 39.042969 59.503906 37.746094 C 59.519531 37.121094 58.550781 37.121094 58.535156 37.746094 Z M 58.535156 37.746094 " fill-opacity="1" fill-rule="nonzero"/><path fill="#faf1e8" d="M 64.558594 36.996094 L 62.292969 36.996094 C 62.027344 36.976562 61.769531 37 61.511719 37.074219 C 61.386719 37.109375 61.289062 37.1875 61.222656 37.304688 C 61.15625 37.417969 61.140625 37.539062 61.171875 37.667969 C 61.210938 37.796875 61.289062 37.890625 61.402344 37.957031 C 61.519531 38.023438 61.640625 38.039062 61.769531 38.003906 L 61.863281 37.976562 L 62.023438 37.976562 C 62.140625 37.976562 62.261719 37.976562 62.382812 37.976562 L 64.550781 37.976562 C 64.679688 37.964844 64.785156 37.914062 64.871094 37.820312 C 64.957031 37.726562 65 37.617188 65 37.492188 C 65 37.363281 64.957031 37.253906 64.871094 37.160156 C 64.785156 37.070312 64.679688 37.019531 64.550781 37.007812 Z M 64.558594 36.996094 " fill-opacity="1" fill-rule="nonzero"/><path fill="#faf1e8" d="M 62.679688 37.710938 C 62.570312 38.960938 62.570312 40.210938 62.679688 41.464844 C 62.679688 41.59375 62.730469 41.707031 62.824219 41.800781 C 62.917969 41.894531 63.027344 41.941406 63.160156 41.945312 C 63.292969 41.945312 63.40625 41.898438 63.503906 41.804688 C 63.597656 41.710938 63.644531 41.597656 63.644531 41.464844 C 63.539062 40.210938 63.539062 38.960938 63.644531 37.710938 C 63.644531 37.578125 63.597656 37.464844 63.503906 37.371094 C 63.410156 37.277344 63.296875 37.226562 63.164062 37.226562 C 63.03125 37.230469 62.917969 37.277344 62.824219 37.371094 C 62.730469 37.464844 62.683594 37.578125 62.679688 37.710938 Z M 62.679688 37.710938 " fill-opacity="1" fill-rule="nonzero"/><path fill="#faf1e8" d="M 68.640625 37.15625 L 67.410156 37.058594 L 66.839844 37.015625 C 66.601562 36.957031 66.371094 36.976562 66.144531 37.070312 C 65.773438 37.289062 65.84375 37.832031 65.832031 38.203125 L 65.777344 39.421875 L 65.726562 40.636719 C 65.726562 40.980469 65.625 41.394531 65.824219 41.699219 C 66.074219 42.074219 66.585938 42.011719 66.976562 42.027344 L 68.210938 42.070312 C 68.832031 42.089844 68.832031 41.125 68.210938 41.105469 L 66.769531 41.050781 C 66.707031 41.050781 66.472656 41.007812 66.429688 41.050781 C 66.386719 41.097656 66.703125 41.226562 66.667969 41.265625 C 66.683594 41.25 66.667969 41.15625 66.667969 41.128906 L 66.703125 40.402344 L 66.761719 39.023438 L 66.792969 38.292969 L 66.804688 37.972656 L 66.804688 37.769531 C 66.804688 37.746094 66.828125 37.621094 66.804688 37.667969 L 66.679688 37.882812 L 66.710938 37.84375 L 66.5 37.964844 C 66.660156 37.960938 66.820312 37.972656 66.980469 38.003906 L 67.523438 38.046875 L 68.628906 38.132812 C 68.761719 38.132812 68.875 38.085938 68.96875 37.992188 C 69.066406 37.898438 69.113281 37.785156 69.113281 37.652344 C 69.113281 37.519531 69.0625 37.40625 68.96875 37.3125 C 68.875 37.21875 68.761719 37.171875 68.628906 37.167969 Z M 68.640625 37.15625 " fill-opacity="1" fill-rule="nonzero"/><path fill="#faf1e8" d="M 66.46875 40.054688 L 67.523438 40.011719 C 67.65625 40.007812 67.769531 39.960938 67.863281 39.871094 C 68.007812 39.71875 68.039062 39.546875 67.957031 39.351562 C 67.878906 39.160156 67.730469 39.0625 67.523438 39.058594 L 66.46875 39.097656 C 66.335938 39.101562 66.222656 39.148438 66.125 39.238281 C 66.03125 39.332031 65.984375 39.449219 65.984375 39.582031 C 65.984375 39.714844 66.03125 39.828125 66.125 39.921875 C 66.222656 40.015625 66.335938 40.0625 66.46875 40.0625 Z M 66.46875 40.054688 " fill-opacity="1" fill-rule="nonzero"/><path fill="#faf1e8" d="M 70.808594 41.726562 C 70.824219 41.035156 70.851562 40.34375 70.898438 39.652344 C 70.921875 39.316406 70.949219 38.976562 70.976562 38.640625 C 70.992188 38.46875 71.007812 38.300781 71.023438 38.132812 L 71.046875 37.878906 C 71.046875 37.835938 71.101562 37.710938 71.046875 37.785156 L 70.875 37.957031 C 70.832031 37.976562 70.855469 37.976562 70.9375 37.957031 L 71.089844 37.929688 C 71.164062 37.917969 71.242188 37.910156 71.316406 37.90625 C 71.480469 37.890625 71.636719 37.910156 71.789062 37.964844 C 71.992188 38.035156 72.089844 38.175781 72.082031 38.390625 C 72.078125 38.605469 71.984375 38.777344 71.808594 38.898438 C 71.5625 39.066406 71.289062 39.125 70.996094 39.078125 C 70.78125 39.078125 70.632812 39.179688 70.550781 39.375 C 70.464844 39.578125 70.5 39.757812 70.652344 39.917969 C 71.238281 40.617188 71.859375 41.285156 72.515625 41.917969 C 72.960938 42.351562 73.644531 41.667969 73.199219 41.234375 C 72.542969 40.601562 71.921875 39.933594 71.335938 39.234375 L 70.996094 40.046875 C 71.339844 40.082031 71.667969 40.03125 71.984375 39.894531 C 72.296875 39.757812 72.558594 39.550781 72.765625 39.277344 C 72.960938 39 73.050781 38.6875 73.035156 38.351562 C 73.023438 38.011719 72.90625 37.710938 72.691406 37.449219 C 72.171875 36.867188 71.335938 36.878906 70.628906 37.035156 C 70.148438 37.140625 70.105469 37.515625 70.0625 37.929688 C 70.023438 38.34375 69.988281 38.714844 69.953125 39.113281 C 69.886719 39.984375 69.847656 40.855469 69.828125 41.734375 C 69.8125 42.355469 70.78125 42.355469 70.796875 41.734375 Z M 70.808594 41.726562 " fill-opacity="1" fill-rule="nonzero"/><path fill="#faf1e8" d="M 77.746094 37.226562 C 77.488281 36.941406 77.171875 36.757812 76.796875 36.675781 C 76.421875 36.59375 76.054688 36.628906 75.703125 36.777344 C 75.019531 37.074219 74.496094 37.886719 74.660156 38.644531 C 74.839844 39.484375 75.894531 39.613281 76.574219 39.824219 C 76.863281 39.886719 77.085938 40.046875 77.242188 40.296875 C 77.3125 40.453125 77.230469 40.601562 77.0625 40.730469 C 76.566406 41.105469 75.574219 41.222656 75.234375 40.59375 C 74.9375 40.054688 74.101562 40.53125 74.394531 41.082031 C 74.8125 41.851562 75.707031 42.085938 76.523438 41.957031 C 77.21875 41.84375 78.046875 41.429688 78.203125 40.671875 C 78.375 39.832031 77.691406 39.199219 76.964844 38.9375 C 76.625 38.8125 76.253906 38.769531 75.917969 38.632812 C 75.839844 38.601562 75.648438 38.53125 75.609375 38.449219 C 75.585938 38.324219 75.605469 38.207031 75.664062 38.097656 C 75.71875 37.960938 75.804688 37.851562 75.921875 37.761719 C 76.035156 37.675781 76.164062 37.621094 76.308594 37.601562 C 76.453125 37.582031 76.59375 37.597656 76.726562 37.65625 C 76.859375 37.710938 76.972656 37.792969 77.0625 37.910156 C 77.480469 38.371094 78.160156 37.6875 77.746094 37.226562 Z M 77.746094 37.226562 " fill-opacity="1" fill-rule="nonzero"/><path fill="#2d2323" d="M 67.339844 58.246094 C 66.941406 58.210938 66.546875 58.230469 66.152344 58.300781 C 66.027344 58.335938 65.929688 58.410156 65.863281 58.523438 C 65.796875 58.640625 65.78125 58.761719 65.8125 58.890625 C 65.847656 59.019531 65.921875 59.117188 66.039062 59.183594 L 66.152344 59.234375 C 66.238281 59.257812 66.324219 59.257812 66.410156 59.234375 L 66.550781 59.210938 L 66.425781 59.226562 C 66.730469 59.191406 67.035156 59.183594 67.339844 59.210938 C 67.554688 59.210938 67.703125 59.109375 67.785156 58.914062 C 67.867188 58.714844 67.835938 58.539062 67.683594 58.386719 C 67.585938 58.296875 67.472656 58.25 67.339844 58.246094 Z M 67.339844 58.246094 " fill-opacity="1" fill-rule="nonzero"/><path fill="#2d2323" d="M 56.386719 58.890625 C 56 58.5 55.449219 58.242188 54.910156 58.503906 C 54.417969 58.746094 54.203125 59.484375 54.308594 59.992188 C 54.414062 60.5 54.851562 60.804688 55.234375 61.097656 L 55.292969 61.144531 L 55.355469 61.191406 L 55.410156 61.242188 C 55.445312 61.273438 55.480469 61.308594 55.515625 61.34375 C 55.53125 61.363281 55.550781 61.378906 55.5625 61.398438 C 55.535156 61.359375 55.5625 61.398438 55.5625 61.417969 C 55.5625 61.4375 55.617188 61.539062 55.597656 61.476562 C 55.597656 61.511719 55.617188 61.605469 55.617188 61.527344 C 55.617188 61.5625 55.597656 61.652344 55.617188 61.574219 L 55.597656 61.640625 C 55.582031 61.710938 55.628906 61.585938 55.597656 61.640625 C 55.570312 61.695312 55.511719 61.765625 55.5625 61.707031 C 55.546875 61.726562 55.53125 61.738281 55.515625 61.757812 C 55.5 61.773438 55.570312 61.722656 55.515625 61.757812 L 55.457031 61.789062 C 55.5 61.765625 55.484375 61.789062 55.457031 61.789062 C 55.433594 61.789062 55.378906 61.789062 55.433594 61.789062 C 55.488281 61.789062 55.398438 61.789062 55.386719 61.789062 L 55.40625 61.789062 L 55.320312 61.765625 C 55.394531 61.785156 55.28125 61.746094 55.253906 61.730469 C 55.226562 61.714844 55.253906 61.730469 55.253906 61.730469 C 55.234375 61.707031 55.210938 61.6875 55.191406 61.664062 C 55.191406 61.664062 55.226562 61.722656 55.191406 61.664062 C 55.15625 61.605469 55.15625 61.597656 55.140625 61.5625 C 55.074219 61.449219 54.976562 61.375 54.847656 61.339844 C 54.71875 61.304688 54.59375 61.324219 54.480469 61.390625 C 54.367188 61.460938 54.292969 61.558594 54.257812 61.6875 C 54.226562 61.8125 54.242188 61.9375 54.304688 62.050781 C 54.417969 62.285156 54.585938 62.464844 54.816406 62.585938 C 55.042969 62.710938 55.285156 62.753906 55.542969 62.71875 C 55.796875 62.683594 56.019531 62.578125 56.207031 62.398438 C 56.394531 62.21875 56.507812 62 56.554688 61.746094 C 56.589844 61.488281 56.554688 61.238281 56.449219 61 C 56.34375 60.761719 56.183594 60.566406 55.96875 60.417969 C 55.871094 60.339844 55.769531 60.265625 55.667969 60.191406 C 55.597656 60.144531 55.53125 60.09375 55.46875 60.039062 C 55.425781 60 55.386719 59.957031 55.34375 59.914062 C 55.304688 59.871094 55.308594 59.878906 55.296875 59.859375 C 55.28125 59.839844 55.324219 59.902344 55.296875 59.859375 C 55.265625 59.816406 55.234375 59.746094 55.246094 59.769531 C 55.253906 59.792969 55.226562 59.636719 55.246094 59.722656 C 55.25 59.605469 55.273438 59.492188 55.320312 59.382812 C 55.320312 59.382812 55.351562 59.304688 55.320312 59.34375 C 55.289062 59.382812 55.363281 59.28125 55.320312 59.320312 C 55.277344 59.359375 55.351562 59.292969 55.351562 59.292969 C 55.335938 59.3125 55.320312 59.320312 55.296875 59.324219 C 55.316406 59.324219 55.386719 59.3125 55.296875 59.324219 C 55.328125 59.324219 55.363281 59.324219 55.394531 59.324219 C 55.394531 59.324219 55.335938 59.324219 55.394531 59.324219 C 55.449219 59.324219 55.34375 59.296875 55.421875 59.324219 C 55.519531 59.375 55.601562 59.4375 55.671875 59.523438 C 55.769531 59.605469 55.878906 59.644531 56.007812 59.640625 C 56.136719 59.636719 56.242188 59.589844 56.332031 59.5 C 56.421875 59.410156 56.46875 59.300781 56.476562 59.171875 C 56.480469 59.046875 56.4375 58.933594 56.355469 58.839844 Z M 56.386719 58.890625 " fill-opacity="1" fill-rule="nonzero"/><path fill="#2d2323" d="M 58.636719 58.484375 C 58.367188 58.433594 58.09375 58.421875 57.824219 58.449219 C 57.484375 58.488281 57.132812 58.550781 57.007812 58.914062 C 56.945312 59.164062 56.917969 59.421875 56.917969 59.679688 C 56.917969 59.921875 56.898438 60.167969 56.894531 60.414062 C 56.867188 60.90625 56.921875 61.390625 57.0625 61.867188 C 57.171875 62.183594 57.332031 62.460938 57.714844 62.46875 C 57.957031 62.46875 58.199219 62.445312 58.441406 62.4375 C 58.574219 62.4375 58.6875 62.386719 58.785156 62.292969 C 58.878906 62.199219 58.925781 62.085938 58.925781 61.949219 C 58.925781 61.816406 58.878906 61.703125 58.785156 61.609375 C 58.6875 61.515625 58.574219 61.464844 58.441406 61.464844 L 58.039062 61.488281 L 57.753906 61.488281 L 57.773438 61.488281 L 57.988281 61.613281 C 58.023438 61.671875 58.03125 61.675781 58.003906 61.628906 C 58.003906 61.652344 58.003906 61.652344 58.003906 61.628906 C 58.003906 61.605469 57.972656 61.527344 57.957031 61.476562 C 57.9375 61.425781 57.925781 61.355469 57.914062 61.292969 C 57.914062 61.292969 57.890625 61.140625 57.898438 61.210938 C 57.875 60.980469 57.863281 60.753906 57.867188 60.523438 C 57.867188 60.28125 57.867188 60.035156 57.886719 59.792969 C 57.886719 59.675781 57.898438 59.558594 57.90625 59.441406 L 57.921875 59.265625 C 57.921875 59.226562 57.921875 59.1875 57.921875 59.148438 C 57.921875 59.183594 57.917969 59.21875 57.90625 59.253906 L 57.734375 59.425781 C 57.671875 59.441406 57.664062 59.445312 57.714844 59.425781 L 57.828125 59.402344 C 57.878906 59.394531 57.933594 59.390625 57.984375 59.386719 C 58.113281 59.382812 58.242188 59.386719 58.367188 59.402344 C 58.496094 59.4375 58.617188 59.417969 58.734375 59.355469 C 58.847656 59.289062 58.925781 59.191406 58.964844 59.066406 C 58.996094 58.9375 58.980469 58.816406 58.914062 58.699219 C 58.851562 58.585938 58.753906 58.507812 58.625 58.472656 Z M 58.636719 58.484375 " fill-opacity="1" fill-rule="nonzero"/><path fill="#2d2323" d="M 57.484375 60.980469 L 58.078125 60.9375 C 58.144531 60.941406 58.207031 60.929688 58.265625 60.898438 C 58.324219 60.878906 58.378906 60.847656 58.421875 60.796875 C 58.46875 60.753906 58.5 60.703125 58.523438 60.644531 C 58.550781 60.585938 58.566406 60.523438 58.5625 60.457031 C 58.5625 60.324219 58.515625 60.210938 58.421875 60.117188 C 58.328125 60.019531 58.214844 59.972656 58.078125 59.972656 L 57.484375 60.015625 C 57.417969 60.011719 57.355469 60.027344 57.300781 60.058594 C 57.238281 60.078125 57.1875 60.109375 57.144531 60.15625 C 57.054688 60.253906 57.007812 60.367188 57 60.5 C 57.003906 60.632812 57.050781 60.746094 57.144531 60.839844 C 57.238281 60.9375 57.351562 60.984375 57.484375 60.980469 Z M 57.484375 60.980469 " fill-opacity="1" fill-rule="nonzero"/><path fill="#2d2323" d="M 59.277344 59.113281 L 59.277344 61.878906 C 59.285156 62.003906 59.335938 62.109375 59.429688 62.195312 C 59.523438 62.285156 59.632812 62.328125 59.757812 62.328125 C 59.886719 62.328125 59.996094 62.285156 60.089844 62.195312 C 60.183594 62.109375 60.234375 62.003906 60.242188 61.878906 L 60.242188 59.113281 C 60.234375 58.984375 60.183594 58.878906 60.089844 58.792969 C 59.996094 58.707031 59.886719 58.664062 59.757812 58.664062 C 59.632812 58.664062 59.523438 58.707031 59.429688 58.792969 C 59.335938 58.878906 59.285156 58.984375 59.277344 59.113281 Z M 59.277344 59.113281 " fill-opacity="1" fill-rule="nonzero"/><path fill="#2d2323" d="M 61.0625 59.113281 C 61.085938 60.027344 61.0625 60.9375 60.988281 61.84375 C 60.988281 61.980469 61.039062 62.09375 61.132812 62.191406 C 61.230469 62.285156 61.34375 62.332031 61.480469 62.328125 C 61.613281 62.328125 61.726562 62.277344 61.820312 62.183594 C 61.914062 62.089844 61.960938 61.976562 61.964844 61.84375 C 62.039062 60.9375 62.0625 60.027344 62.039062 59.113281 C 62.050781 58.972656 62.007812 58.851562 61.910156 58.75 C 61.8125 58.644531 61.695312 58.59375 61.554688 58.59375 C 61.414062 58.59375 61.292969 58.644531 61.199219 58.75 C 61.101562 58.851562 61.058594 58.972656 61.070312 59.113281 Z M 61.0625 59.113281 " fill-opacity="1" fill-rule="nonzero"/><path fill="#2d2323" d="M 59.429688 59.414062 C 59.921875 60.34375 60.476562 61.234375 61.09375 62.085938 C 61.160156 62.203125 61.257812 62.277344 61.386719 62.308594 C 61.515625 62.34375 61.636719 62.328125 61.753906 62.257812 C 61.867188 62.191406 61.945312 62.09375 61.976562 61.964844 C 62.011719 61.835938 61.996094 61.714844 61.925781 61.597656 C 61.308594 60.746094 60.757812 59.851562 60.265625 58.921875 C 60.195312 58.808594 60.097656 58.734375 59.96875 58.703125 C 59.839844 58.667969 59.71875 58.683594 59.605469 58.75 C 59.492188 58.820312 59.417969 58.917969 59.382812 59.046875 C 59.351562 59.175781 59.367188 59.296875 59.429688 59.414062 Z M 59.429688 59.414062 " fill-opacity="1" fill-rule="nonzero"/><path fill="#2d2323" d="M 62.765625 58.980469 C 62.785156 59.957031 62.777344 60.933594 62.746094 61.910156 C 62.746094 62.042969 62.796875 62.15625 62.890625 62.25 C 62.984375 62.347656 63.097656 62.394531 63.230469 62.394531 C 63.363281 62.390625 63.476562 62.34375 63.570312 62.25 C 63.664062 62.15625 63.710938 62.042969 63.714844 61.910156 C 63.746094 60.933594 63.753906 59.957031 63.734375 58.980469 C 63.742188 58.839844 63.699219 58.71875 63.605469 58.617188 C 63.507812 58.511719 63.390625 58.460938 63.25 58.460938 C 63.109375 58.460938 62.988281 58.511719 62.894531 58.617188 C 62.796875 58.71875 62.753906 58.839844 62.765625 58.980469 Z M 62.765625 58.980469 " fill-opacity="1" fill-rule="nonzero"/><path fill="#2d2323" d="M 63.421875 59.4375 C 63.46875 59.425781 63.515625 59.414062 63.5625 59.40625 C 63.46875 59.40625 63.617188 59.40625 63.625 59.40625 C 63.710938 59.40625 63.625 59.40625 63.664062 59.40625 L 63.800781 59.445312 C 63.847656 59.445312 63.769531 59.421875 63.839844 59.457031 C 63.882812 59.480469 63.925781 59.503906 63.964844 59.53125 C 64.042969 59.578125 63.964844 59.503906 64.019531 59.574219 C 64.046875 59.605469 64.078125 59.628906 64.101562 59.660156 C 64.125 59.6875 64.167969 59.746094 64.132812 59.695312 C 64.160156 59.734375 64.183594 59.773438 64.207031 59.816406 C 64.230469 59.855469 64.253906 59.898438 64.273438 59.941406 C 64.238281 59.871094 64.273438 59.996094 64.292969 60.007812 C 64.3125 60.085938 64.332031 60.160156 64.34375 60.242188 C 64.328125 60.144531 64.34375 60.277344 64.34375 60.300781 C 64.34375 60.320312 64.34375 60.390625 64.34375 60.441406 C 64.34375 60.488281 64.34375 60.519531 64.34375 60.558594 L 64.34375 60.628906 C 64.34375 60.585938 64.34375 60.578125 64.34375 60.613281 C 64.332031 60.699219 64.308594 60.785156 64.285156 60.867188 C 64.285156 60.910156 64.253906 60.953125 64.238281 61 C 64.261719 60.9375 64.238281 61 64.21875 61.035156 C 64.175781 61.109375 64.132812 61.183594 64.085938 61.253906 C 64.007812 61.375 64.140625 61.199219 64.046875 61.308594 C 64.015625 61.34375 63.984375 61.378906 63.953125 61.410156 L 63.867188 61.492188 C 63.839844 61.511719 63.839844 61.511719 63.867188 61.492188 L 63.824219 61.519531 C 63.785156 61.546875 63.742188 61.570312 63.699219 61.589844 C 63.769531 61.558594 63.636719 61.609375 63.632812 61.609375 L 63.585938 61.609375 C 63.636719 61.609375 63.632812 61.609375 63.585938 61.609375 C 63.671875 61.652344 63.519531 61.589844 63.605469 61.609375 C 63.488281 61.546875 63.367188 61.53125 63.238281 61.566406 C 63.113281 61.597656 63.011719 61.671875 62.945312 61.785156 C 62.878906 61.898438 62.859375 62.019531 62.894531 62.148438 C 62.929688 62.277344 63.003906 62.375 63.117188 62.445312 C 64.335938 62.964844 65.285156 61.53125 65.332031 60.46875 C 65.359375 59.882812 65.179688 59.375 64.789062 58.9375 C 64.585938 58.71875 64.339844 58.566406 64.050781 58.484375 C 63.761719 58.40625 63.472656 58.402344 63.183594 58.484375 C 63.054688 58.519531 62.960938 58.597656 62.894531 58.714844 C 62.828125 58.832031 62.816406 58.957031 62.851562 59.085938 C 62.890625 59.214844 62.96875 59.308594 63.085938 59.375 C 63.203125 59.4375 63.328125 59.453125 63.457031 59.414062 Z M 63.421875 59.4375 " fill-opacity="1" fill-rule="nonzero"/><path fill="#2d2323" d="M 66.28125 59.210938 L 66.367188 61.484375 C 66.359375 61.625 66.398438 61.746094 66.496094 61.847656 C 66.59375 61.953125 66.710938 62.003906 66.851562 62.003906 C 66.992188 62.003906 67.113281 61.953125 67.207031 61.847656 C 67.304688 61.746094 67.347656 61.625 67.335938 61.484375 L 67.25 59.210938 C 67.261719 59.070312 67.21875 58.949219 67.121094 58.847656 C 67.023438 58.742188 66.90625 58.691406 66.765625 58.691406 C 66.625 58.691406 66.503906 58.742188 66.410156 58.847656 C 66.3125 58.949219 66.269531 59.070312 66.28125 59.210938 Z M 66.28125 59.210938 " fill-opacity="1" fill-rule="nonzero"/><path fill="#2d2323" d="M 66.382812 62.335938 L 67.46875 62.289062 C 67.601562 62.289062 67.71875 62.242188 67.8125 62.148438 C 67.953125 61.996094 67.984375 61.824219 67.902344 61.632812 C 67.820312 61.441406 67.675781 61.34375 67.46875 61.335938 L 66.382812 61.382812 C 66.253906 61.386719 66.136719 61.433594 66.042969 61.523438 C 65.949219 61.617188 65.902344 61.730469 65.902344 61.863281 C 65.902344 61.996094 65.949219 62.109375 66.042969 62.207031 C 66.136719 62.300781 66.25 62.347656 66.382812 62.347656 Z M 66.382812 62.335938 " fill-opacity="1" fill-rule="nonzero"/><path fill="#2d2323" d="M 68.402344 59.3125 C 68.46875 60.15625 68.488281 61 68.46875 61.84375 C 68.457031 61.984375 68.5 62.105469 68.597656 62.207031 C 68.695312 62.3125 68.8125 62.363281 68.953125 62.363281 C 69.09375 62.363281 69.214844 62.3125 69.308594 62.207031 C 69.40625 62.105469 69.449219 61.984375 69.4375 61.84375 C 69.460938 60.996094 69.4375 60.15625 69.371094 59.3125 C 69.378906 59.171875 69.335938 59.050781 69.242188 58.945312 C 69.144531 58.84375 69.027344 58.792969 68.886719 58.792969 C 68.746094 58.792969 68.625 58.84375 68.53125 58.945312 C 68.433594 59.050781 68.390625 59.171875 68.402344 59.3125 Z M 68.402344 59.3125 " fill-opacity="1" fill-rule="nonzero"/><path fill="#2d2323" d="M 70.371094 59.144531 C 70.390625 59.980469 70.355469 60.8125 70.265625 61.644531 C 70.265625 61.777344 70.316406 61.890625 70.410156 61.984375 C 70.503906 62.078125 70.617188 62.128906 70.753906 62.128906 C 70.882812 62.125 70.996094 62.074219 71.089844 61.984375 C 71.183594 61.890625 71.230469 61.777344 71.234375 61.644531 C 71.320312 60.8125 71.355469 59.980469 71.339844 59.144531 C 71.332031 59.019531 71.28125 58.910156 71.1875 58.824219 C 71.09375 58.738281 70.984375 58.695312 70.855469 58.695312 C 70.730469 58.695312 70.621094 58.738281 70.527344 58.824219 C 70.433594 58.910156 70.382812 59.019531 70.371094 59.144531 Z M 70.371094 59.144531 " fill-opacity="1" fill-rule="nonzero"/><path fill="#2d2323" d="M 68.542969 59.648438 C 69.082031 60.441406 69.667969 61.199219 70.292969 61.925781 C 70.390625 62.011719 70.503906 62.058594 70.632812 62.054688 C 70.765625 62.050781 70.875 62.003906 70.96875 61.914062 C 71.0625 61.820312 71.109375 61.707031 71.109375 61.578125 C 71.113281 61.449219 71.070312 61.335938 70.980469 61.238281 C 70.828125 61.078125 70.683594 60.914062 70.546875 60.742188 L 70.441406 60.609375 C 70.40625 60.566406 70.417969 60.585938 70.441406 60.609375 L 70.382812 60.53125 L 70.171875 60.257812 C 69.902344 59.894531 69.648438 59.523438 69.375 59.164062 C 69.304688 59.054688 69.210938 58.980469 69.085938 58.941406 C 68.875 58.882812 68.707031 58.941406 68.574219 59.113281 C 68.445312 59.285156 68.433594 59.464844 68.542969 59.648438 Z M 68.542969 59.648438 " fill-opacity="1" fill-rule="nonzero"/><path fill="#2d2323" d="M 73.304688 61.410156 C 73.441406 61.410156 73.578125 61.410156 73.714844 61.410156 C 73.792969 61.417969 73.871094 61.417969 73.949219 61.410156 C 73.898438 61.441406 73.8125 61.296875 73.792969 61.265625 C 73.808594 61.289062 73.792969 61.351562 73.792969 61.265625 C 73.792969 61.289062 73.792969 61.308594 73.792969 61.332031 C 73.808594 61.394531 73.816406 61.261719 73.792969 61.332031 C 73.792969 61.351562 73.792969 61.371094 73.792969 61.394531 C 73.792969 61.414062 73.777344 61.449219 73.765625 61.476562 C 73.757812 61.5 73.800781 61.417969 73.765625 61.457031 C 73.75 61.480469 73.734375 61.503906 73.722656 61.527344 C 73.683594 61.589844 73.792969 61.457031 73.703125 61.550781 C 73.667969 61.589844 73.632812 61.625 73.597656 61.660156 L 73.519531 61.707031 L 73.445312 61.75 C 73.445312 61.75 73.375 61.777344 73.421875 61.75 C 73.472656 61.71875 73.386719 61.75 73.375 61.761719 L 73.277344 61.785156 C 73.277344 61.785156 73.203125 61.785156 73.265625 61.785156 C 73.328125 61.785156 73.246094 61.785156 73.230469 61.785156 L 73.039062 61.785156 L 72.984375 61.769531 C 72.984375 61.769531 72.867188 61.730469 72.929688 61.753906 C 72.992188 61.777344 72.867188 61.707031 72.867188 61.707031 C 72.792969 61.667969 72.867188 61.707031 72.867188 61.707031 L 72.808594 61.65625 C 72.800781 61.640625 72.785156 61.628906 72.773438 61.617188 C 72.730469 61.582031 72.789062 61.675781 72.773438 61.617188 C 72.765625 61.597656 72.753906 61.582031 72.746094 61.566406 C 72.6875 61.476562 72.746094 61.609375 72.746094 61.535156 C 72.714844 61.433594 72.703125 61.335938 72.703125 61.230469 C 72.691406 61.085938 72.691406 60.941406 72.703125 60.796875 C 72.703125 60.777344 72.71875 60.621094 72.703125 60.683594 C 72.703125 60.621094 72.726562 60.558594 72.738281 60.496094 C 72.753906 60.4375 72.773438 60.375 72.789062 60.316406 C 72.808594 60.257812 72.816406 60.246094 72.828125 60.214844 C 72.808594 60.257812 72.828125 60.238281 72.828125 60.214844 C 72.828125 60.1875 72.886719 60.109375 72.917969 60.054688 L 72.957031 60 C 72.996094 59.9375 72.914062 60.046875 72.957031 60 C 72.988281 59.957031 73.023438 59.917969 73.0625 59.882812 C 73.085938 59.863281 73.199219 59.769531 73.136719 59.816406 C 73.191406 59.777344 73.246094 59.742188 73.304688 59.710938 C 73.355469 59.6875 73.304688 59.710938 73.292969 59.710938 C 73.328125 59.695312 73.363281 59.683594 73.398438 59.675781 L 73.457031 59.660156 C 73.574219 59.628906 73.410156 59.660156 73.472656 59.660156 C 73.539062 59.660156 73.601562 59.660156 73.667969 59.660156 C 73.667969 59.660156 73.589844 59.640625 73.640625 59.660156 C 73.695312 59.675781 73.710938 59.675781 73.742188 59.683594 L 73.820312 59.710938 C 73.777344 59.695312 73.78125 59.691406 73.820312 59.710938 L 73.890625 59.75 C 73.964844 59.792969 73.878906 59.726562 73.90625 59.765625 C 73.921875 59.78125 73.933594 59.792969 73.953125 59.808594 C 74.039062 59.894531 73.90625 59.738281 73.976562 59.84375 C 74.046875 59.949219 74.144531 60.019531 74.269531 60.050781 C 74.394531 60.082031 74.515625 60.0625 74.628906 59.996094 C 74.738281 59.933594 74.8125 59.839844 74.847656 59.714844 C 74.886719 59.589844 74.875 59.46875 74.8125 59.355469 C 74.707031 59.199219 74.578125 59.070312 74.421875 58.960938 C 74.269531 58.855469 74.101562 58.777344 73.917969 58.730469 C 73.738281 58.6875 73.554688 58.675781 73.367188 58.695312 C 73.179688 58.71875 73.003906 58.769531 72.835938 58.855469 C 72.128906 59.203125 71.789062 59.976562 71.71875 60.722656 C 71.671875 61.113281 71.703125 61.5 71.820312 61.875 C 71.945312 62.214844 72.171875 62.457031 72.5 62.605469 C 72.835938 62.761719 73.183594 62.796875 73.542969 62.714844 C 73.902344 62.632812 74.203125 62.449219 74.4375 62.164062 C 74.597656 61.988281 74.699219 61.78125 74.738281 61.542969 C 74.777344 61.308594 74.75 61.078125 74.65625 60.859375 C 74.398438 60.367188 73.773438 60.417969 73.300781 60.441406 C 73.175781 60.449219 73.066406 60.5 72.980469 60.59375 C 72.894531 60.6875 72.851562 60.796875 72.851562 60.925781 C 72.851562 61.050781 72.894531 61.160156 72.980469 61.253906 C 73.066406 61.347656 73.175781 61.398438 73.300781 61.40625 Z M 73.304688 61.410156 " fill-opacity="1" fill-rule="nonzero"/><path fill="#2d2323" d="M 60.316406 66.070312 C 59.902344 66.007812 59.488281 65.980469 59.070312 65.988281 C 58.660156 66.007812 58.25 66.054688 57.84375 66.121094 L 58.117188 66.121094 L 58.167969 66.148438 L 58.34375 66.320312 C 58.359375 66.359375 58.371094 66.398438 58.375 66.441406 L 58.375 66.351562 C 58.375 66.285156 58.375 66.214844 58.375 66.148438 C 58.375 66.027344 58.375 65.910156 58.375 65.789062 C 58.375 65.535156 58.347656 65.277344 58.324219 65.019531 C 58.273438 64.480469 58.195312 63.953125 58.097656 63.425781 C 58.058594 63.296875 57.984375 63.199219 57.867188 63.136719 C 57.75 63.070312 57.628906 63.054688 57.5 63.089844 C 57.367188 63.125 57.269531 63.199219 57.199219 63.3125 C 57.128906 63.429688 57.109375 63.550781 57.140625 63.683594 C 57.230469 64.160156 57.292969 64.578125 57.335938 65.035156 C 57.378906 65.496094 57.371094 65.988281 57.398438 66.460938 C 57.398438 66.550781 57.417969 66.632812 57.457031 66.714844 C 57.492188 66.792969 57.546875 66.863281 57.617188 66.917969 C 57.683594 66.972656 57.761719 67.011719 57.847656 67.035156 C 57.933594 67.054688 58.019531 67.058594 58.105469 67.039062 C 58.335938 67.003906 58.472656 66.976562 58.699219 66.957031 C 58.929688 66.941406 59.160156 66.933594 59.390625 66.941406 C 59.617188 66.945312 59.839844 66.960938 60.066406 66.992188 C 60.191406 67.023438 60.316406 67.003906 60.429688 66.941406 C 60.542969 66.875 60.621094 66.777344 60.660156 66.652344 C 60.695312 66.523438 60.679688 66.402344 60.613281 66.285156 C 60.546875 66.171875 60.449219 66.09375 60.320312 66.058594 Z M 60.316406 66.070312 " fill-opacity="1" fill-rule="nonzero"/><path fill="#2d2323" d="M 63.628906 66.328125 C 63.769531 66.101562 63.863281 65.855469 63.910156 65.589844 C 63.953125 65.324219 63.945312 65.0625 63.886719 64.800781 C 63.828125 64.539062 63.71875 64.296875 63.5625 64.078125 C 63.40625 63.859375 63.214844 63.675781 62.988281 63.535156 C 62.59375 63.332031 62.1875 63.285156 61.757812 63.398438 C 61.570312 63.445312 61.398438 63.523438 61.238281 63.632812 C 61.078125 63.742188 60.941406 63.878906 60.828125 64.035156 C 60.714844 64.191406 60.632812 64.363281 60.578125 64.550781 C 60.527344 64.738281 60.511719 64.925781 60.527344 65.121094 C 60.554688 65.800781 60.851562 66.546875 61.5 66.859375 C 61.851562 67.023438 62.21875 67.066406 62.597656 66.988281 C 62.980469 66.90625 63.296875 66.71875 63.554688 66.425781 C 63.644531 66.328125 63.691406 66.214844 63.691406 66.085938 C 63.691406 65.953125 63.644531 65.839844 63.554688 65.742188 C 63.457031 65.648438 63.34375 65.601562 63.210938 65.601562 C 63.078125 65.601562 62.964844 65.648438 62.867188 65.742188 C 62.832031 65.785156 62.796875 65.828125 62.757812 65.863281 C 62.742188 65.882812 62.726562 65.894531 62.707031 65.910156 L 62.75 65.875 L 62.699219 65.914062 L 62.582031 65.980469 L 62.554688 65.996094 C 62.507812 66.015625 62.515625 66.015625 62.578125 65.996094 C 62.578125 66.011719 62.503906 66.023438 62.484375 66.027344 C 62.4375 66.042969 62.390625 66.054688 62.339844 66.0625 C 62.28125 66.078125 62.273438 66.046875 62.339844 66.0625 C 62.316406 66.0625 62.296875 66.0625 62.273438 66.0625 C 62.21875 66.0625 62.164062 66.0625 62.109375 66.0625 C 62.011719 66.0625 62.140625 66.0625 62.140625 66.0625 C 62.105469 66.058594 62.074219 66.050781 62.042969 66.042969 L 61.949219 66.015625 C 61.878906 65.992188 61.96875 66.015625 61.972656 66.015625 C 61.980469 66.015625 61.847656 65.945312 61.832031 65.933594 C 61.816406 65.921875 61.773438 65.933594 61.847656 65.945312 C 61.820312 65.945312 61.792969 65.902344 61.777344 65.882812 L 61.714844 65.820312 C 61.648438 65.75 61.761719 65.890625 61.714844 65.804688 C 61.683594 65.753906 61.652344 65.703125 61.625 65.648438 C 61.609375 65.628906 61.601562 65.605469 61.589844 65.582031 C 61.589844 65.582031 61.625 65.667969 61.589844 65.597656 C 61.550781 65.472656 61.515625 65.347656 61.492188 65.222656 C 61.476562 65.148438 61.492188 65.34375 61.492188 65.222656 C 61.492188 65.195312 61.492188 65.171875 61.492188 65.144531 C 61.488281 65.074219 61.488281 65 61.492188 64.929688 C 61.492188 64.898438 61.492188 64.867188 61.492188 64.839844 C 61.492188 64.933594 61.492188 64.839844 61.492188 64.8125 C 61.492188 64.785156 61.511719 64.746094 61.519531 64.710938 C 61.550781 64.605469 61.472656 64.789062 61.519531 64.691406 C 61.546875 64.636719 61.578125 64.585938 61.617188 64.542969 C 61.617188 64.542969 61.546875 64.617188 61.617188 64.554688 L 61.679688 64.488281 C 61.699219 64.464844 61.722656 64.445312 61.75 64.429688 C 61.75 64.429688 61.660156 64.488281 61.75 64.429688 C 61.773438 64.414062 61.796875 64.394531 61.824219 64.382812 L 61.882812 64.347656 C 61.8125 64.382812 61.917969 64.335938 61.925781 64.332031 L 62.011719 64.308594 C 62.011719 64.308594 62.164062 64.285156 62.058594 64.296875 L 62.234375 64.296875 C 62.234375 64.296875 62.394531 64.3125 62.289062 64.296875 L 62.375 64.3125 C 62.410156 64.324219 62.449219 64.335938 62.484375 64.34375 C 62.457031 64.34375 62.398438 64.300781 62.484375 64.34375 L 62.5625 64.386719 C 62.636719 64.433594 62.5625 64.386719 62.5625 64.386719 C 62.585938 64.402344 62.609375 64.421875 62.628906 64.445312 C 62.667969 64.480469 62.707031 64.519531 62.742188 64.5625 C 62.820312 64.648438 62.707031 64.507812 62.742188 64.5625 C 62.777344 64.621094 62.789062 64.628906 62.8125 64.667969 C 62.832031 64.707031 62.871094 64.769531 62.898438 64.820312 L 62.9375 64.898438 L 62.917969 64.859375 L 62.945312 64.929688 C 62.964844 64.992188 62.980469 65.050781 62.992188 65.113281 C 63.019531 65.230469 62.992188 65.035156 62.992188 65.113281 C 62.992188 65.1875 62.992188 65.1875 62.992188 65.222656 C 63 65.292969 63 65.359375 62.992188 65.429688 C 62.992188 65.429688 63.007812 65.328125 62.992188 65.429688 C 62.992188 65.464844 62.976562 65.5 62.96875 65.535156 C 62.960938 65.566406 62.953125 65.597656 62.9375 65.625 C 62.960938 65.574219 62.964844 65.5625 62.9375 65.59375 L 62.914062 65.644531 C 62.878906 65.710938 62.839844 65.773438 62.792969 65.832031 C 62.726562 65.949219 62.707031 66.070312 62.742188 66.199219 C 62.777344 66.328125 62.851562 66.425781 62.964844 66.492188 C 63.082031 66.558594 63.203125 66.574219 63.328125 66.542969 C 63.457031 66.511719 63.554688 66.4375 63.628906 66.328125 Z M 63.628906 66.328125 " fill-opacity="1" fill-rule="nonzero"/><path fill="#2d2323" d="M 64.246094 63.996094 C 64.527344 64.839844 64.878906 65.652344 65.308594 66.429688 C 65.410156 66.675781 65.585938 66.847656 65.835938 66.941406 C 66.175781 67.046875 66.441406 66.8125 66.609375 66.546875 C 67.101562 65.753906 67.398438 64.890625 67.503906 63.960938 C 67.503906 63.828125 67.457031 63.714844 67.359375 63.621094 C 67.265625 63.527344 67.152344 63.476562 67.019531 63.476562 C 66.886719 63.480469 66.773438 63.53125 66.679688 63.625 C 66.589844 63.71875 66.539062 63.832031 66.535156 63.960938 C 66.535156 64.019531 66.535156 64.023438 66.535156 63.960938 C 66.535156 63.992188 66.535156 64.023438 66.535156 64.050781 C 66.535156 64.082031 66.519531 64.15625 66.507812 64.210938 C 66.488281 64.316406 66.464844 64.417969 66.4375 64.523438 C 66.386719 64.738281 66.320312 64.953125 66.242188 65.160156 L 66.1875 65.289062 C 66.167969 65.339844 66.164062 65.34375 66.1875 65.289062 L 66.152344 65.371094 C 66.109375 65.46875 66.0625 65.566406 66.011719 65.660156 C 65.957031 65.757812 65.910156 65.847656 65.851562 65.933594 C 65.832031 65.972656 65.804688 66.011719 65.78125 66.050781 C 65.761719 66.09375 65.75 66.101562 65.78125 66.050781 C 65.933594 65.921875 66.085938 65.921875 66.234375 66.050781 C 66.199219 66.011719 66.207031 66.015625 66.234375 66.050781 C 66.226562 66.035156 66.214844 66.019531 66.207031 66.003906 L 66.125 65.855469 C 66.070312 65.753906 66.015625 65.652344 65.964844 65.554688 C 65.859375 65.351562 65.761719 65.152344 65.667969 64.945312 C 65.621094 64.84375 65.574219 64.738281 65.53125 64.632812 L 65.488281 64.523438 C 65.46875 64.480469 65.449219 64.4375 65.433594 64.390625 C 65.34375 64.164062 65.261719 63.933594 65.183594 63.707031 C 65.148438 63.578125 65.070312 63.480469 64.957031 63.414062 C 64.839844 63.347656 64.71875 63.332031 64.589844 63.367188 C 64.460938 63.402344 64.363281 63.480469 64.296875 63.59375 C 64.230469 63.710938 64.214844 63.832031 64.25 63.960938 Z M 64.246094 63.996094 " fill-opacity="1" fill-rule="nonzero"/><path fill="#2d2323" d="M 70.234375 63.089844 C 69.707031 63.074219 69.183594 63.113281 68.660156 63.203125 C 68.496094 63.21875 68.355469 63.289062 68.238281 63.410156 C 68.121094 63.53125 68.058594 63.671875 68.050781 63.839844 C 68.027344 64.074219 68.050781 64.320312 68.050781 64.558594 C 68.050781 65.0625 68.050781 65.566406 68.050781 66.074219 C 68.023438 66.347656 68.101562 66.589844 68.28125 66.800781 C 68.515625 66.992188 68.78125 67.039062 69.070312 66.945312 C 69.183594 66.921875 69.292969 66.882812 69.40625 66.851562 L 69.566406 66.8125 L 69.699219 66.8125 L 70.527344 66.742188 C 70.652344 66.734375 70.761719 66.679688 70.847656 66.589844 C 70.933594 66.496094 70.976562 66.386719 70.976562 66.257812 C 70.976562 66.132812 70.933594 66.023438 70.847656 65.929688 C 70.761719 65.835938 70.652344 65.785156 70.527344 65.777344 C 70.007812 65.792969 69.496094 65.859375 68.988281 65.980469 C 68.941406 65.992188 68.890625 66.007812 68.84375 66.019531 L 68.777344 66.03125 C 68.839844 66.03125 68.84375 66.03125 68.777344 66.03125 C 68.714844 66.03125 68.722656 66.03125 68.8125 66.058594 C 68.890625 66.066406 68.953125 66.105469 68.988281 66.179688 C 69.015625 66.238281 69.019531 66.242188 69.007812 66.179688 C 69.007812 66.242188 69.007812 66.25 69.007812 66.195312 C 69.027344 65.945312 69.007812 65.675781 68.992188 65.425781 C 68.980469 65.171875 68.992188 64.910156 68.992188 64.652344 C 68.992188 64.519531 68.992188 64.382812 68.992188 64.25 C 69.003906 64.125 69.003906 63.996094 68.992188 63.867188 C 68.722656 64.101562 68.660156 64.203125 68.8125 64.160156 L 68.871094 64.160156 L 69.09375 64.121094 L 69.191406 64.121094 L 69.417969 64.101562 C 69.683594 64.082031 69.949219 64.074219 70.210938 64.082031 C 70.347656 64.082031 70.460938 64.035156 70.554688 63.941406 C 70.648438 63.847656 70.695312 63.734375 70.699219 63.597656 C 70.695312 63.46875 70.648438 63.355469 70.550781 63.261719 C 70.457031 63.167969 70.34375 63.117188 70.210938 63.113281 Z M 70.234375 63.089844 " fill-opacity="1" fill-rule="nonzero"/><path fill="#2d2323" d="M 68.75 65.46875 C 69.027344 65.433594 69.308594 65.410156 69.589844 65.402344 C 69.722656 65.398438 69.835938 65.351562 69.933594 65.261719 C 70.027344 65.164062 70.074219 65.050781 70.074219 64.917969 C 70.074219 64.785156 70.027344 64.671875 69.933594 64.578125 C 69.835938 64.484375 69.722656 64.4375 69.589844 64.4375 C 69.308594 64.445312 69.027344 64.464844 68.75 64.503906 C 68.617188 64.507812 68.503906 64.554688 68.40625 64.644531 C 68.3125 64.738281 68.261719 64.851562 68.261719 64.988281 C 68.261719 65.121094 68.3125 65.234375 68.40625 65.328125 L 68.503906 65.40625 C 68.578125 65.449219 68.660156 65.46875 68.75 65.46875 Z M 68.75 65.46875 " fill-opacity="1" fill-rule="nonzero"/><path fill="#2d2323" d="M 64.527344 50.941406 L 64.476562 50.828125 L 64.476562 50.847656 L 64.460938 50.722656 C 64.460938 50.726562 64.460938 50.734375 64.460938 50.742188 L 64.476562 50.613281 L 64.476562 50.640625 L 64.527344 50.527344 C 64.523438 50.535156 64.519531 50.542969 64.511719 50.550781 L 64.585938 50.453125 C 64.585938 50.460938 64.578125 50.464844 64.570312 50.46875 L 64.667969 50.394531 L 64.648438 50.394531 L 64.761719 50.347656 L 64.742188 50.347656 L 64.871094 50.332031 L 64.851562 50.332031 L 64.976562 50.347656 C 64.96875 50.351562 64.960938 50.351562 64.953125 50.347656 L 65.066406 50.394531 L 65.046875 50.382812 L 65.144531 50.457031 C 65.132812 50.453125 65.125 50.445312 65.121094 50.4375 L 65.195312 50.535156 C 65.191406 50.527344 65.183594 50.519531 65.179688 50.507812 L 65.230469 50.625 C 65.226562 50.617188 65.226562 50.609375 65.230469 50.601562 L 65.246094 50.730469 C 65.242188 50.71875 65.242188 50.710938 65.246094 50.703125 L 65.226562 50.832031 L 65.226562 50.804688 L 65.179688 50.921875 L 65.195312 50.894531 L 65.117188 50.992188 C 65.125 50.984375 65.132812 50.976562 65.140625 50.96875 L 65.042969 51.046875 L 65.070312 51.027344 L 64.957031 51.074219 L 64.988281 51.074219 L 64.859375 51.09375 C 64.867188 51.089844 64.875 51.089844 64.886719 51.09375 L 64.757812 51.074219 L 64.789062 51.074219 L 64.671875 51.027344 L 64.703125 51.042969 L 64.605469 50.96875 L 64.632812 50.992188 L 64.558594 50.898438 L 64.574219 50.925781 L 64.527344 50.8125 C 64.527344 50.824219 64.527344 50.835938 64.527344 50.84375 L 64.511719 50.71875 L 64.511719 50.75 L 64.527344 50.625 L 64.527344 50.65625 L 64.574219 50.539062 L 64.574219 50.5625 L 64.652344 50.464844 L 64.632812 50.484375 L 64.730469 50.40625 L 64.710938 50.40625 L 64.824219 50.359375 L 64.808594 50.359375 L 64.9375 50.34375 L 64.914062 50.34375 L 65.042969 50.359375 L 65.019531 50.359375 L 65.132812 50.40625 L 65.117188 50.40625 L 65.214844 50.484375 L 65.199219 50.46875 L 65.277344 50.566406 L 65.277344 50.550781 L 65.324219 50.667969 L 65.339844 50.792969 C 65.335938 50.726562 65.316406 50.664062 65.277344 50.609375 C 65.230469 50.488281 65.144531 50.402344 65.019531 50.355469 C 64.960938 50.324219 64.898438 50.3125 64.832031 50.316406 L 64.707031 50.332031 C 64.625 50.351562 64.550781 50.394531 64.492188 50.457031 L 64.417969 50.554688 C 64.371094 50.628906 64.351562 50.710938 64.351562 50.796875 C 64.351562 50.835938 64.351562 50.890625 64.367188 50.929688 C 64.378906 50.972656 64.394531 51.015625 64.417969 51.054688 L 64.460938 51.105469 L 64.5 51.160156 C 64.535156 51.195312 64.570312 51.222656 64.613281 51.25 C 64.644531 51.265625 64.699219 51.285156 64.734375 51.300781 C 64.835938 51.328125 64.9375 51.328125 65.035156 51.300781 C 65.136719 51.273438 65.21875 51.222656 65.292969 51.152344 C 65.363281 51.078125 65.410156 50.992188 65.441406 50.894531 C 65.453125 50.84375 65.460938 50.792969 65.460938 50.742188 L 65.460938 50.710938 C 65.460938 50.660156 65.453125 50.609375 65.4375 50.558594 C 65.425781 50.507812 65.402344 50.460938 65.378906 50.417969 C 65.351562 50.375 65.324219 50.335938 65.289062 50.296875 C 65.265625 50.277344 65.242188 50.257812 65.21875 50.242188 C 65.195312 50.222656 65.171875 50.207031 65.148438 50.191406 L 65.027344 50.140625 L 65 50.140625 L 64.867188 50.125 C 64.8125 50.128906 64.761719 50.132812 64.707031 50.148438 L 64.691406 50.148438 L 64.570312 50.195312 L 64.542969 50.210938 C 64.511719 50.234375 64.46875 50.265625 64.441406 50.289062 C 64.40625 50.328125 64.378906 50.367188 64.351562 50.410156 C 64.335938 50.445312 64.316406 50.492188 64.300781 50.527344 C 64.300781 50.554688 64.300781 50.585938 64.300781 50.605469 C 64.300781 50.632812 64.300781 50.65625 64.300781 50.683594 C 64.300781 50.734375 64.308594 50.785156 64.324219 50.835938 C 64.332031 50.863281 64.339844 50.886719 64.355469 50.90625 C 64.359375 50.933594 64.371094 50.957031 64.382812 50.976562 C 64.410156 51.019531 64.4375 51.058594 64.472656 51.09375 L 64.574219 51.171875 C 64.609375 51.171875 64.660156 51.210938 64.695312 51.222656 C 64.746094 51.234375 64.796875 51.242188 64.847656 51.246094 L 65.003906 51.246094 C 65.054688 51.234375 65.101562 51.214844 65.144531 51.1875 C 65.191406 51.179688 65.234375 51.167969 65.277344 51.152344 L 65.351562 51.054688 C 65.402344 50.964844 65.429688 50.867188 65.433594 50.761719 C 65.433594 50.65625 65.40625 50.558594 65.351562 50.464844 C 65.320312 50.410156 65.277344 50.367188 65.226562 50.332031 C 65.121094 50.242188 65.003906 50.210938 64.867188 50.234375 C 64.804688 50.238281 64.746094 50.257812 64.691406 50.292969 L 64.59375 50.367188 C 64.53125 50.429688 64.488281 50.5 64.46875 50.582031 L 64.449219 50.710938 C 64.449219 50.800781 64.46875 50.882812 64.515625 50.957031 Z M 64.527344 50.941406 " fill-opacity="1" fill-rule="nonzero"/><path fill="#2d2323" d="M 64.398438 51.113281 L 64.398438 51.984375 C 64.398438 52.117188 64.449219 52.230469 64.539062 52.324219 C 64.636719 52.421875 64.75 52.46875 64.882812 52.46875 C 65.015625 52.464844 65.128906 52.417969 65.222656 52.324219 C 65.316406 52.230469 65.363281 52.117188 65.363281 51.984375 L 65.363281 51.113281 C 65.363281 50.980469 65.316406 50.867188 65.222656 50.769531 C 65.128906 50.675781 65.015625 50.628906 64.878906 50.628906 C 64.746094 50.628906 64.632812 50.675781 64.539062 50.773438 C 64.445312 50.867188 64.398438 50.980469 64.398438 51.113281 Z M 64.398438 51.113281 " fill-opacity="1" fill-rule="nonzero"/><g fill="#000000" fill-opacity="1"><g transform="translate(35.637124, 96.017196)"><g><path d="M 8.878906 -0.140625 C 9.683594 -0.140625 10.351562 -1.28125 10.6875 -1.976562 C 10.769531 -2.226562 10.882812 -2.449219 10.992188 -2.671875 C 11.105469 -2.894531 11.214844 -3.117188 11.300781 -3.339844 L 11.355469 -3.480469 C 11.382812 -3.589844 11.273438 -3.671875 11.160156 -3.671875 C 11.019531 -3.671875 10.9375 -3.644531 10.910156 -3.589844 C 10.882812 -3.535156 10.828125 -3.480469 10.796875 -3.421875 C 10.742188 -3.339844 10.6875 -3.285156 10.660156 -3.199219 C 10.574219 -3.0625 10.492188 -2.894531 10.410156 -2.726562 C 10.324219 -2.558594 10.242188 -2.394531 10.160156 -2.226562 C 9.9375 -1.753906 9.601562 -1.363281 9.238281 -0.945312 C 9.15625 -0.835938 9.015625 -0.75 8.878906 -0.667969 C 8.851562 -0.640625 8.792969 -0.640625 8.765625 -0.640625 C 8.628906 -0.640625 8.542969 -0.695312 8.515625 -0.808594 C 8.320312 -1.167969 8.292969 -1.476562 8.265625 -1.890625 C 8.265625 -4.703125 8.933594 -7.488281 9.796875 -10.160156 C 10.160156 -11.300781 10.492188 -12.414062 10.828125 -13.554688 C 11.050781 -14.332031 11.273438 -15.113281 11.382812 -15.976562 C 11.382812 -16.058594 11.382812 -16.167969 11.410156 -16.28125 C 11.410156 -16.363281 11.410156 -16.476562 11.410156 -16.558594 C 11.382812 -16.894531 11.050781 -17.476562 10.632812 -17.476562 C 10.519531 -17.476562 10.410156 -17.421875 10.324219 -17.339844 C 9.683594 -16.808594 9.296875 -16.03125 8.878906 -15.335938 C 8.097656 -14.027344 7.515625 -12.636719 6.929688 -11.273438 C 6.597656 -10.519531 6.289062 -9.796875 5.984375 -9.046875 C 5.675781 -8.40625 5.425781 -7.847656 5.121094 -7.265625 L 4.925781 -7.011719 C 4.925781 -7.011719 4.925781 -7.011719 4.898438 -6.984375 L 4.871094 -6.984375 C 4.84375 -6.984375 4.84375 -6.984375 4.816406 -7.011719 C 4.816406 -7.042969 4.816406 -7.097656 4.816406 -7.125 C 4.785156 -7.152344 4.785156 -7.179688 4.816406 -7.207031 C 4.953125 -7.875 5.09375 -8.542969 5.203125 -9.210938 L 5.621094 -11.464844 C 5.675781 -11.773438 5.648438 -12.050781 5.566406 -12.300781 C 5.453125 -12.605469 5.261719 -12.773438 4.953125 -12.859375 C 4.925781 -12.886719 4.84375 -12.886719 4.757812 -12.886719 C 4.5625 -12.886719 4.425781 -12.828125 4.3125 -12.691406 C 4.230469 -12.605469 4.148438 -12.496094 4.089844 -12.414062 C 4.007812 -12.300781 3.953125 -12.191406 3.867188 -12.105469 C 2.753906 -10.324219 1.726562 -7.652344 1.195312 -5.648438 L 1.113281 -5.425781 C 1.085938 -5.398438 1.058594 -5.398438 1 -5.398438 L 0.972656 -5.425781 C 0.945312 -5.59375 0.945312 -5.761719 1 -5.929688 C 1.03125 -6.09375 1.058594 -6.261719 1.085938 -6.402344 C 1.195312 -7.375 1.335938 -8.265625 1.585938 -9.183594 C 2.03125 -11.050781 2.421875 -12.859375 2.78125 -14.75 L 2.867188 -15.054688 C 2.894531 -15.363281 2.617188 -15.613281 2.308594 -15.585938 C 2.199219 -15.585938 2.113281 -15.53125 2.085938 -15.417969 C 1.863281 -15 1.753906 -14.667969 1.640625 -14.25 C 1.445312 -13.554688 1.28125 -12.859375 1.113281 -12.191406 C 0.945312 -11.496094 0.777344 -10.828125 0.585938 -10.128906 C 0.0273438 -7.902344 -0.417969 -5.09375 -0.417969 -2.753906 C -0.417969 -2.558594 -0.390625 -2.449219 -0.363281 -2.367188 C -0.167969 -1.808594 0.109375 -1.78125 0.585938 -1.78125 C 0.667969 -1.78125 0.75 -1.835938 0.777344 -1.921875 C 0.863281 -2.085938 0.917969 -2.253906 0.945312 -2.421875 C 1.113281 -3.035156 1.28125 -3.644531 1.476562 -4.285156 C 1.640625 -4.898438 1.808594 -5.511719 1.976562 -6.152344 C 2.335938 -7.488281 3.589844 -10.882812 4.535156 -11.828125 L 4.59375 -11.828125 C 4.621094 -11.828125 4.621094 -11.800781 4.621094 -11.773438 C 4.648438 -11.6875 4.648438 -11.605469 4.621094 -11.523438 C 4.59375 -11.328125 4.535156 -11.132812 4.480469 -10.964844 C 4.425781 -10.769531 4.371094 -10.574219 4.339844 -10.382812 C 4.089844 -9.40625 3.894531 -8.488281 3.703125 -7.515625 C 3.589844 -7.011719 3.5625 -6.511719 3.617188 -6.011719 C 3.671875 -5.59375 3.925781 -5.316406 4.339844 -5.175781 C 4.371094 -5.175781 4.398438 -5.175781 4.425781 -5.175781 C 4.453125 -5.148438 4.453125 -5.148438 4.480469 -5.148438 C 4.675781 -5.148438 4.816406 -5.230469 4.925781 -5.398438 L 5.148438 -5.789062 C 5.675781 -6.875 6.152344 -7.875 6.597656 -8.960938 C 7.179688 -10.382812 7.792969 -11.773438 8.433594 -13.136719 C 8.960938 -14.222656 9.460938 -15.277344 10.214844 -16.199219 C 10.242188 -16.226562 10.296875 -16.28125 10.410156 -16.363281 L 10.464844 -16.363281 C 10.492188 -16.335938 10.492188 -16.335938 10.492188 -16.308594 C 10.519531 -16.058594 10.4375 -15.835938 10.351562 -15.613281 C 10.046875 -14.640625 9.769531 -13.71875 9.433594 -12.800781 C 8.488281 -10.1875 7.152344 -5.871094 7.152344 -3.089844 L 7.152344 -2.367188 C 7.152344 -1.835938 7.292969 -1.390625 7.515625 -0.917969 C 7.820312 -0.277344 8.320312 -0.140625 8.878906 -0.140625 Z M 8.878906 -0.140625 "/></g></g></g><g fill="#000000" fill-opacity="1"><g transform="translate(46.546305, 96.017196)"><g><path d="M 4.425781 -2.644531 C 4.703125 -2.644531 4.953125 -2.753906 5.203125 -2.976562 C 5.425781 -3.171875 5.621094 -3.367188 5.816406 -3.589844 C 6.09375 -3.953125 6.375 -4.371094 6.679688 -4.785156 L 7.847656 -6.625 C 7.988281 -6.820312 8.097656 -7.042969 8.238281 -7.265625 C 8.347656 -7.488281 8.460938 -7.710938 8.601562 -7.933594 C 8.683594 -8.070312 8.710938 -8.210938 8.738281 -8.292969 C 8.738281 -8.292969 8.738281 -8.320312 8.738281 -8.40625 C 8.710938 -8.542969 8.601562 -8.601562 8.40625 -8.601562 C 8.320312 -8.601562 8.265625 -8.570312 8.238281 -8.515625 C 8.125 -8.40625 8.042969 -8.265625 7.988281 -8.125 C 7.402344 -7.011719 5.898438 -4.648438 5.007812 -3.757812 C 4.925781 -3.671875 4.84375 -3.617188 4.757812 -3.5625 C 4.675781 -3.480469 4.59375 -3.421875 4.480469 -3.367188 C 4.453125 -3.367188 4.453125 -3.367188 4.453125 -3.367188 C 4.453125 -3.339844 4.453125 -3.339844 4.425781 -3.339844 C 4.339844 -3.339844 4.285156 -3.394531 4.230469 -3.480469 C 4.148438 -3.785156 4.230469 -4.089844 4.257812 -4.398438 C 4.453125 -5.316406 4.621094 -6.179688 4.953125 -7.042969 C 5.175781 -7.570312 5.398438 -8.097656 5.59375 -8.628906 C 5.734375 -8.824219 6.179688 -10.074219 6.179688 -10.214844 C 6.207031 -10.351562 6.152344 -10.4375 6.039062 -10.492188 C 5.957031 -10.574219 5.871094 -10.605469 5.761719 -10.605469 C 5.621094 -10.605469 5.511719 -10.546875 5.425781 -10.410156 C 5.316406 -10.214844 5.203125 -10.074219 5.09375 -9.9375 L 4.257812 -8.738281 C 4.175781 -8.65625 4.117188 -8.601562 4.0625 -8.570312 C 4.0625 -8.570312 4.035156 -8.570312 3.953125 -8.570312 L 3.8125 -8.878906 C 3.480469 -9.40625 3.003906 -9.65625 2.421875 -9.65625 C 2.058594 -9.65625 1.699219 -9.546875 1.363281 -9.296875 C 1.140625 -9.101562 0.945312 -8.90625 0.75 -8.601562 C 0.640625 -8.40625 0.527344 -8.238281 0.417969 -8.070312 C 0.304688 -7.875 0.195312 -7.679688 0.0820312 -7.488281 C -0.25 -6.847656 -0.417969 -6.152344 -0.417969 -5.398438 C -0.332031 -4.730469 0.167969 -4.371094 0.808594 -4.285156 L 0.972656 -4.285156 C 1.167969 -4.285156 1.335938 -4.339844 1.445312 -4.425781 C 1.976562 -4.871094 2.394531 -5.289062 2.839844 -5.816406 C 2.921875 -5.898438 2.976562 -5.957031 3.0625 -6.039062 L 3.117188 -6.039062 C 3.171875 -5.984375 3.199219 -5.957031 3.199219 -5.957031 C 3.199219 -5.929688 3.199219 -5.871094 3.199219 -5.84375 C 3.171875 -5.789062 3.171875 -5.734375 3.171875 -5.707031 C 3.144531 -5.484375 3.089844 -5.261719 3.0625 -5.039062 C 3.003906 -4.816406 2.976562 -4.59375 2.949219 -4.339844 C 2.949219 -3.480469 3.449219 -2.644531 4.425781 -2.644531 Z M 0.972656 -5.230469 C 0.890625 -5.261719 0.863281 -5.371094 0.863281 -5.511719 C 1 -6.511719 2.03125 -9.128906 2.921875 -9.128906 C 3.035156 -9.128906 3.117188 -9.074219 3.171875 -8.960938 C 3.257812 -8.851562 3.285156 -8.765625 3.3125 -8.710938 C 3.339844 -8.515625 3.449219 -8.378906 3.671875 -8.292969 C 3.757812 -8.265625 3.785156 -8.183594 3.757812 -8.070312 C 3.757812 -8.070312 3.730469 -8.042969 3.703125 -8.015625 C 3.0625 -7.152344 2.449219 -6.402344 1.667969 -5.648438 C 1.585938 -5.566406 1.503906 -5.511719 1.417969 -5.453125 C 1.335938 -5.398438 1.222656 -5.34375 1.140625 -5.261719 C 1.113281 -5.230469 1.058594 -5.230469 0.972656 -5.230469 Z M 0.972656 -5.230469 "/></g></g></g><g fill="#000000" fill-opacity="1"><g transform="translate(53.893306, 96.017196)"><g><path d="M 0.722656 -3.144531 C 1.085938 -3.144531 1.417969 -3.394531 1.667969 -3.617188 C 2.199219 -4.175781 2.671875 -4.757812 3.089844 -5.398438 C 3.339844 -5.816406 3.589844 -6.234375 3.839844 -6.652344 C 4.089844 -7.042969 4.339844 -7.429688 4.59375 -7.847656 L 4.816406 -8.265625 C 4.898438 -8.378906 4.757812 -8.542969 4.621094 -8.570312 C 4.59375 -8.601562 4.535156 -8.601562 4.453125 -8.601562 C 4.339844 -8.601562 4.230469 -8.542969 4.117188 -8.40625 C 4.035156 -8.292969 3.980469 -8.183594 3.925781 -8.097656 C 3.867188 -7.988281 3.8125 -7.875 3.730469 -7.792969 L 2.699219 -6.039062 L 2.058594 -5.121094 C 1.835938 -4.816406 1.558594 -4.5625 1.253906 -4.257812 C 1.222656 -4.230469 1.195312 -4.230469 1.167969 -4.203125 C 1.140625 -4.175781 1.113281 -4.175781 1.085938 -4.148438 C 1.058594 -4.117188 1.03125 -4.117188 0.972656 -4.117188 C 0.890625 -4.148438 0.863281 -4.175781 0.863281 -4.257812 C 0.890625 -4.507812 0.917969 -4.730469 0.945312 -4.953125 C 0.972656 -5.175781 1 -5.398438 1.03125 -5.621094 C 1.167969 -6.375 1.335938 -7.042969 1.53125 -7.792969 L 1.699219 -8.488281 C 1.726562 -8.65625 1.699219 -8.765625 1.558594 -8.824219 C 1.417969 -8.90625 1.335938 -8.933594 1.335938 -8.933594 L 1.253906 -8.933594 C 1.03125 -8.933594 0.917969 -8.765625 0.835938 -8.570312 C 0.140625 -7.234375 -0.195312 -5.84375 -0.195312 -4.425781 C -0.195312 -4.3125 -0.195312 -4.203125 -0.195312 -4.089844 C -0.195312 -3.980469 -0.167969 -3.867188 -0.140625 -3.785156 C -0.0546875 -3.367188 0.304688 -3.144531 0.722656 -3.144531 Z M 1.976562 -10.4375 C 2.058594 -10.4375 2.144531 -10.4375 2.171875 -10.4375 C 2.199219 -10.4375 2.253906 -10.464844 2.335938 -10.492188 C 2.53125 -10.632812 2.617188 -10.992188 2.476562 -11.1875 C 2.394531 -11.273438 2.308594 -11.382812 2.226562 -11.523438 C 2.113281 -11.660156 1.976562 -11.714844 1.835938 -11.714844 C 1.699219 -11.714844 1.585938 -11.660156 1.53125 -11.550781 C 1.445312 -11.382812 1.417969 -11.1875 1.417969 -10.964844 C 1.417969 -10.769531 1.503906 -10.605469 1.699219 -10.519531 C 1.753906 -10.492188 1.808594 -10.464844 1.863281 -10.464844 C 1.890625 -10.464844 1.949219 -10.464844 1.976562 -10.4375 Z M 1.976562 -10.4375 "/></g></g></g><g fill="#000000" fill-opacity="1"><g transform="translate(57.344173, 96.017196)"><g><path d="M 1.417969 -0.890625 C 2.28125 -0.890625 3.035156 -2.113281 3.339844 -2.894531 C 3.867188 -3.925781 4.371094 -5.007812 4.785156 -6.121094 C 4.898438 -6.429688 5.007812 -6.707031 5.148438 -7.011719 C 5.289062 -7.320312 5.398438 -7.625 5.539062 -7.933594 C 5.566406 -8.015625 5.621094 -8.097656 5.648438 -8.183594 C 5.675781 -8.238281 5.707031 -8.320312 5.734375 -8.40625 C 5.761719 -8.488281 5.707031 -8.542969 5.621094 -8.628906 C 5.566406 -8.65625 5.484375 -8.683594 5.398438 -8.683594 C 4.980469 -8.683594 4.730469 -8.015625 4.621094 -7.710938 C 4.535156 -7.515625 4.453125 -7.292969 4.371094 -7.097656 C 4.285156 -6.902344 4.230469 -6.679688 4.148438 -6.484375 C 3.589844 -5.007812 2.78125 -3.035156 1.808594 -1.808594 C 1.726562 -1.726562 1.667969 -1.667969 1.613281 -1.640625 C 1.558594 -1.640625 1.53125 -1.640625 1.503906 -1.667969 C 1.476562 -1.699219 1.445312 -1.726562 1.445312 -1.753906 C 1.445312 -1.78125 1.445312 -1.808594 1.417969 -1.835938 C 1.308594 -2.144531 1.308594 -2.394531 1.308594 -2.699219 C 1.195312 -4.703125 1.417969 -6.625 1.835938 -8.542969 C 1.863281 -8.738281 1.976562 -8.878906 2.085938 -9.074219 C 3.226562 -10.492188 5.453125 -13.46875 5.871094 -15.277344 C 5.929688 -15.585938 5.957031 -15.890625 5.929688 -16.140625 C 5.84375 -16.644531 5.511719 -16.921875 4.980469 -16.976562 C 4.117188 -16.976562 3.757812 -16.503906 3.3125 -15.863281 C 1.335938 -12.996094 0.0820312 -7.234375 0.0820312 -3.644531 C 0.0546875 -3.226562 0.109375 -2.671875 0.195312 -2.085938 C 0.195312 -1.445312 0.5 -1.03125 1.140625 -0.917969 C 1.195312 -0.890625 1.28125 -0.890625 1.417969 -0.890625 Z M 2.503906 -10.964844 L 2.476562 -10.992188 C 2.476562 -11.019531 2.476562 -11.078125 2.476562 -11.105469 C 2.449219 -11.132812 2.449219 -11.160156 2.476562 -11.1875 C 2.949219 -12.96875 3.5625 -14.554688 4.648438 -16.03125 C 4.730469 -16.113281 4.953125 -16.308594 5.039062 -16.308594 C 5.09375 -16.308594 5.148438 -16.28125 5.175781 -16.199219 L 5.175781 -15.945312 C 5.121094 -14.722656 3.507812 -12.105469 2.753906 -11.160156 C 2.699219 -11.078125 2.644531 -11.019531 2.558594 -10.964844 Z M 2.503906 -10.964844 "/></g></g></g><g fill="#000000" fill-opacity="1"><g transform="translate(61.462946, 96.017196)"><g/></g></g><g fill="#000000" fill-opacity="1"><g transform="translate(68.698621, 96.017196)"><g><path d="M 2.78125 1.503906 C 5.453125 1.503906 6.652344 -0.472656 7.292969 -2.921875 C 7.375 -3.226562 7.402344 -3.449219 7.402344 -3.703125 C 7.515625 -4.730469 7.402344 -5.761719 7.042969 -6.789062 L 6.707031 -7.570312 C 6.761719 -7.570312 6.875 -7.597656 7.011719 -7.625 L 9.296875 -8.210938 L 9.460938 -8.292969 C 9.492188 -8.320312 9.546875 -8.460938 9.460938 -8.488281 C 9.378906 -8.515625 9.324219 -8.542969 9.296875 -8.542969 C 9.238281 -8.570312 9.15625 -8.570312 9.046875 -8.570312 C 8.851562 -8.570312 8.65625 -8.515625 8.460938 -8.488281 C 8.15625 -8.40625 7.820312 -8.320312 7.488281 -8.238281 C 7.152344 -8.15625 6.820312 -8.042969 6.484375 -7.933594 L 6.402344 -8.015625 C 5.957031 -8.65625 5.371094 -9.15625 4.59375 -9.351562 L 4.480469 -9.378906 C 4.285156 -9.460938 4.230469 -9.574219 4.339844 -9.714844 L 4.5625 -9.964844 C 5.929688 -11.523438 7.152344 -13.804688 7.597656 -15.835938 C 7.652344 -16.167969 7.679688 -16.476562 7.652344 -16.753906 C 7.625 -16.976562 7.515625 -17.171875 7.347656 -17.3125 C 7.070312 -17.503906 6.820312 -17.589844 6.566406 -17.589844 C 6.34375 -17.589844 6.121094 -17.503906 5.871094 -17.367188 C 5.789062 -17.339844 5.648438 -17.226562 5.511719 -17.089844 C 5.289062 -16.835938 5.09375 -16.585938 4.898438 -16.335938 C 3.785156 -14.640625 3.171875 -13.082031 2.503906 -11.1875 L 2.335938 -10.828125 C 2.335938 -10.769531 2.308594 -10.742188 2.253906 -10.742188 C 2.199219 -10.742188 2.171875 -10.769531 2.171875 -10.828125 C 2.171875 -10.910156 2.171875 -10.964844 2.171875 -11.019531 C 2.144531 -11.078125 2.144531 -11.132812 2.144531 -11.214844 C 2.171875 -11.800781 2.144531 -12.355469 2.113281 -12.941406 C 2.085938 -13.496094 2.058594 -14.054688 2.03125 -14.609375 C 2.03125 -14.75 2.03125 -14.863281 2.003906 -14.945312 C 1.976562 -15.25 1.808594 -15.445312 1.476562 -15.5 C 1.058594 -15.5 1.058594 -14.972656 1.058594 -14.667969 C 1.03125 -14.472656 1.03125 -14.304688 1.03125 -14.136719 C 1.03125 -13.972656 1.03125 -13.804688 1.03125 -13.609375 C 1 -12.636719 0.972656 -10.742188 0.945312 -9.519531 C 0.917969 -7.960938 0.890625 -6.375 0.890625 -5.039062 C 0.613281 -4.785156 0.363281 -4.480469 0.167969 -4.175781 C -0.0820312 -3.867188 -0.222656 -3.535156 -0.304688 -3.171875 C -0.585938 -1.835938 -0.304688 -0.640625 0.5 0.390625 C 1.058594 1.140625 1.808594 1.503906 2.78125 1.503906 Z M 2.949219 1.113281 C 2.199219 1.113281 1.585938 0.640625 1.140625 0.109375 C 0.5 -0.75 0.222656 -1.699219 0.332031 -2.726562 C 0.445312 -3.257812 0.613281 -3.671875 0.863281 -4.035156 L 0.863281 -3.394531 C 0.890625 -3.3125 0.890625 -3.226562 0.890625 -3.171875 C 0.890625 -3.089844 0.890625 -3.003906 0.890625 -2.921875 C 0.917969 -2.78125 1 -2.726562 1.113281 -2.699219 C 1.140625 -2.699219 1.195312 -2.699219 1.253906 -2.699219 C 1.28125 -2.671875 1.335938 -2.671875 1.363281 -2.671875 C 1.726562 -2.671875 1.949219 -2.839844 2.003906 -3.171875 L 2.144531 -4.5625 L 2.144531 -5.453125 C 3.367188 -6.457031 4.871094 -7.042969 5.761719 -7.347656 C 5.929688 -6.902344 6.039062 -6.457031 6.09375 -5.984375 C 6.121094 -5.734375 6.152344 -5.484375 6.179688 -5.261719 C 6.207031 -5.007812 6.207031 -4.816406 6.234375 -4.675781 C 6.261719 -4.035156 6.179688 -3.589844 6.066406 -3.144531 C 5.84375 -2.03125 5.453125 -0.972656 4.816406 0 C 4.371094 0.667969 3.730469 1 2.949219 1.113281 Z M 2.144531 -6.011719 C 2.144531 -6.289062 2.144531 -6.539062 2.171875 -6.789062 C 2.171875 -7.042969 2.171875 -7.207031 2.171875 -7.320312 C 2.199219 -7.847656 2.335938 -8.320312 2.476562 -8.851562 C 2.503906 -8.960938 2.589844 -8.988281 2.699219 -8.960938 C 2.78125 -8.933594 2.894531 -8.878906 3.003906 -8.878906 C 3.0625 -8.851562 3.144531 -8.851562 3.226562 -8.851562 C 3.367188 -8.851562 3.449219 -8.878906 3.507812 -8.90625 C 3.589844 -8.933594 3.703125 -8.960938 3.8125 -8.988281 C 3.894531 -8.988281 4.007812 -8.988281 4.089844 -9.015625 C 4.84375 -9.015625 5.203125 -8.433594 5.511719 -7.847656 C 5.539062 -7.765625 5.59375 -7.710938 5.621094 -7.625 C 4.398438 -7.207031 3.171875 -6.652344 2.144531 -6.011719 Z M 2.699219 -9.378906 C 2.617188 -9.378906 2.617188 -9.433594 2.644531 -9.519531 C 2.644531 -9.546875 2.644531 -9.601562 2.671875 -9.628906 C 2.671875 -9.65625 2.671875 -9.683594 2.671875 -9.714844 C 2.699219 -9.796875 2.726562 -9.878906 2.753906 -9.964844 C 2.753906 -10.019531 2.78125 -10.074219 2.8125 -10.160156 C 3.394531 -11.882812 4.785156 -15.808594 6.289062 -16.867188 C 6.316406 -16.894531 6.375 -16.921875 6.402344 -16.949219 C 6.429688 -16.949219 6.484375 -16.976562 6.511719 -17.003906 C 6.597656 -17.03125 6.679688 -17.003906 6.679688 -16.921875 L 6.679688 -16.78125 C 6.679688 -15.113281 4.398438 -11.382812 3.367188 -10.046875 C 3.285156 -9.9375 3.199219 -9.824219 3.117188 -9.742188 C 3.035156 -9.628906 2.921875 -9.519531 2.839844 -9.40625 C 2.8125 -9.378906 2.78125 -9.378906 2.699219 -9.378906 Z M 2.699219 -9.378906 "/></g></g></g><g fill="#000000" fill-opacity="1"><g transform="translate(76.797016, 96.017196)"><g><path d="M 2.421875 -2.753906 C 3.003906 -2.753906 3.394531 -2.78125 3.730469 -3.3125 C 3.8125 -3.394531 3.839844 -3.449219 3.867188 -3.535156 C 4.203125 -4.175781 4.339844 -4.898438 4.3125 -5.675781 C 4.257812 -6.316406 4.0625 -6.875 3.730469 -7.402344 C 3.589844 -7.597656 3.480469 -7.765625 3.367188 -7.960938 C 3.3125 -8.070312 3.339844 -8.15625 3.449219 -8.210938 C 3.8125 -8.238281 4.175781 -8.265625 4.648438 -8.265625 C 4.953125 -8.265625 5.289062 -8.265625 5.675781 -8.265625 C 6.039062 -8.238281 6.484375 -8.238281 6.984375 -8.238281 C 7.125 -8.265625 7.152344 -8.347656 7.070312 -8.488281 C 6.984375 -8.601562 6.820312 -8.683594 6.625 -8.738281 C 6.066406 -8.765625 5.453125 -8.792969 4.898438 -8.792969 C 4.3125 -8.792969 3.785156 -8.765625 3.339844 -8.738281 C 2.867188 -8.683594 2.617188 -8.601562 2.589844 -8.515625 C 2.449219 -8.488281 2.394531 -8.320312 2.476562 -8.210938 C 2.617188 -7.960938 2.78125 -7.710938 2.921875 -7.488281 C 3.507812 -6.566406 3.589844 -5.621094 3.285156 -4.59375 C 3.257812 -4.453125 3.199219 -4.339844 3.144531 -4.230469 C 3.0625 -4.117188 3.003906 -4.007812 2.949219 -3.894531 C 2.8125 -3.671875 2.671875 -3.507812 2.503906 -3.421875 C 2.421875 -3.367188 2.367188 -3.339844 2.28125 -3.339844 C 2.199219 -3.339844 2.113281 -3.367188 2.03125 -3.449219 C 1.863281 -3.589844 1.726562 -3.757812 1.585938 -4.007812 C 1.335938 -4.453125 1.253906 -4.953125 1.28125 -5.511719 C 1.363281 -7.265625 1.890625 -9.015625 3.226562 -10.214844 C 3.3125 -10.296875 3.285156 -10.410156 3.199219 -10.4375 C 3.199219 -10.464844 3.171875 -10.464844 3.144531 -10.464844 C 3.003906 -10.519531 2.867188 -10.546875 2.699219 -10.546875 C 2.449219 -10.546875 2.226562 -10.464844 2.03125 -10.296875 C 0.808594 -9.351562 0.109375 -7.234375 0.0273438 -5.707031 L 0.0273438 -5.425781 C 0.0273438 -5.398438 0.0273438 -5.34375 0.0546875 -5.316406 C 0.0546875 -5.261719 0.0546875 -5.203125 0.0546875 -5.175781 C 0.195312 -4.035156 0.808594 -3.285156 1.835938 -2.894531 C 1.921875 -2.867188 2.03125 -2.839844 2.144531 -2.8125 C 2.226562 -2.78125 2.335938 -2.78125 2.421875 -2.753906 Z M 2.421875 -2.753906 "/></g></g></g><g fill="#000000" fill-opacity="1"><g transform="translate(82.502066, 96.017196)"><g><path d="M -1.53125 -1.808594 C -1.445312 -1.808594 -1.335938 -1.863281 -1.253906 -1.949219 C -1.140625 -2.085938 -1 -2.226562 -0.863281 -2.367188 L 0.304688 -3.867188 C 0.417969 -4.035156 0.527344 -4.175781 0.667969 -4.3125 C 0.695312 -4.371094 0.75 -4.398438 0.808594 -4.398438 C 0.835938 -4.398438 0.890625 -4.371094 0.917969 -4.285156 L 1.085938 -3.785156 C 1.195312 -3.449219 1.335938 -3.144531 1.503906 -2.894531 C 1.921875 -2.335938 2.28125 -2.28125 2.921875 -2.199219 C 3.449219 -2.199219 3.757812 -2.253906 4.089844 -2.671875 C 4.398438 -2.976562 4.648438 -3.3125 4.898438 -3.671875 L 5.648438 -4.84375 C 6.011719 -5.371094 6.34375 -5.871094 6.707031 -6.402344 C 7.070312 -6.929688 7.402344 -7.457031 7.765625 -7.988281 L 7.933594 -8.347656 C 8.015625 -8.433594 7.902344 -8.542969 7.792969 -8.570312 C 7.765625 -8.601562 7.679688 -8.601562 7.597656 -8.601562 C 7.488281 -8.601562 7.375 -8.542969 7.265625 -8.40625 L 6.09375 -6.511719 L 4.339844 -4.007812 C 4.089844 -3.644531 3.839844 -3.339844 3.5625 -3.089844 C 3.480469 -3.035156 3.421875 -2.976562 3.339844 -2.921875 C 3.257812 -2.867188 3.199219 -2.8125 3.117188 -2.726562 C 3.089844 -2.699219 3.0625 -2.699219 3.035156 -2.699219 C 2.921875 -2.699219 2.839844 -2.726562 2.8125 -2.8125 C 2.449219 -3.703125 2.28125 -4.230469 2.058594 -5.230469 C 2.003906 -5.929688 1.949219 -5.957031 2.394531 -6.484375 C 3.199219 -7.457031 4.0625 -8.40625 4.953125 -9.378906 C 5.148438 -9.574219 5.289062 -9.714844 5.425781 -9.90625 C 5.511719 -10.046875 5.484375 -10.128906 5.316406 -10.214844 C 5.230469 -10.242188 5.175781 -10.269531 5.121094 -10.269531 C 5.066406 -10.269531 5.007812 -10.242188 4.953125 -10.1875 C 4.816406 -10.074219 4.703125 -9.964844 4.59375 -9.878906 C 4.453125 -9.769531 4.339844 -9.65625 4.230469 -9.519531 L 2.558594 -7.679688 L 2.226562 -7.265625 C 2.199219 -7.234375 2.144531 -7.207031 2.085938 -7.152344 C 2.003906 -7.125 1.921875 -7.125 1.921875 -7.207031 L 1.835938 -8.320312 L 1.835938 -9.046875 C 1.835938 -9.460938 1.808594 -9.796875 1.28125 -9.796875 C 1.140625 -9.796875 0.917969 -9.742188 0.917969 -9.546875 C 0.835938 -9.296875 0.777344 -9.046875 0.75 -8.792969 C 0.667969 -7.820312 0.585938 -6.820312 0.722656 -5.84375 L 0.722656 -5.707031 C 0.75 -5.59375 0.695312 -5.453125 0.613281 -5.289062 C 0.585938 -5.261719 0.554688 -5.230469 0.554688 -5.203125 C 0.527344 -5.175781 0.5 -5.175781 0.472656 -5.148438 C 0.167969 -4.730469 -0.167969 -4.3125 -0.5 -3.925781 C -0.835938 -3.507812 -1.167969 -3.089844 -1.476562 -2.671875 C -1.53125 -2.589844 -1.585938 -2.53125 -1.667969 -2.449219 C -1.726562 -2.367188 -1.78125 -2.28125 -1.835938 -2.199219 C -1.921875 -2.058594 -1.863281 -1.921875 -1.667969 -1.835938 C -1.640625 -1.808594 -1.585938 -1.808594 -1.53125 -1.808594 Z M -1.53125 -1.808594 "/></g></g></g></svg>