<svg xmlns="http://www.w3.org/2000/svg" xmlns:xlink="http://www.w3.org/1999/xlink" width="170" zoomAndPan="magnify" viewBox="0 0 127.5 110.249996" height="147" preserveAspectRatio="xMidYMid meet" version="1.0"><defs><g/><clipPath id="c1107f6972"><path d="M 60 23 L 114 23 L 114 77.996094 L 60 77.996094 Z M 60 23 " clip-rule="nonzero"/></clipPath><clipPath id="084f51ea12"><path d="M 12.324219 23 L 94 23 L 94 77.996094 L 12.324219 77.996094 Z M 12.324219 23 " clip-rule="nonzero"/></clipPath><clipPath id="fdbda69214"><path d="M 40 3.503906 L 78 3.503906 L 78 30 L 40 30 Z M 40 3.503906 " clip-rule="nonzero"/></clipPath></defs><path fill="#f26666" d="M 75.007812 30.226562 L 75.011719 30.242188 C 75.011719 30.242188 75.007812 30.238281 74.996094 30.238281 C 74.988281 30.242188 74.984375 30.246094 74.984375 30.246094 L 74.980469 30.234375 C 74.613281 30.15625 70.570312 29.277344 69.945312 26.859375 C 69.917969 26.765625 69.898438 26.652344 69.882812 26.527344 C 69.878906 26.484375 69.875 26.441406 69.871094 26.398438 C 69.871094 26.398438 69.871094 26.394531 69.871094 26.394531 C 69.867188 26.304688 69.867188 26.207031 69.867188 26.113281 C 69.902344 24.855469 70.660156 24.316406 71.15625 24.097656 C 71.289062 24.03125 71.433594 23.984375 71.585938 23.960938 C 71.585938 23.960938 71.589844 23.960938 71.589844 23.960938 C 72.125 23.882812 72.789062 24.109375 73.582031 24.96875 C 73.835938 23.832031 74.296875 23.300781 74.800781 23.101562 C 74.945312 23.042969 75.09375 23.011719 75.242188 23.003906 C 75.78125 22.941406 76.707031 23.027344 77.367188 24.101562 C 77.417969 24.183594 77.464844 24.265625 77.507812 24.351562 C 77.527344 24.390625 77.542969 24.429688 77.5625 24.46875 C 77.613281 24.585938 77.652344 24.691406 77.675781 24.789062 C 78.347656 27.191406 75.289062 29.976562 75.007812 30.226562 Z M 75.007812 30.226562 " fill-opacity="1" fill-rule="nonzero"/><g clip-path="url(#c1107f6972)"><path fill="#ff9cb6" d="M 113.03125 41.632812 C 111.441406 36.464844 106.136719 33.363281 100.863281 33.535156 L 99.519531 24.824219 C 99.199219 22.746094 90.21875 22.402344 79.457031 24.054688 C 68.695312 25.710938 60.230469 28.738281 60.550781 30.820312 L 67.535156 76.117188 L 67.902344 76.0625 C 69.929688 77.519531 78.019531 77.613281 87.488281 76.15625 C 96.957031 74.703125 104.644531 72.183594 106.136719 70.179688 L 106.503906 70.125 L 104.792969 59.019531 C 107.457031 58.195312 109.894531 56.757812 111.582031 54.449219 C 114.191406 50.875 114.289062 45.730469 113.03125 41.632812 Z M 107.726562 51.855469 C 106.886719 53.09375 105.539062 53.867188 104.078125 54.375 L 101.582031 38.203125 C 104.347656 38.316406 107.019531 39.523438 108.394531 42.472656 C 109.691406 45.246094 109.433594 49.328125 107.726562 51.855469 Z M 107.726562 51.855469 " fill-opacity="1" fill-rule="nonzero"/></g><g clip-path="url(#084f51ea12)"><path fill="#ffd7e3" d="M 46.953125 24.421875 C 36.191406 22.765625 27.207031 23.109375 26.886719 25.191406 L 25.484375 34.292969 C 20.429688 34.148438 15.648438 37.03125 13.855469 41.832031 C 12.40625 45.707031 12.636719 50.945312 15.019531 54.410156 C 16.621094 56.734375 19.042969 58.164062 21.675781 58.988281 L 19.902344 70.488281 L 20.273438 70.546875 C 21.765625 72.546875 29.453125 75.066406 38.921875 76.523438 C 48.390625 77.980469 56.480469 77.886719 58.503906 76.425781 L 58.875 76.480469 L 65.859375 31.183594 C 66.179688 29.105469 57.714844 26.074219 46.953125 24.421875 Z M 22.273438 55.125 C 20.742188 54.585938 19.328125 53.769531 18.367188 52.457031 C 16.363281 49.726562 16.558594 45.625 17.691406 42.59375 C 18.574219 40.230469 20.71875 39.035156 22.851562 38.496094 C 23.085938 38.4375 23.328125 38.386719 23.566406 38.34375 C 23.621094 38.332031 23.933594 38.285156 24.03125 38.269531 C 24.3125 38.238281 24.597656 38.21875 24.882812 38.203125 Z M 85.570312 58.835938 L 85.574219 58.871094 C 85.574219 58.871094 85.5625 58.867188 85.535156 58.859375 C 85.515625 58.875 85.503906 58.882812 85.503906 58.882812 L 85.5 58.851562 C 84.5625 58.582031 74.359375 55.53125 73.320312 49.324219 C 73.269531 49.078125 73.242188 48.792969 73.238281 48.472656 C 73.234375 48.363281 73.234375 48.257812 73.234375 48.152344 C 73.238281 48.148438 73.238281 48.144531 73.238281 48.144531 C 73.238281 48.144531 73.238281 48.140625 73.234375 48.140625 C 73.242188 47.90625 73.261719 47.667969 73.292969 47.425781 C 73.667969 44.265625 75.75 43.070312 77.085938 42.625 C 77.441406 42.488281 77.820312 42.394531 78.222656 42.367188 C 78.222656 42.367188 78.226562 42.367188 78.226562 42.367188 C 79.628906 42.277344 81.289062 42.988281 83.125 45.3125 C 84.042969 42.5 85.359375 41.261719 86.703125 40.863281 C 86.703125 40.863281 86.707031 40.863281 86.707031 40.859375 C 87.09375 40.746094 87.480469 40.703125 87.863281 40.710938 C 89.269531 40.667969 91.636719 41.074219 93.082031 43.910156 C 93.195312 44.128906 93.296875 44.34375 93.382812 44.5625 C 93.382812 44.566406 93.382812 44.566406 93.382812 44.570312 C 93.421875 44.667969 93.460938 44.769531 93.492188 44.871094 C 93.601562 45.175781 93.675781 45.453125 93.710938 45.703125 C 94.878906 51.886719 86.355469 58.265625 85.570312 58.835938 Z M 85.570312 58.835938 " fill-opacity="1" fill-rule="nonzero"/></g><path fill="#ff9cb6" d="M 52.960938 48.390625 C 52.972656 48.710938 52.960938 49 52.921875 49.246094 C 52.203125 55.5 42.167969 59.070312 41.25 59.386719 L 41.246094 59.417969 C 41.246094 59.417969 41.234375 59.410156 41.210938 59.398438 C 41.1875 59.40625 41.175781 59.410156 41.175781 59.410156 L 41.179688 59.375 C 40.363281 58.84375 31.523438 52.914062 32.371094 46.675781 C 32.394531 46.425781 32.453125 46.144531 32.542969 45.835938 C 32.574219 45.734375 32.605469 45.632812 32.636719 45.53125 C 32.640625 45.527344 32.640625 45.523438 32.640625 45.523438 C 32.640625 45.523438 32.640625 45.523438 32.640625 45.519531 C 32.714844 45.300781 32.804688 45.078125 32.90625 44.855469 C 34.203125 41.949219 36.546875 41.421875 37.953125 41.390625 C 38.335938 41.367188 38.726562 41.390625 39.117188 41.480469 C 39.117188 41.484375 39.121094 41.484375 39.121094 41.484375 C 40.484375 41.8125 41.859375 42.984375 42.925781 45.746094 C 44.636719 43.332031 46.257812 42.535156 47.664062 42.550781 C 47.664062 42.550781 47.667969 42.554688 47.667969 42.550781 C 48.070312 42.558594 48.453125 42.628906 48.816406 42.75 C 50.171875 43.125 52.3125 44.214844 52.851562 47.351562 C 52.894531 47.589844 52.925781 47.828125 52.945312 48.0625 C 52.945312 48.066406 52.945312 48.066406 52.945312 48.070312 C 52.953125 48.175781 52.957031 48.285156 52.960938 48.390625 Z M 52.960938 48.390625 " fill-opacity="1" fill-rule="nonzero"/><g clip-path="url(#fdbda69214)"><path fill="#f26666" d="M 65.710938 7.195312 C 66.871094 11.90625 60.761719 17.132812 60.199219 17.605469 L 60.207031 17.628906 C 60.207031 17.628906 60.195312 17.628906 60.175781 17.625 C 60.164062 17.636719 60.152344 17.640625 60.152344 17.640625 L 60.148438 17.617188 C 59.433594 17.445312 51.632812 15.488281 50.566406 10.753906 C 50.519531 10.566406 50.484375 10.351562 50.464844 10.101562 C 50.457031 10.019531 50.453125 9.9375 50.449219 9.855469 C 50.449219 9.851562 50.453125 9.851562 50.449219 9.851562 C 50.449219 9.851562 50.449219 9.847656 50.449219 9.847656 C 50.445312 9.667969 50.449219 9.484375 50.460938 9.296875 C 50.597656 6.855469 52.105469 5.855469 53.089844 5.460938 C 53.347656 5.34375 53.628906 5.257812 53.929688 5.222656 C 53.929688 5.222656 53.933594 5.21875 53.933594 5.21875 C 54.980469 5.097656 56.257812 5.582031 57.746094 7.300781 C 58.308594 5.101562 59.234375 4.097656 60.226562 3.742188 C 60.226562 3.742188 60.230469 3.742188 60.230469 3.742188 C 60.515625 3.636719 60.804688 3.589844 61.09375 3.582031 C 62.148438 3.496094 63.941406 3.71875 65.15625 5.84375 C 65.25 6.003906 65.335938 6.167969 65.410156 6.332031 C 65.410156 6.332031 65.410156 6.335938 65.410156 6.335938 C 65.414062 6.335938 65.414062 6.335938 65.414062 6.339844 C 65.449219 6.414062 65.480469 6.492188 65.511719 6.566406 C 65.605469 6.796875 65.671875 7.003906 65.710938 7.195312 Z M 77.03125 15.078125 C 76.898438 14.902344 76.742188 14.738281 76.550781 14.605469 C 76.550781 14.601562 76.546875 14.601562 76.546875 14.601562 C 75.882812 14.128906 74.835938 13.980469 73.1875 14.59375 C 73.625 12.894531 73.371094 11.867188 72.832031 11.257812 C 72.832031 11.257812 72.828125 11.253906 72.828125 11.253906 C 72.671875 11.078125 72.496094 10.941406 72.304688 10.828125 C 71.621094 10.375 70.320312 9.859375 68.703125 10.847656 C 68.578125 10.925781 68.460938 11.003906 68.347656 11.085938 C 68.347656 11.085938 68.34375 11.089844 68.34375 11.089844 C 68.292969 11.128906 68.242188 11.167969 68.195312 11.207031 C 68.042969 11.328125 67.921875 11.445312 67.820312 11.558594 C 65.277344 14.324219 67.472656 20.140625 67.679688 20.667969 L 67.664062 20.683594 C 67.664062 20.683594 67.671875 20.6875 67.6875 20.691406 C 67.691406 20.703125 67.695312 20.710938 67.695312 20.710938 L 67.707031 20.699219 C 68.257812 20.847656 74.277344 22.421875 76.765625 19.609375 C 76.871094 19.5 76.972656 19.363281 77.078125 19.203125 C 77.113281 19.148438 77.148438 19.09375 77.179688 19.039062 C 77.179688 19.039062 77.183594 19.039062 77.183594 19.039062 C 77.183594 19.039062 77.183594 19.035156 77.183594 19.035156 C 77.253906 18.917969 77.320312 18.789062 77.382812 18.660156 C 78.199219 16.949219 77.550781 15.710938 77.03125 15.078125 Z M 59.859375 23.902344 C 59.851562 23.8125 59.839844 23.726562 59.824219 23.636719 C 59.625 22.460938 58.839844 22.0625 58.34375 21.925781 C 58.210938 21.882812 58.070312 21.859375 57.925781 21.859375 C 57.925781 21.859375 57.921875 21.855469 57.921875 21.855469 C 57.410156 21.855469 56.820312 22.160156 56.199219 23.070312 C 55.804688 22.039062 55.300781 21.605469 54.800781 21.488281 C 54.65625 21.457031 54.515625 21.449219 54.375 21.460938 C 53.863281 21.476562 53.007812 21.683594 52.539062 22.773438 C 52.5 22.859375 52.46875 22.941406 52.441406 23.023438 C 52.441406 23.027344 52.441406 23.027344 52.441406 23.027344 C 52.429688 23.066406 52.417969 23.105469 52.40625 23.144531 C 52.375 23.257812 52.355469 23.363281 52.34375 23.457031 C 52.042969 25.796875 55.28125 27.984375 55.578125 28.183594 L 55.578125 28.195312 C 55.578125 28.195312 55.582031 28.191406 55.589844 28.191406 C 55.597656 28.195312 55.605469 28.199219 55.605469 28.199219 L 55.605469 28.183594 C 55.941406 28.0625 59.601562 26.6875 59.855469 24.34375 C 59.867188 24.25 59.871094 24.144531 59.867188 24.023438 C 59.867188 23.984375 59.863281 23.945312 59.859375 23.902344 Z M 48.246094 25.960938 C 48.238281 25.898438 48.230469 25.832031 48.21875 25.769531 C 48.078125 24.9375 47.519531 24.652344 47.167969 24.554688 C 47.070312 24.523438 46.972656 24.503906 46.867188 24.503906 C 46.5 24.503906 46.082031 24.71875 45.636719 25.367188 C 45.359375 24.636719 45 24.328125 44.644531 24.242188 C 44.542969 24.21875 44.441406 24.214844 44.339844 24.222656 C 43.976562 24.234375 43.367188 24.378906 43.03125 25.15625 C 43.007812 25.21875 42.984375 25.277344 42.964844 25.335938 C 42.964844 25.335938 42.964844 25.339844 42.964844 25.339844 C 42.957031 25.367188 42.945312 25.394531 42.941406 25.421875 C 42.917969 25.503906 42.902344 25.578125 42.894531 25.644531 C 42.679688 27.308594 44.984375 28.867188 45.199219 29.007812 L 45.195312 29.015625 C 45.195312 29.015625 45.199219 29.015625 45.207031 29.011719 C 45.210938 29.015625 45.214844 29.019531 45.214844 29.019531 L 45.214844 29.007812 C 45.457031 28.921875 48.058594 27.945312 48.242188 26.277344 C 48.25 26.210938 48.253906 26.132812 48.25 26.046875 C 48.25 26.019531 48.246094 25.992188 48.246094 25.960938 Z M 48.039062 15.492188 C 48.023438 15.453125 48.007812 15.414062 47.988281 15.375 C 47.988281 15.375 47.988281 15.375 47.984375 15.375 C 47.945312 15.289062 47.898438 15.207031 47.847656 15.125 C 47.1875 14.054688 46.261719 13.96875 45.722656 14.027344 C 45.574219 14.039062 45.425781 14.066406 45.28125 14.125 C 44.777344 14.324219 44.316406 14.855469 44.0625 15.992188 C 43.269531 15.132812 42.605469 14.90625 42.070312 14.984375 C 42.070312 14.984375 42.066406 14.984375 42.066406 14.984375 C 41.914062 15.007812 41.769531 15.058594 41.636719 15.121094 C 41.140625 15.339844 40.378906 15.878906 40.347656 17.136719 C 40.34375 17.234375 40.347656 17.328125 40.351562 17.417969 C 40.351562 17.421875 40.351562 17.421875 40.351562 17.421875 C 40.355469 17.464844 40.359375 17.507812 40.363281 17.550781 C 40.378906 17.675781 40.398438 17.789062 40.425781 17.882812 C 41.050781 20.300781 45.09375 21.179688 45.460938 21.257812 L 45.464844 21.269531 C 45.464844 21.269531 45.46875 21.265625 45.476562 21.261719 C 45.484375 21.261719 45.492188 21.265625 45.492188 21.265625 L 45.488281 21.25 C 45.769531 21 48.828125 18.214844 48.15625 15.8125 C 48.132812 15.714844 48.09375 15.609375 48.039062 15.492188 Z M 48.039062 15.492188 " fill-opacity="1" fill-rule="nonzero"/></g><path fill="#3b647f" d="M 65.578125 30.101562 C 65.730469 30.410156 65.839844 30.703125 65.921875 31 C 64.648438 31.238281 63.300781 31.285156 62.03125 31.339844 C 56.648438 31.570312 51.191406 31.214844 45.847656 30.566406 C 40.765625 29.949219 35.664062 28.921875 30.898438 27 C 29.632812 26.488281 28.316406 25.941406 27.117188 25.242188 C 27.121094 25.226562 27.125 25.207031 27.128906 25.191406 C 27.152344 25.023438 27.179688 24.851562 27.203125 24.683594 C 27.210938 24.679688 27.21875 24.675781 27.222656 24.671875 C 27.347656 24.578125 27.46875 24.488281 27.59375 24.398438 C 28.789062 25.101562 30.101562 25.65625 31.367188 26.148438 C 36.273438 28.066406 41.511719 29.15625 46.742188 29.699219 C 51.871094 30.234375 57.078125 30.621094 62.238281 30.363281 C 63.328125 30.308594 64.472656 30.269531 65.570312 30.078125 C 65.574219 30.085938 65.578125 30.09375 65.578125 30.101562 Z M 24.121094 38.414062 C 24.445312 38.4375 24.757812 38.519531 25.058594 38.636719 C 25.285156 37.164062 25.511719 35.695312 25.738281 34.226562 L 24.765625 34.226562 C 24.550781 35.621094 24.335938 37.015625 24.121094 38.414062 Z M 21.597656 54.769531 C 21.390625 56.117188 21.183594 57.46875 20.972656 58.816406 C 21.101562 58.855469 21.230469 58.894531 21.355469 58.9375 C 21.542969 58.960938 21.730469 58.992188 21.914062 59.03125 C 22.125 57.664062 22.335938 56.296875 22.546875 54.925781 C 22.230469 54.972656 21.898438 54.910156 21.597656 54.769531 Z M 100.953125 33.519531 C 100.792969 33.519531 100.640625 33.507812 100.492188 33.488281 C 100.734375 35.074219 100.980469 36.660156 101.222656 38.242188 C 101.363281 38.207031 101.515625 38.183594 101.679688 38.183594 C 101.871094 38.183594 102.042969 38.214844 102.199219 38.261719 C 101.953125 36.667969 101.710938 35.074219 101.464844 33.484375 C 101.300781 33.503906 101.132812 33.519531 100.953125 33.519531 Z M 104.636719 54.074219 C 104.421875 54.1875 104.160156 54.257812 103.859375 54.257812 C 103.800781 54.257812 103.746094 54.253906 103.691406 54.25 C 103.941406 55.867188 104.191406 57.484375 104.441406 59.101562 C 104.71875 58.96875 105.027344 58.878906 105.371094 58.832031 C 105.128906 57.246094 104.882812 55.660156 104.636719 54.074219 Z M 104.636719 54.074219 " fill-opacity="1" fill-rule="nonzero"/><path fill="#bcf6f4" d="M 97.90625 32.550781 C 97.738281 32.554688 97.566406 32.535156 97.398438 32.503906 C 97.339844 32.457031 97.28125 32.414062 97.21875 32.371094 C 96.996094 30.867188 96.769531 29.359375 96.542969 27.855469 C 96.429688 27.09375 97.597656 26.765625 97.710938 27.535156 C 97.898438 28.777344 98.082031 30.019531 98.269531 31.261719 C 98.308594 31.535156 98.351562 31.808594 98.390625 32.078125 C 98.273438 32.269531 98.105469 32.425781 97.90625 32.550781 Z M 103.597656 66.855469 C 102.011719 56.257812 100.425781 45.660156 98.839844 35.0625 C 98.765625 34.808594 98.621094 34.601562 98.335938 34.695312 C 98.058594 34.785156 97.828125 34.972656 97.644531 35.199219 C 99.054688 44.617188 100.460938 54.03125 101.871094 63.445312 C 102.058594 64.691406 102.242188 65.933594 102.429688 67.175781 C 102.542969 67.945312 103.710938 67.617188 103.597656 66.855469 Z M 61.222656 45.535156 C 61.261719 45.398438 61.285156 45.265625 61.292969 45.140625 C 61.292969 45.140625 61.292969 45.140625 61.292969 45.136719 C 61.292969 45.136719 61.292969 45.132812 61.292969 45.128906 C 61.292969 45.097656 61.292969 45.066406 61.289062 45.039062 C 61.289062 45.027344 61.289062 45.015625 61.285156 45.003906 C 61.285156 44.980469 61.277344 44.957031 61.273438 44.933594 C 61.269531 44.921875 61.269531 44.910156 61.265625 44.898438 C 61.257812 44.878906 61.25 44.859375 61.238281 44.839844 C 61.234375 44.832031 61.230469 44.820312 61.222656 44.8125 C 61.207031 44.785156 61.1875 44.761719 61.164062 44.738281 L 60.457031 44.738281 C 60.410156 44.761719 60.367188 44.785156 60.320312 44.8125 L 60.320312 44.816406 C 60.242188 44.867188 60.164062 44.917969 60.09375 44.980469 C 58.585938 53.203125 57.078125 61.429688 55.566406 69.652344 C 55.339844 70.890625 55.113281 72.125 54.886719 73.363281 C 54.851562 73.554688 54.902344 73.71875 54.996094 73.847656 C 54.957031 74.042969 54.921875 74.238281 54.886719 74.433594 C 54.746094 75.195312 55.914062 75.519531 56.054688 74.753906 C 57.808594 65.191406 59.5625 55.628906 61.320312 46.066406 C 61.214844 45.929688 61.167969 45.75 61.222656 45.535156 Z M 63.007812 35.222656 C 62.84375 35.246094 62.683594 35.265625 62.519531 35.285156 C 62.492188 35.285156 62.460938 35.289062 62.433594 35.292969 C 62.242188 35.308594 62.054688 35.324219 61.863281 35.335938 C 61.515625 37.238281 61.167969 39.136719 60.816406 41.039062 C 60.863281 41.121094 60.917969 41.191406 60.976562 41.253906 L 60.976562 41.257812 C 60.984375 41.269531 60.996094 41.28125 61.007812 41.289062 C 61.023438 41.308594 61.039062 41.324219 61.054688 41.339844 C 61.078125 41.359375 61.101562 41.382812 61.125 41.402344 C 61.140625 41.414062 61.152344 41.425781 61.167969 41.4375 C 61.207031 41.46875 61.246094 41.496094 61.285156 41.519531 C 61.300781 41.527344 61.316406 41.535156 61.332031 41.542969 C 61.359375 41.558594 61.386719 41.570312 61.410156 41.582031 C 61.433594 41.589844 61.453125 41.597656 61.476562 41.605469 C 61.496094 41.613281 61.519531 41.621094 61.539062 41.628906 C 61.5625 41.636719 61.589844 41.640625 61.613281 41.648438 C 61.628906 41.652344 61.644531 41.65625 61.664062 41.65625 C 61.691406 41.664062 61.71875 41.667969 61.746094 41.671875 C 61.753906 41.671875 61.757812 41.671875 61.765625 41.671875 C 61.796875 41.671875 61.832031 41.675781 61.867188 41.675781 C 61.867188 41.675781 61.867188 41.675781 61.867188 41.671875 C 61.96875 41.578125 62.070312 41.484375 62.175781 41.394531 C 62.300781 40.714844 62.425781 40.035156 62.550781 39.355469 C 62.777344 38.121094 63.003906 36.882812 63.230469 35.648438 C 63.261719 35.476562 63.226562 35.328125 63.148438 35.207031 C 63.101562 35.210938 63.054688 35.21875 63.007812 35.222656 Z M 63.007812 35.222656 " fill-opacity="1" fill-rule="nonzero"/><g fill="#000000" fill-opacity="1"><g transform="translate(49.212114, 94.575575)"><g><path d="M 8.871094 -0.140625 C 9.675781 -0.140625 10.34375 -1.277344 10.679688 -1.972656 C 10.761719 -2.226562 10.875 -2.445312 10.984375 -2.667969 C 11.09375 -2.890625 11.207031 -3.113281 11.289062 -3.335938 L 11.347656 -3.476562 C 11.375 -3.585938 11.261719 -3.671875 11.152344 -3.671875 C 11.011719 -3.671875 10.929688 -3.644531 10.902344 -3.585938 C 10.875 -3.53125 10.816406 -3.476562 10.789062 -3.421875 C 10.734375 -3.335938 10.679688 -3.28125 10.652344 -3.199219 C 10.566406 -3.058594 10.484375 -2.890625 10.398438 -2.726562 C 10.316406 -2.558594 10.234375 -2.390625 10.148438 -2.226562 C 9.925781 -1.75 9.59375 -1.363281 9.230469 -0.945312 C 9.148438 -0.835938 9.011719 -0.75 8.871094 -0.667969 C 8.84375 -0.640625 8.789062 -0.640625 8.757812 -0.640625 C 8.621094 -0.640625 8.539062 -0.695312 8.507812 -0.804688 C 8.316406 -1.167969 8.285156 -1.472656 8.257812 -1.890625 C 8.257812 -4.699219 8.925781 -7.480469 9.789062 -10.148438 C 10.148438 -11.289062 10.484375 -12.402344 10.816406 -13.542969 C 11.039062 -14.320312 11.261719 -15.101562 11.375 -15.960938 C 11.375 -16.046875 11.375 -16.15625 11.402344 -16.269531 C 11.402344 -16.351562 11.402344 -16.460938 11.402344 -16.546875 C 11.375 -16.878906 11.039062 -17.464844 10.621094 -17.464844 C 10.511719 -17.464844 10.398438 -17.40625 10.316406 -17.324219 C 9.675781 -16.796875 9.289062 -16.019531 8.871094 -15.324219 C 8.09375 -14.015625 7.507812 -12.625 6.925781 -11.261719 C 6.589844 -10.511719 6.285156 -9.789062 5.980469 -9.039062 C 5.671875 -8.398438 5.421875 -7.84375 5.117188 -7.257812 L 4.921875 -7.007812 C 4.921875 -7.007812 4.921875 -7.007812 4.894531 -6.980469 L 4.867188 -6.980469 C 4.839844 -6.980469 4.839844 -6.980469 4.8125 -7.007812 C 4.8125 -7.035156 4.8125 -7.089844 4.8125 -7.117188 C 4.78125 -7.148438 4.78125 -7.175781 4.8125 -7.203125 C 4.949219 -7.871094 5.089844 -8.539062 5.199219 -9.203125 L 5.617188 -11.457031 C 5.671875 -11.761719 5.644531 -12.039062 5.5625 -12.292969 C 5.449219 -12.597656 5.253906 -12.765625 4.949219 -12.847656 C 4.921875 -12.875 4.839844 -12.875 4.753906 -12.875 C 4.5625 -12.875 4.421875 -12.820312 4.308594 -12.679688 C 4.226562 -12.597656 4.144531 -12.484375 4.085938 -12.402344 C 4.003906 -12.292969 3.949219 -12.179688 3.867188 -12.097656 C 2.753906 -10.316406 1.722656 -7.648438 1.195312 -5.644531 L 1.113281 -5.421875 C 1.085938 -5.394531 1.058594 -5.394531 1 -5.394531 L 0.972656 -5.421875 C 0.945312 -5.589844 0.945312 -5.757812 1 -5.921875 C 1.027344 -6.089844 1.058594 -6.257812 1.085938 -6.394531 C 1.195312 -7.371094 1.335938 -8.257812 1.585938 -9.175781 C 2.03125 -11.039062 2.417969 -12.847656 2.78125 -14.738281 L 2.863281 -15.042969 C 2.890625 -15.351562 2.613281 -15.601562 2.308594 -15.574219 C 2.195312 -15.574219 2.113281 -15.515625 2.085938 -15.40625 C 1.863281 -14.988281 1.75 -14.65625 1.640625 -14.238281 C 1.445312 -13.542969 1.277344 -12.847656 1.113281 -12.179688 C 0.945312 -11.484375 0.777344 -10.816406 0.582031 -10.121094 C 0.0273438 -7.898438 -0.417969 -5.089844 -0.417969 -2.753906 C -0.417969 -2.558594 -0.390625 -2.445312 -0.363281 -2.363281 C -0.167969 -1.808594 0.109375 -1.78125 0.582031 -1.78125 C 0.667969 -1.78125 0.75 -1.835938 0.777344 -1.917969 C 0.863281 -2.085938 0.917969 -2.253906 0.945312 -2.417969 C 1.113281 -3.03125 1.277344 -3.644531 1.472656 -4.28125 C 1.640625 -4.894531 1.808594 -5.507812 1.972656 -6.144531 C 2.335938 -7.480469 3.585938 -10.875 4.53125 -11.820312 L 4.589844 -11.820312 C 4.617188 -11.820312 4.617188 -11.789062 4.617188 -11.761719 C 4.644531 -11.679688 4.644531 -11.597656 4.617188 -11.511719 C 4.589844 -11.316406 4.53125 -11.125 4.476562 -10.957031 C 4.421875 -10.761719 4.367188 -10.566406 4.339844 -10.371094 C 4.085938 -9.398438 3.894531 -8.480469 3.699219 -7.507812 C 3.585938 -7.007812 3.558594 -6.507812 3.613281 -6.007812 C 3.671875 -5.589844 3.921875 -5.3125 4.339844 -5.171875 C 4.367188 -5.171875 4.394531 -5.171875 4.421875 -5.171875 C 4.449219 -5.144531 4.449219 -5.144531 4.476562 -5.144531 C 4.671875 -5.144531 4.8125 -5.226562 4.921875 -5.394531 L 5.144531 -5.785156 C 5.671875 -6.867188 6.144531 -7.871094 6.589844 -8.953125 C 7.175781 -10.371094 7.785156 -11.761719 8.425781 -13.125 C 8.953125 -14.210938 9.453125 -15.265625 10.207031 -16.183594 C 10.234375 -16.210938 10.289062 -16.269531 10.398438 -16.351562 L 10.457031 -16.351562 C 10.484375 -16.324219 10.484375 -16.324219 10.484375 -16.296875 C 10.511719 -16.046875 10.429688 -15.824219 10.34375 -15.601562 C 10.039062 -14.628906 9.761719 -13.710938 9.425781 -12.792969 C 8.480469 -10.179688 7.148438 -5.867188 7.148438 -3.085938 L 7.148438 -2.363281 C 7.148438 -1.835938 7.285156 -1.390625 7.507812 -0.917969 C 7.8125 -0.277344 8.316406 -0.140625 8.871094 -0.140625 Z M 8.871094 -0.140625 "/></g></g></g><g fill="#000000" fill-opacity="1"><g transform="translate(60.112468, 94.575575)"><g><path d="M 4.03125 -3.199219 C 4.339844 -3.199219 4.589844 -3.335938 4.726562 -3.585938 C 4.839844 -3.726562 4.921875 -3.835938 4.949219 -3.921875 C 5.644531 -5.226562 6.339844 -6.421875 7.089844 -7.730469 L 7.3125 -8.203125 C 7.398438 -8.398438 7.3125 -8.507812 7.117188 -8.539062 C 6.925781 -8.539062 6.8125 -8.480469 6.730469 -8.34375 C 6.035156 -7.089844 5.339844 -5.867188 4.589844 -4.671875 L 4.394531 -4.421875 C 4.367188 -4.421875 4.367188 -4.421875 4.339844 -4.394531 C 4.253906 -4.421875 4.226562 -4.449219 4.226562 -4.476562 L 4.226562 -4.867188 L 4.394531 -6.230469 C 4.476562 -6.8125 4.53125 -7.398438 4.617188 -7.925781 C 4.617188 -8.035156 4.617188 -8.148438 4.617188 -8.230469 C 4.617188 -8.316406 4.617188 -8.425781 4.589844 -8.507812 C 4.589844 -8.621094 4.53125 -8.703125 4.394531 -8.757812 C 4.253906 -8.84375 4.144531 -8.871094 4.058594 -8.871094 C 3.894531 -8.871094 3.753906 -8.789062 3.613281 -8.59375 C 3.53125 -8.453125 3.421875 -8.316406 3.335938 -8.148438 L 2.667969 -6.953125 C 2.445312 -6.507812 1.695312 -5.003906 1.277344 -4.753906 C 1.277344 -4.753906 1.25 -4.753906 1.222656 -4.753906 L 1.195312 -4.78125 C 1.167969 -4.921875 1.140625 -5.003906 1.167969 -5.0625 C 1.195312 -5.3125 1.25 -5.535156 1.277344 -5.785156 C 1.308594 -6.035156 1.363281 -6.285156 1.390625 -6.535156 C 1.445312 -6.839844 1.5 -7.175781 1.585938 -7.507812 C 1.667969 -7.8125 1.722656 -8.148438 1.78125 -8.453125 C 1.808594 -8.539062 1.835938 -8.648438 1.835938 -8.757812 C 1.835938 -8.84375 1.835938 -8.953125 1.863281 -9.039062 C 1.863281 -9.175781 1.78125 -9.289062 1.640625 -9.34375 L 1.472656 -9.425781 C 1.277344 -9.425781 1.113281 -9.453125 1 -9.261719 L 0.75 -8.730469 C 0.277344 -7.425781 0.0273438 -6.203125 -0.167969 -4.839844 C -0.195312 -4.476562 -0.195312 -4.199219 -0.109375 -3.949219 C -0.0273438 -3.726562 0.109375 -3.585938 0.25 -3.503906 C 0.417969 -3.394531 0.613281 -3.335938 0.804688 -3.335938 C 1.027344 -3.335938 1.195312 -3.421875 1.335938 -3.558594 L 1.640625 -3.976562 L 2.476562 -5.3125 C 2.558594 -5.449219 2.640625 -5.617188 2.753906 -5.757812 C 2.78125 -5.8125 2.835938 -5.867188 2.863281 -5.949219 C 2.890625 -6.007812 2.917969 -6.035156 3.003906 -6.007812 C 3.03125 -5.980469 3.058594 -5.949219 3.058594 -5.894531 C 3.058594 -5.8125 3.058594 -5.757812 3.03125 -5.699219 L 3.003906 -5.507812 C 2.976562 -5.3125 2.949219 -5.144531 2.949219 -4.976562 C 2.949219 -4.78125 2.949219 -4.589844 2.949219 -4.394531 C 2.949219 -4.199219 3.003906 -4.003906 3.085938 -3.753906 C 3.28125 -3.394531 3.613281 -3.199219 4.03125 -3.199219 Z M 4.03125 -3.199219 "/></g></g></g><g fill="#000000" fill-opacity="1"><g transform="translate(66.063174, 94.575575)"><g><path d="M 0.109375 4.28125 C 1.113281 4.28125 1.640625 3.558594 2.113281 2.753906 C 2.53125 1.945312 2.808594 1.113281 3.03125 0.25 C 3.171875 -0.277344 3.308594 -0.777344 3.449219 -1.277344 C 3.558594 -1.78125 3.671875 -2.28125 3.808594 -2.78125 C 3.921875 -3.226562 4.085938 -3.613281 4.394531 -3.949219 C 4.8125 -4.421875 5.199219 -4.867188 5.589844 -5.339844 C 5.980469 -5.8125 6.367188 -6.257812 6.757812 -6.730469 L 7.84375 -8.0625 C 7.925781 -8.175781 7.953125 -8.257812 7.980469 -8.34375 C 8.007812 -8.371094 8.007812 -8.425781 7.953125 -8.453125 C 7.871094 -8.539062 7.730469 -8.59375 7.589844 -8.59375 C 7.453125 -8.59375 7.371094 -8.566406 7.285156 -8.480469 C 7.089844 -8.285156 6.925781 -8.09375 6.785156 -7.898438 C 6.480469 -7.480469 6.144531 -7.089844 5.839844 -6.730469 C 5.507812 -6.339844 5.171875 -5.949219 4.867188 -5.5625 C 4.8125 -5.507812 4.753906 -5.449219 4.671875 -5.421875 C 4.644531 -5.394531 4.617188 -5.394531 4.589844 -5.421875 L 4.5625 -5.449219 C 4.589844 -5.5625 4.589844 -5.671875 4.617188 -5.785156 C 4.617188 -5.894531 4.644531 -6.007812 4.671875 -6.089844 C 4.8125 -6.589844 4.976562 -7.089844 5.117188 -7.589844 C 5.253906 -8.0625 5.394531 -8.566406 5.535156 -9.039062 C 5.5625 -9.121094 5.589844 -9.203125 5.617188 -9.289062 C 5.617188 -9.34375 5.617188 -9.398438 5.644531 -9.484375 C 5.671875 -9.621094 5.617188 -9.734375 5.476562 -9.816406 C 5.394531 -9.84375 5.3125 -9.871094 5.199219 -9.871094 C 5.035156 -9.871094 4.894531 -9.816406 4.8125 -9.734375 L 4.03125 -8.925781 C 4.003906 -8.898438 3.976562 -8.898438 3.921875 -8.898438 C 3.894531 -8.898438 3.867188 -8.898438 3.835938 -8.925781 C 3.449219 -9.316406 2.976562 -9.511719 2.445312 -9.511719 C 2.003906 -9.511719 1.585938 -9.371094 1.222656 -9.066406 C 1.195312 -9.039062 1.140625 -9.011719 1.085938 -8.953125 C 0.277344 -8.203125 -0.304688 -7.203125 -0.304688 -6.089844 C -0.222656 -5.5625 0.332031 -5.285156 0.804688 -5.285156 C 1.058594 -5.285156 1.25 -5.339844 1.445312 -5.476562 C 1.695312 -5.617188 1.917969 -5.785156 2.113281 -5.980469 C 2.363281 -6.203125 2.613281 -6.421875 2.835938 -6.675781 C 3.058594 -6.894531 3.28125 -7.117188 3.53125 -7.339844 C 3.671875 -7.453125 3.78125 -7.535156 3.835938 -7.589844 L 3.894531 -7.589844 C 3.921875 -7.5625 3.949219 -7.507812 3.949219 -7.480469 L 3.78125 -6.925781 C 3.363281 -5.730469 3.03125 -4.503906 2.726562 -3.28125 C 2.640625 -2.976562 2.503906 -2.753906 2.363281 -2.585938 C 1 -1.027344 -0.445312 0.863281 -0.777344 2.976562 C -0.863281 3.28125 -0.777344 3.503906 -0.695312 3.808594 C -0.554688 4.144531 -0.222656 4.28125 0.109375 4.28125 Z M 0.195312 3.613281 C 0.109375 3.613281 0.0546875 3.558594 0.0546875 3.421875 C 0.0273438 3.335938 0.0273438 3.226562 0.0273438 3.085938 C 0.0273438 2.726562 0.109375 2.363281 0.222656 2.003906 C 0.640625 0.945312 1.195312 -0.0273438 1.890625 -0.917969 C 1.917969 -0.945312 1.945312 -0.945312 2.03125 -0.945312 C 2.058594 -0.917969 2.058594 -0.890625 2.058594 -0.835938 C 2.058594 -0.835938 2.058594 -0.777344 2.058594 -0.695312 C 1.75 0.390625 1.5 1.445312 1.058594 2.445312 C 0.890625 2.835938 0.695312 3.171875 0.5 3.421875 C 0.472656 3.449219 0.445312 3.449219 0.445312 3.476562 C 0.417969 3.503906 0.390625 3.53125 0.363281 3.558594 C 0.277344 3.585938 0.222656 3.613281 0.195312 3.613281 Z M 1.25 -6.367188 C 1.167969 -6.339844 1.085938 -6.421875 1.085938 -6.453125 C 1.085938 -6.535156 1.085938 -6.617188 1.113281 -6.644531 C 1.363281 -7.535156 1.917969 -8.480469 2.726562 -8.953125 C 2.753906 -8.980469 2.808594 -8.980469 2.890625 -8.980469 C 3.03125 -8.980469 3.113281 -8.925781 3.171875 -8.816406 C 3.199219 -8.730469 3.253906 -8.675781 3.28125 -8.621094 C 3.308594 -8.539062 3.335938 -8.480469 3.363281 -8.398438 L 3.363281 -8.34375 C 3.363281 -8.285156 3.363281 -8.230469 3.335938 -8.203125 L 3.253906 -8.121094 C 2.753906 -7.5625 2.167969 -7.035156 1.53125 -6.535156 Z M 1.25 -6.367188 "/></g></g></g><g fill="#000000" fill-opacity="1"><g transform="translate(72.653432, 94.575575)"><g><path d="M 0.972656 0.109375 C 1.972656 0.109375 2.863281 -1.113281 3.03125 -2.085938 C 3.226562 -2.949219 3.28125 -3.753906 2.976562 -4.617188 C 2.890625 -4.894531 2.976562 -5.117188 3.171875 -5.3125 C 3.226562 -5.339844 3.28125 -5.394531 3.308594 -5.449219 C 3.726562 -5.867188 4.171875 -6.285156 4.589844 -6.703125 C 5.003906 -7.089844 5.421875 -7.507812 5.839844 -7.925781 C 5.894531 -8.007812 5.980469 -8.09375 6.089844 -8.203125 C 6.171875 -8.34375 6.171875 -8.425781 6.035156 -8.480469 C 5.949219 -8.539062 5.867188 -8.566406 5.757812 -8.566406 C 5.671875 -8.566406 5.589844 -8.539062 5.507812 -8.453125 L 3.171875 -6.144531 C 3.058594 -6.035156 2.917969 -5.921875 2.78125 -5.8125 C 2.753906 -5.785156 2.699219 -5.757812 2.667969 -5.757812 C 2.417969 -5.757812 1.75 -8.035156 1.722656 -8.09375 C 1.640625 -8.398438 1.613281 -8.730469 1.640625 -9.09375 C 1.613281 -9.453125 1.640625 -9.789062 1.78125 -10.09375 C 1.917969 -10.511719 2.113281 -10.84375 2.53125 -11.039062 C 2.558594 -11.066406 2.585938 -11.066406 2.613281 -11.066406 C 2.699219 -11.066406 2.78125 -11.039062 2.808594 -10.957031 C 2.949219 -10.679688 2.976562 -10.429688 2.917969 -10.207031 C 2.835938 -9.675781 2.78125 -9.203125 2.640625 -8.730469 C 2.613281 -8.648438 2.585938 -8.539062 2.585938 -8.453125 C 2.558594 -8.34375 2.558594 -8.230469 2.53125 -8.148438 C 2.503906 -8.007812 2.558594 -7.898438 2.726562 -7.871094 C 2.753906 -7.871094 2.78125 -7.871094 2.808594 -7.871094 C 2.835938 -7.84375 2.835938 -7.84375 2.863281 -7.84375 C 3.003906 -7.84375 3.113281 -7.925781 3.171875 -8.0625 L 3.253906 -8.230469 C 3.558594 -8.953125 3.726562 -9.707031 3.726562 -10.457031 C 3.671875 -10.929688 3.449219 -11.234375 3.085938 -11.375 C 2.949219 -11.457031 2.78125 -11.511719 2.640625 -11.539062 C 2.503906 -11.597656 2.363281 -11.625 2.195312 -11.625 C 1.945312 -11.625 1.667969 -11.511719 1.417969 -11.316406 C 0.972656 -10.957031 0.722656 -10.484375 0.640625 -9.925781 C 0.527344 -9.203125 0.554688 -8.507812 0.75 -7.84375 C 0.972656 -7.035156 1.277344 -6.230469 1.585938 -5.449219 C 1.835938 -4.726562 1.890625 -4.949219 1.390625 -4.367188 C 0.804688 -3.671875 0.332031 -2.949219 -0.0820312 -2.195312 C -0.109375 -2.085938 -0.167969 -1.972656 -0.222656 -1.863281 C -0.277344 -1.75 -0.332031 -1.640625 -0.363281 -1.53125 C -0.554688 -0.863281 -0.195312 -0.222656 0.472656 0.0273438 C 0.640625 0.0820312 0.804688 0.109375 0.972656 0.109375 Z M 0.835938 -0.445312 C 0.75 -0.445312 0.667969 -0.472656 0.613281 -0.554688 C 0.445312 -0.75 0.390625 -1 0.417969 -1.308594 C 0.417969 -1.890625 1.335938 -3.226562 1.722656 -3.671875 C 1.75 -3.753906 1.808594 -3.753906 1.890625 -3.726562 C 1.917969 -3.699219 1.945312 -3.644531 1.945312 -3.613281 C 1.972656 -3.53125 2.003906 -3.421875 2.003906 -3.308594 C 2.003906 -3.199219 2.003906 -3.058594 1.972656 -2.917969 C 1.972656 -2.558594 1.917969 -2.195312 1.808594 -1.808594 C 1.722656 -1.445312 1.222656 -0.445312 0.835938 -0.445312 Z M 0.835938 -0.445312 "/></g></g></g></svg>