<svg xmlns="http://www.w3.org/2000/svg" xmlns:xlink="http://www.w3.org/1999/xlink" width="500" zoomAndPan="magnify" viewBox="0 0 375 374.999991" height="500" preserveAspectRatio="xMidYMid meet" version="1.0"><defs><clipPath id="7afb565e2b"><path d="M 23.4375 104 L 337.6875 104 L 337.6875 371 L 23.4375 371 Z M 23.4375 104 " clip-rule="nonzero"/></clipPath></defs><rect x="-37.5" width="450" fill="#ffffff" y="-37.499999" height="449.999989" fill-opacity="1"/><rect x="-37.5" width="450" fill="#ffffff" y="-37.499999" height="449.999989" fill-opacity="1"/><path fill="#2f283a" d="M 253.40625 107.527344 C 253.40625 124.898438 239.316406 138.980469 221.933594 138.980469 C 204.550781 138.980469 190.464844 124.898438 190.464844 107.527344 C 190.464844 90.15625 204.550781 76.074219 221.933594 76.074219 C 239.316406 76.074219 253.40625 90.15625 253.40625 107.527344 " fill-opacity="1" fill-rule="nonzero"/><path fill="#2f283a" d="M 164.078125 108.472656 C 164.078125 123.167969 152.160156 135.078125 137.460938 135.078125 C 122.757812 135.078125 110.839844 123.167969 110.839844 108.472656 C 110.839844 93.777344 122.757812 81.867188 137.460938 81.867188 C 152.160156 81.867188 164.078125 93.777344 164.078125 108.472656 " fill-opacity="1" fill-rule="nonzero"/><path fill="#2f283a" d="M 196.472656 97.277344 C 196.472656 111.855469 184.648438 123.675781 170.058594 123.675781 C 155.46875 123.675781 143.644531 111.855469 143.644531 97.277344 C 143.644531 82.699219 155.46875 70.878906 170.058594 70.878906 C 184.648438 70.878906 196.472656 82.699219 196.472656 97.277344 " fill-opacity="1" fill-rule="nonzero"/><path fill="#fa7d29" d="M 169.351562 100.214844 C 170.542969 96.050781 181.234375 99.097656 180.042969 103.261719 C 178.855469 107.429688 174.898438 113.320312 171.945312 112.480469 C 168.996094 111.636719 168.164062 104.378906 169.351562 100.214844 " fill-opacity="1" fill-rule="nonzero"/><path fill="#faa836" d="M 154.726562 100.785156 C 153.238281 98.152344 160 94.332031 161.488281 96.964844 C 162.980469 99.597656 163.976562 104.460938 162.109375 105.515625 C 160.242188 106.570312 156.21875 103.421875 154.726562 100.785156 " fill-opacity="1" fill-rule="nonzero"/><path fill="#fa7d29" d="M 223.597656 105.789062 C 223.011719 107.710938 218.082031 106.199219 218.667969 104.28125 C 219.257812 102.359375 221.144531 99.660156 222.503906 100.078125 C 223.867188 100.492188 224.1875 103.867188 223.597656 105.789062 " fill-opacity="1" fill-rule="nonzero"/><path fill="#faa836" d="M 213.867188 108.007812 C 215.1875 110.269531 209.386719 113.652344 208.066406 111.394531 C 206.746094 109.132812 205.828125 104.945312 207.429688 104.007812 C 209.03125 103.074219 212.546875 105.75 213.867188 108.007812 " fill-opacity="1" fill-rule="nonzero"/><path fill="#fa7d29" d="M 138.359375 108.152344 C 139.503906 110.109375 134.480469 113.042969 133.335938 111.085938 C 132.191406 109.128906 131.394531 105.5 132.78125 104.6875 C 134.171875 103.878906 137.214844 106.195312 138.359375 108.152344 " fill-opacity="1" fill-rule="nonzero"/><path fill="#faa836" d="M 250.03125 119.625 C 258.980469 120.535156 267.828125 116.59375 272.4375 108.738281 C 276.859375 101.207031 276.238281 92.039062 271.636719 84.808594 C 273.496094 83.894531 275.4375 82.746094 277.375 81.386719 C 285.066406 75.96875 289.664062 69.253906 287.648438 66.390625 C 285.980469 64.027344 280.320312 65.023438 274.066406 68.496094 C 276.972656 62.015625 277.480469 56.339844 274.996094 54.882812 C 272.71875 53.546875 268.578125 56.132812 264.640625 60.953125 C 264.007812 54.789062 261.984375 50.382812 259.355469 50.242188 C 255.855469 50.054688 252.609375 57.515625 252.105469 66.90625 C 251.992188 69.042969 252.03125 71.09375 252.195312 72.988281 C 243.347656 72.1875 234.640625 76.128906 230.078125 83.90625 C 225.566406 91.589844 226.304688 100.984375 231.171875 108.277344 C 229.183594 109.203125 227.089844 110.398438 225.003906 111.839844 C 217.265625 117.1875 212.609375 123.859375 214.601562 126.742188 C 216.25 129.121094 221.917969 128.171875 228.199219 124.753906 C 225.238281 131.210938 224.679688 136.882812 227.152344 138.359375 C 229.417969 139.714844 233.578125 137.167969 237.558594 132.378906 C 238.140625 138.546875 240.125 142.972656 242.75 143.136719 C 246.25 143.355469 249.558594 135.921875 250.144531 126.535156 C 250.296875 124.085938 250.25 121.75 250.03125 119.625 " fill-opacity="1" fill-rule="nonzero"/><path fill="#ffffff" d="M 258.089844 74.238281 C 259.734375 74.796875 261.355469 75.53125 262.917969 76.449219 C 264.351562 77.289062 265.671875 78.242188 266.875 79.289062 C 268.234375 78.953125 269.730469 78.351562 271.195312 77.515625 C 274.960938 75.351562 277.042969 72.425781 275.84375 70.980469 C 274.851562 69.789062 271.933594 69.980469 268.828125 71.300781 C 270.03125 68.402344 270.019531 65.765625 268.644531 64.960938 C 267.386719 64.222656 265.34375 65.230469 263.515625 67.300781 C 262.878906 64.375 261.601562 62.207031 260.21875 62.011719 C 258.375 61.753906 257.039062 65.09375 257.238281 69.476562 C 257.316406 71.226562 257.628906 72.871094 258.089844 74.238281 " fill-opacity="1" fill-rule="nonzero"/><path fill="#ffffff" d="M 243.65625 118.128906 C 242.277344 117.609375 240.914062 116.96875 239.59375 116.191406 C 238.363281 115.472656 237.21875 114.667969 236.160156 113.792969 C 234.574219 114.054688 232.707031 114.726562 230.898438 115.765625 C 227.132812 117.933594 225.050781 120.855469 226.25 122.296875 C 227.242188 123.488281 230.160156 123.300781 233.265625 121.976562 C 232.0625 124.875 232.074219 127.515625 233.449219 128.320312 C 234.707031 129.058594 236.75 128.050781 238.578125 125.980469 C 239.214844 128.902344 240.492188 131.074219 241.875 131.265625 C 243.71875 131.523438 245.054688 128.183594 244.855469 123.800781 C 244.757812 121.648438 244.308594 119.640625 243.65625 118.128906 " fill-opacity="1" fill-rule="nonzero"/><path fill="#ffffff" d="M 245.875 76.25 C 247.25 78.65625 245.082031 81.097656 246.054688 83.542969 C 246.617188 84.96875 247.878906 86.027344 249.375 86.355469 C 250.964844 86.699219 252.621094 86.296875 254.230469 86.398438 C 255.015625 86.449219 255.796875 86.5625 256.558594 86.742188 C 257.03125 86.851562 257.996094 86.992188 258.316406 87.378906 C 258.550781 87.660156 258.507812 88.304688 258.507812 88.632812 C 258.507812 89.230469 258.441406 89.824219 258.386719 90.421875 C 258.289062 91.554688 258.300781 92.691406 258.734375 93.761719 C 259.34375 95.261719 260.660156 96.480469 262.191406 96.984375 C 263.699219 97.484375 265.253906 97.34375 266.800781 97.164062 C 268.023438 97.023438 269.847656 96.699219 270.898438 97.554688 C 271.8125 98.300781 271.832031 100.027344 271.800781 101.09375 C 271.761719 102.582031 271.453125 104.058594 271.84375 105.535156 C 272.078125 106.40625 272.460938 107.152344 272.953125 107.796875 C 273.363281 107.011719 273.726562 106.207031 274.03125 105.394531 C 274.03125 105.191406 274.039062 104.988281 274.046875 104.796875 C 274.105469 103.277344 274.25 101.816406 273.941406 100.304688 C 273.625 98.734375 272.875 97.230469 271.710938 96.117188 C 270.546875 95.011719 269.089844 94.457031 267.496094 94.425781 C 265.933594 94.398438 264.390625 94.828125 262.832031 94.738281 C 262.230469 94.703125 261.261719 94.652344 260.800781 94.21875 C 260.644531 94.074219 260.570312 93.597656 260.542969 93.292969 C 260.441406 92.160156 260.675781 91.023438 260.644531 89.886719 C 260.613281 88.632812 260.234375 87.425781 259.40625 86.460938 C 258.265625 85.132812 256.644531 84.578125 254.96875 84.269531 C 253.339844 83.972656 251.753906 84.054688 250.113281 84.132812 C 249.480469 84.160156 248.394531 84.292969 247.839844 83.886719 C 247.832031 83.882812 247.828125 83.878906 247.820312 83.875 C 247.820312 83.878906 247.824219 83.882812 247.824219 83.886719 C 247.90625 84.054688 247.703125 83.796875 247.820312 83.875 C 247.777344 83.769531 247.769531 83.652344 247.757812 83.542969 C 247.71875 83.230469 247.757812 82.902344 247.796875 82.59375 C 247.964844 81.296875 248.371094 80.085938 248.183594 78.757812 C 247.992188 77.410156 247.335938 76.152344 246.488281 75.09375 C 245.964844 74.449219 245.378906 73.902344 244.742188 73.445312 C 244.152344 73.574219 243.570312 73.722656 242.996094 73.894531 C 244.183594 74.367188 245.21875 75.105469 245.875 76.25 " fill-opacity="1" fill-rule="nonzero"/><path fill="#ffffff" d="M 247.824219 83.882812 C 247.824219 83.878906 247.824219 83.878906 247.824219 83.875 C 247.703125 83.796875 247.910156 84.054688 247.824219 83.882812 " fill-opacity="1" fill-rule="nonzero"/><path fill="#ffffff" d="M 241.910156 93.964844 C 241.90625 93.960938 241.90625 93.957031 241.90625 93.953125 C 241.789062 93.878906 241.992188 94.136719 241.910156 93.964844 " fill-opacity="1" fill-rule="nonzero"/><path fill="#ffffff" d="M 239.957031 86.332031 C 241.332031 88.738281 239.167969 91.175781 240.136719 93.621094 C 240.703125 95.046875 241.964844 96.109375 243.457031 96.433594 C 245.050781 96.78125 246.703125 96.378906 248.3125 96.484375 C 249.097656 96.53125 249.878906 96.644531 250.640625 96.820312 C 251.113281 96.933594 252.078125 97.074219 252.398438 97.457031 C 252.632812 97.742188 252.59375 98.382812 252.589844 98.714844 C 252.589844 99.3125 252.523438 99.90625 252.472656 100.503906 C 252.371094 101.636719 252.386719 102.769531 252.820312 103.84375 C 253.425781 105.34375 254.742188 106.558594 256.273438 107.066406 C 257.78125 107.566406 259.335938 107.425781 260.882812 107.246094 C 262.105469 107.105469 263.933594 106.78125 264.980469 107.632812 C 265.894531 108.378906 265.914062 110.109375 265.886719 111.171875 C 265.84375 112.664062 265.535156 114.140625 265.929688 115.617188 C 265.9375 115.640625 265.945312 115.664062 265.949219 115.6875 C 266.726562 115.15625 267.46875 114.578125 268.171875 113.949219 C 268.226562 112.757812 268.269531 111.585938 268.027344 110.386719 C 267.707031 108.816406 266.960938 107.3125 265.792969 106.199219 C 264.628906 105.089844 263.171875 104.535156 261.578125 104.507812 C 260.015625 104.480469 258.472656 104.910156 256.910156 104.816406 C 256.316406 104.785156 255.34375 104.738281 254.882812 104.300781 C 254.726562 104.152344 254.652344 103.679688 254.625 103.375 C 254.527344 102.242188 254.757812 101.105469 254.726562 99.96875 C 254.695312 98.714844 254.316406 97.503906 253.488281 96.539062 C 252.351562 95.214844 250.726562 94.660156 249.054688 94.351562 C 247.421875 94.054688 245.839844 94.136719 244.195312 94.214844 C 243.5625 94.242188 242.476562 94.371094 241.921875 93.96875 C 241.917969 93.960938 241.910156 93.957031 241.90625 93.953125 C 241.90625 93.957031 241.90625 93.960938 241.910156 93.964844 C 241.992188 94.136719 241.789062 93.878906 241.90625 93.953125 C 241.859375 93.851562 241.851562 93.734375 241.839844 93.625 C 241.804688 93.3125 241.839844 92.984375 241.878906 92.675781 C 242.046875 91.375 242.453125 90.167969 242.265625 88.84375 C 242.074219 87.492188 241.417969 86.230469 240.570312 85.175781 C 238.382812 82.464844 235.078125 81.515625 231.707031 81.511719 C 231.28125 82.054688 230.878906 82.617188 230.503906 83.210938 C 230.992188 83.199219 231.476562 83.195312 231.949219 83.191406 C 234.746094 83.183594 238.414062 83.632812 239.957031 86.332031 " fill-opacity="1" fill-rule="nonzero"/><path fill="#ffffff" d="M 233.957031 96.554688 C 235.332031 98.960938 233.167969 101.398438 234.136719 103.847656 C 234.703125 105.269531 235.964844 106.332031 237.457031 106.660156 C 239.050781 107.007812 240.703125 106.601562 242.3125 106.707031 C 243.097656 106.753906 243.878906 106.867188 244.644531 107.042969 C 245.117188 107.152344 246.078125 107.296875 246.398438 107.683594 C 246.632812 107.964844 246.589844 108.605469 246.589844 108.9375 C 246.589844 109.535156 246.523438 110.128906 246.46875 110.726562 C 246.371094 111.859375 246.386719 112.992188 246.820312 114.066406 C 247.425781 115.566406 248.742188 116.78125 250.273438 117.289062 C 251.78125 117.789062 253.335938 117.648438 254.882812 117.46875 C 256.105469 117.328125 257.933594 117.003906 258.980469 117.859375 C 259.246094 118.078125 259.4375 118.382812 259.574219 118.730469 C 260.105469 118.570312 260.628906 118.394531 261.148438 118.199219 C 260.785156 117.542969 260.335938 116.941406 259.792969 116.425781 C 258.628906 115.3125 257.171875 114.761719 255.578125 114.730469 C 254.015625 114.707031 252.472656 115.128906 250.914062 115.039062 C 250.316406 115.007812 249.34375 114.957031 248.882812 114.523438 C 248.726562 114.375 248.65625 113.902344 248.628906 113.597656 C 248.527344 112.464844 248.761719 111.328125 248.730469 110.191406 C 248.695312 108.9375 248.316406 107.730469 247.488281 106.765625 C 246.347656 105.4375 244.726562 104.882812 243.054688 104.574219 C 241.425781 104.273438 239.835938 104.359375 238.195312 104.433594 C 237.566406 104.464844 236.476562 104.597656 235.921875 104.191406 C 235.914062 104.183594 235.910156 104.179688 235.90625 104.179688 C 235.90625 104.179688 235.90625 104.183594 235.910156 104.1875 C 235.992188 104.359375 235.789062 104.101562 235.90625 104.179688 C 235.855469 104.074219 235.851562 103.957031 235.839844 103.847656 C 235.800781 103.535156 235.839844 103.207031 235.878906 102.898438 C 236.046875 101.597656 236.453125 100.390625 236.265625 99.066406 C 236.074219 97.714844 235.421875 96.457031 234.570312 95.402344 C 232.730469 93.117188 230.101562 92.085938 227.308594 91.8125 C 227.226562 92.355469 227.167969 92.898438 227.132812 93.441406 C 229.707031 93.570312 232.625 94.222656 233.957031 96.554688 " fill-opacity="1" fill-rule="nonzero"/><path fill="#ffffff" d="M 235.910156 104.1875 C 235.90625 104.183594 235.90625 104.183594 235.90625 104.175781 C 235.789062 104.101562 235.992188 104.359375 235.910156 104.1875 " fill-opacity="1" fill-rule="nonzero"/><path fill="#ca3b3b" d="M 124.835938 120.152344 C 129.996094 112.585938 130.761719 102.75 125.960938 94.804688 C 121.355469 87.1875 112.835938 83.289062 104.121094 83.894531 C 104.207031 81.789062 104.121094 79.488281 103.839844 77.09375 C 102.722656 67.578125 98.9375 60.199219 95.390625 60.613281 C 92.460938 60.957031 90.605469 66.511719 90.679688 73.792969 C 86.28125 68.046875 81.441406 64.832031 78.929688 66.351562 C 76.628906 67.742188 76.933594 72.703125 79.339844 78.570312 C 73.507812 76.144531 68.574219 75.816406 67.171875 78.097656 C 65.300781 81.140625 70.414062 87.671875 78.585938 92.683594 C 80.445312 93.824219 82.300781 94.789062 84.082031 95.558594 C 79.066406 103.09375 78.371094 112.804688 83.121094 120.664062 C 87.820312 128.4375 96.597656 132.339844 105.5 131.527344 C 105.363281 133.757812 105.417969 136.210938 105.699219 138.777344 C 106.734375 148.304688 110.449219 155.714844 114.003906 155.328125 C 116.9375 155.011719 118.839844 149.476562 118.828125 142.191406 C 123.175781 147.976562 127.988281 151.234375 130.511719 149.738281 C 132.828125 148.367188 132.566406 143.402344 130.210938 137.515625 C 136.019531 139.992188 140.953125 140.367188 142.375 138.09375 C 144.269531 135.066406 139.214844 128.492188 131.085938 123.410156 C 128.964844 122.082031 126.84375 120.988281 124.835938 120.152344 " fill-opacity="1" fill-rule="nonzero"/><path fill="#ffffff" d="M 88.066406 90.890625 C 89.367188 89.6875 90.808594 88.59375 92.394531 87.636719 C 93.84375 86.761719 95.339844 86.046875 96.863281 85.476562 C 97.21875 84.097656 97.410156 82.460938 97.367188 80.746094 C 97.257812 76.324219 95.644531 73.039062 93.769531 73.414062 C 92.222656 73.722656 90.972656 76.425781 90.648438 79.847656 C 88.636719 77.363281 86.265625 76.089844 84.875 76.929688 C 83.601562 77.699219 83.515625 80.019531 84.480469 82.660156 C 81.550781 81.808594 78.988281 81.898438 78.140625 83.042969 C 77.011719 84.570312 79.359375 87.386719 83.382812 89.339844 C 84.988281 90.117188 86.617188 90.640625 88.066406 90.890625 " fill-opacity="1" fill-rule="nonzero"/><path fill="#ffffff" d="M 120.394531 125.132812 C 119.261719 126.117188 118.023438 127.023438 116.6875 127.828125 C 115.445312 128.582031 114.167969 129.214844 112.867188 129.738281 C 112.332031 131.285156 112.027344 133.285156 112.082031 135.410156 C 112.191406 139.832031 113.800781 143.113281 115.679688 142.742188 C 117.226562 142.433594 118.472656 139.730469 118.796875 136.304688 C 120.8125 138.792969 123.183594 140.0625 124.570312 139.222656 C 125.84375 138.453125 125.933594 136.132812 124.964844 133.492188 C 127.894531 134.34375 130.460938 134.253906 131.304688 133.109375 C 132.433594 131.585938 130.085938 128.765625 126.0625 126.8125 C 124.082031 125.855469 122.070312 125.28125 120.394531 125.132812 " fill-opacity="1" fill-rule="nonzero"/><path fill="#ffffff" d="M 83.933594 102.804688 C 86.757812 102.742188 87.890625 105.863281 90.558594 106.1875 C 92.109375 106.371094 93.675781 105.757812 94.691406 104.578125 C 95.777344 103.320312 96.21875 101.644531 97.09375 100.253906 C 97.515625 99.574219 97.996094 98.933594 98.527344 98.335938 C 98.855469 97.964844 99.453125 97.167969 99.953125 97.070312 C 100.320312 96.996094 100.875 97.347656 101.171875 97.507812 C 101.707031 97.800781 102.207031 98.148438 102.714844 98.484375 C 103.6875 99.125 104.707031 99.664062 105.878906 99.796875 C 107.519531 99.980469 109.25 99.390625 110.449219 98.269531 C 111.625 97.160156 112.257812 95.703125 112.847656 94.230469 C 113.3125 93.066406 113.910156 91.273438 115.1875 90.75 C 116.300781 90.292969 117.855469 91.113281 118.796875 91.660156 C 120.117188 92.417969 121.289062 93.414062 122.800781 93.777344 C 123.695312 93.992188 124.550781 94.011719 125.367188 93.882812 C 124.863281 93.132812 124.316406 92.421875 123.738281 91.753906 C 123.554688 91.652344 123.375 91.546875 123.210938 91.449219 C 121.875 90.65625 120.632812 89.820312 119.132812 89.359375 C 117.570312 88.882812 115.859375 88.820312 114.292969 89.324219 C 112.738281 89.828125 111.53125 90.863281 110.730469 92.277344 C 109.949219 93.660156 109.582031 95.253906 108.742188 96.601562 C 108.421875 97.121094 107.90625 97.96875 107.289062 98.171875 C 107.085938 98.238281 106.625 98.074219 106.335938 97.949219 C 105.273438 97.488281 104.367188 96.726562 103.335938 96.203125 C 102.195312 95.621094 100.925781 95.375 99.660156 95.648438 C 97.917969 96.023438 96.628906 97.207031 95.542969 98.558594 C 94.480469 99.871094 93.789062 101.332031 93.058594 102.835938 C 92.777344 103.417969 92.367188 104.453125 91.734375 104.753906 C 91.726562 104.757812 91.71875 104.761719 91.714844 104.765625 C 91.71875 104.765625 91.722656 104.765625 91.726562 104.765625 C 91.917969 104.777344 91.589844 104.832031 91.714844 104.765625 C 91.597656 104.753906 91.492188 104.703125 91.382812 104.660156 C 91.089844 104.542969 90.8125 104.351562 90.554688 104.164062 C 89.472656 103.382812 88.585938 102.429688 87.304688 101.957031 C 86 101.472656 84.554688 101.445312 83.199219 101.695312 C 82.363281 101.847656 81.589844 102.105469 80.871094 102.453125 C 80.699219 103.042969 80.550781 103.636719 80.425781 104.238281 C 81.425781 103.402344 82.589844 102.832031 83.933594 102.804688 " fill-opacity="1" fill-rule="nonzero"/><path fill="#ffffff" d="M 91.726562 104.765625 C 91.722656 104.765625 91.71875 104.765625 91.714844 104.761719 C 91.589844 104.832031 91.917969 104.773438 91.726562 104.765625 " fill-opacity="1" fill-rule="nonzero"/><path fill="#ffffff" d="M 97.886719 114.957031 C 97.882812 114.957031 97.878906 114.957031 97.875 114.957031 C 97.75 115.023438 98.082031 114.96875 97.886719 114.957031 " fill-opacity="1" fill-rule="nonzero"/><path fill="#ffffff" d="M 90.09375 112.996094 C 92.921875 112.933594 94.054688 116.058594 96.71875 116.378906 C 98.269531 116.566406 99.835938 115.949219 100.855469 114.773438 C 101.9375 113.511719 102.378906 111.835938 103.253906 110.445312 C 103.679688 109.769531 104.160156 109.125 104.691406 108.527344 C 105.019531 108.15625 105.613281 107.359375 106.117188 107.261719 C 106.484375 107.191406 107.035156 107.539062 107.332031 107.703125 C 107.871094 107.992188 108.367188 108.34375 108.878906 108.675781 C 109.847656 109.316406 110.871094 109.855469 112.042969 109.988281 C 113.679688 110.171875 115.410156 109.585938 116.609375 108.460938 C 117.789062 107.355469 118.421875 105.894531 119.011719 104.421875 C 119.476562 103.257812 120.070312 101.464844 121.347656 100.941406 C 122.460938 100.484375 124.019531 101.308594 124.960938 101.851562 C 126.277344 102.609375 127.449219 103.609375 128.964844 103.972656 C 128.988281 103.976562 129.011719 103.980469 129.039062 103.988281 C 128.9375 103.035156 128.78125 102.089844 128.558594 101.152344 C 127.515625 100.523438 126.488281 99.917969 125.292969 99.554688 C 123.734375 99.074219 122.019531 99.015625 120.457031 99.519531 C 118.898438 100.019531 117.691406 101.054688 116.894531 102.46875 C 116.109375 103.855469 115.742188 105.445312 114.902344 106.796875 C 114.582031 107.316406 114.066406 108.164062 113.453125 108.363281 C 113.246094 108.429688 112.785156 108.265625 112.5 108.144531 C 111.433594 107.683594 110.527344 106.917969 109.496094 106.394531 C 108.355469 105.816406 107.085938 105.570312 105.820312 105.84375 C 104.078125 106.21875 102.792969 107.402344 101.703125 108.75 C 100.644531 110.0625 99.949219 111.523438 99.21875 113.03125 C 98.9375 113.609375 98.527344 114.648438 97.894531 114.945312 C 97.886719 114.949219 97.882812 114.953125 97.875 114.957031 C 97.878906 114.957031 97.882812 114.957031 97.886719 114.957031 C 98.082031 114.964844 97.75 115.023438 97.875 114.957031 C 97.761719 114.949219 97.652344 114.894531 97.546875 114.855469 C 97.25 114.734375 96.972656 114.542969 96.71875 114.355469 C 95.632812 113.574219 94.746094 112.625 93.46875 112.148438 C 92.164062 111.664062 90.714844 111.636719 89.359375 111.886719 C 85.867188 112.527344 83.410156 115.023438 81.765625 118.042969 C 82.046875 118.683594 82.359375 119.320312 82.707031 119.945312 C 82.933594 119.5 83.164062 119.066406 83.390625 118.644531 C 84.742188 116.132812 86.929688 113.066406 90.09375 112.996094 " fill-opacity="1" fill-rule="nonzero"/><path fill="#ffffff" d="M 96.34375 123.335938 C 99.167969 123.273438 100.304688 126.394531 102.96875 126.71875 C 104.519531 126.902344 106.085938 126.289062 107.101562 125.109375 C 108.1875 123.851562 108.628906 122.175781 109.503906 120.785156 C 109.929688 120.109375 110.410156 119.464844 110.941406 118.867188 C 111.265625 118.496094 111.863281 117.699219 112.363281 117.601562 C 112.734375 117.53125 113.285156 117.878906 113.582031 118.039062 C 114.121094 118.332031 114.617188 118.683594 115.125 119.015625 C 116.097656 119.65625 117.117188 120.195312 118.292969 120.328125 C 119.929688 120.511719 121.660156 119.925781 122.859375 118.800781 C 124.039062 117.691406 124.671875 116.234375 125.261719 114.761719 C 125.722656 113.597656 126.320312 111.804688 127.597656 111.28125 C 127.925781 111.148438 128.289062 111.125 128.667969 111.171875 C 128.78125 110.621094 128.878906 110.066406 128.953125 109.507812 C 128.191406 109.511719 127.433594 109.625 126.707031 109.855469 C 125.148438 110.359375 123.941406 111.398438 123.144531 112.808594 C 122.359375 114.195312 121.992188 115.785156 121.152344 117.136719 C 120.832031 117.652344 120.316406 118.5 119.703125 118.703125 C 119.496094 118.769531 119.035156 118.605469 118.75 118.484375 C 117.683594 118.019531 116.777344 117.257812 115.746094 116.734375 C 114.605469 116.15625 113.335938 115.910156 112.070312 116.179688 C 110.328125 116.558594 109.042969 117.738281 107.953125 119.089844 C 106.890625 120.402344 106.199219 121.863281 105.46875 123.367188 C 105.1875 123.949219 104.777344 124.988281 104.144531 125.285156 C 104.136719 125.289062 104.128906 125.292969 104.125 125.296875 C 104.128906 125.296875 104.132812 125.296875 104.136719 125.296875 C 104.328125 125.304688 104 125.363281 104.125 125.296875 C 104.007812 125.289062 103.902344 125.234375 103.796875 125.191406 C 103.5 125.074219 103.222656 124.882812 102.964844 124.695312 C 101.882812 123.917969 100.996094 122.964844 99.714844 122.488281 C 98.414062 122.003906 96.964844 121.976562 95.609375 122.226562 C 92.667969 122.765625 90.46875 124.617188 88.863281 126.988281 C 89.308594 127.320312 89.769531 127.636719 90.238281 127.933594 C 91.605469 125.695312 93.609375 123.394531 96.34375 123.335938 " fill-opacity="1" fill-rule="nonzero"/><path fill="#ffffff" d="M 104.136719 125.296875 C 104.132812 125.296875 104.128906 125.296875 104.125 125.296875 C 104 125.363281 104.328125 125.308594 104.136719 125.296875 " fill-opacity="1" fill-rule="nonzero"/><path fill="#ffffff" d="M 195.789062 146.71875 L 183.597656 145.117188 L 193.574219 69.257812 L 205.765625 70.859375 L 195.789062 146.71875 " fill-opacity="1" fill-rule="nonzero"/><path fill="#ca3b3b" d="M 207.433594 99.617188 C 181.097656 102.503906 157.375 83.214844 154.449219 56.535156 C 151.523438 29.859375 170.503906 5.890625 196.839844 3.007812 C 223.171875 0.125 246.894531 19.414062 249.816406 46.089844 C 252.746094 72.769531 233.765625 96.734375 207.433594 99.617188 " fill-opacity="1" fill-rule="nonzero"/><path fill="#ffffff" d="M 178.988281 93.804688 C 176.917969 92.019531 175.023438 90.039062 173.34375 87.894531 C 171.464844 85.507812 169.851562 82.921875 168.535156 80.191406 C 168.359375 79.855469 168.214844 79.503906 168.0625 79.15625 L 167.605469 78.117188 C 167.457031 77.769531 167.332031 77.410156 167.195312 77.054688 C 167.0625 76.703125 166.917969 76.351562 166.792969 75.992188 L 166.441406 74.914062 C 166.328125 74.554688 166.199219 74.199219 166.105469 73.832031 L 165.804688 72.734375 C 165.757812 72.550781 165.703125 72.371094 165.660156 72.1875 L 165.535156 71.632812 C 164.855469 68.683594 164.492188 65.667969 164.457031 62.648438 C 164.378906 56.605469 165.644531 50.566406 168.125 45.078125 C 169.363281 42.332031 170.925781 39.734375 172.738281 37.332031 C 173.199219 36.742188 173.640625 36.125 174.140625 35.570312 C 174.386719 35.289062 174.617188 35 174.875 34.726562 L 175.644531 33.910156 C 175.894531 33.636719 176.171875 33.382812 176.4375 33.125 L 176.84375 32.738281 C 176.976562 32.609375 177.109375 32.476562 177.253906 32.359375 C 177.820312 31.875 178.375 31.371094 178.972656 30.925781 C 183.671875 27.253906 189.390625 24.914062 195.308594 24.234375 C 196.789062 24.074219 198.277344 23.972656 199.765625 24.019531 L 200.324219 24.027344 L 200.882812 24.058594 C 201.253906 24.085938 201.625 24.101562 201.996094 24.132812 C 202.734375 24.21875 203.476562 24.277344 204.207031 24.410156 L 204.757812 24.5 L 205.035156 24.542969 L 205.308594 24.601562 L 206.398438 24.828125 C 206.761719 24.90625 207.121094 25.011719 207.480469 25.097656 L 208.019531 25.242188 C 208.199219 25.289062 208.375 25.351562 208.550781 25.402344 L 209.617188 25.734375 L 210.660156 26.121094 C 210.835938 26.1875 211.011719 26.246094 211.183594 26.316406 L 211.695312 26.535156 C 212.035156 26.683594 212.382812 26.816406 212.71875 26.976562 C 213.386719 27.304688 214.0625 27.613281 214.707031 27.984375 L 215.195312 28.253906 L 215.4375 28.382812 C 215.519531 28.429688 215.597656 28.480469 215.679688 28.53125 L 216.628906 29.113281 L 216.863281 29.257812 L 217.09375 29.414062 L 218.011719 30.046875 L 218.242188 30.203125 L 218.464844 30.371094 L 219.351562 31.046875 L 219.574219 31.21875 L 219.78125 31.394531 L 220.203125 31.753906 C 221.320312 32.710938 222.355469 33.757812 223.296875 34.886719 C 224.230469 36.019531 225.066406 37.234375 225.792969 38.507812 C 226.523438 39.78125 227.144531 41.117188 227.648438 42.496094 C 228.144531 43.878906 228.523438 45.300781 228.78125 46.746094 C 229.292969 49.636719 229.324219 52.617188 228.835938 55.511719 C 228.351562 58.402344 227.394531 61.222656 225.953125 63.78125 C 225.238281 65.0625 224.414062 66.285156 223.5 67.4375 C 222.589844 68.566406 221.5625 69.597656 220.433594 70.507812 C 218.183594 72.328125 215.535156 73.65625 212.722656 74.375 C 209.910156 75.089844 206.949219 75.203125 204.089844 74.710938 C 201.230469 74.207031 198.488281 73.078125 196.097656 71.429688 C 195.792969 71.234375 195.507812 71.007812 195.214844 70.789062 C 194.917969 70.574219 194.65625 70.335938 194.378906 70.109375 C 193.84375 69.632812 193.328125 69.136719 192.863281 68.59375 C 191.914062 67.527344 191.128906 66.316406 190.5 65.035156 C 189.253906 62.460938 188.71875 59.546875 188.945312 56.691406 C 189.171875 53.832031 190.1875 51.046875 191.851562 48.699219 C 191.953125 48.550781 192.066406 48.410156 192.171875 48.265625 C 192.28125 48.121094 192.386719 47.976562 192.503906 47.84375 C 192.617188 47.710938 192.726562 47.570312 192.84375 47.441406 L 193.207031 47.050781 C 193.699219 46.546875 194.230469 46.082031 194.796875 45.660156 C 195.929688 44.816406 197.214844 44.1875 198.566406 43.761719 C 199.917969 43.339844 201.339844 43.160156 202.757812 43.199219 C 204.175781 43.246094 205.585938 43.539062 206.910156 44.042969 C 207.570312 44.300781 208.210938 44.613281 208.824219 44.976562 C 208.972656 45.070312 209.128906 45.152344 209.277344 45.257812 L 209.71875 45.554688 L 210.144531 45.878906 C 210.292969 45.980469 210.417969 46.097656 210.554688 46.210938 C 211.609375 47.113281 212.476562 48.242188 213.070312 49.503906 C 213.664062 50.761719 213.996094 52.152344 214.03125 53.550781 C 214.070312 54.949219 213.800781 56.351562 213.269531 57.648438 C 213.003906 58.292969 212.667969 58.914062 212.273438 59.496094 C 212.074219 59.785156 211.859375 60.070312 211.636719 60.328125 C 211.414062 60.582031 211.175781 60.835938 210.917969 61.058594 C 209.898438 61.976562 208.625 62.613281 207.273438 62.894531 C 205.921875 63.179688 204.496094 63.097656 203.179688 62.671875 C 202.523438 62.449219 201.886719 62.15625 201.308594 61.773438 C 201.164062 61.675781 201.019531 61.578125 200.882812 61.472656 C 200.738281 61.371094 200.613281 61.257812 200.484375 61.144531 C 200.359375 61.035156 200.226562 60.925781 200.117188 60.796875 L 199.945312 60.613281 C 199.886719 60.550781 199.824219 60.492188 199.777344 60.421875 C 199.339844 59.902344 199.007812 59.304688 198.761719 58.671875 C 198.707031 58.511719 198.636719 58.355469 198.601562 58.1875 L 198.535156 57.945312 C 198.511719 57.859375 198.488281 57.777344 198.480469 57.695312 L 198.394531 57.191406 L 198.359375 56.679688 C 198.320312 55.320312 198.703125 53.9375 199.515625 52.828125 L 199.664062 52.617188 C 199.710938 52.546875 199.773438 52.488281 199.824219 52.425781 L 199.988281 52.234375 C 200.039062 52.167969 200.105469 52.121094 200.164062 52.058594 L 200.347656 51.886719 C 200.40625 51.832031 200.476562 51.785156 200.542969 51.734375 L 200.738281 51.578125 C 200.804688 51.53125 200.878906 51.492188 200.949219 51.449219 C 201.511719 51.09375 202.152344 50.855469 202.816406 50.75 C 203.480469 50.648438 204.164062 50.679688 204.816406 50.847656 C 205.472656 51.015625 206.089844 51.320312 206.625 51.738281 C 207.519531 52.457031 208.40625 51.351562 207.511719 50.636719 C 206.945312 49.953125 206.191406 49.386719 205.332031 48.980469 C 204.464844 48.582031 203.488281 48.363281 202.476562 48.351562 C 201.464844 48.335938 200.425781 48.554688 199.445312 48.984375 C 199.324219 49.042969 199.199219 49.089844 199.078125 49.152344 L 198.722656 49.351562 C 198.609375 49.417969 198.484375 49.480469 198.375 49.558594 L 198.039062 49.792969 C 197.925781 49.875 197.808594 49.949219 197.707031 50.039062 L 197.390625 50.3125 C 197.292969 50.402344 197.175781 50.492188 197.089844 50.585938 L 196.816406 50.871094 C 196.085938 51.632812 195.464844 52.542969 195.023438 53.550781 C 194.574219 54.558594 194.292969 55.660156 194.1875 56.792969 C 194.078125 57.933594 194.1875 59.101562 194.476562 60.246094 L 194.585938 60.675781 C 194.628906 60.816406 194.683594 60.957031 194.730469 61.097656 L 194.882812 61.519531 L 194.964844 61.730469 L 195.054688 61.9375 C 195.183594 62.210938 195.308594 62.484375 195.453125 62.753906 C 195.601562 63.019531 195.761719 63.277344 195.925781 63.535156 C 196.003906 63.667969 196.097656 63.789062 196.1875 63.914062 L 196.46875 64.28125 C 196.648438 64.53125 196.859375 64.753906 197.070312 64.980469 C 197.277344 65.207031 197.5 65.441406 197.703125 65.625 C 197.910156 65.824219 198.128906 66.011719 198.355469 66.199219 C 199.246094 66.945312 200.269531 67.558594 201.359375 68.054688 C 202.453125 68.535156 203.621094 68.894531 204.828125 69.074219 C 205.429688 69.171875 206.042969 69.214844 206.660156 69.234375 C 207.277344 69.242188 207.898438 69.214844 208.515625 69.148438 C 210.996094 68.878906 213.46875 67.917969 215.554688 66.347656 C 216.082031 65.957031 216.574219 65.527344 217.046875 65.074219 C 217.273438 64.847656 217.515625 64.597656 217.707031 64.382812 C 217.910156 64.15625 218.113281 63.933594 218.300781 63.695312 C 219.070312 62.757812 219.753906 61.726562 220.324219 60.625 C 221.46875 58.417969 222.132812 55.929688 222.257812 53.390625 C 222.394531 50.847656 221.96875 48.25 221.019531 45.804688 C 220.542969 44.582031 219.9375 43.390625 219.195312 42.289062 C 218.457031 41.179688 217.59375 40.144531 216.640625 39.210938 L 216.277344 38.867188 L 216.09375 38.695312 L 215.917969 38.542969 C 215.6875 38.339844 215.457031 38.136719 215.222656 37.9375 C 214.980469 37.746094 214.738281 37.554688 214.492188 37.367188 C 214.25 37.175781 213.992188 37.003906 213.738281 36.820312 C 212.714844 36.117188 211.621094 35.496094 210.476562 34.964844 C 209.332031 34.441406 208.136719 34.007812 206.914062 33.679688 C 205.6875 33.347656 204.429688 33.113281 203.15625 33 C 200.609375 32.773438 198.011719 32.957031 195.484375 33.582031 C 194.222656 33.898438 192.980469 34.324219 191.777344 34.855469 C 190.574219 35.382812 189.40625 36.011719 188.300781 36.746094 C 187.195312 37.480469 186.144531 38.300781 185.171875 39.210938 C 184.933594 39.441406 184.695312 39.671875 184.460938 39.90625 C 184.226562 40.144531 184.007812 40.390625 183.78125 40.636719 C 183.546875 40.886719 183.359375 41.113281 183.164062 41.347656 C 182.96875 41.582031 182.769531 41.8125 182.582031 42.054688 C 182.210938 42.542969 181.832031 43.023438 181.492188 43.539062 C 181.320312 43.792969 181.144531 44.046875 180.976562 44.304688 L 180.496094 45.101562 C 180.332031 45.363281 180.183594 45.632812 180.039062 45.90625 C 179.890625 46.179688 179.742188 46.453125 179.601562 46.730469 C 179.332031 47.289062 179.058594 47.847656 178.828125 48.425781 C 178.339844 49.574219 177.953125 50.765625 177.625 51.972656 L 177.398438 52.882812 C 177.320312 53.1875 177.269531 53.492188 177.207031 53.800781 C 177.074219 54.414062 176.992188 55.035156 176.902344 55.660156 C 176.757812 56.90625 176.664062 58.160156 176.691406 59.417969 C 176.691406 59.734375 176.703125 60.050781 176.71875 60.363281 C 176.738281 60.679688 176.75 60.996094 176.777344 61.308594 C 176.835938 61.9375 176.890625 62.566406 176.992188 63.1875 C 177.074219 63.816406 177.199219 64.4375 177.328125 65.058594 C 177.390625 65.371094 177.472656 65.679688 177.546875 65.988281 C 177.621094 66.296875 177.699219 66.605469 177.792969 66.90625 C 178.132812 68.136719 178.585938 69.332031 179.097656 70.507812 C 180.144531 72.84375 181.496094 75.070312 183.144531 77.0625 C 183.960938 78.066406 184.851562 79.003906 185.796875 79.878906 C 186.269531 80.304688 186.769531 80.757812 187.21875 81.109375 C 187.679688 81.480469 188.136719 81.855469 188.625 82.203125 C 190.542969 83.609375 192.632812 84.824219 194.832031 85.808594 C 197.039062 86.777344 199.351562 87.511719 201.722656 87.988281 C 204.089844 88.457031 206.511719 88.691406 208.929688 88.636719 C 211.347656 88.589844 213.765625 88.285156 216.128906 87.726562 C 216.722656 87.582031 217.308594 87.425781 217.894531 87.261719 L 218.765625 86.988281 C 219.054688 86.890625 219.347656 86.808594 219.632812 86.699219 C 220.777344 86.28125 221.910156 85.816406 223.007812 85.277344 C 225.207031 84.207031 227.296875 82.902344 229.226562 81.386719 C 231.15625 79.875 232.90625 78.132812 234.449219 76.253906 C 235.878906 74.496094 237.160156 72.625 238.289062 70.648438 C 239.417969 68.671875 240.355469 66.582031 241.109375 64.429688 C 241.867188 62.277344 242.433594 60.0625 242.8125 57.820312 C 243.566406 53.324219 243.496094 48.71875 242.683594 44.253906 C 242.269531 42.027344 241.664062 39.832031 240.875 37.703125 C 240.074219 35.574219 239.105469 33.511719 237.953125 31.554688 C 236.796875 29.59375 235.472656 27.738281 234.007812 26.007812 C 232.535156 24.289062 230.921875 22.695312 229.183594 21.269531 L 228.527344 20.738281 L 228.199219 20.476562 L 227.882812 20.238281 L 226.609375 19.308594 L 226.289062 19.078125 L 225.960938 18.859375 L 225.300781 18.425781 L 224.636719 17.992188 L 224.304688 17.777344 L 223.964844 17.574219 L 222.601562 16.777344 C 222.484375 16.710938 222.371094 16.644531 222.257812 16.582031 L 221.203125 16.03125 C 220.273438 15.535156 219.304688 15.117188 218.34375 14.6875 C 217.855469 14.476562 217.367188 14.292969 216.875 14.097656 L 216.140625 13.8125 C 215.894531 13.71875 215.644531 13.636719 215.394531 13.550781 L 213.898438 13.054688 L 212.378906 12.621094 C 212.128906 12.554688 211.875 12.476562 211.621094 12.414062 L 210.855469 12.242188 C 210.339844 12.128906 209.832031 12.003906 209.316406 11.914062 L 207.769531 11.644531 L 207.382812 11.578125 L 206.992188 11.527344 L 206.214844 11.429688 C 205.183594 11.285156 204.140625 11.222656 203.101562 11.148438 C 202.582031 11.121094 202.0625 11.113281 201.539062 11.097656 L 200.761719 11.085938 L 199.980469 11.105469 C 197.90625 11.128906 195.839844 11.339844 193.796875 11.652344 L 192.273438 11.917969 C 191.765625 12.011719 191.265625 12.136719 190.761719 12.25 L 190.011719 12.421875 L 189.265625 12.628906 C 188.769531 12.765625 188.273438 12.898438 187.78125 13.050781 C 186.804688 13.371094 185.828125 13.679688 184.875 14.0625 C 183.914062 14.417969 182.976562 14.839844 182.046875 15.261719 C 178.355469 17.027344 174.898438 19.25 171.882812 21.949219 C 171.117188 22.601562 170.402344 23.316406 169.683594 24.019531 C 169.503906 24.195312 169.332031 24.378906 169.164062 24.5625 L 168.652344 25.117188 C 168.316406 25.488281 167.972656 25.851562 167.660156 26.242188 L 166.707031 27.398438 C 166.394531 27.785156 166.105469 28.191406 165.804688 28.589844 C 165.1875 29.390625 164.699219 30.171875 164.171875 30.964844 C 162.132812 34.15625 160.425781 37.546875 159.1875 41.082031 C 156.683594 48.144531 155.878906 55.652344 156.769531 62.792969 C 157.21875 66.335938 158.066406 69.785156 159.28125 73.054688 C 163.667969 81.882812 170.59375 89.085938 178.988281 93.804688 " fill-opacity="1" fill-rule="nonzero"/><path fill="#ffffff" d="M 166.257812 163.265625 L 158.429688 165.464844 L 137.433594 90.890625 L 145.261719 88.691406 L 166.257812 163.265625 " fill-opacity="1" fill-rule="nonzero"/><path fill="#faa836" d="M 160.140625 58.335938 C 154.4375 46.957031 141.289062 40.84375 128.574219 44.417969 C 115.859375 47.992188 107.832031 60.0625 108.902344 72.742188 C 107.089844 73.253906 106.03125 75.136719 106.542969 76.949219 L 107.480469 80.292969 C 107.992188 82.105469 109.878906 83.164062 111.691406 82.652344 C 117.394531 94.03125 130.542969 100.144531 143.257812 96.570312 C 155.972656 92.996094 164 80.925781 162.929688 68.246094 C 164.742188 67.734375 165.800781 65.851562 165.289062 64.039062 L 164.347656 60.695312 C 163.839844 58.882812 161.953125 57.824219 160.140625 58.335938 " fill-opacity="1" fill-rule="nonzero"/><path fill="#d66621" d="M 150.902344 65.226562 C 153.078125 72.96875 148.566406 81.007812 140.824219 83.183594 C 133.078125 85.359375 125.035156 80.855469 122.855469 73.113281 C 120.675781 65.371094 125.1875 57.332031 132.933594 55.15625 C 140.675781 52.980469 148.722656 57.488281 150.902344 65.226562 " fill-opacity="1" fill-rule="nonzero"/><path fill="#2f283a" d="M 140.390625 68.390625 C 141.871094 73.648438 140.460938 78.644531 140.460938 78.644531 C 140.460938 78.644531 136.652344 75.117188 135.171875 69.859375 C 133.695312 64.601562 135.101562 59.609375 135.101562 59.609375 C 135.101562 59.609375 138.910156 63.136719 140.390625 68.390625 " fill-opacity="1" fill-rule="nonzero"/><g clip-path="url(#7afb565e2b)"><path fill="#fa7d29" d="M 286.890625 121.859375 C 297.761719 114.984375 284.722656 105.003906 276.980469 104.441406 C 265.96875 103.640625 252.3125 109.328125 241.355469 111.074219 C 215.921875 115.128906 190.148438 117.007812 164.394531 116.707031 C 145.675781 116.488281 126.96875 115.113281 108.421875 112.589844 C 100.78125 111.546875 70.4375 100.238281 70.441406 114.996094 C 70.445312 117.886719 71.953125 120.417969 74.230469 121.859375 C 48.9375 148.269531 23.433594 184.082031 23.433594 223.523438 C 23.433594 304.75 71.089844 370.597656 180.558594 370.597656 C 290.027344 370.597656 337.6875 304.75 337.6875 223.523438 C 337.6875 184.082031 312.179688 148.269531 286.890625 121.859375 " fill-opacity="1" fill-rule="nonzero"/></g><path fill="#d66621" d="M 204.113281 365.589844 C 202.890625 365.792969 201.632812 365.863281 200.546875 365.3125 C 200.375 365.226562 200.199219 365.117188 200.121094 364.941406 C 200.039062 364.769531 200.066406 364.570312 200.097656 364.382812 C 200.769531 360.570312 204.277344 358.199219 206.761719 355.515625 C 209.324219 352.742188 211.800781 349.882812 214.234375 346.992188 C 217.566406 343.023438 221.03125 339.035156 223.984375 334.765625 C 233.824219 320.53125 240.816406 304.441406 245.050781 287.6875 C 250.292969 266.921875 251.273438 245.25 249.195312 223.980469 C 247.941406 211.125 245.566406 198.390625 242.351562 185.882812 C 240.644531 179.230469 238.691406 172.644531 236.53125 166.121094 C 233.53125 157.050781 221.78125 141.964844 233.421875 136.140625 C 242.417969 131.636719 263.300781 127.710938 272.070312 133.496094 C 282.351562 140.277344 286.765625 156.277344 290.460938 167.28125 C 295.578125 182.535156 297.925781 198.675781 298.136719 214.738281 C 298.324219 233.429688 295.664062 252.109375 290.230469 269.996094 C 283.769531 291.277344 273.386719 311.554688 258.894531 328.507812 C 251.789062 336.824219 243.691406 344.308594 234.71875 350.574219 C 226.117188 356.585938 215.367188 363.34375 205.03125 365.417969 C 204.730469 365.476562 204.421875 365.539062 204.113281 365.589844 Z M 82.484375 206.75 C 84.296875 190.476562 86.945312 173.617188 92.898438 158.296875 C 95.304688 152.109375 99.082031 142.300781 105.980469 139.714844 C 113.265625 136.980469 126.648438 138 133.902344 140.476562 C 143.085938 143.609375 139.84375 148.523438 137.566406 157.019531 C 125.488281 202.078125 121.128906 250.949219 137.851562 295.46875 C 143.726562 311.113281 152.128906 325.839844 163.003906 338.558594 C 165.804688 341.832031 168.96875 344.84375 172.03125 347.863281 C 174.449219 350.25 176.902344 352.605469 179.40625 354.902344 C 181.351562 356.683594 185.074219 358.765625 185.390625 361.628906 C 185.507812 362.683594 185.085938 363.746094 184.425781 364.582031 C 183.769531 365.414062 182.894531 366.046875 182 366.621094 C 176.527344 370.117188 167.238281 365.304688 161.796875 363.160156 C 142.4375 355.53125 125.601562 342.585938 112.832031 326.207031 C 100.039062 309.800781 91.390625 290.414062 86.453125 270.269531 C 81.375 249.566406 80.128906 227.925781 82.484375 206.75 Z M 142.910156 201.78125 C 144.625 185.941406 145.410156 168.640625 152.277344 153.992188 C 158.011719 141.746094 171.195312 139.128906 183.476562 138.585938 C 191.730469 138.21875 200.988281 136.574219 208.070312 140.472656 C 209.515625 141.265625 210.871094 142.289062 212.105469 143.601562 C 224.585938 156.839844 226.96875 180.1875 230.472656 197.238281 C 235.011719 219.296875 236.359375 242.039062 234.515625 264.484375 C 232.585938 287.949219 227.71875 311.726562 217.316406 332.992188 C 214.648438 338.445312 211.605469 343.722656 208.125 348.703125 C 205.796875 352.03125 202.402344 357.820312 198.789062 360.761719 C 197.257812 361.585938 195.546875 362.074219 193.808594 362.136719 C 192.882812 362.171875 191.953125 362.082031 191.046875 361.882812 C 184.292969 358.820312 177.828125 347.167969 174.847656 342.878906 C 171.238281 337.683594 167.28125 332.414062 164.335938 326.796875 C 154.8125 308.613281 148.691406 288.675781 145.144531 268.507812 C 141.277344 246.527344 140.507812 223.964844 142.910156 201.78125 Z M 275.59375 128.035156 C 282.925781 125.503906 284.171875 123.640625 284.171875 123.640625 C 196.253906 138.472656 139.425781 137.535156 74.46875 123.640625 C 74.46875 123.640625 71.816406 132.238281 95.769531 137.390625 C 94.410156 137.097656 88.828125 144.925781 87.929688 146.082031 C 85.480469 149.222656 83.265625 152.542969 81.277344 155.996094 C 77.222656 163.046875 74.140625 170.636719 71.914062 178.453125 C 67.152344 195.175781 66.230469 212.867188 67.867188 230.121094 C 69.609375 248.492188 74.265625 266.597656 81.34375 283.632812 C 88.367188 300.546875 97.84375 316.558594 109.886719 330.394531 C 121.285156 343.496094 135.121094 354.6875 151.039062 361.808594 C 155.136719 363.644531 159.371094 364.59375 163.472656 366.25 C 184.859375 374.863281 208.851562 369.410156 228.546875 358.855469 C 243.371094 350.914062 256.097656 339.445312 266.601562 326.394531 C 277.769531 312.515625 286.566406 296.769531 293.144531 280.242188 C 299.800781 263.523438 304.242188 245.871094 306.082031 227.964844 C 307.820312 211.035156 307.257812 193.71875 303.304688 177.125 C 299.675781 161.875 293.046875 147.1875 282.722656 135.28125 C 280.5 132.71875 278.121094 130.296875 275.59375 128.035156 " fill-opacity="1" fill-rule="nonzero"/><path fill="#2f283a" d="M 274.65625 107.984375 C 270.660156 107.984375 267.417969 111.074219 267.417969 114.890625 C 267.417969 115.433594 267.488281 115.964844 267.613281 116.476562 C 257.863281 123.28125 245.585938 129.167969 231.003906 134.027344 C 214.988281 139.363281 196.695312 143.308594 176.625 145.757812 C 158.292969 147.996094 138.835938 148.878906 120.367188 148.316406 C 115.558594 148.167969 110.839844 147.925781 106.25 147.589844 C 105.34375 146.644531 104.140625 145.8125 102.632812 145.191406 L 63.050781 128.964844 C 51.664062 121.816406 37.960938 143.625 49.347656 150.769531 C 63.921875 155.59375 80.539062 157.679688 98.570312 157.871094 C 102.8125 158.363281 105.652344 157.246094 107.109375 155.464844 C 111.359375 155.757812 115.707031 155.976562 120.128906 156.109375 C 123.832031 156.222656 127.570312 156.28125 131.332031 156.28125 C 146.742188 156.28125 162.527344 155.335938 177.570312 153.5 C 198.15625 150.988281 216.960938 146.925781 233.472656 141.425781 C 249.554688 136.066406 263.050781 129.457031 273.683594 121.730469 C 274.003906 121.769531 274.328125 121.792969 274.65625 121.792969 C 278.65625 121.792969 281.894531 118.703125 281.894531 114.890625 C 281.894531 111.074219 278.65625 107.984375 274.65625 107.984375 " fill-opacity="1" fill-rule="nonzero"/><path fill="#2f283a" d="M 80.511719 187.09375 C 80.757812 187.980469 81.207031 188.746094 81.855469 189.398438 C 82.84375 190.304688 84.171875 191.015625 85.554688 190.929688 C 88.722656 190.734375 91.894531 190.523438 95.0625 190.324219 C 96.097656 190.257812 97.132812 190.195312 98.171875 190.128906 C 97.871094 194.722656 97.679688 199.324219 97.597656 203.929688 C 97.511719 209.085938 97.558594 214.246094 97.75 219.398438 C 97.859375 222.3125 98.007812 225.222656 98.203125 228.132812 C 98.175781 228.851562 98.328125 229.523438 98.652344 230.148438 C 98.867188 230.792969 99.226562 231.355469 99.734375 231.828125 C 100.210938 232.335938 100.769531 232.699219 101.417969 232.910156 C 102.042969 233.238281 102.714844 233.386719 103.433594 233.359375 C 103.898438 233.296875 104.359375 233.234375 104.824219 233.171875 C 105.710938 232.925781 106.480469 232.476562 107.132812 231.828125 C 107.40625 231.476562 107.675781 231.125 107.949219 230.769531 C 108.421875 229.957031 108.660156 229.078125 108.664062 228.132812 C 108.316406 222.988281 108.109375 217.832031 108.042969 212.675781 C 107.972656 207.515625 108.042969 202.359375 108.253906 197.207031 C 108.359375 194.640625 108.5 192.078125 108.671875 189.515625 C 112.09375 189.335938 115.519531 189.175781 118.945312 189.050781 C 122.851562 188.910156 126.761719 188.808594 130.667969 188.804688 C 133.929688 188.804688 137.199219 188.855469 140.453125 189.097656 C 140.792969 189.121094 141.128906 189.152344 141.46875 189.179688 C 142.1875 189.207031 142.859375 189.058594 143.480469 188.730469 C 144.128906 188.519531 144.691406 188.160156 145.167969 187.648438 C 145.675781 187.175781 146.035156 186.617188 146.246094 185.96875 C 146.574219 185.347656 146.726562 184.675781 146.699219 183.953125 C 146.636719 183.492188 146.574219 183.027344 146.511719 182.566406 C 146.261719 181.679688 145.8125 180.910156 145.167969 180.257812 C 144.8125 179.988281 144.460938 179.714844 144.105469 179.441406 C 143.292969 178.96875 142.410156 178.730469 141.46875 178.726562 C 138.3125 178.445312 135.140625 178.371094 131.972656 178.355469 C 128.117188 178.335938 124.261719 178.417969 120.410156 178.546875 C 116.304688 178.683594 112.199219 178.875 108.097656 179.09375 C 104.1875 179.300781 100.277344 179.539062 96.367188 179.785156 C 93.101562 179.992188 89.835938 180.207031 86.570312 180.414062 C 86.230469 180.433594 85.894531 180.457031 85.554688 180.476562 C 84.835938 180.449219 84.164062 180.601562 83.539062 180.925781 C 82.890625 181.136719 82.328125 181.496094 81.855469 182.007812 C 81.347656 182.480469 80.984375 183.042969 80.773438 183.691406 C 80.445312 184.3125 80.296875 184.984375 80.324219 185.703125 C 80.386719 186.167969 80.449219 186.632812 80.511719 187.09375 " fill-opacity="1" fill-rule="nonzero"/><path fill="#2f283a" d="M 90.515625 263.148438 C 93.554688 263.222656 96.589844 263.339844 99.625 263.515625 C 102.628906 263.683594 105.632812 263.90625 108.628906 264.175781 C 109.351562 264.203125 110.023438 264.054688 110.644531 263.726562 C 111.292969 263.515625 111.855469 263.15625 112.328125 262.644531 C 112.839844 262.171875 113.199219 261.613281 113.410156 260.964844 C 113.738281 260.339844 113.886719 259.671875 113.859375 258.949219 C 113.800781 258.488281 113.738281 258.023438 113.675781 257.5625 C 113.425781 256.675781 112.976562 255.90625 112.328125 255.253906 C 111.976562 254.984375 111.625 254.710938 111.269531 254.4375 C 110.453125 253.964844 109.574219 253.726562 108.628906 253.722656 C 103.273438 253.238281 97.902344 252.914062 92.523438 252.75 C 87.179688 252.585938 81.828125 252.578125 76.484375 252.726562 C 73.472656 252.8125 70.464844 252.949219 67.460938 253.132812 C 66.742188 253.105469 66.070312 253.253906 65.449219 253.582031 C 64.796875 253.792969 64.238281 254.152344 63.765625 254.664062 C 63.253906 255.136719 62.894531 255.699219 62.683594 256.34375 C 62.355469 256.96875 62.207031 257.640625 62.234375 258.359375 C 62.292969 258.824219 62.355469 259.285156 62.417969 259.75 C 62.667969 260.632812 63.117188 261.402344 63.765625 262.054688 C 64.117188 262.328125 64.46875 262.601562 64.824219 262.871094 C 65.636719 263.34375 66.519531 263.582031 67.460938 263.585938 C 71.65625 263.328125 75.855469 263.167969 80.058594 263.105469 C 79.769531 267.59375 79.585938 272.089844 79.507812 276.585938 C 79.417969 281.742188 79.46875 286.902344 79.65625 292.054688 C 79.765625 294.96875 79.917969 297.878906 80.113281 300.789062 C 80.085938 301.507812 80.234375 302.179688 80.5625 302.800781 C 80.773438 303.449219 81.132812 304.011719 81.644531 304.484375 C 82.117188 304.992188 82.679688 305.355469 83.328125 305.566406 C 83.949219 305.890625 84.621094 306.042969 85.34375 306.015625 C 85.804688 305.953125 86.269531 305.890625 86.734375 305.828125 C 87.617188 305.578125 88.386719 305.132812 89.039062 304.484375 C 89.3125 304.132812 89.585938 303.777344 89.859375 303.425781 C 90.332031 302.609375 90.570312 301.730469 90.574219 300.789062 C 90.226562 295.644531 90.019531 290.488281 89.949219 285.332031 C 89.882812 280.171875 89.953125 275.015625 90.164062 269.863281 C 90.253906 267.625 90.371094 265.386719 90.515625 263.148438 " fill-opacity="1" fill-rule="nonzero"/><path fill="#2f283a" d="M 298.886719 258.949219 C 298.828125 257.597656 298.382812 256.195312 297.355469 255.253906 C 297 254.984375 296.648438 254.710938 296.296875 254.4375 C 295.480469 253.964844 294.601562 253.726562 293.65625 253.722656 C 290.320312 253.425781 286.960938 253.398438 283.613281 253.417969 C 279.3125 253.445312 275.015625 253.585938 270.722656 253.769531 C 266.082031 253.972656 261.445312 254.230469 256.808594 254.511719 C 252.429688 254.78125 248.058594 255.074219 243.683594 255.375 C 240.183594 255.617188 236.683594 255.863281 233.179688 256.085938 C 232.839844 256.109375 232.5 256.128906 232.160156 256.152344 C 231.441406 256.125 230.769531 256.273438 230.148438 256.601562 C 229.5 256.8125 228.9375 257.171875 228.464844 257.679688 C 227.953125 258.15625 227.59375 258.714844 227.382812 259.363281 C 227.054688 259.988281 226.902344 260.65625 226.933594 261.378906 C 226.992188 262.730469 227.4375 264.128906 228.464844 265.074219 C 229.449219 265.976562 230.78125 266.6875 232.160156 266.605469 C 235.515625 266.398438 238.867188 266.160156 242.21875 265.929688 C 246.515625 265.632812 250.816406 265.339844 255.117188 265.070312 C 258.410156 264.863281 261.703125 264.671875 264.996094 264.5 C 264.757812 268.523438 264.601562 272.554688 264.53125 276.585938 C 264.445312 281.742188 264.492188 286.902344 264.683594 292.054688 C 264.789062 294.96875 264.941406 297.878906 265.136719 300.789062 C 265.109375 301.507812 265.261719 302.179688 265.589844 302.800781 C 265.796875 303.449219 266.160156 304.011719 266.667969 304.484375 C 267.144531 304.992188 267.703125 305.355469 268.351562 305.566406 C 268.976562 305.890625 269.648438 306.042969 270.367188 306.015625 C 270.832031 305.953125 271.296875 305.890625 271.757812 305.828125 C 272.644531 305.582031 273.414062 305.132812 274.066406 304.484375 C 274.339844 304.132812 274.609375 303.78125 274.882812 303.425781 C 275.355469 302.613281 275.59375 301.730469 275.597656 300.789062 C 275.253906 295.644531 275.042969 290.488281 274.976562 285.332031 C 274.90625 280.171875 274.976562 275.015625 275.1875 269.863281 C 275.265625 267.921875 275.367188 265.980469 275.484375 264.042969 C 277.707031 263.96875 279.925781 263.914062 282.148438 263.886719 C 285.644531 263.84375 289.148438 263.847656 292.640625 264.09375 C 292.976562 264.121094 293.316406 264.148438 293.65625 264.175781 C 294.378906 264.203125 295.050781 264.054688 295.671875 263.726562 C 296.320312 263.515625 296.882812 263.15625 297.355469 262.648438 C 297.863281 262.171875 298.222656 261.613281 298.4375 260.964844 C 298.761719 260.339844 298.914062 259.671875 298.886719 258.949219 " fill-opacity="1" fill-rule="nonzero"/><path fill="#2f283a" d="M 180.449219 206.140625 C 179.976562 205.632812 179.414062 205.269531 178.769531 205.0625 C 178.144531 204.734375 177.472656 204.585938 176.753906 204.609375 C 176.289062 204.671875 175.824219 204.734375 175.363281 204.796875 C 174.476562 205.046875 173.707031 205.492188 173.054688 206.140625 C 172.78125 206.492188 172.507812 206.847656 172.234375 207.199219 C 171.761719 208.015625 171.523438 208.894531 171.523438 209.835938 C 171.453125 215.40625 170.523438 232.3125 170.398438 235.429688 C 170.371094 236.148438 170.519531 236.820312 170.847656 237.445312 C 171.058594 238.09375 171.421875 238.652344 171.929688 239.125 C 172.402344 239.636719 172.964844 239.996094 173.613281 240.207031 C 174.234375 240.535156 174.90625 240.683594 175.628906 240.65625 C 176.089844 240.59375 176.554688 240.535156 177.019531 240.472656 C 177.902344 240.222656 178.671875 239.773438 179.328125 239.125 C 179.597656 238.773438 179.871094 238.421875 180.144531 238.066406 C 180.617188 237.253906 180.855469 236.375 180.859375 235.429688 C 181.082031 229.867188 181.945312 212.960938 181.980469 209.835938 C 182.007812 209.117188 181.859375 208.445312 181.53125 207.824219 C 181.320312 207.175781 180.960938 206.613281 180.449219 206.140625 " fill-opacity="1" fill-rule="nonzero"/><path fill="#2f283a" d="M 188.582031 214.3125 C 188.71875 215.429688 188.859375 216.554688 189.105469 217.652344 C 189.503906 219.417969 190.171875 221.089844 190.917969 222.734375 C 191.476562 223.964844 192.164062 225.136719 192.980469 226.21875 C 194.0625 227.65625 195.167969 229.023438 196.570312 230.160156 C 198.019531 231.34375 199.515625 232.417969 201.222656 233.195312 C 202.929688 233.96875 204.660156 234.636719 206.503906 235 C 208.367188 235.363281 210.285156 235.589844 212.191406 235.585938 C 214.132812 235.585938 216.066406 235.34375 217.984375 235.039062 C 220.988281 234.5625 223.921875 233.664062 226.726562 232.496094 C 227.796875 232.050781 228.867188 231.601562 229.917969 231.105469 C 230.527344 230.777344 231.015625 230.328125 231.386719 229.761719 C 231.847656 229.257812 232.160156 228.664062 232.320312 227.984375 C 232.539062 227.289062 232.570312 226.59375 232.414062 225.898438 C 232.382812 225.203125 232.175781 224.554688 231.792969 223.953125 C 231.519531 223.601562 231.25 223.25 230.976562 222.898438 C 230.324219 222.25 229.554688 221.800781 228.667969 221.554688 C 228.203125 221.492188 227.742188 221.429688 227.277344 221.367188 C 226.332031 221.371094 225.453125 221.609375 224.636719 222.078125 C 224.265625 222.257812 223.890625 222.425781 223.515625 222.589844 C 221.285156 223.492188 218.980469 224.21875 216.621094 224.703125 C 216.117188 224.804688 215.613281 224.890625 215.105469 224.96875 C 213.347656 225.160156 211.570312 225.1875 209.808594 225.011719 C 208.617188 224.808594 207.441406 224.5 206.308594 224.074219 C 205.417969 223.65625 204.5625 223.164062 203.757812 222.597656 C 203.027344 221.976562 202.347656 221.296875 201.734375 220.558594 C 201.070312 219.628906 200.5 218.640625 200.019531 217.605469 C 199.550781 216.378906 199.207031 215.105469 198.988281 213.8125 C 198.859375 212.527344 198.855469 211.234375 198.980469 209.949219 C 199.21875 208.5625 199.601562 207.203125 200.105469 205.890625 C 200.792969 204.394531 201.632812 202.972656 202.605469 201.640625 C 203.792969 200.1875 205.128906 198.859375 206.585938 197.675781 C 208.019531 196.625 209.554688 195.703125 211.175781 194.960938 C 212.203125 194.570312 213.261719 194.261719 214.34375 194.0625 C 215.066406 194.003906 215.785156 193.996094 216.507812 194.050781 C 217.085938 194.164062 217.65625 194.316406 218.210938 194.511719 C 218.59375 194.703125 218.960938 194.917969 219.316406 195.152344 C 219.480469 195.300781 219.644531 195.457031 219.804688 195.621094 C 220.277344 196.132812 220.839844 196.492188 221.488281 196.703125 C 222.113281 197.03125 222.785156 197.179688 223.5 197.152344 C 224.222656 197.179688 224.894531 197.03125 225.515625 196.703125 C 226.167969 196.492188 226.726562 196.132812 227.199219 195.621094 C 227.472656 195.269531 227.746094 194.917969 228.019531 194.5625 C 228.492188 193.746094 228.730469 192.871094 228.734375 191.925781 C 228.671875 191.464844 228.609375 191 228.546875 190.535156 C 228.296875 189.652344 227.847656 188.882812 227.199219 188.230469 C 226.402344 187.40625 225.464844 186.691406 224.507812 186.066406 C 223.523438 185.425781 222.421875 184.980469 221.335938 184.558594 C 220.648438 184.289062 219.933594 184.089844 219.207031 183.953125 C 218.410156 183.804688 217.597656 183.703125 216.792969 183.621094 C 216.410156 183.582031 216.027344 183.558594 215.644531 183.558594 C 214.40625 183.542969 213.171875 183.722656 211.953125 183.914062 C 211.136719 184.039062 210.328125 184.234375 209.539062 184.480469 C 208.339844 184.855469 207.179688 185.355469 206.039062 185.867188 C 205.265625 186.21875 204.511719 186.609375 203.777344 187.035156 C 202.148438 187.976562 200.640625 189.105469 199.179688 190.289062 C 198.054688 191.203125 197 192.203125 196.03125 193.285156 C 194.789062 194.667969 193.636719 196.160156 192.636719 197.730469 C 191.636719 199.304688 190.886719 200.980469 190.179688 202.703125 C 189.636719 204.035156 189.222656 205.417969 188.953125 206.828125 C 188.617188 208.613281 188.390625 210.449219 188.433594 212.269531 C 188.445312 212.953125 188.496094 213.636719 188.582031 214.3125 " fill-opacity="1" fill-rule="nonzero"/><path fill="#2f283a" d="M 241.761719 219.941406 C 241.640625 223.4375 241.460938 226.925781 241.226562 230.414062 C 241.203125 231.132812 241.351562 231.804688 241.679688 232.429688 C 241.890625 233.074219 242.25 233.636719 242.761719 234.109375 C 243.234375 234.621094 243.796875 234.980469 244.445312 235.191406 C 245.066406 235.519531 245.738281 235.667969 246.460938 235.640625 C 246.921875 235.578125 247.386719 235.515625 247.847656 235.453125 C 248.734375 235.207031 249.503906 234.757812 250.15625 234.109375 C 250.429688 233.757812 250.703125 233.40625 250.972656 233.050781 C 251.445312 232.238281 251.683594 231.359375 251.6875 230.414062 C 252.078125 224.574219 252.3125 218.722656 252.386719 212.867188 C 254.019531 214.882812 255.675781 216.878906 257.367188 218.847656 C 260.683594 222.71875 264.097656 226.503906 267.609375 230.199219 C 269.597656 232.289062 271.613281 234.347656 273.65625 236.378906 C 274.128906 236.890625 274.691406 237.25 275.339844 237.460938 C 275.960938 237.789062 276.632812 237.9375 277.355469 237.910156 C 278.074219 237.9375 278.746094 237.789062 279.371094 237.460938 C 280.019531 237.25 280.578125 236.890625 281.050781 236.378906 C 281.324219 236.027344 281.597656 235.675781 281.871094 235.320312 C 282.34375 234.507812 282.582031 233.628906 282.585938 232.683594 C 282.523438 232.222656 282.460938 231.757812 282.394531 231.292969 C 282.148438 230.410156 281.699219 229.640625 281.050781 228.988281 C 277.457031 225.417969 273.953125 221.757812 270.542969 218.007812 C 267.136719 214.257812 263.824219 210.425781 260.613281 206.507812 C 259.8125 205.53125 259.015625 204.546875 258.226562 203.5625 C 259.871094 201.515625 261.5625 199.511719 263.308594 197.554688 C 265.664062 194.910156 268.113281 192.347656 270.652344 189.875 C 272.082031 188.480469 273.542969 187.117188 275.027344 185.777344 C 275.539062 185.304688 275.898438 184.742188 276.113281 184.09375 C 276.4375 183.472656 276.589844 182.800781 276.558594 182.082031 C 276.589844 181.363281 276.4375 180.691406 276.113281 180.066406 C 275.898438 179.421875 275.539062 178.859375 275.027344 178.386719 C 274.675781 178.113281 274.320312 177.839844 273.96875 177.570312 C 273.15625 177.097656 272.273438 176.859375 271.332031 176.855469 C 270.867188 176.917969 270.402344 176.980469 269.941406 177.042969 C 269.054688 177.289062 268.285156 177.738281 267.632812 178.386719 C 264.648438 181.070312 261.773438 183.871094 259.015625 186.785156 C 256.621094 189.3125 254.316406 191.921875 252.101562 194.605469 C 252.085938 194.171875 252.066406 193.738281 252.046875 193.304688 C 251.878906 189.8125 251.65625 186.324219 251.378906 182.839844 C 251.402344 182.121094 251.253906 181.449219 250.925781 180.828125 C 250.71875 180.179688 250.355469 179.617188 249.847656 179.144531 C 249.371094 178.632812 248.808594 178.273438 248.164062 178.0625 C 247.539062 177.738281 246.867188 177.585938 246.148438 177.613281 C 245.683594 177.675781 245.21875 177.738281 244.757812 177.800781 C 243.871094 178.050781 243.101562 178.496094 242.449219 179.144531 C 242.175781 179.496094 241.90625 179.851562 241.632812 180.203125 C 241.160156 181.015625 240.921875 181.898438 240.917969 182.839844 C 241.410156 189.007812 241.730469 195.195312 241.871094 201.382812 C 242.011719 207.566406 241.972656 213.757812 241.761719 219.941406 " fill-opacity="1" fill-rule="nonzero"/><path fill="#2f283a" d="M 204.746094 326.929688 C 204.5 326.042969 204.050781 325.273438 203.402344 324.621094 C 203.050781 324.351562 202.699219 324.078125 202.34375 323.804688 C 201.527344 323.332031 200.648438 323.09375 199.707031 323.089844 C 195.394531 323.578125 191.070312 323.992188 186.746094 324.324219 C 182.417969 324.660156 178.085938 324.917969 173.75 325.097656 C 173.085938 325.125 172.417969 325.148438 171.753906 325.171875 C 171.53125 320.914062 171.292969 316.652344 171.03125 312.398438 C 173.582031 312.324219 176.132812 312.191406 178.683594 311.996094 C 179.898438 311.902344 181.113281 311.796875 182.328125 311.675781 C 183.046875 311.703125 183.71875 311.550781 184.339844 311.226562 C 184.988281 311.015625 185.550781 310.652344 186.023438 310.144531 C 186.535156 309.671875 186.894531 309.109375 187.105469 308.460938 C 187.433594 307.839844 187.582031 307.167969 187.554688 306.449219 C 187.492188 305.984375 187.429688 305.523438 187.371094 305.058594 C 187.121094 304.171875 186.671875 303.40625 186.023438 302.753906 C 185.671875 302.480469 185.316406 302.207031 184.964844 301.933594 C 184.148438 301.460938 183.269531 301.226562 182.328125 301.222656 C 178.34375 301.617188 174.347656 301.867188 170.34375 301.960938 C 170.199219 299.859375 170.050781 297.757812 169.890625 295.660156 C 169.796875 294.34375 169.695312 293.027344 169.589844 291.714844 C 172.183594 291.585938 174.78125 291.46875 177.375 291.359375 C 181.898438 291.164062 186.421875 291 190.945312 290.859375 C 193.488281 290.777344 196.035156 290.707031 198.578125 290.644531 C 199.300781 290.671875 199.972656 290.523438 200.59375 290.195312 C 201.242188 289.984375 201.804688 289.621094 202.277344 289.113281 C 202.785156 288.640625 203.148438 288.078125 203.359375 287.429688 C 203.6875 286.808594 203.835938 286.136719 203.808594 285.417969 C 203.746094 284.953125 203.683594 284.492188 203.625 284.027344 C 203.375 283.140625 202.925781 282.375 202.277344 281.722656 C 201.925781 281.449219 201.570312 281.175781 201.21875 280.902344 C 200.402344 280.433594 199.523438 280.191406 198.578125 280.191406 C 194.054688 280.304688 189.53125 280.441406 185.003906 280.605469 C 180.480469 280.765625 175.957031 280.957031 171.4375 281.167969 C 169.441406 281.265625 167.449219 281.367188 165.460938 281.46875 C 164.980469 281.296875 164.476562 281.21875 163.945312 281.238281 C 163.480469 281.300781 163.015625 281.363281 162.554688 281.425781 C 161.667969 281.675781 160.898438 282.121094 160.246094 282.769531 C 159.972656 283.121094 159.699219 283.476562 159.429688 283.828125 C 159.21875 284.1875 159.058594 284.5625 158.9375 284.953125 C 158.675781 285.523438 158.554688 286.132812 158.578125 286.78125 C 158.640625 287.246094 158.703125 287.707031 158.765625 288.171875 C 158.796875 288.292969 158.839844 288.410156 158.878906 288.527344 C 159.261719 293.292969 159.617188 298.0625 159.949219 302.832031 C 160.324219 308.273438 160.664062 313.71875 160.96875 319.167969 C 161.144531 322.234375 161.304688 325.304688 161.453125 328.375 C 161.445312 328.582031 161.457031 328.785156 161.476562 328.984375 C 161.289062 329.480469 161.203125 330.003906 161.226562 330.554688 C 161.285156 331.019531 161.347656 331.484375 161.410156 331.945312 C 161.660156 332.832031 162.109375 333.601562 162.757812 334.253906 C 163.109375 334.523438 163.460938 334.796875 163.8125 335.070312 C 164.628906 335.542969 165.511719 335.78125 166.453125 335.78125 C 170.792969 335.6875 175.128906 335.519531 179.460938 335.269531 C 183.792969 335.019531 188.121094 334.695312 192.441406 334.292969 C 194.867188 334.070312 197.285156 333.820312 199.707031 333.546875 C 200.425781 333.574219 201.097656 333.421875 201.71875 333.09375 C 202.367188 332.882812 202.929688 332.523438 203.402344 332.015625 C 203.914062 331.542969 204.273438 330.980469 204.484375 330.332031 C 204.8125 329.710938 204.960938 329.039062 204.933594 328.320312 C 204.871094 327.855469 204.8125 327.390625 204.746094 326.929688 " fill-opacity="1" fill-rule="nonzero"/><path fill="#2f283a" d="M 230.097656 304.039062 C 230.582031 300.625 231.011719 297.199219 231.386719 293.769531 C 231.59375 291.90625 231.777344 290.039062 231.945312 288.167969 C 234.449219 287.960938 236.957031 287.753906 239.460938 287.542969 C 239.597656 288.429688 239.738281 289.3125 239.875 290.199219 C 240.113281 291.730469 240.351562 293.265625 240.585938 294.800781 C 240.855469 296.554688 241.128906 298.3125 241.394531 300.070312 C 241.621094 301.554688 241.847656 303.039062 242.074219 304.527344 C 238.085938 304.308594 234.089844 304.148438 230.097656 304.039062 Z M 254.828125 319.691406 C 254.550781 317.753906 254.269531 315.820312 253.984375 313.886719 C 253.675781 311.804688 253.363281 309.71875 253.054688 307.636719 C 252.734375 305.519531 252.414062 303.40625 252.09375 301.289062 C 251.78125 299.265625 251.472656 297.238281 251.160156 295.210938 C 250.882812 293.390625 250.601562 291.570312 250.320312 289.746094 C 250.089844 288.25 249.855469 286.753906 249.625 285.257812 C 249.460938 284.207031 249.296875 283.152344 249.132812 282.101562 C 249.054688 281.609375 248.988281 281.117188 248.902344 280.628906 C 248.898438 280.605469 248.894531 280.585938 248.890625 280.5625 C 248.71875 280.148438 248.539062 279.730469 248.363281 279.316406 C 248.035156 278.707031 247.585938 278.21875 247.019531 277.851562 C 246.691406 277.527344 246.308594 277.300781 245.863281 277.175781 C 245.242188 276.851562 244.570312 276.699219 243.847656 276.726562 C 239.503906 277.089844 235.15625 277.449219 230.8125 277.808594 C 229.578125 277.914062 228.34375 278.015625 227.109375 278.117188 C 226.390625 278.089844 225.71875 278.242188 225.09375 278.566406 C 224.445312 278.777344 223.886719 279.140625 223.410156 279.648438 C 223.140625 280 222.867188 280.351562 222.59375 280.707031 C 222.121094 281.519531 221.882812 282.398438 221.878906 283.34375 C 221.542969 287.921875 221.101562 292.492188 220.550781 297.050781 C 220.429688 298.054688 220.300781 299.054688 220.171875 300.058594 C 219.667969 303.734375 219.101562 307.402344 218.457031 311.058594 C 217.789062 314.867188 217.042969 318.664062 216.222656 322.441406 C 215.757812 324.59375 215.265625 326.738281 214.75 328.878906 C 214.53125 329.574219 214.5 330.265625 214.65625 330.960938 C 214.6875 331.660156 214.894531 332.304688 215.277344 332.90625 C 215.605469 333.515625 216.054688 334.003906 216.621094 334.371094 C 217.128906 334.835938 217.722656 335.144531 218.402344 335.308594 C 218.867188 335.371094 219.328125 335.433594 219.792969 335.496094 C 220.738281 335.492188 221.617188 335.253906 222.433594 334.78125 C 222.785156 334.507812 223.136719 334.234375 223.492188 333.964844 C 224.140625 333.3125 224.585938 332.542969 224.835938 331.65625 C 226.207031 325.960938 227.40625 320.21875 228.433594 314.449219 C 232.683594 314.550781 236.933594 314.707031 241.183594 314.929688 C 242.007812 314.972656 242.832031 315.019531 243.660156 315.066406 C 243.773438 315.820312 243.882812 316.574219 243.996094 317.332031 C 244.253906 319.097656 244.515625 320.867188 244.769531 322.636719 C 244.988281 324.175781 245.203125 325.710938 245.414062 327.253906 C 245.417969 327.28125 245.421875 327.308594 245.425781 327.339844 C 245.539062 328.191406 245.652344 329.039062 245.753906 329.894531 C 245.726562 330.613281 245.878906 331.285156 246.207031 331.90625 C 246.414062 332.554688 246.777344 333.117188 247.285156 333.589844 C 247.761719 334.097656 248.324219 334.460938 248.96875 334.667969 C 249.59375 334.996094 250.261719 335.148438 250.984375 335.121094 C 251.449219 335.058594 251.910156 334.996094 252.375 334.933594 C 253.261719 334.683594 254.03125 334.238281 254.679688 333.589844 C 254.953125 333.234375 255.226562 332.882812 255.5 332.53125 C 255.972656 331.714844 256.210938 330.835938 256.214844 329.894531 C 256.003906 328.15625 255.769531 326.421875 255.53125 324.691406 C 255.300781 323.023438 255.066406 321.355469 254.828125 319.691406 " fill-opacity="1" fill-rule="nonzero"/><path fill="#2f283a" d="M 197.679688 251.824219 C 197.558594 250.746094 197.507812 249.648438 197.621094 248.570312 C 197.695312 248.148438 197.800781 247.734375 197.945312 247.332031 C 198.035156 247.152344 198.136719 246.976562 198.246094 246.808594 C 198.367188 246.667969 198.496094 246.539062 198.632812 246.421875 C 198.773438 246.328125 198.917969 246.246094 199.066406 246.171875 C 199.210938 246.121094 199.351562 246.082031 199.5 246.050781 C 199.597656 246.042969 199.695312 246.042969 199.792969 246.046875 C 199.84375 246.058594 199.890625 246.074219 199.941406 246.085938 C 199.972656 246.105469 200.003906 246.121094 200.03125 246.140625 C 200.0625 246.167969 200.09375 246.195312 200.121094 246.226562 C 200.160156 246.292969 200.199219 246.355469 200.234375 246.421875 C 200.273438 246.539062 200.300781 246.65625 200.328125 246.777344 C 200.34375 247.015625 200.34375 247.253906 200.324219 247.492188 C 200.25 247.902344 200.136719 248.300781 199.988281 248.691406 C 199.691406 249.339844 199.328125 249.953125 198.902344 250.527344 C 198.523438 250.988281 198.113281 251.421875 197.679688 251.824219 Z M 183.957031 256.914062 C 183.304688 256.808594 182.664062 256.644531 182.046875 256.40625 C 181.566406 256.183594 181.105469 255.914062 180.675781 255.601562 C 180.453125 255.417969 180.242188 255.21875 180.050781 255 C 179.96875 254.882812 179.894531 254.757812 179.828125 254.628906 C 179.8125 254.582031 179.800781 254.535156 179.789062 254.492188 C 179.789062 254.457031 179.785156 254.421875 179.789062 254.386719 C 179.800781 254.34375 179.808594 254.300781 179.824219 254.253906 C 179.871094 254.167969 179.921875 254.078125 179.980469 253.996094 C 180.070312 253.894531 180.167969 253.796875 180.273438 253.707031 C 180.4375 253.59375 180.613281 253.496094 180.789062 253.40625 C 180.980469 253.339844 181.171875 253.285156 181.367188 253.246094 C 181.519531 253.238281 181.667969 253.234375 181.816406 253.246094 C 181.945312 253.273438 182.070312 253.308594 182.195312 253.351562 C 182.40625 253.457031 182.609375 253.574219 182.800781 253.707031 C 183.035156 253.90625 183.246094 254.121094 183.445312 254.355469 C 183.738281 254.765625 183.988281 255.207031 184.195312 255.667969 C 184.359375 256.089844 184.488281 256.523438 184.59375 256.960938 C 184.378906 256.953125 184.167969 256.9375 183.957031 256.914062 Z M 215.347656 264.921875 C 215.347656 264.421875 215.125 263.828125 214.753906 263.484375 C 214.363281 263.128906 213.855469 262.867188 213.3125 262.890625 C 212.785156 262.914062 212.25 263.089844 211.875 263.484375 C 211.289062 264.101562 210.695312 264.714844 210.035156 265.253906 C 209.710938 265.484375 209.371094 265.691406 209.015625 265.863281 C 208.800781 265.9375 208.585938 266 208.363281 266.042969 C 208.171875 266.054688 207.984375 266.054688 207.792969 266.042969 C 207.671875 266.019531 207.550781 265.988281 207.433594 265.949219 C 207.363281 265.914062 207.292969 265.871094 207.222656 265.828125 C 207.167969 265.777344 207.117188 265.726562 207.070312 265.671875 C 206.992188 265.554688 206.925781 265.429688 206.859375 265.304688 C 206.65625 264.734375 206.523438 264.136719 206.429688 263.539062 C 206.316406 262.542969 206.316406 261.539062 206.425781 260.542969 C 206.582031 259.566406 206.84375 258.605469 207.207031 257.683594 C 207.398438 257.261719 207.609375 256.847656 207.84375 256.445312 C 208.109375 255.992188 208.1875 255.390625 208.046875 254.878906 C 207.917969 254.410156 207.554688 253.898438 207.113281 253.667969 C 206.109375 253.136719 204.9375 253.433594 204.332031 254.394531 C 204.207031 254.589844 204.074219 254.777344 203.941406 254.964844 C 203.59375 255.390625 203.210938 255.78125 202.789062 256.132812 C 202.515625 256.324219 202.230469 256.492188 201.929688 256.636719 C 201.726562 256.710938 201.515625 256.765625 201.304688 256.808594 C 201.128906 256.820312 200.953125 256.820312 200.777344 256.8125 C 200.597656 256.773438 200.417969 256.722656 200.242188 256.664062 C 200.023438 256.554688 199.8125 256.429688 199.609375 256.289062 C 199.457031 256.160156 199.3125 256.019531 199.171875 255.875 C 200.664062 254.738281 201.980469 253.390625 202.960938 251.773438 C 203.25 251.300781 203.484375 250.804688 203.699219 250.296875 C 203.90625 249.800781 204.101562 249.304688 204.214844 248.777344 C 204.453125 247.640625 204.523438 246.375 204.132812 245.257812 C 203.882812 244.546875 203.546875 243.941406 203.03125 243.382812 C 202.53125 242.84375 201.914062 242.5 201.242188 242.238281 C 200.242188 241.855469 199 241.902344 198 242.242188 C 197.46875 242.425781 196.925781 242.660156 196.464844 242.988281 C 195.839844 243.429688 195.382812 243.878906 194.925781 244.484375 C 194.542969 244.988281 194.292969 245.554688 194.0625 246.140625 C 193.882812 246.601562 193.757812 247.082031 193.679688 247.574219 C 193.492188 248.765625 193.460938 249.9375 193.550781 251.136719 C 193.632812 252.210938 193.75 253.300781 194.003906 254.355469 C 193.238281 254.769531 192.453125 255.148438 191.65625 255.492188 C 190.675781 255.890625 189.671875 256.238281 188.648438 256.5 C 188.609375 256.300781 188.566406 256.097656 188.519531 255.898438 C 188.066406 253.949219 187.074219 251.914062 185.46875 250.660156 C 185.007812 250.300781 184.558594 249.972656 184.023438 249.734375 C 183.714844 249.597656 183.390625 249.453125 183.0625 249.363281 C 182.714844 249.265625 182.347656 249.226562 181.992188 249.191406 C 180.890625 249.074219 179.777344 249.398438 178.792969 249.867188 C 177.84375 250.316406 177.039062 251.070312 176.460938 251.9375 C 175.773438 252.972656 175.609375 254.214844 175.828125 255.414062 C 176.050781 256.625 176.90625 257.746094 177.839844 258.515625 C 178.8125 259.3125 179.820312 259.898438 180.996094 260.347656 C 181.984375 260.722656 183.039062 260.898438 184.09375 260.996094 C 184.296875 261.015625 184.5 261.023438 184.703125 261.035156 C 184.566406 261.800781 184.363281 262.550781 184.082031 263.277344 C 183.777344 263.953125 183.410156 264.59375 182.976562 265.191406 C 182.605469 265.636719 182.195312 266.050781 181.746094 266.421875 C 181.253906 266.777344 180.726562 267.085938 180.171875 267.339844 C 179.609375 267.558594 179.027344 267.71875 178.429688 267.820312 C 177.917969 267.867188 177.40625 267.871094 176.898438 267.820312 C 176.46875 267.746094 176.046875 267.628906 175.632812 267.476562 C 175.3125 267.320312 175.003906 267.140625 174.710938 266.933594 C 174.394531 266.667969 174.105469 266.378906 173.839844 266.0625 C 173.582031 265.699219 173.359375 265.316406 173.167969 264.914062 C 173.023438 264.523438 172.914062 264.125 172.839844 263.714844 C 172.808594 263.378906 172.808594 263.039062 172.835938 262.703125 C 172.886719 262.441406 172.953125 262.183594 173.042969 261.933594 C 173.152344 261.726562 173.21875 261.507812 173.230469 261.273438 C 173.292969 261 173.277344 260.730469 173.195312 260.460938 C 173.0625 259.992188 172.699219 259.480469 172.261719 259.246094 C 171.785156 258.996094 171.214844 258.871094 170.691406 259.042969 C 170.222656 259.195312 169.683594 259.503906 169.476562 259.976562 C 169.246094 260.503906 169.027344 261.019531 168.917969 261.585938 C 168.8125 262.140625 168.734375 262.71875 168.746094 263.285156 C 168.761719 264.242188 168.9375 265.234375 169.292969 266.125 C 169.726562 267.214844 170.28125 268.160156 171.058594 269.050781 C 171.691406 269.78125 172.492188 270.421875 173.347656 270.875 C 177.324219 272.980469 182.464844 271.734375 185.46875 268.511719 C 187.46875 266.363281 188.585938 263.523438 188.847656 260.609375 C 190.234375 260.316406 191.582031 259.898438 192.902344 259.347656 C 193.839844 258.953125 194.785156 258.523438 195.707031 258.042969 C 196.476562 259.050781 197.472656 259.878906 198.6875 260.394531 C 199.851562 260.886719 201.101562 260.992188 202.335938 260.738281 C 202.308594 261.066406 202.285156 261.390625 202.277344 261.71875 C 202.253906 262.628906 202.347656 263.523438 202.480469 264.425781 C 202.585938 265.160156 202.738281 265.902344 203.019531 266.59375 C 203.210938 267.070312 203.402344 267.535156 203.707031 267.949219 C 204.113281 268.496094 204.496094 268.878906 205.058594 269.273438 C 205.832031 269.8125 206.777344 270.027344 207.699219 270.105469 C 208.484375 270.171875 209.324219 270.054688 210.0625 269.796875 C 211.957031 269.148438 213.402344 267.785156 214.753906 266.359375 C 215.117188 265.972656 215.347656 265.457031 215.347656 264.921875 " fill-opacity="1" fill-rule="nonzero"/><path fill="#2f283a" d="M 132.699219 290.597656 C 131.625 290.988281 130.507812 291.246094 129.378906 291.429688 C 127.78125 291.605469 126.171875 291.675781 124.566406 291.738281 C 122.539062 291.8125 120.511719 291.828125 118.484375 291.757812 C 117.335938 291.71875 116.1875 291.648438 115.042969 291.546875 C 114.882812 291.539062 114.722656 291.542969 114.566406 291.554688 C 114.496094 290.402344 114.425781 289.25 114.355469 288.09375 C 114.214844 285.8125 114.074219 283.527344 113.933594 281.242188 C 114.164062 281.125 114.394531 281.011719 114.628906 280.902344 C 117.0625 279.972656 119.644531 279.457031 122.222656 279.085938 C 124.398438 278.824219 126.597656 278.714844 128.78125 278.929688 C 129.839844 279.109375 130.878906 279.382812 131.886719 279.753906 C 132.585938 280.085938 133.257812 280.472656 133.898438 280.914062 C 134.316406 281.273438 134.710938 281.664062 135.078125 282.078125 C 135.300781 282.414062 135.503906 282.761719 135.6875 283.117188 C 135.832031 283.542969 135.945312 283.976562 136.035156 284.414062 C 136.074219 284.960938 136.070312 285.511719 136.03125 286.058594 C 135.917969 286.632812 135.765625 287.195312 135.570312 287.742188 C 135.351562 288.1875 135.101562 288.613281 134.824219 289.023438 C 134.5625 289.320312 134.285156 289.601562 133.992188 289.863281 C 133.578125 290.136719 133.144531 290.382812 132.699219 290.597656 Z M 140.230469 312.789062 C 138.167969 309.003906 136.199219 305.164062 134.332031 301.277344 C 134.300781 301.210938 134.269531 301.140625 134.234375 301.074219 C 134.335938 301.046875 134.4375 301.019531 134.535156 300.988281 C 135.546875 300.695312 136.507812 300.28125 137.46875 299.863281 C 138.875 299.246094 140.105469 298.363281 141.265625 297.363281 C 141.617188 297.0625 141.945312 296.734375 142.25 296.382812 C 142.84375 295.710938 143.394531 294.996094 143.894531 294.25 C 144.652344 293.113281 145.195312 291.816406 145.652344 290.539062 C 146.128906 289.214844 146.3125 287.820312 146.460938 286.425781 C 146.609375 285.011719 146.433594 283.652344 146.230469 282.25 C 146.027344 280.859375 145.515625 279.625 144.953125 278.335938 C 144.378906 277.011719 143.46875 275.839844 142.535156 274.753906 C 142.179688 274.339844 141.792969 273.953125 141.386719 273.59375 C 140.640625 272.941406 139.847656 272.332031 139.027344 271.78125 C 137.738281 270.914062 136.296875 270.296875 134.851562 269.742188 C 133.757812 269.320312 132.621094 269.019531 131.464844 268.828125 C 129.679688 268.535156 127.886719 268.339844 126.078125 268.359375 C 124.671875 268.371094 123.269531 268.496094 121.875 268.675781 C 120.121094 268.898438 118.371094 269.140625 116.640625 269.488281 C 113.777344 270.058594 110.953125 270.972656 108.375 272.363281 C 108.21875 272.445312 108.070312 272.53125 107.917969 272.617188 C 107.644531 272.65625 107.371094 272.691406 107.101562 272.726562 C 106.214844 272.976562 105.445312 273.425781 104.792969 274.074219 C 104.519531 274.425781 104.246094 274.777344 103.976562 275.128906 C 103.5 275.945312 103.265625 276.824219 103.261719 277.769531 C 103.636719 283.914062 104.015625 290.058594 104.390625 296.203125 C 104.769531 302.347656 105.144531 308.492188 105.523438 314.636719 C 105.734375 318.078125 105.945312 321.519531 106.15625 324.960938 C 106.128906 325.679688 106.277344 326.351562 106.605469 326.976562 C 106.816406 327.625 107.175781 328.183594 107.6875 328.660156 C 108.160156 329.167969 108.722656 329.527344 109.371094 329.738281 C 109.992188 330.066406 110.664062 330.214844 111.382812 330.1875 C 111.847656 330.125 112.3125 330.0625 112.777344 330 C 113.660156 329.753906 114.429688 329.304688 115.082031 328.660156 C 115.355469 328.304688 115.628906 327.953125 115.898438 327.601562 C 116.375 326.785156 116.613281 325.90625 116.613281 324.960938 C 116.238281 318.816406 115.859375 312.671875 115.484375 306.527344 C 115.390625 305.023438 115.300781 303.519531 115.207031 302.011719 C 117.890625 302.246094 120.585938 302.292969 123.277344 302.230469 C 124.726562 305.402344 126.242188 308.542969 127.820312 311.652344 C 129.773438 315.496094 131.828125 319.289062 133.976562 323.03125 C 135.195312 325.152344 136.445312 327.257812 137.722656 329.339844 C 138.054688 329.949219 138.503906 330.4375 139.070312 330.808594 C 139.578125 331.269531 140.167969 331.582031 140.851562 331.742188 C 141.546875 331.960938 142.242188 331.992188 142.9375 331.835938 C 143.632812 331.804688 144.28125 331.597656 144.878906 331.214844 C 145.230469 330.945312 145.585938 330.671875 145.9375 330.398438 C 146.585938 329.746094 147.035156 328.976562 147.285156 328.09375 C 147.34375 327.628906 147.40625 327.167969 147.46875 326.703125 C 147.46875 325.761719 147.230469 324.878906 146.757812 324.066406 C 144.484375 320.363281 142.308594 316.601562 140.230469 312.789062 " fill-opacity="1" fill-rule="nonzero"/><path fill="#2f283a" d="M 154.125 213.40625 C 154.011719 213.976562 153.855469 214.539062 153.660156 215.089844 C 153.441406 215.53125 153.191406 215.957031 152.914062 216.367188 C 152.65625 216.664062 152.375 216.945312 152.082031 217.207031 C 151.667969 217.484375 151.238281 217.726562 150.792969 217.941406 C 149.714844 218.332031 148.597656 218.589844 147.46875 218.773438 C 145.875 218.949219 144.261719 219.023438 142.660156 219.082031 C 140.632812 219.15625 138.601562 219.175781 136.574219 219.101562 C 135.425781 219.0625 134.277344 218.992188 133.132812 218.890625 C 132.972656 218.886719 132.816406 218.886719 132.65625 218.898438 C 132.585938 217.746094 132.515625 216.59375 132.445312 215.4375 C 132.304688 213.15625 132.167969 210.871094 132.027344 208.589844 C 132.253906 208.46875 132.484375 208.359375 132.71875 208.25 C 135.152344 207.316406 137.738281 206.804688 140.3125 206.429688 C 142.492188 206.167969 144.691406 206.058594 146.875 206.273438 C 147.929688 206.457031 148.96875 206.726562 149.976562 207.097656 C 150.675781 207.429688 151.351562 207.816406 151.988281 208.257812 C 152.410156 208.617188 152.800781 209.007812 153.167969 209.425781 C 153.390625 209.757812 153.597656 210.105469 153.777344 210.464844 C 153.921875 210.886719 154.039062 211.320312 154.128906 211.757812 C 154.164062 212.308594 154.164062 212.855469 154.125 213.40625 Z M 160.003906 254.6875 C 160.789062 254.222656 161.414062 253.597656 161.878906 252.8125 C 162.054688 252.394531 162.230469 251.980469 162.40625 251.5625 C 162.65625 250.640625 162.65625 249.710938 162.40625 248.785156 C 161.296875 245.730469 160.203125 242.664062 159.128906 239.59375 C 158.0625 236.539062 157.011719 233.472656 155.984375 230.402344 C 155.65625 229.417969 155.332031 228.433594 155.003906 227.445312 C 155.191406 227.367188 155.375 227.285156 155.5625 227.207031 C 156.964844 226.589844 158.199219 225.707031 159.359375 224.707031 C 159.710938 224.40625 160.039062 224.078125 160.34375 223.730469 C 160.933594 223.054688 161.488281 222.339844 161.988281 221.59375 C 162.742188 220.457031 163.289062 219.164062 163.746094 217.882812 C 164.21875 216.558594 164.40625 215.164062 164.554688 213.769531 C 164.703125 212.355469 164.523438 211 164.320312 209.597656 C 164.121094 208.203125 163.609375 206.96875 163.046875 205.679688 C 162.46875 204.355469 161.558594 203.183594 160.625 202.097656 C 160.269531 201.683594 159.886719 201.296875 159.476562 200.9375 C 158.730469 200.289062 157.941406 199.679688 157.121094 199.125 C 155.832031 198.257812 154.386719 197.644531 152.945312 197.085938 C 151.851562 196.664062 150.714844 196.363281 149.558594 196.175781 C 147.773438 195.878906 145.980469 195.683594 144.171875 195.703125 C 142.761719 195.71875 141.359375 195.839844 139.964844 196.019531 C 138.214844 196.246094 136.464844 196.488281 134.730469 196.832031 C 131.867188 197.402344 129.046875 198.316406 126.46875 199.707031 C 126.3125 199.789062 126.160156 199.875 126.011719 199.964844 C 125.738281 200 125.464844 200.035156 125.191406 200.074219 C 124.304688 200.320312 123.539062 200.769531 122.882812 201.417969 C 122.613281 201.769531 122.339844 202.121094 122.066406 202.476562 C 121.59375 203.289062 121.355469 204.167969 121.355469 205.113281 C 121.730469 211.257812 122.105469 217.402344 122.484375 223.546875 C 122.859375 229.691406 123.238281 235.835938 123.613281 241.980469 C 123.824219 245.421875 124.035156 248.863281 124.246094 252.308594 C 124.21875 253.027344 124.371094 253.695312 124.695312 254.320312 C 124.90625 254.96875 125.269531 255.527344 125.777344 256.003906 C 126.253906 256.511719 126.8125 256.871094 127.460938 257.082031 C 128.085938 257.410156 128.757812 257.5625 129.476562 257.535156 C 129.941406 257.472656 130.402344 257.410156 130.867188 257.34375 C 131.753906 257.097656 132.523438 256.648438 133.171875 256.003906 C 133.445312 255.648438 133.71875 255.296875 133.992188 254.945312 C 134.464844 254.128906 134.703125 253.25 134.707031 252.308594 C 134.328125 246.160156 133.953125 240.019531 133.578125 233.871094 C 133.484375 232.367188 133.390625 230.863281 133.300781 229.359375 C 136.109375 229.601562 138.929688 229.644531 141.75 229.566406 C 142.71875 229.539062 143.691406 229.5 144.660156 229.445312 C 145.515625 232.039062 146.378906 234.632812 147.261719 237.214844 C 148.308594 240.28125 149.375 243.335938 150.457031 246.386719 C 151.074219 248.117188 151.695312 249.839844 152.320312 251.5625 C 152.484375 252.246094 152.792969 252.835938 153.257812 253.339844 C 153.625 253.910156 154.117188 254.359375 154.726562 254.6875 C 155.324219 255.070312 155.972656 255.277344 156.667969 255.308594 C 157.363281 255.464844 158.058594 255.433594 158.753906 255.214844 C 159.171875 255.039062 159.585938 254.863281 160.003906 254.6875 " fill-opacity="1" fill-rule="nonzero"/><path fill="#2f283a" d="M 183.488281 185.144531 C 181.226562 185.003906 179.511719 182.988281 179.65625 180.640625 C 179.800781 178.292969 181.75 176.503906 184.011719 176.640625 C 186.269531 176.78125 187.984375 178.796875 187.839844 181.144531 C 187.695312 183.492188 185.746094 185.28125 183.488281 185.144531 Z M 167.105469 180.804688 C 167.25 178.492188 169.070312 176.722656 171.171875 176.851562 C 173.277344 176.980469 174.867188 178.960938 174.722656 181.277344 C 174.582031 183.589844 172.761719 185.359375 170.65625 185.230469 C 168.554688 185.101562 166.964844 183.121094 167.105469 180.804688 Z M 175.269531 187.847656 L 176.320312 185.679688 C 176.621094 185.0625 177.457031 185.035156 177.789062 185.628906 L 179.074219 187.941406 C 179.40625 188.542969 178.964844 189.289062 178.296875 189.25 L 175.960938 189.105469 C 175.363281 189.070312 175 188.40625 175.269531 187.847656 Z M 191.886719 183.929688 C 192.359375 176.257812 191.953125 168.785156 177.871094 167.917969 C 163.789062 167.050781 162.546875 174.425781 162.074219 182.097656 C 161.746094 187.4375 164.832031 190.097656 169.429688 192.710938 C 169.054688 193.507812 168.820312 194.375 168.761719 195.296875 C 168.742188 195.601562 168.816406 195.890625 168.964844 196.164062 C 168.9375 196.273438 168.921875 196.382812 168.914062 196.496094 C 168.859375 197.382812 169.402344 198.140625 170.125 198.183594 C 170.292969 198.195312 170.457031 198.164062 170.609375 198.101562 C 170.84375 198.929688 171.488281 199.542969 172.285156 199.59375 C 172.730469 199.621094 173.144531 199.464844 173.488281 199.191406 C 173.738281 199.988281 174.371094 200.574219 175.148438 200.621094 C 175.777344 200.660156 176.355469 200.335938 176.738281 199.808594 C 177.058594 200.257812 177.53125 200.554688 178.074219 200.585938 C 178.804688 200.632812 179.46875 200.191406 179.832031 199.503906 C 180.109375 199.734375 180.445312 199.882812 180.816406 199.90625 C 181.507812 199.945312 182.136719 199.550781 182.511719 198.929688 C 182.640625 198.984375 182.78125 199.019531 182.925781 199.027344 C 183.753906 199.078125 184.480469 198.289062 184.542969 197.265625 C 184.542969 197.203125 184.546875 197.144531 184.542969 197.082031 C 184.707031 196.839844 184.808594 196.574219 184.828125 196.285156 C 184.894531 195.167969 184.695312 194.089844 184.285156 193.109375 C 188.644531 190.910156 191.582031 188.898438 191.886719 183.929688 " fill-opacity="1" fill-rule="nonzero"/></svg>