<svg xmlns="http://www.w3.org/2000/svg" xmlns:xlink="http://www.w3.org/1999/xlink" width="500" zoomAndPan="magnify" viewBox="0 0 375 374.999991" height="500" preserveAspectRatio="xMidYMid meet" version="1.0"><defs><g/><clipPath id="1001ba70c8"><path d="M 187.5 0 C 83.945312 0 0 83.945312 0 187.5 C 0 291.054688 83.945312 375 187.5 375 C 291.054688 375 375 291.054688 375 187.5 C 375 83.945312 291.054688 0 187.5 0 Z M 187.5 0 " clip-rule="nonzero"/></clipPath></defs><g clip-path="url(#1001ba70c8)"><rect x="-37.5" width="450" fill="#2e2e2e" y="-37.499999" height="449.999989" fill-opacity="1"/></g><g fill="#ededed" fill-opacity="1"><g transform="translate(108.916201, 240.829342)"><g><path d="M 80.988281 -78.8125 L 138.523438 -157.382812 L 113.625 -157.382812 L 41.097656 -58.019531 L 41.097656 -157.382812 L 20.550781 -157.382812 L 20.550781 3.867188 L 68.65625 -61.648438 L 118.457031 0 L 144.566406 0 Z M 80.988281 -78.8125 "/></g></g></g><g fill="#ffffff" fill-opacity="1"><g transform="translate(69.141854, 281.469147)"><g><path d="M 18.03125 0 L 10.609375 -9.96875 L 6.765625 -5.734375 L 6.765625 0 L 2.96875 0 L 2.96875 -22.578125 L 6.765625 -22.578125 L 6.765625 -10.90625 L 17.546875 -22.578125 L 22.03125 -22.578125 L 13.28125 -12.9375 L 22.609375 0 Z M 18.03125 0 "/></g></g></g><g fill="#ffffff" fill-opacity="1"><g transform="translate(105.200943, 281.469147)"><g><path d="M 17.28125 0 L 13.15625 -6.84375 C 12.9375 -6.820312 12.59375 -6.8125 12.125 -6.8125 L 6.765625 -6.8125 L 6.765625 0 L 2.96875 0 L 2.96875 -22.578125 L 12.125 -22.578125 C 15.007812 -22.578125 17.242188 -21.90625 18.828125 -20.5625 C 20.421875 -19.21875 21.21875 -17.320312 21.21875 -14.875 C 21.21875 -13.0625 20.8125 -11.53125 20 -10.28125 C 19.195312 -9.039062 18.046875 -8.128906 16.546875 -7.546875 L 21.609375 0 Z M 6.765625 -10.21875 L 12.125 -10.21875 C 15.78125 -10.21875 17.609375 -11.734375 17.609375 -14.765625 C 17.609375 -17.691406 15.78125 -19.15625 12.125 -19.15625 L 6.765625 -19.15625 Z M 6.765625 -10.21875 "/></g></g></g><g fill="#ffffff" fill-opacity="1"><g transform="translate(141.421291, 281.469147)"><g><path d="M 17.28125 0 L 13.15625 -6.84375 C 12.9375 -6.820312 12.59375 -6.8125 12.125 -6.8125 L 6.765625 -6.8125 L 6.765625 0 L 2.96875 0 L 2.96875 -22.578125 L 12.125 -22.578125 C 15.007812 -22.578125 17.242188 -21.90625 18.828125 -20.5625 C 20.421875 -19.21875 21.21875 -17.320312 21.21875 -14.875 C 21.21875 -13.0625 20.8125 -11.53125 20 -10.28125 C 19.195312 -9.039062 18.046875 -8.128906 16.546875 -7.546875 L 21.609375 0 Z M 6.765625 -10.21875 L 12.125 -10.21875 C 15.78125 -10.21875 17.609375 -11.734375 17.609375 -14.765625 C 17.609375 -17.691406 15.78125 -19.15625 12.125 -19.15625 L 6.765625 -19.15625 Z M 6.765625 -10.21875 "/></g></g></g><g fill="#ffffff" fill-opacity="1"><g transform="translate(177.641633, 281.469147)"><g><path d="M 10.390625 -22.734375 C 13.304688 -22.734375 15.9375 -21.960938 18.28125 -20.421875 L 16.703125 -17.0625 C 14.398438 -18.457031 12.195312 -19.15625 10.09375 -19.15625 C 8.957031 -19.15625 8.0625 -18.953125 7.40625 -18.546875 C 6.75 -18.140625 6.421875 -17.554688 6.421875 -16.796875 C 6.421875 -16.046875 6.71875 -15.40625 7.3125 -14.875 C 7.914062 -14.351562 8.671875 -13.96875 9.578125 -13.71875 C 10.484375 -13.46875 11.460938 -13.15625 12.515625 -12.78125 C 13.566406 -12.40625 14.539062 -12.007812 15.4375 -11.59375 C 16.34375 -11.175781 17.09375 -10.519531 17.6875 -9.625 C 18.28125 -8.726562 18.578125 -7.648438 18.578125 -6.390625 C 18.578125 -4.410156 17.785156 -2.828125 16.203125 -1.640625 C 14.617188 -0.460938 12.570312 0.125 10.0625 0.125 C 8.34375 0.125 6.675781 -0.195312 5.0625 -0.84375 C 3.445312 -1.488281 2.039062 -2.359375 0.84375 -3.453125 L 2.484375 -6.734375 C 3.617188 -5.679688 4.867188 -4.867188 6.234375 -4.296875 C 7.597656 -3.734375 8.894531 -3.453125 10.125 -3.453125 C 11.457031 -3.453125 12.492188 -3.691406 13.234375 -4.171875 C 13.972656 -4.660156 14.34375 -5.332031 14.34375 -6.1875 C 14.34375 -6.96875 14.039062 -7.617188 13.4375 -8.140625 C 12.84375 -8.671875 12.09375 -9.054688 11.1875 -9.296875 C 10.289062 -9.546875 9.3125 -9.847656 8.25 -10.203125 C 7.195312 -10.554688 6.21875 -10.929688 5.3125 -11.328125 C 4.414062 -11.734375 3.664062 -12.375 3.0625 -13.25 C 2.457031 -14.132812 2.15625 -15.203125 2.15625 -16.453125 C 2.15625 -18.359375 2.90625 -19.878906 4.40625 -21.015625 C 5.914062 -22.160156 7.910156 -22.734375 10.390625 -22.734375 Z M 10.390625 -22.734375 "/></g></g></g><g fill="#ffffff" fill-opacity="1"><g transform="translate(210.604689, 281.469147)"><g><path d="M 10.390625 -22.734375 C 13.304688 -22.734375 15.9375 -21.960938 18.28125 -20.421875 L 16.703125 -17.0625 C 14.398438 -18.457031 12.195312 -19.15625 10.09375 -19.15625 C 8.957031 -19.15625 8.0625 -18.953125 7.40625 -18.546875 C 6.75 -18.140625 6.421875 -17.554688 6.421875 -16.796875 C 6.421875 -16.046875 6.71875 -15.40625 7.3125 -14.875 C 7.914062 -14.351562 8.671875 -13.96875 9.578125 -13.71875 C 10.484375 -13.46875 11.460938 -13.15625 12.515625 -12.78125 C 13.566406 -12.40625 14.539062 -12.007812 15.4375 -11.59375 C 16.34375 -11.175781 17.09375 -10.519531 17.6875 -9.625 C 18.28125 -8.726562 18.578125 -7.648438 18.578125 -6.390625 C 18.578125 -4.410156 17.785156 -2.828125 16.203125 -1.640625 C 14.617188 -0.460938 12.570312 0.125 10.0625 0.125 C 8.34375 0.125 6.675781 -0.195312 5.0625 -0.84375 C 3.445312 -1.488281 2.039062 -2.359375 0.84375 -3.453125 L 2.484375 -6.734375 C 3.617188 -5.679688 4.867188 -4.867188 6.234375 -4.296875 C 7.597656 -3.734375 8.894531 -3.453125 10.125 -3.453125 C 11.457031 -3.453125 12.492188 -3.691406 13.234375 -4.171875 C 13.972656 -4.660156 14.34375 -5.332031 14.34375 -6.1875 C 14.34375 -6.96875 14.039062 -7.617188 13.4375 -8.140625 C 12.84375 -8.671875 12.09375 -9.054688 11.1875 -9.296875 C 10.289062 -9.546875 9.3125 -9.847656 8.25 -10.203125 C 7.195312 -10.554688 6.21875 -10.929688 5.3125 -11.328125 C 4.414062 -11.734375 3.664062 -12.375 3.0625 -13.25 C 2.457031 -14.132812 2.15625 -15.203125 2.15625 -16.453125 C 2.15625 -18.359375 2.90625 -19.878906 4.40625 -21.015625 C 5.914062 -22.160156 7.910156 -22.734375 10.390625 -22.734375 Z M 10.390625 -22.734375 "/></g></g></g><g fill="#ffffff" fill-opacity="1"><g transform="translate(243.567745, 281.469147)"><g><path d="M 22.546875 0 L 18.796875 0 L 6.765625 -16.1875 L 6.765625 0 L 2.96875 0 L 2.96875 -22.578125 L 6.703125 -22.578125 L 18.796875 -6.359375 L 18.796875 -22.578125 L 22.546875 -22.578125 Z M 22.546875 0 "/></g></g></g><g fill="#ffffff" fill-opacity="1"><g transform="translate(282.01336, 281.469147)"><g><path d="M 17.546875 -5.09375 L 6.15625 -5.09375 L 4 0 L 0.03125 0 L 9.671875 -21.796875 C 8.578125 -22.578125 8.03125 -23.632812 8.03125 -24.96875 C 8.03125 -26.039062 8.414062 -26.960938 9.1875 -27.734375 C 9.96875 -28.503906 10.894531 -28.890625 11.96875 -28.890625 C 13.0625 -28.890625 13.992188 -28.503906 14.765625 -27.734375 C 15.546875 -26.960938 15.9375 -26.039062 15.9375 -24.96875 C 15.9375 -23.632812 15.375 -22.566406 14.25 -21.765625 L 23.765625 0 L 19.703125 0 Z M 11.96875 -27.09375 C 11.363281 -27.09375 10.835938 -26.878906 10.390625 -26.453125 C 9.953125 -26.035156 9.734375 -25.535156 9.734375 -24.953125 C 9.734375 -24.378906 9.945312 -23.882812 10.375 -23.46875 C 10.8125 -23.0625 11.34375 -22.859375 11.96875 -22.859375 C 12.59375 -22.859375 13.125 -23.0625 13.5625 -23.46875 C 14 -23.882812 14.21875 -24.378906 14.21875 -24.953125 C 14.21875 -25.535156 14 -26.035156 13.5625 -26.453125 C 13.125 -26.878906 12.59375 -27.09375 11.96875 -27.09375 Z M 16.09375 -8.484375 L 11.828125 -18.515625 L 7.578125 -8.484375 Z M 16.09375 -8.484375 "/></g></g></g></svg>